<svg width="36" height="36" fill="none" xmlns="http://www.w3.org/2000/svg"><path d="M4.064 30.193c-.96 0-1.742.782-1.742 1.742s.782 1.742 1.742 1.742 1.742-.781 1.742-1.742c0-.96-.782-1.742-1.742-1.742Zm0 2.323a.581.581 0 1 1 .002-1.163.581.581 0 0 1-.002 1.163Z" fill="#fff"/><path d="M36 4.276A4.28 4.28 0 0 0 31.724 0a4.247 4.247 0 0 0-3.023 1.253L26.633 3.32a2.968 2.968 0 0 0-1.503-.417 2.98 2.98 0 0 0-2.524 1.386l-3.604 5.663 1.08 1.08-1.501 1.502-.39-.39a1.814 1.814 0 0 0-2.563 2.563l.39.39-1.502 1.501-.39-.39a1.814 1.814 0 0 0-2.563 2.563l.39.39-1.501 1.502-.39-.39a1.814 1.814 0 0 0-2.563 2.563l.39.39-1.502 1.501-.39-.39A1.814 1.814 0 0 0 3.434 26.9l.39.39-2.812 2.812A3.434 3.434 0 0 0 0 32.545 3.459 3.459 0 0 0 3.455 36c.923 0 1.79-.36 2.443-1.012l2.812-2.812.39.39a1.814 1.814 0 0 0 2.563-2.563l-.39-.39 1.501-1.502.39.39a1.814 1.814 0 0 0 2.563-2.563l-.39-.39 1.502-1.501.39.39a1.814 1.814 0 0 0 2.563-2.563l-.39-.39 1.501-1.502.39.39a1.814 1.814 0 0 0 2.563-2.563l-.39-.39 1.502-1.501 1.08 1.08 5.663-3.604a2.964 2.964 0 0 0 .968-4.026L34.747 7.3A4.248 4.248 0 0 0 36 4.276ZM5.076 34.166a2.277 2.277 0 0 1-1.621.673 2.296 2.296 0 0 1-2.294-2.294c0-.612.239-1.189.672-1.622l2.812-2.812 3.244 3.244-2.813 2.812Zm5.305-2.23a.646.646 0 0 1-.46-.191l-5.666-5.666a.652.652 0 0 1 .92-.92l5.667 5.665a.652.652 0 0 1-.46 1.111Zm.07-3.144-3.243-3.244 1.502-1.501 3.243 3.243-1.501 1.502Zm3.995-.921a.646.646 0 0 1-.46-.19L8.32 22.014a.652.652 0 0 1 .92-.92l5.666 5.665a.652.652 0 0 1-.46 1.111Zm.07-3.144-3.243-3.243 1.501-1.502 3.244 3.244-1.502 1.501Zm3.994-.92a.646.646 0 0 1-.46-.191l-5.666-5.666a.652.652 0 0 1 .92-.92l5.667 5.665a.652.652 0 0 1-.46 1.111Zm.07-3.144-3.243-3.244 1.502-1.501 3.243 3.243-1.501 1.502Zm3.995-.921a.646.646 0 0 1-.46-.19l-5.666-5.666a.652.652 0 0 1 .92-.92l5.666 5.665a.652.652 0 0 1-.46 1.111Zm.07-3.144-3.243-3.243 1.501-1.502 3.244 3.244-1.502 1.501ZM20.482 9.79l2.523-3.964 7.17 7.17-3.965 2.522-5.728-5.728Zm10.687 2.558L23.652 4.83a1.816 1.816 0 0 1 2.772-.23L31.4 9.575a1.82 1.82 0 0 1-.23 2.773Zm.767-3.879L27.53 4.065l1.99-1.992a3.097 3.097 0 0 1 2.203-.912 3.118 3.118 0 0 1 3.115 3.115c0 .832-.324 1.614-.912 2.202l-1.99 1.992Z" fill="#fff"/><path d="M31.935 2.322c-.96 0-1.742.782-1.742 1.742s.782 1.742 1.742 1.742 1.742-.782 1.742-1.742-.781-1.742-1.742-1.742Zm0 2.323a.581.581 0 1 1 .002-1.163.581.581 0 0 1-.002 1.163Z" fill="#fff"/></svg>