<svg width="20" height="20" fill="none" xmlns="http://www.w3.org/2000/svg"><path d="M6.042 1.438v2.125l-.553-.093a.984.984 0 0 1 0-1.94l.553-.093Zm7.291-.105v2.334C13.333 4.402 12.737 5 12 5a.415.415 0 0 0-.405.325l-.553 2.487H8.958l-.552-2.487A.415.415 0 0 0 8 5a1.333 1.333 0 0 1-1.333-1.333V1.333C6.667.597 7.264 0 8 0h4c.736 0 1.333.597 1.333 1.333ZM11 9.063V11a1 1 0 1 1-2 0V9.062h2Zm1.708 6.435a.877.877 0 0 1-.877.877H8.168a.878.878 0 0 1-.877-.877c0-.138-.041.09.737-3.412.85 1.546 3.083 1.555 3.943-.002.779 3.507.737 3.276.737 3.414Z" fill="#000"/><path d="M16.667 12.667v4.666A2.667 2.667 0 0 1 14 20H6a2.666 2.666 0 0 1-2.667-2.667v-4.666A2.666 2.666 0 0 1 6 10h1.472a3.102 3.102 0 0 0-.516 1.15c-.925 4.161-.914 4.017-.914 4.348 0 1.173.954 2.127 2.126 2.127h3.663a2.126 2.126 0 0 0 2.127-2.127c0-.321.029-.106-.915-4.348a3.092 3.092 0 0 0-.516-1.15H14a2.667 2.667 0 0 1 2.667 2.667Z" fill="#000"/></svg>