<svg width="56" height="56" fill="none" xmlns="http://www.w3.org/2000/svg"><path d="M11.286 10.924a.82.82 0 0 0-1.16 0l-2.071 2.07-.883-.883a.82.82 0 1 0-1.16 1.16l1.463 1.463a.818.818 0 0 0 1.16 0l2.65-2.65a.82.82 0 0 0 0-1.16Zm-.554 8.516H6.566a1.62 1.62 0 0 0-1.618 1.618v4.167a1.62 1.62 0 0 0 1.618 1.618h4.167a1.62 1.62 0 0 0 1.619-1.618v-4.167a1.62 1.62 0 0 0-1.619-1.619Zm-.022 5.762H6.588V21.08h4.122v4.122Zm.022 5.751H6.566a1.62 1.62 0 0 0-1.618 1.618v4.167a1.62 1.62 0 0 0 1.618 1.619h4.167a1.62 1.62 0 0 0 1.619-1.619v-4.167a1.62 1.62 0 0 0-1.619-1.618Zm-.022 5.763H6.588v-4.122h4.122v4.122Zm.022 5.997H6.566a1.62 1.62 0 0 0-1.618 1.618v4.167a1.62 1.62 0 0 0 1.618 1.619h4.167a1.62 1.62 0 0 0 1.619-1.619v-4.167a1.62 1.62 0 0 0-1.619-1.618Zm-.022 5.763H6.588v-4.123h4.122v4.123Z" fill="#FFD124"/><path d="M54.654 21.943a.82.82 0 0 0-.82.82v30.489c0 .61-.497 1.107-1.108 1.107h-29.37a1.108 1.108 0 0 1-1.108-1.107v-41.03c0-.61.496-1.107 1.107-1.107h29.37c.612 0 1.108.497 1.108 1.107V19.4a.82.82 0 0 0 1.641 0v-7.177a2.751 2.751 0 0 0-2.748-2.749H48.33v-4.63A4.85 4.85 0 0 0 43.485 0H6.056a5.537 5.537 0 0 0-5.53 5.53v45.568a4.85 4.85 0 0 0 4.844 4.844h13.133a.82.82 0 1 0 0-1.64H5.37a3.207 3.207 0 0 1-3.204-3.204V5.53a3.894 3.894 0 0 1 3.89-3.89h33.8a4.823 4.823 0 0 0-1.216 3.204v2.264a.82.82 0 1 0 1.64 0V4.845a3.208 3.208 0 0 1 3.205-3.204 3.207 3.207 0 0 1 3.204 3.204v4.63H23.355a2.751 2.751 0 0 0-2.748 2.748v.567h-4.262a.82.82 0 1 0 0 1.641h4.262v7.89h-4.262a.82.82 0 1 0 0 1.64h4.262v9.874h-4.262a.82.82 0 1 0 0 1.64h4.262v10.118h-4.262a.82.82 0 1 0 0 1.641h4.262v6.018A2.751 2.751 0 0 0 23.355 56h29.371a2.751 2.751 0 0 0 2.748-2.748v-30.49a.82.82 0 0 0-.82-.82Z" fill="#FFD124"/><path d="M50.21 12.412H25.59a1.955 1.955 0 0 0-1.952 1.953v6.13c0 1.077.876 1.953 1.953 1.953h24.618a1.955 1.955 0 0 0 1.953-1.953v-6.13a1.955 1.955 0 0 0-1.953-1.953Zm0 8.395H25.59a.313.313 0 0 1-.312-.312v-6.13c0-.172.14-.312.313-.312h24.618c.172 0 .312.14.312.312v6.13c0 .172-.14.312-.312.312Zm-22.212 3.279h-2.7c-.915 0-1.66.745-1.66 1.66v2.637c0 .915.744 1.66 1.66 1.66h2.7c.915 0 1.66-.745 1.66-1.66v-2.637c0-.915-.745-1.66-1.66-1.66Zm.02 4.297a.02.02 0 0 1-.02.02h-2.7a.02.02 0 0 1-.02-.02v-2.637a.02.02 0 0 1 .02-.02h2.7c.01 0 .02.01.02.02v2.637Zm7.481-4.297h-2.7c-.915 0-1.66.745-1.66 1.66v2.637c0 .915.745 1.66 1.66 1.66h2.7c.915 0 1.66-.745 1.66-1.66v-2.637c0-.915-.745-1.66-1.66-1.66Zm.02 4.297a.02.02 0 0 1-.02.02h-2.7a.02.02 0 0 1-.02-.02v-2.637a.02.02 0 0 1 .02-.02h2.7c.01 0 .02.01.02.02v2.637ZM43 24.086h-2.7c-.915 0-1.66.745-1.66 1.66v2.637c0 .915.745 1.66 1.66 1.66H43c.915 0 1.66-.745 1.66-1.66v-2.637c0-.915-.744-1.66-1.66-1.66Zm.02 4.297a.02.02 0 0 1-.02.02h-2.7a.02.02 0 0 1-.02-.02v-2.637a.02.02 0 0 1 .02-.02H43c.01 0 .02.01.02.02v2.637Zm7.482-4.297h-2.7c-.916 0-1.66.745-1.66 1.66v2.637c0 .915.744 1.66 1.66 1.66h2.7c.915 0 1.66-.745 1.66-1.66v-2.637c0-.915-.745-1.66-1.66-1.66Zm.02 4.297a.02.02 0 0 1-.02.02h-2.7a.02.02 0 0 1-.02-.02v-2.637a.02.02 0 0 1 .02-.02h2.7a.02.02 0 0 1 .02.02v2.637Zm-22.524 3.293h-2.7c-.915 0-1.66.745-1.66 1.66v2.637c0 .915.744 1.66 1.66 1.66h2.7c.915 0 1.66-.745 1.66-1.66v-2.637c0-.915-.745-1.66-1.66-1.66Zm.02 4.296a.02.02 0 0 1-.02.02h-2.7a.02.02 0 0 1-.02-.02v-2.636c0-.01.01-.02.02-.02h2.7c.01 0 .02.01.02.02v2.636Zm7.481-4.296h-2.7c-.915 0-1.66.745-1.66 1.66v2.637c0 .915.745 1.66 1.66 1.66h2.7c.915 0 1.66-.745 1.66-1.66v-2.637c0-.915-.745-1.66-1.66-1.66Zm.02 4.296a.02.02 0 0 1-.02.02h-2.7a.02.02 0 0 1-.02-.02v-2.636c0-.01.01-.02.02-.02h2.7c.01 0 .02.01.02.02v2.636ZM43 31.676h-2.7c-.915 0-1.66.745-1.66 1.66v2.637c0 .915.745 1.66 1.66 1.66H43c.915 0 1.66-.745 1.66-1.66v-2.637c0-.915-.744-1.66-1.66-1.66Zm.02 4.296a.02.02 0 0 1-.02.02h-2.7a.02.02 0 0 1-.02-.02v-2.636c0-.01.01-.02.02-.02H43c.01 0 .02.01.02.02v2.636Zm7.482-4.296h-2.7c-.916 0-1.66.745-1.66 1.66v2.637c0 .915.744 1.66 1.66 1.66h2.7c.915 0 1.66-.745 1.66-1.66v-2.637c0-.915-.745-1.66-1.66-1.66Zm.02 4.296a.02.02 0 0 1-.02.02h-2.7a.02.02 0 0 1-.02-.02v-2.636c0-.01.009-.02.02-.02h2.7a.02.02 0 0 1 .02.02v2.636Zm-22.524 3.296h-2.7c-.915 0-1.66.744-1.66 1.66v2.636c0 .916.744 1.66 1.66 1.66h2.7c.915 0 1.66-.744 1.66-1.66v-2.636c0-.916-.745-1.66-1.66-1.66Zm.02 4.296a.02.02 0 0 1-.02.02h-2.7a.02.02 0 0 1-.02-.02v-2.636c0-.01.01-.02.02-.02h2.7c.01 0 .02.01.02.02v2.636Zm7.481-4.296h-2.7c-.915 0-1.66.744-1.66 1.66v2.636c0 .916.745 1.66 1.66 1.66h2.7c.915 0 1.66-.744 1.66-1.66v-2.636c0-.916-.745-1.66-1.66-1.66Zm.02 4.296a.02.02 0 0 1-.02.02h-2.7a.02.02 0 0 1-.02-.02v-2.636c0-.01.01-.02.02-.02h2.7c.01 0 .02.01.02.02v2.636ZM43 39.268h-2.7c-.915 0-1.66.744-1.66 1.66v2.636c0 .916.745 1.66 1.66 1.66H43c.915 0 1.66-.744 1.66-1.66v-2.636c0-.916-.744-1.66-1.66-1.66Zm.02 4.296a.02.02 0 0 1-.02.02h-2.7a.02.02 0 0 1-.02-.02v-2.636c0-.01.01-.02.02-.02H43c.01 0 .02.01.02.02v2.636Zm7.482-4.296h-2.7c-.916 0-1.66.744-1.66 1.66v9.77c0 .916.744 1.66 1.66 1.66h2.7c.915 0 1.66-.744 1.66-1.66v-9.77c0-.916-.745-1.66-1.66-1.66Zm.02 11.43a.02.02 0 0 1-.02.02h-2.7a.02.02 0 0 1-.02-.02v-9.77c0-.01.009-.02.02-.02h2.7a.02.02 0 0 1 .02.02v9.77Zm-22.524-4.296h-2.7c-.915 0-1.66.745-1.66 1.66V50.7c0 .916.744 1.66 1.66 1.66h2.7c.915 0 1.66-.744 1.66-1.66v-2.636c0-.916-.745-1.66-1.66-1.66Zm.02 4.297a.02.02 0 0 1-.02.02h-2.7a.02.02 0 0 1-.02-.02v-2.636a.02.02 0 0 1 .02-.02h2.7c.01 0 .02.009.02.02v2.636Zm7.481-4.297h-2.7c-.915 0-1.66.745-1.66 1.66V50.7c0 .916.745 1.66 1.66 1.66h2.7c.915 0 1.66-.744 1.66-1.66v-2.636c0-.916-.745-1.66-1.66-1.66Zm.02 4.297a.02.02 0 0 1-.02.02h-2.7a.02.02 0 0 1-.02-.02v-2.636a.02.02 0 0 1 .02-.02h2.7c.01 0 .02.009.02.02v2.636ZM43 46.402h-2.699c-.916 0-1.66.745-1.66 1.66V50.7c0 .916.745 1.66 1.66 1.66h2.7c.915 0 1.66-.744 1.66-1.66v-2.636c0-.916-.745-1.66-1.66-1.66Zm.02 4.297a.02.02 0 0 1-.02.02h-2.7a.02.02 0 0 1-.019-.02v-2.636a.02.02 0 0 1 .02-.02H43a.02.02 0 0 1 .02.02v2.636Z" fill="#FFD124"/></svg>