<svg width="40" height="40" fill="none" xmlns="http://www.w3.org/2000/svg"><g clip-path="url(#a)" fill="#000"><path d="M37.85 3.428h-2.014v-.873c0-1.194-.97-2.164-2.164-2.164-1.193 0-2.164.97-2.164 2.164v.873H29.61v-.873A2.166 2.166 0 0 0 27.445.391c-1.193 0-2.163.97-2.163 2.164v.873H14.719v-.873A2.166 2.166 0 0 0 12.555.391c-1.194 0-2.165.97-2.165 2.164v.873H8.492v-.873C8.492 1.36 7.522.39 6.328.39c-1.193 0-2.164.97-2.164 2.164v.873H2.15A2.153 2.153 0 0 0 0 5.577V37.46c0 1.185.964 2.15 2.15 2.15H30c.758 0 .758-1.172 0-1.172H2.15a.978.978 0 0 1-.978-.978V11.921h3.382c.758 0 .758-1.171 0-1.171H1.172V5.576c0-.539.438-.977.977-.977h2.015v.919c0 1.193.97 2.164 2.164 2.164 1.193 0 2.164-.97 2.164-2.164v-.92h1.898v.92c0 1.193.971 2.164 2.165 2.164 1.193 0 2.164-.97 2.164-2.164v-.92h10.563v.92c0 1.193.97 2.164 2.163 2.164 1.194 0 2.165-.97 2.165-2.164v-.92h1.898v.92c0 1.193.97 2.164 2.164 2.164 1.193 0 2.164-.97 2.164-2.164v-.92h2.015c.539 0 .977.439.977.978v5.172H8.093c-.757 0-.757 1.172 0 1.172h30.735v25.54a.978.978 0 0 1-.977.977h-4.335c-.758 0-.758 1.171 0 1.171h4.335A2.151 2.151 0 0 0 40 37.459V5.577c0-1.185-.964-2.15-2.15-2.15ZM7.32 5.519a.993.993 0 0 1-1.984 0V2.555a.993.993 0 0 1 1.984 0v2.964Zm6.227 0a.993.993 0 0 1-1.985 0V2.555a.993.993 0 0 1 1.985 0v2.964Zm14.89 0a.993.993 0 0 1-1.984 0V2.555a.993.993 0 0 1 1.985 0v2.964Zm6.227 0a.993.993 0 0 1-1.984 0V2.555a.993.993 0 0 1 1.984 0v2.964Z"/><path d="M11.21 14.596a2.146 2.146 0 0 0-2.144 2.144c0 1.182.962 2.144 2.144 2.144a2.146 2.146 0 0 0 2.144-2.144 2.146 2.146 0 0 0-2.144-2.144Zm0 3.116a.973.973 0 0 1 0-1.944.973.973 0 0 1 0 1.944ZM17 14.596a2.146 2.146 0 0 0-2.144 2.144c0 1.182.962 2.144 2.144 2.144a2.146 2.146 0 0 0 2.144-2.144A2.146 2.146 0 0 0 17 14.596Zm0 3.116a.973.973 0 0 1 0-1.944.973.973 0 0 1 0 1.944Zm11.582-3.116a2.146 2.146 0 0 0-2.143 2.144c0 1.182.961 2.144 2.143 2.144a2.146 2.146 0 0 0 2.144-2.144 2.146 2.146 0 0 0-2.143-2.144Zm0 3.116a.973.973 0 0 1 0-1.944.973.973 0 0 1 0 1.944Zm5.791 1.172a2.146 2.146 0 0 0 2.144-2.144 2.146 2.146 0 0 0-2.144-2.144 2.146 2.146 0 0 0-2.143 2.144c0 1.182.961 2.144 2.143 2.144Zm0-3.116a.973.973 0 0 1 0 1.944.973.973 0 0 1 0-1.944ZM5.42 20.13a2.146 2.146 0 0 0-2.145 2.145c0 1.182.962 2.144 2.144 2.144a2.146 2.146 0 0 0 2.144-2.144A2.146 2.146 0 0 0 5.42 20.13Zm0 3.117a.973.973 0 0 1 0-1.944.973.973 0 0 1 0 1.944Zm5.79-3.117a2.146 2.146 0 0 0-2.144 2.145c0 1.182.962 2.144 2.144 2.144a2.146 2.146 0 0 0 2.144-2.144 2.146 2.146 0 0 0-2.144-2.144Zm0 3.117a.973.973 0 0 1 0-1.944.973.973 0 0 1 0 1.944ZM17 20.13a2.146 2.146 0 0 0-2.144 2.145c0 1.182.962 2.144 2.144 2.144a2.146 2.146 0 0 0 2.144-2.144A2.146 2.146 0 0 0 17 20.13Zm0 3.117a.973.973 0 0 1 0-1.944.973.973 0 0 1 0 1.944Zm11.582-3.117a2.146 2.146 0 0 0-2.143 2.145c0 1.182.961 2.144 2.143 2.144a2.146 2.146 0 0 0 2.144-2.144 2.146 2.146 0 0 0-2.143-2.144Zm0 3.117a.973.973 0 0 1 0-1.944.973.973 0 0 1 0 1.944Zm5.791 1.172a2.146 2.146 0 0 0 2.144-2.144 2.146 2.146 0 0 0-2.144-2.144 2.146 2.146 0 0 0-2.143 2.144c0 1.182.961 2.144 2.143 2.144Zm0-3.116a.973.973 0 0 1 0 1.944.973.973 0 0 1 0-1.944ZM5.42 25.666a2.146 2.146 0 0 0-2.145 2.144c0 1.182.962 2.144 2.144 2.144a2.146 2.146 0 0 0 2.144-2.144 2.146 2.146 0 0 0-2.144-2.144Zm0 3.116a.973.973 0 0 1 0-1.944.973.973 0 0 1 0 1.944Zm5.79-3.116a2.146 2.146 0 0 0-2.144 2.144c0 1.182.962 2.144 2.144 2.144a2.146 2.146 0 0 0 2.144-2.144 2.146 2.146 0 0 0-2.144-2.144Zm0 3.116a.973.973 0 0 1 0-1.944.973.973 0 0 1 0 1.944ZM17 25.666a2.146 2.146 0 0 0-2.144 2.144c0 1.182.962 2.144 2.144 2.144a2.146 2.146 0 0 0 2.144-2.144A2.146 2.146 0 0 0 17 25.666Zm0 3.116a.973.973 0 0 1 0-1.944.973.973 0 0 1 0 1.944Zm11.582-3.116a2.146 2.146 0 0 0-2.143 2.144c0 1.182.961 2.144 2.143 2.144a2.146 2.146 0 0 0 2.144-2.144 2.146 2.146 0 0 0-2.143-2.144Zm0 3.116a.973.973 0 0 1 0-1.944.973.973 0 0 1 0 1.944Zm-5.791-14.186a2.146 2.146 0 0 0-2.143 2.144c0 1.182.961 2.144 2.143 2.144a2.146 2.146 0 0 0 2.144-2.144 2.146 2.146 0 0 0-2.144-2.144Zm0 3.116a.973.973 0 0 1 0-1.944.973.973 0 0 1 0 1.944Zm0 2.418a2.146 2.146 0 0 0-2.143 2.145c0 1.182.961 2.144 2.143 2.144a2.146 2.146 0 0 0 2.144-2.144 2.146 2.146 0 0 0-2.144-2.144Zm0 3.117a.973.973 0 0 1 0-1.944.973.973 0 0 1 0 1.944Zm0 2.419a2.146 2.146 0 0 0-2.143 2.144c0 1.182.961 2.144 2.143 2.144a2.146 2.146 0 0 0 2.144-2.144 2.146 2.146 0 0 0-2.144-2.144Zm0 3.116a.973.973 0 0 1 0-1.944.973.973 0 0 1 0 1.944Zm13.726-.972a2.146 2.146 0 0 0-2.144-2.144 2.146 2.146 0 0 0-2.143 2.144c0 1.182.961 2.144 2.143 2.144a2.146 2.146 0 0 0 2.144-2.144Zm-3.116 0a.973.973 0 0 1 1.944 0 .973.973 0 0 1-1.944 0ZM5.42 31.203a2.146 2.146 0 0 0-2.145 2.144c0 1.182.962 2.144 2.144 2.144a2.146 2.146 0 0 0 2.144-2.144 2.146 2.146 0 0 0-2.144-2.144Zm0 3.116a.973.973 0 0 1 0-1.944.973.973 0 0 1 0 1.944Zm5.79-3.116a2.146 2.146 0 0 0-2.144 2.144c0 1.182.962 2.144 2.144 2.144a2.146 2.146 0 0 0 2.144-2.144 2.146 2.146 0 0 0-2.144-2.144Zm0 3.116a.973.973 0 0 1 0-1.944.973.973 0 0 1 0 1.944ZM17 31.203a2.146 2.146 0 0 0-2.144 2.144c0 1.182.962 2.144 2.144 2.144a2.146 2.146 0 0 0 2.144-2.144A2.146 2.146 0 0 0 17 31.203Zm0 3.116a.973.973 0 0 1 0-1.944.973.973 0 0 1 0 1.944Z"/></g><defs><clipPath id="a"><path fill="#fff" d="M0 0h40v40H0z"/></clipPath></defs></svg>