<svg width="56" height="56" fill="none" xmlns="http://www.w3.org/2000/svg"><path d="M49.875 7H45.5V5.25a3.5 3.5 0 0 0-7 0V7h-7V5.25a3.5 3.5 0 1 0-7 0V7h-7V5.25a3.5 3.5 0 1 0-7 0V7H6.125a4.375 4.375 0 0 0-4.375 4.375v35a4.375 4.375 0 0 0 4.375 4.375h24.5a.875.875 0 1 0 0-1.75h-24.5A2.633 2.633 0 0 1 3.5 46.375V19.25h49v14.875a.875.875 0 1 0 1.75 0v-22.75A4.375 4.375 0 0 0 49.875 7ZM40.25 5.25a1.75 1.75 0 0 1 3.5 0v5.25a1.75 1.75 0 0 1-3.5 0V5.25Zm-14 0a1.75 1.75 0 0 1 3.5 0v5.25a1.75 1.75 0 0 1-3.5 0V5.25Zm-14 0a1.75 1.75 0 0 1 3.5 0v5.25a1.75 1.75 0 0 1-3.5 0V5.25ZM52.5 17.5h-49v-6.125A2.633 2.633 0 0 1 6.125 8.75H10.5v1.75a3.5 3.5 0 1 0 7 0V8.75h7v1.75a3.5 3.5 0 1 0 7 0V8.75h7v1.75a3.5 3.5 0 0 0 7 0V8.75h4.375a2.633 2.633 0 0 1 2.625 2.625V17.5Z" fill="#FFD124"/><path d="M26.25 25.375a1.75 1.75 0 0 0-1.75-1.75H21a1.75 1.75 0 0 0-1.75 1.75V28A1.75 1.75 0 0 0 21 29.75h3.5A1.75 1.75 0 0 0 26.25 28v-2.625ZM21 28v-2.625h3.5V28H21Zm-5.25-2.625a1.75 1.75 0 0 0-1.75-1.75h-3.5a1.75 1.75 0 0 0-1.75 1.75V28a1.75 1.75 0 0 0 1.75 1.75H14A1.75 1.75 0 0 0 15.75 28v-2.625ZM10.5 28v-2.625H14V28h-3.5Zm35 1.75A1.75 1.75 0 0 0 47.25 28v-2.625a1.75 1.75 0 0 0-1.75-1.75H42a1.75 1.75 0 0 0-1.75 1.75V28A1.75 1.75 0 0 0 42 29.75h3.5ZM42 25.375h3.5V28H42v-2.625ZM26.25 33.25a1.75 1.75 0 0 0-1.75-1.75H21a1.75 1.75 0 0 0-1.75 1.75v2.625a1.75 1.75 0 0 0 1.75 1.75h3.5a1.75 1.75 0 0 0 1.75-1.75V33.25ZM21 35.875V33.25h3.5v2.625H21Zm-5.25-2.625A1.75 1.75 0 0 0 14 31.5h-3.5a1.75 1.75 0 0 0-1.75 1.75v2.625a1.75 1.75 0 0 0 1.75 1.75H14a1.75 1.75 0 0 0 1.75-1.75V33.25Zm-5.25 2.625V33.25H14v2.625h-3.5Zm14 3.5H21a1.75 1.75 0 0 0-1.75 1.75v2.625A1.75 1.75 0 0 0 21 45.5h3.5a1.75 1.75 0 0 0 1.75-1.75v-2.625a1.75 1.75 0 0 0-1.75-1.75ZM21 43.75v-2.625h3.5v2.625H21Zm10.5-14H35A1.75 1.75 0 0 0 36.75 28v-2.625a1.75 1.75 0 0 0-1.75-1.75h-3.5a1.75 1.75 0 0 0-1.75 1.75V28a1.75 1.75 0 0 0 1.75 1.75Zm0-4.375H35V28h-3.5v-2.625Zm-1.75 10.5a1.75 1.75 0 0 0 1.75 1.75.875.875 0 1 0 0-1.75V33.25H35a.875.875 0 1 0 0-1.75h-3.5a1.75 1.75 0 0 0-1.75 1.75v2.625ZM14 39.375h-3.5a1.75 1.75 0 0 0-1.75 1.75v2.625a1.75 1.75 0 0 0 1.75 1.75H14a1.75 1.75 0 0 0 1.75-1.75v-2.625a1.75 1.75 0 0 0-1.75-1.75Zm-3.5 4.375v-2.625H14v2.625h-3.5Z" fill="#FFD124"/><path d="M42.875 31.5A11.375 11.375 0 1 0 54.25 42.875 11.388 11.388 0 0 0 42.875 31.5Zm0 21a9.625 9.625 0 1 1 9.625-9.625 9.636 9.636 0 0 1-9.625 9.625Z" fill="#FFD124"/><path d="m47.93 39.207-6.805 6.805-3.093-3.094a.875.875 0 0 0-1.237 1.238l3.711 3.712a.875.875 0 0 0 1.237 0l7.425-7.424a.875.875 0 0 0-1.237-1.237Z" fill="#FFD124"/></svg>