<svg width="24" height="24" fill="none" xmlns="http://www.w3.org/2000/svg"><path d="M12 24c6.627 0 12-5.373 12-12S18.627 0 12 0 0 5.373 0 12s5.373 12 12 12Z" fill="#F15249"/><path d="M16.673 14.19a1.16 1.16 0 0 1 0 1.614l-.872.87a1.169 1.169 0 0 1-1.62 0L7.327 9.842a1.16 1.16 0 0 1 0-1.615l.904-.9a1.169 1.169 0 0 1 1.62 0l6.822 6.862Z" fill="#fff"/><path d="M13.33 11 11 13.342l3.367 3.354a1.074 1.074 0 0 0 1.496 0l.835-.838a1.086 1.086 0 0 0 0-1.504L13.33 11Z" fill="#fff"/><path d="M14.158 7.327a1.16 1.16 0 0 1 1.615 0l.9.904a1.169 1.169 0 0 1 0 1.62l-6.862 6.822a1.16 1.16 0 0 1-1.615 0l-.87-.872a1.169 1.169 0 0 1 0-1.62l6.832-6.854Z" fill="#fff"/></svg>