<svg width="36" height="36" fill="none" xmlns="http://www.w3.org/2000/svg"><path d="M7.873 21.912a2.626 2.626 0 0 0-2.623 2.623 2.626 2.626 0 0 0 2.623 2.623 2.626 2.626 0 0 0 2.623-2.623 2.626 2.626 0 0 0-2.623-2.623Zm0 4.19a1.568 1.568 0 0 1-1.566-1.567c0-.863.702-1.566 1.566-1.566.864 0 1.567.703 1.567 1.566 0 .864-.703 1.567-1.567 1.567Zm20.158-4.19a2.626 2.626 0 0 0-2.623 2.623 2.626 2.626 0 0 0 2.623 2.623 2.626 2.626 0 0 0 2.623-2.623 2.626 2.626 0 0 0-2.623-2.623Zm0 4.19a1.568 1.568 0 0 1-1.566-1.567c0-.863.703-1.566 1.566-1.566.864 0 1.567.703 1.567 1.566 0 .864-.703 1.567-1.567 1.567Zm-5.324.562h-9.419a.528.528 0 1 0 0 1.057h9.419a.528.528 0 1 0 0-1.057Zm0-1.969h-9.419a.528.528 0 0 0 0 1.057h9.419a.528.528 0 1 0 0-1.057Z" fill="#fff"/><path d="M36 17.611a2.55 2.55 0 0 0-2.547-2.547c-1.715 0-2.954 1.675-2.427 3.322l-1.139.716a11.553 11.553 0 0 0-.608-3.34c5.057-2.484 6.193-9.202 2.198-13.197a.528.528 0 1 0-.747.747 7.119 7.119 0 0 1 2.101 5.066c0 5.863-6.696 9.236-11.4 5.776a7.165 7.165 0 0 1-2.933-5.776c0-5.592 6.152-9.03 10.904-6.113a.528.528 0 1 0 .553-.9c-5.288-3.247-12.13.36-12.498 6.517-6.169.105-11.182 5.04-11.413 11.177l-1.07-.673c.527-1.646-.711-3.322-2.426-3.322A2.55 2.55 0 0 0 0 17.611c0 2.336 2.897 3.434 4.449 1.693l.95.597a3.913 3.913 0 0 0-2.392 3.265h-.324c-.911 0-1.653.742-1.653 1.654v1.876c0 .912.742 1.654 1.653 1.654h.309v.49a1.613 1.613 0 0 0-1.236 1.565c0 .889.723 1.611 1.611 1.611h1.375V34.2c0 .912.742 1.654 1.654 1.654h3.377c.912 0 1.654-.742 1.654-1.654v-.282l2.598-1.902h7.88l2.597 1.902v.282c0 .912.742 1.654 1.654 1.654h3.377c.912 0 1.654-.742 1.654-1.654v-2.184h1.375a1.612 1.612 0 0 0 .376-3.177v-.488h.323c.911 0 1.653-.742 1.653-1.654V24.82c0-.912-.742-1.654-1.653-1.654h-.34a3.913 3.913 0 0 0-2.348-3.248l.978-.615c1.555 1.744 4.449.64 4.449-1.693Zm-2.547-1.49a1.491 1.491 0 1 1 0 2.982 1.491 1.491 0 0 1-.001-2.982ZM2.547 19.102c-.822 0-1.49-.669-1.49-1.49 0-.822.668-1.491 1.49-1.491s1.491.669 1.491 1.49c0 .822-.669 1.491-1.49 1.491Zm25.754-2.934c.393 1.18.537 2.278.537 3.434h-1.401a9.17 9.17 0 0 0-.544-3.093 8.195 8.195 0 0 0 1.408-.341Zm-2.504.432c.383.954.579 1.962.584 3.002H9.549c.02-4.185 3.261-8.135 8.495-8.135 1.245 3.074 4.298 5.192 7.753 5.133Zm-2.73 4.063-.681 2.066h-8.843l-.681-2.066h10.206ZM17.46 8.938c.034.494.114.996.236 1.473-5.065.014-9.182 4.128-9.204 9.191h-1.4c0-6.042 4.775-10.562 10.369-10.664ZM2.684 27.294a.598.598 0 0 1-.597-.597V24.82c0-.33.268-.598.597-.598h.309v3.07h-.309Zm7.687 6.562v.344c0 .33-.268.597-.597.597H6.396A.598.598 0 0 1 5.8 34.2v-2.184h4.571v1.84Zm1.057-1.247v-.592h.809l-.81.592Zm13.075 0-.809-.593h.81v.593ZM30.13 34.2c0 .33-.268.597-.597.597h-3.377a.598.598 0 0 1-.597-.597v-2.183h4.571V34.2Zm2.808-9.977h.323c.329 0 .597.268.597.598v1.875c0 .33-.268.598-.597.598h-.323v-3.07Zm-1.057-.715v5.287H7.317a.528.528 0 1 0 0 1.056h25.245a.555.555 0 0 1 0 1.11H3.368a.555.555 0 0 1 0-1.11h2.14a.528.528 0 1 0 0-1.056h-1.46c0-.984.015-.973.015-.973 0-4.423-.015-4.314-.015-4.314a2.852 2.852 0 0 1 2.849-2.849l4.852.004.91 2.76a.528.528 0 0 0 .502.363h9.607a.53.53 0 0 0 .502-.363l.91-2.76c3.05 0 2.755.03 2.872-.004 4.161 0 .434-.002 2.309.02a2.852 2.852 0 0 1 2.52 2.829Z" fill="#fff"/><path d="M25.666 1.914a6.47 6.47 0 0 0-6.463 6.462c0 4.575 4.666 7.73 8.918 5.979a.528.528 0 0 0-.403-.977c-3.552 1.463-7.458-1.17-7.458-5.002a5.412 5.412 0 0 1 5.405-5.405 5.412 5.412 0 0 1 5.406 5.405 5.391 5.391 0 0 1-1.982 4.18.528.528 0 0 0 .67.817 6.444 6.444 0 0 0 2.369-4.997 6.47 6.47 0 0 0-6.462-6.462Z" fill="#fff"/><path d="M28.182 5.36c-.383 0-.754.158-1.018.434l-2.32 2.422-1.036-.971a1.409 1.409 0 0 0-1.926 2.057l2.053 1.923a1.41 1.41 0 0 0 1.98-.054L29.2 7.743c.858-.896.216-2.384-1.017-2.384Zm.254 1.652c-3.556 3.712-3.326 3.537-3.538 3.537-.192 0-.08.056-2.294-2.019a.352.352 0 0 1 .482-.514l1.417 1.328a.528.528 0 0 0 .743-.02l2.681-2.8a.352.352 0 1 1 .509.488Z" fill="#fff"/></svg>