<svg width="66" height="66" fill="none" xmlns="http://www.w3.org/2000/svg"><g clip-path="url(#a)" fill="#000"><path d="m58.245 29.803-3.55-.59a3.083 3.083 0 0 1-2.178-1.518l-4.903-8.58a9.301 9.301 0 0 0-8.058-4.677H22.319a9.301 9.301 0 0 0-8.058 4.676L9.26 27.866a3.11 3.11 0 0 1-1.938 1.467l-3.418.854a5.14 5.14 0 0 0-3.651 3.432c-.012.027-.013.059-.022.086A5.12 5.12 0 0 0 0 35.189v7.092a5.163 5.163 0 0 0 5.156 5.157h3.8a7.203 7.203 0 0 0 13.025 0H44.02a7.203 7.203 0 0 0 13.025 0h3.8A5.162 5.162 0 0 0 66 42.28v-3.323a9.253 9.253 0 0 0-7.755-9.155Zm4.552 5.26c.408.635.713 1.331.904 2.062h-.795a3.104 3.104 0 0 1-2.184-.9 3.15 3.15 0 0 1-.732-1.163h2.807Zm-60.724 0h1.762l-.515 2.062H2.063v-1.936c0-.043.009-.084.01-.127ZM15.469 49.5a5.156 5.156 0 1 1 0-10.312 5.156 5.156 0 0 1 0 10.312Zm35.062 0a5.156 5.156 0 1 1 0-10.312 5.156 5.156 0 0 1 0 10.312Zm10.313-4.125h-3.177a7.219 7.219 0 1 0-14.272 0h-20.79a7.219 7.219 0 1 0-14.273 0H5.156a3.094 3.094 0 0 1-3.093-3.094v-3.093h2.062a1.03 1.03 0 0 0 1-.781l1.032-4.125a1.031 1.031 0 0 0-1-1.282H2.978a3.076 3.076 0 0 1 1.426-.812l3.42-.855a5.183 5.183 0 0 0 3.225-2.444l5.001-8.752a7.235 7.235 0 0 1 6.27-3.637h17.237a7.234 7.234 0 0 1 6.268 3.637l4.902 8.58a5.135 5.135 0 0 0 3.63 2.53l3.55.592A7.233 7.233 0 0 1 60.8 33h-2.02a1.031 1.031 0 0 0-1.031 1.031 5.15 5.15 0 0 0 5.156 5.157h1.032v3.093a3.094 3.094 0 0 1-3.094 3.094Z"/><path d="M46.879 24.219a1.032 1.032 0 0 0-1.769 1.062l1.538 2.563H34.03v-8.25h5.915a3.108 3.108 0 0 1 2.653 1.502l.654 1.091a1.032 1.032 0 0 0 1.768-1.062l-.655-1.09a5.18 5.18 0 0 0-4.42-2.504H33a1.031 1.031 0 0 0-1.031 1.032v10.312A1.031 1.031 0 0 0 33 29.906h15.469a1.032 1.032 0 0 0 .883-1.562l-2.473-4.125Zm-18.004-6.688h-6.946a5.18 5.18 0 0 0-4.42 2.503l-4.987 8.31a1.032 1.032 0 0 0 .884 1.562h15.469a1.031 1.031 0 0 0 1.031-1.031V18.562a1.031 1.031 0 0 0-1.031-1.03Zm-1.031 10.313H15.227l4.049-6.748a3.109 3.109 0 0 1 2.653-1.502h5.915v8.25Zm7.219 3.094H33A1.031 1.031 0 1 0 33 33h2.063a1.031 1.031 0 1 0 0-2.063Zm-19.594 0h-2.063a1.031 1.031 0 1 0 0 2.062h2.063a1.031 1.031 0 1 0 0-2.063ZM50.531 41.25a3.093 3.093 0 1 0 0 6.186 3.093 3.093 0 0 0 0-6.186Zm0 4.125a1.032 1.032 0 1 1 0-2.063 1.032 1.032 0 0 1 0 2.063ZM15.469 41.25a3.093 3.093 0 1 0 0 6.186 3.093 3.093 0 0 0 0-6.186Zm0 4.125a1.032 1.032 0 1 1 0-2.063 1.032 1.032 0 0 1 0 2.063Z"/></g><defs><clipPath id="a"><path fill="#fff" d="M0 0h66v66H0z"/></clipPath></defs></svg>