<svg width="44" height="44" fill="none" xmlns="http://www.w3.org/2000/svg"><g clip-path="url(#a)" fill="#fff"><path d="M35.778 24.455a2.025 2.025 0 0 0-2.022 2.022c0 1.115.907 2.023 2.022 2.023a2.025 2.025 0 0 0 2.022-2.023 2.025 2.025 0 0 0-2.022-2.022Zm0 2.756a.734.734 0 1 1 .002-1.469.734.734 0 0 1-.002 1.469ZM9.6 24.455a2.025 2.025 0 0 0-2.022 2.022c0 1.115.907 2.023 2.022 2.023a2.025 2.025 0 0 0 2.023-2.023A2.025 2.025 0 0 0 9.6 24.455Zm0 2.756a.734.734 0 1 1 .002-1.469.734.734 0 0 1-.002 1.469Z"/><path d="M43.12 20.76c-.781-.828-2.33-1.814-5.268-1.816l-5.371-.12-4.278-4.277a6.116 6.116 0 0 0-4.352-1.803h-6.673c-1.914 0-3.78.373-5.547 1.11l-4.51 1.879a9.691 9.691 0 0 1-2.357.648l-2.93.418a1.34 1.34 0 0 0-1.145 1.32v3.09A1.34 1.34 0 0 0 0 22.374v2.375a2.03 2.03 0 0 0 1.467 1.945l3.514 1.004A4.786 4.786 0 0 0 9.6 31.255a4.783 4.783 0 0 0 4.778-4.777 4.77 4.77 0 0 0-1.718-3.666l16.89.718a.645.645 0 0 0 .055-1.288L4.734 21.184v-.218a2.714 2.714 0 0 0-2.712-2.71h-.044v-.137c0-.021.016-.04.038-.043l2.93-.42c.917-.13 1.815-.377 2.67-.733l1.938-.808.848 1.696a3.392 3.392 0 0 0 2.965 1.878l24.463.544h.015c1.314 0 2.281.215 2.992.513a2.009 2.009 0 0 0-1.288 1.884v.23l-.703-.04a4.755 4.755 0 0 0-3.068-1.12 4.783 4.783 0 0 0-4.722 5.51H16.49a.645.645 0 1 0 0 1.29h14.962a4.784 4.784 0 0 0 4.327 2.755 4.783 4.783 0 0 0 4.327-2.755h1.873A2.025 2.025 0 0 0 44 26.478v-3.434c0-.872-.312-1.683-.88-2.284Zm-30.03 5.718a3.493 3.493 0 0 1-3.49 3.488 3.493 3.493 0 0 1-3.489-3.488 3.493 3.493 0 0 1 3.49-3.49 3.493 3.493 0 0 1 3.488 3.49Zm-8.263-.165-3.005-.858a.736.736 0 0 1-.532-.706v-2.375c0-.005 0-.019.014-.032a.04.04 0 0 1 .032-.012l5.528.235a4.775 4.775 0 0 0-2.037 3.748Zm-2.804-6.769c.784 0 1.422.638 1.422 1.422v.163l-1.466-.062v-1.523h.044Zm25.27-4.085 3.324 3.324-9.35-.207v-4.543h2.585c1.3 0 2.521.507 3.44 1.426Zm-7.314-1.426v4.514l-5.6-.125v-4.087c.915-.2 1.851-.302 2.8-.302h2.8Zm-8.423 3.201-.808-1.616 1.38-.574c.317-.133.638-.252.962-.358v3.685a2.106 2.106 0 0 1-1.534-1.137Zm29.283 5.396c0-.326.21-.608.522-.702l.847-.255c.324.358.504.842.504 1.37v.002l-1.873-.11v-.305Zm-5.06 7.336a3.493 3.493 0 0 1-3.489-3.488 3.493 3.493 0 0 1 3.489-3.49 3.493 3.493 0 0 1 3.489 3.49 3.493 3.493 0 0 1-3.49 3.488Zm6.2-2.755H40.5a4.747 4.747 0 0 0-.536-3.035l2.748.16v2.142a.734.734 0 0 1-.733.733Z"/></g><defs><clipPath id="a"><path fill="#fff" d="M0 0h44v44H0z"/></clipPath></defs></svg>