<svg width="60" height="60" fill="none" xmlns="http://www.w3.org/2000/svg"><path d="m58.407 20.59-18.999-19A5.41 5.41 0 0 0 35.557 0a5.41 5.41 0 0 0-3.852 1.59L1.59 31.705A5.409 5.409 0 0 0 0 35.557c0 1.458.565 2.825 1.59 3.85l2.343 2.344h.001L19.68 57.498H17.5a1.25 1.25 0 0 0 0 2.5h24.998a1.25 1.25 0 0 0 0-2.5H29.203l29.205-29.205a5.453 5.453 0 0 0 0-7.703Zm-1.767 5.934L26.524 56.64a2.925 2.925 0 0 1-2.079.858h-.01a2.923 2.923 0 0 1-2.078-.858L6.585 40.867l28.922-28.921a1.25 1.25 0 0 0-1.768-1.768L4.818 39.1l-1.46-1.46a2.925 2.925 0 0 1-.858-2.083c0-.79.305-1.53.858-2.084L33.473 3.358a2.925 2.925 0 0 1 2.084-.858c.79 0 1.53.305 2.084.858l6.762 6.762L15.48 39.042a1.25 1.25 0 0 0 1.768 1.767l28.922-28.92 10.47 10.469a2.95 2.95 0 0 1 0 4.167Z" fill="#000"/><path d="M30.797 36.1a1.25 1.25 0 0 0-1.768 0l-9.836 9.836a1.25 1.25 0 0 0 1.768 1.768l9.836-9.836a1.25 1.25 0 0 0 0-1.768Zm-4.034 9.337-4.035 4.034a1.25 1.25 0 0 0 1.768 1.767l4.034-4.034a1.25 1.25 0 0 0-1.767-1.767Zm3.713-3.712-.53.53a1.25 1.25 0 0 0 1.767 1.768l.53-.53a1.25 1.25 0 1 0-1.768-1.768Zm17.228-22.531a1.25 1.25 0 0 0-1.768 0l-5.303 5.303a1.25 1.25 0 0 0 0 1.768l3.535 3.535a1.246 1.246 0 0 0 1.768 0l5.303-5.303a1.25 1.25 0 0 0 0-1.767l-3.535-3.536Zm-2.652 7.955-1.768-1.768 3.536-3.535 1.767 1.768-3.535 3.535ZM37.54 9.396c.32 0 .64-.122.884-.367l.53-.53a1.25 1.25 0 0 0-1.768-1.768l-.53.531a1.25 1.25 0 0 0 .884 2.134ZM12.564 41.96l-.53.53a1.25 1.25 0 0 0 1.768 1.768l.53-.53a1.25 1.25 0 0 0-1.768-1.768Z" fill="#000"/></svg>