<svg width="54" height="54" fill="none" xmlns="http://www.w3.org/2000/svg"><g clip-path="url(#a)" fill="#FFD124"><path d="M53.097 28.142v-2.16a2.706 2.706 0 0 0-2.52-2.689l-11.537-.772-8.28-6.625a2.7 2.7 0 0 0-1.692-.595h-16.55a2.72 2.72 0 0 0-2.036.918L4.99 22.5H2.7a1.8 1.8 0 0 0-1.8 1.8v3.842A1.8 1.8 0 0 0 0 29.7v1.8a1.8 1.8 0 0 0 1.8 1.8h3.68a5.393 5.393 0 0 0 10.638 0H18v1.8a1.8 1.8 0 0 0 1.8 1.8h2.7v11.699h-9a1.8 1.8 0 0 0-1.8 1.8v1.8a1.8 1.8 0 0 0 1.8 1.8h26.999a1.8 1.8 0 0 0 1.8-1.8v-1.8a1.8 1.8 0 0 0-1.8-1.8h-9v-11.7h2.7a1.8 1.8 0 0 0 1.8-1.8v-1.8h1.88a5.393 5.393 0 0 0 10.638 0h3.681a1.8 1.8 0 0 0 1.8-1.799v-1.8c0-.643-.343-1.237-.9-1.558ZM29.63 17.301l6.5 5.2H19.8v-5.4h9.27a.88.88 0 0 1 .562.2Zm-17.798.107a.917.917 0 0 1 .685-.307H18v5.4H7.38l4.454-5.093ZM10.8 36a3.6 3.6 0 1 1 0-7.199 3.6 3.6 0 0 1 0 7.2Zm29.699 16.2h-27v-1.8h26.999v1.8Zm-10.8-3.6h-5.4V36.9h1.8v9a.9.9 0 0 0 1.8 0v-9h1.8v11.7Zm4.5-13.5h-14.4v-1.8h14.399v1.8Zm9 .9a3.6 3.6 0 1 1 0-7.2 3.6 3.6 0 0 1 0 7.2Zm9-4.499h-3.682a5.393 5.393 0 0 0-10.637 0H16.12a5.394 5.394 0 0 0-10.638 0H1.8v-1.8h1.8a.9.9 0 1 0 0-1.8h-.9v-3.6h35.965l11.789.79a.9.9 0 0 1 .843.893V27.9h-.9a.9.9 0 1 0 0 1.8h1.8v1.8Z"/><path d="M52.647 6.302a1.34 1.34 0 0 0 1.158-.656c.248-.41.26-.92.033-1.342a8.098 8.098 0 0 0-14.412.198h-27.52a.892.892 0 0 1-.694-.338A6.3 6.3 0 0 0 .045 8.858a6.364 6.364 0 0 0 5.243 5.464 6.255 6.255 0 0 0 5.906-2.26.927.927 0 0 1 .713-.36l27.527.03a8.322 8.322 0 0 0 7.364 4.469 7.902 7.902 0 0 0 7.039-4.3 1.357 1.357 0 0 0-1.19-2h-5.85v-3.6h5.85Zm-19.349 0v3.6H17.1v-3.6h16.2Zm-23.505 4.63a4.469 4.469 0 0 1-4.225 1.612 4.536 4.536 0 0 1-3.735-3.896 4.5 4.5 0 0 1 7.976-3.36 2.68 2.68 0 0 0 2.096 1.014H15.3v3.6h-3.391a2.713 2.713 0 0 0-2.115 1.03Zm37.005.77h5.057a6.072 6.072 0 0 1-5.057 2.699 6.502 6.502 0 0 1-5.76-3.482 1.812 1.812 0 0 0-1.612-1.017h-4.328v-3.6h4.328a1.8 1.8 0 0 0 1.612-1.026 6.307 6.307 0 0 1 10.812-.774h-5.053a1.8 1.8 0 0 0-1.8 1.8v3.6a1.8 1.8 0 0 0 1.8 1.8Z"/><path d="M6.3 5.398a2.7 2.7 0 1 0 0 5.4 2.7 2.7 0 0 0 0-5.4Zm0 3.6a.9.9 0 1 1 0-1.8.9.9 0 0 1 0 1.8Zm18 17.104h-1.8a.9.9 0 0 0 0 1.8h1.8a.9.9 0 1 0 0-1.8Z"/></g><defs><clipPath id="a"><path fill="#fff" d="M0 0h54v54H0z"/></clipPath></defs></svg>