<svg width="40" height="40" fill="none" xmlns="http://www.w3.org/2000/svg"><g clip-path="url(#a)" fill="#000"><path d="M39.331 20.848v-1.6a2.004 2.004 0 0 0-1.866-1.992l-8.547-.572-6.133-4.907a2 2 0 0 0-1.253-.441H9.272c-.576 0-1.125.248-1.508.68L3.697 16.67H2c-.736 0-1.333.597-1.333 1.333v2.846A1.333 1.333 0 0 0 0 22.002v1.333c0 .737.597 1.334 1.333 1.334H4.06a3.995 3.995 0 0 0 7.88 0h1.393v1.333c0 .736.597 1.333 1.333 1.333h2v8.666H9.999c-.736 0-1.333.597-1.333 1.334v1.333C8.666 39.404 9.263 40 10 40h20c.736 0 1.332-.597 1.332-1.333v-1.334c0-.736-.596-1.333-1.333-1.333h-6.666v-8.666h2c.736 0 1.333-.597 1.333-1.333v-1.333h1.393a3.995 3.995 0 0 0 7.88 0h2.726c.737 0 1.334-.597 1.334-1.334v-1.333c0-.476-.255-.916-.667-1.154Zm-17.382-8.03 4.815 3.85H14.666V12.67h6.866c.152 0 .3.052.417.148Zm-13.184.08a.68.68 0 0 1 .508-.229h4.06v4H5.466l3.3-3.772ZM8 26.667a2.666 2.666 0 1 1 0-5.333 2.666 2.666 0 0 1 0 5.333Zm22 12H10v-1.334h20v1.334ZM22 36h-4v-8.666h1.333V34a.667.667 0 0 0 1.334 0v-6.666H22V36Zm3.333-10H14.666v-1.33h10.666v1.333Zm6.666.667a2.667 2.667 0 1 1 0-5.333 2.667 2.667 0 0 1 0 5.333Zm6.666-3.333h-2.726a3.995 3.995 0 0 0-7.88 0H11.94a3.995 3.995 0 0 0-7.88 0H1.334v-1.333h1.333a.667.667 0 1 0 0-1.333H2v-2.667h26.64l8.733.585c.35.023.623.311.625.662v1.42h-.667a.667.667 0 1 0 0 1.333h1.333v1.333Z"/><path d="M38.998 4.67a.99.99 0 0 0 .857-.486 1 1 0 0 0 .025-.994 5.999 5.999 0 0 0-10.676.147H8.82a.66.66 0 0 1-.514-.25A4.667 4.667 0 0 0 .033 6.563a4.714 4.714 0 0 0 3.884 4.047 4.633 4.633 0 0 0 4.375-1.675.687.687 0 0 1 .528-.266l20.39.023a6.164 6.164 0 0 0 5.455 3.31 5.854 5.854 0 0 0 5.214-3.186 1.005 1.005 0 0 0-.881-1.48h-4.333V4.67h4.333Zm-14.333 0v2.666H12.666V4.67h12ZM7.255 8.1a3.31 3.31 0 0 1-3.13 1.194 3.36 3.36 0 0 1-2.768-2.886 3.333 3.333 0 0 1 5.91-2.489c.375.474.947.75 1.552.75h2.514v2.667H8.82a2.01 2.01 0 0 0-1.566.764Zm27.41.57h3.746a4.498 4.498 0 0 1-3.746 2 4.816 4.816 0 0 1-4.267-2.58 1.342 1.342 0 0 0-1.194-.754H26V4.67h3.205c.51-.004.975-.299 1.194-.76a4.672 4.672 0 0 1 8.01-.573h-3.743c-.736 0-1.333.597-1.333 1.333v2.666c0 .737.596 1.334 1.333 1.334Z"/><path d="M4.667 4.004a2 2 0 1 0 0 4 2 2 0 0 0 0-4Zm0 2.666a.667.667 0 1 1 0-1.333.667.667 0 0 1 0 1.333Zm13.332 12.666h-1.333a.667.667 0 0 0 0 1.333h1.333a.667.667 0 1 0 0-1.333Z"/></g><defs><clipPath id="a"><path fill="#fff" d="M0 0h40v40H0z"/></clipPath></defs></svg>