<svg width="56" height="56" fill="none" xmlns="http://www.w3.org/2000/svg"><g clip-path="url(#a)" fill="#000"><path d="M38.126 35.467H17.872a2.005 2.005 0 0 0-1.283 3.547l3.025 2.52c.36.3.815.466 1.285.466h14.2c.47 0 .924-.165 1.284-.467l3.026-2.52a2.004 2.004 0 0 0-1.283-3.546Zm.093 2.113-3.026 2.52a.141.141 0 0 1-.093.032H20.9a.138.138 0 0 1-.093-.033l-3.025-2.52a.124.124 0 0 1-.042-.155.123.123 0 0 1 .13-.093h20.253a.123.123 0 0 1 .131.093c.027.055.01.12-.04.156h.005Zm6.608-1.646-3.036 2.52A2.003 2.003 0 0 0 43.075 42H50.4c1.03 0 1.866-.836 1.866-1.867v-2.8a1.867 1.867 0 0 0-1.866-1.866h-4.29a2.009 2.009 0 0 0-1.283.467Zm5.573 1.4v2.8h-7.325a.123.123 0 0 1-.132-.094.118.118 0 0 1 .042-.15l3.036-2.526a.136.136 0 0 1 .094-.032l4.285.002Zm-39.227-1.401a2.01 2.01 0 0 0-1.28-.466H5.6c-1.03 0-1.867.836-1.867 1.867v2.8C3.733 41.163 4.57 42 5.6 42h7.323a2.004 2.004 0 0 0 1.284-3.547l-3.034-2.52Zm1.883 4.107a.12.12 0 0 1-.131.093H5.6v-2.8h4.293a.136.136 0 0 1 .094.033l3.037 2.526a.12.12 0 0 1 .033.148Z"/><path fill-rule="evenodd" clip-rule="evenodd" d="M12.134 44.8H5.6a.933.933 0 0 0 0 1.867h6.534a.933.933 0 0 0 0-1.866Zm38.266 0h-6.533a.933.933 0 0 0 0 1.867H50.4a.933.933 0 0 0 0-1.866Zm-14 0H19.6a.933.933 0 0 0 0 1.867h16.8a.933.933 0 0 0 0-1.866Z"/><path d="M56 27.067a2.8 2.8 0 0 0-2.8-2.8h-1.867a2.785 2.785 0 0 0-2.112.982l-1.752-5.25a4.656 4.656 0 0 0-2.687-2.854c0-.116.018-.228.018-.345C44.8 7.522 37.278 0 28 0c-9.279 0-16.8 7.522-16.8 16.8 0 .117.015.229.018.345a4.654 4.654 0 0 0-2.686 2.85L6.779 25.25a2.785 2.785 0 0 0-2.112-.982H2.8a2.8 2.8 0 0 0 0 5.6h1.48L.827 33.32A2.788 2.788 0 0 0 0 35.308V47.6a2.8 2.8 0 0 0 1.867 2.628V53.2a2.8 2.8 0 0 0 2.8 2.8H11.2a2.8 2.8 0 0 0 2.8-2.8v-2.8h28v2.8a2.8 2.8 0 0 0 2.8 2.8h6.533a2.8 2.8 0 0 0 2.8-2.8v-2.972A2.8 2.8 0 0 0 56 47.6V35.308a2.788 2.788 0 0 0-.824-1.985l-3.454-3.454H53.2a2.8 2.8 0 0 0 2.8-2.802Zm-10.303-6.48L48.17 28h-7.685a16.716 16.716 0 0 0 4.127-8.825 2.77 2.77 0 0 1 1.084 1.412ZM28 1.867c8.247 0 14.933 6.686 14.933 14.933S36.247 31.733 28 31.733 13.067 25.047 13.067 16.8C13.077 8.557 19.757 1.876 28 1.867ZM10.304 20.582a2.769 2.769 0 0 1 1.083-1.407A16.717 16.717 0 0 0 15.514 28H7.829l2.475-7.418ZM2.8 28a.933.933 0 0 1 0-1.867h1.867c.515 0 .933.418.933.934V28H2.8Zm9.333 25.2a.933.933 0 0 1-.933.933H4.667a.933.933 0 0 1-.934-.933v-2.8h8.4v2.8Zm40.134 0a.933.933 0 0 1-.934.933H44.8a.933.933 0 0 1-.933-.933v-2.8h8.4v2.8Zm1.586-18.558a.93.93 0 0 1 .28.666V47.6a.933.933 0 0 1-.933.933H2.8a.933.933 0 0 1-.933-.933V35.308c0-.25.1-.49.28-.666l4.773-4.775h10.546a16.735 16.735 0 0 0 21.073 0h10.547l4.767 4.775ZM50.4 28v-.933c0-.516.418-.934.933-.934H53.2a.933.933 0 1 1 0 1.867h-2.8Z"/><path d="M19.693 16.32c.495 0 .97-.197 1.32-.547l.49-.49 2.03 2.031-.466.467a4.841 4.841 0 0 0-5.334 4.274 1.657 1.657 0 0 0 2.427 1.543c.61-.325.84-.093.987.065.148.157.38.373.062.967a1.65 1.65 0 0 0 1.443 2.437h.056a4.174 4.174 0 0 0 2.193-.78 4.912 4.912 0 0 0 2.102-4.54l.483-.484 5.258 5.257c.73.731 1.916.731 2.647 0l1.315-1.32a1.867 1.867 0 0 0 0-2.635l-5.258-5.257 1.476-1.476a4.607 4.607 0 0 0 3.843-1.322 4.581 4.581 0 0 0 1.462-2.954v-.006a1.656 1.656 0 0 0-2.427-1.544c-.61.326-.846.087-.992-.06-.145-.146-.383-.384-.05-.984a1.663 1.663 0 0 0-.064-1.655 1.581 1.581 0 0 0-1.44-.773 4.176 4.176 0 0 0-2.194.782 4.906 4.906 0 0 0-2.095 4.565l-1.471 1.472-2.031-2.031.829-.829a1.867 1.867 0 0 0-.867-3.13l-3.17-.792a1.876 1.876 0 0 0-1.773.49l-4.09 4.092a1.866 1.866 0 0 0 0 2.64l1.98 1.981c.35.35.824.546 1.319.545Zm15.69 7.56-1.317 1.32-5.259-5.254 1.32-1.32 5.255 5.253ZM30.63 12.86a.933.933 0 0 0 .247-.88 3.037 3.037 0 0 1 1.248-3.128 2.65 2.65 0 0 1 .808-.39 2.577 2.577 0 0 0 3.368 3.36 3.228 3.228 0 0 1-.862 1.369 2.69 2.69 0 0 1-2.598.723.933.933 0 0 0-.89.245l-6.608 6.608a.934.934 0 0 0-.249.871 3.046 3.046 0 0 1-1.255 3.11 2.64 2.64 0 0 1-.811.389c.424-.956.2-2.076-.56-2.794a2.431 2.431 0 0 0-1.773-.778 2.823 2.823 0 0 0-1.038.207 3.23 3.23 0 0 1 .862-1.368 2.695 2.695 0 0 1 2.627-.71c.32.083.66-.01.895-.243l6.589-6.592Zm-4.454 1.813-1.322 1.321-2.03-2.03 1.321-1.322 2.031 2.03Zm-4.37-6.292 3.172.789-5.285 5.284-1.98-1.98 4.092-4.093Z"/></g><defs><clipPath id="a"><path fill="#fff" d="M0 0h56v56H0z"/></clipPath></defs></svg>