<svg width="20" height="18" fill="none" xmlns="http://www.w3.org/2000/svg"><g clip-path="url(#a)"><path d="M16.188 12.873h1.688v-1.687c0-.754 1.125-.74 1.125 0v2.25a.584.584 0 0 1-.563.563h-2.25c-.76 0-.74-1.126 0-1.126Zm-7.132-1.287c-.18-.18-3.735-3.78-5.592-5.619-.596-.59.18-1.339.765-.757a808.193 808.193 0 0 1 5.21 5.238l2.992-3.054a.582.582 0 0 1 .765 0l3.394 3.45c.525.534-.352 1.181-.765.76l-3.012-3.072-2.99 3.053a.546.546 0 0 1-.765 0l-.002.001Z" fill="#000"/></g><rect width="1" height="18" rx=".5" fill="#000"/><rect x="20" y="17" width="1" height="20" rx=".5" transform="rotate(90 20 17)" fill="#000"/><defs><clipPath id="a"><path fill="#fff" transform="translate(1)" d="M0 0h18v18H0z"/></clipPath></defs></svg>