<svg width="56" height="56" fill="none" xmlns="http://www.w3.org/2000/svg"><path d="M55.345 12.075a.895.895 0 0 0-.048-.24c-.01-.03-.017-.059-.03-.088a.936.936 0 0 0-.187-.274L43.88.273a.918.918 0 0 0-.275-.186c-.027-.013-.055-.02-.084-.03a.92.92 0 0 0-.245-.05C43.26.01 43.243 0 43.224 0h-28a4.672 4.672 0 0 0-4.667 4.667v6.869a17.698 17.698 0 0 0 0 32.387v7.41A4.672 4.672 0 0 0 15.224 56H50.69a4.672 4.672 0 0 0 4.667-4.667v-39.2c0-.02-.01-.038-.012-.058ZM52.17 11.2h-7.08a.933.933 0 0 1-.933-.933v-7.08l8.014 8.013ZM1.886 27.73a15.846 15.846 0 0 1 15.867-15.867 15.823 15.823 0 0 1 15.67 13.49c.125.786.19 1.58.196 2.376a15.74 15.74 0 0 1-2.435 8.445 15.865 15.865 0 0 1-29.297-8.445Zm26.707 14.02c.128-.1.254-.197.379-.299.46-.37.901-.765 1.322-1.18.416-.421.81-.862 1.18-1.322.103-.125.2-.252.3-.38.113-.147.235-.287.343-.438l7.957 7.966a2.779 2.779 0 0 1 0 3.95 2.843 2.843 0 0 1-3.952 0l-7.967-7.954c.15-.109.291-.23.438-.343ZM50.69 54.133H15.224a2.8 2.8 0 0 1-2.8-2.8v-6.682c.058.02.118.031.177.05.15.045.3.081.452.123a16.056 16.056 0 0 0 1.582.358c.355.062.714.112 1.074.153.16.018.32.041.48.055.518.044 1.038.073 1.564.073a17.616 17.616 0 0 0 8.791-2.343l8.253 8.244a4.666 4.666 0 1 0 6.596-6.59l-8.25-8.254a17.612 17.612 0 0 0 2.343-8.79 17.64 17.64 0 0 0-5.191-12.54 17.617 17.617 0 0 0-14.105-5.121c-.162.014-.322.036-.482.055a17.668 17.668 0 0 0-1.601.255c-.351.073-.7.158-1.045.254-.155.042-.31.079-.467.125-.057.018-.116.03-.174.05V4.666a2.8 2.8 0 0 1 2.8-2.8h27.07v8.4a2.8 2.8 0 0 0 2.8 2.8h8.4v38.266a2.8 2.8 0 0 1-2.8 2.8Z" fill="#000"/><path d="M38.557 6.533a.933.933 0 0 0-.933-.933H17.09a.933.933 0 1 0 0 1.866h20.533a.933.933 0 0 0 .933-.933ZM48.824 22.4h-11.2a.933.933 0 1 0 0 1.867h11.2a.933.933 0 0 0 0-1.867Zm0 5.6h-11.2a.933.933 0 1 0 0 1.867h11.2a.933.933 0 0 0 0-1.867Zm.933 6.533a.933.933 0 0 0-.933-.933H36.69a.933.933 0 1 0 0 1.866h12.134a.933.933 0 0 0 .933-.933Zm0 5.6a.933.933 0 0 0-.933-.934h-8.4a.933.933 0 1 0 0 1.867h8.4a.933.933 0 0 0 .933-.934Zm-11.2-28a.933.933 0 0 0-.933-.934h-7.467a.933.933 0 0 0 0 1.867h7.467a.933.933 0 0 0 .933-.933Zm11.2 5.601a.933.933 0 0 0-.933-.933h-14a.933.933 0 1 0 0 1.866h14a.933.933 0 0 0 .933-.933Zm-35.467 5.6h6.534a.933.933 0 0 0 0-1.867h-6.533a.933.933 0 1 0 0 1.867ZM25.49 28a.933.933 0 0 0-.933-.934h-14a.933.933 0 1 0 0 1.867h14a.933.933 0 0 0 .934-.933Zm-4.666 4.668h-6.533a.933.933 0 1 0 0 1.867h6.533a.933.933 0 0 0 0-1.867Z" fill="#000"/><path d="M24.396 40.04a13.687 13.687 0 0 0 5.445-5.28c.074-.13.155-.255.224-.385.036-.068.064-.138.099-.205.141-.273.28-.545.402-.824.122-.279.218-.544.318-.818.029-.08.065-.157.094-.237 2.373-6.902-.954-14.47-7.644-17.387-6.69-2.918-14.5-.205-17.941 6.231a13.917 13.917 0 0 0-1.642 6.591 13.983 13.983 0 0 0 20.645 12.32v-.005Zm-12.46-1.662a12.04 12.04 0 0 1-2.763-2.07 12.292 12.292 0 0 1-2.133-2.87A12.14 12.14 0 0 1 26.33 19.15a12.201 12.201 0 0 1 2.091 14.342v.008a11.928 11.928 0 0 1-4.902 4.9 12.098 12.098 0 0 1-11.583-.019v-.003ZM50.69 44.8a.933.933 0 0 0-.933.934v3.733a.933.933 0 0 1-.933.934H45.09a.933.933 0 1 0 0 1.866h3.733a2.8 2.8 0 0 0 2.8-2.8v-3.733a.933.933 0 0 0-.933-.933Z" fill="#000"/></svg>