<svg width="60" height="60" fill="none" xmlns="http://www.w3.org/2000/svg"><g clip-path="url(#a)" fill="#000"><path d="M20 43h-2a1 1 0 0 0 0 2h2a1 1 0 1 0 0-2Zm28 0H24a1 1 0 0 0 0 2h24a1 1 0 0 0 0-2Zm-28-6h-2a1 1 0 0 0 0 2h2a1 1 0 1 0 0-2Zm28 0H24a1 1 0 0 0 0 2h24a1 1 0 0 0 0-2Zm-28-6h-2a1 1 0 0 0 0 2h2a1 1 0 1 0 0-2Zm28 0H24a1 1 0 0 0 0 2h24a1 1 0 0 0 0-2Zm-28-6h-2a1 1 0 0 0 0 2h2a1 1 0 1 0 0-2Zm28 0H24a1 1 0 0 0 0 2h24a1 1 0 0 0 0-2Zm-28-6h-2a1 1 0 0 0 0 2h2a1 1 0 1 0 0-2Zm28 0H24a1 1 0 0 0 0 2h24a1 1 0 0 0 0-2Z"/><path d="M54.987 14.937a.944.944 0 0 0-.051-.257c-.011-.032-.019-.063-.033-.094a1 1 0 0 0-.2-.293l-14-14a1 1 0 0 0-.293-.2c-.031-.014-.062-.022-.093-.033a.995.995 0 0 0-.259-.052C40.041.011 40.022 0 40 0H12a1 1 0 0 0-1 1v3H6a1 1 0 0 0-1 1v54a1 1 0 0 0 1 1h42a1 1 0 0 0 1-1v-5h5a1 1 0 0 0 1-1V15c0-.022-.011-.041-.013-.063ZM41 3.414 51.586 14H41V3.414ZM47 58H7V6h4v47a1 1 0 0 0 1 1h35v4Zm6-6H13V2h26v13a1 1 0 0 0 1 1h13v36Z"/><path d="M24 9h-6a1 1 0 0 0-1 1v6a1 1 0 0 0 1 1h6a1 1 0 0 0 1-1v-6a1 1 0 0 0-1-1Zm-1 6h-4v-4h4v4Z"/></g><defs><clipPath id="a"><path fill="#fff" d="M0 0h60v60H0z"/></clipPath></defs></svg>