<svg width="36" height="36" fill="none" xmlns="http://www.w3.org/2000/svg"><g clip-path="url(#a)" fill="#fff"><path d="M35.965 10.118a1.712 1.712 0 0 0-.65-1.15L24.294.365A1.731 1.731 0 0 0 21.87.66L11.195 14.272 4.11 19.015l-1.955 1.31-1.366.913a1.715 1.715 0 0 0-.734 1.101c-.09.453.003.912.26 1.294v.002l1.654 2.464.573.854 3.337 4.973.554.825L8.1 35.237a1.726 1.726 0 0 0 2.395.472l.001-.001 3.243-2.171 1.432 1.118a1.728 1.728 0 0 0 2.423-.296l5.622-7.167 8.196-5.487c.01-.006.022-.011.032-.018l3.321-2.224a1.72 1.72 0 0 0 .735-1.101 1.712 1.712 0 0 0-.26-1.294l-.002-.003-1.88-2.802 2.25-2.87c.286-.364.412-.817.356-1.275ZM4.67 23.248a4.629 4.629 0 0 1-1.561 2.656l-1.675-2.497-.242-.36a.667.667 0 0 1 .185-.932l.946-.634 1.913-1.28c.486.935.64 1.998.434 3.047Zm5.24 11.584a.674.674 0 0 1-.932-.183l-.023-.035-1.888-2.813c1.93-1 4.311-.537 5.712 1.11l-2.868 1.92Zm6.857-1.125a.675.675 0 0 1-.945.116l-1.158-.904 5.731-3.837-3.628 4.625Zm14.12-16.254a4.63 4.63 0 0 1 1.56-2.655l1.917 2.855a.668.668 0 0 1-.186.931l-2.858 1.914a4.628 4.628 0 0 1-.433-3.045Zm3.894-6.711-2.04 2.6-5.288-7.88a1.73 1.73 0 0 0-2.395-.471l-4.672 3.128c-.567.38.02 1.255.587.876l.923-.618a5.72 5.72 0 0 0 4.443 2.102c.934 0 1.877-.228 2.742-.699l2.777 4.138a5.676 5.676 0 0 0-2.005 3.33 5.672 5.672 0 0 0 .586 3.84l-7.882 5.277-.003.001-8.896 5.956c-1.73-2.127-4.764-2.719-7.182-1.4l-2.777-4.139a5.676 5.676 0 0 0 2.005-3.33 5.673 5.673 0 0 0-.588-3.842l13.407-8.976c.566-.379-.02-1.255-.587-.876l-3.918 2.623 8.684-11.07a.675.675 0 0 1 .944-.116L34.665 9.8a.667.667 0 0 1 .114.942ZM25.644 5.87a.674.674 0 0 1 .934.183l.966 1.44.945 1.408c-1.93 1-4.311.537-5.711-1.111l2.866-1.92Z"/><path d="M13.92 14.6a6.875 6.875 0 0 0-2.94 4.41 6.87 6.87 0 0 0 1.043 5.192 6.883 6.883 0 0 0 4.43 2.94c.648.126.859-.907.2-1.035a5.836 5.836 0 0 1-3.755-2.493 5.822 5.822 0 0 1-.884-4.4 5.827 5.827 0 0 1 2.492-3.738 5.885 5.885 0 0 1 8.15 1.607 5.822 5.822 0 0 1 .884 4.401 5.826 5.826 0 0 1-2.492 3.738 5.869 5.869 0 0 1-1.659.77c-.655.187-.366 1.2.29 1.014a6.926 6.926 0 0 0 1.956-.908 6.874 6.874 0 0 0 2.94-4.41 6.87 6.87 0 0 0-1.043-5.193c-2.127-3.17-6.44-4.02-9.613-1.896Zm11.888.9a.527.527 0 0 0 .293-.089l2.483-1.662a.528.528 0 0 0-.587-.877l-2.483 1.662a.528.528 0 0 0 .294.966ZM9.452 25.288l-2.483 1.663a.527.527 0 0 0 .587.876l2.483-1.662a.527.527 0 1 0-.587-.877Z"/><path d="M19.65 24.163c.398.593 1.244-.039.876-.587l-.285-.424c.76-.783.786-1.868.44-2.634-.571-1.266-1.746-1.37-2.939-1.09l-1.196-1.783c.3-.097.535-.072.558-.069.671.097.826-.94.156-1.043a2.522 2.522 0 0 0-1.315.217l-.232-.346c-.38-.566-1.256.021-.876.588l.253.377a2.047 2.047 0 0 0-.388 2.194c.465 1.09 1.51 1.219 2.559 1.04l1.54 2.295c-.306.165-.551.217-1.012.223-.666.008-.638 1.065.013 1.054.719-.009 1.134-.137 1.588-.399l.26.387Zm-3.425-4.535c-.219-.017-.436-.205-.554-.48-.1-.235-.136-.572.035-.861l.898 1.337c-.136.01-.263.012-.38.004Zm2.18.723c.868-.223 1.225.403 1.314.6.167.37.18.872-.092 1.285l-1.259-1.876.037-.009Z"/></g><defs><clipPath id="a"><path fill="#fff" d="M0 0h36v36H0z"/></clipPath></defs></svg>