<svg width="24" height="24" fill="none" xmlns="http://www.w3.org/2000/svg"><path d="M12 24c6.627 0 12-5.373 12-12S18.627 0 12 0 0 5.373 0 12s5.373 12 12 12Z" fill="#25BB3D"/><path d="M12.725 13.613a.974.974 0 0 1 0 1.357l-.76.756a.984.984 0 0 1-1.362 0l-3.328-3.339a.974.974 0 0 1 0-1.357l.76-.756a.984.984 0 0 1 1.362 0l3.328 3.339Z" fill="#fff"/><path d="M15.01 8.262a.741.741 0 0 1 1.131 0l.63.722c.305.35.305.947 0 1.296l-4.782 5.458a.741.741 0 0 1-1.13 0l-.63-.722c-.305-.35-.305-.947 0-1.296l4.782-5.458Z" fill="#fff"/></svg>