<svg width="20" height="20" fill="none" xmlns="http://www.w3.org/2000/svg"><g clip-path="url(#a)"><path d="M17.457 11.71c-.229-2.983-1.618-4.852-2.843-6.502C13.48 3.681 12.5 2.363 12.5.418a.417.417 0 0 0-.66-.34C10 1.395 8.467 3.614 7.93 5.732c-.373 1.474-.422 3.13-.43 4.225-1.698-.363-2.083-2.904-2.087-2.932a.419.419 0 0 0-.595-.316c-.089.043-2.187 1.109-2.309 5.365a7.053 7.053 0 0 0-.009.426c0 4.135 3.365 7.5 7.5 7.5h.022c4.125-.012 7.478-3.372 7.478-7.5 0-.208-.043-.79-.043-.79ZM10 19.166c-1.379 0-2.5-1.195-2.5-2.663 0-.05 0-.1.003-.162.017-.62.135-1.042.264-1.323.241.519.673.996 1.375.996.23 0 .417-.186.417-.417 0-.593.012-1.277.16-1.895.131-.547.445-1.13.843-1.597.177.606.523 1.097.86 1.576.482.685.98 1.393 1.067 2.601.006.072.011.144.011.221 0 1.468-1.121 2.663-2.5 2.663Z" fill="#000000"/></g><defs><clipPath id="a"><path fill="#fff" d="M0 0h20v20H0z"/></clipPath></defs></svg>