<svg width="16" height="16" fill="none" xmlns="http://www.w3.org/2000/svg"><path d="M2 0C1.273 0 .667.606.667 1.333v14c0 .368.298.667.667.667h8a.667.667 0 0 0 .666-.667v-3c0-.184.15-.333.334-.333h.333c.376 0 .667.29.667.667v.666c0 1.097.903 2 2 2 1.096 0 2-.903 2-2V4.667a2 2 0 0 0-.8-1.6l-2.134-1.6a.668.668 0 0 0-.934.133.669.669 0 0 0 .135.934l.8.599a.667.667 0 0 1 .266.534v1.666c0 .615.431 1.143 1.004 1.292.178.046.33.19.33.375v6.333a.657.657 0 0 1-.667.667.657.657 0 0 1-.667-.667v-.666c0-1.097-.903-2-2-2h-.333a.333.333 0 0 1-.334-.334v-9C10 .606 9.394 0 8.667 0H2Zm.334 1.333h6c.184 0 .333.149.333.334v4.666a.333.333 0 0 1-.333.334h-6A.333.333 0 0 1 2 6.333V1.667c0-.185.149-.334.334-.334Z" fill="#000"/></svg>