<svg width="36" height="36" fill="none" xmlns="http://www.w3.org/2000/svg"><g clip-path="url(#a)" fill="#fff"><path d="m35.532 25.915-3.351-1.22a.594.594 0 0 0-.761.357l-.204.558-3.882-1.415a.573.573 0 0 0-.306-.027l-8.077 1.426a2.383 2.383 0 0 0-1.701 1.257l-3.705-1.352a2.382 2.382 0 0 0-3.166 1.888A2.43 2.43 0 0 0 12 29.997l12.205 4.442a.58.58 0 0 0 .393.005l3.409-1.15.363.13-.204.56a.595.595 0 0 0 .357.761l3.351 1.22a.594.594 0 0 0 .761-.355l3.253-8.937a.594.594 0 0 0-.357-.758Zm-7.707 6.187-3.409 1.15-12.01-4.371a1.256 1.256 0 0 1-.853-1.312 1.19 1.19 0 0 1 1.585-.951l3.856 1.403c.002.11.011.22.027.327a2.387 2.387 0 0 0 2.752 1.93l6.692-1.18-.207-1.172-6.688 1.18a1.197 1.197 0 0 1-1.377-.96 1.1 1.1 0 0 1 .003-.41.6.6 0 0 0 .01-.06.68.68 0 0 1 .04-.147c.147-.4.494-.69.912-.765l7.92-1.397 3.732 1.358-2.033 5.587-.559-.202a.597.597 0 0 0-.393-.008Zm3.895 2.544-2.234-.813 2.846-7.82 2.234.814-2.846 7.82ZM13.886 9.588c.191.702.545 1.35 1.032 1.89a1.139 1.139 0 0 0-.018.144v3.237c0 .985.798 1.783 1.783 1.783v5.944a.594.594 0 0 0 .329.535l1.188.594a.594.594 0 0 0 .532 0l1.189-.594a.594.594 0 0 0 .328-.535v-5.944c.985 0 1.784-.798 1.784-1.783v-3.237a1.203 1.203 0 0 0-.02-.154c.397-.437.706-.946.911-1.5a2.171 2.171 0 0 0 2.217-1.017 2.346 2.346 0 0 0-.373-2.897L19.93 1.218A4.134 4.134 0 0 0 16.989 0h-6.25a.59.59 0 0 0-.234.048L6.46 1.783h-.475V.594A.594.594 0 0 0 5.39 0H.635a.594.594 0 0 0-.594.594v9.51c0 .328.266.595.594.595H5.39a.594.594 0 0 0 .595-.595V8.915h.086c.426 1.427 2.337 2.378 4.074 2.378a4.742 4.742 0 0 0 3.74-1.705Zm-9.09-.078H1.23V1.189h3.566v8.32ZM19.06 22.218l-.595.298-.594-.298v-5.576h1.189v5.576Zm1.783-7.359a.594.594 0 0 1-.595.595h-3.566a.594.594 0 0 1-.594-.595v-2.426c.4.233.832.405 1.282.511a1.196 1.196 0 1 0 .166-1.195 3.522 3.522 0 0 1-.95-.406 4.664 4.664 0 0 1 1.88-.644 5.57 5.57 0 0 1 2.377.923v3.237Zm.442-4.355a6.488 6.488 0 0 0-2.82-.994 6.477 6.477 0 0 0-2.815.992 3.482 3.482 0 0 1-.698-1.587h2.919a2.317 2.317 0 0 0 2.076-1.242l1.665 1.664c.066.062.137.12.21.173a3.409 3.409 0 0 1-.537.994Zm-1.065-4.24a2.356 2.356 0 0 0-.589-1.308 3.567 3.567 0 0 1 2.387 3.108l-1.798-1.8Zm-7.104 2.057c0 .9-1.472 1.783-2.972 1.783s-2.972-.883-2.972-1.783a.594.594 0 0 0-.594-.594h-.594V2.972h.594a.59.59 0 0 0 .234-.048l4.045-1.735h6.128c.79-.003 1.548.31 2.104.87l4.836 4.836c.391.365.479.951.212 1.415a1.07 1.07 0 0 1-.917.498h-.028c.018-.161.027-.324.028-.487a4.76 4.76 0 0 0-4.755-4.755 4.705 4.705 0 0 0-2.282.595h-4.85v1.188h6.538a1.189 1.189 0 0 1 0 2.378h-4.16a.594.594 0 0 0-.595.594Z"/></g><defs><clipPath id="a"><path fill="#fff" d="M0 0h36v36H0z"/></clipPath></defs></svg>