<svg width="60" height="60" fill="none" xmlns="http://www.w3.org/2000/svg"><g clip-path="url(#a)" fill="#000"><path d="M59.756 25.238 49.713 12.193a1.176 1.176 0 0 0-1.563-.275l-6.484 4.124H33.21c-.11 0-.219.023-.324.054l-6.557 1.887-6.803-1.86-6.61-4.205a1.176 1.176 0 0 0-1.547.254L.26 25.93c-.4.495-.333 1.217.148 1.631l5.822 5.01 5.223 7.039a4.163 4.163 0 0 0 .092 5.784 4.14 4.14 0 0 0 2.522 1.194 4.13 4.13 0 0 0 1.17 3.576 4.131 4.131 0 0 0 2.939 1.218l.044-.002-.002.085c0 1.11.433 2.155 1.218 2.94a4.132 4.132 0 0 0 3.59 1.167 4.13 4.13 0 0 0 1.195 2.531 4.143 4.143 0 0 0 2.94 1.216c1.065 0 2.13-.405 2.94-1.216l.636-.635.267.215a4.143 4.143 0 0 0 2.891 1.168c1.065 0 2.13-.405 2.94-1.216a4.146 4.146 0 0 0 1.215-3.005 4.15 4.15 0 0 0 4.22-4.219 4.135 4.135 0 0 0 3.006-1.217 4.146 4.146 0 0 0 1.215-3.005 4.146 4.146 0 0 0 3.005-1.215 4.164 4.164 0 0 0 .547-5.205l3.813-7.987 5.734-4.934a1.176 1.176 0 0 0 .165-1.61Zm-47.217-10.77 4.754 3.022-10.34 12.598-4.145-3.567 9.731-12.053Zm.67 26.71 1.435-1.435a1.801 1.801 0 0 1 1.116-.52c.01-.002.021-.002.031-.003a1.794 1.794 0 0 1 1.442.559c.664.703.629 1.851-.08 2.56l-1.391 1.39a1.807 1.807 0 0 1-2.552 0 1.807 1.807 0 0 1 0-2.552Zm3.692 7.322a1.791 1.791 0 0 1-.529-1.276c0-.482.188-.935.529-1.276l2.782-2.782a1.824 1.824 0 0 1 2.051-.354 1.799 1.799 0 0 1 .994 1.863c-.054.41-.245.795-.537 1.087L19.453 48.5a1.793 1.793 0 0 1-1.276.528c-.482 0-.935-.187-1.276-.528Zm4.2 4.24a1.791 1.791 0 0 1-.529-1.275c0-.482.188-.935.53-1.276l2.78-2.782a1.825 1.825 0 0 1 2.182-.286c.637.37.971 1.098.862 1.824-.06.398-.25.773-.535 1.058l-2.737 2.738a1.793 1.793 0 0 1-1.277.529 1.79 1.79 0 0 1-1.276-.53Zm4.785 3.7a1.807 1.807 0 0 1 0-2.552l1.434-1.435a1.904 1.904 0 0 1 .139-.126c.233-.19.508-.316.8-.371l.02-.003c.051-.01.102-.017.154-.021.02-.002.04-.002.062-.003a1.792 1.792 0 0 1 1.53.698c.54.707.468 1.757-.203 2.43l-1.384 1.383a1.807 1.807 0 0 1-2.552 0Zm21.947-13.13a1.806 1.806 0 0 1-2.552 0 1.08 1.08 0 0 0-.08-.072l-7.565-7.645a1.176 1.176 0 0 0-1.673 1.655l7.647 7.727.003.003a1.807 1.807 0 0 1-1.276 3.08c-.483 0-.936-.187-1.276-.528l-5.116-5.169a1.176 1.176 0 1 0-1.672 1.656l5.037 5.09c.026.031.053.062.082.091a1.807 1.807 0 0 1 0 2.553 1.808 1.808 0 0 1-2.553 0l-2.791-2.822a1.176 1.176 0 1 0-1.673 1.655l2.714 2.742c.026.032.053.063.083.092a1.807 1.807 0 0 1 0 2.553 1.806 1.806 0 0 1-2.552 0c-.081-.081-.176-.143-.267-.213-.077-.059-.097-.1-.059-.193.04-.094.097-.18.136-.275.043-.107.078-.216.112-.326.18-.581.233-1.206.152-1.81a4.14 4.14 0 0 0-1.757-2.863 4.129 4.129 0 0 0-1.75-.678c.303-1.337-.06-2.786-1.008-3.787a4.127 4.127 0 0 0-3.087-1.3 4.154 4.154 0 0 0-1.112-2.94 4.13 4.13 0 0 0-2.964-1.301 4.227 4.227 0 0 0-1.004.106 4.125 4.125 0 0 0-1.375-2.521 4.124 4.124 0 0 0-2.66-1.009 4.167 4.167 0 0 0-2.84 1.068L8.59 31.801l10.88-13.255 3.467.949-4.528 7.991a4.13 4.13 0 0 0-.39 3.158 4.13 4.13 0 0 0 2.155 2.614 4.13 4.13 0 0 0 2.961.285 4.131 4.131 0 0 0 2.509-1.957l2.943-5.194 5.254.373 13.993 13.992a1.808 1.808 0 0 1 0 2.553Zm.488-5.393L35.194 24.79a1.177 1.177 0 0 0-.748-.341l-6.434-.457a1.196 1.196 0 0 0-1.107.594l-3.309 5.839c-.237.42-.624.72-1.089.85a1.794 1.794 0 0 1-1.37-.17 1.793 1.793 0 0 1-.85-1.089 1.79 1.79 0 0 1 .17-1.371l4.416-7.795 1.79-.515.035-.012 6.68-1.93h8.072l10.076 12.81-3.205 6.713Zm4.746-8.56L43.75 17.505l4.756-3.024 8.707 11.31-4.145 3.566Z"/><path d="M36.35 13.831c.3 0 .602-.115.831-.344l8.037-8.037a1.176 1.176 0 1 0-1.664-1.664l-8.037 8.037a1.177 1.177 0 0 0 .832 2.008Zm-13.531-.344a1.173 1.173 0 0 0 1.664 0c.46-.46.46-1.205 0-1.664l-8.037-8.037a1.176 1.176 0 1 0-1.664 1.664l8.037 8.037Zm7.181.345c.65 0 1.176-.527 1.176-1.177v-6.65a1.177 1.177 0 0 0-2.353 0v6.65c0 .65.527 1.177 1.177 1.177ZM28.914 1.74c.187.453.652.75 1.143.725a1.188 1.188 0 0 0 1.062-.815 1.185 1.185 0 0 0-.403-1.293 1.19 1.19 0 0 0-1.37-.045 1.185 1.185 0 0 0-.432 1.428Z"/></g><defs><clipPath id="a"><path fill="#fff" d="M0 0h60v60H0z"/></clipPath></defs></svg>