<svg width="14" height="14" fill="none" xmlns="http://www.w3.org/2000/svg"><g clip-path="url(#a)" fill="#000"><path d="M6.165 0A6.172 6.172 0 0 0 0 6.165c0 3.4 2.766 6.166 6.165 6.166 3.4 0 6.166-2.766 6.166-6.166A6.173 6.173 0 0 0 6.165 0Zm0 11.192a5.033 5.033 0 0 1-5.027-5.027 5.033 5.033 0 0 1 5.027-5.027 5.033 5.033 0 0 1 5.027 5.027 5.033 5.033 0 0 1-5.027 5.027Z"/><path d="M13.833 13.03 10.57 9.765a.569.569 0 1 0-.805.805l3.263 3.263a.567.567 0 0 0 .805 0 .569.569 0 0 0 0-.805Z"/></g><defs><clipPath id="a"><path fill="#fff" d="M0 0h14v14H0z"/></clipPath></defs></svg>