<svg width="38" height="38" fill="none" xmlns="http://www.w3.org/2000/svg"><path d="M15.262 13.294c-.04.59-.063 1.22-.063 1.905 0 3.173.947 5.067 2.534 5.067 2 0 2.533-2.389 2.533-3.8a.633.633 0 1 0-1.267 0c0 .025-.054 2.533-1.266 2.533-.734 0-1.267-1.598-1.267-3.8 0-7.383 2.592-8.224 2.673-8.248a.633.633 0 0 0-.264-1.24c-.127.026-.586.147-1.138.62 0-.109.01-.218.039-.326.087-.327.297-.6.59-.77a1.26 1.26 0 0 1 .96-.126 1.268 1.268 0 0 1 .305 2.32.633.633 0 0 0 .635 1.098 2.538 2.538 0 0 0 .927-3.46 2.518 2.518 0 0 0-1.538-1.181 2.517 2.517 0 0 0-1.922.253 2.515 2.515 0 0 0-.97 3.364c-.543.884-1.05 2.2-1.333 4.158-.949-1.135-1.497-2.581-1.497-4.061a6.34 6.34 0 0 1 6.333-6.333A6.34 6.34 0 0 1 26.599 7.6a6.34 6.34 0 0 1-8.343 6.008.634.634 0 0 0-.401 1.2c.775.26 1.586.392 2.41.392 4.191 0 7.6-3.41 7.6-7.6 0-4.19-3.409-7.6-7.6-7.6-4.19 0-7.599 3.41-7.599 7.6 0 2.16.97 4.258 2.596 5.694ZM8.233 24.066h5.066c.739 0 1.995.942 3.104 1.773 1.39 1.042 2.701 2.026 3.863 2.026h3.8c.961 0 1.44.437 1.452.448a.631.631 0 0 0 .896 0 .634.634 0 0 0 0-.895c-.084-.085-.862-.82-2.348-.82h-3.8c-.74 0-1.995-.942-3.103-1.772-1.39-1.043-2.703-2.027-3.864-2.027H8.233a.633.633 0 1 0 0 1.267ZM27.808 12.87l6.392 6.392v2.271h-2.271l-.262-.262v-1.638a.633.633 0 0 0-.634-.633H30.4v-.633a.633.633 0 0 0-.633-.633H28.13l-.263-.263v-1.637a.633.633 0 0 0-.633-.634h-1.638l-.062-.061a.633.633 0 1 0-.895.895l.247.247c.118.119.28.186.448.186H26.6v1.265c0 .168.067.329.185.448l.633.634c.119.119.28.186.449.186h1.267v.634c0 .35.283.633.633.633h.633v1.267c0 .167.067.328.186.447l.633.633c.118.119.28.186.448.186h3.166c.35 0 .634-.284.634-.633V19a.635.635 0 0 0-.186-.448l-6.578-6.577a.633.633 0 1 0-.895.895ZM3.168 33.884a.951.951 0 0 0-1.9 0 .951.951 0 0 0 1.9 0Z" fill="#fff"/><path d="M4.433 20.266h-3.8a.633.633 0 1 0 0 1.266h3.8c.35 0 .634.284.634.634v13.933a.634.634 0 0 1-.634.633h-3.8a.633.633 0 1 0 0 1.266h3.8c1.048 0 1.9-.852 1.9-1.9V22.166c0-1.049-.852-1.9-1.9-1.9ZM37.66 26.6c-.699-1.21-2.254-1.624-3.422-.948L26.95 29.2c-1.133.567-2.276.567-4.783.567-2.45 0-6.192-.619-6.23-.625a.632.632 0 1 0-.208 1.25c.158.026 3.882.642 6.438.642 2.63 0 3.95 0 5.343-.698l7.323-3.566c.293-.17.634-.214.961-.127.327.088.6.297.769.59a1.269 1.269 0 0 1-.481 1.741l-8.563 5.33c-.018.011-1.845 1.163-5.985 1.163-3.59 0-9.137-3.057-9.217-3.1-.057-.029-1.43-.7-4.083-.7a.633.633 0 1 0 0 1.267c2.303 0 3.49.553 3.492.553.24.133 5.889 3.246 9.808 3.246 4.572 0 6.6-1.317 6.667-1.362l8.532-5.31a2.516 2.516 0 0 0 1.18-1.539 2.515 2.515 0 0 0-.252-1.922Z" fill="#fff"/></svg>