<svg width="8" height="27" fill="none" xmlns="http://www.w3.org/2000/svg"><path d="M3.112.669a.66.66 0 0 0-.324-.572.667.667 0 0 0-.663-.016 3.999 3.999 0 0 0 .098 7.116v13.59a.44.44 0 0 1-.167.343 3.111 3.111 0 0 0 2.318 5.514 3.143 3.143 0 0 0 2.698-2.59 3.089 3.089 0 0 0-1.116-2.915.458.458 0 0 1-.178-.353l.016-13.593A4.11 4.11 0 0 0 8 3.557 3.902 3.902 0 0 0 5.876.081.67.67 0 0 0 4.89.67v2.888H3.112V.67Zm0 9.554h1.777v8H3.112v-8ZM5.398 21.83c.624.5.928 1.298.796 2.086a2.24 2.24 0 0 1-1.924 1.845 2.222 2.222 0 0 1-1.659-3.939c.316-.25.5-.632.5-1.035v-1.676H4.89v1.675c.002.407.19.791.51 1.044Zm.38-18.273V1.06a2.998 2.998 0 0 1 1.333 2.497 3.21 3.21 0 0 1-1.72 2.844.895.895 0 0 0-.502.796v2.137H3.112V7.197a.889.889 0 0 0-.507-.796 3.115 3.115 0 0 1-.382-5.339v2.495c0 .491.398.89.889.89h1.777a.89.89 0 0 0 .89-.89Z" fill="#000"/><path d="M2.668 23.553a1.333 1.333 0 1 0 2.666 0 1.333 1.333 0 0 0-2.666 0Zm1.778 0a.444.444 0 1 1-.89 0 .444.444 0 0 1 .89 0Z" fill="#000"/></svg>