<svg width="64" height="64" fill="none" xmlns="http://www.w3.org/2000/svg"><g clip-path="url(#a)" fill="#fff"><path d="M28.345 16.853 21.49 9.998a3.257 3.257 0 0 0-4.601 0l-2.713 2.713a3.257 3.257 0 0 0 0 4.601l6.855 6.855a3.243 3.243 0 0 0 2.3.951c.834 0 1.667-.317 2.301-.951l2.713-2.713a3.257 3.257 0 0 0 0-4.6Zm-1.288 3.313-2.713 2.713c-.27.27-.63.42-1.013.42-.382 0-.741-.15-1.012-.42l-6.855-6.855a1.434 1.434 0 0 1 0-2.025l2.713-2.713a1.434 1.434 0 0 1 2.025 0l6.854 6.855c.27.27.42.63.42 1.013 0 .382-.15.742-.42 1.012Zm-7.02 4.992-6.855-6.855a3.257 3.257 0 0 0-4.601 0l-2.713 2.713a3.257 3.257 0 0 0 0 4.6l6.855 6.856a3.244 3.244 0 0 0 2.3.951c.834 0 1.667-.317 2.301-.951l2.713-2.713a3.257 3.257 0 0 0 0-4.601Zm-1.288 3.313-2.713 2.712a1.433 1.433 0 0 1-2.025 0l-6.855-6.855c-.27-.27-.419-.63-.419-1.012s.149-.742.42-1.012l2.712-2.713c.28-.28.646-.419 1.013-.419.366 0 .733.14 1.012.42l6.855 6.854a1.433 1.433 0 0 1 0 2.025Z"/><path d="m62.131 21.145-8.627-8.627a6.386 6.386 0 0 0-6.162-1.65c-1.478-1.127-3.265-2.158-5.222-2.997-2.909-1.247-5.867-1.934-8.33-1.934h-.002c-.34 0-.666.014-.979.04a4.417 4.417 0 0 0-2.92-1.506l-8.323-.79a7.142 7.142 0 0 0-5.743 2.066l-8.707 8.708a.91.91 0 1 0 1.288 1.288l8.707-8.707a5.326 5.326 0 0 1 4.283-1.542l8.322.79a2.603 2.603 0 0 1 2.343 2.343l.446 4.7-.026-.023a14.4 14.4 0 0 1-.413-.384l-.086-.085a12.263 12.263 0 0 1-.515-.542 9.804 9.804 0 0 1-.187-.217l-.04-.049a8.268 8.268 0 0 1-.136-.172l-.056-.07a8.16 8.16 0 0 1-.14-.19l-.064-.093-.048-.071a2.914 2.914 0 0 0-.562-3.32 2.915 2.915 0 0 0-4.117 0 2.915 2.915 0 0 0 0 4.117 2.914 2.914 0 0 0 3.385.532c.261.354.562.712.903 1.07a16.902 16.902 0 0 0 2.34 2.016l.105 1.103a5.326 5.326 0 0 1-1.54 4.283L16.6 35.94a1.98 1.98 0 0 1-1.41.583 1.98 1.98 0 0 1-1.408-.584L2.403 24.562a1.98 1.98 0 0 1-.583-1.409c0-.532.207-1.033.583-1.409l1.793-1.793a.91.91 0 1 0-1.288-1.288l-1.793 1.793a3.819 3.819 0 0 0 0 5.394l11.379 11.378a3.79 3.79 0 0 0 2.697 1.118 3.79 3.79 0 0 0 2.697-1.118L32.596 22.52a7.14 7.14 0 0 0 2.088-5.422c.898.52 1.858 1.003 2.865 1.435a27.49 27.49 0 0 0 1.7.663l-5.12 6.617a6.412 6.412 0 0 0-.132 7.648l-4.204 4.204a1.954 1.954 0 0 0-.516 1.822.12.12 0 0 1-.032.112l-3.033 3.034a1.72 1.72 0 0 0-.303.411l-1.708 3.254-3.065 1.584c-.325.168-.59.442-.75.77l-1.202 2.493-3.65 2.286c-.383.24-.635.635-.692 1.083l-.53 4.143c-.06.465.096.922.428 1.253a1.49 1.49 0 0 0 1.253.428l4.142-.53a1.5 1.5 0 0 0 1.083-.693l2.286-3.65 2.493-1.202c.329-.159.603-.425.77-.75l1.585-3.064 3.253-1.709c.152-.08.29-.181.412-.302l3.033-3.034a.118.118 0 0 1 .112-.031 1.954 1.954 0 0 0 1.822-.516l4.204-4.204a6.404 6.404 0 0 0 3.738 1.201c1.375 0 2.755-.44 3.91-1.333l4.873-3.77a.91.91 0 0 0-1.115-1.44l-4.872 3.77a4.584 4.584 0 0 1-5.959-.312l-.003-.004-.037-.035-.035-.033-5.735-5.735-.033-.035-.036-.038-.003-.002a4.584 4.584 0 0 1-.311-5.959l5.536-7.156c1.689.454 3.318.695 4.774.695.434 0 .845-.021 1.233-.064l7.27 7.271c.528.527 1.22.79 1.912.79s1.384-.263 1.911-.79a2.706 2.706 0 0 0 0-3.822l-7.408-7.408a2.685 2.685 0 0 0-1.911-.792c-.722 0-1.4.281-1.911.792a2.685 2.685 0 0 0-.776 2.197 11.15 11.15 0 0 1-.32.005c-1.09 0-2.296-.154-3.559-.445l3.064-3.96a4.561 4.561 0 0 1 6.831-.434l8.627 8.627a4.561 4.561 0 0 1-.435 6.83l-2.943 2.278a.91.91 0 0 0 1.115 1.44l2.943-2.276a6.384 6.384 0 0 0 .608-9.56ZM28.174 11.26a1.08 1.08 0 0 1-.77-.32 1.083 1.083 0 0 1-.32-.77c0-.291.114-.565.32-.77a1.083 1.083 0 0 1 .904-.31c-.103.65-.004 1.353.288 2.085a1.088 1.088 0 0 1-.422.085Zm7.05 23.55 4.616 4.616-4.144 4.144a.12.12 0 0 1-.112.031 1.954 1.954 0 0 0-1.822.516l-3.02 3.02-3.272 1.718a1.69 1.69 0 0 0-.719.723l-1.583 3.063-2.488 1.2c-.288.14-.53.356-.7.628l-2.226 3.552-3.583.459.459-3.584 3.552-2.225c.271-.17.488-.412.627-.7l1.2-2.488 3.063-1.584c.31-.16.561-.409.724-.718l1.717-3.272 3.02-3.02a1.954 1.954 0 0 0 .516-1.822.119.119 0 0 1 .032-.112l4.143-4.144Zm15.417-15.946 6.277 6.277a.882.882 0 0 1-1.246 1.246l-6.494-6.494c.604-.26 1.096-.604 1.463-1.03Zm-2.377-1.131a.876.876 0 0 1 1.06-.142c-.257.34-.708.61-1.317.79l-.001-.025c0-.236.091-.457.258-.623Zm-4.32-4.606-3.517 4.546a25.551 25.551 0 0 1-2.16-.813 24.114 24.114 0 0 1-3.79-2.028l-.605-6.376a4.433 4.433 0 0 0-.123-.696h.04c2.222 0 4.926.634 7.613 1.786a23.891 23.891 0 0 1 4.03 2.189 6.382 6.382 0 0 0-1.488 1.392Z"/></g><defs><clipPath id="a"><path fill="#fff" d="M0 0h64v64H0z"/></clipPath></defs></svg>