<svg width="60" height="60" fill="none" xmlns="http://www.w3.org/2000/svg"><path d="M24.1 20.991A45.147 45.147 0 0 0 24 24c0 5.01 1.495 8 4 8 3.157 0 4-3.772 4-6a1 1 0 1 0-2 0c0 .04-.086 4-2 4-1.159 0-2-2.524-2-6 0-11.658 4.092-12.986 4.22-13.024a1 1 0 0 0-.417-1.956c-.2.04-.924.23-1.796.977.001-.171.015-.343.061-.514.138-.516.469-.947.932-1.215a1.987 1.987 0 0 1 1.517-.2 2.002 2.002 0 0 1 .482 3.664 1 1 0 0 0 1 1.733A4.007 4.007 0 0 0 33.465 8a3.976 3.976 0 0 0-2.429-1.864A3.974 3.974 0 0 0 28 6.535a3.971 3.971 0 0 0-1.864 2.43c-.259.966-.137 1.968.334 2.882-.858 1.396-1.66 3.475-2.106 6.566C22.866 16.62 22 14.337 22 12c0-5.514 4.486-10 10-10 5.513 0 10 4.486 10 10s-4.487 10-10 10c-1.087 0-2.154-.174-3.174-.514a1 1 0 0 0-.633 1.896A11.99 11.99 0 0 0 32 24c6.617 0 12-5.383 12-12 0-6.616-5.384-12-12-12S20 5.383 20 12c0 3.41 1.531 6.722 4.1 8.991ZM12.999 38h8c1.166 0 3.15 1.488 4.9 2.8 2.194 1.646 4.266 3.2 6.1 3.2h6c1.517 0 2.272.689 2.292.707a.998.998 0 0 0 1.414 0 1 1 0 0 0 0-1.414C41.573 43.16 40.345 42 37.998 42h-6c-1.166 0-3.15-1.488-4.9-2.8-2.193-1.646-4.266-3.2-6.1-3.2H13a1 1 0 1 0 0 2Zm30.906-17.68 10.093 10.093V34h-3.586l-.414-.414V31a1 1 0 0 0-1-1h-1v-1a1 1 0 0 0-1-1h-2.585L44 27.584V25a1 1 0 0 0-1-1h-2.586l-.097-.097a.999.999 0 1 0-1.414 1.414l.39.39A1 1 0 0 0 40 26h2v1.998a1 1 0 0 0 .291.707l1 1.001A.999.999 0 0 0 44 30h2v1a1 1 0 0 0 1 1h1v2a1 1 0 0 0 .292.707l1 1a1 1 0 0 0 .707.293h5a1 1 0 0 0 1-1v-5c0-.265-.106-.52-.293-.707L45.32 18.906a.999.999 0 1 0-1.414 1.414ZM5 53.5c0-.827-.673-1.5-1.5-1.5S2 52.673 2 53.5 2.673 55 3.5 55 5 54.327 5 53.5Z" fill="#FFC400"/><path d="M7 31.998H1a1 1 0 1 0 0 2h6a1 1 0 0 1 1 1v22c0 .55-.45 1-1 1H1a1 1 0 1 0 0 2h6c1.654 0 3-1.347 3-3v-22c0-1.655-1.346-3-3-3Zm52.462 10.001c-1.103-1.911-3.558-2.565-5.402-1.497l-11.509 5.602c-1.79.895-3.595.895-7.552.895-3.87 0-9.777-.977-9.836-.987a1.001 1.001 0 0 0-.33 1.973c.25.042 6.13 1.014 10.165 1.014 4.152 0 6.236 0 8.437-1.101l11.563-5.631a1.987 1.987 0 0 1 1.517-.2 1.98 1.98 0 0 1 1.214.932 2.004 2.004 0 0 1-.76 2.75l-13.52 8.414c-.028.018-2.913 1.836-9.45 1.836-5.67 0-14.427-4.826-14.553-4.895-.09-.045-2.26-1.105-6.447-1.105a1 1 0 1 0 0 2c3.637 0 5.51.874 5.514.874.378.21 9.298 5.126 15.485 5.126 7.22 0 10.422-2.08 10.528-2.151l13.472-8.385a3.973 3.973 0 0 0 1.863-2.43A3.972 3.972 0 0 0 59.462 42Z" fill="#FFC400"/></svg>