<svg width="44" height="44" fill="none" xmlns="http://www.w3.org/2000/svg"><path d="m42.141 20.656-4.14-1.285a10.987 10.987 0 0 0-1.009-1.654c4.996-3.44 2.857-8.977 2.834-9.034a.689.689 0 0 0-.82-.408c-5.124 1.399-7.005 3.722-7.691 5.335-.412-.13-.83-.236-1.255-.316a6.875 6.875 0 1 0-13.37 0 11.34 11.34 0 0 0-9.085 10.207 8.801 8.801 0 0 1-.683.113 2.459 2.459 0 0 0-.223-1.893 2.15 2.15 0 0 0-1.886-1.096 1.9 1.9 0 0 0-1.767 1.092 2.075 2.075 0 0 0 .31 2.216 2.6 2.6 0 0 0 .665.571 6.983 6.983 0 0 1-1.958.246.688.688 0 1 0 0 1.375c2.03 0 3.217-.531 3.905-1.098.54.015 1.08-.026 1.611-.123.08 1.887.631 3.724 1.602 5.345a11.462 11.462 0 0 0 3.76 3.803l-1.227 4.258a.689.689 0 0 0 .661.878h5.5a.689.689 0 0 0 .639-.432l1.202-3.006h6.63l1.203 3.006a.688.688 0 0 0 .639.432h5.5a.688.688 0 0 0 .656-.892l-1.202-3.87a11.486 11.486 0 0 0 5.177-5.687l3.835-1.274a.687.687 0 0 0 .471-.652v-5.5a.687.687 0 0 0-.484-.657ZM5.48 23.526c-.011.02-.024.04-.037.06a1.723 1.723 0 0 1-1.023-.524.711.711 0 0 1-.13-.757.551.551 0 0 1 .546-.304.78.78 0 0 1 .673.407 1.108 1.108 0 0 1-.029 1.117ZM23.375 6.187A5.497 5.497 0 0 1 26.029 16.5h-5.308a5.498 5.498 0 0 1 2.654-10.312Zm17.875 20.13-3.668 1.218a.687.687 0 0 0-.426.409 10.086 10.086 0 0 1-5.134 5.506.687.687 0 0 0-.366.826l1.098 3.537h-4.1l-1.203-3.006a.689.689 0 0 0-.639-.432H19.25a.688.688 0 0 0-.639.432l-1.202 3.006h-4.12l1.122-3.894a.687.687 0 0 0-.328-.791 10.073 10.073 0 0 1-3.724-3.59 9.957 9.957 0 0 1 6.803-14.931c.03.065.054.135.087.2a6.93 6.93 0 0 0 1.23 1.693h-1.291a.687.687 0 1 0 0 1.375h12.375a.688.688 0 0 0 0-1.375H28.27a6.916 6.916 0 0 0 1.229-1.692c.032-.063.055-.13.085-.194a9.422 9.422 0 0 1 1.894.517.686.686 0 0 0 .92-.461c.263-.986 1.405-3.376 6.336-4.886a6.13 6.13 0 0 1-3.102 7.166.687.687 0 0 0-.178 1.043 9.604 9.604 0 0 1 1.43 2.232.687.687 0 0 0 .421.37l3.944 1.224v4.498Z" fill="#fff"/><path d="M32.313 19.938A2.064 2.064 0 0 0 30.25 22a.687.687 0 1 0 1.375 0A.687.687 0 1 1 33 22a.687.687 0 1 0 1.375 0 2.064 2.064 0 0 0-2.063-2.063Zm-9.625-4.913v.1a.687.687 0 1 0 1.375 0v-.1a1.956 1.956 0 0 0 .29-3.617l-1.34-.67a.587.587 0 0 1 .262-1.113h.2a.588.588 0 0 1 .587.587v.1a.687.687 0 1 0 1.375 0v-.1a1.958 1.958 0 0 0-1.375-1.862v-.1a.687.687 0 1 0-1.375 0v.1a1.955 1.955 0 0 0-.29 3.617l1.34.67a.587.587 0 0 1-.262 1.113h-.2a.588.588 0 0 1-.587-.587v-.1a.687.687 0 1 0-1.375 0v.1a1.958 1.958 0 0 0 1.375 1.862Z" fill="#fff"/></svg>