<svg width="64" height="64" fill="none" xmlns="http://www.w3.org/2000/svg"><path d="m61.296 30.046-6.022-1.87a15.966 15.966 0 0 0-1.467-2.404c7.266-5.004 4.155-13.058 4.121-13.142a1.001 1.001 0 0 0-1.191-.593c-7.454 2.035-10.19 5.414-11.188 7.76a15.828 15.828 0 0 0-1.825-.46 10 10 0 1 0-19.448.002 16.494 16.494 0 0 0-13.215 14.845c-.352.07-.688.13-.992.165a3.578 3.578 0 0 0-.325-2.754A3.128 3.128 0 0 0 7 30.002a2.764 2.764 0 0 0-2.57 1.587 3.018 3.018 0 0 0 .45 3.224c.274.33.602.61.969.83-.928.254-1.887.375-2.849.358a1 1 0 1 0 0 2c2.953 0 4.68-.772 5.68-1.596.786.02 1.571-.04 2.344-.18a16.487 16.487 0 0 0 2.33 7.774 16.672 16.672 0 0 0 5.47 5.532l-1.785 6.194A1 1 0 0 0 18 57h8a1.001 1.001 0 0 0 .929-.628l1.748-4.371h9.646l1.748 4.371a1.001 1.001 0 0 0 .929.629h8a1 1 0 0 0 .955-1.297l-1.748-5.629a16.707 16.707 0 0 0 7.53-8.272l5.578-1.853A1.001 1.001 0 0 0 62 39v-8a1 1 0 0 0-.704-.955ZM7.97 34.22c-.017.03-.035.059-.054.088a2.507 2.507 0 0 1-1.489-.763 1.035 1.035 0 0 1-.188-1.1.801.801 0 0 1 .793-.443h.002a1.134 1.134 0 0 1 .978.593 1.611 1.611 0 0 1-.042 1.625ZM34 9a7.996 7.996 0 0 1 3.86 15h-7.72A7.997 7.997 0 0 1 34 9Zm26 29.28-5.335 1.772a1 1 0 0 0-.62.595 14.67 14.67 0 0 1-7.467 8.008 1 1 0 0 0-.533 1.203l1.597 5.144h-5.965L39.93 50.63A1.001 1.001 0 0 0 39 50H28a1 1 0 0 0-.929.629L25.323 55h-5.994l1.632-5.663a1 1 0 0 0-.476-1.151 14.652 14.652 0 0 1-5.418-5.22 14.483 14.483 0 0 1 9.895-21.72c.045.096.08.197.128.29.468.908 1.07 1.739 1.788 2.465H25a1 1 0 1 0 0 2h18a1 1 0 0 0 0-2h-1.878a10.061 10.061 0 0 0 1.787-2.462c.047-.091.08-.19.124-.282a13.74 13.74 0 0 1 2.754.751 1.001 1.001 0 0 0 1.34-.67c.382-1.434 2.042-4.91 9.214-7.106a8.915 8.915 0 0 1-4.512 10.423 1 1 0 0 0-.258 1.516c.84.981 1.54 2.074 2.08 3.248a1 1 0 0 0 .613.536L60 31.738v6.542Z" fill="#FFD124"/><path d="M47 29a3.004 3.004 0 0 0-3 3 1 1 0 0 0 2 0 1 1 0 0 1 2 0 1 1 0 0 0 2 0 3.004 3.004 0 0 0-3-3Zm-14-7.145V22a1 1 0 0 0 2 0v-.145a2.844 2.844 0 0 0 .422-5.262l-1.95-.974A.854.854 0 0 1 33.854 14h.292a.855.855 0 0 1 .854.854V15a1 1 0 0 0 2 0v-.146a2.848 2.848 0 0 0-2-2.709V12a1 1 0 0 0-2 0v.145a2.844 2.844 0 0 0-.422 5.262l1.95.974A.854.854 0 0 1 34.146 20h-.292a.855.855 0 0 1-.854-.854V19a1 1 0 0 0-2 0v.146a2.848 2.848 0 0 0 2 2.709Z" fill="#FFD124"/></svg>