<svg width="20" height="20" fill="none" xmlns="http://www.w3.org/2000/svg"><path d="M.586 11.719a.586.586 0 0 0 .586-.586v-.586h1.172v1.172h15.312v-1.172h-10a1.755 1.755 0 0 1-1.758-1.758V7.617a.58.58 0 0 1 .586-.586.58.58 0 0 1 .586.586V8.79a.58.58 0 0 0 .586.586h.692a1.627 1.627 0 0 1-.106-.586V7.617a.58.58 0 0 1 .586-.586.58.58 0 0 1 .586.586V8.79a.58.58 0 0 0 .586.586h.691a1.627 1.627 0 0 1-.105-.586V7.617a.58.58 0 0 1 .586-.586.58.58 0 0 1 .586.586V8.79a.58.58 0 0 0 .586.586h.691a1.627 1.627 0 0 1-.105-.586V7.617a.58.58 0 0 1 .586-.586.58.58 0 0 1 .586.586V8.79a.58.58 0 0 0 .585.586h2.97V5.859H2.343v1.172H1.172v-.586a.586.586 0 1 0-1.172 0v4.688c0 .324.262.586.586.586Z" fill="#000"/><path d="M19.414 10.547A.58.58 0 0 0 20 9.96a.58.58 0 0 0-.586-.586h-1.758v1.172h1.758ZM2.344 4.102v.585h15.312v-.585a1.76 1.76 0 0 0-1.758-1.758H4.102a1.76 1.76 0 0 0-1.758 1.758Zm17.07 8.788h-.586v2.344h.586a.586.586 0 0 0 .586-.586v-1.171a.586.586 0 0 0-.586-.586Zm-8.242 4.688h4.726c.971 0 1.758-.787 1.758-1.758v-2.93H2.344v.587c0 .97.787 1.757 1.758 1.757h5.312v.586c0 .971.787 1.758 1.758 1.758ZM5.312 0c-.763 0-1.407.491-1.65 1.172h3.3A1.755 1.755 0 0 0 5.312 0ZM10 0c-.763 0-1.408.491-1.65 1.172h3.3A1.755 1.755 0 0 0 10 0Zm4.687 0c-.763 0-1.407.491-1.65 1.172h3.3A1.755 1.755 0 0 0 14.687 0Z" fill="#000"/></svg>