<svg width="26" height="26" fill="none" xmlns="http://www.w3.org/2000/svg"><path d="M13 0C7.952 0 3.846 4.171 3.846 9.298v7.404C3.846 21.83 7.952 26 13 26s9.155-4.158 9.155-9.27V9.299C22.155 4.171 18.048 0 13 0Zm7.433 16.73c0 4.162-3.334 7.548-7.433 7.548-4.098 0-7.432-3.398-7.432-7.576V9.298c0-4.178 3.334-7.576 7.432-7.576 4.099 0 7.433 3.398 7.433 7.576v7.433Z" fill="#FFC400"/><path d="M13 7.117a.861.861 0 0 0-.86.861v3.013a.86.86 0 0 0 1.721 0V7.978a.86.86 0 0 0-.86-.86Z" fill="#FFC400"/></svg>