<svg width="30" height="40" fill="none" xmlns="http://www.w3.org/2000/svg"><path d="M3.203 14.844c0 6.461 5.257 11.719 11.719 11.719s11.719-5.258 11.719-11.72c0-6.461-5.257-11.718-11.72-11.718-6.46 0-11.718 5.257-11.718 11.719ZM14.922 4.688c5.6 0 10.156 4.555 10.156 10.156 0 5.6-4.556 10.156-10.156 10.156-5.6 0-10.156-4.556-10.156-10.156 0-5.6 4.556-10.156 10.156-10.156Z" fill="#fff"/><path d="m7.686 13.45 3.028 2.984-.696 4.193a.781.781 0 0 0 1.13.822l3.773-1.96 3.773 1.96a.78.78 0 0 0 1.13-.822l-.696-4.193 3.028-2.984a.78.78 0 0 0-.432-1.329l-4.203-.633-1.901-3.802a.781.781 0 0 0-1.398 0l-1.901 3.803-4.203.632a.781.781 0 0 0-.432 1.33Zm5.269-.477a.781.781 0 0 0 .582-.423l1.384-2.768 1.384 2.768a.781.781 0 0 0 .583.423l3.058.46-2.204 2.172a.783.783 0 0 0-.222.685l.507 3.052-2.746-1.426a.78.78 0 0 0-.72 0l-2.746 1.426.507-3.052a.781.781 0 0 0-.222-.685l-2.204-2.171 3.059-.46ZM15.703.781a.781.781 0 1 1-1.562 0 .781.781 0 0 1 1.562 0Z" fill="#fff"/><path d="M11.24.46A14.83 14.83 0 0 0 .078 14.843c0 4.218 1.773 8.192 4.887 11.007L.258 34.145a.781.781 0 0 0 .838 1.15l5.345-1.11L8.32 39.48a.781.781 0 0 0 1.415.125l5.187-9.118 5.186 9.118a.78.78 0 0 0 1.416-.124l1.878-5.294 5.345 1.11a.782.782 0 0 0 .839-1.151l-4.707-8.295a14.798 14.798 0 0 0 4.886-11.007A14.83 14.83 0 0 0 18.604.46a.781.781 0 1 0-.387 1.514 13.269 13.269 0 0 1 9.986 12.87c0 7.395-6.006 13.28-13.281 13.28-7.28 0-13.281-5.89-13.281-13.28a13.268 13.268 0 0 1 9.985-12.87A.782.782 0 0 0 11.24.46ZM9.222 37.347l-1.536-4.326a.781.781 0 0 0-.895-.504l-4.322.898 3.725-6.565a14.875 14.875 0 0 0 7.418 2.779l-4.39 7.718Zm13.83-4.83a.781.781 0 0 0-.895.504l-1.535 4.326-4.39-7.718a14.876 14.876 0 0 0 7.418-2.78l3.725 6.566-4.323-.898Z" fill="#fff"/></svg>