<svg width="60" height="60" fill="none" xmlns="http://www.w3.org/2000/svg"><path d="M25.574 4.918c-11.408 0-20.656 9.248-20.656 20.656s9.248 20.655 20.656 20.655 20.655-9.247 20.655-20.655C46.216 14.17 36.976 4.93 25.574 4.918Zm0 39.344c-10.322 0-18.689-8.367-18.689-18.688 0-10.322 8.367-18.689 18.689-18.689 10.321 0 18.688 8.367 18.688 18.689-.011 10.316-8.372 18.677-18.688 18.688Z" fill="#000"/><path d="m38.054 20.742-.912-2.054h1.218a.984.984 0 0 0 0-1.967h-2.093l-1.407-3.166a2.951 2.951 0 0 0-2.696-1.752h-13.18a2.951 2.951 0 0 0-2.698 1.752L14.88 16.72h-2.092a.984.984 0 1 0 0 1.967h1.218l-.913 2.054a2.95 2.95 0 0 0-2.273 2.864v7.869a2.95 2.95 0 0 0 1.967 2.77v1.164a2.95 2.95 0 0 0 2.951 2.951h1.968a2.95 2.95 0 0 0 2.95-2.95v-.984h9.836v.983a2.95 2.95 0 0 0 2.951 2.951h1.968a2.95 2.95 0 0 0 2.95-2.95v-1.165a2.95 2.95 0 0 0 1.968-2.77v-7.869a2.95 2.95 0 0 0-2.274-2.864ZM21.64 28.524v-.984c0-.543.44-.983.984-.983h5.901c.543 0 .984.44.984.983v.984H21.64Zm6.885-3.934h-5.901a2.95 2.95 0 0 0-2.951 2.95v.984h-6.886v-4.918c0-.543.44-.984.984-.984h23.607c.543 0 .983.44.983.984v4.918h-6.885v-.984a2.95 2.95 0 0 0-2.95-2.95Zm-10.44-10.236a.984.984 0 0 1 .9-.584h13.18c.388 0 .74.229.899.584l2.8 6.301h-20.58l2.8-6.3Zm.604 21.055c0 .544-.44.984-.983.984h-1.968a.984.984 0 0 1-.983-.984v-.983h3.934v.983Zm17.705 0c0 .544-.44.984-.983.984h-1.968a.984.984 0 0 1-.983-.984v-.983h3.934v.983Zm.984-2.95H13.77a.984.984 0 0 1-.983-.984v-.984H38.36v.984c0 .543-.44.983-.983.983Z" fill="#000"/><path d="M16.721 24.59h-.983a.984.984 0 0 0 0 1.967h.983a.984.984 0 1 0 0-1.967Zm17.705 1.967h.984a.984.984 0 1 0 0-1.967h-.984a.984.984 0 0 0 0 1.967Zm-13.771-7.869h.098l9.837-.983a.984.984 0 1 0-.197-1.958l-9.836.984a.985.985 0 0 0 .098 1.967v-.01Z" fill="#000"/><path d="M51.049 45.756c2.425-2.914-1.758-6.549-4.342-3.965l-.376.377-1.426-1.425c8.05-10.252 6.724-25-3.027-33.65-9.751-8.65-24.552-8.208-33.77 1.008-9.218 9.216-9.663 24.017-1.015 33.77 8.647 9.753 23.395 11.083 33.648 3.035l1.426 1.426-.377.377a2.943 2.943 0 0 0 3.966 4.34l7.841 7.842a3.745 3.745 0 1 0 5.296-5.296l-7.844-7.84ZM2.951 25.573C2.95 13.08 13.079 2.95 25.574 2.95c12.494 0 22.622 10.129 22.622 22.623 0 12.495-10.128 22.623-22.622 22.623-12.49-.013-22.61-10.134-22.623-22.623Zm39.295 18.055c.478-.442.937-.903 1.377-1.383l1.314 1.314-1.383 1.383-1.308-1.314Zm.934 4.47c1.556-1.548.258-.248 3.85-3.841l1.068-1.077a.984.984 0 0 1 1.39 1.39l-4.918 4.92a.984.984 0 0 1-1.39-1.391Zm14.32 9.404a1.8 1.8 0 0 1-2.514 0l-7.823-7.825 2.514-2.514 7.826 7.828a1.756 1.756 0 0 1 0 2.511h-.002Z" fill="#000"/></svg>