<svg width="36" height="36" fill="none" xmlns="http://www.w3.org/2000/svg"><path d="M35.579 7.762a.574.574 0 0 0-.03-.154c-.007-.02-.012-.038-.02-.056a.603.603 0 0 0-.12-.176l-7.2-7.2a.59.59 0 0 0-.177-.12c-.018-.009-.036-.014-.054-.02a.59.59 0 0 0-.158-.031C27.81.007 27.8 0 27.787 0h-18a3.004 3.004 0 0 0-3 3v4.416a11.378 11.378 0 0 0 0 20.82V33a3.004 3.004 0 0 0 3 3h22.8a3.003 3.003 0 0 0 3-3V7.8c0-.013-.007-.025-.008-.038Zm-2.04-.562h-4.552a.6.6 0 0 1-.6-.6V2.048L33.538 7.2ZM1.212 17.826a10.186 10.186 0 0 1 10.2-10.2 10.172 10.172 0 0 1 10.074 8.672c.08.506.121 1.016.125 1.528a10.118 10.118 0 0 1-1.565 5.429 10.2 10.2 0 0 1-18.834-5.429Zm17.168 9.013a11.228 11.228 0 0 0 1.094-.951 11.144 11.144 0 0 0 .951-1.094c.072-.094.151-.184.22-.281l5.116 5.121a1.786 1.786 0 0 1 0 2.539 1.828 1.828 0 0 1-2.54 0L18.1 27.06c.096-.07.187-.148.281-.22ZM32.587 34.8h-22.8a1.8 1.8 0 0 1-1.8-1.8v-4.296c.037.012.076.02.114.032.096.03.193.053.29.08a10.349 10.349 0 0 0 1.017.23c.229.04.46.071.69.098.104.012.206.026.31.035a11.326 11.326 0 0 0 6.657-1.459l5.304 5.3a3 3 0 1 0 4.24-4.237l-5.302-5.306a11.32 11.32 0 0 0 1.45-6.782 11.34 11.34 0 0 0-3.282-6.93 11.325 11.325 0 0 0-9.067-3.292c-.104.009-.207.023-.31.035a11.33 11.33 0 0 0-1.03.164c-.225.047-.449.102-.67.163-.1.027-.2.051-.3.081-.038.012-.076.02-.113.031V3a1.8 1.8 0 0 1 1.8-1.8h17.402v5.4a1.8 1.8 0 0 0 1.8 1.8h5.4V33a1.8 1.8 0 0 1-1.8 1.8Z" fill="#fff"/><path d="M24.787 4.2a.6.6 0 0 0-.6-.6h-13.2a.6.6 0 0 0 0 1.2h13.2a.6.6 0 0 0 .6-.6Zm6.599 10.2h-7.2a.6.6 0 0 0 0 1.2h7.2a.6.6 0 0 0 0-1.2Zm0 3.6h-7.2a.6.6 0 0 0 0 1.2h7.2a.6.6 0 0 0 0-1.2Zm.6 4.2a.6.6 0 0 0-.6-.6h-7.8a.6.6 0 0 0 0 1.2h7.8a.6.6 0 0 0 .6-.6Zm.001 3.6a.6.6 0 0 0-.6-.6h-5.4a.6.6 0 0 0 0 1.2h5.4a.6.6 0 0 0 .6-.6Zm-7.2-18a.6.6 0 0 0-.6-.6h-4.8a.6.6 0 0 0 0 1.2h4.8a.6.6 0 0 0 .6-.6Zm7.2 3.6a.6.6 0 0 0-.6-.6h-9a.6.6 0 0 0 0 1.2h9a.6.6 0 0 0 .6-.6ZM9.186 15h4.2a.6.6 0 0 0 0-1.2h-4.2a.6.6 0 1 0 0 1.2Zm7.201 3a.6.6 0 0 0-.6-.6h-9a.6.6 0 1 0 0 1.2h9a.6.6 0 0 0 .6-.6Zm-3.001 3h-4.2a.6.6 0 1 0 0 1.2h4.2a.6.6 0 0 0 0-1.2Z" fill="#fff"/><path d="M15.684 25.74a8.798 8.798 0 0 0 3.5-3.396c.048-.083.1-.163.144-.247.023-.044.041-.088.064-.132.09-.175.18-.35.258-.53.079-.179.14-.35.205-.525.018-.052.042-.101.06-.153a9 9 0 0 0-16.447-7.171 8.947 8.947 0 0 0-1.056 4.237 8.99 8.99 0 0 0 13.272 7.92v-.004Zm-8.01-1.07a7.898 7.898 0 0 1-3.148-3.175 7.805 7.805 0 0 1 12.402-9.185 7.844 7.844 0 0 1 1.343 9.22v.005a7.668 7.668 0 0 1-3.15 3.15 7.777 7.777 0 0 1-7.447-.012v-.003Zm24.913 4.13a.6.6 0 0 0-.6.6v2.4a.6.6 0 0 1-.6.6h-2.4a.6.6 0 0 0 0 1.2h2.4a1.8 1.8 0 0 0 1.8-1.8v-2.4a.6.6 0 0 0-.6-.6Z" fill="#fff"/></svg>