<svg width="36" height="36" fill="none" xmlns="http://www.w3.org/2000/svg"><g clip-path="url(#a)" fill="#fff"><path d="m8.944 17.1-2.869-.619c-.787-.169-1.518.45-1.518 1.238v1.18c0 .957.73 1.182 1.63 1.182h3.15c.62 0 1.238-.112 1.238-.787v-.17c0-1.012-.675-1.855-1.63-2.024Zm-3.319 1.8v-1.238c0-.112.113-.225.225-.168l2.87.618c.393.113.674.45.73.844-1.968 0-3.656 0-3.825-.056Z"/><path d="m34.481 11.082-4.05-1.912c-1.35-.62-2.812-.844-4.219-.563l-.618-1.237c-.45-1.125-1.519-1.913-2.757-1.913H9.675a2.938 2.938 0 0 0-2.756 1.856L4.725 11.87a2.748 2.748 0 0 0-2.25-1.182h-.956c-.844 0-1.519.675-1.519 1.519v.619c0 .843.675 1.518 1.519 1.518H2.98c-.619.788-.9 1.8-.9 2.813v3.375c0 1.294.45 2.531 1.35 3.6v2.531c0 1.125.9 2.025 2.025 2.025h2.081c1.125 0 2.026-.9 2.026-2.025v-1.012h11.25c2.475 3.375 6.356 4.837 6.412 4.837.112.056.225.056.394 0C27.675 30.432 36 27.395 36 19.801v-6.3c0-1.013-.619-1.969-1.519-2.419ZM7.931 7.763c.282-.731.956-1.181 1.744-1.181h13.162c.788 0 1.463.45 1.8 1.238l.507 1.068c-.225.057-.45.169-.675.282l-4.05 1.912c-.9.45-1.519 1.35-1.519 2.362H5.119c.225-.337 0 .225 2.812-5.68Zm-6.806 5.063v-.619c0-.225.169-.394.394-.394h.956c1.125 0 1.519 1.013 1.631 1.181-.056.113-.112.17-.225.282H1.52c-.225-.056-.394-.225-.394-.45Zm7.313 13.781c0 .506-.394.9-.9.9H5.4c-.506.056-.9-.394-.9-.9v-1.631a4.51 4.51 0 0 0 2.25.619h1.688v1.012Zm-1.744-2.081c-2.025 0-3.6-1.969-3.6-4.05V17.1c0-.956.393-1.856 1.068-2.588H18.9v4.95h-6.187a.564.564 0 0 0-.563.563c0 .337.225.562.563.562h6.243c.056.394.056.732.169 1.069h-6.412a.564.564 0 0 0-.563.563c0 .337.225.562.563.562h6.637c.225.619.45 1.238.787 1.744H6.694ZM34.875 19.8c0 6.244-6.3 9.112-7.425 9.562-4.05-1.631-7.425-5.119-7.425-9.562v-6.3c0-.619.338-1.125.9-1.406l4.05-1.913a5.72 5.72 0 0 1 5.063 0l4.05 1.912c.506.282.9.788.9 1.407v6.3h-.113Z"/><path d="m32.962 13.388-3.712-1.743a4.172 4.172 0 0 0-3.657 0l-3.656 1.743c-.169.113-.337.281-.337.507V19.8c0 4.444 3.88 6.862 5.568 7.706a.78.78 0 0 0 .507 0c1.687-.844 5.568-3.263 5.568-7.706v-5.906a.59.59 0 0 0-.28-.507Zm-.787 6.413c0 3.6-3.15 5.737-4.725 6.581-1.857-1.013-4.725-3.038-4.725-6.581v-5.569l3.375-1.631a3.233 3.233 0 0 1 2.7 0l3.375 1.631v5.569Z"/><path d="M25.256 19.632c-.225-.169-.563-.113-.788.112-.225.225-.112.563.113.788l2.137 1.631c.225.169.563.113.788-.113l3.15-4.106c.169-.225.112-.562-.113-.787-.225-.169-.562-.113-.787.112l-2.813 3.657-1.687-1.294Z"/></g><defs><clipPath id="a"><path fill="#fff" d="M0 0h36v36H0z"/></clipPath></defs></svg>