<svg width="42" height="42" fill="none" xmlns="http://www.w3.org/2000/svg"><g clip-path="url(#a)" fill="#000"><path d="M3.624 28.595c-.706-.048-1.078-.276-1.536-.557-.352-.217-.75-.462-1.31-.61a.615.615 0 1 0-.315 1.189c.384.101.66.272.98.469.57.35 1.217.748 2.466.748 1.243 0 1.889-.397 2.46-.748.514-.317.92-.567 1.814-.567.895 0 1.3.25 1.815.567.57.35 1.217.748 2.46.748 1.242 0 1.888-.397 2.459-.748.514-.317.92-.567 1.815-.567.894 0 1.3.25 1.814.567.57.35 1.214.747 2.451.748h.012c1.236-.001 1.881-.398 2.45-.748.515-.317.92-.567 1.815-.567.895 0 1.3.25 1.815.567.57.35 1.217.748 2.46.748 1.242 0 1.889-.397 2.459-.748.514-.317.92-.567 1.814-.567.895 0 1.301.25 1.815.567.57.35 1.217.748 2.466.748 1.242 0 1.889-.397 2.46-.748.32-.197.596-.367.98-.47a.615.615 0 0 0-.316-1.189c-.559.149-.958.394-1.31.61-.514.317-.92.567-1.82.567-.542 0-.904-.092-1.22-.234a7.79 7.79 0 0 0 2.454-2.874l2.604-5.208a.615.615 0 0 0-.55-.89h-1.358v-2.015a.615.615 0 0 0-.615-.615h-2.015v-2.015a.615.615 0 0 0-.615-.615H26.26a.615.615 0 0 0-.615.615v2.015H23.63a.615.615 0 0 0-.615.615v4.645h-6.003v-6.66h.7a.615.615 0 0 0 0-1.23h-4.645v-4.03h.7a.615.615 0 0 0 0-1.231H4.56a.615.615 0 0 0-.616.615v7.891a.615.615 0 0 0 1.23 0v-2.015h10.607v1.4h-.7a.615.615 0 0 0 0 1.23h.7v4.03H9.164a.7.7 0 0 1-.7-.7v-1.315a.615.615 0 0 0-.615-.615H.615a.615.615 0 0 0-.565.858l3.574 8.339Zm8.212-18.487v1.4h-.7a.615.615 0 1 0 0 1.23h.7v1.4h-6.66v-4.03h6.66Zm26.96 9.29h-4.03v-1.4h4.03v1.4Zm-9.29 0v-1.4h4.03v1.4h-4.03Zm6.66-2.63h-4.03v-1.4h4.03v1.4Zm-9.29-1.4h4.03v1.4h-4.03v-1.4Zm-2.63 2.63h4.03v1.4h-4.03v-1.4Zm0 2.63h3.65l-.507 1.014a.696.696 0 0 1-.626.386h-2.518v-1.4Zm-17.013 0v.7c0 1.065.866 1.93 1.93 1.93h17.6a1.92 1.92 0 0 0 1.726-1.066l.782-1.564h11.118l-.7 1.4h-8.826a.615.615 0 0 0 0 1.23h8.211l-.843 1.688a6.567 6.567 0 0 1-2.563 2.742c-.453-.222-1.016-.399-1.846-.399-1.242 0-1.889.398-2.459.749-.514.316-.92.566-1.815.566-.894 0-1.3-.25-1.814-.566-.57-.351-1.217-.749-2.46-.749-1.243 0-1.89.398-2.46.749-.513.316-.919.566-1.811.566-.893 0-1.298-.25-1.812-.566-.57-.351-1.217-.749-2.46-.749-1.242 0-1.889.398-2.459.749-.514.316-.92.566-1.815.566-.894 0-1.3-.25-1.814-.566-.57-.351-1.217-.749-2.46-.749-1.243 0-1.89.398-2.46.749-.273.168-.516.317-.82.42l-3.355-7.83h5.685ZM41.98 31.154a.615.615 0 0 0-.753-.437c-.559.148-.958.393-1.31.61-.514.316-.92.566-1.82.566-.895 0-1.3-.25-1.815-.566-.57-.351-1.217-.749-2.46-.749-1.242 0-1.889.398-2.459.749-.514.316-.92.566-1.815.566-.894 0-1.3-.25-1.814-.566-.57-.351-1.217-.749-2.46-.749-1.242 0-1.889.398-2.46.749-.513.316-.919.566-1.811.566-.892 0-1.298-.25-1.812-.566-.57-.351-1.217-.749-2.46-.749-1.242 0-1.889.398-2.459.749-.514.316-.92.566-1.815.566-.894 0-1.3-.25-1.814-.566-.57-.351-1.217-.749-2.46-.749-1.242 0-1.889.398-2.46.749-.513.316-.92.566-1.82.566-.894 0-1.3-.25-1.815-.566-.352-.217-.75-.462-1.309-.61a.615.615 0 1 0-.315 1.189c.383.102.66.272.98.469.57.35 1.216.749 2.465.749 1.243 0 1.89-.398 2.46-.75.514-.316.92-.565 1.814-.565.895 0 1.3.25 1.815.566.57.35 1.217.749 2.46.749 1.242 0 1.889-.398 2.46-.75.513-.316.92-.565 1.814-.565s1.3.25 1.814.566c.57.35 1.214.747 2.451.749h.012c1.237-.002 1.882-.399 2.45-.75.515-.316.92-.565 1.815-.565.895 0 1.3.25 1.815.566.57.35 1.217.749 2.46.749 1.242 0 1.889-.398 2.46-.75.513-.316.92-.565 1.814-.565s1.3.25 1.815.566c.57.35 1.216.749 2.465.749 1.243 0 1.89-.398 2.46-.75.32-.196.596-.366.98-.468a.615.615 0 0 0 .436-.752Z"/><path d="M7.19 12.738h1.316a.615.615 0 0 0 0-1.23H7.19a.615.615 0 0 0 0 1.23Zm1.316 5.26a.615.615 0 1 0 0-1.23H7.19a.615.615 0 1 0 0 1.23h1.316Zm3.946 0a.615.615 0 1 0 0-1.23h-1.315a.615.615 0 1 0 0 1.23h1.315ZM11.8 25.89a.615.615 0 0 0 0-1.23h-.006a.612.612 0 0 0-.612.615c0 .34.278.616.618.616Zm5.254 0a.615.615 0 0 0 0-1.23h-.006a.612.612 0 0 0-.612.615c0 .34.278.616.618.616Zm5.268 0a.615.615 0 1 0 0-1.23h-.007a.612.612 0 0 0-.612.615c0 .34.279.616.619.616Zm-7.891 0a.615.615 0 1 0 0-1.23h-.006a.612.612 0 0 0-.613.615c0 .34.28.616.619.616Zm5.254 0a.615.615 0 1 0 0-1.23h-.007a.612.612 0 0 0-.612.615c0 .34.28.616.619.616Zm5.266 0a.615.615 0 1 0 0-1.23h-.006a.612.612 0 0 0-.612.615c0 .34.279.616.619.616Z"/></g><defs><clipPath id="a"><path fill="#fff" d="M0 0h42v42H0z"/></clipPath></defs></svg>