<svg width="60" height="60" fill="none" xmlns="http://www.w3.org/2000/svg"><path d="M59 46a5.568 5.568 0 0 1-3.145-.876 8.074 8.074 0 0 0-8.22 0 6.077 6.077 0 0 1-6.284 0 8.071 8.071 0 0 0-8.218 0 6.073 6.073 0 0 1-6.283 0A7.496 7.496 0 0 0 22.74 44a7.496 7.496 0 0 0-4.106 1.124c-.936.6-2.03.905-3.141.876a5.555 5.555 0 0 1-3.14-.875A7.49 7.49 0 0 0 8.247 44a7.493 7.493 0 0 0-4.106 1.124c-.935.6-2.03.905-3.141.876a1 1 0 0 0 0 2c1.45.03 2.876-.36 4.107-1.125A5.563 5.563 0 0 1 8.247 46a5.553 5.553 0 0 1 3.141.876A7.487 7.487 0 0 0 15.494 48a7.488 7.488 0 0 0 4.106-1.125A5.54 5.54 0 0 1 22.741 46a5.561 5.561 0 0 1 3.142.876 8.072 8.072 0 0 0 8.217 0 6.072 6.072 0 0 1 6.283 0 8.072 8.072 0 0 0 8.218 0 6.084 6.084 0 0 1 6.29 0A7.497 7.497 0 0 0 58.999 48a1 1 0 1 0 0-2Z" fill="#000"/><path d="M0 43a1 1 0 0 0 1 1 7.433 7.433 0 0 0 4.1-1.124A5.598 5.598 0 0 1 8.25 42a5.597 5.597 0 0 1 3.154.885A7.474 7.474 0 0 0 15.49 44a7.525 7.525 0 0 0 4.116-1.126A5.502 5.502 0 0 1 22.74 42a5.61 5.61 0 0 1 3.164.885 8.065 8.065 0 0 0 8.2-.011A5.5 5.5 0 0 1 37.24 42a5.61 5.61 0 0 1 3.163.885 8.064 8.064 0 0 0 8.2-.009A5.602 5.602 0 0 1 51.75 42c.216 0 .417.008.619.027.896.075 1.76.367 2.519.85A7.504 7.504 0 0 0 58.999 44a1 1 0 1 0 0-2 5.558 5.558 0 0 1-3.145-.875 8.777 8.777 0 0 0-1.91-.84l5.95-11.836a1 1 0 0 0-.895-1.45h-5V13a1 1 0 0 0-1-1H17a1 1 0 0 0-1 1v17h-2V15a1 1 0 0 0-1-1H5a1 1 0 0 0-.988.848L2.142 27H1a1 1 0 0 0-1 1v9c0 .181.05.36.143.515L2.7 41.777A5.786 5.786 0 0 1 1 42a1 1 0 0 0-1 1Zm47-16a1 1 0 0 0-.6.2L42.667 30H42v-4h10v1h-5Zm-17 3v-4h10v4H30ZM18 20h10v4H18v-4Zm34 4H42v-4h10v4Zm-12 0H30v-4h10v4Zm12-6H42v-4h10v4Zm-12 0H30v-4h10v4Zm-22-4h10v4H18v-4Zm0 12h10v4H18v-4ZM5.858 16H12v12.586l-1.293-1.293A1 1 0 0 0 10 27H4.166l1.692-11ZM2 29h7.586l2.707 2.707A.998.998 0 0 0 13 32h30a1 1 0 0 0 .6-.2l3.733-2.8h10.044l-5.53 11h-.1a7.521 7.521 0 0 0-4.111 1.124 6.077 6.077 0 0 1-6.3-.009 8.063 8.063 0 0 0-8.2.009 6.077 6.077 0 0 1-6.3-.009A7.493 7.493 0 0 0 22.74 40a7.427 7.427 0 0 0-4.1 1.124 5.604 5.604 0 0 1-3.15.876 5.593 5.593 0 0 1-3.153-.885A7.48 7.48 0 0 0 8.25 40c-.244 0-.471.01-.689.025-.073.005-.14.014-.211.021a9.15 9.15 0 0 0-.407.047 7.166 7.166 0 0 0-.223.04 6.13 6.13 0 0 0-.841.202 6.055 6.055 0 0 0-.467.165c-.048.019-.1.037-.145.057a7.364 7.364 0 0 0-.322.145l-.068.031a11.94 11.94 0 0 0-.364.185L2 36.723V29Z" fill="#000"/><path d="M9 17H8a1 1 0 0 0 0 2h1a1 1 0 1 0 0-2Zm0 19h1a1 1 0 1 0 0-2H9a1 1 0 0 0 0 2Zm5 0h1a1 1 0 1 0 0-2h-1a1 1 0 0 0 0 2Zm5 0h1a1 1 0 1 0 0-2h-1a1 1 0 1 0 0 2Zm5 0h1a1 1 0 1 0 0-2h-1a1 1 0 1 0 0 2Zm5 0h1a1 1 0 1 0 0-2h-1a1 1 0 0 0 0 2Zm5 0h1a1 1 0 1 0 0-2h-1a1 1 0 0 0 0 2Zm5 0h1a1 1 0 1 0 0-2h-1a1 1 0 0 0 0 2Zm5 0h1a1 1 0 1 0 0-2h-1a1 1 0 0 0 0 2Zm5 0h1a1 1 0 1 0 0-2h-1a1 1 0 0 0 0 2Z" fill="#000"/></svg>