<svg width="36" height="36" fill="none" xmlns="http://www.w3.org/2000/svg"><path d="m25.755 15.186-8.78 7.72A1.487 1.487 0 0 0 16.5 24c0 .826.672 1.5 1.5 1.5.398 0 .775-.156 1.094-.475l7.72-8.78a.75.75 0 0 0-1.06-1.059Z" fill="#fff"/><path d="M18 6C8.074 6 0 14.075 0 24c0 1.862.289 3.705.855 5.479.1.31.389.521.715.521h32.86a.75.75 0 0 0 .715-.521C35.71 27.704 36 25.861 36 24c0-9.925-8.074-18-18-18Zm14.25 18.75h2.198c-.058 1.268-.228 2.527-.575 3.75H2.127c-.347-1.223-.517-2.482-.575-3.75H3.75a.75.75 0 1 0 0-1.5H1.538c.111-2.455.75-4.772 1.824-6.835l1.922 1.11a.75.75 0 0 0 .75-1.3l-1.917-1.107a16.609 16.609 0 0 1 5.002-5.002l1.107 1.918a.748.748 0 1 0 1.298-.75l-1.11-1.921a16.372 16.372 0 0 1 6.836-1.825V9.75a.75.75 0 1 0 1.5 0V7.538c2.455.111 4.772.75 6.835 1.825l-1.109 1.921a.75.75 0 1 0 1.298.75l1.107-1.918a16.607 16.607 0 0 1 5.002 5.002l-1.917 1.107a.75.75 0 1 0 .75 1.3l1.921-1.11a16.372 16.372 0 0 1 1.825 6.835H32.25a.75.75 0 1 0 0 1.5Z" fill="#fff"/></svg>