<svg width="20" height="20" fill="none" xmlns="http://www.w3.org/2000/svg"><path d="M10 12.344a.586.586 0 1 0 0-1.172.586.586 0 0 0 0 1.172Z" fill="#000"/><path d="M10 1.797c-5.493 0-10 4.468-10 9.96 0 3.936 2.328 6.318 2.4 6.446h15.2c.084-.149 2.4-2.483 2.4-6.445 0-5.493-4.507-9.961-10-9.961Zm2.93 14.062H7.07v-1.171h5.86v1.171Zm-1.172-4.101A1.76 1.76 0 0 1 10 13.516a1.76 1.76 0 0 1-1.758-1.758c0-.763.492-1.407 1.172-1.65V7.656h1.172v2.452c.68.243 1.172.887 1.172 1.65Zm4.837 3.809-.293.506-2.028-1.17.586-1.016.991.573a6.438 6.438 0 0 0 .562-2.116h-1.14v-1.172h1.143a6.384 6.384 0 0 0-.57-2.112l-.986.569-.586-1.015.985-.57A6.493 6.493 0 0 0 13.713 6.5l-.569.985-1.015-.586.57-.986a6.382 6.382 0 0 0-2.113-.57v1.142H9.414V5.342a6.384 6.384 0 0 0-2.112.57l.569.986-1.015.586-.57-.985a6.499 6.499 0 0 0-1.545 1.546l.985.569-.586 1.015-.986-.57a6.382 6.382 0 0 0-.57 2.113h1.143v1.172h-1.14c.067.733.254 1.45.562 2.116l.991-.573.586 1.015-2.028 1.17-.293-.505a7.608 7.608 0 0 1-1.022-3.81c0-4.2 3.417-7.616 7.617-7.616s7.617 3.417 7.617 7.617a7.607 7.607 0 0 1-1.022 3.809Z" fill="#000"/></svg>