<svg width="18" height="18" fill="none" xmlns="http://www.w3.org/2000/svg"><path d="M9 0C4.044 0 0 4.045 0 9c0 4.956 4.045 9 9 9 4.956 0 9-4.045 9-9 0-4.956-4.045-9-9-9Zm0 2.145c3.421 0 6.265 2.52 6.774 5.8h-1.829c-1.159 0-2.26-.465-3.022-1.276a2.639 2.639 0 0 0-3.846 0c-.761.811-1.863 1.276-3.023 1.276H2.226c.508-3.28 3.352-5.8 6.774-5.8Zm0 8.964c-.872 0-1.582-.71-1.582-1.582 0-.872.71-1.582 1.582-1.582.872 0 1.582.71 1.582 1.582 0 .873-.71 1.582-1.582 1.582Zm-6.384.39c.604-.236 1.04-.39 1.638-.39a3.167 3.167 0 0 1 3.128 3.639h-.001c-.043.294-.128.58-.25.849a6.887 6.887 0 0 1-4.515-4.098Zm8.253 4.097a3.145 3.145 0 0 1-.25-.848h-.001c-.338-2.243 1.733-4.094 3.88-3.549.226.058.509.153.886.3a6.887 6.887 0 0 1-4.515 4.097Z" fill="#000"/></svg>