<svg width="40" height="40" fill="none" xmlns="http://www.w3.org/2000/svg"><path d="M40 30.098V19.961c0-.936-.254-1.854-.736-2.656l-2.627-4.379a2.714 2.714 0 0 0-1.065-1.002C33.717 5.064 27.439 0 20 0 12.56 0 6.283 5.063 4.428 11.924c-.438.23-.81.576-1.065 1.002l-2.628 4.38A5.162 5.162 0 0 0 0 19.96v10.138c0 .66.124 1.304.37 1.917l.613 1.533H0V40h11.613v-6.452h-1.29l.258-.344a5.193 5.193 0 0 0 1.032-3.097v-.198A16.012 16.012 0 0 0 20 32.258c2.99 0 5.865-.809 8.387-2.35v.2c0 1.109.367 2.209 1.032 3.096l.258.344h-1.29V40H40v-6.452h-.983l.614-1.533A5.139 5.139 0 0 0 40 30.098ZM20 1.29c8.182 0 14.839 6.657 14.839 14.839 0 .974-.094 1.934-.278 2.873a1.942 1.942 0 0 0-1.16-.872c.097-.66.147-1.33.147-2.001 0-7.47-6.077-13.548-13.548-13.548-7.47 0-13.548 6.077-13.548 13.548 0 .67.05 1.34.147 2-.49.131-.904.449-1.16.873a14.914 14.914 0 0 1-.278-2.873C5.161 7.947 11.818 1.29 20 1.29Zm8.387 21.29v2.487a12.343 12.343 0 0 1-4.304 2.624.633.633 0 0 1-.583-.082.64.64 0 0 1-.274-.529v-3.854h1.043l.191-.381a4.59 4.59 0 0 1 3.613-2.52l.984-.109a4.49 4.49 0 0 0-.67 2.365Zm2.117-3.823-2.574.286a5.874 5.874 0 0 0-4.445 2.893h-6.973a5.867 5.867 0 0 0-4.477-2.873l-2.457-.253a4.487 4.487 0 0 0-1.671-.671 12.375 12.375 0 0 1-.165-2.01c0-1.594.306-3.118.862-4.516h22.792c.556 1.398.862 2.922.862 4.516 0 .675-.056 1.348-.165 2.01a4.481 4.481 0 0 0-1.589.618Zm-19.54 1.492.938.097a4.586 4.586 0 0 1 3.65 2.523l.178.357h1.044v3.855a.64.64 0 0 1-.274.528.633.633 0 0 1-.583.082 12.34 12.34 0 0 1-4.304-2.623V22.58a4.49 4.49 0 0 0-.65-2.331Zm-3.867-.894c.22 0 .436.022.645.065v1.87a1.94 1.94 0 0 1-1.29 1.825V20c0-.356.289-.645.645-.645Zm2.11-9.032C11.28 6.485 15.34 3.87 20 3.87c4.66 0 8.72 2.613 10.793 6.452H9.207Zm23.051 9.097c.209-.043.424-.065.645-.065.356 0 .645.29.645.645v3.115a1.939 1.939 0 0 1-1.29-1.825v-1.87ZM10.323 38.71H1.29v-3.871h9.033v3.87Zm0-8.602c0 .832-.275 1.657-.775 2.322l-.838 1.118H2.372l-.805-2.012a3.857 3.857 0 0 1-.277-1.438V19.961c0-.702.191-1.39.552-1.992l2.117-3.529a16.253 16.253 0 0 0-.088 1.689c0 2.197.435 4.325 1.29 6.328v2.815a3.736 3.736 0 0 1-1.101 2.659l.912.912a5.018 5.018 0 0 0 1.48-3.571v-.82a3.231 3.231 0 0 0 2.58-3.162v-1.288a3.223 3.223 0 0 1 1.29 2.579v7.527Zm9.677.86c-3.02 0-5.913-.897-8.387-2.596v-1.604a13.622 13.622 0 0 0 3.875 2.14 1.925 1.925 0 0 0 1.758-.245 1.94 1.94 0 0 0 .819-1.582v-3.855h3.87v3.855a1.94 1.94 0 0 0 1.936 1.936c.216 0 .433-.036.642-.11a13.62 13.62 0 0 0 3.874-2.139v1.604A14.73 14.73 0 0 1 20 30.968Zm18.71 7.742h-9.033v-3.871h9.033v3.87Zm-7.42-5.162-.838-1.118a3.896 3.896 0 0 1-.775-2.322V22.58c0-1.053.508-1.99 1.29-2.58v1.29a3.231 3.231 0 0 0 2.581 3.16v.82c0 1.35.526 2.618 1.48 3.572l.912-.912a3.735 3.735 0 0 1-1.101-2.66v-2.814a16.017 16.017 0 0 0 1.29-6.328c0-.57-.03-1.134-.088-1.689l2.117 3.529c.36.601.552 1.29.552 1.991v10.138c0 .495-.093.978-.277 1.438l-.805 2.012H31.29Z" fill="#fff"/><path d="M20 12.902a3.875 3.875 0 0 0-3.871 3.871 3.875 3.875 0 0 0 3.87 3.871 3.875 3.875 0 0 0 3.872-3.87A3.875 3.875 0 0 0 20 12.901Zm0 6.452a2.584 2.584 0 0 1-2.58-2.58A2.584 2.584 0 0 1 20 14.192a2.584 2.584 0 0 1 2.58 2.58A2.584 2.584 0 0 1 20 19.354Zm9.678-6.452h-2.581c-.712 0-1.29.58-1.29 1.29v1.291c0 .712.579 1.29 1.29 1.29h2.58c.712 0 1.29-.579 1.29-1.29v-1.29a1.29 1.29 0 0 0-1.29-1.29Zm0 2.581h-2.581v-1.29h2.58l.001 1.29Zm-16.129-2.581h-2.581c-.711 0-1.29.58-1.29 1.29v1.291c0 .712.579 1.29 1.29 1.29h2.58c.712 0 1.291-.579 1.291-1.29v-1.29c0-.712-.579-1.29-1.29-1.29Zm0 2.581h-2.581v-1.29h2.58l.002 1.29h-.001Z" fill="#fff"/></svg>