<svg width="62" height="62" fill="none" xmlns="http://www.w3.org/2000/svg"><path d="M57.025 4.512h-7.924a.908.908 0 0 0 0 1.816h7.924a.908.908 0 0 0 0-1.816ZM44.6 6.328h.967a.908.908 0 0 0 0-1.816H44.6a.908.908 0 0 0 0 1.816Zm0 4.266h12.425a.908.908 0 0 0 0-1.817H44.601a.908.908 0 0 0 0 1.817Zm3.286 43.185a16.59 16.59 0 0 0-3.418-10.063l.169-3.1a3.694 3.694 0 0 0-3.691-3.896h-9.941a1.732 1.732 0 0 1-.735-1.416V32.77c1.541-.997 2.623-2.134 3.418-3.487h1.758a3.692 3.692 0 0 0 3.687-3.687v-6.783a2.926 2.926 0 0 0-1.651-2.634v-4.76a3.935 3.935 0 0 0-3.93-3.93h-.102a.112.112 0 0 1-.113-.112 3.935 3.935 0 0 0-3.93-3.93H19.79c-4.775 0-8.659 3.884-8.659 8.658v4.074a2.926 2.926 0 0 0-1.651 2.634v3.45a2.93 2.93 0 0 0 2.927 2.926h1.172c.304 2.567 1.508 4.911 3.393 6.54.443.383.9.725 1.371 1.03v2.546c0 .566-.278 1.09-.738 1.415H7.666a3.693 3.693 0 0 0-3.69 3.897l.168 3.1A16.588 16.588 0 0 0 .727 53.78v3.42A2.85 2.85 0 0 0 0 59.103a2.864 2.864 0 0 0 2.861 2.861h42.89a2.864 2.864 0 0 0 2.861-2.86c0-.73-.275-1.397-.726-1.903V53.78Zm-1.817 0v2.48a2.88 2.88 0 0 0-.318-.018H43.79l.512-9.444a14.758 14.758 0 0 1 1.768 6.982Zm-8.845-35.41c.06.136.093.286.093.443v3.45c0 .612-.498 1.11-1.11 1.11h-1.08v-3.424l.56-.195a2.676 2.676 0 0 0 1.537-1.384ZM31.16 28.89h-2.279a.667.667 0 0 1 0-1.332h2.28a.667.667 0 0 1 0 1.332Zm4.286-1.425h-.918c.256-.73.432-1.493.526-2.277h1.152a2.91 2.91 0 0 0 1.111-.22v.626c0 1.032-.84 1.87-1.87 1.87Zm-22.5-15.362a6.85 6.85 0 0 1 6.843-6.842h9.618c1.166 0 2.114.948 2.114 2.114 0 1.063.866 1.929 1.93 1.929h.1c1.166 0 2.115.948 2.115 2.113v5.808a.86.86 0 0 1-.577.812l-1.909.665a.117.117 0 0 1-.156-.111l.003-3.61c.011-2.633-2.455-4.93-5.91-3.82-1.738.558-3.89.556-5.621 0-3.42-1.1-5.922 1.157-5.911 3.818l.004 3.612a.117.117 0 0 1-.156.111l-1.91-.665a.86.86 0 0 1-.576-.812v-5.122Zm-1.65 10.158v-3.45c0-.157.033-.307.093-.444.3.636.845 1.144 1.538 1.386l.56.194v3.424h-1.08a1.112 1.112 0 0 1-1.112-1.11Zm4.023 1.878c-.03-1.195-.011-2.462-.017-3.622a1.934 1.934 0 0 0 2.103-1.929l-.004-3.614c-.006-1.475 1.317-2.799 3.539-2.085 2.106.677 4.633.675 6.732 0 2.117-.68 3.546.518 3.539 2.088l-.004 3.611a1.934 1.934 0 0 0 2.103 1.929v3.695a8.958 8.958 0 0 1-.375 2.28 2.474 2.474 0 0 0-1.775-.75h-2.279a2.486 2.486 0 0 0-2.483 2.482 2.486 2.486 0 0 0 2.483 2.483h1.154c-1.678 1.309-3.585 1.992-5.681 2.026-4.585-.036-8.904-3.424-9.035-8.595Zm4.84 11.165v-1.59a11.07 11.07 0 0 0 4.192.836h.021a11.083 11.083 0 0 0 4.082-.828v1.581c0 .496.103.976.294 1.416h-8.885c.192-.44.296-.92.296-1.415ZM4.311 46.797l.144 2.643a.908.908 0 1 0 1.813-.099l-.479-8.823a1.878 1.878 0 0 1 1.877-1.982h33.28c1.076 0 1.936.9 1.877 1.982l-.853 15.724H27.728a5.579 5.579 0 0 1 1.36-2.813l.026-.03c2.75-3.075 1.927-7.884-1.627-9.903-.911-.518-2.07.128-2.07 1.202v4.12a.343.343 0 0 1-.342.343h-1.537a.343.343 0 0 1-.343-.343v-4.12c0-1.072-1.156-1.721-2.07-1.202-3.564 2.024-4.37 6.836-1.624 9.907l.023.026c.72.8 1.187 1.775 1.36 2.812H6.643l-.146-2.685a.908.908 0 1 0-1.814.099l.14 2.586H2.862a3.05 3.05 0 0 0-.318.018v-2.48c0-2.441.619-4.847 1.768-6.982Zm18.409 9.444a7.384 7.384 0 0 0-1.846-4.027l-.022-.025a4.632 4.632 0 0 1 .527-6.672v3.301c0 1.19.968 2.16 2.159 2.16h1.537c1.19 0 2.159-.97 2.159-2.16v-3.301a4.633 4.633 0 0 1 .524 6.675l-.02.022a7.384 7.384 0 0 0-1.845 4.027h-3.174Zm23.031 3.906H2.861a1.046 1.046 0 0 1 0-2.09h42.89a1.046 1.046 0 0 1 0 2.09Z" fill="#000"/><path d="M61.092 6.254A.908.908 0 0 0 62 5.346V3.588A3.553 3.553 0 0 0 58.45.04H43.175a3.553 3.553 0 0 0-3.549 3.55v7.639a3.553 3.553 0 0 0 3.55 3.55c.35 0 .634.284.634.634v4.724c0 .683.441 1.263 1.1 1.445a1.485 1.485 0 0 0 1.685-.674l3.491-5.821a.638.638 0 0 1 .544-.309h7.82A3.554 3.554 0 0 0 62 11.229V9.592a.908.908 0 1 0-1.816 0v1.636c0 .956-.778 1.733-1.733 1.733h-7.82c-.857 0-1.662.456-2.102 1.19l-2.903 4.84v-3.58c0-1.35-1.1-2.45-2.45-2.45a1.735 1.735 0 0 1-1.734-1.733v-7.64c0-.955.778-1.733 1.733-1.733H58.45c.956 0 1.733.778 1.733 1.733v1.758c0 .502.407.908.909.908Z" fill="#000"/></svg>