<svg width="33" height="36" fill="none" xmlns="http://www.w3.org/2000/svg"><g clip-path="url(#a)" fill="#fff"><path d="M10.601 21a1.2 1.2 0 0 1 1.2 1.2.6.6 0 1 0 1.2 0 2.4 2.4 0 0 0-1.8-2.315V19.2a.6.6 0 0 0-1.2 0v.685a2.395 2.395 0 0 0 .6 4.714 1.2 1.2 0 1 1-1.2 1.2.6.6 0 0 0-1.2 0 2.4 2.4 0 0 0 1.8 2.315v.685a.6.6 0 0 0 1.2 0v-.683a2.395 2.395 0 0 0-.6-4.716 1.2 1.2 0 0 1 0-2.4Zm1.8-6h-3.6a.6.6 0 0 0 0 1.2h3.6a.6.6 0 0 0 0-1.2Zm0 16.8h-3.6a.6.6 0 0 0 0 1.2h3.6a.6.6 0 0 0 0-1.2Z"/><path d="M31.476 23.1 22.668 7.845a10.106 10.106 0 0 0 1.429-1.78c1-1.62 1.179-3.158.503-4.329-1.346-2.331-5.596-2.312-9.675.043a14.85 14.85 0 0 0-1.56 1.051l-.484-.55a3.045 3.045 0 0 0-2.28-1.029c-.872 0-1.703.376-2.28 1.03L1.76 9.713A3.039 3.039 0 0 0 1 11.726V30.6A5.406 5.406 0 0 0 6.4 36h8.4a5.406 5.406 0 0 0 5.4-5.4V11.726a3.032 3.032 0 0 0-.48-1.63h.004c.718-.415 1.399-.89 2.036-1.42L30.437 23.7a4.2 4.2 0 0 1-1.537 5.74l-7.274 4.2c-.32.182-.663.322-1.02.415a.6.6 0 0 0 .309 1.16 5.441 5.441 0 0 0 1.308-.536l7.274-4.2a5.4 5.4 0 0 0 1.98-7.378Zm-12.475 7.5a4.205 4.205 0 0 1-4.2 4.2H6.4a4.205 4.205 0 0 1-4.2-4.2V11.726c0-.449.164-.882.46-1.219l6.56-7.432a1.84 1.84 0 0 1 2.76 0l5.851 6.632a9.932 9.932 0 0 1-4.278.949 2.96 2.96 0 0 0 .047-.455 3.003 3.003 0 0 0-3-3 .585.585 0 0 0-.193.039.593.593 0 0 0-.65.458c-.214.82-.11 1.69.293 2.436a3.25 3.25 0 0 0 1.75 1.402 1.792 1.792 0 0 1-3-1.335.6.6 0 0 0-1.2 0 2.996 2.996 0 0 0 5.516 1.623c.236.025.473.038.71.04a11.572 11.572 0 0 0 4.82-1.214c.228.312.352.689.354 1.076V30.6Zm-6.6-20.4a1.776 1.776 0 0 1-.027.263 2.181 2.181 0 0 1-1.284-.93 1.925 1.925 0 0 1-.228-1.106 1.8 1.8 0 0 1 1.539 1.774Zm6.724-1.149c-.06.035-.12.065-.18.098l-4.782-5.42a13.6 13.6 0 0 1 1.362-.908c3.38-1.953 7.06-2.173 8.035-.48.446.77.274 1.872-.484 3.099a8.59 8.59 0 0 1-1.032 1.33l-.006-.011a3.04 3.04 0 0 0-1.665-1.363l-2.35-.794a.6.6 0 0 0-.382 1.137l2.35.79c.425.143.783.437 1.008.825l.152.265a13.37 13.37 0 0 1-2.026 1.434V9.05Z"/><path d="M21.48 24.185a.6.6 0 0 0 .82.22l4.157-2.4a.6.6 0 1 0-.6-1.04l-4.157 2.4a.6.6 0 0 0-.22.82Zm.76 3.715a.6.6 0 0 0 .82.22l5.196-3a.6.6 0 1 0-.6-1.04l-5.196 3a.6.6 0 0 0-.22.82Zm.34-7.213a.6.6 0 0 0 .3-.08l2.078-1.2a.6.6 0 1 0-.6-1.04l-2.079 1.2a.6.6 0 0 0 .3 1.12Z"/></g><defs><clipPath id="a"><path fill="#fff" d="M0 0h33v36H0z"/></clipPath></defs></svg>