<svg width="60" height="60" fill="none" xmlns="http://www.w3.org/2000/svg"><g clip-path="url(#a)" fill="#fff"><path d="M59.884 32.772a23.717 23.717 0 0 0-6.816-14.384 23.532 23.532 0 0 0-11.576-6.357V9.054a3.991 3.991 0 0 0 3.022-3.866 3.989 3.989 0 0 0-3.984-3.985h-8.438a3.989 3.989 0 0 0-3.984 3.985 3.991 3.991 0 0 0 3.022 3.866v2.986a23.53 23.53 0 0 0-11.54 6.348c-.72.72-1.383 1.474-1.99 2.258-.03-.002-.059-.005-.089-.005h-8.35a1.172 1.172 0 0 0 0 2.344h6.845a23.492 23.492 0 0 0-2.08 4.505H1.172a1.172 1.172 0 0 0 0 2.343h12.092a23.828 23.828 0 0 0-.582 4.505H7.5a1.172 1.172 0 0 0 0 2.344h5.22c.099 1.517.342 3.025.731 4.504H5.86a1.172 1.172 0 0 0 0 2.344h8.34a23.533 23.533 0 0 0 5.391 8.336 23.716 23.716 0 0 0 14.399 6.818 23.73 23.73 0 0 0 15.24-3.704 1.172 1.172 0 0 0-1.279-1.964c-8.386 5.46-19.616 4.28-26.704-2.808-8.316-8.316-8.316-21.847 0-30.163 8.316-8.316 21.847-8.316 30.163 0 7.078 7.078 8.266 18.3 2.823 26.681a1.172 1.172 0 0 0 1.966 1.277 23.748 23.748 0 0 0 3.685-15.231ZM30.451 5.188c0-.905.736-1.641 1.641-1.641h8.438c.904 0 1.64.736 1.64 1.64 0 .905-.736 1.641-1.64 1.641h-8.438c-.904 0-1.64-.736-1.64-1.64Zm3.023 6.449V9.172h5.674v2.46a23.88 23.88 0 0 0-5.674.005Z"/><path d="M52.24 49.867a1.176 1.176 0 0 0-1.172 1.172 1.176 1.176 0 0 0 1.171 1.172c.309 0 .61-.124.829-.343a1.18 1.18 0 0 0 .343-.829c0-.308-.125-.61-.343-.828a1.183 1.183 0 0 0-.829-.344ZM36.329 16.945c-10.024 0-18.18 8.155-18.18 18.18 0 10.024 8.156 18.18 18.18 18.18s18.18-8.156 18.18-18.18-8.156-18.18-18.18-18.18Zm0 34.015c-8.732 0-15.836-7.104-15.836-15.835 0-8.732 7.104-15.836 15.836-15.836s15.836 7.104 15.836 15.836c0 8.731-7.104 15.835-15.836 15.835Z"/><path d="m43.742 26.054-5.804 5.804a3.62 3.62 0 0 0-1.609-.375 3.62 3.62 0 0 0-1.609.375l-2.597-2.597a1.172 1.172 0 0 0-1.658 1.657l2.598 2.598a3.618 3.618 0 0 0-.376 1.608 3.646 3.646 0 0 0 3.642 3.642 3.646 3.646 0 0 0 3.642-3.642 3.62 3.62 0 0 0-.376-1.608l5.634-5.634.17-.17a1.172 1.172 0 0 0-1.657-1.658Zm-7.413 10.368a1.3 1.3 0 0 1-1.298-1.298 1.3 1.3 0 0 1 1.298-1.297 1.3 1.3 0 0 1 1.298 1.297 1.3 1.3 0 0 1-1.298 1.298Zm12.529-2.453h-1.085a1.172 1.172 0 0 0 0 2.343h1.085a1.172 1.172 0 0 0 0-2.343Zm-23.974-.031H23.8a1.172 1.172 0 0 0 0 2.343h1.085a1.172 1.172 0 0 0 0-2.343Zm11.459-9.083c.647 0 1.172-.524 1.172-1.172v-1.085a1.172 1.172 0 1 0-2.344 0v1.085c0 .648.525 1.172 1.172 1.172Zm-.028 20.543c-.648 0-1.172.525-1.172 1.172v1.086a1.172 1.172 0 1 0 2.343 0V46.57c0-.647-.524-1.172-1.171-1.172ZM1.172 41.184c-.308 0-.61.125-.829.343a1.18 1.18 0 0 0-.343.828c0 .31.125.611.343.829.218.218.52.343.829.343.308 0 .61-.125.828-.343a1.18 1.18 0 0 0 .344-.828c0-.309-.126-.611-.344-.829a1.18 1.18 0 0 0-.828-.343Z"/></g><defs><clipPath id="a"><path fill="#fff" d="M0 0h60v60H0z"/></clipPath></defs></svg>