<svg width="16" height="16" fill="none" xmlns="http://www.w3.org/2000/svg"><path d="M13.823 10.579a2.327 2.327 0 0 0-1.665-.694h-.002c-.63 0-1.222.248-1.665.697l-.95.96a9.451 9.451 0 0 1-5.054-5.056l.969-.981a2.347 2.347 0 0 0-.018-3.312L3.224 0h-.193A3.035 3.035 0 0 0 0 3.031a12.925 12.925 0 0 0 3.798 9.17A12.924 12.924 0 0 0 12.968 16 3.035 3.035 0 0 0 16 12.969v-.193l-2.177-2.197Zm-.854 4.483C6.335 15.063.937 9.665.937 3.033c0-1.093.841-1.993 1.91-2.086l1.93 1.913c.55.545.556 1.436.012 1.987L3.392 6.26l.108.282a10.387 10.387 0 0 0 5.91 5.959l.363.142 1.385-1.403a1.4 1.4 0 0 1 1-.418c.379 0 .733.148 1 .417l1.896 1.914a2.097 2.097 0 0 1-2.085 1.91Zm.688-12.719A7.948 7.948 0 0 0 8 0v.938A7.07 7.07 0 0 1 15.063 8H16a7.948 7.948 0 0 0-2.343-5.657Z" fill="#000"/><path d="M8 2.813v.937A4.255 4.255 0 0 1 12.25 8h.938A5.193 5.193 0 0 0 8 2.812Z" fill="#000"/></svg>