<svg width="36" height="36" fill="none" xmlns="http://www.w3.org/2000/svg"><g clip-path="url(#a)" fill="#fff"><path d="M35.334 13.14a17.85 17.85 0 0 0-2.832-5.804l.543-.543a.814.814 0 0 0 .198-.838.814.814 0 0 0-.66-.551l-2.016-.288A17.9 17.9 0 0 0 18.252.002 17.966 17.966 0 0 0 6.357 4.296a.527.527 0 0 0 .683.803 16.928 16.928 0 0 1 11.197-4.043 16.839 16.839 0 0 1 10.447 3.79l-.522-.074a1.1 1.1 0 0 0-.942.314 1.1 1.1 0 0 0-.314.942l.084.584a14.386 14.386 0 0 0-9.304-3.116 14.366 14.366 0 0 0-8.26 2.815 14.552 14.552 0 0 0-4.969 6.502H1.872A17.058 17.058 0 0 1 5.34 6.762a.527.527 0 0 0-.788-.701 18.093 18.093 0 0 0-3.88 7.075A1.65 1.65 0 0 0 0 14.466v7.068c0 .542.262 1.024.666 1.326a17.832 17.832 0 0 0 2.832 5.804l-.543.543a.814.814 0 0 0-.198.838.814.814 0 0 0 .66.551l2.016.288A17.9 17.9 0 0 0 18.003 36c3.984 0 7.76-1.285 10.935-3.725a18.162 18.162 0 0 0 6.39-9.412c.407-.301.672-.785.672-1.329v-7.068a1.65 1.65 0 0 0-.666-1.325Zm-7.429 8.992a.527.527 0 1 0 0 1.055h2.5c-2.047 4.862-6.823 8.15-12.113 8.263a13.368 13.368 0 0 1-9.51-3.653l-.32-2.245a.814.814 0 0 0-.552-.66.814.814 0 0 0-.837.197l-.31.31a13.48 13.48 0 0 1-1.178-2.212h19.86a.527.527 0 1 0 0-1.055H1.651a.598.598 0 0 1-.597-.598v-7.068c0-.33.268-.598.597-.598h32.695c.33 0 .598.268.598.598v7.068c0 .33-.268.598-.598.598h-6.442Zm.061-16.3c.02-.02.04-.017.047-.016l3.953.565-.355.354a.823.823 0 0 0-.073 1.073 16.814 16.814 0 0 1 2.598 5.005H31.55a14.475 14.475 0 0 0-1.604-3.045.816.816 0 0 0-1.253-.114l-.178.177-.564-3.952a.052.052 0 0 1 .015-.047ZM17.708 4.55a13.368 13.368 0 0 1 9.51 3.653l.32 2.245a.814.814 0 0 0 .551.66.815.815 0 0 0 .838-.197l.31-.31c.461.7.855 1.44 1.178 2.212H5.595c2.047-4.862 6.823-8.151 12.113-8.263ZM4.612 28.388a16.804 16.804 0 0 1-2.748-5.201H4.45c.411 1.074.95 2.097 1.604 3.046a.817.817 0 0 0 1.253.113l.178-.177.564 3.952c.001.007.004.028-.015.047-.02.02-.04.017-.047.016l-3.953-.565.535-.535a.527.527 0 0 0 .043-.696Zm13.386 6.557-.236-.001a16.838 16.838 0 0 1-10.446-3.79l.522.074a1.099 1.099 0 0 0 .942-.314 1.1 1.1 0 0 0 .313-.942l-.083-.585a14.391 14.391 0 0 0 9.305 3.117 14.367 14.367 0 0 0 8.26-2.815 14.55 14.55 0 0 0 4.968-6.502h2.587a16.943 16.943 0 0 1-16.132 11.758Z"/><path d="M21.962 15.55a.63.63 0 0 0-.591-.406v-.001a.631.631 0 0 0-.586.393l-.005.012-1.75 4.594a.527.527 0 0 0 .986.375l.307-.804h2.083l.303.803a.527.527 0 1 0 .987-.373l-1.734-4.594Zm-1.238 3.108.645-1.693.639 1.693h-1.284Zm11.723-2.439a.527.527 0 1 0 0-1.055h-1.945a.527.527 0 0 0-.527.527v4.617c0 .292.236.528.527.528h1.945a.527.527 0 1 0 0-1.055H31.03v-1.254h1.275a.527.527 0 0 0 0-1.055H31.03V16.22h1.418ZM15.368 15.21h-1.28a.528.528 0 0 0-.527.53v4.446a.54.54 0 0 0 .01.107.527.527 0 0 0 .526.494h.002c.039 0 .951-.003 1.316-.01 1.337-.023 2.307-1.192 2.307-2.778 0-1.668-.946-2.788-2.354-2.788Zm.029 4.513c-.177.003-.497.005-.774.007-.002-.535-.005-1.338-.005-1.736 0-.332 0-1.172-.002-1.728h.752c.958 0 1.3.895 1.3 1.733 0 .847-.394 1.708-1.271 1.724Zm-8.607-4.58a.527.527 0 0 0-.527.527v3.203c0 .239-.067.547-.588.81a1.173 1.173 0 0 1-.53.119h-.002a1.04 1.04 0 0 1-.575-.163c-.405-.258-.488-.492-.488-.763V15.67a.527.527 0 1 0-1.055 0v3.206c0 .693.32 1.233.975 1.652.34.218.724.328 1.142.329h.003a2.2 2.2 0 0 0 1.004-.233c.966-.486 1.169-1.22 1.169-1.751V15.67a.527.527 0 0 0-.528-.527Zm21.315 0h-2.573a.527.527 0 1 0 0 1.054h.754v4.132a.527.527 0 1 0 1.055 0v-4.132h.764a.527.527 0 1 0 0-1.054Zm-17.687 0H9.12a.527.527 0 0 0-.527.527v4.66a.527.527 0 1 0 1.054 0v-1.5l.77-.003c1.03 0 1.868-.826 1.868-1.842s-.838-1.842-1.867-1.842Zm0 2.63c-.177 0-.49 0-.764.002a185.574 185.574 0 0 1-.005-1.578h.769c.44 0 .813.361.813.788 0 .427-.373.787-.813.787Z"/></g><defs><clipPath id="a"><path fill="#fff" d="M0 0h36v36H0z"/></clipPath></defs></svg>