<svg width="40" height="40" fill="none" xmlns="http://www.w3.org/2000/svg"><path d="M17.05 3.28c-7.605 0-13.77 6.165-13.77 13.77 0 7.605 6.165 13.77 13.77 13.77 7.605 0 13.77-6.165 13.77-13.77-.008-7.602-6.169-13.762-13.77-13.77Zm0 26.229c-6.881 0-12.46-5.578-12.46-12.46 0-6.88 5.579-12.458 12.46-12.458 6.88 0 12.459 5.578 12.459 12.459-.008 6.878-5.581 12.451-12.46 12.459Z" fill="#fff"/><path d="m25.37 13.829-.609-1.37h.813a.656.656 0 1 0 0-1.311h-1.396l-.938-2.111a1.967 1.967 0 0 0-1.798-1.168h-8.787c-.777 0-1.482.458-1.797 1.168l-.939 2.11H8.524a.656.656 0 0 0 0 1.312h.813l-.609 1.37a1.967 1.967 0 0 0-1.515 1.909v5.246c.003.83.528 1.57 1.311 1.846v.777c0 1.086.881 1.967 1.968 1.967h1.311c1.086 0 1.967-.88 1.967-1.967v-.656h6.558v.656c0 1.086.88 1.967 1.967 1.967h1.311c1.087 0 1.967-.88 1.967-1.967v-.776a1.967 1.967 0 0 0 1.312-1.847v-5.246a1.97 1.97 0 0 0-1.515-1.91Zm-10.944 5.188v-.656c0-.362.294-.656.656-.656h3.934c.362 0 .656.294.656.656v.656h-5.246Zm4.59-2.623h-3.934c-1.087 0-1.968.88-1.968 1.967v.656h-4.59v-3.279c0-.362.294-.656.656-.656h15.738c.362 0 .655.294.655.656v3.279h-4.59v-.656c0-1.087-.88-1.967-1.967-1.967Zm-6.96-6.824a.656.656 0 0 1 .6-.39h8.786c.26 0 .494.153.6.39l1.867 4.2h-13.72c.144-.323 1.647-3.709 1.867-4.2Zm.403 14.037a.656.656 0 0 1-.656.656h-1.311a.656.656 0 0 1-.656-.656v-.656h2.623v.656Zm11.803 0a.656.656 0 0 1-.656.656h-1.311a.656.656 0 0 1-.656-.656v-.656h2.623v.656Zm.656-1.967H9.18a.656.656 0 0 1-.656-.656v-.656h17.05v.656a.656.656 0 0 1-.656.656Z" fill="#fff"/><path d="M11.147 16.395h-.655a.656.656 0 1 0 0 1.311h.655a.656.656 0 1 0 0-1.311Zm11.803 1.311h.656a.656.656 0 1 0 0-1.311h-.655a.656.656 0 1 0 0 1.311Zm-9.179-5.246h.066l6.557-.656a.656.656 0 1 0-.13-1.305l-6.558.656a.657.657 0 0 0 .065 1.312v-.007Z" fill="#fff"/><path d="M34.033 30.505c1.617-1.943-1.172-4.366-2.894-2.644l-.251.252-.95-.95c5.367-6.835 4.482-16.667-2.019-22.433-6.5-5.767-16.368-5.472-22.513.671-6.145 6.144-6.442 16.012-.677 22.514 5.765 6.502 15.597 7.388 22.432 2.023l.951.95-.251.252a1.962 1.962 0 0 0 2.644 2.893l5.227 5.228a2.496 2.496 0 0 0 3.53-3.53l-5.229-5.226ZM1.968 17.049C1.968 8.72 8.72 1.968 17.05 1.968c8.33 0 15.082 6.752 15.082 15.081 0 8.33-6.753 15.083-15.082 15.083-8.326-.01-15.073-6.757-15.082-15.082Zm26.197 12.037c.319-.295.625-.602.918-.922l.876.876-.922.922-.872-.876Zm.622 2.98c1.038-1.032.172-.165 2.567-2.56l.712-.719a.656.656 0 0 1 .927.927l-3.279 3.28a.656.656 0 0 1-.927-.928Zm9.547 6.27a1.2 1.2 0 0 1-1.676 0l-5.216-5.217 1.677-1.676 5.217 5.218a1.17 1.17 0 0 1 0 1.674h-.002Z" fill="#fff"/></svg>