<svg width="24" height="23" viewBox="0 0 24 23" fill="none" xmlns="http://www.w3.org/2000/svg">
<g filter="url(#filter0_i_463_9048)">
<path fill-rule="evenodd" clip-rule="evenodd" d="M15.0546 22.1928C20.4667 21.3416 23.5246 18.0909 23.5246 11.4276C23.5246 4.76068 20.4667 1.50999 15.0546 0.658826C14.0575 0.50089 12.9783 0.423828 11.8249 0.423828C10.6713 0.423828 9.59195 0.50089 8.59486 0.658826C3.18676 1.50999 0.125 4.76068 0.125 11.4276C0.125 18.0909 3.18676 21.3416 8.59486 22.1928C9.59195 22.3507 10.6713 22.4239 11.8249 22.4239C12.9783 22.4239 14.0575 22.3507 15.0546 22.1928ZM15.0546 1.49458C18.879 2.30729 22.0113 4.88 22.0113 11.4278C22.0113 16.404 20.2008 19.0806 17.6511 20.4366L16.212 10.9117L15.0546 7.69964L12.7124 1.20207C13.5061 1.24052 14.2961 1.33283 15.0546 1.49458ZM11.3829 1.18268C11.5314 1.17887 11.6761 1.17489 11.8249 1.17489C11.9694 1.17489 12.118 1.1787 12.2665 1.18268L12.3958 9.12056H11.2538L11.3829 1.18268ZM1.63813 11.4278C1.63813 4.88017 4.77039 2.30729 8.59469 1.49458C9.35319 1.33283 10.1432 1.24035 10.937 1.20191L8.59469 7.69947L7.43725 10.9115L5.99816 20.4364C3.44874 19.0806 1.63813 16.404 1.63813 11.4278ZM8.59469 21.357C7.7736 21.1799 6.98363 20.9255 6.24835 20.5673L8.59469 15.7721L11.1364 10.5763H12.5129L15.0544 15.7721L17.4007 20.5673C16.6656 20.9255 15.8756 21.1797 15.0544 21.357C14.0142 21.5764 12.9194 21.6689 11.8247 21.6727C10.7297 21.6689 9.63485 21.5764 8.59469 21.357Z" fill="black"/>
</g>
<defs>
<filter id="filter0_i_463_9048" x="0.125" y="0.423828" width="23.3994" height="24" filterUnits="userSpaceOnUse" color-interpolation-filters="sRGB">
<feFlood flood-opacity="0" result="BackgroundImageFix"/>
<feBlend mode="normal" in="SourceGraphic" in2="BackgroundImageFix" result="shape"/>
<feColorMatrix in="SourceAlpha" type="matrix" values="0 0 0 0 0 0 0 0 0 0 0 0 0 0 0 0 0 0 127 0" result="hardAlpha"/>
<feOffset dy="4"/>
<feGaussianBlur stdDeviation="1"/>
<feComposite in2="hardAlpha" operator="arithmetic" k2="-1" k3="1"/>
<feColorMatrix type="matrix" values="0 0 0 0 0 0 0 0 0 0 0 0 0 0 0 0 0 0 0.15 0"/>
<feBlend mode="normal" in2="shape" result="effect1_innerShadow_463_9048"/>
</filter>
</defs>
</svg>
