<svg width="24" height="23" viewBox="0 0 24 23" fill="none" xmlns="http://www.w3.org/2000/svg">
<g clip-path="url(#clip0_463_9036)">
<path fill-rule="evenodd" clip-rule="evenodd" d="M23.2386 11.3683L23.1937 10.3821L23.0674 9.39587L22.8514 8.42677L22.5596 7.48034L22.1836 6.56806L21.7347 5.68983L21.2044 4.85428L20.6124 4.06702L19.9474 3.33372L19.2236 2.66021L18.4465 2.06052L17.6272 1.52336L16.7547 1.06865L15.854 0.687811L14.9197 0.392226L13.9629 0.173369L12.9893 0.0454874L12.0158 0L11.0394 0.0454874L10.063 0.173369L9.10909 0.392226L8.17476 0.687811L7.27133 1.06865L6.40434 1.52336L5.57948 2.06052L4.80236 2.66021L4.08121 3.33372L3.41626 4.06702L2.8243 4.85428L2.29401 5.68416L1.84512 6.56806L1.46633 7.48034L1.17453 8.42677L0.961296 9.39587L0.83505 10.3821L0.792969 11.3683L0.83505 12.3573L0.961296 13.3464L1.17453 14.3098L1.46633 15.2591L1.84512 16.1743L2.29401 17.0524L2.8243 17.888L3.41626 18.6752L4.08121 19.4057L4.79948 20.0792L5.57948 20.6789L6.40157 21.2161L7.27133 21.6708L8.17476 22.0545L9.10909 22.35L10.063 22.566L11.0394 22.6939L12.013 22.7365L12.9893 22.6939L13.9629 22.566L14.914 22.35L15.8484 22.0545L16.7547 21.6708L17.6215 21.2161L18.4465 20.6789L19.2236 20.0792L19.9474 19.4057L20.6124 18.6781L21.2044 17.888L21.7347 17.0552L22.1836 16.1743L22.5596 15.2591L22.8514 14.3127L23.0674 13.3464L23.1937 12.3573L23.2386 11.3683Z" fill="#FFD124"/>
<path fill-rule="evenodd" clip-rule="evenodd" d="M19.5157 11.5295L19.4849 10.8417L19.3895 10.1596L19.238 9.49179L19.0275 8.83522L18.7527 8.20428L18.4244 7.59892L18.0484 7.0248L17.6163 6.49336L17.1421 5.99883L16.6259 5.55264L16.0675 5.15761L15.4812 4.81082L14.8611 4.52095L14.2242 4.29357L13.5649 4.1202L12.8915 4.01223L12.2125 3.9668L11.873 3.9696V19.0865L12.2125 19.0979L12.8915 19.0468L13.5649 18.9388L14.2242 18.7683L14.8611 18.5381L15.4812 18.251L16.0675 17.9043L16.6259 17.5064L17.1421 17.0601L17.6163 16.5685L18.0484 16.0314L18.4244 15.463L18.7527 14.8576L19.0275 14.2267L19.238 13.573L19.3895 12.8994L19.4849 12.2173L19.5157 11.5295Z" fill="black"/>
<path fill-rule="evenodd" clip-rule="evenodd" d="M13.0063 10.6923L12.8772 10.8884L12.7594 11.1413L12.6893 11.4141L12.6668 11.6955L12.6893 11.9769L12.7594 12.2498L12.8772 12.5055L13.0343 12.7414L13.2279 12.9404L13.4552 13.1052L13.7021 13.2331L13.8957 13.2871L13.8143 13.3042L13.6123 13.4093L13.4328 13.5513L13.284 13.722L13.1718 13.9237L13.1045 14.1426L13.0821 14.3728L13.1045 14.6001L13.1718 14.8189L13.284 15.0179L13.4328 15.1969L13.6123 15.3362L13.8143 15.4385L14.036 15.4954L14.2492 15.5067H14.3895L14.3614 15.5181L14.2324 15.6374L14.1342 15.788L14.0753 15.9557L14.0528 16.1291L14.0753 16.3053L14.1342 16.473L14.2324 16.6236L14.3614 16.743L14.5185 16.8254L14.6897 16.8709L14.8469 16.8737H15.4837V16.8795L15.1891 17.5018L15.7306 17.0869L15.7952 17.0472L15.9326 16.942L16.0729 16.8141L16.1543 16.6692L16.1908 16.5753L16.2019 16.4787L16.1992 16.3821L16.1683 16.2968L16.1234 16.2144L16.2833 16.1689L16.4321 16.1007L16.5611 15.9956L16.6734 15.8734L16.7548 15.7284L16.822 15.5408L16.8445 15.3475L16.822 15.1515L16.7548 14.9611L16.6509 14.7962L16.5134 14.6541L16.3704 14.5546L16.5892 14.5518L16.8192 14.5091L17.038 14.4267L17.2401 14.3131L17.4197 14.1653L17.5767 13.9919L17.703 13.7958L17.7928 13.577L17.8517 13.3496L17.8686 13.1194L17.8517 12.8806L17.7928 12.6533L17.703 12.4373L17.5767 12.2412L17.4197 12.0678L17.2401 11.9172L17.038 11.8035L16.8501 11.7354L16.9764 11.7125L17.226 11.6358L17.4645 11.5136L17.6357 11.3687L17.8461 11.1754L18.0173 10.9424L18.1548 10.6923L18.2502 10.4251L18.3091 10.1523L18.3455 9.90498L18.354 9.65488L18.3343 9.40478L18.295 9.15182L18.2333 8.90172L18.1435 8.65449L18.0341 8.4243L17.9079 8.19978L17.7647 7.98092L17.6076 7.77631L17.4337 7.59155L17.1447 7.29883L16.7519 7.75068H15.1162L15.0348 7.87289L14.959 8.00083L14.9366 8.07189H14.0471L14.0528 7.99225L13.8003 7.87289L13.6797 7.79902L13.5674 7.71944L13.486 7.65976L13.4019 7.60008L13.3177 7.56026L13.2167 7.51763L13.0793 7.50916L12.9446 7.53188L12.8239 7.58589L12.7118 7.67395L12.6331 7.7905L12.5939 7.92691L12.6022 8.07189L12.6556 8.20544L12.7453 8.31347L12.8772 8.39586L12.9979 8.44987L12.9165 8.43282L12.7566 8.43563L12.6022 8.47826L12.4591 8.55504L12.3413 8.66301L12.2515 8.79947L12.1955 8.95007L12.1758 9.11486L12.1983 9.27404L12.2515 9.42755L12.3413 9.5611L12.4648 9.66912L12.6079 9.74585L12.7594 9.78848L12.9221 9.79134L12.9698 9.77715L12.8324 9.8794L12.7201 10.0329L12.6668 10.1551L12.6472 10.3001L12.6836 10.4421L12.765 10.5615L12.8772 10.6468L13.0063 10.6923Z" fill="black"/>
<path fill-rule="evenodd" clip-rule="evenodd" d="M14.3307 9.09469L14.1792 8.97248L14.0585 8.82754L13.9632 8.65984L13.9014 8.47228L13.879 8.28186L13.8903 8.09144L13.7303 8.01471L13.5956 7.93512L13.475 7.84986L13.3964 7.78733L13.3263 7.74189L13.2533 7.70493L13.1832 7.67649L13.0822 7.66797L12.9896 7.68502L12.9026 7.72198L12.8269 7.78166L12.7792 7.85839L12.7511 7.9465L12.7568 8.03748L12.7904 8.11701L12.8549 8.19094L12.9475 8.25348L13.1944 8.35859L13.3403 8.40979L13.3656 8.51776L13.3852 8.6286L13.3964 8.74229L13.4021 8.85026H13.2982L13.228 8.75081L13.1327 8.67408L13.0205 8.61721L12.9026 8.59163L12.7792 8.59449L12.6613 8.6286L12.5547 8.68541L12.4593 8.76786L12.392 8.87303L12.3527 8.99239L12.333 9.11455L12.3527 9.23682L12.3976 9.35618L12.4649 9.45568L12.5547 9.53807L12.6613 9.59489L12.782 9.62899L12.9026 9.63185L13.0261 9.60627L13.1383 9.5466L13.2309 9.46981L13.3038 9.36756L13.4021 9.37323L13.3964 9.51816L13.3796 9.66029L13.3516 9.75121L13.2758 9.79103L13.1018 9.88195L12.9447 9.99278L12.8549 10.115L12.8184 10.1974L12.81 10.2884L12.8325 10.3736L12.8802 10.4503L12.9475 10.5044L13.0344 10.5328L13.1243 10.5271L13.2084 10.4958L13.3179 10.4105L13.4469 10.3054L13.59 10.2145L13.7443 10.1406L13.9043 10.0923L13.8903 9.88195L13.9127 9.69719L13.9716 9.51816L14.067 9.35618L14.182 9.2141L14.3307 9.09469Z" fill="#FFD124"/>
<path fill-rule="evenodd" clip-rule="evenodd" d="M17.1562 7.53097L16.8195 7.90895H15.1978L15.167 7.9573L15.1024 8.06246L15.0547 8.23017H14.0474L14.0446 8.42625L14.098 8.60809L14.2046 8.77299L14.3505 8.89515L14.5245 8.97188L14.7124 8.99465H15.1838V9.15092H14.7124L14.5245 9.19074L14.3589 9.28732L14.2158 9.41807L14.1149 9.58577L14.0671 9.77333L14.0615 9.96947H15.4363L15.4756 9.98652L15.5064 10.0092L15.5177 10.0604L15.5064 10.1144L15.4728 10.1627L15.4223 10.1968L15.3689 10.2054L15.2792 10.2082H14.2552L14.0026 10.2423L13.7613 10.3105L13.5368 10.4242L13.3293 10.572L13.1553 10.7539L13.0121 10.9642L12.9084 11.1972L12.8466 11.4388L12.8242 11.6946L12.8466 11.9475L12.9084 12.1948L13.0121 12.425L13.1553 12.6353L13.3293 12.8172L13.5368 12.9678L13.7613 13.0815L14.0026 13.1526L14.2552 13.181H16.2079L16.2528 13.1867L16.292 13.2094L16.3202 13.2435L16.3285 13.289L16.3202 13.3316L16.292 13.3714L16.2528 13.3942H14.2552L14.0587 13.4084L13.8679 13.4595L13.694 13.5448L13.5425 13.6642L13.4162 13.812L13.3208 13.9853L13.2619 14.1757L13.2394 14.3718L13.2619 14.5679L13.3208 14.7555L13.4162 14.926L13.5425 15.0767L13.694 15.1989L13.8679 15.287L14.0587 15.3353L14.2552 15.3466H15.8178L15.8571 15.3495L15.8936 15.3722L15.9161 15.4035L15.9245 15.4462L15.9161 15.4859L15.8936 15.5172L15.8571 15.5399L15.8178 15.5456H14.8471L14.7124 15.5513L14.5778 15.5825L14.457 15.6508L14.3533 15.7446L14.2776 15.8582L14.227 15.9918L14.2101 16.1282L14.227 16.2675L14.2776 16.401L14.3533 16.5147L14.457 16.6085L14.5778 16.6767L14.7124 16.7109L14.8471 16.7137H15.5204L15.5794 16.7421L15.6243 16.7904L15.6411 16.8558V16.9184L15.6102 16.978L15.6411 16.9553L15.7084 16.9155L15.8347 16.8188L15.947 16.7137L16.0115 16.6L16.0367 16.5318L16.0451 16.4607L16.0339 16.3869L16.0059 16.3186L15.9553 16.2589L15.8992 16.2192L15.8263 16.1965L15.7533 16.1907H14.9902L14.9733 16.1822L14.9565 16.1737L14.9425 16.1509L14.9369 16.1282L14.9425 16.1083L14.9565 16.0856L14.9733 16.077L14.9902 16.0685H15.9694L16.1321 16.0515L16.2808 15.9947L16.4155 15.9093L16.5305 15.7957L16.6175 15.6592L16.6652 15.5058L16.6848 15.3466L16.6652 15.1818L16.6175 15.0312L16.5305 14.8948L16.4155 14.7783L16.2808 14.6901L16.1321 14.6419L15.9694 14.622H14.4627L14.4206 14.6191L14.3898 14.6049L14.3589 14.5765L14.3393 14.5452L14.3364 14.5082L14.3393 14.4713L14.3589 14.4372L14.3898 14.4144L14.4206 14.3946H16.3707L16.5754 14.3918L16.7775 14.3548L16.971 14.2809L17.1506 14.1814L17.3133 14.0507L17.4508 13.8944L17.5602 13.7181L17.6444 13.5277L17.6948 13.3231L17.7117 13.1185L17.6948 12.9082L17.6444 12.7036L17.5602 12.5131L17.4508 12.3341L17.3133 12.1806L17.1506 12.0527L16.971 11.9475L16.7775 11.8765L16.5754 11.8396L16.3707 11.8338H14.3954L14.3589 11.8168L14.328 11.7884L14.3084 11.7543L14.3 11.7174L14.3084 11.6747L14.328 11.6406L14.3589 11.6122L14.3954 11.5951H16.7073L16.9402 11.5582L17.1646 11.4843L17.375 11.3763L17.5321 11.2512L17.7285 11.0636L17.8857 10.8562L18.012 10.6231L18.1017 10.3787L18.155 10.1229L18.1887 9.88988L18.1971 9.65397L18.1775 9.42378L18.1438 9.18221L18.0792 8.9463L17.9979 8.71898L17.8912 8.49446L17.7734 8.28127L17.6359 8.07665L17.4873 7.88057L17.3217 7.69867L17.1562 7.53097ZM13.8202 7.51392H16.4941V7.24391H13.8202V7.51392ZM13.8202 7.19848H16.4941V6.93413H13.8202V7.19848ZM13.8062 6.87732H16.4857V6.61297H13.8062V6.87732ZM16.4996 6.21228L16.4913 6.15826L16.4716 6.10425L16.4408 6.05876L16.4015 6.01614L16.3509 5.99056L16.2977 5.97637L16.2443 5.9707L16.191 5.97917L16.1349 6.00194L16.09 6.03605L16.0563 6.08153L16.0339 6.12988L16.0199 6.18384V6.24346L16.0339 6.29753L16.0563 6.34868L16.09 6.38845L16.1349 6.42541L16.191 6.44813L16.2443 6.45665L16.2977 6.45385L16.3509 6.4396L16.4015 6.40836L16.4408 6.3714L16.4716 6.32025L16.4913 6.2719L16.4996 6.21228ZM15.9441 6.21228L15.9385 6.15826L15.9217 6.10425L15.888 6.05876L15.8487 6.01614L15.7982 5.99056L15.7449 5.97637L15.6916 5.9707L15.6327 5.97917L15.585 6.00194L15.5401 6.03605L15.5037 6.08153L15.4756 6.12988L15.4672 6.18384V6.24346L15.4756 6.29753L15.5037 6.34868L15.5401 6.38845L15.585 6.42541L15.6327 6.44813L15.6916 6.45665L15.7449 6.45385L15.7982 6.4396L15.8487 6.40836L15.888 6.3714L15.9217 6.32025L15.9385 6.2719L15.9441 6.21228ZM15.3914 6.21228L15.3858 6.15826L15.3634 6.10425L15.3381 6.05876L15.296 6.01614L15.2483 5.99056L15.1921 5.97637L15.1361 5.9707L15.08 5.97917L15.0323 6.00194L14.9874 6.03605L14.9509 6.08153L14.9228 6.12988L14.9116 6.18384V6.24346L14.9228 6.29753L14.9509 6.34868L14.9874 6.38845L15.0323 6.42541L15.08 6.44813L15.1361 6.45665L15.1921 6.45385L15.2483 6.4396L15.296 6.40836L15.3381 6.3714L15.3634 6.32025L15.3858 6.2719L15.3914 6.21228ZM14.8387 6.21228L14.8302 6.15826L14.8106 6.10425L14.7797 6.05876L14.7405 6.01614L14.6956 5.99056L14.6423 5.97637L14.5833 5.9707L14.53 5.97917L14.4795 6.00194L14.4347 6.03605L14.3981 6.08153L14.3729 6.12988L14.3589 6.18384V6.24346L14.3729 6.29753L14.3981 6.34868L14.4347 6.38845L14.4795 6.42541L14.53 6.44813L14.5833 6.45665L14.6423 6.45385L14.6956 6.4396L14.7405 6.40836L14.7797 6.3714L14.8106 6.32025L14.8302 6.2719L14.8387 6.21228ZM14.2859 6.21228L14.2776 6.15826L14.2607 6.10425L14.227 6.05876L14.1877 6.01614L14.1373 5.99056L14.084 5.97637L14.0307 5.9707L13.9773 5.97917L13.924 6.00194L13.8791 6.03605L13.8427 6.08153L13.8202 6.12988L13.8062 6.18384V6.24346L13.8202 6.29753L13.8427 6.34868L13.8791 6.38845L13.924 6.42541L13.9773 6.44813L14.0307 6.45665L14.084 6.45385L14.1373 6.4396L14.1877 6.40836L14.227 6.3714L14.2607 6.32025L14.2776 6.2719L14.2859 6.21228Z" fill="#FFD124"/>
<path fill-rule="evenodd" clip-rule="evenodd" d="M14.4621 2.72481L14.5014 2.81007L14.5602 2.8868L14.6277 2.95219L14.7034 3.00615L14.7932 3.04311L14.8829 3.06869L14.9784 3.07436L15.0709 3.06583L15.1607 3.04311L15.2477 3.00049L15.3234 2.94361L15.3908 2.87547L15.4441 2.79588L15.4833 2.71057L15.5114 2.61965L15.5254 2.52301V2.43203L15.5058 2.33825L15.4805 2.24733L15.43 2.15927L15.3711 2.08821L15.301 2.02281L15.214 1.97452L15.1243 1.94322L15.0261 1.92331H14.9334L14.8381 1.94322L14.7539 1.97732L14.6725 2.02853L14.5995 2.09101L14.5378 2.1706L14.4845 2.26158L14.448 2.3553L14.4284 2.44628L14.42 2.54292L14.434 2.6367L14.4621 2.72481ZM12.0548 1.90912L12.1053 1.90632L12.153 1.8864L12.1979 1.85516L12.2343 1.80968L12.2624 1.75566L12.2792 1.68746V1.63345L12.2624 1.57377L12.2259 1.51409L12.1839 1.47713L12.1361 1.45155L12.0772 1.43736H12.0407L11.864 1.43164L11.8584 1.90632L12.0407 1.90912H12.0548Z" fill="black"/>
<path fill-rule="evenodd" clip-rule="evenodd" d="M22.7621 10.4191L22.6358 9.47269L22.4338 8.54045L22.1504 7.63669L21.7913 6.7528L21.3564 5.90872L21.2133 5.68134L20.8486 5.10442L20.2761 4.3484L19.6421 3.64359L19.5467 3.55548L18.9463 3.00127L18.1999 2.42148L17.4059 1.9071L16.5726 1.46652L15.7001 1.10273L14.9791 0.869687L14.8078 0.815729L13.8876 0.611063L12.9533 0.483181L12.0415 0.443359H12.0162L11.0735 0.483181L10.142 0.611063L9.2246 0.815729L8.32676 1.10273L7.457 1.46652L6.86503 1.77922L6.6209 1.9071L5.82689 2.42148L5.08055 2.99846L4.89539 3.17183L4.48011 3.55553L4.38476 3.64365L3.75342 4.34846L3.17829 5.10447L2.90614 5.5336L2.67048 5.90878L2.2356 6.75285L1.87647 7.63675L1.59314 8.5405L1.39109 9.47275L1.2649 10.4192L1.22559 11.3684L1.2649 12.3234L1.39109 13.2669L1.59314 14.1962L1.87647 15.1057L2.2356 15.9867L2.67048 16.8337L2.90614 17.206L3.17829 17.638L3.74783 18.3939L4.38471 19.0988L4.48006 19.1841L4.89533 19.5677L5.08049 19.7383L5.82683 20.3209L6.62085 20.8354L6.86498 20.9632L7.45695 21.2759L8.32671 21.6397L9.22172 21.9267L10.142 22.1314L11.0735 22.2593L12.0134 22.2991L12.0414 22.2962L12.9533 22.2593L13.8876 22.1314L14.8023 21.9267L14.9791 21.8699L15.7001 21.6397L16.5726 21.2759L17.4059 20.8354L18.1999 20.3209L18.9463 19.744L19.5467 19.187L19.6421 19.0988L20.2761 18.394L20.8486 17.638L21.2133 17.0611L21.3564 16.8338L21.7913 15.9868L22.1504 15.1086L22.4338 14.1991L22.6358 13.267L22.7621 12.3234L22.8014 11.3685L22.7621 10.4191ZM18.1242 2.93026L18.5788 3.3424L18.1523 4.43371L19.1651 3.8767L19.6197 4.28592L18.5255 6.07643L18.1018 5.69559L18.8032 4.61274L17.6444 5.28064L17.4144 5.07598L17.8997 3.80277L16.9486 4.64971L16.5221 4.2632L18.1242 2.93026ZM13.8652 2.4244L13.8792 2.30218L13.9045 2.18283L13.9494 2.06061L14.0026 1.94406L14.0756 1.83323L14.157 1.73373L14.2468 1.65133L14.3394 1.58027L14.4432 1.51493L14.5609 1.46944L14.6817 1.4382L14.8078 1.42115L14.9426 1.41543L14.9791 1.41829L15.08 1.42401L15.2202 1.45244L15.355 1.49788L15.484 1.55189L15.6075 1.62576L15.714 1.70535L15.8094 1.79346L15.8936 1.89291L15.9666 1.99807L16.0227 2.12029L16.0648 2.24817L16.09 2.37891L16.0957 2.51251L16.09 2.64892L16.0648 2.77966L16.0227 2.90188L15.975 3.01552L15.9161 3.1264L15.8431 3.22018L15.7534 3.31677L15.6524 3.39922L15.5402 3.46742L15.4168 3.52138L15.2934 3.55834L15.1587 3.58106L15.0241 3.58386L14.9792 3.58106L14.8921 3.57534L14.7632 3.55256L14.6369 3.5128L14.5078 3.46164L14.3816 3.39344L14.2694 3.31671L14.174 3.2286L14.0897 3.13768L14.0168 3.03537L13.9551 2.92174L13.9102 2.80238L13.8793 2.6745L13.8597 2.54662L13.8652 2.4244ZM11.3176 0.966382L12.0415 0.974853H12.0947L12.2435 0.983433L12.3417 1.01187L12.4427 1.04311L12.5213 1.0886L12.5997 1.14256L12.6615 1.20509L12.7148 1.27902L12.7596 1.36141L12.7905 1.45239L12.8101 1.54331L12.813 1.62856L12.8045 1.71954L12.7877 1.81046L12.7596 1.88433L12.7231 1.95539L12.6754 2.02931L12.6165 2.08899L12.5492 2.13734L12.4734 2.17997L12.4004 2.20549L13.0373 3.061L12.364 3.05248L11.8506 2.27941L11.8422 3.04395L11.2952 3.03823L11.3176 0.966382ZM6.19998 2.8109L8.04892 4.0131L7.5776 4.35698L7.24654 4.13812L6.62927 4.59289L6.7415 4.97659L6.27573 5.31761L5.67811 3.1946L6.19998 2.8109ZM4.5166 4.25748L4.85331 4.54454L4.44091 5.04474L4.69057 5.25787L5.04129 4.83446L5.39201 5.12999L5.04694 5.54779L5.67822 6.08495L5.31908 6.52267L3.74501 5.19539L4.5166 4.25748ZM2.73494 6.94613L4.1434 7.6225L4.41272 7.0541L4.48006 7.08821L4.84761 7.26724L4.3398 8.35008L2.49086 7.45772L2.73494 6.94613ZM3.93582 9.76828L3.55426 9.85925L3.45326 10.6237L3.79833 10.8056L3.72258 11.3798L1.79507 10.3453L1.88206 9.70574L4.01721 9.18283L3.93582 9.76828ZM19.9479 12.1983L19.8581 12.8861L19.7151 13.5624L19.5467 14.1138L19.513 14.2218L19.2521 14.8641L18.9407 15.478L18.5788 16.0635L18.1691 16.6205L17.7118 17.1321L17.2124 17.6067L16.6737 18.0331L16.1041 18.4167L15.5037 18.7435L14.9791 18.9738L14.8781 19.0164L14.2327 19.2381L13.5678 19.3973L12.8916 19.5024L12.207 19.5478L12.0415 19.545L11.528 19.5337L10.8491 19.4569L10.1813 19.3261L9.52471 19.1329L8.88507 18.8885L8.27339 18.5844L7.68419 18.2291L7.1343 17.8255L6.86498 17.5925L6.61249 17.3736L6.13547 16.8792L5.70059 16.3477L5.31615 15.7793L4.9795 15.1739L4.89533 14.992L4.69052 14.5458L4.48011 13.9461L4.46328 13.895L4.28659 13.2271L4.17153 12.545L4.11261 11.8544V11.1638L4.17153 10.4788L4.28659 9.79671L4.46328 9.12881L4.48011 9.07761L4.69052 8.47224L4.89533 8.02606L4.9795 7.84417L5.31615 7.24447L5.70059 6.67326L6.13547 6.13891L6.61249 5.64438L6.86498 5.42838L7.1343 5.19534L7.68419 4.78892L8.27339 4.43366L8.88784 4.13526L9.52471 3.88517L10.1813 3.69475L10.8491 3.56114L11.528 3.49008L12.0415 3.47875L12.207 3.47589L12.8916 3.51571L13.5678 3.62088L14.2327 3.78572L14.8781 4.00172L14.9791 4.04721L15.5037 4.28025L16.1041 4.60708L16.6793 4.98506L17.2124 5.41133L17.7118 5.88881L18.1691 6.40325L18.5788 6.9546L18.9407 7.54005L19.2521 8.15966L19.513 8.79627L19.5467 8.9071L19.7151 9.45845L19.8581 10.1321L19.9479 10.8198L19.9732 11.5076L19.9479 12.1983ZM20.0967 7.99196L19.673 8.20509L19.1175 7.08535L20.9496 6.15316L21.4996 7.26724L21.1095 7.46905L20.8093 6.85796L20.5119 7.01428L20.7643 7.523L20.366 7.72767L20.1078 7.21889L19.7908 7.38088L20.0967 7.99196ZM22.2627 10.3282L22.2402 10.4646L22.2065 10.5868L22.156 10.7061L22.0943 10.8198L22.0129 10.925L21.9175 11.0188L21.8109 11.1012L21.6987 11.1637L21.5724 11.2205L21.4462 11.2546L21.3171 11.2745L21.2133 11.2774H21.1965L21.073 11.2745L20.9524 11.2518L20.8373 11.2091L20.7139 11.1523L20.6017 11.0841L20.5034 10.9959L20.4137 10.8965L20.3379 10.7828L20.2761 10.6635L20.2201 10.5412L20.1864 10.4134L20.164 10.2826L20.1527 10.1405L20.1584 10.0012L20.1751 9.85914L20.2117 9.73693L20.2565 9.61757L20.3155 9.5096L20.3884 9.40163L20.4727 9.30499L20.5709 9.21973L20.6803 9.15153L20.7869 9.09471L20.9048 9.05494L21.0198 9.02651L21.1461 9.01512H21.2751L21.407 9.02651L21.5276 9.06061L21.6399 9.10043L21.7465 9.15439L21.8475 9.22265L21.94 9.30504L22.0271 9.40454L22.0972 9.51537L22.1617 9.63192L22.2095 9.76553L22.246 9.90193L22.2684 10.0412L22.274 10.1861L22.2627 10.3282Z" fill="black"/>
<path fill-rule="evenodd" clip-rule="evenodd" d="M21.7432 9.9352L21.701 9.84423L21.6449 9.77317L21.572 9.70782L21.4906 9.65953L21.4064 9.62257L21.311 9.59985L21.2128 9.59133H21.2044L21.1062 9.59985L21.0164 9.62257L20.9294 9.65953L20.8481 9.70782L20.7808 9.77317L20.7274 9.84995L20.6825 9.9352L20.6573 10.0262L20.6433 10.1171L20.6461 10.2137L20.6657 10.3103L20.7022 10.3956L20.7499 10.478L20.8144 10.5491L20.8902 10.6088L20.9716 10.6543L21.0614 10.6826L21.1539 10.6969H21.2493L21.3419 10.6826L21.4289 10.6543L21.513 10.6088L21.5888 10.5548L21.6561 10.4866L21.7123 10.4041L21.7515 10.3189L21.7739 10.2222L21.7824 10.1284L21.7684 10.0318L21.7432 9.9352ZM2.36133 10.0915L3.05712 10.4326L3.11885 9.94659L2.36133 10.0915ZM6.86451 3.90145L6.88694 3.88445L6.86451 3.8674L6.25843 3.42969L6.49419 4.17151L6.86451 3.90145Z" fill="black"/>
<path fill-rule="evenodd" clip-rule="evenodd" d="M7.43644 10.1601V5.53888L7.17271 5.75202L6.67327 6.22092L6.22156 6.73536L5.81757 7.28957L5.46126 7.88074L5.16104 8.50035L4.91979 9.13976L4.74022 9.8048L4.67566 10.1601H7.43644ZM7.43644 12.357H4.56055L4.59139 12.5389L4.71204 13.2182L4.8972 13.8804L5.13851 14.5283L5.4359 15.1451L5.78939 15.7333L6.19343 16.2876L6.64797 16.802L7.14459 17.2738L7.43639 17.4841V12.357H7.43644ZM9.51545 12.357V18.692L10.1663 18.8938L10.8313 19.033L11.5047 19.1098V12.357H9.51545ZM9.51545 10.1601H11.5047V3.94727L10.8313 4.02405L10.1663 4.16612L9.51545 4.36507V10.1601Z" fill="#FFD124"/>
<path fill-rule="evenodd" clip-rule="evenodd" d="M8.25036 4.99306L7.72849 5.31994V10.5181H4.58615L4.54684 10.8961L4.53001 11.2741L4.52441 11.6492L4.54119 12.0272H7.72849V17.7284L8.06238 17.9785L8.41592 18.1974L8.78906 18.3877L9.19305 18.5696V12.0272H11.505V10.5181H9.19305V4.54688L8.85645 4.67476L8.25036 4.99306Z" fill="black"/>
</g>
<defs>
<clipPath id="clip0_463_9036">
<rect width="24" height="22.9565" fill="white"/>
</clipPath>
</defs>
</svg>
