<svg width="32" height="32" viewBox="0 0 32 32" fill="none" xmlns="http://www.w3.org/2000/svg">
<path d="M6 22C2.692 22 0 19.308 0 16C0 12.692 2.692 10 6 10C9.30933 10 12 12.692 12 16C12 19.308 9.30933 22 6 22ZM6 12C3.79467 12 2 13.7947 2 16C2 18.2053 3.79467 20 6 20C8.20533 20 10 18.2053 10 16C10 13.7947 8.20533 12 6 12Z" fill="black"/>
<path d="M12.667 22C9.35899 22 6.66699 19.308 6.66699 16C6.66699 12.692 9.35899 10 12.667 10C15.975 10 18.667 12.692 18.667 16C18.667 19.308 15.9763 22 12.667 22ZM12.667 12C10.4617 12 8.66699 13.7947 8.66699 16C8.66699 18.2053 10.4617 20 12.667 20C14.8723 20 16.667 18.2053 16.667 16C16.667 13.7947 14.8723 12 12.667 12Z" fill="black"/>
<path d="M19.333 22C16.0237 22 13.333 19.308 13.333 16C13.333 12.692 16.0237 10 19.333 10C22.641 10 25.333 12.692 25.333 16C25.333 19.308 22.6423 22 19.333 22ZM19.333 12C17.1277 12 15.333 13.7947 15.333 16C15.333 18.2053 17.1277 20 19.333 20C21.5383 20 23.333 18.2053 23.333 16C23.333 13.7947 21.5383 12 19.333 12Z" fill="black"/>
<path d="M26 22C22.692 22 20 19.308 20 16C20 12.692 22.6907 10 26 10C29.3093 10 32 12.692 32 16C32 19.308 29.3093 22 26 22ZM26 12C23.7947 12 22 13.7947 22 16C22 18.2053 23.7947 20 26 20C28.2053 20 30 18.2053 30 16C30 13.7947 28.2053 12 26 12Z" fill="black"/>
<path d="M2 16H0C0 19.308 2.692 22 6 22C7.232 22 8.38 21.6267 9.33333 20.9867C8.75467 20.5987 8.248 20.1133 7.83467 19.5533C7.28533 19.8387 6.66133 20 6 20C3.79467 20 2 18.2053 2 16ZM12 16H10C10 16.816 9.75467 17.576 9.33333 18.2093C9.70933 18.7747 10.2253 19.24 10.832 19.5547C11.5653 18.5587 12 17.3293 12 16Z" fill="black"/>
<path d="M8.66699 16H6.66699C6.66699 17.3293 7.10166 18.5587 7.83499 19.5533C8.24833 20.1133 8.75499 20.5987 9.33366 20.9867C10.2883 21.6267 11.435 22 12.667 22C13.899 22 15.0457 21.6267 16.0003 20.9867C15.4217 20.5987 14.915 20.1133 14.5017 19.5533C13.9523 19.8387 13.3283 20 12.667 20C12.0057 20 11.3817 19.8387 10.8323 19.5533C10.2257 19.24 9.70966 18.7747 9.33366 18.2093C8.91233 17.576 8.66699 16.816 8.66699 16ZM18.667 16H16.667C16.667 16.816 16.4217 17.576 16.0003 18.2093C16.3763 18.7747 16.8923 19.24 17.499 19.5547C18.2323 18.5587 18.667 17.3293 18.667 16Z" fill="black"/>
<path d="M15.333 16H13.333C13.333 17.3293 13.7677 18.5587 14.501 19.5533C14.9143 20.1133 15.421 20.5987 15.9997 20.9867C16.953 21.6267 18.101 22 19.333 22C20.565 22 21.7117 21.6267 22.6663 20.9867C22.0877 20.5987 21.581 20.1133 21.1677 19.5533C20.6183 19.8387 19.9943 20 19.333 20C18.6717 20 18.0477 19.8387 17.4983 19.5533C16.8917 19.2387 16.3757 18.7747 15.9997 18.208C15.5783 17.576 15.333 16.816 15.333 16ZM25.333 16H23.333C23.333 16.816 23.0877 17.576 22.6663 18.2093C23.0423 18.7747 23.5583 19.24 24.165 19.5547C24.8983 18.5587 25.333 17.3293 25.333 16Z" fill="black"/>
<path d="M32 15.9994H30C30 18.2047 28.2053 19.9994 26 19.9994C25.3387 19.9994 24.7147 19.838 24.1653 19.5527C23.5587 19.238 23.0427 18.774 22.6667 18.2074C22.2453 17.574 22 16.814 22 15.998H20C20 17.3274 20.4347 18.5567 21.168 19.5514C21.5813 20.1114 22.088 20.5967 22.6667 20.9847C23.62 21.6247 24.768 21.998 26 21.998C29.3093 21.9994 32 19.3074 32 15.9994Z" fill="black"/>
</svg>
