<svg width="36" height="36" viewBox="0 0 36 36" fill="none" xmlns="http://www.w3.org/2000/svg">
<path d="M22.2162 21.5254C21.1116 22.4447 19.5861 23.0137 17.8985 23.0137C16.2109 23.0137 14.6854 22.4447 13.5809 21.5254C12.4702 20.6011 11.7842 19.3222 11.7842 17.9103C11.7842 16.5049 12.4702 15.2327 13.5809 14.3129C14.6854 13.3983 16.2111 12.832 17.8985 12.832C19.5861 12.832 21.1116 13.3981 22.2162 14.3129C23.3269 15.2327 24.0127 16.5049 24.0127 17.9103C24.0127 19.3222 23.3269 20.6011 22.2162 21.5254Z" fill="black"/>
<path d="M17.8988 22.8387C19.5439 22.8387 21.0296 22.285 22.1043 21.3909C23.1759 20.4988 23.8377 19.2676 23.8377 17.9106C23.8377 16.5599 23.1763 15.3351 22.105 14.448C21.0304 13.5582 19.5446 13.0078 17.8988 13.0078C16.2532 13.0078 14.7673 13.5584 13.6928 14.448C12.6215 15.3351 11.96 16.5599 11.96 17.9106C11.96 19.2676 12.6217 20.4986 13.6935 21.3909C14.768 22.285 16.2538 22.8387 17.8988 22.8387Z" fill="#FFD124"/>
<path d="M17.8989 22.5112C19.4522 22.5112 20.8613 21.9939 21.8809 21.1572C22.8939 20.3255 23.5216 19.1782 23.5216 17.9118C23.5216 16.6565 22.8928 15.5146 21.8775 14.6859C20.8584 13.8539 19.4507 13.3375 17.8987 13.3375C16.3422 13.3375 14.9357 13.853 13.9184 14.6835C12.9031 15.5122 12.276 16.6552 12.276 17.9118C12.276 19.1797 12.902 20.3281 13.9154 21.1598C14.9329 21.9952 16.3407 22.5112 17.8989 22.5112ZM21.9918 21.2922C20.942 22.1541 19.4935 22.6868 17.8989 22.6868C16.2994 22.6868 14.8524 22.1549 13.8044 21.2948C12.7513 20.4307 12.1006 19.2346 12.1006 17.9119C12.1006 16.6005 12.7528 15.4095 13.8082 14.5479C14.8557 13.6927 16.3013 13.1621 17.8989 13.1621C19.4916 13.1621 20.9387 13.6938 21.9883 14.5505C23.0431 15.4119 23.6972 16.6016 23.6972 17.9119C23.6972 19.2331 23.0446 20.4281 21.9918 21.2922Z" fill="black"/>
<path d="M15.3945 22.739C15.2701 22.6727 15.1765 22.569 15.1498 22.4245C15.1283 22.3066 15.1532 22.165 15.2454 21.9999L15.2465 21.9984L15.9654 20.7874C16.002 20.7178 16.0754 20.6795 16.155 20.6641C16.2461 20.6466 16.3527 20.6599 16.4095 20.6886C16.4637 20.7157 16.5363 20.7846 16.5797 20.864C16.6043 20.8474 16.6309 20.8339 16.6588 20.8238C16.7481 20.7917 16.8577 20.7906 16.9158 20.81H16.9162C16.9702 20.8283 17.0512 20.887 17.1052 20.9589C17.1138 20.9525 17.1227 20.9465 17.1319 20.9409C17.208 20.8973 17.2934 20.8726 17.3811 20.8687L17.3954 20.8698C17.4537 20.8797 17.554 20.9314 17.622 21.003L17.6263 21.0076C17.6358 20.9981 17.6459 20.9889 17.6565 20.9804V20.98C17.7329 20.9183 17.8399 20.8812 17.8991 20.8812C17.9583 20.8812 18.0653 20.9183 18.1419 20.98V20.9804C18.1526 20.9891 18.1623 20.9983 18.1718 21.0076L18.1761 21.003C18.2443 20.9314 18.3446 20.8797 18.403 20.8698V20.8702V20.8698V20.8702C18.4045 20.8698 18.4176 20.8687 18.4172 20.8687C18.4727 20.8687 18.5776 20.8901 18.6594 20.9402C18.6705 20.9467 18.6805 20.954 18.6908 20.9617C18.7448 20.8883 18.8275 20.8281 18.8819 20.81H18.8822C18.9405 20.7906 19.05 20.7917 19.1394 20.8238C19.1674 20.8341 19.1945 20.8476 19.2186 20.864C19.2616 20.7848 19.3346 20.7155 19.3886 20.6886H19.3889C19.4422 20.6602 19.5494 20.647 19.6411 20.6645C19.7214 20.6798 19.7964 20.7181 19.8329 20.7874L20.5519 21.9984L20.5541 22.0024C20.6406 22.1688 20.6643 22.3105 20.6429 22.4284C20.6165 22.5703 20.5276 22.6732 20.404 22.7388L20.3982 22.7422C20.2551 22.8057 20.1134 22.8176 19.986 22.7552C19.9516 22.7383 19.9195 22.7168 19.8908 22.6914C19.8861 22.7074 19.8805 22.7231 19.8743 22.7381C19.8288 22.8434 19.7442 22.9168 19.6343 22.9592V22.9588C19.6213 22.964 19.6081 22.9685 19.5946 22.9723V22.9726C19.5733 22.9795 19.5517 22.9853 19.5299 22.9902C19.4158 23.0158 19.3053 23.0063 19.2089 22.9519C19.1674 22.9285 19.1304 22.898 19.0995 22.8619C19.0931 22.88 19.0854 22.8977 19.0765 22.9147C19.0087 23.0442 18.889 23.115 18.7482 23.1398L18.742 23.1406C18.59 23.1566 18.4527 23.1241 18.3498 23.0246C18.3302 23.0054 18.3125 22.9844 18.2969 22.9618C18.2644 23.0208 18.2173 23.0705 18.1603 23.1063C18.1032 23.1421 18.0379 23.1628 17.9707 23.1665C17.9495 23.168 17.9283 23.168 17.9072 23.1665C17.8911 23.1665 17.8767 23.1661 17.8644 23.165H17.864C17.7404 23.1562 17.6319 23.1125 17.5527 23.0253C17.5341 23.0048 17.5175 22.9825 17.5034 22.9586C17.4871 22.9824 17.4687 23.0045 17.4483 23.0248C17.3458 23.1243 17.2085 23.1568 17.0563 23.1407L17.0501 23.14C16.9091 23.1152 16.7894 23.0444 16.722 22.9149C16.7123 22.8962 16.7039 22.8768 16.6969 22.8568C16.6653 22.8952 16.627 22.9276 16.584 22.9525C16.4833 23.0098 16.3684 23.0167 16.2482 22.9857C16.2342 22.982 16.2203 22.978 16.2065 22.9738C16.2065 22.9734 16.2063 22.9734 16.2061 22.9734H16.2059C16.1917 22.9693 16.1777 22.9646 16.1639 22.9592C16.0545 22.9172 15.9697 22.844 15.9241 22.7384C15.9175 22.7233 15.9119 22.7079 15.9071 22.6921C15.8771 22.7184 15.8455 22.7396 15.8124 22.7556C15.6851 22.818 15.5433 22.806 15.4001 22.7425C15.3983 22.7412 15.3964 22.74 15.3945 22.739Z" fill="black"/>
<path d="M15.92 22.358L15.9204 22.3561C15.9282 22.3293 15.9372 22.3029 15.9473 22.2769L15.9484 22.2743L16.031 22.0765L16.4404 21.0379L16.442 21.034C16.4514 21.0133 16.4437 20.9834 16.429 20.9541C16.4036 20.9031 16.361 20.86 16.3313 20.845C16.3027 20.8308 16.2431 20.8254 16.1879 20.8359C16.1557 20.842 16.1283 20.8527 16.1204 20.8687L16.1173 20.8742L15.3982 22.0851C15.3276 22.2114 15.3072 22.3132 15.3218 22.3923C15.3371 22.4762 15.3943 22.5393 15.4712 22.5817C15.568 22.6245 15.6595 22.6346 15.7357 22.5974C15.8061 22.5634 15.8694 22.487 15.92 22.358ZM16.1942 22.1402L16.0859 22.4149C16.0856 22.416 16.0852 22.417 16.0848 22.4179C16.0556 22.5236 16.0582 22.6069 16.0851 22.6689C16.1105 22.728 16.1606 22.77 16.2261 22.7952L16.2265 22.7956C16.2355 22.7993 16.2456 22.8025 16.256 22.8055L16.2592 22.8066C16.2704 22.8103 16.2814 22.8135 16.2921 22.8165C16.3688 22.8361 16.4396 22.8333 16.4977 22.8004C16.5584 22.7657 16.6105 22.696 16.6481 22.583C16.6544 22.5636 16.66 22.5455 16.6645 22.5283H16.6643L16.9928 21.1513L16.9949 21.144C17.001 21.1257 16.9898 21.0992 16.9719 21.0729C16.9392 21.0251 16.8907 20.9864 16.8612 20.9765C16.8326 20.967 16.7721 20.97 16.7179 20.9892C16.6875 21.0002 16.6622 21.0155 16.6559 21.0344L16.6535 21.0406L16.1942 22.1402ZM19.7675 22.0767L19.8498 22.2745L19.8506 22.2767C19.8611 22.3036 19.8705 22.3309 19.8786 22.3585C19.929 22.4872 19.9923 22.5636 20.0624 22.5978C20.1386 22.635 20.2301 22.6249 20.3265 22.5821C20.4019 22.5405 20.4555 22.4792 20.4705 22.3972C20.485 22.3165 20.4658 22.2131 20.3989 22.0842L19.6806 20.8745L19.6776 20.8691C19.67 20.8538 19.6412 20.8428 19.608 20.8366C19.5514 20.8256 19.4935 20.8293 19.4726 20.8417C19.4726 20.842 19.4668 20.8454 19.4668 20.8454C19.4369 20.8603 19.3945 20.9035 19.3691 20.9541C19.3541 20.9836 19.3469 21.0135 19.356 21.0344L19.3579 21.0383L19.7675 22.0767ZM18.3491 22.3703L18.366 22.5793V22.5797C18.3674 22.5976 18.3678 22.6144 18.3682 22.6314C18.3809 22.7599 18.4186 22.8466 18.4722 22.8989C18.5324 22.9571 18.6188 22.9762 18.7184 22.967C18.8075 22.9513 18.8814 22.9089 18.9208 22.8335C18.9584 22.762 18.9687 22.6581 18.938 22.5154L18.6226 21.1526L18.6218 21.15C18.6175 21.1263 18.5955 21.1056 18.5686 21.0891C18.5247 21.0634 18.4754 21.048 18.4246 21.0443C18.3936 21.0523 18.3428 21.0818 18.3036 21.1235C18.2795 21.1487 18.2623 21.1767 18.2645 21.2001L18.2653 21.2027L18.3491 22.3703ZM17.4302 22.6305C17.4306 22.6129 17.4314 22.5965 17.4325 22.58V22.5793L17.4493 22.3714L17.5335 21.2027L17.5343 21.2001C17.5365 21.1767 17.5193 21.1487 17.4952 21.1235C17.456 21.0818 17.405 21.0523 17.374 21.0443C17.3208 21.048 17.2692 21.0637 17.2229 21.0902V21.0906C17.1985 21.1056 17.1794 21.1231 17.1775 21.1416L17.1759 21.1526L16.8604 22.5154C16.8298 22.6581 16.8401 22.762 16.8776 22.8335C16.9168 22.9089 16.9911 22.9513 17.08 22.967C17.1796 22.9762 17.2663 22.9571 17.3262 22.8989C17.3802 22.8464 17.4175 22.7595 17.4302 22.6305ZM16.2065 22.9734C16.2065 22.973 16.2063 22.973 16.2062 22.973L16.2065 22.9734ZM16.2062 22.973C16.2062 22.973 16.206 22.973 16.2062 22.973V22.973ZM19.195 21.1024L19.1946 21.102L19.195 21.1024ZM19.1946 21.102V21.1016V21.102ZM19.6879 22.3404L19.1451 21.0404L19.1425 21.0342C19.1364 21.0152 19.1112 20.9998 19.0805 20.989C19.0266 20.9696 18.966 20.9668 18.9375 20.9763H18.9371C18.9076 20.9862 18.8594 21.0249 18.8265 21.0727C18.8086 21.099 18.7974 21.1255 18.8035 21.1438L18.8058 21.1511L19.1341 22.5281V22.5296C19.1395 22.5541 19.1465 22.5789 19.1545 22.603C19.1881 22.7037 19.2369 22.7668 19.2946 22.7993C19.3512 22.8314 19.4193 22.8361 19.492 22.8197C19.5058 22.8167 19.5219 22.812 19.5398 22.8062L19.5428 22.8055L19.6879 22.3404ZM19.5428 22.8051C19.5523 22.8025 19.5622 22.7993 19.5715 22.7952L19.5719 22.7948C19.6377 22.7696 19.6875 22.7278 19.7131 22.6686C19.7408 22.6043 19.743 22.5171 19.7097 22.4052C19.7035 22.3837 19.6963 22.3623 19.6883 22.3414L19.6879 22.3402C19.6879 22.3406 19.6879 22.341 19.6883 22.3414L19.5428 22.8051ZM18.1915 22.6929C18.1934 22.6626 18.193 22.629 18.1904 22.5929L18.0766 21.1903V21.1838C18.0766 21.1612 18.0572 21.1371 18.0316 21.1164H18.0314C17.9853 21.0792 17.9278 21.0566 17.8992 21.0566C17.8706 21.0566 17.8131 21.0792 17.767 21.1164H17.7668C17.7412 21.1371 17.7218 21.1612 17.7218 21.1838V21.1903L17.608 22.5929C17.6066 22.6123 17.6058 22.6318 17.6056 22.6512C17.6056 22.7709 17.6344 22.8544 17.6826 22.9073C17.7285 22.9579 17.7965 22.9838 17.8766 22.9892C17.8901 22.9904 17.902 22.9907 17.9121 22.9907H17.9168L18.1915 22.6929ZM17.9166 22.9909C17.9304 22.9917 17.9442 22.9917 17.9582 22.9909C18.0191 22.9866 18.0737 22.9629 18.1134 22.9183C18.1566 22.8701 18.1853 22.7958 18.1915 22.6932V22.6929V22.6932L17.9166 22.9909ZM16.6036 21.1016V21.102L16.6034 21.1024L16.6036 21.1016Z" fill="#FFD124"/>
<path fill-rule="evenodd" clip-rule="evenodd" d="M14.1213 19.2751C13.8686 19.4141 13.1487 19.6162 12.9462 19.1485C12.6556 19.3001 12.0619 19.4141 11.7713 19.0347C11.2913 19.1485 10.748 19.3887 10.5457 18.8327C10.1162 18.9464 9.05495 19.2116 8.94121 18.5168C8.30957 18.6056 7.39984 18.6685 7.2734 17.9991C6.7301 17.9991 5.79515 17.9106 5.79515 17.2915C5.25185 17.2915 4.30439 16.925 4.41794 16.483C3.92507 16.4324 3.26822 15.9145 3.26822 15.5732C2.78804 15.4216 2.24493 15.0553 2.35848 14.5625C2.06788 14.3856 1.58789 14.1833 1.58789 13.8929C1.58789 13.615 1.81537 13.375 2.06806 13.375C2.33327 13.375 3.30613 13.5267 3.64735 13.5267C3.98838 13.5267 8.13252 13.4381 9.10538 13.4887C10.0782 13.5519 11.3163 13.5267 11.9102 13.4633C12.5166 13.4129 15.0813 13.274 15.4352 13.9814C15.6879 14.4993 15.4984 14.6764 15.2711 14.8785C15.0311 15.0807 14.2603 15.4472 14.2603 16.66C14.2603 17.86 14.4121 18.4916 14.1213 19.2751Z" fill="black"/>
<path fill-rule="evenodd" clip-rule="evenodd" d="M2.49792 13.666C3.38225 13.666 5.4417 13.7291 5.84605 13.7291C6.25039 13.7291 9.08044 14.0449 9.5227 14.1839C9.72477 14.2472 9.77539 14.4493 9.5227 14.4618C9.28252 14.4745 6.36413 14.5124 5.93457 14.5124C5.50501 14.5124 2.56123 14.563 2.16959 14.0449C1.87879 13.666 2.24523 13.6785 2.49792 13.666ZM13.7423 16.8498C13.6033 16.7485 13.3379 17.0392 13.2369 17.2035C13.1485 17.3804 13.2117 17.4814 13.3127 17.532C13.4137 17.5699 13.5906 17.4689 13.6285 17.3804C13.6664 17.2793 13.8812 16.9887 13.7423 16.8498ZM13.6664 18.2141C13.4769 18.4541 13.2875 18.631 13.1736 18.7828C13.06 18.9218 13.1988 19.0732 13.3125 19.1111C13.439 19.149 13.6537 19.2757 13.9064 18.7576L13.6664 18.2141ZM12.8705 16.7993C12.7442 16.9383 12.4409 17.1531 12.6682 17.3172C12.8705 17.4562 12.984 17.3172 13.085 17.2162C13.1736 17.1152 13.5146 16.7739 13.3883 16.6223C13.2621 16.4833 12.9842 16.736 12.8705 16.7993ZM12.2136 16.6856C11.7967 16.9508 12.2642 17.1783 12.5294 16.9508C12.6684 16.8371 12.959 16.6096 12.8327 16.4454C12.719 16.3065 12.3399 16.6223 12.2136 16.6856ZM12.264 16.18C12.0618 16.2686 11.4303 16.4833 11.6324 16.7612C11.7461 16.8877 11.9482 16.7739 12.024 16.7233C12.1126 16.6727 12.5546 16.3696 12.4409 16.1927C12.4032 16.1296 12.3019 16.1548 12.264 16.18ZM11.1649 16.079C10.988 16.1927 11.0764 16.635 11.4807 16.4329C11.8976 16.2306 12.1882 16.0286 12.1251 15.8769C12.0618 15.738 11.5945 15.8515 11.1649 16.079ZM11.3418 15.4474C11.1649 15.5105 10.9754 15.5988 10.8364 15.6873C10.6974 15.7757 10.5837 16.1042 11.127 15.9653C11.683 15.8136 11.7082 15.624 11.6324 15.4978C11.5566 15.3715 11.3797 15.4347 11.3418 15.4474ZM10.6595 15.2201C10.5206 15.2326 10.3943 15.3463 10.4322 15.4728C10.4827 15.6244 10.8112 15.675 11.1649 15.498C11.5313 15.3084 11.5061 15.2707 11.4682 15.1694C11.4303 15.0684 11.0512 15.144 10.6595 15.2201ZM10.3058 14.7651C10.091 14.803 10.091 14.8913 10.1162 14.9674C10.1414 15.043 10.2552 15.182 10.6216 15.119C11.0006 15.0684 11.2028 14.9167 11.2028 14.7905C11.2028 14.6642 10.5331 14.7397 10.3058 14.7651ZM10.2552 14.3228C9.87605 14.3228 9.86354 14.7272 10.2931 14.702C10.6341 14.6895 11.0385 14.6007 11.0385 14.4747C11.026 14.3355 10.5331 14.3228 10.2552 14.3228ZM11.4807 14.4114C11.784 14.4114 12.8832 14.3861 13.199 14.4493C13.5148 14.4999 13.9066 14.5882 14.0708 14.8788C14.2224 15.119 13.9823 15.5107 13.8685 15.6748C13.7423 15.8265 13.4136 16.1423 13.2875 16.256C13.1738 16.3446 12.959 16.2054 13.1485 15.9907C12.9084 16.1298 12.6052 16.1044 12.7442 15.7632C12.5294 15.94 12.1757 15.9527 12.3905 15.5105C12.2515 15.6242 11.8472 15.6115 12.0999 15.2705C11.8851 15.3336 11.6451 15.2074 11.7967 14.9926C11.5313 15.0305 11.3672 14.8284 11.6576 14.6768C11.3924 14.7524 11.3164 14.4366 11.4807 14.4114ZM8.10739 13.6154C8.48634 13.6154 9.73729 13.6912 10.2046 13.6912C10.6593 13.6912 11.7207 13.666 12.0997 13.6406C12.4913 13.6152 13.5021 13.59 13.9064 13.6406C14.3108 13.6785 15.1951 13.7416 15.3468 14.1585C15.5109 14.5753 15.1699 14.8028 14.9551 14.9672C14.7403 15.1188 14.0708 15.5105 14.0454 16.5213C13.8812 16.4454 13.6285 16.4075 13.8054 16.0411C13.9064 15.839 14.3864 15.182 14.2729 14.8786C14.1591 14.5753 13.7927 14.3355 12.9461 14.2974C12.0997 14.2722 10.912 14.2974 10.4952 14.2345C10.0783 14.1587 8.48634 13.7543 8.15782 13.7164C8.00635 13.6912 8.00635 13.6281 8.10739 13.6154ZM13.0852 17.8606C12.8579 18.088 12.5167 18.467 12.2767 18.6691C12.1126 18.8207 12.2261 19.1111 12.5042 18.9849C12.7694 18.8586 13.2623 18.4039 13.4012 17.9616C13.2942 17.9336 13.1887 17.8998 13.0852 17.8606ZM12.4409 17.6458C12.0746 17.8985 11.2407 18.4543 11.1018 18.5553C10.9122 18.6819 10.8112 18.8964 11.1903 18.8711C11.5566 18.8332 12.2515 18.568 12.7948 17.772C12.719 17.7468 12.5294 17.6837 12.4409 17.6458ZM11.784 17.2668C11.5693 17.4058 10.1668 18.1385 9.52251 18.328C9.30773 18.4039 9.40877 18.6059 9.62355 18.6311C9.83833 18.6691 10.3816 18.6691 11.026 18.2772C11.4176 18.0499 11.9861 17.6331 12.163 17.4814C12.0745 17.4435 11.8851 17.33 11.784 17.2668ZM11.1903 16.7739C10.8618 16.9381 8.85296 17.772 8.08218 17.9491C7.8674 17.9997 7.75366 18.1639 8.00635 18.2522C8.27156 18.328 8.86547 18.2901 9.2319 18.1891C9.58563 18.088 11.0385 17.6206 11.5943 17.0773C11.4807 17.0266 11.2153 16.8371 11.1903 16.7739ZM6.45229 17.3804C6.80602 17.3045 9.71189 16.6477 10.5458 16.3317C10.7858 16.2559 10.8743 16.3317 10.912 16.4202C10.9627 16.5087 10.9752 16.635 10.811 16.7108C10.6593 16.7739 8.42303 17.6962 7.36183 17.7593C6.98288 17.7593 6.66688 17.6204 6.49001 17.5447C6.37665 17.4814 6.42707 17.4814 6.45229 17.3804ZM5.10048 16.635C5.60587 16.5719 8.9413 16.0411 9.83833 15.8013C10.2048 15.7127 10.3689 15.7507 10.4195 15.8517C10.4575 15.9529 10.4575 16.1298 10.2048 16.2181C9.93955 16.3067 6.99558 16.9889 6.45247 17.0268C5.90917 17.052 5.26484 16.9256 5.08797 16.7868C4.92362 16.6604 5.10048 16.635 5.10048 16.635ZM4.02659 15.738C4.39302 15.738 8.61278 15.4221 9.49711 15.2326C9.80041 15.2074 10.0025 15.1947 10.0277 15.3209C10.0529 15.4474 10.0404 15.5105 9.78771 15.5863C9.52251 15.6494 6.38916 16.2433 4.80988 16.2686C4.27928 16.256 3.66015 15.7505 4.02659 15.738ZM3.02852 14.7903C3.54641 14.803 6.12395 14.8155 6.42707 14.803C6.71768 14.7903 9.05504 14.6641 9.32024 14.6514C9.59815 14.6261 9.85084 14.702 9.85084 14.7903C9.85084 14.8786 9.80023 14.9545 9.48441 15.0176C9.16859 15.0934 6.26272 15.422 4.06431 15.384C3.64745 15.3966 3.09146 15.1818 2.9398 14.9797C2.80104 14.7776 2.95269 14.7903 3.02852 14.7903ZM14.6682 14.0255C14.5373 13.9599 14.6311 13.7717 14.762 13.8371C14.8683 13.8903 14.9818 13.9538 15.0726 14.0227C15.177 14.1019 15.2551 14.1921 15.2732 14.2918L15.2752 14.3017C15.2831 14.3959 15.2708 14.4874 15.2183 14.5843C15.1699 14.6736 15.0875 14.7642 14.954 14.8626C14.8361 14.9494 14.7121 14.7798 14.8298 14.6932C14.9363 14.6147 14.9994 14.5473 15.033 14.4849C15.0621 14.4312 15.069 14.3776 15.0647 14.3212C15.0532 14.2834 15.0069 14.2377 14.9448 14.1906C14.8655 14.1299 14.7639 14.0733 14.6682 14.0255Z" fill="#FFD124"/>
<path fill-rule="evenodd" clip-rule="evenodd" d="M21.8788 19.2751C22.1317 19.4141 22.8517 19.6162 23.0537 19.1485C23.3317 19.3001 23.9379 19.4141 24.2287 19.0347C24.7087 19.1485 25.252 19.3887 25.4542 18.8327C25.8836 18.9464 26.945 19.2116 27.0585 18.5168C27.6903 18.6056 28.6001 18.6685 28.7138 17.9991C29.2569 17.9991 30.2046 17.9106 30.2046 17.2915C30.7477 17.2915 31.6949 16.925 31.5816 16.483C32.0615 16.4324 32.7186 15.9145 32.7186 15.5732C33.2114 15.4216 33.7546 15.0553 33.641 14.5625C33.9314 14.3856 34.4114 14.1833 34.4114 13.8929C34.4114 13.615 34.1841 13.375 33.9314 13.375C33.6662 13.375 32.6934 13.5267 32.3523 13.5267C32.0109 13.5267 27.8543 13.4381 26.8818 13.4887C25.9086 13.5519 24.6834 13.5267 24.0767 13.4633C23.4831 13.4129 20.9181 13.274 20.5646 13.9814C20.299 14.4993 20.5011 14.6764 20.7287 14.8785C20.956 15.0807 21.7268 15.4472 21.7268 16.66C21.7272 17.86 21.5882 18.4916 21.8788 19.2751Z" fill="black"/>
<path fill-rule="evenodd" clip-rule="evenodd" d="M33.502 13.666C32.6046 13.666 30.5456 13.7291 30.1537 13.7291C29.7496 13.7291 26.9193 14.0449 26.4647 14.1839C26.275 14.2472 26.2244 14.4493 26.4647 14.4618C26.7173 14.4745 29.6358 14.5124 30.0654 14.5124C30.4948 14.5124 33.426 14.563 33.8302 14.0449C34.1083 13.666 33.7544 13.6785 33.502 13.666ZM22.2575 16.8498C22.3838 16.7485 22.6617 17.0392 22.75 17.2035C22.8514 17.3804 22.7756 17.4814 22.6745 17.532C22.5862 17.5699 22.409 17.4689 22.3714 17.3804C22.3333 17.2793 22.1185 16.9887 22.2575 16.8498ZM22.3333 18.2141C22.5227 18.4541 22.7123 18.631 22.8258 18.7828C22.9396 18.9218 22.7879 19.0732 22.6744 19.1111C22.5606 19.149 22.3457 19.2757 22.0933 18.7576L22.3333 18.2141ZM23.1293 16.7993C23.2556 16.9383 23.5587 17.1531 23.3187 17.3172C23.1293 17.4562 23.0029 17.3172 22.9145 17.2162C22.8258 17.1152 22.4848 16.7739 22.611 16.6223C22.7375 16.4833 23.0154 16.736 23.1293 16.7993ZM23.7862 16.6856C24.1903 16.9508 23.723 17.1783 23.4703 16.9508C23.3187 16.8371 23.0283 16.6096 23.1672 16.4454C23.2806 16.3065 23.6597 16.6223 23.7862 16.6856ZM23.7356 16.18C23.9376 16.2686 24.5695 16.4833 24.3674 16.7612C24.2536 16.8877 24.0516 16.7739 23.9755 16.7233C23.8872 16.6727 23.4324 16.3696 23.5462 16.1927C23.5966 16.1296 23.6976 16.1548 23.7356 16.18ZM24.8222 16.079C25.0115 16.1927 24.9232 16.635 24.5063 16.4329C24.1022 16.2306 23.8114 16.0286 23.8745 15.8769C23.9376 15.738 24.4053 15.8515 24.8222 16.079ZM24.6576 15.4474C24.8349 15.5105 25.0115 15.5988 25.1632 15.6873C25.3021 15.7757 25.4161 16.1042 24.8601 15.9653C24.3166 15.8136 24.2914 15.624 24.3672 15.4978C24.4432 15.3715 24.6074 15.4347 24.6576 15.4474ZM25.3274 15.2201C25.479 15.2326 25.6053 15.3463 25.5673 15.4728C25.5169 15.6244 25.1884 15.675 24.8349 15.498C24.4682 15.3084 24.4934 15.2707 24.5314 15.1694C24.5695 15.0684 24.9357 15.144 25.3274 15.2201ZM25.694 14.7651C25.9084 14.803 25.9084 14.8913 25.8833 14.9674C25.8454 15.043 25.7319 15.182 25.3655 15.119C24.9992 15.0684 24.7968 14.9167 24.7968 14.7905C24.7968 14.6642 25.4663 14.7397 25.694 14.7651ZM25.7444 14.3228C26.1233 14.3228 26.1233 14.7272 25.694 14.702C25.3653 14.6895 24.9611 14.6007 24.9611 14.4747C24.974 14.3355 25.4663 14.3228 25.7444 14.3228ZM24.5063 14.4114C24.2032 14.4114 23.1037 14.3861 22.7879 14.4493C22.4721 14.4999 22.0806 14.5882 21.9165 14.8788C21.7775 15.119 22.0175 15.5107 22.1312 15.6748C22.2446 15.8265 22.5733 16.1423 22.7123 16.256C22.8256 16.3446 23.0406 16.2054 22.8512 15.9907C23.0912 16.1298 23.3943 16.1044 23.2554 15.7632C23.4702 15.94 23.8241 15.9527 23.6093 15.5105C23.7483 15.6242 24.1524 15.6115 23.8997 15.2705C24.1145 15.3336 24.3547 15.2074 24.1905 14.9926C24.4684 15.0305 24.6203 14.8284 24.3422 14.6768C24.6074 14.7524 24.6832 14.4366 24.5063 14.4114ZM27.8922 13.6154C27.5132 13.6154 26.25 13.6912 25.795 13.6912C25.3401 13.6912 24.279 13.666 23.8997 13.6406C23.5083 13.6152 22.4975 13.59 22.0933 13.6406C21.6888 13.6785 20.8047 13.7416 20.6401 14.1585C20.4887 14.5753 20.8299 14.8028 21.0447 14.9672C21.2594 15.1188 21.9165 15.5105 21.9417 16.5213C22.1185 16.4454 22.3585 16.4075 22.1946 16.0411C22.0935 15.839 21.6006 15.182 21.7142 14.8786C21.8279 14.5753 22.2071 14.3355 23.0537 14.2974C23.8999 14.2722 25.0877 14.2974 25.4919 14.2345C25.9087 14.1587 27.5134 13.7543 27.8421 13.7164C27.9807 13.6912 27.9807 13.6281 27.8922 13.6154ZM22.9017 17.8606C23.1293 18.088 23.4831 18.467 23.723 18.6691C23.8745 18.8207 23.7606 19.1111 23.4954 18.9849C23.2175 18.8586 22.7246 18.4039 22.5983 17.9616C22.7018 17.9354 22.8032 17.9017 22.9017 17.8606ZM23.5462 17.6458C23.9124 17.8985 24.759 18.4543 24.898 18.5553C25.0874 18.6819 25.1759 18.8964 24.8093 18.8711C24.443 18.8332 23.7481 18.568 23.2046 17.772C23.2806 17.7468 23.4703 17.6837 23.5462 17.6458ZM24.2032 17.2668C24.4176 17.4058 25.8202 18.1385 26.4647 18.328C26.6792 18.4039 26.5781 18.6059 26.3633 18.6311C26.1613 18.6691 25.6053 18.6691 24.9611 18.2772C24.5822 18.0499 24.0135 17.6331 23.8366 17.4814C23.9251 17.4435 24.1145 17.33 24.2032 17.2668ZM24.8095 16.7739C25.1382 16.9381 27.147 17.772 27.9178 17.9491C28.1322 17.9997 28.2461 18.1639 27.9809 18.2522C27.728 18.328 27.1343 18.2901 26.7681 18.1891C26.4141 18.088 24.9613 17.6206 24.4055 17.0773C24.519 17.0266 24.7842 16.8371 24.8095 16.7739ZM29.5471 17.3804C29.1936 17.3045 26.2879 16.6477 25.454 16.3317C25.2136 16.2559 25.1253 16.3317 25.0874 16.4202C25.0369 16.5087 25.0242 16.635 25.1761 16.7108C25.3402 16.7739 27.5764 17.6962 28.6251 17.7593C29.0169 17.7593 29.3327 17.6204 29.5096 17.5447C29.6229 17.4814 29.5727 17.4814 29.5471 17.3804ZM30.8866 16.635C30.3937 16.5719 27.0583 16.0411 26.1613 15.8013C25.795 15.7127 25.6305 15.7507 25.5802 15.8517C25.5423 15.9529 25.5423 16.1298 25.795 16.2181C26.0602 16.3067 29.004 16.9889 29.5471 17.0268C30.0906 17.052 30.7347 16.9256 30.9118 16.7868C31.0763 16.6604 30.8866 16.635 30.8866 16.635ZM31.9605 15.738C31.6066 15.738 27.387 15.4221 26.5023 15.2326C26.1992 15.2074 25.9971 15.1947 25.9719 15.3209C25.9463 15.4474 25.9592 15.5105 26.2119 15.5863C26.4647 15.6494 29.5977 16.2433 31.1895 16.2686C31.7205 16.256 32.3394 15.7505 31.9605 15.738ZM32.9713 14.7903C32.4534 14.803 29.8758 14.8155 29.5727 14.803C29.2696 14.7903 26.9449 14.6641 26.6668 14.6514C26.4012 14.6261 26.136 14.702 26.136 14.7903C26.136 14.8786 26.1992 14.9545 26.515 15.0176C26.8308 15.0934 29.7367 15.422 31.9351 15.384C32.3519 15.3966 32.9079 15.1818 33.0469 14.9797C33.1985 14.7776 33.0344 14.7903 32.9713 14.7903ZM21.2251 13.8371C21.356 13.7717 21.4497 13.9599 21.3188 14.0255C21.2221 14.0737 21.1205 14.1305 21.0437 14.1897C20.9821 14.2375 20.938 14.2832 20.9343 14.3189H20.935C20.93 14.3772 20.9343 14.4319 20.9623 14.4861C20.9944 14.5473 21.0564 14.6134 21.1681 14.6915C21.2882 14.7754 21.167 14.9481 21.0471 14.8641C20.9059 14.7651 20.8228 14.6734 20.7757 14.5832C20.7251 14.4857 20.7167 14.3949 20.7244 14.3017L20.7255 14.301C20.7346 14.1979 20.8104 14.1049 20.916 14.0236C21.0064 13.9532 21.1194 13.8899 21.2251 13.8371Z" fill="#FFD124"/>
<path fill-rule="evenodd" clip-rule="evenodd" d="M17.8988 21.1698C20.3119 21.1698 22.2704 19.7169 22.2704 17.9102C22.2704 16.1288 20.3119 14.6758 17.8988 14.6758C15.4858 14.6758 13.5273 16.1288 13.5273 17.9102C13.5273 19.7169 15.4858 21.1698 17.8988 21.1698Z" fill="black"/>
<path d="M17.8993 20.8129C18.9844 20.8129 19.9662 20.4849 20.6757 19.9545C21.3768 19.4302 21.8109 18.708 21.8109 17.912C21.8109 17.127 21.3753 16.41 20.6724 15.8888C19.9632 15.3632 18.9827 15.0366 17.8991 15.0366C16.8155 15.0366 15.8352 15.3632 15.1261 15.8888C14.4229 16.41 13.9877 17.1268 13.9877 17.912C13.9877 18.708 14.4216 19.4302 15.1229 19.9545C15.8324 20.4849 16.814 20.8129 17.8993 20.8129ZM20.7874 20.1045C20.0473 20.6578 19.0258 21 17.8993 21C16.7727 21 15.7515 20.6578 15.011 20.1045C14.2634 19.5453 13.8008 18.7704 13.8008 17.9122C13.8008 17.065 14.2651 16.2954 15.0151 15.7394C15.7553 15.1906 16.775 14.8496 17.8991 14.8496C19.0232 14.8496 20.043 15.1906 20.7831 15.7394C21.5335 16.2955 21.9974 17.0652 21.9974 17.9122C21.9976 18.7704 21.5352 19.5451 20.7874 20.1045Z" fill="#FFD124"/>
<path fill-rule="evenodd" clip-rule="evenodd" d="M19.8195 16.7353C19.8195 16.2553 19.3143 15.5352 17.8612 15.5352C17.0021 15.5352 16.2819 15.7499 15.8525 16.1541C15.9536 16.2426 16.0671 16.3689 16.0671 16.5205V19.1358C16.0546 19.3 15.9786 19.4262 15.8651 19.5652C16.2694 19.8939 16.9515 20.1841 18.0129 20.1591C19.0743 20.1339 20.0595 19.7928 20.0595 18.8073C20.0595 18.3904 19.668 17.9734 19.2385 17.8346C19.1247 17.7967 19.1501 17.683 19.2385 17.645C19.3268 17.6071 19.8195 17.2282 19.8195 16.7353ZM18.0002 19.5937C18.4322 19.5937 18.773 19.2398 18.773 18.7949C18.773 18.3495 18.4324 17.996 18.0002 17.996C17.568 17.996 17.2275 18.3497 17.2275 18.7949C17.2275 19.2398 17.568 19.5937 18.0002 19.5937ZM17.9118 17.5565C18.2783 17.5565 18.5814 17.228 18.5814 16.8238C18.5814 16.4195 18.2783 16.091 17.9118 16.091C17.5454 16.091 17.2423 16.4195 17.2423 16.8238C17.2421 17.2282 17.5454 17.5565 17.9118 17.5565Z" fill="#FFD124"/>
</svg>
