<svg width="24" height="24" viewBox="0 0 24 24" fill="none" xmlns="http://www.w3.org/2000/svg">
<g clip-path="url(#clip0_463_9073)">
<path d="M12 0C5.37285 0 0 5.37234 0 11.9997C0 18.6271 5.37285 23.9995 12 23.9995C18.6277 23.9995 24 18.6271 24 11.9997C24 5.37234 18.6277 0 12 0ZM12 23.3995C5.70386 23.3995 0.600522 18.2957 0.600522 11.9997C0.600522 5.70386 5.70386 0.599836 12 0.599836C18.2962 0.599836 23.3999 5.70384 23.3999 11.9997C23.3999 18.2957 18.2962 23.3995 12 23.3995V23.3995Z" fill="#FFD124"/>
<path d="M23.4859 11.9993C23.4859 18.3422 18.343 23.4849 12 23.4849C5.65699 23.4849 0.514648 18.3422 0.514648 11.9993C0.514648 5.65601 5.65699 0.513672 12 0.513672C18.343 0.513672 23.4859 5.65601 23.4859 11.9993V11.9993Z" fill="black"/>
<path d="M23.3999 11.9995C23.3999 18.2955 18.2962 23.3992 12.0001 23.3992C5.70391 23.3992 0.600586 18.2955 0.600586 11.9995C0.600586 5.70363 5.70391 0.599609 12.0001 0.599609C18.2962 0.599609 23.3999 5.70363 23.3999 11.9995V11.9995Z" fill="black"/>
<path d="M19.643 12.0002C19.643 16.221 16.2212 19.6427 12.0002 19.6427C7.77921 19.6427 4.35742 16.2211 4.35742 12.0002C4.35742 7.77912 7.77921 4.35742 12.0002 4.35742C16.2212 4.3574 19.643 7.77915 19.643 12.0002V12.0002Z" fill="#FFD124"/>
<path d="M12.3061 4.15027L13.1 2.04608V4.15027H13.703V1.13672H12.7968L11.9726 3.29438H11.9804L11.1562 1.13672H10.25V4.15027H10.853V2.04608L11.6469 4.15027H12.3061ZM20.5812 5.50155L19.5509 7.00368L21.1691 6.20783L21.608 6.73416L19.0612 8.0129L18.5467 7.38989L19.5338 5.90145L19.528 5.89411L17.8859 6.59694L17.3655 5.97811L19.0827 3.70425L19.5217 4.23086L18.4464 5.67881L20.1105 4.93662L20.5812 5.50155Z" fill="black"/>
<path d="M6.66291 4.9273C6.42022 4.6917 6.04572 4.62068 5.69367 4.83892C5.76107 4.6646 5.73371 4.48715 5.6981 4.38873C5.54624 4.11263 5.49302 4.07771 5.36904 3.97297C4.96426 3.63384 4.53846 3.92341 4.23428 4.28593L2.76367 6.03857L5.07556 7.97818L6.62628 6.13039C6.98073 5.70806 7.03544 5.28937 6.66291 4.9273V4.9273ZM3.67223 5.77251L4.55558 4.71981C4.65809 4.59797 4.88954 4.60287 5.03796 4.72788C5.20151 4.86508 5.20201 5.05938 5.09215 5.1905L4.21863 6.23103L3.67223 5.77251V5.77251ZM6.10922 5.94754L5.18835 7.04497L4.61174 6.56033L5.53947 5.45443C5.64445 5.3294 5.87831 5.29304 6.03604 5.42533C6.2137 5.57477 6.23126 5.80206 6.10922 5.94754V5.94754Z" fill="black"/>
<path d="M12.313 4.03504L13.1069 1.9309V4.03504H13.7099V1.02148H12.8036L11.9795 3.17909H11.9873L11.1631 1.02148H10.2568V4.03504H10.8598V1.9309L11.6538 4.03504H12.313Z" fill="#FFD124"/>
<path d="M20.5872 5.29923L19.5575 6.8014L21.1756 6.0053L21.6141 6.53188L19.0677 7.81063L18.5531 7.18738L19.5404 5.69913L19.5346 5.69158L17.892 6.39469L17.3721 5.77556L19.0893 3.50195L19.5282 4.02835L18.4531 5.47628L20.1165 4.73437L20.5872 5.29923Z" fill="#FFD124"/>
<path d="M6.55458 4.86684C6.31241 4.63125 5.93742 4.56017 5.58589 4.77822C5.65275 4.60388 5.62543 4.42641 5.58982 4.32849C5.43794 4.05191 5.38522 4.01747 5.26019 3.91252C4.85544 3.57318 4.43016 3.86292 4.12645 4.22576L2.65527 5.97811L4.96723 7.91772L6.51793 6.06966C6.87197 5.64732 6.92711 5.2289 6.55458 4.86684V4.86684ZM3.56402 5.712L4.44727 4.65956C4.54936 4.53752 4.78076 4.54239 4.92968 4.66712C5.09325 4.80457 5.09375 4.99911 4.98338 5.12973L4.1104 6.17047L3.56402 5.712V5.712ZM6.00141 5.88703L5.08054 6.98442L4.50291 6.49979L5.43115 5.39366C5.53612 5.26892 5.76949 5.23253 5.92721 5.36487C6.10589 5.5145 6.12348 5.74131 6.00141 5.88703V5.88703Z" fill="#FFD124"/>
<path d="M4.61133 12C4.61133 7.91934 7.91933 4.61133 11.9997 4.61133C16.0805 4.61133 19.388 7.91932 19.388 12C19.388 16.0804 16.0805 19.3883 11.9997 19.3883C7.91928 19.3883 4.61133 16.0804 4.61133 12Z" fill="#FFD124"/>
<path d="M4.82422 12.0005C4.82422 8.03727 8.03697 4.82422 12.0002 4.82422C15.9635 4.82422 19.1767 8.03724 19.1767 12.0005C19.1767 15.9637 15.9634 19.1768 12.0002 19.1768C8.03699 19.1768 4.82422 15.9637 4.82422 12.0005Z" fill="#FFD124"/>
<path d="M4.8125 11.9997H11.9997V4.8125C8.03013 4.8125 4.8125 8.03014 4.8125 11.9997Z" fill="black"/>
<path d="M12 12V19.1872C15.9695 19.1872 19.1872 15.969 19.1872 12H12V12Z" fill="black"/>
<path d="M19.2464 11.8733H12.1271V4.75391H11.8722V11.8733H4.75293V12.1282H11.8722V19.2478H12.1271V12.1282H19.2464V11.8733Z" fill="#FFD124"/>
<path d="M12.127 4.95383C15.9184 5.02126 18.9779 8.08043 19.0457 11.8715H19.1726C19.1048 8.01011 15.9887 4.89358 12.127 4.82617L12.127 4.95383V4.95383Z" fill="#FFD124"/>
<path d="M4.9419 11.8714C5.00925 8.07509 8.07308 5.01149 11.8693 4.94385V4.81641C8.00233 4.88402 4.88233 8.00475 4.81445 11.8713L4.9419 11.8714V11.8714Z" fill="black"/>
<path d="M11.8727 19.045C8.08134 18.9777 5.02195 15.9183 4.95454 12.127H4.82715C4.89498 15.9886 8.01105 19.1052 11.8727 19.1726L11.8727 19.045Z" fill="#FFD124"/>
<path d="M19.0466 12.127C18.9788 15.9183 15.9193 18.9777 12.1279 19.045V19.1726C15.9896 19.1052 19.1062 15.9886 19.1736 12.127H19.0466V12.127Z" fill="black"/>
<path d="M11.7361 4.81641V11.7323H4.82031V11.8688H11.8723V4.81641H11.7361Z" fill="black"/>
<path d="M11.7248 19.1062V12.2734H4.87793V12.1387H11.8596V19.1062H11.7248Z" fill="#FFD124"/>
<path d="M12.2739 19.1062V12.2734H19.1067V12.1387H12.1396V19.1062H12.2739Z" fill="black"/>
<path d="M12.2739 4.87695V11.7097H19.1067V11.8442H12.1396V4.87695H12.2739Z" fill="#FFD124"/>
</g>
<defs>
<clipPath id="clip0_463_9073">
<rect width="24" height="24" fill="white"/>
</clipPath>
</defs>
</svg>
