<svg width="24" height="24" viewBox="0 0 24 24" fill="none" xmlns="http://www.w3.org/2000/svg">
<g clip-path="url(#clip0_463_9096)">
<path d="M19.9278 6.7228L19.5049 6.67228L11.9043 5.77539V6.07643L19.4755 6.96916L19.9278 6.7228Z" fill="black"/>
<path d="M11.9043 6.07617L19.4755 6.96821L18.3311 9.12392C18.3311 9.12392 18.1912 12.025 18.0991 13.1641C18.0049 14.3045 17.9814 15.1973 17.1651 15.5668C15.5317 16.3101 13.5148 16.9772 11.9043 17.3468V6.07617Z" fill="black"/>
<path d="M19.9278 6.72266L19.4755 6.96902L18.3311 9.12403L18.6121 9.16832L19.718 7.11435L19.9278 6.72266Z" fill="black"/>
<path d="M3.88281 6.7228L4.30307 6.67228L11.905 5.77539V6.07643L4.33445 6.96847L5.47758 9.12418C5.47758 9.12418 5.61811 12.0252 5.71288 13.1643C5.80569 14.3048 5.82856 15.1975 6.64621 15.5671C8.27955 16.3103 10.2952 16.9775 11.905 17.347V17.655C10.1939 17.2591 8.1083 16.5567 6.53445 15.8404C5.61026 15.4204 5.5351 14.4757 5.44817 13.3809L5.43314 13.1892C5.34752 12.1574 5.22072 9.61691 5.1985 9.16847L4.09066 7.11518L3.88281 6.7228Z" fill="black"/>
<path d="M3.88281 6.7228L4.30307 6.67228L11.9044 5.77539V6.07643L4.33379 6.96916L3.88281 6.7228Z" fill="black"/>
<path d="M11.9046 6.07617L4.33398 6.96821L5.47712 9.12392C5.47712 9.12392 5.61764 12.025 5.71242 13.1641C5.80523 14.3045 5.8281 15.1973 6.64575 15.5668C8.27908 16.3101 10.2948 16.9772 11.9046 17.3468V6.07617Z" fill="black"/>
<path d="M3.88281 6.72266L4.33379 6.96902L5.47693 9.12403L5.19785 9.16832L4.08935 7.11435L3.88281 6.72266Z" fill="black"/>
<path d="M18.3311 9.12305C18.3311 9.12305 18.1912 12.0241 18.0991 13.1632C18.005 14.3037 17.9814 15.1964 17.1651 15.566C15.5318 16.3092 13.5148 16.9763 11.9043 17.3459V17.6538C13.6148 17.258 15.7004 16.5556 17.2749 15.8393C18.1997 15.4192 18.2749 14.4746 18.3625 13.3798L18.3775 13.1881C18.4618 12.1563 18.5899 9.61578 18.6122 9.16734L18.3311 9.12305Z" fill="black"/>
<path d="M18.5903 9.16518C18.5701 9.58041 18.4413 12.1472 18.3564 13.1887C18.3564 13.1943 18.3407 13.3777 18.3407 13.3839C18.2544 14.4725 18.1786 15.406 17.2668 15.8206C15.689 16.5403 13.6086 17.2399 11.9047 17.633L11.8838 17.3292C13.4936 16.9569 15.5112 16.2918 17.1452 15.5486C17.9609 15.177 17.9851 14.2932 18.0779 13.1534C18.1727 12.0123 18.3119 9.11328 18.3119 9.11328L18.5903 9.16518Z" fill="black"/>
<path d="M18.5682 9.15994C18.5492 9.54056 18.4211 12.1357 18.3329 13.1835C18.3329 13.198 18.3185 13.371 18.3172 13.3842C18.2329 14.4672 18.1564 15.389 17.2577 15.798C15.6747 16.5198 13.5996 17.2153 11.9041 17.6063L11.8623 17.3039C13.4734 16.933 15.4891 16.2665 17.1218 15.5226C17.9388 15.1516 17.9636 14.2769 18.0558 13.1364C18.1499 11.9973 18.2891 9.09766 18.2891 9.09766L18.5682 9.15994Z" fill="black"/>
<path d="M18.548 9.15999C18.531 9.50393 18.401 12.1261 18.314 13.1842C18.3121 13.2022 18.2984 13.369 18.2977 13.3863C18.2127 14.4659 18.1369 15.3752 17.25 15.78C15.6624 16.5018 13.5918 17.196 11.9049 17.5856L11.8408 17.2845C13.4526 16.9136 15.4689 16.2465 17.1023 15.5046C17.9193 15.1323 17.9435 14.2666 18.0363 13.1261C18.131 11.9863 18.2689 9.08594 18.2689 9.08594L18.548 9.15999Z" fill="black"/>
<path d="M18.5252 9.15393C18.5102 9.46396 18.3794 12.1152 18.2919 13.1802C18.2892 13.2051 18.2768 13.3615 18.2755 13.3865C18.1892 14.4584 18.116 15.3588 17.2422 15.7567C15.6494 16.4813 13.5853 17.1726 11.9049 17.5595L11.8213 17.2619C13.4311 16.8903 15.4468 16.2259 17.0807 15.4806C17.8964 15.1096 17.9226 14.2515 18.016 13.1124C18.1089 11.9719 18.2487 9.07227 18.2487 9.07227L18.5252 9.15393Z" fill="black"/>
<path d="M18.5051 9.1519C18.4913 9.4294 18.358 12.1055 18.2711 13.181C18.2691 13.2107 18.2567 13.3602 18.2541 13.3893C18.1685 14.4564 18.0952 15.3464 17.2332 15.7374C15.6358 16.4626 13.5776 17.1512 11.905 17.5381L11.7998 17.2412C13.4109 16.8696 15.4266 16.2038 17.0586 15.4619C17.8763 15.0889 17.9018 14.2398 17.9946 13.1C18.0894 11.9609 18.2286 9.06055 18.2286 9.06055L18.5051 9.1519Z" fill="black"/>
<path d="M18.4826 9.14779C18.4702 9.39001 18.3375 12.0959 18.2486 13.1782C18.2453 13.2163 18.2336 13.3554 18.2309 13.3907C18.1479 14.4551 18.0741 15.3305 17.2237 15.7166C15.6244 16.4454 13.5688 17.1312 11.9048 17.5139L11.7773 17.2205C13.3891 16.8481 15.4054 16.1845 17.0388 15.4391C17.8551 15.0675 17.8806 14.2267 17.9728 13.0869C18.0675 11.9471 18.2081 9.04883 18.2081 9.04883L18.4826 9.14779Z" fill="black"/>
<path d="M18.4621 9.1445C18.4516 9.35211 18.3176 12.0843 18.2274 13.1763C18.2235 13.2186 18.2137 13.35 18.2091 13.3916C18.1261 14.449 18.0529 15.3141 17.2163 15.6926C15.6104 16.4255 13.5621 17.1064 11.9052 17.4891L11.7568 17.1978C13.3673 16.8262 15.383 16.1604 17.0176 15.4179C17.834 15.0455 17.8595 14.213 17.9542 13.0739C18.0457 11.9334 18.1856 9.03516 18.1856 9.03516L18.4621 9.1445Z" fill="black"/>
<path d="M18.4393 9.14121C18.4321 9.31283 18.2974 12.0748 18.2066 13.173C18.202 13.2222 18.1922 13.3454 18.1883 13.391C18.1046 14.445 18.0308 15.2969 17.2085 15.6727C15.5968 16.4056 13.5543 17.0852 11.9053 17.4651L11.7354 17.1758C13.3465 16.8035 15.3628 16.1384 16.9968 15.3952C17.8131 15.0243 17.8393 14.2007 17.9321 13.0609C18.0255 11.9218 18.1647 9.02148 18.1647 9.02148L18.4393 9.14121Z" fill="black"/>
<path d="M18.4188 9.13849C18.4109 9.2762 18.275 12.0644 18.1848 13.1717C18.1796 13.2285 18.1697 13.3399 18.1671 13.3938C18.0841 14.4409 18.0103 15.2831 17.1998 15.652C15.5848 16.3869 13.5469 17.0631 11.905 17.443L11.7148 17.1551C13.3246 16.7835 15.3416 16.1177 16.975 15.3745C17.7913 15.0028 17.8181 14.1876 17.9116 13.0485C18.005 11.908 18.1443 9.00977 18.1443 9.00977L18.4188 9.13849Z" fill="black"/>
<path d="M18.395 9.13519C18.3911 9.239 18.2538 12.0542 18.1623 13.1691C18.1564 13.2328 18.1499 13.3373 18.144 13.3947C18.061 14.4376 17.9871 15.2681 17.1898 15.63C15.5695 16.367 13.5375 17.0411 11.9035 17.4182L11.6924 17.1324C13.3022 16.7622 15.3185 16.0951 16.9525 15.3525C17.7688 14.9802 17.7956 14.1753 17.8891 13.0348C17.9826 11.8944 18.1224 8.99609 18.1224 8.99609L18.395 9.13519Z" fill="black"/>
<path d="M18.3754 9.12983C18.3709 9.19903 18.2343 12.044 18.1421 13.1679C18.1362 13.2357 18.1284 13.3312 18.1238 13.397C18.0415 14.4329 17.9676 15.2523 17.1826 15.6094C15.5585 16.3485 13.5323 17.0198 11.9055 17.3949L11.6729 17.1104C13.2827 16.7395 15.3009 16.0738 16.933 15.3298C17.7493 14.9589 17.7774 14.163 17.8696 13.0212C17.9643 11.8828 18.1042 8.98242 18.1042 8.98242L18.3754 9.12983Z" fill="black"/>
<path d="M18.3543 9.12918C18.3517 9.16309 18.2138 12.0344 18.1203 13.1672C18.1144 13.2399 18.1073 13.3278 18.1014 13.4012C18.019 14.4316 17.9465 15.2378 17.1733 15.5894C15.5452 16.332 13.5223 16.9998 11.9046 17.3728L11.6504 17.0925C13.2608 16.7202 15.2778 16.0538 16.9118 15.3119C17.7288 14.9382 17.7576 14.1513 17.8497 13.0102C17.9432 11.8711 18.0818 8.9707 18.0818 8.9707L18.3543 9.12918Z" fill="black"/>
<path d="M11.6299 17.0684C13.239 16.6961 15.256 16.0324 16.8887 15.2892C17.707 14.9162 17.7344 14.137 17.8285 12.9979C17.922 11.8581 18.0606 8.95703 18.0606 8.95703L18.3305 9.12381C18.3305 9.12381 18.1906 12.0248 18.0985 13.1639C18.0913 13.2435 18.0861 13.3224 18.0782 13.3999C17.9972 14.4262 17.9233 15.2221 17.1645 15.5667C15.5312 16.31 13.5142 16.9771 11.9037 17.3466L11.6299 17.0684Z" fill="black"/>
<path d="M5.47278 9.12305C5.47278 9.12305 5.61264 12.0241 5.70546 13.1632C5.79827 14.3037 5.8231 15.1964 6.63944 15.566C8.27343 16.3092 10.2898 16.9763 11.9002 17.3459V17.6538C10.1885 17.258 8.10284 16.5556 6.52964 15.8393C5.60349 15.4192 5.52898 14.4746 5.44271 13.3798L5.42702 13.1881C5.34271 12.1563 5.21461 9.61578 5.19238 9.16734L5.47278 9.12305Z" fill="black"/>
<path d="M5.21484 9.16518C5.23445 9.58041 5.36321 12.1472 5.44818 13.1887C5.44948 13.1943 5.46452 13.3777 5.46452 13.3839C5.54948 14.4725 5.62595 15.406 6.53772 15.8206C8.11549 16.5403 10.1972 17.2399 11.9004 17.633L11.9201 17.3292C10.3109 16.9569 8.29392 16.2918 6.66059 15.5486C5.84295 15.177 5.81942 14.2932 5.72595 13.1534C5.63445 12.0123 5.49327 9.11328 5.49327 9.11328L5.21484 9.16518Z" fill="black"/>
<path d="M5.23535 9.15994C5.25431 9.54056 5.38372 12.1357 5.46999 13.1835C5.46999 13.198 5.48437 13.371 5.48568 13.3842C5.5713 14.4672 5.64711 15.389 6.54515 15.798C8.12881 16.5198 10.2033 17.2153 11.9001 17.6063L11.9419 17.3039C10.3314 16.933 8.31509 16.2665 6.68241 15.5226C5.86411 15.1516 5.83993 14.2769 5.74646 13.1364C5.65365 11.9973 5.51378 9.09766 5.51378 9.09766L5.23535 9.15994Z" fill="black"/>
<path d="M5.25781 9.15999C5.27415 9.50393 5.40487 12.1261 5.49115 13.1842C5.49311 13.2022 5.50618 13.369 5.50749 13.3863C5.59376 14.4659 5.66827 15.3752 6.55454 15.78C8.14277 16.5018 10.2127 17.196 11.9009 17.5856L11.9637 17.2845C10.3532 16.9136 8.33623 16.2465 6.70421 15.5046C5.88592 15.1323 5.86239 14.2666 5.76827 13.1261C5.67415 11.9863 5.53559 9.08594 5.53559 9.08594L5.25781 9.15999Z" fill="black"/>
<path d="M5.27832 9.15393C5.29401 9.46396 5.42603 12.1152 5.51165 13.1802C5.51427 13.2051 5.52669 13.3615 5.5293 13.3865C5.61427 14.4584 5.68878 15.3588 6.56263 15.7567C8.15544 16.4813 10.2208 17.1726 11.9005 17.5595L11.9842 17.2619C10.3737 16.8903 8.35806 16.2259 6.72407 15.4806C5.90642 15.1096 5.88224 14.2515 5.78812 13.1124C5.69531 11.9719 5.55414 9.07227 5.55414 9.07227L5.27832 9.15393Z" fill="black"/>
<path d="M5.30078 9.1519C5.31451 9.4294 5.44784 12.1055 5.53477 13.181C5.53804 13.2107 5.55045 13.3602 5.55176 13.3893C5.63673 14.4564 5.71255 15.3464 6.57268 15.7374C8.17072 16.4626 10.2289 17.1512 11.9014 17.5381L12.0067 17.2412C10.3962 16.8696 8.38052 16.2038 6.74653 15.4619C5.92823 15.0889 5.90405 14.2398 5.81058 13.1C5.71647 11.9609 5.5766 9.06055 5.5766 9.06055L5.30078 9.1519Z" fill="black"/>
<path d="M5.32129 9.14779C5.33436 9.39001 5.46769 12.0959 5.55593 13.1782C5.55985 13.2163 5.57031 13.3554 5.57358 13.3907C5.65723 14.4551 5.73109 15.3305 6.57946 15.7166C8.18207 16.4454 10.2357 17.1312 11.9004 17.5139L12.0272 17.2205C10.4174 16.8481 8.39906 16.1845 6.76638 15.4391C5.94874 15.0675 5.9239 14.2267 5.82978 13.0869C5.73697 11.9471 5.59711 9.04883 5.59711 9.04883L5.32129 9.14779Z" fill="black"/>
<path d="M5.34473 9.1445C5.35388 9.35211 5.48786 12.0843 5.57937 13.1763C5.58198 13.2186 5.59244 13.35 5.59505 13.3916C5.68002 14.449 5.75322 15.3141 6.58852 15.6926C8.19571 16.4255 10.2441 17.1064 11.9016 17.4891L12.0486 17.1978C10.4382 16.8262 8.4225 16.1604 6.78852 15.4179C5.97152 15.0455 5.94473 14.213 5.85191 13.0739C5.75845 11.9334 5.61924 9.03516 5.61924 9.03516L5.34473 9.1445Z" fill="black"/>
<path d="M5.36426 9.14121C5.37275 9.31283 5.5087 12.0748 5.59955 13.173C5.60347 13.2222 5.61328 13.3454 5.6172 13.391C5.70086 14.445 5.77471 15.2969 6.59694 15.6727C8.20805 16.4056 10.2512 17.0852 11.9015 17.4651L12.0708 17.1758C10.4597 16.8035 8.44334 16.1384 6.81001 15.3952C5.99302 15.0243 5.96687 14.2007 5.87341 13.0609C5.7806 11.9218 5.64007 9.02148 5.64007 9.02148L5.36426 9.14121Z" fill="black"/>
<path d="M5.38672 9.13849C5.39391 9.2762 5.52986 12.0644 5.62005 13.1717C5.62528 13.2285 5.63509 13.3399 5.6377 13.3938C5.72136 14.4409 5.79587 15.2831 6.60633 15.652C8.22006 16.3869 10.2593 17.0631 11.9005 17.443L12.09 17.1551C10.4802 16.7835 8.4632 16.1177 6.82921 15.3745C6.01221 15.0028 5.98607 14.1876 5.8926 13.0485C5.79914 11.908 5.65927 9.00977 5.65927 9.00977L5.38672 9.13849Z" fill="black"/>
<path d="M5.4082 9.13519C5.41278 9.239 5.55003 12.0542 5.64219 13.1691C5.64742 13.2328 5.65461 13.3373 5.65984 13.3947C5.74415 14.4376 5.8167 15.2681 6.61408 15.63C8.23369 16.367 10.2677 17.0411 11.901 17.4182L12.1115 17.1324C10.5017 16.7622 8.48597 16.0951 6.85134 15.3525C6.03435 14.9802 6.00755 14.1753 5.91409 13.0348C5.82062 11.8944 5.68075 8.99609 5.68075 8.99609L5.4082 9.13519Z" fill="black"/>
<path d="M5.42969 9.12983C5.43361 9.19903 5.57086 12.044 5.66302 13.1679C5.6689 13.2357 5.67609 13.3312 5.68132 13.397C5.76367 14.4329 5.83688 15.2523 6.62185 15.6094C8.24734 16.3485 10.2741 17.0198 11.9003 17.3949L12.133 17.1104C10.5225 16.7395 8.50551 16.0738 6.87283 15.3298C6.05518 14.9589 6.02773 14.163 5.93426 13.0212C5.84015 11.8828 5.70093 8.98242 5.70093 8.98242L5.42969 9.12983Z" fill="black"/>
<path d="M5.45117 9.12918C5.45313 9.16309 5.59169 12.0344 5.68385 13.1672C5.69039 13.2399 5.69758 13.3278 5.70281 13.4012C5.78451 14.4316 5.85836 15.2378 6.63091 15.5894C8.25967 16.332 10.2819 16.9998 11.9008 17.3728L12.1544 17.0925C10.544 16.7202 8.52699 16.0538 6.89366 15.3119C6.07601 14.9382 6.04856 14.1513 5.95509 13.0102C5.86294 11.8711 5.72307 8.9707 5.72307 8.9707L5.45117 9.12918Z" fill="black"/>
<path d="M12.1759 17.0684C10.5654 16.6961 8.54976 16.0324 6.91513 15.2892C6.09944 14.9162 6.07003 14.137 5.97722 12.9979C5.88376 11.8581 5.7452 8.95703 5.7452 8.95703L5.47461 9.12381C5.47461 9.12381 5.61448 12.0248 5.70729 13.1639C5.71382 13.2435 5.72101 13.3224 5.72624 13.3999C5.8086 14.4262 5.8818 15.2221 6.64062 15.5667C8.2746 16.31 10.2909 16.9771 11.9014 17.3466L12.1759 17.0684Z" fill="black"/>
<path d="M11.904 6.06641L4.33275 6.95914L4.31641 6.96052L4.32359 6.97713L5.46739 9.13284L5.46673 9.12661C5.46739 9.15706 5.60726 12.0401 5.69941 13.1674L5.7151 13.3584C5.79876 14.4041 5.86346 15.229 6.64059 15.582C8.19811 16.2906 10.2138 16.9723 11.9027 17.364H11.9053H11.9079C13.5948 16.973 15.6125 16.2906 17.17 15.582C17.9465 15.229 18.0118 14.4041 18.0948 13.3584L18.1092 13.1674C18.202 12.0401 18.3419 9.15706 18.3439 9.12661L18.3419 9.13284L19.4844 6.97713L19.4922 6.96052L19.4772 6.95914L11.9066 6.06641H11.9053H11.904ZM19.4661 6.96468L18.3229 9.12108L18.3216 9.12384V9.12661C18.3197 9.15568 18.1798 12.0394 18.0876 13.1668L18.072 13.3571C17.9896 14.3937 17.9249 15.2117 17.1622 15.5598C15.6046 16.2678 13.5896 16.9501 11.9027 17.3384H11.9079C10.221 16.9501 8.2053 16.2678 6.64909 15.5598C5.88569 15.2117 5.81902 14.3937 5.73863 13.3571L5.72229 13.1668C5.63013 12.0394 5.49092 9.15637 5.48896 9.12661V9.12384L5.4883 9.12108L4.34451 6.96468L4.33667 6.98336L11.9073 6.09063H11.9046L19.4752 6.98336L19.4661 6.96468Z" fill="black"/>
<path d="M8.89412 0.579972C4.59936 1.908 0.883675 5.299 0.883675 11.0243C0.883675 16.9128 5.65752 21.9294 11.9085 22.272L11.9072 23.4236C6.41112 23.4236 0.0791016 18.6443 0.0791016 11.3343C0.0791016 5.05056 3.75949 1.87893 8.14772 0.382049C8.20196 0.370976 8.26013 0.373744 8.31112 0.384817C8.4987 0.424955 8.69151 0.467861 8.89412 0.579972Z" fill="black"/>
<path d="M11.9149 23.7837C4.86257 23.7837 -0.208008 17.4308 -0.208008 11.3934C-0.208008 9.17055 1.23382 4.21484 4.41355 4.21484C3.75342 4.91311 1.92402 7.23284 1.92402 10.5526C1.92402 15.111 4.83382 20.0681 11.9077 20.8231C13.79 21.0245 15.4541 23.7837 11.9149 23.7837Z" fill="black"/>
<path d="M11.8444 20.8402C13.4386 21.0008 14.7908 22.9489 13.132 23.5433C12.8085 23.6582 12.3738 23.7253 11.8078 23.7205C5.12287 23.6624 0.271232 17.9544 -0.135957 12.1807C-0.154912 11.9129 -0.164062 11.6471 -0.164062 11.3828C-0.156873 9.58346 0.756853 6.18692 2.66012 4.85336C3.15293 4.51495 3.71568 4.32256 4.35489 4.34332C3.82548 4.9364 2.56273 6.55785 2.10391 8.86581C1.99411 9.42291 1.93006 10.0174 1.93398 10.6464C1.96012 15.2146 4.9209 20.1136 11.8444 20.8402Z" fill="black"/>
<path d="M11.7806 20.8568C13.3923 21.0125 14.6734 22.942 13.0139 23.4984C12.6897 23.6049 12.2583 23.6658 11.7008 23.6575C5.06815 23.5433 0.294954 17.9247 -0.095242 12.1634C-0.112889 11.8997 -0.122693 11.6347 -0.12204 11.3724C-0.108314 9.52811 0.822405 6.19662 2.68515 4.90527C3.15378 4.59593 3.68711 4.43261 4.29168 4.47551C3.76946 5.09628 2.54136 6.71427 2.09953 8.97655C1.99626 9.53019 1.93613 10.1205 1.94136 10.7433C1.99691 15.3184 5.00672 20.1599 11.7806 20.8568Z" fill="black"/>
<path d="M11.7181 20.8717C13.3442 21.0191 14.5554 22.932 12.8972 23.4496C12.5704 23.5499 12.1423 23.6039 11.5959 23.5929C5.01353 23.4205 0.322025 17.896 -0.0544456 12.1437C-0.0720927 11.8821 -0.0792822 11.6191 -0.0779751 11.3582C-0.0583672 9.46965 0.888037 6.20321 2.71287 4.95477C3.15536 4.67518 3.65928 4.53885 4.23183 4.6039C3.71549 5.25027 2.52333 6.86619 2.0998 9.08419C1.99849 9.63436 1.94425 10.2184 1.95143 10.8344C2.03313 15.4184 5.09326 20.2025 11.7181 20.8717Z" fill="black"/>
<path d="M11.6544 20.8888C13.2982 21.032 14.4374 22.9248 12.7792 23.4057C12.4511 23.4957 12.0269 23.5448 11.4871 23.5296C4.9583 23.2999 0.344574 17.868 -0.014249 12.1269C-0.0305888 11.8667 -0.0377785 11.6064 -0.0358177 11.3497C-0.0103275 9.41683 0.951763 6.21129 2.73869 5.00783C3.15568 4.75731 3.62954 4.64935 4.17006 4.73724C3.6596 5.4106 2.50144 7.02444 2.09621 9.19606C2.00078 9.74278 1.9498 10.3234 1.96026 10.9324C2.07072 15.522 5.17986 20.2487 11.6544 20.8888Z" fill="black"/>
<path d="M11.5923 20.9047C13.2518 21.0424 14.3204 22.9172 12.6629 23.3587C12.3328 23.4424 11.9126 23.4846 11.3831 23.466C4.90536 23.1781 0.371373 17.839 0.0301964 12.1075C0.0132029 11.8487 0.00666723 11.5933 0.00797442 11.3365C0.0413078 9.36007 1.01974 6.21751 2.7668 5.05903C3.1583 4.8355 3.6034 4.75591 4.11255 4.86456C3.60602 5.5656 2.48379 7.17737 2.09687 9.30401C2.00536 9.84727 1.9583 10.4237 1.97137 11.0244C2.10798 15.6258 5.26746 20.295 11.5923 20.9047Z" fill="black"/>
<path d="M11.5279 20.9215C13.2057 21.0496 14.2024 22.9091 12.5456 23.3132C12.2148 23.3887 11.7972 23.4247 11.2756 23.4025C4.84947 23.0572 0.397175 17.8115 0.0697238 12.0904C0.0540375 11.835 0.0488088 11.5783 0.0514232 11.325C0.0899854 9.30493 1.08476 6.22604 2.7926 5.10909C3.15862 4.91808 3.57496 4.86479 4.04947 4.99628C3.55077 5.725 2.46123 7.33331 2.09456 9.41358C2.00829 9.95476 1.96515 10.5243 1.98018 11.1195C2.14489 15.7285 5.35339 20.3388 11.5279 20.9215Z" fill="black"/>
<path d="M11.4646 20.9381C13.1581 21.0606 14.0849 22.9014 12.4274 23.2661C12.096 23.3333 11.681 23.363 11.1692 23.3388C4.79534 22.936 0.421485 17.7824 0.111028 12.0723C0.0966489 11.8191 0.0914201 11.5651 0.0946881 11.3139C0.14044 9.24882 1.15024 6.23221 2.81887 5.16024C3.1607 4.99761 3.54763 4.9727 3.99011 5.12494C3.49469 5.88065 2.44305 7.48688 2.09338 9.52287C2.01037 10.0613 1.97116 10.6267 1.98946 11.2142C2.18227 15.8315 5.44044 20.3852 11.4646 20.9381Z" fill="black"/>
<path d="M11.4015 20.9517C13.1119 21.0694 13.9668 22.8922 12.3113 23.2188C11.976 23.2797 11.5662 23.304 11.0629 23.2735C4.74136 22.8147 0.446589 17.7531 0.152471 12.0527C0.137439 11.8008 0.132863 11.5496 0.137438 11.3005C0.188418 9.19254 1.21587 6.23821 2.84528 5.21191C3.16162 5.07697 3.51848 5.08181 3.92894 5.25482C3.4394 6.03821 2.42241 7.64236 2.09103 9.63129C2.01325 10.1662 1.976 10.7268 1.99822 11.3088C2.21914 15.9323 5.52763 20.4285 11.4015 20.9517Z" fill="black"/>
<path d="M11.339 20.9692C13.0652 21.0806 13.8495 22.8848 12.1933 23.1727C11.8573 23.2267 11.4501 23.2426 10.9554 23.2114C4.68675 22.6938 0.471062 17.7256 0.19263 12.0349C0.178905 11.7844 0.175637 11.5367 0.178905 11.2903C0.238382 9.13668 1.28021 6.2481 2.87106 5.26332C3.16126 5.15882 3.49002 5.19204 3.86845 5.3865C3.38544 6.19619 2.40178 7.79827 2.08871 9.74014C2.0142 10.2737 1.98413 10.8287 2.00766 11.4038C2.25603 16.0363 5.6142 20.4758 11.339 20.9692Z" fill="black"/>
<path d="M11.2761 20.9845C13.0199 21.089 13.733 22.8759 12.0781 23.1264C11.7408 23.1714 11.3343 23.1839 10.8506 23.1465C4.63494 22.5714 0.497027 17.6967 0.234935 12.0157C0.22317 11.7686 0.218595 11.5216 0.223824 11.28C0.289183 9.08003 1.34932 6.25304 2.89964 5.31463C3.165 5.23851 3.46304 5.29871 3.80945 5.51671C3.33102 6.35339 2.38396 7.9527 2.08918 9.85097C2.0199 10.3797 1.99245 10.9299 2.01925 11.5001C2.29311 16.1382 5.70096 20.5202 11.2761 20.9845Z" fill="black"/>
<path d="M11.2133 21.0001C12.9734 21.0977 13.6152 22.8686 11.961 23.0797C11.6211 23.1171 11.2198 23.1219 10.744 23.0811C4.57993 22.4492 0.521755 17.6659 0.276657 11.9973C0.264892 11.751 0.261624 11.5074 0.267507 11.2665C0.338749 9.02502 1.41391 6.26101 2.92568 5.36343C3.1662 5.31706 3.43614 5.40565 3.7479 5.64509C3.27666 6.50807 2.36359 8.1053 2.08777 9.95859C2.0211 10.4845 1.99888 11.0306 2.02633 11.5918C2.33091 16.2402 5.78842 20.5655 11.2133 21.0001Z" fill="black"/>
<path d="M11.1486 21.0173C12.9258 21.1086 13.4977 22.8615 11.8434 23.0352C11.5029 23.0622 11.1042 23.0622 10.6375 23.0186C4.52576 22.3287 0.546672 17.6387 0.318567 11.9806C0.308109 11.7363 0.304841 11.4961 0.31007 11.2567C0.388501 8.97019 1.48001 6.26846 2.95255 5.41794C3.16824 5.39926 3.40746 5.51621 3.68785 5.77711C3.22184 6.66777 2.34471 8.26293 2.08654 10.0692C2.02641 10.5923 2.00484 11.1342 2.03687 11.6885C2.36759 16.3432 5.87543 20.6103 11.1486 21.0173Z" fill="black"/>
<path d="M11.0855 21.0328C12.8797 21.1172 13.3797 22.8535 11.7267 22.9885C11.3849 23.0106 10.9901 23.0009 10.5313 22.9546C4.47052 22.2065 0.571829 17.6113 0.360064 11.9629C0.35026 11.72 0.347646 11.4805 0.354182 11.2438C0.43915 8.91374 1.54568 6.27636 2.98032 5.46875C3.16921 5.47913 3.38098 5.62377 3.62869 5.90681C3.16856 6.82585 2.32412 8.41824 2.08621 10.1781C2.02738 10.6978 2.013 11.2342 2.0483 11.7836C2.40516 16.4466 5.96137 20.6556 11.0855 21.0328Z" fill="black"/>
<path d="M11.0225 21.0502C12.8329 21.1284 13.2617 22.8454 11.6094 22.9436C11.2656 22.9554 10.8735 22.9436 10.4244 22.8917C4.4166 22.0869 0.596335 17.5838 0.400257 11.9457C0.39176 11.7049 0.389799 11.4682 0.396988 11.235C0.487838 8.85989 1.61137 6.28481 3.00614 5.52148C3.17085 5.56162 3.35124 5.73463 3.56758 6.03775C3.11137 6.98446 2.30352 8.57408 2.08326 10.2897C2.03097 10.8066 2.01921 11.3367 2.05581 11.8786C2.44209 16.5499 6.04862 20.7021 11.0225 21.0502Z" fill="black"/>
<path d="M10.9597 21.0665C12.7865 21.1371 13.1447 22.8368 11.4924 22.8956C11.146 22.9025 10.7591 22.8831 10.3185 22.8285C4.36299 21.9655 0.621171 17.5544 0.441433 11.9281C0.432283 11.6887 0.432283 11.4547 0.441433 11.2222C0.536858 8.80146 1.67803 6.29142 3.03293 5.57031C3.17215 5.64159 3.32378 5.84159 3.50744 6.16824C3.05777 7.14125 2.28391 8.7281 2.08261 10.3973C2.03359 10.9108 2.02705 11.4381 2.06757 11.971C2.47934 16.652 6.13489 20.7468 10.9597 21.0665Z" fill="black"/>
<path d="M10.8962 21.0833C12.7406 21.1483 13.0249 22.8293 11.3752 22.85C11.0282 22.8487 10.6432 22.8237 10.2118 22.7642C4.30924 21.8438 0.64584 17.5255 0.482441 11.9089C0.475905 11.6736 0.475905 11.4403 0.482441 11.2106C0.58767 8.74623 1.74322 6.29779 3.05826 5.62305C3.17329 5.72201 3.29486 5.95038 3.44649 6.2971C3.00205 7.29917 2.26479 8.88464 2.07983 10.5061C2.03669 11.0182 2.03342 11.5386 2.0759 12.0666C2.51643 16.7559 6.2223 20.7926 10.8962 21.0833Z" fill="black"/>
<path d="M10.8324 21.0987C12.6938 21.1569 12.9088 22.8212 11.2579 22.8039C10.9095 22.7929 10.5278 22.761 10.1056 22.6994C4.25589 21.7223 0.671573 17.496 0.525821 11.8891C0.518632 11.6558 0.518631 11.4247 0.526474 11.1991C0.638239 8.69182 1.81079 6.30635 3.08661 5.67383C3.1755 5.80255 3.26831 6.0586 3.38792 6.42815C2.9487 7.45583 2.24543 9.03853 2.08072 10.6157C2.03955 11.1237 2.04151 11.6406 2.08661 12.1617C2.55327 16.8579 6.31014 20.8365 10.8324 21.0987Z" fill="black"/>
<path d="M10.7687 21.1162C12.6465 21.1681 12.7902 22.8138 11.1406 22.7598C10.7902 22.7411 10.4118 22.7037 9.99875 22.638C4.19875 21.6027 0.696133 17.4691 0.565414 11.8733C0.558878 11.6407 0.560839 11.4138 0.569335 11.1882C0.686982 8.6366 1.87456 6.3148 3.11247 5.72656C3.17587 5.88366 3.23862 6.16739 3.32489 6.55978C2.89221 7.61376 2.22358 9.19507 2.07652 10.7266C2.04319 11.2331 2.04711 11.7432 2.09417 12.258C2.58894 16.9612 6.39483 20.8837 10.7687 21.1162Z" fill="black"/>
<path d="M10.7072 21.1297C12.6 21.1754 12.6719 22.8045 11.0235 22.711C10.6719 22.6861 10.2967 22.6418 9.89216 22.5726C4.14641 21.4792 0.720916 17.4391 0.606537 11.8522C0.601308 11.6231 0.602616 11.3975 0.61242 11.1747C0.735296 8.57954 1.94118 6.32003 3.13922 5.77539C3.17647 5.96155 3.21111 6.27366 3.26471 6.68819C2.83856 7.76916 2.20458 9.34702 2.07582 10.8335C2.04575 11.3366 2.0536 11.8432 2.10458 12.3505C2.6268 17.0633 6.4817 20.9269 10.7072 21.1297Z" fill="black"/>
<path d="M10.6448 21.1452C12.5533 21.184 12.5553 22.7971 10.9076 22.6636C10.5533 22.6303 10.1821 22.5798 9.78533 22.5065C4.09187 21.3577 0.746116 17.4096 0.647423 11.8338C0.643501 11.6061 0.645462 11.3833 0.654612 11.1625C0.786638 8.52167 2.0069 6.3279 3.16572 5.82617C3.17945 6.0414 3.18272 6.38326 3.20429 6.81787C2.78272 7.92652 2.18599 9.5023 2.07487 10.9424C2.04808 11.4421 2.06115 11.9438 2.11409 12.4449C2.66376 17.166 6.56965 20.9708 10.6448 21.1452Z" fill="black"/>
<path d="M10.5806 21.1626C12.5081 21.1966 12.4381 22.791 10.7898 22.6187C10.4355 22.5779 10.0656 22.5218 9.67932 22.445C4.03683 21.2374 0.770817 17.3827 0.689118 11.8159C0.685196 11.591 0.688464 11.3703 0.698268 11.153C0.834869 8.46852 2.07212 6.33565 3.19239 5.87891C3.18062 6.12389 3.15448 6.49206 3.14468 6.94949C2.72834 8.08513 2.16559 9.65953 2.07278 11.054C2.05121 11.5502 2.0669 12.0471 2.12441 12.5405C2.70154 17.2671 6.65644 21.0173 10.5806 21.1626Z" fill="black"/>
<path d="M10.5166 21.1788C12.4604 21.2044 12.3192 22.7823 10.6715 22.5726C10.316 22.5228 9.95061 22.4598 9.57218 22.3795C3.98264 21.1159 0.795062 17.3532 0.730357 11.7989C0.727742 11.5747 0.73101 11.3546 0.740814 11.1408C0.883951 8.41204 2.1382 6.34284 3.2199 5.92969C3.18199 6.20443 3.12643 6.59958 3.08329 7.07779C2.67284 8.24042 2.14473 9.81204 2.07022 11.1615C2.05258 11.6556 2.07415 12.1477 2.13232 12.6328C2.7382 17.3705 6.74212 21.0626 10.5166 21.1788Z" fill="black"/>
<path d="M10.453 21.1964C12.4131 21.2151 12.202 22.7729 10.5543 22.5265C10.1968 22.4684 9.83338 22.3992 9.46541 22.3161C3.92815 20.995 0.819648 17.3244 0.771282 11.7791C0.768668 11.5583 0.772589 11.3417 0.784354 11.1286C0.933373 8.35556 2.20265 6.35071 3.24514 5.98047C3.18239 6.28358 3.09873 6.7085 3.02292 7.20884C2.61834 8.39915 2.12488 9.96732 2.06932 11.2711C2.05494 11.7618 2.08109 12.249 2.14252 12.7293C2.7739 17.4746 6.8288 21.1078 10.453 21.1964Z" fill="black"/>
<path d="M10.3913 21.2119C12.3672 21.225 12.0855 22.7655 10.4384 22.4811C10.0789 22.4174 9.72009 22.342 9.36061 22.2534C3.87563 20.8735 0.846871 17.297 0.813538 11.762C0.812884 11.5427 0.81746 11.3274 0.828571 11.1184C0.985434 8.30114 2.2704 6.3572 3.27302 6.03125C3.18544 6.36412 3.07171 6.81602 2.96387 7.33852C2.56452 8.55582 2.10635 10.1219 2.06975 11.38C2.0606 11.8672 2.08936 12.3496 2.15276 12.8222C2.81289 17.578 6.91616 21.1544 10.3913 21.2119Z" fill="black"/>
<path d="M10.3276 21.2272C12.321 21.2334 11.9661 22.7587 10.321 22.4341C9.9609 22.3615 9.60469 22.2805 9.25241 22.1892C3.82104 20.7518 0.870714 17.2667 0.855028 11.7442C0.852414 11.5262 0.859603 11.3144 0.871368 11.1068C1.03477 8.24384 2.33607 6.36426 3.29882 6.08398C3.1864 6.44454 3.04391 6.92551 2.90208 7.46876C2.50862 8.71443 2.08575 10.2778 2.06745 11.4888C2.06287 11.9739 2.0962 12.4515 2.16222 12.9179C2.84784 17.6777 7.00208 21.1982 10.3276 21.2272Z" fill="black"/>
<path d="M10.205 22.388C4.14355 21.0538 0.896484 17.5901 0.896484 11.7258C0.896484 8.4531 2.33636 6.38874 3.32721 6.13477C2.87623 7.40466 2.06642 9.914 2.06642 11.5998C2.06642 17.0822 6.78343 21.2434 10.2645 21.2434C12.2736 21.2434 11.8488 22.75 10.205 22.388Z" fill="black"/>
<path d="M14.4732 0.923828C14.468 0.928672 14.4647 0.934209 14.4608 0.940437L14.4425 0.990956C17.9517 2.1522 21.8909 5.40618 21.8909 10.548C21.8909 15.0159 18.9536 20.1826 11.9072 20.8228L11.9085 21.121C18.9582 20.4768 22.1242 15.0982 22.1242 10.7107C22.1242 5.57019 18.6484 2.08923 14.4732 0.923828Z" fill="black"/>
<path d="M14.918 0.576449C19.2121 1.90448 22.9402 5.29825 22.9402 11.0235C22.9402 16.9121 18.1592 21.9287 11.9076 22.2713L11.9062 23.4228C17.4023 23.4228 23.7344 18.6401 23.7344 11.3294C23.7344 5.04704 20.0527 1.87472 15.6638 0.377141C15.6082 0.365376 15.5376 0.372988 15.4879 0.381293C15.4056 0.39375 15.2958 0.420739 15.1696 0.46157C15.0834 0.494095 14.9781 0.542539 14.918 0.576449Z" fill="black"/>
<path d="M14.4727 0.924146C18.6478 2.08954 22.1236 5.57051 22.1236 10.7117L22.9406 11.0252C22.9406 5.29992 19.2125 1.90546 14.9184 0.578125C14.7178 0.676395 14.557 0.822416 14.4727 0.924146Z" fill="black"/>
<path d="M22.9415 11.0237C22.9415 16.9123 18.1657 21.931 11.9141 22.2736V21.1213C18.9618 20.4784 22.1245 15.0985 22.1245 10.7109L22.9415 11.0237Z" fill="black"/>
<path d="M9.34064 0.926792C5.16613 2.09288 1.68967 5.57454 1.68967 10.7136C1.68967 15.1012 4.86221 20.477 11.9086 21.1213V22.2721C5.65764 21.9296 0.883789 16.913 0.883789 11.0244C0.883789 5.29911 4.60012 1.9088 8.89423 0.580078C9.04979 0.656895 9.24652 0.808453 9.34064 0.926792Z" fill="black"/>
<path d="M1.92344 10.554C1.92344 5.41147 5.86003 2.15818 9.36917 0.995554L9.35022 0.945727C9.34695 0.938115 9.34433 0.932579 9.34041 0.927734C5.16591 2.09382 1.68945 5.57549 1.68945 10.7146C1.68945 15.1021 4.86199 20.4779 11.9084 21.1222L11.9071 20.8239C4.86395 20.1838 1.92344 14.9388 1.92344 10.554Z" fill="black"/>
<path d="M14.4677 0.931435C15.5174 1.22486 16.5076 1.65946 17.4115 2.22417C18.3455 2.80687 19.1664 3.51483 19.8474 4.32867C20.5677 5.18195 21.1239 6.14043 21.505 7.1778C21.9095 8.28022 22.1141 9.46846 22.1141 10.7114C22.1141 11.8256 21.9063 12.9958 21.5108 14.0948C21.084 15.2781 20.4592 16.3619 19.652 17.3134C18.7729 18.3522 17.7043 19.1993 16.4749 19.8318C15.1232 20.5273 13.5866 20.9577 11.9082 21.1121L11.9095 21.1294C13.5899 20.9764 15.1291 20.546 16.4821 19.8477C17.7141 19.2145 18.7853 18.3653 19.6657 17.3259C20.4736 16.3716 21.0984 15.2865 21.5272 14.1003C21.9233 12.9999 22.1331 11.8262 22.1331 10.7114C22.1331 9.46638 21.9265 8.27538 21.5213 7.17226C21.1409 6.13282 20.5821 5.17227 19.8638 4.31759C19.1775 3.50237 18.3559 2.79233 17.4213 2.20894C16.518 1.64424 15.5285 1.21033 14.4821 0.91621C14.4775 0.914134 14.4631 0.929359 14.4677 0.931435Z" fill="black"/>
<path d="M11.8099 24.0162C18.8608 24.0162 24.0275 17.4308 24.0275 11.3934C24.0275 9.17055 22.587 4.21484 19.4059 4.21484C20.0661 4.91311 21.8961 7.23284 21.8961 10.5526C21.8961 15.111 18.985 20.0681 11.9112 20.8231C10.0282 21.0245 8.26869 24.0162 11.8099 24.0162Z" fill="black"/>
<path d="M11.8647 23.9533C18.8679 23.8904 23.949 17.444 23.949 11.4156C23.949 9.14157 22.5098 4.32288 19.4313 4.3125C20.0817 5.03776 21.8653 7.36648 21.8653 10.6073C21.8653 15.2115 18.8673 20.1298 11.964 20.8495C10.0758 21.0398 8.35879 23.9831 11.8647 23.9533Z" fill="black"/>
<path d="M11.9215 23.8933C18.8771 23.7681 23.8712 17.456 23.8712 11.4366C23.8712 9.1127 22.4307 4.43242 19.4568 4.4082C20.098 5.16114 21.8313 7.49817 21.8313 10.6622C21.8313 15.3099 18.7477 20.1909 12.0163 20.8739C10.1209 21.056 8.44766 23.9522 11.9215 23.8933Z" fill="black"/>
<path d="M11.9747 23.8346C18.8844 23.6463 23.7929 17.4713 23.7929 11.4609C23.7929 9.08579 22.3511 4.54323 19.4818 4.50586C20.1126 5.28717 21.7975 7.6325 21.7975 10.7183C21.7975 15.4097 18.6282 20.2519 12.0681 20.901C10.1668 21.074 8.53544 23.9225 11.9747 23.8346Z" fill="black"/>
<path d="M12.0294 23.7724C18.8928 23.5212 23.7124 17.4845 23.7124 11.4803C23.7124 9.05681 22.2719 4.65196 19.5065 4.60352C20.1275 5.41251 21.7634 7.76615 21.7634 10.7758C21.7634 15.5087 18.5092 20.3149 12.119 20.9274C10.2131 21.09 8.62483 23.89 12.0294 23.7724Z" fill="black"/>
<path d="M12.0854 23.7123C18.9011 23.3988 23.6331 17.4998 23.6331 11.5026C23.6331 9.0299 22.1939 4.76207 19.5338 4.70117C20.1449 5.53577 21.7311 7.89979 21.7311 10.8313C21.7311 15.6098 18.3906 20.3773 12.1717 20.9531C10.2592 21.106 8.71349 23.8604 12.0854 23.7123Z" fill="black"/>
<path d="M12.1403 23.6521C18.9089 23.275 23.556 17.513 23.556 11.5241C23.556 9.00091 22.1148 4.8708 19.5605 4.79883C20.1592 5.6618 21.6984 8.03482 21.6984 10.886C21.6984 15.7109 18.271 20.4404 12.2246 20.9788C10.305 21.1241 8.80302 23.8279 12.1403 23.6521Z" fill="black"/>
<path d="M12.1961 23.592C18.9183 23.1518 23.4752 17.5269 23.4752 11.547C23.4752 8.97399 22.036 4.98091 19.585 4.89648C20.1758 5.78576 21.666 8.16776 21.666 10.9428C21.666 15.8093 18.153 20.502 12.2765 21.0051C10.351 21.138 8.89219 23.7975 12.1961 23.592Z" fill="black"/>
<path d="M12.2522 23.5326C18.9274 23.0281 23.3979 17.5395 23.3979 11.5685C23.3979 8.9457 21.9581 5.09103 19.6104 4.99414C20.1908 5.9104 21.6332 8.3028 21.6332 10.9997C21.6332 15.9097 18.0332 20.5637 12.3287 21.0308C10.3966 21.1561 8.98161 23.7679 12.2522 23.5326Z" fill="black"/>
<path d="M12.3061 23.4717C18.9355 22.9063 23.3185 17.5534 23.3185 11.5915C23.3185 8.9181 21.8793 5.20045 19.6355 5.0918C20.2067 6.03643 21.5995 8.43712 21.5995 11.0558C21.5995 16.0101 17.9139 20.6267 12.3799 21.0586C10.442 21.1728 9.07013 23.7354 12.3061 23.4717Z" fill="black"/>
<path d="M12.3616 23.4116C18.942 22.7832 23.2393 17.5673 23.2393 11.6123C23.2393 8.88842 21.7995 5.30987 19.6616 5.18945C20.2217 6.16039 21.5668 8.57077 21.5668 11.1099C21.5668 16.1099 17.7942 20.6884 12.4315 21.0843C10.4884 21.1895 9.1596 23.7057 12.3616 23.4116Z" fill="black"/>
<path d="M12.4163 23.3508C18.9503 22.6587 23.1614 17.5812 23.1614 11.6345C23.1614 8.8615 21.7209 5.41998 19.6863 5.28711C20.2372 6.28642 21.5333 8.70441 21.5333 11.1674C21.5333 16.211 17.6752 20.7508 12.4823 21.1106C10.5333 21.2061 9.24836 23.674 12.4163 23.3508Z" fill="black"/>
<path d="M12.4728 23.2901C18.9584 22.5351 23.0833 17.5953 23.0833 11.6555C23.0833 8.83333 21.6428 5.52745 19.712 5.38281C20.2526 6.40911 21.4996 8.8361 21.4996 11.2216C21.4996 16.3088 17.5558 20.8119 12.5356 21.1358C10.5794 21.223 9.33754 23.6409 12.4728 23.2901Z" fill="black"/>
<path d="M12.5267 23.2298C18.9686 22.4118 23.0039 17.6091 23.0039 11.679C23.0039 8.80561 21.564 5.63952 19.7378 5.48242C20.2699 6.5364 21.4679 8.97239 21.4679 11.2804C21.4679 16.4111 17.4385 20.8755 12.5895 21.1634C10.6267 21.2402 9.42674 23.6118 12.5267 23.2298Z" fill="black"/>
<path d="M12.583 23.1697C18.9758 22.2901 22.9242 17.6216 22.9242 11.7012C22.9242 8.778 21.4837 5.74963 19.7627 5.58008C20.2843 6.65966 21.4346 9.10534 21.4346 11.3344C21.4346 16.5102 17.3176 20.9372 12.6405 21.1891C10.6719 21.2569 9.51503 23.5808 12.583 23.1697Z" fill="black"/>
<path d="M12.6374 23.111C18.9832 22.167 22.8446 17.6376 22.8446 11.7227C22.8446 8.75109 21.4047 5.85974 19.7871 5.67773C20.2982 6.78638 21.4008 9.24036 21.4008 11.3912C21.4008 16.6113 17.1982 20.9995 12.6917 21.2155C10.7172 21.2736 9.6041 23.5497 12.6374 23.111Z" fill="black"/>
<path d="M12.6931 23.0507C18.9925 22.0445 22.767 17.6514 22.767 11.7448C22.767 8.72267 21.3278 5.97042 19.8147 5.77734C20.316 6.9116 21.3683 9.37388 21.3683 11.4486C21.3683 16.7109 17.0814 21.0625 12.7448 21.2417C10.7644 21.2901 9.69315 23.5206 12.6931 23.0507Z" fill="black"/>
<path d="M12.7479 22.9893C19.0002 21.9201 22.6872 17.6627 22.6872 11.7665C22.6872 8.69311 21.2473 6.07858 19.8414 5.87305C20.331 7.0336 21.3349 9.50696 21.3349 11.5021C21.3349 16.8094 16.9617 21.1229 12.797 21.2668C10.8107 21.3056 9.78128 23.4869 12.7479 22.9893Z" fill="black"/>
<path d="M12.8032 22.9293C19.0091 21.7964 22.6091 17.6774 22.6091 11.7881C22.6091 8.66633 21.1679 6.18813 19.8646 5.96875C20.3457 7.15837 21.3019 9.64072 21.3019 11.5584C21.3019 16.9106 16.8418 21.1847 12.847 21.2926C10.8561 21.3217 9.87051 23.4573 12.8032 22.9293Z" fill="black"/>
<path d="M12.8579 22.8697C19.0154 21.6739 22.5298 17.6919 22.5298 11.8116C22.5298 8.63929 21.0906 6.29881 19.8912 6.06836C20.3611 7.28358 21.2683 9.77631 21.2683 11.6158C21.2683 17.0109 16.7232 21.249 12.9004 21.3223C10.901 21.341 9.95984 23.4275 12.8579 22.8697Z" fill="black"/>
<path d="M12.9134 22.8068C19.0232 21.5501 22.452 17.7051 22.452 11.8325C22.452 8.61031 21.0115 6.40823 19.9167 6.16602C20.3762 7.40892 21.235 9.90996 21.235 11.6719C21.235 17.1107 16.603 21.3107 12.952 21.3466C10.9474 21.3563 10.0481 23.3944 12.9134 22.8068Z" fill="black"/>
<path d="M12.9685 22.7495C19.0319 21.4284 22.373 17.7204 22.373 11.8547C22.373 8.5827 20.9325 6.51696 19.9417 6.26367C20.3907 7.53495 21.2018 10.0443 21.2018 11.7287C21.2018 17.2111 16.4841 21.373 13.0038 21.373C10.9933 21.3737 10.1371 23.3661 12.9685 22.7495Z" fill="black"/>
<path d="M11.907 23.4408C13.3919 23.4408 14.9593 23.0892 16.4416 22.4235C17.9514 21.746 19.3475 20.7529 20.4834 19.5508C21.4991 18.4747 22.2972 17.2525 22.854 15.9183C23.4527 14.4781 23.756 12.9363 23.756 11.3342C23.756 9.82071 23.5397 8.42209 23.1109 7.1771C22.7142 6.01932 22.1266 4.96811 21.3645 4.05184C20.0168 2.43385 18.1037 1.19301 15.6749 0.363948C15.6665 0.36118 15.6566 0.367408 15.654 0.375712C15.6508 0.384709 15.656 0.39509 15.6645 0.397858C18.088 1.22485 19.9972 2.46291 21.3377 4.07399C22.0972 4.98956 22.6841 6.03731 23.0815 7.18818C23.5063 8.4297 23.722 9.82555 23.722 11.3342C23.722 13.0802 23.3606 14.7515 22.6488 16.2989C21.9906 17.7259 21.0566 19.0076 19.8723 20.1065C18.7658 21.1335 17.4508 21.9778 16.0671 22.5453C14.6998 23.1079 13.2606 23.4048 11.9063 23.4048C11.8965 23.4048 11.8887 23.4131 11.8887 23.4235C11.89 23.4346 11.8972 23.4408 11.907 23.4408Z" fill="black"/>
<path d="M9.33624 0.916016C8.28069 1.21013 7.28395 1.6475 6.37676 2.21498C5.44277 2.79906 4.62186 3.50771 3.94016 4.32294C3.22316 5.17761 2.6663 6.13609 2.28656 7.17553C1.88199 8.27934 1.67676 9.46965 1.67676 10.7132C1.67676 11.8316 1.88722 13.0032 2.28395 14.1043C2.71009 15.2897 3.33754 16.3755 4.148 17.3292C6.00944 19.5229 8.69376 20.8385 11.9081 21.1319L11.9094 21.1077C8.70095 20.8164 6.02186 19.5029 4.16565 17.3126C3.35715 16.3617 2.73166 15.2786 2.30552 14.0959C1.90878 12.9977 1.70094 11.8288 1.70094 10.7126C1.70094 9.47242 1.90486 8.28418 2.30682 7.18384C2.68591 6.14716 3.24147 5.18937 3.9565 4.33747C4.6382 3.52432 5.45519 2.81636 6.38722 2.23435C7.29245 1.66757 8.29376 1.2309 9.34801 0.938161L9.33624 0.916016Z" fill="black"/>
<path d="M15.1172 1.06836C16.208 1.08635 16.8786 1.26005 17.9636 1.97217C16.861 1.92926 15.9218 1.43376 15.1172 1.06836Z" fill="black"/>
<path d="M17.9636 1.97217C16.8786 1.26005 16.2074 1.08635 15.1172 1.06836C16.2257 1.32372 16.9538 1.55902 17.9636 1.97217Z" fill="black"/>
<path d="M18.041 1.41992C18.424 2.13895 19.1312 2.82684 19.9783 3.47736C19.6273 2.57909 19.4632 2.20124 18.041 1.41992Z" fill="black"/>
<path d="M19.9773 3.47736C19.4224 2.74587 18.8374 2.00885 18.04 1.41992C18.4237 2.13895 19.1302 2.82684 19.9773 3.47736Z" fill="black"/>
<path d="M19.1367 3.50391C20.038 3.76342 20.4923 3.94958 21.2191 5.08315C20.1524 4.61948 19.9426 4.40494 19.1367 3.50391Z" fill="black"/>
<path d="M19.1367 3.50391C19.7308 3.82917 20.4916 4.38488 21.2191 5.08315C20.4923 3.94958 20.038 3.76411 19.1367 3.50391Z" fill="black"/>
<path d="M21.1934 3.94922C21.2888 4.89732 21.6659 5.88209 22.2607 6.8295C22.245 5.8641 22.3306 5.08278 21.1934 3.94922Z" fill="black"/>
<path d="M21.1377 6.15039C22.1214 6.93032 22.5357 7.5753 22.7102 8.7933C22.1468 8.15731 21.6861 7.64312 21.1377 6.15039Z" fill="black"/>
<path d="M21.1377 6.15039C21.8919 7.07703 22.2913 7.78568 22.7102 8.7933C22.5357 7.5753 22.1214 6.93032 21.1377 6.15039Z" fill="black"/>
<path d="M23.3897 8.41016C23.2413 9.06067 23.0753 9.22815 23.0217 9.72988C22.9694 10.2316 22.9871 11.152 22.9609 11.7832C23.2681 11.1146 24.0198 10.4558 23.3897 8.41016Z" fill="black"/>
<path d="M23.0217 9.72988C22.9694 10.2316 22.9871 11.152 22.9609 11.7832C23.325 10.5015 23.4381 9.60185 23.3897 8.41016C23.2413 9.06067 23.0753 9.22815 23.0217 9.72988Z" fill="black"/>
<path d="M22.2175 10.9023C22.4803 11.8027 23.0587 12.62 22.4005 14.2553C22.3666 13.4837 21.8495 13.0006 22.2175 10.9023Z" fill="black"/>
<path d="M22.4008 14.2553C23.059 12.62 22.4805 11.8027 22.2178 10.9023C22.3531 12.283 22.5675 13.1106 22.4008 14.2553Z" fill="black"/>
<path d="M23.4603 13.8281C23.0583 14.4323 22.4185 14.6212 21.4551 16.5513C22.761 15.8454 23.1714 15.2122 23.4603 13.8281Z" fill="black"/>
<path d="M21.4551 16.5513C22.4943 15.525 23.0368 14.8572 23.4603 13.8281C23.0583 14.4323 22.4191 14.6219 21.4551 16.5513Z" fill="black"/>
<path d="M21.4056 14.5684C20.9913 15.3919 20.8109 15.8486 20.7357 16.1171C20.6592 16.3829 20.6154 17.4749 20.5645 17.7054C21.1468 17.0043 21.2364 16.5047 21.2945 16.2265C21.354 15.9469 21.4363 15.1808 21.4056 14.5684Z" fill="black"/>
<path d="M20.5645 17.7054C20.8782 16.9054 21.2377 15.4998 21.4056 14.5684C20.9912 15.3919 20.8109 15.8486 20.7357 16.1171C20.6618 16.3739 20.6154 17.4749 20.5645 17.7054C20.5645 17.7061 20.5651 17.7054 20.5645 17.7054Z" fill="black"/>
<path d="M19.3695 17.6855C18.8211 18.2302 18.495 18.5651 18.2322 18.999C17.9688 19.4316 17.893 19.9374 17.6191 20.3651C19.0897 19.498 19.1185 18.5146 19.3695 17.6855Z" fill="black"/>
<path d="M18.2322 18.9983C17.9688 19.4309 17.893 19.9368 17.6191 20.3644C18.2224 19.7485 18.8963 18.6634 19.3695 17.6855C18.8211 18.2302 18.495 18.5644 18.2322 18.9983Z" fill="black"/>
<path d="M21.5857 18.0625C21.1275 18.2805 20.6837 18.358 20.2125 18.5767C19.74 18.7961 19.1602 19.4002 18.8105 19.6459C20.0654 19.5566 20.9792 19.131 21.5857 18.0625Z" fill="black"/>
<path d="M13.8643 21.9404C14.3009 21.5127 14.4368 21.1134 14.8571 20.7687C15.276 20.4255 15.9688 20.0545 16.4139 19.9141C15.8982 20.575 15.246 21.6532 13.8643 21.9404Z" fill="black"/>
<path d="M13.8643 21.9404C14.9473 21.3141 15.4264 20.5923 16.4139 19.9141C15.9688 20.0545 15.276 20.4255 14.8571 20.7687C14.4368 21.1141 14.3009 21.5127 13.8643 21.9404Z" fill="black"/>
<path d="M16.9664 21.6904C16.0285 21.7562 15.8631 21.5839 15.4082 21.579C16.7742 21.0012 17.018 20.9569 18.6467 21.0683C18.1134 21.514 17.5958 21.6378 16.9664 21.6904Z" fill="black"/>
<path d="M15.4082 21.579C16.5546 21.2275 17.6219 21.487 18.6467 21.0683C17.018 20.9569 16.7736 21.0012 15.4082 21.579Z" fill="black"/>
<path d="M13.8501 22.9168C12.9429 22.8449 12.3612 22.4539 11.9775 22.2961C12.8867 22.2068 13.79 22.1376 14.3592 22.249C14.939 22.3625 15.1769 22.6573 15.5932 22.676C14.8926 22.9369 14.3318 22.9549 13.8501 22.9168Z" fill="black"/>
<path d="M11.9775 22.2963C13.1775 22.4437 14.1834 22.6672 15.5932 22.6755C15.1769 22.6568 14.939 22.362 14.3592 22.2485C13.79 22.1378 12.8867 22.207 11.9775 22.2963Z" fill="black"/>
<path d="M22.3974 14.184C22.3353 13.4553 21.8674 12.9404 22.2105 10.9355L22.3974 14.184Z" fill="black"/>
<path d="M23.4293 13.8711C23.0868 14.3541 22.5816 14.5908 21.8633 15.7949L23.4293 13.8711Z" fill="black"/>
<path d="M22.9785 11.7459C23.2177 11.2483 23.6863 10.7424 23.6295 9.65039L22.9785 11.7459Z" fill="black"/>
<path d="M18.8105 19.6472C19.538 19.2222 20.6079 18.9627 21.5857 18.0645C21.1275 18.2824 20.6837 18.36 20.2125 18.5786C19.74 18.7973 19.1609 19.4015 18.8105 19.6472Z" fill="black"/>
<path d="M21.1934 3.94922C21.2888 4.89732 21.6659 5.88209 22.2607 6.8295C22.0208 5.63503 21.7064 5.05164 21.1934 3.94922Z" fill="black"/>
<path d="M8.70643 1.06836C7.61624 1.08635 6.945 1.26005 5.85938 1.97217C6.96199 1.92926 7.90055 1.43376 8.70643 1.06836Z" fill="black"/>
<path d="M5.85938 1.97217C6.94434 1.26005 7.61624 1.08635 8.70643 1.06836C7.6182 1.3348 6.86983 1.55902 5.85938 1.97217Z" fill="black"/>
<path d="M5.78491 1.41992C5.39994 2.13895 4.69471 2.82684 3.84766 3.47736C4.19864 2.57909 4.36138 2.20124 5.78491 1.41992Z" fill="black"/>
<path d="M3.84766 3.47736C4.51171 2.71196 4.77772 2.26214 5.78491 1.41992C5.39994 2.13895 4.69471 2.82684 3.84766 3.47736Z" fill="black"/>
<path d="M4.68815 3.50391C3.78749 3.76342 3.33128 3.94958 2.60645 5.08315C3.67311 4.61948 3.88292 4.40494 4.68815 3.50391Z" fill="black"/>
<path d="M4.68815 3.50391C4.09337 3.82917 3.34239 4.41463 2.60645 5.08315C3.33128 3.94958 3.78749 3.76411 4.68815 3.50391Z" fill="black"/>
<path d="M2.63145 3.94922C2.53537 4.89732 2.21511 5.83988 1.56348 6.8295C1.58112 5.8641 1.55955 5.1077 2.63145 3.94922Z" fill="black"/>
<path d="M2.63145 3.94922C2.53537 4.89732 2.15171 5.88071 1.56348 6.8295C1.87067 5.50147 2.21119 5.00112 2.63145 3.94922Z" fill="black"/>
<path d="M2.69243 6.15039C1.70354 6.92271 1.28458 7.56285 1.09961 8.78084C1.66889 8.14901 2.1323 7.63897 2.69243 6.15039Z" fill="black"/>
<path d="M2.69243 6.15039C2.14668 6.76977 1.22575 8.34762 1.09961 8.78084C1.28458 7.56354 1.70354 6.92271 2.69243 6.15039Z" fill="black"/>
<path d="M0.435035 8.41016C0.584707 9.06067 0.750066 9.22815 0.802353 9.72988C0.85464 10.2316 0.837647 11.152 0.863138 11.7832C0.558564 11.1146 -0.0950278 10.4724 0.435035 8.41016Z" fill="black"/>
<path d="M0.802543 9.72988C0.854831 10.2316 0.837838 11.152 0.863328 11.7832C0.528688 10.723 0.490126 9.61984 0.43457 8.41016C0.584244 9.06067 0.749602 9.22815 0.802543 9.72988Z" fill="black"/>
<path d="M1.60736 10.9023C1.34527 11.8027 0.766826 12.62 1.4237 14.2553C1.45899 13.4837 1.97403 13.0006 1.60736 10.9023Z" fill="black"/>
<path d="M1.42369 14.2553C0.766833 12.62 1.34526 11.8027 1.60735 10.9023C1.58055 12.3134 1.20997 13.1106 1.42369 14.2553Z" fill="black"/>
<path d="M0.364258 13.8281C0.766218 14.4323 1.40609 14.6212 2.36949 16.5513C1.06491 15.8454 0.653147 15.2122 0.364258 13.8281Z" fill="black"/>
<path d="M2.41803 14.5684C2.83306 15.3919 3.01345 15.8486 3.08927 16.1171C3.16443 16.3829 3.20953 17.4749 3.25985 17.7054C2.67685 17.0043 2.51803 16.5206 2.46051 16.2403C2.40104 15.9614 2.38993 15.1808 2.41803 14.5684Z" fill="black"/>
<path d="M3.2598 17.7054C2.8245 17.012 2.68464 15.4403 2.41797 14.5684C2.833 15.3919 3.01339 15.8486 3.08921 16.1171C3.16176 16.3739 3.20882 17.4749 3.2598 17.7054Z" fill="black"/>
<path d="M4.45508 17.6855C5.0041 18.2302 5.33024 18.5651 5.59233 18.999C5.85442 19.4316 5.9309 19.9374 6.20541 20.3651C4.73482 19.498 4.7054 18.5146 4.45508 17.6855Z" fill="black"/>
<path d="M5.59168 18.9983C5.85377 19.4309 5.93024 19.9368 6.20475 20.3644C5.86292 20.1257 4.80083 18.4032 4.45508 17.6855C5.00344 18.2302 5.32959 18.5644 5.59168 18.9983Z" fill="black"/>
<path d="M2.23828 18.0625C2.69907 18.2791 3.14286 18.3518 3.61475 18.5705C4.08665 18.7871 4.66965 19.3871 5.02194 19.6293C3.76704 19.549 2.85135 19.1282 2.23828 18.0625Z" fill="black"/>
<path d="M5.02194 19.6312C4.29122 19.2098 3.29384 18.9191 2.23828 18.0645C2.69907 18.2811 3.14286 18.3537 3.61475 18.5724C4.0873 18.7883 4.66965 19.389 5.02194 19.6312Z" fill="black"/>
<path d="M9.96081 21.9404C9.52356 21.5127 9.38761 21.1134 8.968 20.7687C8.54709 20.4255 7.85558 20.0545 7.40918 19.9141C7.92683 20.575 8.57781 21.6532 9.96081 21.9404Z" fill="black"/>
<path d="M9.96049 21.9404C9.02912 21.3978 8.48337 20.6456 7.4082 19.9141C7.85526 20.0545 8.54611 20.4255 8.96703 20.7687C9.38729 21.1141 9.52324 21.5127 9.96049 21.9404Z" fill="black"/>
<path d="M6.85846 21.6904C7.79506 21.7562 7.96369 21.5839 8.41532 21.579C7.05061 21.0012 6.80552 20.9569 5.17676 21.0683C5.7114 21.514 6.22839 21.6378 6.85846 21.6904Z" fill="black"/>
<path d="M8.41532 21.579C7.21859 21.3237 6.2029 21.487 5.17676 21.0683C6.80552 20.9569 7.05061 21.0012 8.41532 21.579Z" fill="black"/>
<path d="M9.97295 22.9168C10.8821 22.8449 11.4631 22.4539 11.8468 22.2961C10.9377 22.2068 10.035 22.1376 9.46641 22.249C8.88602 22.3625 8.64811 22.6573 8.23242 22.676C8.93242 22.9369 9.49321 22.9549 9.97295 22.9168Z" fill="black"/>
<path d="M11.8468 22.2963C10.6481 22.4437 9.64092 22.6672 8.23242 22.6755C8.64811 22.6568 8.88602 22.362 9.46641 22.2485C10.0344 22.1378 10.9377 22.207 11.8468 22.2963Z" fill="black"/>
<path d="M2.36949 16.5513C1.744 15.8876 0.758375 14.9527 0.364258 13.8281C0.766872 14.4323 1.40674 14.6219 2.36949 16.5513Z" fill="black"/>
<path d="M18.6478 21.0592C17.0328 20.9485 16.789 20.9859 15.4047 21.5693C15.4008 21.5727 15.3956 21.5797 15.3982 21.5859C15.4008 21.5928 15.4073 21.5949 15.4125 21.5935C16.7936 21.0115 17.0354 20.9727 18.6465 21.0835C18.6524 21.0842 18.657 21.0786 18.6576 21.0717C18.6583 21.0655 18.6531 21.0592 18.6478 21.0592Z" fill="black"/>
<path d="M21.5783 18.044C21.3469 18.1541 21.1149 18.2309 20.8907 18.3042C20.6678 18.3762 20.4391 18.4516 20.2057 18.5603C19.8986 18.7022 19.5515 19.0018 19.2456 19.2662C19.0803 19.408 18.9254 19.5437 18.8012 19.6295L18.7861 19.6406L18.8064 19.6738L18.8221 19.662C18.9476 19.5748 19.1031 19.4399 19.2698 19.298C19.5737 19.0357 19.9182 18.7375 20.2201 18.5963C20.4502 18.4897 20.6796 18.4157 20.9005 18.343C21.126 18.2683 21.3587 18.1921 21.5953 18.0814L21.6129 18.0731L21.596 18.0371L21.5783 18.044Z" fill="black"/>
<path d="M22.7194 8.78335L22.7116 8.77366C22.1423 8.13352 21.694 7.62625 21.1476 6.14529C21.1456 6.13837 21.1384 6.13491 21.1325 6.13767C21.1247 6.14044 21.1221 6.14805 21.1234 6.15498C21.6724 7.64286 22.1227 8.15013 22.6927 8.79304L22.7018 8.80272C22.7057 8.80688 22.7142 8.80688 22.7194 8.80272C22.7221 8.79788 22.7221 8.78958 22.7194 8.78335Z" fill="black"/>
<path d="M22.2934 6.83028L22.2889 6.60813C22.283 5.73478 22.2738 4.98045 21.2157 3.92578L21.1719 3.97353C22.2111 5.01021 22.2189 5.75069 22.2274 6.60882L22.2307 6.83166L22.2934 6.83028Z" fill="black"/>
<path d="M21.2243 5.07034C20.1648 4.60944 19.9563 4.40044 19.1452 3.49387C19.1406 3.48902 19.1334 3.48902 19.1282 3.49387C19.123 3.4994 19.1223 3.50702 19.1282 3.51255C19.9413 4.42397 20.1504 4.63297 21.2158 5.09525C21.2204 5.09871 21.2282 5.09525 21.2308 5.08902C21.2334 5.08141 21.2308 5.0738 21.2243 5.07034Z" fill="black"/>
<path d="M5.1795 21.0798C6.79061 20.9684 7.03179 21.0064 8.41349 21.5891C8.41806 21.5926 8.4246 21.5891 8.42721 21.5836C8.42917 21.5774 8.42721 21.5698 8.42133 21.567C7.03701 20.9822 6.79388 20.9448 5.17754 21.0549C5.17166 21.0563 5.16643 21.0618 5.16839 21.068C5.16773 21.075 5.17362 21.0798 5.1795 21.0798Z" fill="black"/>
<path d="M8.23344 22.6873C8.44782 22.6776 8.61253 22.5973 8.80403 22.5032C8.98377 22.4139 9.18573 22.3157 9.46939 22.261C10.0439 22.1468 10.9583 22.2216 11.8465 22.3067C11.8531 22.3067 11.8583 22.3018 11.8583 22.2963C11.8583 22.2894 11.855 22.2831 11.8485 22.2831C10.9589 22.1987 10.0432 22.1247 9.46482 22.2361C9.1792 22.2921 8.97397 22.3932 8.79488 22.4818C8.60599 22.5745 8.44259 22.6541 8.23279 22.6652C8.22691 22.6652 8.22168 22.67 8.22168 22.6755C8.22168 22.6832 8.22691 22.6873 8.23344 22.6873Z" fill="black"/>
<path d="M15.6107 22.6873C15.397 22.6776 15.2317 22.5973 15.0402 22.5032C14.8624 22.4139 14.6591 22.3157 14.3754 22.261C13.7996 22.1468 12.8846 22.2216 11.9977 22.3067C11.9924 22.3067 11.9866 22.3018 11.9866 22.2963C11.9852 22.2894 11.9898 22.2831 11.9957 22.2831C12.8839 22.1987 13.8009 22.1247 14.38 22.2361C14.6656 22.2921 14.8689 22.3932 15.05 22.4818C15.2389 22.5745 15.4023 22.6541 15.6114 22.6652C15.6173 22.6652 15.6232 22.67 15.6232 22.6755C15.6225 22.6832 15.6173 22.6873 15.6107 22.6873Z" fill="black"/>
<path d="M0.423136 8.41238C0.491109 8.7065 0.561697 8.90165 0.623135 9.07397C0.697645 9.27951 0.761697 9.45736 0.789802 9.73141C0.821828 10.038 0.829017 10.51 0.833592 10.9619C0.837514 11.2477 0.842089 11.5404 0.851893 11.784C0.851893 11.7916 0.856468 11.7971 0.863004 11.7965C0.86954 11.7965 0.875422 11.7902 0.875422 11.784C0.864311 11.539 0.860389 11.247 0.856467 10.9619C0.851892 10.5079 0.845357 10.038 0.812024 9.72864C0.783919 9.45113 0.717906 9.27328 0.644704 9.06567C0.582612 8.89542 0.512024 8.69958 0.446011 8.40823C0.443396 8.40062 0.437514 8.39785 0.431632 8.39854C0.425096 8.40062 0.421828 8.40615 0.423136 8.41238Z" fill="black"/>
<path d="M2.23291 18.0714C2.46689 18.1835 2.70219 18.2575 2.92768 18.3295C3.14924 18.4001 3.37735 18.4734 3.61003 18.5807C3.91264 18.7198 4.26035 19.0153 4.56623 19.2762C4.73224 19.4181 4.8891 19.5523 5.01394 19.6388C5.01852 19.6416 5.02701 19.6395 5.02963 19.6347C5.03355 19.6291 5.03224 19.6222 5.02701 19.6181C4.90283 19.533 4.74662 19.3994 4.57996 19.2575C4.27342 18.9952 3.92506 18.6983 3.61918 18.5579C3.38584 18.4506 3.15709 18.3779 2.93421 18.306C2.70938 18.234 2.47539 18.1599 2.24206 18.0499C2.23683 18.0471 2.23095 18.0499 2.22703 18.0561C2.22572 18.0637 2.22703 18.0707 2.23291 18.0714Z" fill="black"/>
<path d="M0.355838 13.8348C0.481981 14.0237 0.633615 14.176 0.808778 14.349C1.18459 14.7213 1.69963 15.2327 2.35845 16.5559C2.36106 16.5621 2.36825 16.5635 2.37348 16.5614C2.38002 16.558 2.38067 16.551 2.37871 16.5455C1.71727 15.2196 1.20159 14.7068 0.82381 14.3337C0.6493 14.1587 0.499628 14.0099 0.373484 13.8216C0.370216 13.8154 0.363027 13.8154 0.357798 13.8182C0.353223 13.8223 0.351916 13.8299 0.355838 13.8348Z" fill="black"/>
<path d="M2.62132 3.94857C2.51871 4.94719 2.17034 5.88906 1.55465 6.82332C1.55139 6.82955 1.55204 6.83716 1.55858 6.84062C1.5638 6.84477 1.56969 6.84408 1.57361 6.83786C2.19126 5.89944 2.54158 4.9555 2.64354 3.95134C2.64354 3.9458 2.63897 3.93958 2.63309 3.9375C2.6272 3.9375 2.62132 3.94234 2.62132 3.94857Z" fill="black"/>
<path d="M14.9189 0.585796C17.213 1.29375 19.1548 2.52766 20.5352 4.15604C21.294 5.05016 21.8823 6.06192 22.2829 7.16434C22.7117 8.34704 22.9293 9.64531 22.9293 11.0232C22.9293 12.4661 22.6463 13.8751 22.0862 15.2121C21.5424 16.5131 20.7614 17.6917 19.7627 18.7201C17.7045 20.8384 14.9169 22.0958 11.9124 22.2598C11.9065 22.2598 11.9012 22.2654 11.9025 22.2723C11.9025 22.2785 11.9071 22.2841 11.9137 22.2827C14.9228 22.118 17.7156 20.8585 19.7777 18.736C20.7784 17.7062 21.5614 16.5249 22.1058 15.2211C22.6666 13.8799 22.9509 12.4681 22.9509 11.0225C22.9509 9.64116 22.7339 8.33943 22.3025 7.15396C21.8999 6.04946 21.3123 5.03493 20.5516 4.13874C19.1686 2.50829 17.2215 1.27161 14.9235 0.562959C14.9182 0.560191 14.9091 0.570572 14.9078 0.577492C14.9058 0.58372 14.913 0.58372 14.9189 0.585796Z" fill="black"/>
<path d="M11.9093 22.2615C8.9054 22.0975 6.11847 20.8401 4.05965 18.7218C3.06357 17.6934 2.28057 16.5155 1.73678 15.2138C1.17795 13.8768 0.894947 12.4671 0.894947 11.0249C0.894947 9.64839 1.11259 8.3522 1.54135 7.16881C1.94135 6.06708 2.52893 5.05601 3.28645 4.16258C4.66488 2.53628 6.60605 1.30099 8.89625 0.592335C8.90213 0.589567 8.91324 0.592335 8.91128 0.585415C8.90997 0.579878 8.88383 0.572266 8.87925 0.572266C6.58971 1.28299 4.64985 2.51898 3.27011 4.14666C2.51063 5.04286 1.92174 6.05808 1.52109 7.16189C1.09102 8.34597 0.87207 9.64563 0.87207 11.0256C0.87207 12.4719 1.15769 13.883 1.71717 15.2242C2.26161 16.528 3.04462 17.7086 4.04331 18.7391C6.10736 20.8622 8.89952 22.1211 11.908 22.2865C11.9145 22.2865 11.9204 22.2809 11.9204 22.2747C11.9204 22.2678 11.9152 22.2622 11.9093 22.2615Z" fill="black"/>
<path d="M11.9141 17.3677C13.5245 16.9975 15.5415 16.3214 17.1742 15.5788C17.3762 15.4875 17.5265 15.3463 17.6481 15.1657V13.848L11.9141 12.4023V17.3677Z" fill="black"/>
<path d="M14.9137 8.11939H18.2091L18.6359 7.37891H14.796V9.44396H11.9771V7.37891H11.8921H11.8562V8.86264H6.09668L6.13851 8.94015C6.13851 8.94015 6.13982 8.95053 6.13982 8.96991H11.8562V10.0184H6.15027C6.15027 10.0536 6.15027 10.0938 6.15027 10.1284H11.8562V11.5201H6.16531C6.16792 11.5547 6.16792 11.5927 6.16792 11.628H8.95485V13.6184H6.19799C6.19799 13.619 6.19799 13.6211 6.19799 13.6218C6.20648 13.9111 6.23393 14.1644 6.2908 14.3817H8.95877V15.0599H6.70125C6.80714 15.1422 6.93393 15.2087 7.08361 15.2578C7.68949 15.4536 8.3908 15.6571 9.05812 15.8377V13.7263L11.8562 13.7222V16.4806C11.8686 16.4806 11.881 16.4834 11.8921 16.4862C11.9117 16.4827 11.9575 16.4786 11.9771 16.4758V14.3145H17.6052C17.613 14.2813 17.6202 14.2398 17.6248 14.2052H11.9764V13.1658H17.6882C17.6882 13.1312 17.6901 13.0772 17.6908 13.0405H11.9771V11.6294H17.7091C17.7104 11.5934 17.7117 11.5485 17.7117 11.5139H14.9143V9.54846H17.7313C17.7346 9.17752 17.7372 8.94015 17.7372 8.94015L17.8359 8.76853H14.9143V8.11939H14.9137Z" fill="black"/>
<path d="M17.3457 14.536L12.1058 16.307L11.9463 16.5139V16.4745V14.3125V14.2793H11.9757H17.6038H17.6437L17.3457 14.536Z" fill="black"/>
<path d="M12.1058 16.3082L17.3457 14.538L17.6443 14.2812L17.6345 14.3242C17.5182 14.8425 17.2535 15.1442 16.8006 15.2902C15.2947 15.7774 13.1456 16.3235 11.9822 16.5082L11.9463 16.5152L12.1058 16.3082Z" fill="black"/>
<path d="M6.54575 13.2519L8.98497 11.5938V11.6277V13.618V13.6498H8.95294H6.19608H6.16602L6.54575 13.2519Z" fill="black"/>
<path d="M6.54555 13.2531L6.16581 13.6518L6.1632 13.6206C6.15601 13.321 6.14555 12.6511 6.13379 11.6296V11.5957H6.16581H8.95274H8.98477L6.54555 13.2531Z" fill="black"/>
<path d="M11.7001 13.9234L11.8877 13.6895V13.7213V16.4798V16.5172L11.8524 16.5116C11.2093 16.412 10.1949 16.1767 9.06877 15.8722L9.0459 15.8639L11.7001 13.9234Z" fill="black"/>
<path d="M11.7001 13.9234L9.0459 15.8645V15.8403V13.7213V13.6895H9.07662H11.855H11.8877L11.7001 13.9234Z" fill="black"/>
<path d="M6.75216 14.9027L8.79726 14.5283L8.98811 14.3477V14.3816V15.0598V15.0937H8.95673H6.69922L6.75216 14.9027Z" fill="black"/>
<path d="M8.79707 14.5283L6.75262 14.9027L6.69968 15.0937H6.68792L6.68073 15.0875C6.4768 14.9269 6.33955 14.6999 6.25785 14.3913L6.24805 14.3477H6.28922H8.9572H8.98857L8.79707 14.5283Z" fill="black"/>
<path d="M11.7835 10.2203L6.44104 11.2895L6.1345 11.5545V11.5199L6.11816 10.1282V10.0957H6.14954H11.8554H11.8881L11.7835 10.2203Z" fill="black"/>
<path d="M6.44033 11.2895L11.7828 10.2203L11.8874 10.0957V10.1282V11.5199V11.5545H11.8547H6.1632H6.13379L6.44033 11.2895Z" fill="black"/>
<path d="M12.1809 9.24064L14.5881 7.63026L14.8267 7.34375V7.37766V9.44271V9.47731H14.7947H11.9757H11.9463L12.1809 9.24064Z" fill="black"/>
<path d="M14.5881 7.63026L12.1809 9.24064L11.9463 9.47731V9.44271V7.37766V7.34375H11.9757H14.7947H14.8267L14.5881 7.63026Z" fill="black"/>
<path d="M11.7384 9.08364L11.8881 8.93555V8.96807V10.0165V10.0504H11.8554H6.14954H6.11816L11.7384 9.08364Z" fill="black"/>
<path d="M11.7378 9.08364L6.11756 10.0504L6.11625 10.0165L6.10645 8.96807V8.93555H6.13847H11.8548H11.8875L11.7378 9.08364Z" fill="black"/>
<path d="M6.16832 8.73406L11.7533 7.50015L11.8873 7.34375V7.37766V8.8614V8.89531H11.8546H6.09446H6.07812L6.16832 8.73406Z" fill="black"/>
<path d="M11.7535 7.50015L6.16856 8.73406L6.07837 8.89531L6.06856 8.8787L5.2117 7.39496L5.18359 7.34375H5.23915H11.8548H11.8875L11.7535 7.50015Z" fill="black"/>
<path d="M17.405 9.91021L15.1606 11.2991L14.8809 11.5455V11.5123V9.54689V9.51367H14.9129H17.7299H17.7619L17.405 9.91021Z" fill="black"/>
<path d="M15.1606 11.2991L17.405 9.91021L17.7619 9.51367V9.54689L17.7403 11.513V11.5455H17.7103H14.9129H14.8809L15.1606 11.2991Z" fill="black"/>
<path d="M17.9122 8.27014L15.0541 8.66461L14.8809 8.80163V8.76772V8.11789V8.08398H14.9129H18.1684H18.2246L17.9122 8.27014Z" fill="black"/>
<path d="M15.0541 8.66461L17.9122 8.27014L18.2246 8.08398L18.1959 8.1352L17.8227 8.78571L17.8129 8.80163H17.7952H14.9129H14.8809L15.0541 8.66461Z" fill="black"/>
<path d="M17.4208 13.3572L12.109 14.0769L11.9463 14.2354V14.2029V13.1634V13.1309H11.9757H17.6875H17.7188L17.4208 13.3572Z" fill="black"/>
<path d="M12.109 14.0769L17.4208 13.3572L17.7188 13.1309V13.1634L17.7103 13.6222C17.7045 13.8485 17.6868 14.0395 17.6554 14.2091L17.6509 14.2354H17.6241H11.9757H11.9463L12.109 14.0769Z" fill="black"/>
<path d="M17.5607 11.7751L12.1391 12.8823L11.9463 13.0719V13.0387V11.6277V11.5938H11.9757H17.7077H17.7404L17.5607 11.7751Z" fill="black"/>
<path d="M12.1394 12.8823L17.561 11.7751L17.7407 11.5938L17.7394 11.6277C17.7335 12.2131 17.7257 12.6886 17.7211 13.0401L17.7205 13.0726H17.6904H11.9767H11.9473L12.1394 12.8823Z" fill="black"/>
<path d="M14.6744 10.3226L12.1476 10.753L11.9463 10.9413V10.908V10.2195V10.1855H11.9757H14.7947H14.8267L14.6744 10.3226Z" fill="black"/>
<path d="M12.1476 10.753L14.6744 10.3226L14.8267 10.1855V10.2195V10.908V10.9413H14.7947H11.9757H11.9463L12.1476 10.753Z" fill="black"/>
<path d="M9.16062 12.8876L11.7587 12.4163L11.8874 12.2578V12.2924V12.9796V13.0121H11.8547H9.07369H9.04297L9.16062 12.8876Z" fill="black"/>
<path d="M11.7587 12.4163L9.16062 12.8876L9.04297 13.0121V12.9796V12.2924V12.2578H9.07369H11.8547H11.8874L11.7587 12.4163Z" fill="black"/>
<path d="M11.9766 16.4757C13.0615 16.3041 15.2132 15.7691 16.7923 15.2584C17.2602 15.1082 17.4975 14.7954 17.6047 14.3145H11.9766V16.4757Z" fill="#FFD124"/>
<path d="M8.95294 11.6289H6.16602C6.17582 12.4711 6.18628 13.2732 6.19608 13.6192H8.95294V11.6289Z" fill="#FFD124"/>
<path d="M9.07715 13.7207V15.8397C10.17 16.1352 11.1915 16.3747 11.8556 16.4792V13.7207H9.07715Z" fill="#FFD124"/>
<path d="M8.95704 14.3809H6.28906C6.36423 14.6708 6.49429 14.8964 6.70017 15.0591H8.95769V14.3809H8.95704Z" fill="black"/>
<path d="M11.8553 10.1289H6.14941C6.15399 10.5538 6.15987 11.0355 6.16445 11.5206H11.8553V10.1289Z" fill="#FFD124"/>
<path d="M14.7955 7.37891H11.9766V9.44396H14.7955V7.37891Z" fill="#FFD124"/>
<path d="M11.8559 7.37891H5.24023L6.09579 8.86264H11.8559V7.37891Z" fill="#FFD124"/>
<path d="M14.9141 11.5142H17.7114C17.7193 10.7876 17.7265 10.0513 17.731 9.54883H14.9141V11.5142Z" fill="#FFD124"/>
<path d="M14.9141 8.11914V8.76897H17.7964L18.1696 8.11914H14.9141Z" fill="black"/>
<path d="M11.9766 14.2035H17.625C17.6563 14.0284 17.6727 13.8346 17.6799 13.6215C17.6818 13.508 17.6851 13.3641 17.6884 13.1641H11.9766V14.2035Z" fill="black"/>
<path d="M11.9766 13.04H17.6903C17.6955 12.649 17.7021 12.1472 17.7086 11.6289H11.9766V13.04Z" fill="#FFD124"/>
<path d="M11.8546 12.291H9.07422V12.9782H11.8546V12.291Z" fill="black"/>
<path d="M14.7955 10.2188H11.9766V10.9073H14.7955V10.2188Z" fill="black"/>
<path d="M11.855 8.96875H6.13867C6.13933 9.07878 6.14325 9.48571 6.14913 10.0172H11.855V8.96875Z" fill="black"/>
<path d="M17.5627 14.3477C17.4464 14.8231 17.2045 15.0902 16.7817 15.2272C15.2947 15.7075 13.1797 16.2459 12.0078 16.4376V14.3477H17.5627Z" fill="#FFD124"/>
<path d="M18.1696 8.11914H14.9141V8.76897H14.9579V8.1662H18.1696V8.11914Z" fill="black"/>
<path d="M14.7955 10.2188H11.9766V10.9073H12.023V10.2651H14.7955V10.2188Z" fill="black"/>
<path d="M14.7955 7.37891H11.9766V9.44396H12.023V7.42666H14.7955V7.37891Z" fill="black"/>
<path d="M11.8559 7.37891H5.24023L6.09579 8.86264H6.14677L5.32455 7.42666H11.8559V7.37891Z" fill="black"/>
<path d="M11.8556 10.1289H6.14648L6.16217 11.5206H6.21119L6.1955 10.178H11.8556V10.1289Z" fill="black"/>
<path d="M8.95328 11.6289H6.16309L6.1925 13.6192H6.24413L6.21472 11.6753H8.95328V11.6289Z" fill="black"/>
<path d="M17.731 9.54883H14.9141V11.5142H14.9579V9.59658H17.731V9.54883Z" fill="black"/>
<path d="M11.8553 12.291H9.07422V12.9782H9.11932V12.3374H11.8553V12.291Z" fill="black"/>
<path d="M11.8582 13.7207H9.07715V15.8397L9.12159 15.8529V13.7685H11.8582V13.7207Z" fill="black"/>
<path d="M17.5995 14.3145H11.9766V16.4812H12.023V14.3643H17.5995V14.3145Z" fill="black"/>
<path d="M17.7086 11.6289H11.9766V13.04H12.023V11.6753H17.7086V11.6289Z" fill="black"/>
<path d="M6.28906 14.3809C6.29168 14.3912 6.2956 14.4044 6.29887 14.4155L6.30344 14.4293C6.37272 14.6736 6.53351 14.9047 6.70998 15.0591H6.78253C6.60606 14.9214 6.42697 14.6867 6.34985 14.4293H8.95638V14.3809H6.28906Z" fill="black"/>
<path d="M18.6735 7.33594C18.4938 7.7048 18.1833 8.26466 17.7971 8.91033C17.7846 10.3235 17.752 12.7152 17.735 13.6134C17.7167 14.5775 17.4487 15.0979 16.8703 15.2944C16.3075 15.4882 13.0219 16.4211 11.918 16.5256L11.9448 16.4868C13.1578 16.3415 16.2964 15.4418 16.8559 15.2494C17.4127 15.0577 17.6709 14.5525 17.6899 13.6128C17.7075 12.7117 17.7408 10.3138 17.752 8.90203V8.89788L17.7565 8.89095L18.618 7.39407L18.6735 7.33594Z" fill="black"/>
<path d="M18.6732 7.33594H18.6327H5.20718H5.16797L5.18823 7.37192L6.09673 8.93317C6.10784 10.3173 6.14705 12.6785 6.16666 13.6363C6.18496 14.5782 6.44379 15.0653 7.03071 15.2667C7.65032 15.4799 10.7386 16.3837 11.9183 16.5249H11.9209H11.9235C13.1372 16.3795 16.283 15.4771 16.8451 15.2833C17.4229 15.0854 17.6902 14.5671 17.7111 13.6024C17.7288 12.7034 17.7621 10.311 17.7725 8.89857L18.6529 7.36985L18.6732 7.33594ZM17.7274 8.8875V8.89372C17.7163 10.3041 17.6817 12.702 17.6647 13.6031C17.6457 14.5429 17.3889 15.0474 16.8301 15.2391C16.2699 15.4314 13.1314 16.3311 11.9203 16.4771C10.7412 16.3359 7.66405 15.4349 7.04444 15.2218C6.47124 15.0245 6.23006 14.565 6.21111 13.6363C6.1928 12.6757 6.15163 10.3096 6.14117 8.92694V8.9214L6.13725 8.91518L5.24771 7.38369H18.5921L17.7301 8.87988L17.7274 8.8875Z" fill="black"/>
</g>
<defs>
<clipPath id="clip0_463_9096">
<rect width="24" height="24" fill="white"/>
</clipPath>
</defs>
</svg>
