<svg width="32" height="12" viewBox="0 0 32 12" fill="none" xmlns="http://www.w3.org/2000/svg">
<g clip-path="url(#clip0_477_6110)">
<path d="M3.03675 3.06308C3.17954 2.74185 3.30228 2.48095 4.20156 2.48095H9.39226C9.67837 2.48095 9.96427 2.3404 9.96427 1.93925V0.51494C9.96427 0.353441 10.128 0.132344 10.557 0.132344H21.3065C21.6128 0.132344 21.8584 0.293115 21.8584 0.67446V1.7987C21.8584 2.09961 22.0012 2.42073 22.4509 2.42073H31.0747C31.3811 2.42073 31.7899 2.50075 31.6062 2.88251C31.4218 3.26344 28.6225 8.84172 28.4325 9.21452C28.3596 9.35737 28.3031 9.54773 27.7362 9.54773H22.4349C22.1836 9.54773 21.7708 9.54773 21.7708 10.025V11.3527C21.7708 11.5437 21.6253 11.8301 21.1637 11.8301H10.528C10.196 11.8301 9.95324 11.6624 9.95324 11.3367V10.168C9.95324 9.91355 9.81543 9.54023 9.42706 9.54023H0.499212C0.215648 9.54023 -0.0513649 9.32539 0.118688 8.91237C0.288742 8.49851 3.03664 3.06308 3.03664 3.06308" fill="black"/>
<path d="M0.800781 8.29214L1.04891 8.29297L3.48822 3.52604L3.23998 3.52531L0.800781 8.29214Z" fill="black"/>
<path d="M9.44762 8.96444H1.09772C0.806408 8.96444 0.704355 8.83368 0.817653 8.61123C1.44992 7.37623 3.52917 3.31448 3.58295 3.20664C3.64618 3.07983 3.79937 2.9248 4.08197 2.9248H9.68514C10.2665 2.9248 10.3655 2.67525 10.3655 2.22452V0.882094C10.3655 0.701529 10.4875 0.5815 10.7019 0.5815H20.9642C21.2401 0.5815 21.3621 0.671 21.3621 0.851566V1.84327C21.3621 2.234 21.2867 2.86488 22.1736 2.86488H30.6537C31.0345 2.86488 31.1334 3.11703 30.9318 3.51641C30.1814 5.00324 28.3349 8.5286 28.2774 8.64822C28.2047 8.80023 27.9789 8.93402 27.6181 8.93402H22.0518C21.5925 8.93402 21.1339 9.23451 21.1339 9.68556V10.8312C21.1339 11.0398 21.0064 11.1875 20.7793 11.1875H10.8215C10.5134 11.1875 10.3959 11.0162 10.3959 10.7877V9.74537C10.3959 9.38507 10.1512 8.96444 9.44762 8.96444Z" fill="black"/>
<path d="M20.5827 8.69546L21.7523 9.89264C21.7523 9.89264 21.8358 9.63007 22.153 9.56506L20.8431 8.36507C20.8431 8.36507 20.6328 8.48197 20.5827 8.69536V8.69546ZM9.47461 9.54828C9.47461 9.54828 9.94244 9.56495 9.94244 10.1719L11.0281 8.59669L10.7275 8.3834L9.47461 9.54828ZM21.0144 3.58366L22.2476 2.40304C22.2476 2.40304 22.0804 2.38294 21.9128 2.11589L20.69 3.33755L21.0144 3.58366ZM20.4811 1.17138L21.6204 0.217079C21.6204 0.217079 21.7459 0.288658 21.7981 0.401812L20.6066 1.47958L20.4811 1.17138ZM9.97172 0.562581C9.97172 0.364927 10.1586 0.131745 10.4647 0.131745L11.3291 1.18128C11.3291 1.18128 11.0702 1.18128 11.0297 1.27505C10.9885 1.36883 10.9478 1.5695 10.9478 1.5695L9.97172 0.562581ZM9.59862 2.45295C9.59862 2.45295 9.96801 2.39544 9.96801 2.00763L10.8249 2.99778L10.2787 3.38548L9.59862 2.45295Z" fill="black"/>
<path d="M15.9349 0.131409L15.8955 0.582877H20.833C20.9951 0.582877 21.0861 0.622887 21.1472 0.742188L21.694 0.264776C21.694 0.264776 21.5565 0.131409 21.3063 0.131409H15.9349Z" fill="black"/>
<path d="M10.4649 0.130907C10.3332 0.130907 10.1812 0.194882 10.1006 0.293969L10.4549 0.671875C10.4549 0.671875 10.5257 0.582376 10.8092 0.582376H15.8952L15.9346 0.130907H10.4649Z" fill="black"/>
<path d="M9.97176 0.562322V1.93829C9.97176 2.15428 9.92773 2.20722 9.92773 2.20722L10.3187 2.61523C10.3187 2.61523 10.3746 2.47437 10.3746 2.38778V1.02442C10.3746 0.938354 10.3824 0.812906 10.3824 0.812906L10.0154 0.366439C10.0154 0.366439 9.97176 0.44448 9.97176 0.562322Z" fill="black"/>
<path d="M21.37 0.77126C21.37 0.77126 21.3594 0.9313 21.3594 1.01736C21.3594 1.10343 21.37 2.2657 21.37 2.35197C21.37 2.43803 21.4976 2.59766 21.4976 2.59766L21.9653 2.19109C21.9653 2.19109 21.8544 2.15452 21.8544 1.93853V0.56256C21.8544 0.444717 21.7562 0.366676 21.7562 0.366676L21.37 0.77126Z" fill="black"/>
<path d="M9.42106 2.48232C9.27445 2.48232 4.23745 2.48805 3.96906 2.48805C3.57962 2.48805 3.35059 2.65674 3.35059 2.65674L3.67096 3.08008C3.67096 3.08008 3.79911 2.92493 4.08193 2.92493H9.76562C9.96357 2.92493 10.1123 2.837 10.1123 2.837L9.7409 2.39886C9.7409 2.39886 9.55854 2.48232 9.42106 2.48232Z" fill="black"/>
<path d="M0.650632 8.64757L0.0698209 9.04767C0.0698209 9.04767 0.0237789 9.21303 0.110556 9.34369C0.197545 9.47393 0.330363 9.49414 0.330363 9.49414L1.08632 8.9638C1.08632 8.9638 0.658482 8.944 0.836492 8.63278C1.0145 8.32145 1.00485 8.20423 1.00485 8.20423C1.00485 8.20413 0.797134 8.23768 0.650632 8.64757Z" fill="black"/>
<path d="M2.24487 4.7306C1.7817 5.66688 0.226081 8.67461 0.17166 8.78203C0.117133 8.88904 0.0625 9.07617 0.0625 9.07617L0.661983 8.64794L3.47099 3.15155C3.47099 3.15155 2.70814 3.7938 2.24487 4.7306Z" fill="black"/>
<path d="M1.09764 8.97674L0.327148 9.52116C0.327148 9.52116 9.10351 9.54241 9.32523 9.54241C9.54663 9.54241 9.63966 9.58398 9.63966 9.58398L10.0349 9.14283C10.0349 9.14283 9.65738 8.97674 9.44765 8.97674H1.09764Z" fill="black"/>
<path d="M9.86523 9.82568C9.86523 9.82568 9.94607 9.9852 9.94607 10.1124V11.2522C9.94607 11.4152 10.0108 11.5566 10.0108 11.5566L10.3964 11.1105V9.74514C10.3964 9.52727 10.2741 9.344 10.2741 9.344L9.86523 9.82568Z" fill="black"/>
<path d="M21.1328 9.60486V10.9703L21.738 11.4902C21.738 11.4902 21.753 11.3517 21.753 11.1889V10.0486C21.753 9.92151 21.7905 9.84149 21.7905 9.84149L21.2614 9.32188C21.2614 9.32188 21.1328 9.38658 21.1328 9.60486Z" fill="black"/>
<path d="M20.6805 11.1979H15.9229V11.832H21.1875C21.3665 11.832 21.5751 11.7151 21.6148 11.6854L21.0182 11.1298C21.0182 11.1298 20.9788 11.1979 20.6805 11.1979Z" fill="black"/>
<path d="M10.1924 11.7526C10.1924 11.7526 10.3149 11.8379 10.6574 11.8379C10.9995 11.8379 15.923 11.8317 15.923 11.8317V11.1976H10.8413C10.7493 11.1976 10.6878 11.1809 10.6878 11.1809L10.1924 11.7526Z" fill="black"/>
<path d="M11.5586 1.16801C11.283 1.16801 11.0078 1.31846 11.0078 1.61905V3.09151C11.0078 3.39169 10.824 3.51203 10.61 3.51203H4.51753C4.27004 3.51203 4.07856 3.61341 3.96855 3.81794C3.87848 3.98601 2.35702 6.98103 1.86532 7.94898C1.7587 8.15893 1.85184 8.28657 2.12544 8.28657H10.6408C11.0078 8.28657 11.0691 8.61727 11.0691 8.94757V10.0918C11.0691 10.3026 11.2831 10.543 11.5279 10.543H15.8117V1.16801H11.5586Z" fill="#FFD124"/>
<path d="M21.5342 9.10243L22.0247 9.59766C22.0247 9.59766 22.1471 9.53108 22.7196 9.53108H27.951C28.0597 9.53108 28.2096 9.47742 28.2096 9.47742L25.4442 8.92895C25.4442 8.92895 22.2426 8.93113 22.0928 8.92895C22.0872 8.92874 22.0816 8.92863 22.076 8.92863C21.7513 8.92863 21.5342 9.10243 21.5342 9.10243Z" fill="black"/>
<path d="M21.7188 2.77821C21.7188 2.77821 21.9579 2.85666 22.1531 2.85666H30.3902C30.6409 2.85666 30.7872 2.875 30.7872 2.875L31.4528 2.48532C31.4528 2.48532 31.2392 2.42541 31.0255 2.42541H22.471C22.2572 2.42541 22.1681 2.37633 22.1681 2.37633L21.7188 2.77821Z" fill="black"/>
<path d="M31.0294 3.0853C31.0294 3.0853 31.0671 3.29056 30.9959 3.43007C30.9249 3.56948 28.4352 8.37871 28.3228 8.5996C28.2101 8.82039 27.9561 8.90176 27.9561 8.90176L28.2398 9.45898C28.2398 9.45898 28.3403 9.38397 28.3997 9.30822C28.4588 9.23278 31.5222 3.11041 31.6169 2.89567C31.7113 2.68072 31.6283 2.60299 31.6283 2.60299L31.0294 3.0853Z" fill="black"/>
<path d="M27.6916 8.94307C27.3647 8.94307 25.5254 8.95682 25.5254 8.95682L28.1412 9.47852C28.1412 9.47852 28.3048 9.41214 28.3866 9.27774C28.4685 9.14395 28.3863 9.10394 28.2911 9.18417C28.196 9.26492 28.0325 9.13114 28.114 9.03736C28.196 8.94317 28.2774 8.64883 28.2774 8.64883C28.2773 8.64872 28.0188 8.94307 27.6916 8.94307Z" fill="black"/>
<path d="M3.35778 8.52866C1.64473 8.64098 1.09766 8.95908 1.09766 8.95908H9.27803C10.2083 8.95908 10.1021 9.08401 10.0969 9.08963L10.7629 8.3979C10.7629 8.3979 9.1449 8.3979 8.11694 8.37935C7.98625 8.37706 7.83964 8.37591 7.67956 8.37591C6.58084 8.37591 4.85315 8.43092 3.35778 8.52866ZM10.0967 9.08984L10.0969 9.08963L10.0967 9.08984Z" fill="black"/>
<path d="M22.653 8.37864C21.9252 8.39719 20.7793 8.39719 20.7793 8.39719L21.543 9.10352C21.543 9.10352 21.6216 8.93816 22.2955 8.93816C22.9697 8.93816 27.8286 8.9218 27.8286 8.9218C27.8286 8.9218 27.9106 8.6609 26.4798 8.56067C25.3528 8.48159 23.6521 8.37677 22.8299 8.37677C22.7709 8.37671 22.7119 8.37733 22.653 8.37864Z" fill="black"/>
<path d="M20.9219 3.58558C20.9219 3.58558 22.0681 3.58558 22.7961 3.60423C23.524 3.62288 27.9364 3.42637 29.15 3.31405C30.3635 3.20194 30.7506 2.88395 30.7506 2.88395C30.7506 2.88395 23.0357 2.92437 22.3617 2.92437C21.688 2.92437 21.782 2.79319 21.782 2.79319L20.9219 3.58558Z" fill="black"/>
<path d="M10.3145 9.36379C10.3145 9.36379 10.3962 9.62448 10.3962 9.82526V10.7284C10.3962 10.9692 10.4781 11.0898 10.4781 11.0898L11.1729 10.4072C11.1729 10.4072 11.0691 10.1665 11.0691 9.98582V8.96754C11.0691 8.73207 11.0093 8.54056 11.0093 8.54056L10.3145 9.36379Z" fill="black"/>
<path d="M20.5095 8.96181C20.5095 9.19728 20.4934 9.82744 20.4934 10.0083C20.4934 10.1885 20.4512 10.4072 20.4512 10.4072L21.1458 11.0898C21.1458 11.0898 21.2278 10.9691 21.2278 10.7284V9.82526C21.2278 9.62448 21.3095 9.36378 21.3095 9.36378L20.5655 8.52159C20.5294 8.66568 20.5106 8.81342 20.5095 8.96181Z" fill="black"/>
<path d="M10.7031 11.1709L15.7711 11.2109L15.7916 11.2105V10.5439L11.3774 10.5283L10.7031 11.1709Z" fill="black"/>
<path d="M15.8114 10.5443H15.791V11.2109L21.0021 11.1515L20.1644 10.5287L15.8114 10.5443Z" fill="black"/>
<path d="M10.7716 0.579818C10.6285 0.579818 10.4961 0.655565 10.4961 0.655565L11.1678 1.30469C11.1678 1.30469 11.234 1.16371 11.7074 1.16371H15.812V0.579818H10.7716Z" fill="black"/>
<path d="M15.8115 0.578996V1.16289H19.9161C20.3895 1.16289 20.4875 1.36523 20.4875 1.36523L21.159 0.716426C21.159 0.716426 20.9952 0.578996 20.8521 0.578996H15.8115Z" fill="black"/>
<path d="M10.3681 1.14575V2.32448C10.3681 2.46431 10.3057 2.62997 10.3057 2.62997L10.9635 3.36328C10.9635 3.36328 11.0079 3.30233 11.0079 2.99694C11.0079 2.69134 11.0345 1.49552 11.0345 1.49552L10.3768 0.770965C10.3768 0.770965 10.3681 0.962574 10.3681 1.14575Z" fill="black"/>
<path d="M20.5156 1.50959V2.97517C20.5156 3.28066 20.6611 3.36328 20.6611 3.36328L21.465 2.56788C21.465 2.56788 21.3602 2.40148 21.3602 2.26207C21.3602 2.12224 21.3534 1.27005 21.3534 1.08677C21.3534 0.903496 21.3615 0.733975 21.3615 0.733975L20.5156 1.50959Z" fill="black"/>
<path d="M9.82394 2.94095H4.18386C4.02038 2.94095 3.75454 3.00118 3.67285 3.08161L4.18386 3.60352C4.18386 3.60352 4.32676 3.50328 4.67429 3.50328H10.5392C10.7028 3.50328 10.8661 3.44275 10.8661 3.44275L10.2124 2.7806C10.2124 2.7806 10.0487 2.94095 9.82394 2.94095Z" fill="black"/>
<path d="M27.3906 8.30885C27.3906 8.30885 27.7064 8.19216 27.8052 8.56058C27.8052 8.56058 27.8841 8.67718 28.1012 8.36668C28.3182 8.0566 30.3714 3.90879 30.351 3.85002C30.3312 3.79209 29.9167 3.71436 29.9167 3.71436L27.3906 8.30885Z" fill="black"/>
<path d="M29.9764 3.75433C30.0753 3.81226 30.1739 3.88999 30.0358 4.18058C29.8978 4.47086 28.3187 7.49527 27.9835 8.07656C27.6479 8.65796 27.9436 8.89062 27.9436 8.89062C27.9436 8.89062 28.2005 8.77403 28.2776 8.64838C28.3555 8.5223 30.7663 3.83153 30.9323 3.51656C31.0982 3.20148 30.9831 3.07541 30.9831 3.07541L29.9764 3.75433Z" fill="black"/>
<path d="M15.8115 1.16801V10.543H20.0322C20.2767 10.543 20.491 10.4528 20.491 10.1818V8.78367C20.491 8.51329 20.6743 8.30345 20.8887 8.30345H27.2558C27.4792 8.30345 27.6799 8.17498 27.7963 7.96367C28.3165 7.01885 29.7494 4.27889 29.8578 4.058C29.9902 3.78835 29.9083 3.63217 29.6015 3.63217H21.1639C20.7969 3.63217 20.5211 3.362 20.5211 3.03139V1.49882C20.5211 1.28845 20.3988 1.16811 20.1236 1.16811H15.8115V1.16801Z" fill="#FFD124"/>
<path d="M1.0293 8.69727L1.84615 8.21079C1.84615 8.21079 1.75258 8.17078 1.89961 7.88164C2.04686 7.59251 3.42606 4.83056 3.42606 4.83056L3.11831 4.76513L1.0293 8.69727Z" fill="black"/>
<path d="M0.954742 8.34021C0.750318 8.70155 0.791478 8.8418 0.791478 8.8418L1.2818 8.52067C1.2818 8.52067 3.46831 4.36598 3.6931 3.88409C3.918 3.40251 3.58288 3.20632 3.58288 3.20632C3.58288 3.20632 1.15917 7.97898 0.954742 8.34021Z" fill="black"/>
<path d="M1.2859 8.97604C1.25349 8.99741 0.954645 9.03365 0.896236 8.97604C0.837747 8.91907 0.740052 8.87443 0.818064 8.81042C0.896316 8.74633 1.85742 8.1852 1.85742 8.1852C1.85742 8.1852 1.74069 8.24889 2.72828 8.24889H10.6281C10.8361 8.24889 11.0308 8.38907 11.057 8.47845C11.083 8.56798 11.0309 8.60607 10.966 8.59358C10.9013 8.58062 10.7322 8.52957 10.6932 8.46556C10.6542 8.40195 10.7452 8.35091 10.1733 8.35091C9.60166 8.35091 5.23595 8.41492 4.24867 8.50405C3.26108 8.59358 1.96136 8.52965 1.2859 8.97612V8.97604ZM30.4651 2.90135C30.4974 2.88038 30.7967 2.84422 30.855 2.90135C30.9134 2.95879 31.011 3.00344 30.933 3.06737C30.855 3.13106 29.8936 3.69259 29.8936 3.69259C29.8936 3.69259 30.0102 3.6289 29.0228 3.6289H21.1227C20.9148 3.6289 20.72 3.4888 20.6942 3.39926C20.6681 3.30965 20.7199 3.27124 20.7846 3.2842C20.8501 3.29717 21.0188 3.34821 21.0579 3.41174C21.0967 3.47583 21.0057 3.52648 21.5776 3.52648C22.1495 3.52648 26.5147 3.46295 27.5027 3.37366C28.4898 3.2842 29.7897 3.34821 30.465 2.90135H30.4651ZM3.83653 3.63962C3.83653 3.54929 3.88758 3.37878 3.84685 3.32885C3.80588 3.27844 3.92846 3.21827 4.01032 3.2682C4.09209 3.31853 4.26564 3.35854 4.28604 3.39886C4.30652 3.43887 4.27588 3.53904 4.16354 3.57937C4.05104 3.61938 3.94887 3.70979 3.77524 4.08081C3.60145 4.45254 2.61026 6.33908 2.61026 6.33908C2.61026 6.33908 2.75348 6.03815 2.69211 6.02783C2.63082 6.01791 2.48792 6.2689 2.48792 6.2689L3.83653 3.6397V3.63962ZM10.6685 3.46207C10.584 3.47047 10.5604 3.3795 10.6325 3.36766C10.705 3.35574 10.801 3.35005 10.8852 3.02472C10.9697 2.69939 10.9095 1.71236 10.8974 1.53513C10.8852 1.35775 10.8011 1.14507 10.9217 1.05058C11.0419 0.955765 11.1262 1.157 11.4392 1.157C11.7521 1.157 12.4624 1.13331 12.4624 1.13331C12.4624 1.13331 11.4633 1.2038 11.2946 1.22773C11.1261 1.25149 10.9816 1.38135 11.0056 1.61787C11.0299 1.85438 10.9697 3.07233 10.9217 3.20227C10.8734 3.33221 10.789 3.45031 10.6685 3.46215V3.46207ZM17.4092 1.14059C17.2766 1.14659 19.9474 1.1714 20.1157 1.1714C20.2842 1.1714 20.4768 1.22165 20.513 1.38695C20.5491 1.55274 20.5235 2.0953 20.5235 2.0953C20.5235 2.0953 20.6065 1.39887 20.727 1.26893C20.8473 1.13851 20.8112 0.949684 20.6548 0.98473C20.4982 1.02058 19.2588 1.05866 17.4092 1.14059ZM20.9756 8.38867C20.8916 8.37643 20.7956 8.36515 20.7713 8.43588C20.7472 8.50629 20.8793 8.55358 20.7472 8.62407C20.6154 8.69496 20.5171 8.73849 20.5171 8.67936C20.5171 8.62031 20.5852 8.31738 20.8375 8.31738C21.0897 8.31738 27.3148 8.3057 27.4114 8.3057C27.5071 8.3057 27.6274 8.31738 27.6752 8.41204C27.7232 8.50645 27.7833 8.74217 27.8195 8.81314C27.8553 8.88387 27.7955 8.88387 27.6871 8.74217C27.5791 8.60054 27.3032 8.54182 27.0872 8.55358C26.8709 8.56534 20.9756 8.38867 20.9756 8.38867ZM27.8433 8.58902C27.8433 8.58902 27.7834 8.45948 27.7473 8.37643C27.7112 8.29418 27.6032 8.25913 27.6032 8.25913C27.6032 8.25913 27.7232 8.11711 27.8911 7.81082C28.0595 7.50454 28.8519 6.04175 28.9358 5.84124C28.9358 5.84124 28.7557 6.3842 29.1039 5.93565C29.1039 5.93565 27.9754 8.03446 27.9032 8.17616C27.8313 8.31786 27.8432 8.58902 27.8432 8.58902H27.8433ZM11.144 10.2397C11.144 10.2397 11.1583 10.4093 11.058 10.4797C10.9577 10.5502 10.9145 10.677 11.0007 10.7336C11.0868 10.7899 11.1441 10.7618 11.2015 10.677C11.259 10.5926 11.4601 10.522 11.5892 10.5503C11.5893 10.5502 11.144 10.6061 11.144 10.2397ZM17.3319 10.5418C17.3319 10.5418 19.7548 10.6672 19.8984 10.6737L20.1423 10.6847C20.1423 10.6847 19.8852 10.6447 19.9613 10.5636L17.3318 10.5418H17.3319ZM20.2035 10.522C20.2035 10.522 20.1319 10.6348 20.2466 10.6909C20.3617 10.7472 20.4767 10.8035 20.5484 10.719C20.62 10.6345 20.491 10.409 20.5052 10.2539C20.5052 10.2538 20.5626 10.4938 20.2035 10.522" fill="black"/>
</g>
<defs>
<clipPath id="clip0_477_6110">
<rect width="31.6491" height="12" fill="white"/>
</clipPath>
</defs>
</svg>
