<svg width="42" height="6" viewBox="0 0 42 6" fill="none" xmlns="http://www.w3.org/2000/svg">
<g clip-path="url(#clip0_477_6189)">
<path d="M41.8659 1.46143L25.0434 1.67632C24.7115 1.65278 24.2176 1.49335 23.7112 1.24364C22.8718 0.829657 21.8754 0.524169 21.2174 0.524169L20.9054 0.515625L20.5862 0.516431C19.9283 0.516431 18.9242 0.766786 18.0956 1.15272C17.6548 1.3581 16.945 1.67487 16.3464 1.6976L0.397284 1.58427C0.397284 1.58427 -0.263178 1.50028 0.121139 1.67503C0.420324 1.81141 2.31462 1.85236 2.31462 1.85236L16.8521 1.96827C17.0311 1.9723 16.786 2.2644 16.5667 2.25231L3.86627 2.08143C3.86627 2.08143 3.54633 2.07144 3.8996 2.30374C4.29895 2.56635 5.6952 2.50219 5.6952 2.50219L16.6891 2.65211C16.924 2.64211 16.6992 2.93422 16.4057 2.95776L8.38983 2.83621C8.38983 2.83621 8.07447 2.81815 8.32692 2.99097C8.65878 3.21827 10.1225 3.18925 10.1225 3.18925L15.8391 3.28839C16.4312 3.36432 16.8644 3.48555 17.1061 3.65047C17.4053 3.85488 17.5525 4.35785 18.487 4.92207C18.487 4.92207 19.4827 5.40715 20.8115 5.39892C21.9746 5.39167 22.6229 5.16646 23.3432 4.78585C23.9875 4.44522 24.1677 4.03011 24.4019 3.74139C24.678 3.40092 25.4145 3.31 26.0591 3.21924L31.7438 3.10575C31.7438 3.10575 33.0555 3.12848 33.4312 2.93051C33.8057 2.73303 33.3681 2.77575 33.3681 2.77575L25.3061 2.8973C25.0127 2.87377 24.788 2.58166 24.931 2.63712L35.9556 2.42448C35.9556 2.42448 37.6659 2.42384 38.0268 2.22007C38.3955 2.01195 38.076 2.02098 38.076 2.02098L25.1846 2.22007C24.9653 2.23216 24.6349 1.97971 24.8136 1.97584L38.9473 1.74322C38.9473 1.74322 41.3677 1.7134 41.7782 1.607C42.2151 1.49351 41.8659 1.46143 41.8659 1.46143Z" fill="black"/>
<path d="M17.3594 3.01496C17.3594 4.30365 18.9015 5.24124 20.8347 5.21738C22.6759 5.19465 24.3099 4.30365 24.3099 3.01496C24.3099 1.72611 22.9058 0.783203 20.9212 0.783203C18.9365 0.783203 17.3594 1.72611 17.3594 3.01496Z" fill="black"/>
<path d="M24.103 3.03807C24.126 3.96904 22.7464 5.03623 20.927 5.03623C19.1075 5.03623 17.627 4.21778 17.627 3.08192C17.627 1.94621 19.1018 1.02539 20.9213 1.02539C22.7407 1.02539 24.0772 1.99393 24.103 3.03807Z" fill="#FFD124"/>
<path d="M21.4793 4.71741L21.3187 4.53782C21.1563 4.59715 20.9703 4.59231 20.7891 4.5425C20.7669 4.53637 20.7455 4.53025 20.7234 4.52477C20.6372 4.50381 20.5473 4.50429 20.4595 4.48785C20.304 4.45513 20.1664 4.38903 20.0564 4.27441C20.0094 4.2246 19.9708 4.1693 19.9197 4.12433C19.7808 4.00503 19.6306 3.91701 19.5347 3.75484L19.4883 3.66214C19.4385 3.54624 19.422 3.42952 19.4228 3.30475C19.4254 3.18384 19.4434 3.06406 19.4434 2.94316C19.4414 2.61849 19.4489 2.33412 19.7094 2.10891C19.7731 2.05587 19.8421 2.01218 19.912 1.96785C19.9908 1.9182 20.0517 1.87193 20.1125 1.80278C20.2584 1.63834 20.4429 1.56612 20.6613 1.57241C20.7651 1.57644 20.8653 1.59691 20.9669 1.61191C21.029 1.62077 21.0921 1.62077 21.1543 1.62835C21.3189 1.65011 21.4522 1.73329 21.5913 1.81712C21.6467 1.85001 21.7073 1.87193 21.7661 1.89837C22.0674 2.03475 22.1919 2.26464 22.2243 2.58528C22.2298 2.64541 22.2341 2.7107 22.2666 2.76325C22.2833 2.78921 22.3027 2.81371 22.3199 2.83982C22.4594 3.05181 22.4519 3.36069 22.3199 3.58219L22.4061 3.65666C22.4568 3.69971 22.4346 3.76854 22.4346 3.76854L22.3081 4.17237C22.6034 3.84576 22.6994 3.37084 22.6994 2.90092C22.6535 1.94722 21.9233 1.2832 20.8926 1.2832C19.8618 1.2832 19.0273 2.04281 19.0273 3.06052C19.0273 4.07742 19.8736 4.83074 20.9042 4.83074C21.1037 4.8309 21.2983 4.77464 21.4793 4.71741Z" fill="black"/>
<path d="M21.7072 4.8603C21.7201 4.87884 21.7665 4.92994 21.7798 4.8877L21.8758 4.59382C21.8848 4.56577 21.9118 4.5453 21.9401 4.57335L22.0108 4.64283C22.0173 4.65041 22.0255 4.65629 22.0348 4.65992C22.0451 4.66395 22.0464 4.64831 22.0494 4.64074L22.3115 3.7944C22.3232 3.757 22.3149 3.71121 22.2817 3.68397C22.2278 3.63948 22.1925 3.60901 22.1476 3.57193C22.167 3.55017 22.1814 3.53243 22.1974 3.50309C22.2819 3.3435 22.3053 3.11362 22.2141 2.9508C22.1816 2.89276 22.1325 2.84295 22.1098 2.78024C22.0785 2.69367 22.0793 2.59953 22.066 2.50925C22.0342 2.29662 21.9312 2.14315 21.7361 2.04691C21.6623 2.01063 21.5835 1.98565 21.5137 1.94325C21.3941 1.87103 21.2876 1.79607 21.1459 1.77559C21.0837 1.76673 21.0208 1.76737 20.9587 1.75915C20.8861 1.74964 20.8149 1.72981 20.7417 1.7224C20.5613 1.70241 20.3918 1.7332 20.2613 1.85942C20.217 1.90247 20.1804 1.95421 20.1319 1.99387C19.9861 2.11316 19.8036 2.17797 19.6971 2.34095C19.5699 2.53746 19.5927 2.78234 19.5907 3.00658C19.5899 3.12667 19.5652 3.24532 19.5699 3.36591C19.5747 3.47778 19.6023 3.57531 19.657 3.67204C19.7454 3.83228 19.8948 3.90676 20.0268 4.02412C20.0869 4.07796 20.1306 4.14534 20.1894 4.19983C20.2758 4.28044 20.3843 4.32622 20.5012 4.34734C20.5619 4.3583 20.6229 4.35959 20.6837 4.36846C20.7423 4.37732 20.7992 4.39505 20.8557 4.40924C21.0271 4.45422 21.211 4.45148 21.3561 4.36088C21.4678 4.51951 21.5883 4.69474 21.7072 4.8603Z" fill="black"/>
<path d="M21.3528 2.39931C21.2447 2.32724 21.1205 2.28203 20.9909 2.26751C20.8613 2.253 20.73 2.26963 20.6083 2.31597C20.4551 2.37474 20.3236 2.47798 20.2312 2.61206C20.1388 2.74614 20.0898 2.90473 20.0906 3.06687C19.9655 3.13248 19.7705 3.22856 19.6357 3.29885C19.6392 3.20196 19.6565 3.10798 19.6565 3.00642C19.6578 2.80459 19.6406 2.58422 19.7353 2.40479C19.8217 2.24198 20.0179 2.16492 20.1645 2.05094C20.2777 1.96228 20.3174 1.83412 20.5145 1.79575C20.7197 1.75626 20.8152 1.80817 20.9637 1.82461C21.0702 1.83606 21.1635 1.8259 21.2782 1.88103C21.3508 1.91585 21.4171 1.96018 21.4856 2.00113C21.59 2.064 21.7013 2.08577 21.8029 2.16153L21.3528 2.39931Z" fill="black"/>
<path d="M21.8431 2.19531L19.6357 3.35407C19.638 3.46359 19.67 3.57051 19.7282 3.66375C19.7802 3.75097 19.8624 3.81368 19.9454 3.87574L22.0393 2.77437C21.99 2.60043 22.0317 2.42181 21.8931 2.24916C21.8779 2.22992 21.8612 2.21192 21.8431 2.19531Z" fill="black"/>
<path d="M22.0558 2.82222C21.9399 2.88322 21.8242 2.94459 21.7087 3.00632C21.7205 3.17685 21.6767 3.34664 21.5839 3.49093C21.491 3.63522 21.3538 3.74648 21.1924 3.80849C21.0623 3.85803 20.9215 3.87358 20.7836 3.85364C20.6457 3.8337 20.5153 3.77894 20.4051 3.69468C20.2938 3.75319 20.112 3.84524 19.9883 3.9094C20.0172 3.93117 20.0448 3.95374 20.0711 3.97695C20.1852 4.07916 20.2136 4.18362 20.4002 4.2531C20.5322 4.30227 20.6206 4.28985 20.7216 4.30968C20.8461 4.33354 20.9677 4.38884 21.0927 4.3732C21.4177 4.33306 21.4072 4.19587 21.5144 4.1114C21.5842 4.05626 21.6755 4.03353 21.7502 3.98372C21.8427 3.92246 21.8675 3.80381 21.9215 3.71515C22.0184 3.55571 22.1643 3.58973 22.2001 3.2412C22.2259 2.99326 22.1112 2.94764 22.0558 2.82222ZM20.15 3.03695L21.2935 2.4321C21.1951 2.37232 21.0839 2.3358 20.9688 2.32537C20.8537 2.31494 20.7376 2.33089 20.6298 2.37197C20.4927 2.42446 20.3743 2.51541 20.289 2.63359C20.2037 2.75177 20.1554 2.89199 20.15 3.03695Z" fill="black"/>
<path d="M20.4822 2.19291C20.446 2.16631 20.5023 2.15551 20.5139 2.16357L20.5678 2.20178C20.6175 2.23789 20.547 2.24143 20.5346 2.23257L20.4822 2.19291ZM20.3929 2.24063C20.3542 2.21741 20.4088 2.20113 20.4212 2.20855L20.4787 2.24063C20.5327 2.27142 20.4621 2.28222 20.449 2.2748L20.3929 2.24063ZM20.3086 2.29721C20.2678 2.27883 20.3204 2.25626 20.3335 2.26255L20.3944 2.28915C20.4511 2.31365 20.3818 2.33219 20.3688 2.32542L20.3086 2.29721ZM20.2312 2.36266C20.1884 2.34767 20.2382 2.32043 20.2526 2.32526L20.3148 2.34493C20.3743 2.36411 20.308 2.38926 20.2933 2.38394L20.2312 2.36266ZM20.1608 2.43569C20.1171 2.42569 20.1635 2.39281 20.1779 2.39555L20.2429 2.40909C20.3031 2.42199 20.24 2.45342 20.2256 2.45068L20.1608 2.43569ZM20.0991 2.51484C20.0542 2.50936 20.0972 2.47261 20.1117 2.47406L20.1773 2.48083C20.2389 2.48711 20.1794 2.52516 20.1642 2.52306L20.0991 2.51484ZM20.0452 2.60076C20.0003 2.59947 20.039 2.55837 20.0536 2.55837H20.1199C20.1822 2.55772 20.1268 2.60205 20.1117 2.60205L20.0452 2.60076ZM20.0018 2.69072C19.9568 2.69491 19.9907 2.64993 20.0052 2.64848L20.0709 2.64107C20.1331 2.63478 20.0826 2.68475 20.0674 2.68604L20.0018 2.69072ZM19.9671 2.78551C19.9228 2.79389 19.9527 2.74537 19.9665 2.74263L20.0313 2.72893C20.0921 2.71587 20.0474 2.77052 20.0322 2.77326L19.9671 2.78551ZM19.9436 2.88304C19.9001 2.8961 19.9241 2.84483 19.938 2.84064L20.0011 2.82033C20.0596 2.80114 20.021 2.85982 20.0065 2.8645L19.9436 2.88304ZM19.9297 2.98267C19.8882 3.00056 19.907 2.94655 19.9201 2.94107L19.9802 2.91447C20.0369 2.88917 20.005 2.95187 19.9913 2.95736L19.9297 2.98267ZM19.9269 3.08294C19.8875 3.10389 19.9001 3.04941 19.9132 3.04263L19.9699 3.00991C20.024 2.97928 19.9983 3.04473 19.9853 3.0515L19.9269 3.08294ZM21.3644 2.21757C21.365 2.17324 21.407 2.21145 21.407 2.2258V2.29125C21.407 2.35186 21.3622 2.29737 21.3629 2.28303L21.3644 2.21757ZM21.2724 2.17389C21.2689 2.12972 21.3144 2.16357 21.3158 2.17792L21.3229 2.24272C21.3297 2.30334 21.2792 2.25352 21.2779 2.23934L21.2724 2.17389ZM21.1761 2.14052C21.168 2.09683 21.217 2.12553 21.2204 2.13971L21.2343 2.20323C21.2467 2.2632 21.1915 2.21886 21.1887 2.20452L21.1761 2.14052ZM21.0773 2.1165C21.0642 2.07426 21.1162 2.09812 21.1209 2.11182L21.1415 2.17389C21.1601 2.23176 21.1006 2.19372 21.0965 2.17937L21.0773 2.1165ZM20.9764 2.1036C20.9593 2.06282 21.013 2.08055 21.0194 2.09409L21.0464 2.15342C21.0711 2.20935 21.0085 2.17727 21.0021 2.16357L20.9764 2.1036ZM20.8755 2.10086C20.8541 2.0612 20.9088 2.07426 20.9163 2.08651L20.9495 2.1431C20.9805 2.1963 20.9142 2.17115 20.9067 2.15809L20.8755 2.10086ZM20.7738 2.10828C20.7482 2.07152 20.8049 2.07829 20.8139 2.0899L20.8526 2.1431C20.8892 2.19227 20.8201 2.17437 20.8117 2.16228L20.7738 2.10828ZM20.6737 2.12682C20.6447 2.0928 20.7013 2.09409 20.7117 2.10425L20.756 2.15261C20.7974 2.19839 20.7271 2.18759 20.7171 2.17598L20.6737 2.12682ZM20.5763 2.1547C20.5438 2.12407 20.6005 2.11924 20.6116 2.12875L20.6606 2.17244C20.707 2.21338 20.6358 2.21 20.6246 2.19968L20.5763 2.1547Z" fill="black"/>
<path d="M20.3359 2.76696L20.4301 2.628L20.4654 2.68603L20.7624 2.44922L20.8018 2.53869L20.907 2.47662L20.7742 2.61236L20.7348 2.53095L20.434 2.77534L20.4106 2.72488L20.3359 2.76696Z" fill="black"/>
<path d="M21.5321 2.24955C21.3508 2.11115 21.128 2.03607 20.8988 2.03612C20.327 2.03612 19.8605 2.49652 19.8605 3.06043C19.8605 3.08429 19.8612 3.1075 19.8633 3.13136L19.6904 3.22276C19.6968 3.15038 19.7051 3.07961 19.7064 3.00723C19.7071 2.81281 19.6872 2.59196 19.7867 2.41463C19.8911 2.24665 20.0997 2.18394 20.2388 2.05111C20.2831 2.00678 20.3218 1.95696 20.3687 1.91602C20.4649 1.83848 20.5962 1.82268 20.7171 1.83283C20.7981 1.8417 20.8782 1.86282 20.9586 1.87314C21.0372 1.8812 21.1154 1.87942 21.1922 1.90038C21.3097 1.9352 21.4069 2.01903 21.5156 2.07287C21.5787 2.10286 21.6435 2.12672 21.7043 2.1588L21.5321 2.24955Z" fill="black"/>
<path d="M20.2911 3.60707L20.3568 3.56951V3.04365L20.2911 3.08057V3.30368L20.2158 3.34188V3.11942L20.1503 3.15698V3.68348L20.2158 3.64592V3.40459L20.2911 3.36623V3.60707ZM20.475 2.98094L20.5338 2.9516C20.5338 2.9516 20.6085 2.91323 20.6085 2.99448V3.15553C20.6085 3.15553 20.5982 3.22162 20.5663 3.23807L20.6403 3.36155L20.681 3.34253V3.38751L20.6132 3.42491L20.5205 3.27418L20.475 3.29691V3.50777L20.4093 3.54452V3.01866L20.475 2.98094ZM21.664 2.88405L21.729 2.84666V2.6358L21.7746 2.61323L21.8678 2.76396L21.9349 2.72656V2.68158L21.8949 2.70076L21.8202 2.57728C21.8526 2.56083 21.8624 2.49474 21.8624 2.49474V2.33321C21.8624 2.25212 21.7877 2.29017 21.7877 2.29017L21.729 2.32015L21.664 2.35707V2.88405ZM21.5632 2.63934V2.71833L21.492 2.75461V2.9142L21.6135 2.85278V2.90662L21.4339 2.99803V2.47088L21.6135 2.37948V2.45379L21.492 2.51586V2.67545L21.5632 2.63934ZM20.032 3.64254V3.59546L20.0893 3.56951V3.65898C20.0893 3.65898 20.0949 3.71218 20.054 3.73394L19.9718 3.77134C19.9718 3.77134 19.9062 3.80955 19.9062 3.72894V3.3306C19.9062 3.3306 19.8944 3.27063 19.9566 3.23791L20.0575 3.19502C20.0575 3.19502 20.0962 3.1752 20.0962 3.21743V3.3069L20.0374 3.32802C20.0374 3.30561 20.0416 3.26934 20.0063 3.28578C19.9718 3.30223 19.9718 3.31109 19.9696 3.33834V3.66575C19.9696 3.66575 19.9642 3.69864 19.9933 3.68751C20.023 3.6772 20.032 3.68284 20.032 3.64254ZM20.9645 2.71688L21.0571 2.67126C21.0571 2.67126 21.1145 2.63515 21.1145 2.70479V2.77637L21.0696 2.79684V2.76283C21.0696 2.76283 21.0717 2.72043 21.0419 2.73687L21.0163 2.74784C21.0163 2.74784 20.9991 2.75396 20.9991 2.77717V2.90936C20.9991 2.90936 21.0031 2.9429 21.0307 2.9271L21.0745 2.91194C21.0745 2.91194 21.1214 2.8868 21.1214 2.9387V3.12425C21.1214 3.12425 21.1241 3.17455 21.0745 3.2026L20.9795 3.23597C20.9795 3.23597 20.9312 3.26321 20.9312 3.20808V3.15279L20.9838 3.13167V3.16633C20.9838 3.16633 20.9831 3.18132 21.0148 3.17262L21.0377 3.15972C21.0377 3.15972 21.057 3.16246 21.057 3.12619V3.01157C21.057 3.01157 21.0576 2.97885 21.0335 2.99255L20.9753 3.01496C20.9753 3.01496 20.9297 3.02318 20.9297 2.96579V2.78104C20.9297 2.78104 20.9223 2.7409 20.9645 2.71688ZM21.3779 2.96659L21.2722 3.01915V2.55471L21.2037 2.58872V3.11458L21.3779 3.0293V2.96659ZM20.7433 3.07928L20.6348 2.89921L20.7011 2.87116L20.7668 2.98852L20.8158 2.80023L20.8911 2.75589L20.8089 3.06686V3.32609L20.7433 3.35752V3.07928Z" fill="black"/>
<path d="M21.7287 2.38046V2.55779L21.7709 2.53458C21.7709 2.53458 21.8049 2.52362 21.8049 2.4767V2.38675C21.8049 2.38675 21.7972 2.34854 21.7736 2.35935L21.7287 2.38046ZM20.4746 3.21874L20.5161 3.19553C20.5161 3.19553 20.5508 3.18392 20.5508 3.13766V3.04754C20.5508 3.04754 20.5431 3.01014 20.5197 3.02094L20.4748 3.04206V3.21874H20.4746Z" fill="black"/>
<path d="M21.651 3.03516L20.4629 3.66322C20.5643 3.73505 20.6822 3.78083 20.806 3.79643C20.9298 3.81202 21.0556 3.79693 21.1721 3.75253C21.3174 3.69672 21.4416 3.59769 21.5274 3.46917C21.6132 3.34064 21.6564 3.18897 21.651 3.03516Z" fill="black"/>
<path d="M20.8369 3.6312L20.9614 3.53044L20.9807 3.6075L21.2745 3.37891L21.3015 3.42517L21.3721 3.3831L21.2899 3.51061L21.243 3.46096L20.9338 3.70842L20.9261 3.62717L20.8369 3.6312Z" fill="black"/>
<path d="M20.3469 3.85048C20.3407 3.89497 20.3033 3.85257 20.3047 3.83822L20.3116 3.77342C20.3178 3.71216 20.3572 3.77132 20.3552 3.78583L20.3469 3.85048ZM20.4332 3.90287C20.4325 3.94801 20.3904 3.90916 20.3904 3.89481V3.83C20.3904 3.76858 20.4353 3.82307 20.4346 3.83806L20.4332 3.90287ZM20.5253 3.94672C20.5288 3.99089 20.483 3.95687 20.4817 3.94253L20.4747 3.87772C20.4678 3.81711 20.5183 3.86692 20.5196 3.88175L20.5253 3.94672ZM20.6214 3.98009C20.6296 4.02442 20.5805 3.99508 20.5778 3.98073L20.564 3.91738C20.5508 3.85725 20.606 3.90158 20.609 3.91593L20.6214 3.98009ZM20.7201 4.00411C20.7333 4.04683 20.6814 4.02313 20.6766 4.00943L20.6559 3.9472C20.6372 3.88868 20.6967 3.92689 20.7008 3.94108L20.7201 4.00411ZM20.8211 4.01684C20.8384 4.0586 20.7845 4.04006 20.7783 4.027L20.7511 3.96687C20.7265 3.91109 20.7892 3.94301 20.7954 3.95687L20.8211 4.01684ZM20.9221 4.02039C20.9435 4.05908 20.8889 4.04634 20.8814 4.03393L20.848 3.97735C20.817 3.92479 20.8833 3.9501 20.8908 3.963L20.9221 4.02039ZM21.0237 4.01217C21.0493 4.04892 20.9926 4.04215 20.9843 4.03055L20.9449 3.97799C20.9083 3.92818 20.9774 3.94672 20.9858 3.95897L21.0237 4.01217ZM21.124 3.99427C21.1529 4.0278 21.0964 4.027 21.0866 4.01604L21.0417 3.96767C21.0002 3.9227 21.0706 3.93366 21.0802 3.94462L21.124 3.99427ZM21.2214 3.9659C21.2546 3.99637 21.1972 4.00121 21.1861 3.99169L21.1371 3.94801C21.0915 3.90706 21.1619 3.91109 21.173 3.92076L21.2214 3.9659ZM21.3154 3.92753C21.3513 3.95478 21.2954 3.96493 21.2837 3.95687L21.2297 3.91867C21.1799 3.8824 21.2505 3.87901 21.2629 3.88788L21.3154 3.92753ZM21.4052 3.87982C21.4433 3.90303 21.3887 3.91947 21.3761 3.91254L21.3188 3.87982C21.2649 3.84919 21.3355 3.83823 21.3485 3.8458L21.4052 3.87982ZM21.4889 3.82323C21.5296 3.84226 21.4771 3.86402 21.4641 3.85805L21.4031 3.8321C21.3464 3.80695 21.4155 3.78906 21.4288 3.79518L21.4889 3.82323ZM21.5663 3.75778C21.6092 3.77277 21.5593 3.80002 21.5456 3.79599L21.4827 3.77551C21.4232 3.75649 21.4895 3.73199 21.5043 3.73666L21.5663 3.75778ZM21.6369 3.6854C21.6806 3.69556 21.634 3.72764 21.6196 3.7249L21.5552 3.71119C21.4944 3.6983 21.5574 3.66702 21.5726 3.67041L21.6369 3.6854ZM21.6992 3.6056C21.7435 3.61108 21.7007 3.64848 21.6861 3.64655L21.6203 3.63962C21.5588 3.63349 21.6183 3.59545 21.6335 3.59738L21.6992 3.6056ZM21.7523 3.52032C21.7972 3.52097 21.7585 3.56192 21.744 3.56256H21.6778C21.6155 3.56256 21.6708 3.51839 21.6861 3.51839L21.7523 3.52032ZM21.7959 3.42973C21.8413 3.42553 21.8067 3.47051 21.7923 3.47261L21.7268 3.47938C21.6652 3.48566 21.715 3.43569 21.7302 3.43521L21.7959 3.42973ZM21.8302 3.33494C21.8745 3.32671 21.8449 3.37524 21.8311 3.37766L21.7662 3.39136C21.7061 3.40442 21.7503 3.34977 21.7655 3.34703L21.8302 3.33494ZM21.8539 3.2374C21.8977 3.22451 21.8732 3.27561 21.8595 3.28045L21.7964 3.30028C21.7379 3.31946 21.7765 3.26078 21.791 3.2561L21.8539 3.2374ZM21.8677 3.13778C21.9093 3.12085 21.8907 3.17405 21.8775 3.17937L21.8173 3.20613C21.7606 3.23128 21.7925 3.16873 21.807 3.16309L21.8677 3.13778ZM21.8704 3.03831C21.9098 3.01639 21.8976 3.07168 21.885 3.07862L21.8275 3.11069C21.7735 3.14132 21.7992 3.07668 21.8123 3.06975L21.8704 3.03831Z" fill="black"/>
<path d="M20.2289 3.84286L20.0811 3.92056C20.1039 3.93975 20.126 3.96022 20.1466 3.98198C20.2082 4.04792 20.2574 4.11965 20.3361 4.16802C20.4833 4.25329 20.6209 4.23427 20.7799 4.27232C20.8677 4.29343 20.9548 4.32503 21.0461 4.32697C21.1476 4.32568 21.2749 4.29424 21.3508 4.22395C21.3847 4.18913 21.4103 4.14899 21.4422 4.11288C21.5209 4.02615 21.6281 4.00439 21.7221 3.94297C21.7809 3.90267 21.8079 3.83657 21.8363 3.77467C21.8652 3.71196 21.8963 3.65666 21.9456 3.60701C21.9848 3.56945 22.0291 3.53802 22.0649 3.49642C22.1556 3.38052 22.1852 3.16015 22.125 3.02779C22.1004 2.97782 22.0642 2.93558 22.0352 2.88867L21.9299 2.94397C21.9348 2.98201 21.937 3.02167 21.937 3.06133C21.937 3.62539 21.4703 4.0858 20.8987 4.0858C20.6533 4.08565 20.416 3.99955 20.2289 3.84286Z" fill="black"/>
<path d="M21.8998 3.81641C21.8998 3.81641 22.0361 3.84575 21.9849 4.00873C21.9343 4.17106 21.7774 4.70079 21.7817 4.69692C21.7866 4.69273 21.7346 4.81896 21.6635 4.71127C21.5929 4.60342 21.3848 4.30341 21.3848 4.30341C21.3848 4.30341 21.4789 4.20524 21.4982 4.17251C21.5168 4.13979 21.5833 4.09739 21.6496 4.07434C21.7152 4.05016 21.8998 3.90975 21.8998 3.81641Z" fill="black"/>
<path d="M22.0945 3.60938L22.1983 3.70255C22.1983 3.70255 22.2646 3.72641 22.2315 3.84329C22.1983 3.96065 22.0331 4.47538 22.0331 4.47538C22.0331 4.47538 22.0048 4.56937 21.9618 4.50827L21.9332 4.47538C21.9332 4.47538 21.9099 4.47071 21.9332 4.38672C21.9569 4.30224 22.0564 3.93243 22.0564 3.93243C22.0564 3.93243 22.0674 3.86908 22.028 3.84313L21.9332 3.78235C21.9231 3.77236 22.013 3.63194 22.0945 3.60938Z" fill="black"/>
<path d="M18.6017 3.05501C18.6017 3.89361 19.0631 4.44526 19.0631 4.44526C18.32 4.11527 17.9541 3.6863 17.9541 3.08145C17.9541 2.47047 18.376 1.93623 19.1322 1.60704C19.1322 1.60688 18.6017 2.2443 18.6017 3.05501ZM23.1827 2.92395C23.2342 3.78899 22.5383 4.46799 22.5383 4.46799C23.3256 4.14155 23.7581 3.59473 23.7581 2.96941C23.7581 2.37101 23.354 1.93236 22.6246 1.60156C22.6247 1.6014 23.1367 2.15192 23.1827 2.92395Z" fill="black"/>
<path d="M25.2178 2.93335L25.0237 3.0823L32.4805 2.90078C32.4805 2.90078 33.0383 2.9061 33.2453 2.81534L25.2178 2.93335ZM25.1079 2.25482L24.9141 2.43377L37.0843 2.17938C37.0843 2.17938 37.6459 2.18857 37.8764 2.06412L25.1079 2.25482ZM16.5782 3.00283L16.7723 3.15194L9.31559 2.97026C9.31559 2.97026 8.75774 2.97558 8.55072 2.88482L16.5782 3.00283ZM16.679 2.30609L16.8728 2.48487L4.70265 2.2308C4.70265 2.2308 4.14104 2.23999 3.91049 2.11538L16.679 2.30609ZM0.397877 1.58372L16.347 1.69737C16.9454 1.67464 17.6554 1.35787 18.0962 1.15249C18.9248 0.766395 19.9287 0.516201 20.5868 0.516201L20.906 0.515394L21.218 0.523939C21.8758 0.523939 22.8724 0.829427 23.7118 1.24341C24.2182 1.49312 24.7121 1.65271 25.044 1.67609L41.5335 1.50569L41.9608 1.48296C41.9608 1.38398 41.4791 1.40381 41.4791 1.40381L25.6629 1.48296C24.7397 1.48296 24.5389 1.38398 24.2579 1.26517C23.9015 1.11444 22.6722 0.33452 20.8256 0.314691C19.0595 0.29583 16.972 1.40381 16.6508 1.48296C16.3295 1.56228 15.7076 1.52262 15.7076 1.52262L0.473531 1.50263C0.324511 1.50263 0.131699 1.54632 0.0419922 1.56872C0.142647 1.55131 0.397877 1.58372 0.397877 1.58372Z" fill="#FFD124"/>
<path d="M8.39043 2.83696L16.4063 2.95851C16.6998 2.93497 16.9245 2.64286 16.6897 2.65286L5.6958 2.50293C5.6958 2.50293 4.84939 2.54179 4.28615 2.43507C4.55233 2.61755 5.1739 2.85114 6.61672 2.85856C7.55137 2.86339 8.01543 2.8663 8.23585 2.86807C8.26494 2.82986 8.39043 2.83696 8.39043 2.83696ZM3.86686 2.08234L16.5673 2.25322C16.7866 2.26531 17.0317 1.97321 16.8527 1.96918L2.31522 1.85327C2.31522 1.85327 0.567657 1.81538 0.165039 1.69158C0.388243 1.8249 0.976483 2.0975 2.09839 2.13425C2.94562 2.16214 3.47209 2.186 3.76948 2.20148C3.65248 2.0759 3.86686 2.08234 3.86686 2.08234ZM24.8141 1.97659C24.6352 1.98046 24.9657 2.23291 25.185 2.22082L38.0764 2.02173C38.0764 2.02173 38.2096 2.01835 38.2037 2.07235L39.8251 1.999C39.8251 1.999 42.1608 1.69077 41.9698 1.52344C41.9698 1.53343 41.8989 1.67336 40.3539 1.71108C39.9047 1.72656 39.9049 1.7322 38.9479 1.74413L24.8141 1.97659ZM31.7442 3.10649L26.0595 3.21999C25.4151 3.31075 24.6786 3.40167 24.4023 3.74214C24.1683 4.03086 23.9881 4.44597 23.3436 4.7866C22.6235 5.16705 21.975 5.39242 20.8119 5.39967C19.4832 5.40789 18.4874 4.92282 18.4874 4.92282C17.5529 4.35859 17.4057 3.85563 17.1065 3.65122C16.8648 3.4863 16.4317 3.36507 15.8395 3.28914L10.123 3.19C10.123 3.19 8.91772 3.2137 8.44664 3.04846C8.65089 3.24481 9.22491 3.53402 10.836 3.53402C13.2756 3.53402 14.7171 3.60044 15.3294 3.63219C15.8024 3.6567 16.4371 3.63219 17.2088 4.34441C17.9805 5.05662 19.2874 5.67066 20.9056 5.67066C22.5237 5.67066 23.9394 4.94942 24.4902 4.38116C25.0379 3.81629 26.0017 3.49275 27.5327 3.49275C29.2006 3.49275 32.9525 3.60672 33.4828 2.90225C33.4659 2.91225 33.4487 2.92181 33.4313 2.93094C33.056 3.12906 31.7442 3.10649 31.7442 3.10649ZM38.0271 2.22082C37.6661 2.42459 35.9558 2.42523 35.9558 2.42523L24.9312 2.63786C24.7883 2.58241 25.0129 2.87452 25.3064 2.89805L33.3684 2.7765C33.3684 2.7765 33.5011 2.76361 33.5578 2.78505C33.8586 2.78569 37.8841 2.78247 38.1812 2.11168C38.1565 2.13893 38.1098 2.17423 38.0271 2.22082Z" fill="black"/>
<path d="M20.9057 5.67046C19.2875 5.67046 17.9807 5.05642 17.2089 4.34421C16.4372 3.63199 15.8025 3.65649 15.3295 3.63199C15.0459 3.61733 14.7623 3.6047 14.4785 3.59411C15.1498 3.62877 16.2267 3.73291 16.6336 4.04662C17.2431 4.51637 18.5001 6.01947 20.8616 6.00077C23.0707 5.9832 24.0144 4.93342 24.5943 4.49751C24.9662 4.21798 25.5436 3.54333 27.9649 3.49609L26.9592 3.50174C25.7544 3.57541 24.9668 3.88992 24.4904 4.38128C23.9395 4.94922 22.5238 5.67046 20.9057 5.67046Z" fill="black"/>
<path d="M24.4026 3.74063C24.1686 4.02935 23.9883 4.44446 23.3439 4.78509C22.6238 5.16554 21.9753 5.39091 20.8122 5.39817C19.4834 5.40639 18.4876 4.92131 18.4876 4.92131C17.5532 4.35709 17.4059 3.85412 17.1068 3.64971C17.0558 3.61489 16.9277 3.55427 16.9264 3.55153C16.4448 3.33519 15.8299 3.28409 15.7393 3.28715C16.3023 3.39887 16.5626 3.51204 16.8432 3.70694C17.513 4.17234 18.1762 5.47313 20.938 5.47313C23.471 5.47313 24.0614 4.27761 24.747 3.76336C25.0161 3.56153 25.2952 3.39903 25.8107 3.25781C25.8107 3.25781 25.0498 3.33729 24.7496 3.50027C24.4516 3.66212 24.4833 3.64116 24.4026 3.74063Z" fill="black"/>
</g>
<defs>
<clipPath id="clip0_477_6189">
<rect width="42" height="6" fill="white"/>
</clipPath>
</defs>
</svg>
