<svg width="23" height="24" viewBox="0 0 23 24" fill="none" xmlns="http://www.w3.org/2000/svg">
<g clip-path="url(#clip0_477_6214)">
<path d="M4.2019 19.5315L4.20191 19.5314L4.19762 19.5285C2.94226 18.682 2.31675 17.9963 1.95869 17.2845C1.59351 16.5585 1.47798 15.7559 1.34402 14.5805L1.34407 14.5805L1.34321 14.5738C1.20011 13.4532 1.09143 10.5998 1.0256 7.89084C0.959732 5.17998 0.93852 2.69204 0.962621 2.30233L0.963225 2.29256L0.963446 2.28277C0.970584 1.96725 1.05267 1.72199 1.26125 1.53125C1.48492 1.32669 1.92718 1.11719 2.80339 1.05338L2.8034 1.05341L2.80896 1.05294C5.49196 0.827389 7.25073 0.707831 11.5596 0.664796C15.8443 0.654081 17.6052 0.76135 20.2743 0.937979C21.1603 0.999058 21.61 1.20684 21.8392 1.41238C22.0527 1.60383 22.1383 1.85095 22.1497 2.17204L22.1501 2.18204L22.1508 2.19201C22.1798 2.57594 22.1898 5.05221 22.1576 7.75428C22.1254 10.4541 22.052 13.3005 21.9222 14.4241L21.9221 14.4241L21.9214 14.431C21.802 15.6063 21.6964 16.4195 21.3404 17.1604C20.9915 17.8865 20.3763 18.59 19.139 19.4547L19.1384 19.4551C18.3193 20.0293 16.7208 20.8885 15.1299 21.6958C13.6989 22.4219 12.3038 23.0913 11.5547 23.4469C10.0211 22.7272 5.83319 20.6562 4.2019 19.5315Z" stroke="#FFD124"/>
<path d="M11.2893 7.06945C11.2984 6.43606 11.1134 6.26038 10.9815 6.09394C10.8329 5.93829 10.6039 5.67168 10.4826 5.62545C10.4052 5.56843 10.3339 5.65319 10.2915 5.58692C10.2293 5.50987 10.2824 5.49292 10.2536 5.35268C10.2126 5.24326 9.66821 4.74395 9.52415 4.69001C9.35279 4.63761 9.27393 4.67306 9.17839 4.61142C9.11622 4.56673 9.18598 4.54823 9.06314 4.37717C8.90315 4.21349 8.70566 4.09276 8.48841 4.0258C8.32766 3.97803 8.27459 4.05046 8.14265 4.0258C8.02892 3.97803 8.01982 3.8532 7.87424 3.7931C7.57398 3.72067 7.1979 3.70218 7.02957 3.75457C6.9128 3.78694 6.90826 3.85474 6.76116 3.8717C6.59283 3.85474 6.57615 3.78848 6.45483 3.7931C6.18945 3.82546 5.84521 4.00269 5.53434 4.183C5.47368 4.23385 5.44487 4.33094 5.37966 4.37717C5.30838 4.4419 5.17797 4.42649 5.11125 4.45422C4.57139 4.86878 4.11039 5.58692 4.07551 5.74257C4.03456 5.83966 4.06944 5.85661 4.19076 5.82117C4.28023 5.78727 4.89288 5.3496 5.49643 5.35268C6.10302 5.38504 6.69898 5.65319 7.33893 6.21106C8.11384 6.92767 10.0124 9.29015 10.1793 9.44889C10.4431 9.76943 11.03 9.56447 11.1771 8.78622C11.2726 8.21602 11.2984 7.20352 11.2893 7.06945ZM2.49839 10.1917C2.60302 9.80334 3.24904 9.82183 3.38097 10.3473C3.80254 12.3893 4.80341 14.4035 5.99231 15.3405C6.62619 15.8197 6.25466 16.0155 5.99231 16.0432C4.66238 16.2913 3.93903 15.4576 3.84349 15.379C3.7525 15.2834 3.87533 15.2295 3.84349 15.1062C3.80254 15.0415 3.69033 15.0877 3.61299 15.0292C3.47435 14.8415 3.34625 14.6459 3.22932 14.4435C3.17321 14.2602 3.31424 14.1893 3.30666 14.0922C3.27937 13.9735 3.13075 13.9997 3.07616 13.8965C2.98972 13.8225 2.80623 13.1629 2.80774 13.0781C2.80623 12.9857 2.92906 13.0026 2.88509 12.8439C2.85931 12.7191 2.74557 12.7545 2.69401 12.6883C2.61818 12.5218 2.4908 11.8823 2.53933 11.7898C2.59696 11.6665 2.6652 11.6403 2.65458 11.5571C2.6652 11.4985 2.53478 11.4708 2.4999 11.3614C2.46199 11.2227 2.47109 10.3396 2.49839 10.1917Z" fill="black"/>
<path d="M3.03593 9.17611C3.06929 8.73845 3.34983 6.94462 4.1111 6.36671C4.74953 5.86586 5.44862 5.74412 6.29783 6.48384C7.35329 7.35455 7.95835 9.16224 8.25558 9.83878C8.55281 10.5538 8.53461 10.6602 8.71659 10.6201C8.82577 10.6201 8.88188 10.6247 8.90918 10.7372C8.90463 10.8297 8.86975 10.8574 8.79393 10.8929C8.62409 10.9068 8.57253 11.141 8.67868 11.3999C8.7818 11.6403 8.82274 11.8484 8.90918 12.0641C9.03656 12.3184 9.12907 12.4232 9.40809 12.4925C9.8782 12.6204 9.92217 12.6636 9.90701 13.3108C9.92217 13.522 9.85393 13.5728 9.71593 13.3894C9.54912 13.1244 9.19579 12.887 9.06386 12.921C8.87126 12.9641 8.96832 13.1367 9.02595 13.3108C9.09116 13.5158 9.86151 13.6699 10.0632 14.0922C10.409 14.8812 10.5727 15.4884 10.6 15.7288C10.6425 15.9862 10.3104 16.6458 10.409 16.86C10.4848 17.0726 10.4848 17.3038 11.0989 17.2884C11.3112 17.3038 11.4674 17.4641 11.4447 17.7569C11.3962 18.0867 11.3294 18.2593 11.0231 18.2639C10.0556 18.3286 9.93279 17.9726 9.87213 17.5242C9.85093 17.2633 9.82515 17.0028 9.79479 16.7428C9.69774 16.3884 9.07447 15.7905 8.71962 15.1047C8.49822 14.7071 8.12669 13.3679 7.95229 12.1797C7.91438 11.8545 7.59896 11.7297 7.37604 11.5956C7.24259 11.4985 6.6724 11.2473 6.5708 10.7372C6.49952 10.355 6.65723 9.81566 6.91655 9.76173C6.96962 9.53056 6.56321 8.87868 6.14922 9.56755C5.96118 9.88964 6.02487 10.1532 5.99606 10.1917C5.89445 10.2595 5.90204 10.2425 5.91872 10.3473C5.90204 10.4121 5.95359 10.4737 5.95663 10.5431C5.97786 10.6432 5.98089 11.1163 5.95663 11.2458C5.96421 11.3783 5.83986 11.3383 5.84138 11.48C5.84138 11.5879 5.96269 11.5448 5.95663 11.6758C5.96269 11.9008 6.02487 12.622 5.99454 12.6898C5.98848 12.7653 5.89294 12.8177 5.95663 12.924C5.99757 13.0319 6.07643 13.0057 6.10979 13.0812C6.19471 13.5466 6.38427 14.6716 5.45771 13.8209C4.55997 12.9965 3.94732 11.403 3.73047 10.2718C3.65616 9.93587 3.49086 9.75556 3.30889 9.68775C3.10265 9.60916 2.98892 9.6631 3.03593 9.17611ZM11.5569 18.3826C11.3962 18.3764 11.4295 18.4411 11.3279 18.4612C11.0984 18.4923 10.8659 18.4923 10.6364 18.4612C10.5652 18.4796 10.3331 18.6245 10.5606 18.7725C11.4068 19.4274 12.206 19.0791 12.5184 18.811C12.6882 18.6445 12.6154 18.4951 12.4804 18.4596C12.3152 18.4612 11.8329 18.5105 11.751 18.4596C11.6236 18.4165 11.607 18.3764 11.5569 18.3826ZM11.7495 7.06945C11.7571 6.43606 11.9406 6.26038 12.0953 6.09394C12.2226 5.93829 12.4501 5.67168 12.5563 5.62545C12.6503 5.56843 12.7216 5.65319 12.7868 5.58692C12.8277 5.50987 12.7762 5.49292 12.8247 5.35268C12.8444 5.24326 13.3888 4.74395 13.5541 4.69001C13.7042 4.63761 13.7816 4.67306 13.8619 4.61142C13.9408 4.56673 13.871 4.54823 13.9772 4.37717C14.1167 4.22769 14.3806 4.08436 14.5534 4.0258C14.7309 3.97803 14.7824 4.05046 14.8992 4.0258C15.0296 3.97803 15.0387 3.8532 15.1691 3.7931C15.4861 3.72067 15.8637 3.70218 16.0138 3.75457C16.1472 3.78694 16.1518 3.85474 16.3216 3.8717C16.4687 3.85474 16.4854 3.78848 16.5901 3.7931C16.8721 3.82546 17.2164 4.00269 17.55 4.183C17.5894 4.23385 17.6167 4.33094 17.7031 4.37717C17.7532 4.4419 17.8836 4.42648 17.9336 4.45422C18.4902 4.86878 18.9512 5.58692 19.0088 5.74257C19.0285 5.83966 18.9936 5.85661 18.8936 5.82117C18.7829 5.78727 18.1687 5.3496 17.55 5.35268C16.9586 5.38504 16.3641 5.65319 15.7454 6.21106C14.9508 6.92767 13.0506 9.29015 12.9051 9.44889C12.62 9.76943 12.0331 9.56447 11.9072 8.78622C11.7829 8.21602 11.7571 7.20352 11.7495 7.06945ZM20.5404 10.1917C20.4525 9.80334 19.8065 9.82183 19.6958 10.3473C19.253 12.3893 18.2536 14.4035 17.048 15.3405C16.4308 15.8197 16.8024 16.0155 17.048 16.0432C18.3946 16.2913 19.118 15.4576 19.1968 15.379C19.3045 15.2834 19.1817 15.2295 19.2348 15.1062C19.2545 15.0415 19.3667 15.0877 19.4273 15.0292C19.5767 14.8494 19.7054 14.6529 19.811 14.4435C19.8838 14.2602 19.7443 14.1893 19.7731 14.0922C19.7792 13.9735 19.9293 13.9997 20.0036 13.8965C20.0673 13.8225 20.2523 13.1629 20.2326 13.0781C20.2523 12.9857 20.1295 13.0026 20.1568 12.8439C20.1992 12.7191 20.313 12.7545 20.3478 12.6883C20.4403 12.5218 20.5677 11.8823 20.501 11.7898C20.4616 11.6665 20.3918 11.6403 20.3858 11.5571C20.3903 11.4985 20.5222 11.4708 20.5389 11.3614C20.5935 11.2227 20.5859 10.3396 20.5404 10.1917Z" fill="black"/>
<path d="M20.0411 9.17699C19.9865 8.73932 19.7075 6.9455 18.9675 6.36759C18.3063 5.86674 17.6087 5.74499 16.7413 6.48472C15.704 7.35543 15.099 9.16312 14.7836 9.83966C14.503 10.5547 14.5212 10.6611 14.3226 10.621C14.23 10.621 14.1739 10.6256 14.1694 10.7381C14.1512 10.8306 14.1861 10.8583 14.2846 10.8938C14.4333 10.9076 14.4848 11.1419 14.362 11.4008C14.2755 11.6412 14.2361 11.8492 14.1315 12.065C14.0208 12.3193 13.9283 12.4241 13.6705 12.4934C13.1791 12.6213 13.1352 12.6645 13.1336 13.3117C13.1352 13.5229 13.2049 13.5737 13.3247 13.3903C13.5097 13.1253 13.8631 12.8879 14.0162 12.9218C14.1876 12.965 14.0921 13.1376 14.0162 13.3117C13.9677 13.5167 13.1973 13.6708 13.0184 14.0931C12.6514 14.8821 12.4876 15.4893 12.4437 15.7297C12.4179 15.9871 12.7515 16.6466 12.6742 16.8608C12.5756 17.0735 12.5771 17.3047 11.9826 17.2893C11.7491 17.3047 11.5944 17.465 11.6369 17.7578C11.6642 18.0876 11.7309 18.2602 12.0206 18.2648C13.0047 18.3295 13.1276 17.9735 13.1731 17.5251C13.2079 17.2877 13.2368 16.9949 13.2883 16.7437C13.3641 16.3893 13.9859 15.7913 14.362 15.1055C14.5606 14.7079 14.9322 13.3687 15.0914 12.1806C15.146 11.8554 15.4629 11.7306 15.7056 11.5965C15.8193 11.4994 16.388 11.2482 16.4729 10.7381C16.5609 10.3559 16.4031 9.81654 16.1271 9.7626C16.0907 9.53144 16.4972 8.87956 16.8945 9.56843C17.0992 9.89052 17.0355 10.154 17.0871 10.1926C17.1674 10.2604 17.1583 10.2434 17.1629 10.3482C17.1583 10.4129 17.1053 10.4746 17.0871 10.5439C17.081 10.7781 17.081 11.0125 17.0871 11.2467C17.0962 11.3792 17.2205 11.3391 17.2023 11.4809C17.2205 11.5888 17.0977 11.5456 17.0871 11.6766C17.0977 11.9016 17.0355 12.6229 17.0492 12.6907C17.0719 12.7662 17.1674 12.8186 17.1265 12.9249C17.0628 13.0328 16.9839 13.0066 16.9718 13.0821C16.8657 13.5475 16.6776 14.6725 17.586 13.8218C18.5004 12.9973 19.1146 11.4039 19.3527 10.2727C19.4057 9.93675 19.571 9.75644 19.7742 9.68863C19.9532 9.61004 20.0669 9.66398 20.0411 9.17699Z" fill="black"/>
</g>
<defs>
<clipPath id="clip0_477_6214">
<rect width="23" height="24" fill="white"/>
</clipPath>
</defs>
</svg>
