<svg width="24" height="24" viewBox="0 0 24 24" fill="none" xmlns="http://www.w3.org/2000/svg">
<g clip-path="url(#clip0_477_6220)">
<path d="M24 11.9999C24 18.6275 18.6274 24 12 24C5.37259 24 0 18.6275 0 11.9999C0 5.37267 5.37259 0 12 0C18.6274 0 24 5.37267 24 11.9999Z" fill="black"/>
<path d="M23.579 12.0007C23.579 18.3959 18.3949 23.5799 12 23.5799C5.60506 23.5799 0.420898 18.3959 0.420898 12.0007C0.420898 5.60596 5.60514 0.421875 12.0001 0.421875C18.395 0.421875 23.579 5.60596 23.579 12.0007Z" fill="black"/>
<path d="M2.68712 6.16707C2.68712 6.17667 1.40242 6.37209 1.40373 6.37819C1.40999 6.41008 1.33718 12.9869 2.51041 12.6559C3.28289 12.2924 2.86724 8.00701 2.86724 8.58342C2.86724 9.3868 2.94526 10.7045 3.25352 12.7741C3.60091 15.1053 3.45447 15.3958 3.61645 15.8979C3.2396 15.5319 2.65335 15.3673 2.65335 15.3673L3.48465 18.177L4.09685 18.1708C4.09685 18.1708 4.10564 17.982 4.11369 17.9731C4.13021 17.9729 4.71841 18.0166 5.12251 18.7562C7.461 23.0361 13.6177 21.3903 12.006 21.4832L14.543 21.1778C7.11288 22.4489 5.71909 19.0231 5.3455 18.3391C5.11144 17.9961 4.43855 17.6368 4.0155 17.8414C4.0155 17.8414 5.04807 17.8826 5.00218 17.6088C5.32484 17.9222 4.19985 17.1017 4.19985 17.1017L4.25647 17.2796C4.43098 17.2973 4.35239 17.1088 4.53617 17.0781L4.30805 16.9736C4.27885 16.9378 4.4348 16.7516 3.87776 13.0133C3.5717 10.9593 3.63345 9.36028 3.63345 8.56454C3.63345 7.79361 3.58309 7.73911 3.58455 7.73341L3.13181 7.43768L3.045 7.42011C2.9202 7.39473 2.79654 7.35478 2.74293 7.32509C2.77075 7.28368 2.78678 7.22852 2.78678 7.13748C2.78678 7.04937 2.77734 6.93458 2.76505 6.78635C2.74887 6.58801 2.75684 5.87744 2.72942 6.11484C1.28674 18.6355 3.28378 4.71341 3.03849 4.98091L3.17883 4.82194C3.8584 4.03751 6.23236 2.20554 12.3578 2.06235C18.8355 1.91054 18.8648 4.27661 18.887 4.31119L20.565 5.14232C20.543 5.10676 18.3634 1.48945 11.7851 1.64345C5.58599 1.78859 3.7458 3.91206 3.05305 4.71162L2.91605 4.86717C2.63131 5.17779 2.30442 5.18063 2.30442 5.63826C2.30442 5.88265 2.03049 6.20816 2.04717 6.41024C2.8469 7.81501 2.57086 7.12064 2.68712 6.16707ZM20.4011 5.5648C20.2597 5.62549 20.2811 5.85475 20.3105 6.17187C20.3322 6.40821 20.3571 6.67611 20.3105 6.86315L20.4723 6.90391C20.5258 6.68921 20.4993 6.40618 20.4763 6.15633C20.4618 5.99753 20.4392 5.7572 20.4731 5.71457C20.4771 5.72002 20.5238 7.50383 20.8915 7.92907C21.476 8.60579 21.1845 8.21642 21.1845 9.39567C21.1845 9.97696 21.6194 10.6545 21.6021 10.8917C21.3855 10.6175 21.3239 9.91203 21.2687 9.27925C21.2042 8.54241 21.1491 7.90629 20.8871 7.69493C21.21 7.41173 20.0878 5.92789 20.1644 6.93271C20.2171 7.28417 20.0452 6.14356 19.7956 5.75525C19.0312 4.56542 17.4473 3.17522 11.9436 2.98411C6.89826 2.80895 4.39779 4.87978 3.75508 5.51151L3.83855 5.36743L3.01872 4.94487L2.78678 7.39936L3.13767 6.84558C3.13767 6.84558 3.70407 5.81846 3.71448 5.79438C3.80291 5.69016 6.19356 2.9523 11.9376 3.15179C18.0605 3.36429 19.1783 5.10359 19.6559 5.84629C19.8858 6.20441 19.9461 6.6046 19.9997 6.95768C20.0697 7.42271 20.1366 7.86179 20.6587 7.79158C20.7067 7.78532 20.7461 7.79606 20.7828 7.82575C20.9897 7.99245 21.0469 8.65403 21.1029 9.29365C21.1761 10.14 21.2462 10.9392 21.635 11.1351L21.7434 11.1898L21.755 11.0682C21.7696 10.9129 22.1049 7.25447 21.069 6.05504C20.6611 5.58277 20.5108 5.51745 20.4011 5.5648ZM22.6156 8.59725C22.5107 8.11081 22.3533 7.6372 22.1462 7.18475C22.2638 7.45591 22.4518 7.93924 22.6156 8.59725ZM22.1462 7.18475C22.1228 7.12989 22.0983 7.07543 22.073 7.02139C22.1 7.07606 22.1217 7.13016 22.1462 7.18475ZM21.6245 5.97353C22.9933 7.29344 22.7477 10.6992 22.7477 10.6992L22.0819 9.92562V13.2256L21.6209 14.1535C20.8012 18.5364 18.8551 22.4036 11.2233 22.1973C3.59179 21.9911 2.41392 17.9177 1.69677 14.0505C0.979698 10.1834 2.00405 5.9553 2.00405 5.9553C-0.249672 12.6583 2.41392 17.7114 2.41392 17.7114C2.41392 17.7114 3.69422 22.455 11.582 22.4036C19.4694 22.3521 20.6989 17.9693 20.6989 17.9693L20.8423 19.0755C20.8423 19.0755 22.6744 17.3995 23.2376 13.8933C23.5231 12.1182 22.42 6.74047 21.6245 5.97353ZM22.0729 7.02139C22.0464 6.96566 22.0302 6.93499 22.0302 6.93499C22.0452 6.96395 22.0589 6.99275 22.0729 7.02139Z" fill="black"/>
<path d="M2.98457 4.70026C2.98457 4.70026 4.02752 3.7384 4.77219 3.02976C4.77219 3.02976 3.77912 3.58646 2.98457 4.70026ZM2.70703 17.4647C3.29755 18.6559 3.87861 19.4311 3.87861 19.4311C3.87861 19.4311 3.32488 18.5958 2.70703 17.4647ZM21.1817 5.06944C21.1777 5.06283 21.1741 5.05623 21.17 5.04995L21.2072 5.05462L21.1817 5.06944ZM21.3524 5.3742C21.3315 5.33462 21.3106 5.2942 21.2892 5.25551L21.4059 5.2064L21.3524 5.3742ZM3.87861 5.15579C4.17636 4.64953 5.71558 3.73835 5.71558 3.73835C5.71558 3.73835 4.87139 4.24477 3.92816 5.35842C2.98457 6.47198 4.27576 5.25712 6.01366 4.09271C7.7514 2.92854 10.1844 3.02983 10.1844 3.02983C10.1844 3.02983 9.3901 2.42229 6.36117 3.38424L9.2907 2.11862C9.2907 2.11862 4.82207 3.08044 3.53101 4.90277C2.23978 6.72509 3.58049 5.66205 3.87861 5.15579ZM18.825 4.99572C19.3728 5.56466 19.7674 6.06693 19.7674 6.06693C19.7674 6.06693 19.6059 5.5552 18.825 4.99572ZM1.84271 12.4455C2.38886 17.8114 4.673 20.0895 4.673 20.0895C4.673 20.0895 6.41073 21.8106 11.8229 22.0636C17.2349 22.3167 18.9731 20.1907 19.1221 19.8363C19.271 19.4819 18.4266 20.0386 18.1784 19.9374C17.9302 19.8363 18.9731 17.9631 18.9731 17.9631C18.4268 19.988 19.271 17.6595 19.817 17.9127C20.3632 18.1656 18.7246 18.8238 19.271 19.33C19.817 19.8363 20.9586 16.2421 21.7039 14.6221C22.4486 13.0023 22.2003 11.3318 22.1508 10.2686C22.1013 9.20552 21.8529 8.74995 21.8529 8.74995L21.7039 11.2813C21.7039 11.2813 21.8034 11.6354 21.0086 9.86351L20.3633 8.14248C19.9165 16.0396 18.1286 19.0265 18.1286 19.0265C18.1286 19.0265 17.4833 21.0005 12.2697 21.0513C7.05633 21.1016 6.31137 19.7348 6.31137 19.7348C4.62331 17.5075 3.63021 12.7491 3.87869 9.61069C4.12684 6.47206 3.87868 5.61128 6.1129 4.64949C8.34727 3.68783 11.7236 3.58638 11.7236 3.58638C15.779 3.47236 17.8177 4.27384 18.825 4.99572C18.6951 4.8606 18.5624 4.72828 18.4267 4.59905C17.6819 3.89045 10.7801 2.42221 7.15561 3.83961C3.53101 5.25704 3.28273 6.62375 3.53101 10.7749C3.77937 14.9259 5.07031 18.3681 5.96402 19.6844C6.85773 21.0005 10.0356 21.4056 10.0356 21.4056C5.7157 21.3042 5.21923 19.0265 4.97091 18.6211C4.7226 18.2162 3.9778 17.4061 3.82889 18.0644C3.68001 18.7224 2.34498 14.6984 2.5933 14.4958C2.84145 14.2933 4.37504 16.5459 4.37504 16.5459C4.37504 16.5459 3.82888 15.4321 3.28273 12.2936C2.73654 9.15512 3.58045 7.58582 3.03425 7.48453C2.48806 7.38324 3.71358 12.1157 2.14932 12.3262C1.70361 12.3862 2.07347 8.14063 2.27231 7.2801C2.47079 6.41936 2.68702 6.16818 2.68702 6.16818C2.68702 6.16818 1.29659 7.07961 1.84271 12.4455Z" fill="black"/>
<path d="M12.7371 20.7174C12.7456 20.717 13.9815 20.6564 15.0594 20.4135C15.9962 20.2026 16.8251 19.7995 16.8334 19.7956L16.8364 19.7939L16.8397 19.7924C16.8444 19.7904 17.3062 19.591 17.5903 19.3195C17.8783 19.0442 18.0092 18.6839 18.0105 18.6803C18.0164 18.6647 18.5206 17.3208 18.902 15.8853C19.2529 14.5643 19.4937 13.1039 19.4962 13.0893C19.4999 13.0701 19.7907 11.5945 19.8724 10.0249C19.941 8.70575 19.8047 7.208 19.8031 7.19294C19.8022 7.18164 19.732 6.2947 19.3761 5.71472C19.0562 5.19363 18.4386 4.93769 18.4324 4.93509L18.427 4.93297L18.4218 4.9302C18.4146 4.92663 17.6976 4.56736 16.3372 4.27139C15.2522 4.03538 13.7442 3.86689 12.4955 3.84256C11.0679 3.8145 9.53534 3.91407 8.39636 4.10876C7.03031 4.34225 6.14279 4.68915 6.13384 4.69265L6.12644 4.69541L6.11879 4.69745C6.10992 4.69981 5.22477 4.94249 4.75949 5.53329C4.28673 6.13345 4.21018 7.1194 4.20944 7.12932L4.20887 7.13534C4.20749 7.14543 4.1084 7.99576 4.1084 9.03792C4.1084 9.22472 4.11149 9.41769 4.11914 9.61319C4.17243 11.0013 4.41511 12.5397 4.41747 12.5551C4.42032 12.5703 4.74908 14.3764 5.12405 15.8985C5.4018 17.0269 5.76351 18.0253 5.76717 18.0351L5.76953 18.0423L5.7714 18.0496C5.77278 18.0546 5.89604 18.5612 6.0965 18.9146C6.27109 19.2222 6.52809 19.403 6.53078 19.4046L6.53501 19.4075L6.53916 19.4109C6.54103 19.4123 6.71595 19.5535 6.98442 19.7007C7.29357 19.8699 7.70784 20.0515 7.72541 20.0588C7.75462 20.0703 8.66784 20.4199 9.87175 20.5788C11.129 20.7447 12.7211 20.7176 12.7371 20.7174Z" fill="#FFD124" stroke="#FFD124" stroke-width="1.5"/>
<path d="M7.28089 19.7513C7.22638 19.7263 7.19668 19.7119 7.19668 19.7119C7.19359 19.7105 7.17805 19.7037 7.15291 19.6922L7.1438 19.6381C6.92821 18.4493 6.59913 16.2774 6.4915 13.6289C6.3584 10.5144 6.36353 6.69739 6.37614 4.8485V4.71475C6.4125 4.70255 6.45017 4.69018 6.48906 4.67773L6.48963 4.81173C6.47686 6.64484 6.47075 10.4909 6.60466 13.6243C6.71409 16.3189 7.05317 18.5181 7.26754 19.6864L7.28089 19.7513Z" fill="#FFD124"/>
<path d="M7.63751 19.9023C7.5939 19.8846 7.5529 19.8676 7.51482 19.8517L7.50425 19.7683C7.34723 18.6487 7.0694 16.3664 6.93736 13.4467C6.7971 10.343 6.8224 6.44172 6.84437 4.66816L6.84461 4.5685C6.88147 4.55792 6.91921 4.54734 6.9577 4.53669L6.95794 4.64668C6.93597 6.40804 6.90994 10.3272 7.05052 13.4419C7.18557 16.4276 7.47325 18.7449 7.62758 19.831L7.63751 19.9023ZM10.2997 4.08784C10.3282 7.52596 10.4104 17.4438 10.4344 20.3168L10.4366 20.5595C10.3998 20.5556 10.3621 20.5513 10.324 20.547L10.3212 20.3164C10.2973 17.4455 10.2152 7.55338 10.1866 4.10289L10.1838 4.00234C10.2219 3.99908 10.26 3.99591 10.2981 3.99298L10.2997 4.08784ZM11.7736 4.04318L11.8273 20.3986L11.8282 20.628C11.7884 20.6285 11.7504 20.6288 11.7141 20.629V20.3686C11.7027 16.9553 11.6699 6.96387 11.6602 4.006L11.6597 3.92904L11.7703 3.92773L11.7736 4.04318ZM12.3396 4.05815L12.2584 20.3988L12.2583 20.6201C12.219 20.6211 12.181 20.622 12.1432 20.6229L12.1449 20.4434C12.1591 17.5408 12.2095 7.37675 12.2262 4.03602L12.2235 3.92814C12.263 3.92855 12.3023 3.92895 12.3415 3.92961L12.3396 4.05815ZM13.8694 20.3401C13.9506 18.9954 14.1041 16.1448 14.1671 12.9191C14.2314 9.6317 14.2029 5.89045 14.1829 4.1334L14.1765 4.02032C14.2224 4.02439 14.2679 4.02845 14.3132 4.03268L14.3194 4.1775C14.339 5.95399 14.3668 9.66075 14.3032 12.9217C14.2405 16.1204 14.0892 18.951 14.0074 20.3115L13.9955 20.5059C13.9479 20.5116 13.9066 20.517 13.8582 20.5221L13.8694 20.3401ZM17.7356 19.0073C17.6819 19.08 17.6223 19.1481 17.5574 19.2109L17.6117 18.9224C17.8483 17.6969 18.1542 15.8011 18.3069 13.575C18.4884 10.9287 18.5116 7.3102 18.5079 5.25409L18.5103 5.05712C18.5544 5.08153 18.5992 5.1074 18.6437 5.13522L18.6441 5.39776C18.6467 7.47755 18.6202 10.9947 18.4428 13.5842C18.2929 15.7695 17.9956 17.6382 17.7603 18.87L17.7356 19.0073ZM19.0434 14.5679C19.1517 13.7164 19.2353 12.862 19.2941 12.0057C19.4309 9.98748 19.4344 7.70112 19.417 6.24598L19.4141 6.00313C19.4693 6.1276 19.5161 6.25562 19.5542 6.38632L19.5569 6.612C19.5691 8.06893 19.556 10.1553 19.43 12.0147C19.4041 12.3966 19.373 12.7781 19.3367 13.1591L19.2952 13.568C19.1946 14.0732 19.0881 14.5771 18.9755 15.0796L19.0434 14.5679Z" fill="#FFD124"/>
<path d="M17.2535 19.4503C17.2104 19.4796 17.1589 19.513 17.1007 19.548L17.1421 19.3159C17.3688 18.0675 17.7218 15.8017 17.8606 13.1687C18.0127 10.2762 18.0133 6.83801 18.0005 5.07779L17.9952 4.82859C18.0341 4.84226 18.0799 4.8591 18.1305 4.87936L18.1369 5.11155C18.1493 6.88349 18.1479 10.299 17.9964 13.1756C17.8615 15.7362 17.5243 17.9509 17.2966 19.2247L17.2534 19.4503L17.2535 19.4503ZM15.5836 20.0228C15.6908 18.8595 15.8875 16.4516 15.9819 13.5467C16.0879 10.2856 16.0883 6.42114 16.0805 4.55442L16.0765 4.28888C16.1237 4.29864 16.1704 4.3084 16.2162 4.31833L16.2167 4.57533C16.2245 6.45124 16.2236 10.3004 16.118 13.5511C16.0242 16.4368 15.8296 18.8332 15.7218 20.0084L15.7079 20.1511C15.663 20.1644 15.618 20.1781 15.568 20.192L15.5836 20.0228ZM15.1138 20.1326C15.2315 19.1448 15.4244 17.23 15.504 14.7397C15.6201 11.1164 15.6057 6.54692 15.5906 4.43231L15.5879 4.19711C15.633 4.20475 15.6775 4.21248 15.7213 4.22054L15.7265 4.4664C15.7416 6.59695 15.7553 11.1384 15.6397 14.7441C15.5612 17.1961 15.3732 19.0917 15.2545 20.0971L15.2326 20.2792C15.1874 20.2902 15.1391 20.3024 15.0914 20.3134L15.1138 20.1326ZM14.7327 20.2126C14.8249 19.1683 14.9838 17.0995 15.0585 14.5828C15.1628 11.0655 15.1358 6.61168 15.1107 4.28961L15.108 4.12364C15.1544 4.12983 15.2002 4.13633 15.2453 4.14292L15.2477 4.36495C15.2724 6.70849 15.2976 11.1057 15.1944 14.5866C15.1209 17.0645 14.9658 19.1088 14.8731 20.1715L14.8562 20.3642C14.8093 20.3739 14.7653 20.3829 14.7168 20.3922L14.7327 20.2127V20.2126ZM14.2906 20.3015C14.3687 19.0815 14.5163 16.5325 14.5807 13.7984C14.6666 10.1639 14.6706 6.10955 14.6669 4.21167L14.6631 4.06881C14.7091 4.07402 14.7548 4.07914 14.8004 4.08443L14.8032 4.24551C14.8068 6.15812 14.8023 10.1872 14.7169 13.8014C14.6531 16.503 14.5085 19.0239 14.4296 20.2628L14.4179 20.4456C14.3693 20.4538 14.3302 20.4606 14.2801 20.4682L14.2906 20.3014V20.3015ZM13.823 4.14813C13.8171 6.09043 13.7977 10.4968 13.7348 14.2554C13.7 16.2745 13.6418 18.2931 13.5601 20.3108L13.5496 20.5515C13.5113 20.5547 13.4727 20.558 13.4343 20.5611L13.4455 20.3472C13.4931 19.1807 13.5773 16.8847 13.6215 14.2535C13.6849 10.4765 13.7043 6.04495 13.7101 4.11844L13.7109 3.98509C13.749 3.98778 13.7872 3.9903 13.8251 3.99307L13.823 4.14813ZM13.2631 4.05872C13.2789 5.7729 13.3023 9.12745 13.2814 12.2887C13.2586 15.7107 13.1846 18.978 13.1494 20.3848L13.1452 20.5817C13.1067 20.5841 13.0683 20.5866 13.0299 20.5887L13.0351 20.4216C13.0701 19.0378 13.1452 15.7417 13.1681 12.2877C13.189 9.14511 13.166 5.81081 13.1502 4.08842L13.149 3.95353C13.1868 3.95524 13.2245 3.95694 13.2621 3.95882L13.2631 4.05872ZM12.8185 4.05124C12.8417 6.01721 12.8741 9.53594 12.8584 12.8545C12.8437 15.9419 12.7776 18.899 12.7378 20.4439L12.7344 20.6038L12.6202 20.6087L12.6249 20.4216C12.6648 18.8716 12.7302 15.9274 12.7449 12.854C12.7606 9.55197 12.7288 6.05195 12.7053 4.08101L12.7027 3.9375L12.8169 3.94075L12.8185 4.05132V4.05124ZM8.8148 20.2919C8.77534 20.2821 8.73621 20.272 8.69732 20.2615L8.69057 20.188C8.59538 19.1615 8.40403 16.853 8.32496 14.1432C8.22383 10.6865 8.25743 6.36614 8.28224 4.33167L8.28135 4.24259C8.31918 4.23608 8.35709 4.22957 8.39557 4.22322L8.39582 4.31345C8.37108 6.33848 8.33692 10.674 8.4382 14.1401C8.51842 16.8848 8.71384 19.2171 8.8074 20.2199L8.81472 20.2919H8.8148ZM8.04696 20.0586C8.00612 20.0439 7.96618 20.0295 7.92729 20.0152L7.91801 19.9303C7.74473 18.4854 7.40978 15.3641 7.30361 12.0527C7.21372 9.25112 7.29141 6.12427 7.34372 4.55182L7.34576 4.43654C7.38334 4.42743 7.42142 4.41823 7.45998 4.4092L7.45852 4.50854C7.40629 6.06366 7.32615 9.22232 7.41686 12.0494C7.5245 15.4074 7.86782 18.5698 8.03826 19.9822L8.04704 20.0586H8.04696ZM4.82234 14.2994C4.68403 13.6258 4.60317 13.1338 4.6017 13.1251L4.58226 12.8301C4.50253 11.8221 4.43077 10.6928 4.4141 9.72998C4.39433 8.59148 4.40271 7.45314 4.4158 6.60175L4.41109 6.49322C4.44517 6.35871 4.48733 6.22637 4.53735 6.09694L4.52759 6.70223C4.51538 7.54101 4.50839 8.63444 4.52759 9.72827C4.54866 10.9464 4.65808 12.4317 4.76043 13.5994L4.82234 14.2994ZM5.80723 17.8943C5.72873 17.6641 5.63883 17.3926 5.54559 17.096L5.47652 16.6976C5.29998 15.6538 5.14329 14.545 5.09895 13.6933C4.86798 10.8621 4.85626 7.59405 4.87083 5.85441L4.87367 5.53436C4.90955 5.49506 4.94673 5.45788 4.98456 5.42315L4.98521 5.72587C4.96902 7.42662 4.97545 10.7857 5.21195 13.6858C5.26361 14.6789 5.46871 16.023 5.67951 17.2047L5.80723 17.8943ZM6.36403 18.4899C6.13127 17.3423 5.84409 15.6496 5.69545 13.7143C5.46481 10.7111 5.47278 7.1771 5.49548 5.42876L5.49816 5.06762C5.46513 5.08462 5.42568 5.10594 5.38191 5.13156L5.38207 5.43258C5.35945 7.18491 5.3518 10.7186 5.58245 13.7228C5.73052 15.6506 6.01575 17.3386 6.24843 18.4897L6.39324 19.1727C6.4183 19.2009 6.44482 19.2288 6.47297 19.2556C6.49331 19.275 6.51479 19.2943 6.53683 19.3131L6.36403 18.4899ZM8.41388 20.1179C8.30852 19.1712 8.12238 17.254 8.04534 14.94C7.91842 11.133 7.90939 6.38136 7.91191 4.40766L7.91085 4.31141C7.87221 4.31898 7.83397 4.32687 7.79631 4.33468L7.79858 4.41848C7.79606 6.39966 7.80534 11.1422 7.93201 14.9438C8.00751 17.2063 8.18698 19.0905 8.29372 20.0615L8.30258 20.145C8.34131 20.1576 8.38068 20.17 8.42055 20.1821L8.41388 20.1178V20.1179Z" fill="#FFD124"/>
<path d="M6.00572 4.84624C5.9639 4.86227 5.92542 4.8774 5.89027 4.89156L5.88816 5.06176C5.85016 6.83857 5.80037 10.391 5.94153 12.7252C6.14183 16.0354 6.55674 18.3818 6.76176 19.3896L6.78088 19.4888C6.8244 19.5162 6.87387 19.5454 6.91471 19.5685L6.88924 19.4467C6.69155 18.4912 6.2602 16.1138 6.05478 12.7186C5.91265 10.3688 5.96447 6.78056 6.00238 5.02067L6.00572 4.84185V4.84624ZM8.88311 4.14805L8.76856 4.16448L8.77044 4.25967C8.75083 6.11019 8.72569 9.77006 8.78549 12.9743C8.84244 16.021 9.02939 18.7993 9.13475 20.175L9.14817 20.3662C9.18682 20.3741 9.22546 20.3818 9.26418 20.3892L9.25182 20.2204C9.14736 18.866 8.9565 16.0567 8.89873 12.9721C8.83869 9.76428 8.86408 6.09937 8.88376 4.25218L8.88311 4.14805ZM9.36417 4.08565C9.32545 4.09029 9.28688 4.09492 9.24848 4.09972L9.24816 4.19247C9.21887 5.70138 9.17534 8.82324 9.23888 11.9317C9.30755 15.4666 9.49255 18.8039 9.58196 20.2699L9.59213 20.4473C9.63118 20.4535 9.66983 20.4598 9.70847 20.4657L9.69562 20.2718C9.60645 18.8114 9.42088 15.4696 9.35221 11.9294C9.28875 8.81625 9.33244 5.68942 9.36173 4.18515L9.36417 4.08565ZM9.82766 4.03529C9.78999 4.03887 9.75216 4.04286 9.71449 4.04668L9.71368 4.14056C9.70107 5.75995 9.68357 9.16445 9.72246 12.4676C9.76021 15.6707 9.85686 18.8375 9.90535 20.2877L9.91218 20.4956C9.9505 20.5009 9.98866 20.5061 10.0261 20.5111L10.0186 20.2871C9.97019 18.8385 9.87338 15.6705 9.83571 12.4662C9.79658 9.14801 9.81448 5.72725 9.82709 4.11795L9.82766 4.03529ZM10.8106 3.95873C10.7711 3.96101 10.7317 3.96321 10.6923 3.96565L10.6952 4.02886C10.7148 6.99745 10.782 17.1187 10.8036 20.399L10.8055 20.5953C10.8456 20.5988 10.8837 20.602 10.9195 20.6048L10.917 20.4064C10.8952 17.1324 10.8281 6.98395 10.8084 4.02138L10.8106 3.95873ZM11.2877 3.9375C11.2493 3.93872 11.2107 3.94018 11.1721 3.94149L11.1749 4.05091L11.2045 20.3538L11.2027 20.6241C11.2322 20.626 11.2536 20.6271 11.2659 20.6277C11.2724 20.6277 11.2899 20.6283 11.3177 20.6284L11.3179 20.3465C11.3122 17.2981 11.294 7.19059 11.2882 4.05091L11.2877 3.9375ZM15.9679 19.8682C16.1317 18.4904 16.429 15.6425 16.5547 12.2277C16.6485 9.68545 16.5741 6.2751 16.5251 4.56972L16.5164 4.38618C16.564 4.3974 16.6102 4.40871 16.6555 4.41994L16.6623 4.60869C16.7113 6.32936 16.7838 9.70782 16.6907 12.2325C16.565 15.6431 16.2684 18.4894 16.1042 19.8738L16.0846 20.0316C16.0371 20.0479 15.9895 20.0636 15.9416 20.0788L15.9679 19.8683V19.8682Z" fill="#FFD124"/>
<path d="M16.5366 19.6714C16.669 18.4718 16.9014 16.1009 17.0414 13.1436C17.1759 10.3039 17.1689 6.63772 17.1527 4.69396L17.1498 4.55256C17.106 4.53987 17.0602 4.52693 17.0126 4.51367L17.0166 4.68135C17.033 6.61998 17.0402 10.2941 16.9058 13.1373C16.764 16.1304 16.5277 18.5217 16.3964 19.7036L16.3711 19.9179C16.4118 19.8992 16.4599 19.8772 16.5124 19.8527L16.5366 19.6714ZM16.9533 19.4082C17.1135 18.3347 17.3316 16.5792 17.4555 14.3369C17.6396 11.0017 17.6728 6.74681 17.6781 4.84455L17.6754 4.71828C17.637 4.70486 17.5921 4.68981 17.5407 4.67272L17.5423 4.80045C17.5374 6.67896 17.5051 10.9713 17.3197 14.3294C17.191 16.663 16.9599 18.4672 16.7986 19.5218L16.7672 19.729C16.8171 19.7041 16.8667 19.6787 16.9159 19.6526L16.9533 19.4082ZM18.1432 18.0168C18.1432 18.0168 18.2653 17.6805 18.4159 17.1994L18.473 16.8256C18.6585 15.5849 18.8542 14.0375 18.9839 12.3608C19.1566 10.1287 19.1188 7.40995 19.0708 5.77339L19.0603 5.46448C19.0152 5.41825 18.9678 5.37437 18.9181 5.33301L18.9291 5.5844C18.9793 7.19029 19.0274 10.0342 18.8481 12.3507C18.6976 14.2978 18.4578 16.0699 18.2486 17.3881L18.1432 18.0168Z" fill="#FFD124"/>
<path d="M8.53785 13.1377V11.9599H7.52773L7.53147 8.99526H8.85025L8.84318 7.80485H6.10156L6.34937 16.916H7.55409L7.52773 13.1378L8.53785 13.1377ZM9.31943 7.80477L9.47181 16.9159H10.7157L10.741 7.80477H9.31943ZM17.3092 16.9159L17.5646 8.95263H18.5393L18.5318 7.80477H15.1512V8.95401H16.1338L16.1055 16.9159H17.3092ZM12.6171 12.0216L12.6308 8.92675H13.3253C13.6402 9.61601 13.8425 10.5275 14.0011 12.0216H12.6171ZM11.5072 16.9157H12.6589L12.6717 13.1482H14.0516C14.1601 13.8131 14.1866 15.866 14.1931 16.9158H15.3102C15.4157 12.2642 15.0881 9.63496 14.1835 7.80469H11.4018L11.5072 16.9158V16.9157Z" fill="black"/>
<path d="M8.68559 11.7978H7.67289L7.67663 8.83311H8.99878L8.99164 7.64258H6.24316L6.49163 16.7537H7.6993L7.67289 12.9755H8.68559V11.7978Z" fill="black"/>
<path d="M10.894 7.64258H9.46875L9.62155 16.7537H10.8687L10.894 7.64258Z" fill="black"/>
<path d="M16.2723 16.7537H17.4789L17.7351 8.79044H18.7121L18.7046 7.64258H15.3154V8.79179H16.3006L16.2723 16.7537Z" fill="black"/>
<path d="M12.775 11.8594L12.7886 8.7646H13.4849C13.8006 9.45388 14.0034 10.3654 14.1624 11.8594H12.775ZM11.6623 16.7536H12.8169L12.8298 12.986H14.2132C14.3219 13.6511 14.3485 15.7037 14.3551 16.7536H15.475C15.5805 12.1021 15.2523 9.47286 14.3452 7.64258H11.5566L11.6623 16.7536Z" fill="black"/>
</g>
<defs>
<clipPath id="clip0_477_6220">
<rect width="24" height="24" fill="white"/>
</clipPath>
</defs>
</svg>
