<svg width="33" height="12" viewBox="0 0 33 12" fill="none" xmlns="http://www.w3.org/2000/svg">
<g clip-path="url(#clip0_477_6239)">
<path d="M16.0075 0C7.12608 0 0.00683594 2.66207 0.00683594 5.99967C0.00683594 9.31759 7.18489 12 16.0076 12C24.8308 12 32.0094 9.3083 32.0094 5.99967C32.0092 2.6917 24.8308 0 16.0075 0ZM31.9115 5.53639C31.9172 5.56568 31.9212 5.59531 31.9263 5.62371C31.9221 5.59542 31.9162 5.56601 31.9115 5.53639Z" fill="black"/>
<path d="M16.0079 0.240234C7.3032 0.240234 0.251953 2.81321 0.251953 5.99726C0.251953 9.17976 7.3032 11.7544 16.0079 11.7544C24.7138 11.7544 31.7633 9.17976 31.7633 5.99726C31.7633 2.81343 24.7137 0.240234 16.0079 0.240234Z" fill="black"/>
<path d="M16.0805 1.44739C23.4812 1.44739 29.5919 3.25541 30.5255 5.59559V5.59514C29.9019 3.13326 23.641 1.19922 16.0077 1.19922C7.96154 1.19922 1.43945 3.3476 1.43945 5.99895C1.43945 6.21506 1.48312 6.4273 1.56647 6.6359C1.53034 6.49988 1.51195 6.35977 1.51175 6.21904C1.51197 3.58405 8.03427 1.44739 16.0805 1.44739Z" fill="black"/>
<path d="M31.0087 5.39844C31.0725 5.59226 31.1051 5.79497 31.1052 5.99901C31.1052 8.90163 24.3459 11.2543 16.0072 11.2543C8.58639 11.2543 2.41681 9.39044 1.14746 6.9363C2.11061 9.48706 8.41958 11.4576 16.0674 11.466H16.1598C24.4768 11.4578 31.2119 9.1289 31.2119 6.25525C31.2121 5.96375 31.1426 5.67678 31.0087 5.39844Z" fill="black"/>
<path d="M18.9128 6.80759C18.8796 6.72314 18.8734 6.62829 18.8925 6.534C18.8992 6.5005 18.856 6.47044 18.8206 6.50681C18.4825 6.85932 18.4573 7.31531 18.6788 7.52004C18.7579 7.59366 18.8489 7.62671 18.9459 7.6329C18.8016 7.44984 18.7334 7.09091 18.9128 6.80759Z" fill="black"/>
<path d="M22.3378 7.48646H22.3382C22.3555 7.45307 22.3727 7.41781 22.3912 7.38C22.4052 7.35093 22.3982 7.34275 22.3862 7.33788C22.3515 7.32539 22.3156 7.29875 22.3106 7.27123C22.3083 7.26625 22.3081 7.2615 22.3076 7.25586L22.3081 7.25884C22.3125 7.31202 22.3265 7.41217 22.3378 7.48646Z" fill="black"/>
<path d="M22.7217 6.10547C22.8345 6.21369 22.9034 6.3449 22.9162 6.46561C22.9212 6.52276 22.9648 6.52907 23.0004 6.47921C23.0097 6.46561 23.0203 6.4487 23.0328 6.42969C23.023 6.41587 23.0123 6.40261 23.0024 6.38956C22.915 6.28898 22.8212 6.19409 22.7217 6.10547Z" fill="black"/>
<path d="M18.0381 5.88281C18.1287 6.00673 18.1711 6.18371 18.1648 6.41021C18.1632 6.46891 18.206 6.46504 18.2338 6.42502C18.2498 6.40281 18.2638 6.38313 18.2785 6.3629V6.36113C18.2124 6.15806 18.1109 5.95864 18.0381 5.88281Z" fill="black"/>
<path d="M22.2485 6.48162C21.9697 6.34775 21.5443 6.59326 21.1594 7.06694C20.8439 7.45427 20.6739 7.84813 20.6681 8.23216C20.6656 8.36901 20.7175 8.53814 20.838 8.59982C20.8754 8.62061 20.9162 8.63472 20.9584 8.64149C20.9449 8.59116 20.9379 8.5393 20.9374 8.48718C20.9327 8.09088 21.0558 7.69514 21.3721 7.30725C21.7543 6.8359 22.1563 6.601 22.4354 6.73078C22.4211 6.62709 22.3671 6.53766 22.2485 6.48162Z" fill="black"/>
<path d="M13.9102 7.26691C14.204 6.86851 14.535 6.71784 14.9124 6.55479C14.9621 6.53302 14.9681 6.50494 14.9586 6.46094C14.9424 6.38577 14.8901 6.19918 14.874 6.1543C14.886 6.19531 14.8753 6.2267 14.8263 6.24494C14.398 6.40755 13.9687 6.66003 13.6717 7.05787C13.3347 7.50933 13.2444 8.05231 13.4695 8.36515C13.5231 8.43833 13.587 8.49261 13.6575 8.52798C13.5363 8.15435 13.6248 7.65337 13.9102 7.26691Z" fill="black"/>
<path d="M16.0654 9.6302C16.3549 9.6302 16.7107 9.6302 16.9515 9.62876C16.9873 9.62677 17.0128 9.60654 17.0316 9.57979C17.3914 9.01603 17.7756 8.4044 18.1432 7.8402C18.2238 8.12484 18.2653 8.25727 18.4153 8.39136C18.5679 8.52765 18.7091 8.56347 18.9168 8.56524C19.1055 8.56756 19.2914 8.49217 19.5128 8.40031C19.5874 8.36846 19.659 8.33003 19.7269 8.28546C19.7269 8.18089 19.7375 8.07576 19.7561 7.97539C19.7576 7.96456 19.747 7.89503 19.6876 7.93626C19.5645 8.02574 19.4299 8.09814 19.2874 8.15148C19.0835 8.22753 18.9886 8.25605 18.7999 8.25429C18.5625 8.25241 18.3486 8.15148 18.1983 7.91669C18.1142 7.7899 18.0793 7.59656 18.0714 7.45463C18.0703 7.43904 18.0499 7.41141 18.0276 7.44722C17.6287 8.05697 17.2561 8.64615 16.8602 9.2653C16.8395 9.29448 16.8216 9.31349 16.7806 9.31482C16.536 9.31482 16.268 9.31416 15.9986 9.31571C15.9704 9.31571 15.9502 9.30277 15.9443 9.2831C15.9654 9.37761 16 9.54884 16.0091 9.58885C16.0151 9.61594 16.0353 9.6302 16.0654 9.6302Z" fill="black"/>
<path d="M19.939 9.29257C20.0058 9.4208 20.1556 9.56473 20.2464 9.60994C20.7653 9.86563 21.5062 9.57578 21.9821 9.11836C21.9868 9.11206 21.9879 9.11162 21.9947 9.10421C22.0164 9.18634 22.0432 9.28616 22.0471 9.29998C22.0795 9.40621 22.1304 9.50272 22.175 9.5539C22.5005 9.92178 23.1916 9.75431 23.911 9.19762C24.3132 8.88677 24.6112 8.5746 24.9764 8.14979C24.9911 8.1321 24.9898 8.10602 24.9816 8.06622C24.9607 7.97381 24.9279 7.80667 24.9096 7.72266C24.909 7.73669 24.9041 7.7502 24.8955 7.76135C24.5143 8.22618 24.0928 8.66558 23.6897 8.97642C23.063 9.46204 22.4373 9.58529 22.1281 9.274C22.0124 9.15827 21.9491 8.9929 21.9415 8.85262C21.9377 8.77656 21.8992 8.77303 21.8627 8.80873C21.4933 9.17474 20.8511 9.57998 20.2658 9.29125C19.964 9.14224 19.8066 8.86268 19.75 8.55504C19.7504 8.55824 19.7515 8.56211 19.7523 8.56554C19.7885 8.78353 19.8359 9.09824 19.939 9.29257Z" fill="black"/>
<path d="M19.681 7.30812C19.8736 7.20388 20.0427 6.9828 20.0217 6.62409C20.0105 6.44557 19.9589 6.26163 19.8753 6.11328C19.9322 6.2215 19.9559 6.34752 19.9358 6.48028C19.8989 6.71175 19.7734 6.91581 19.5602 7.02149C19.3795 7.11003 19.1683 7.09445 19.0205 6.96257C18.976 6.9217 18.9408 6.8719 18.917 6.81643C18.955 6.99131 18.9883 7.11987 19.0338 7.18874C19.1732 7.39899 19.4146 7.45205 19.681 7.30812Z" fill="black"/>
<path d="M25.4081 4.27959C25.2867 4.48973 22.9429 8.05813 22.7948 8.42723C22.7479 8.54407 22.7424 8.63339 22.79 8.69772C22.8384 8.7625 22.909 8.78715 22.9891 8.78583C22.9973 8.74072 23.0144 8.68999 23.0357 8.63637C23.1839 8.26595 25.3789 4.93035 25.4994 4.71921C25.5094 4.70119 25.5058 4.68097 25.5026 4.66748C25.4955 4.63399 25.4219 4.27937 25.4147 4.24609C25.4167 4.25769 25.4143 4.26961 25.4081 4.27959Z" fill="black"/>
<path d="M15.6807 5.93945C15.6875 5.94686 15.6929 5.95427 15.6989 5.96167C15.84 6.17159 15.9169 6.46706 15.9246 6.77226C15.933 6.8366 15.9606 6.83815 15.9917 6.80509C16.0203 6.77613 16.0481 6.74529 16.0755 6.71556C16.0343 6.55163 15.9704 6.40416 15.9046 6.2619C15.8801 6.21061 15.7731 6.02667 15.6807 5.93945Z" fill="black"/>
<path d="M11.8984 9.27452C11.9411 9.29607 11.9852 9.27651 12.0064 9.26457C12.1493 9.19139 12.4277 8.97738 12.5476 8.82804C12.584 8.7941 12.6189 8.81721 12.6305 8.85335C12.6806 9.01209 12.754 9.13446 12.8362 9.26468C12.9258 9.40971 13.1057 9.56005 13.3389 9.62394C13.6405 9.7085 13.9661 9.72343 14.394 9.56005C14.7371 9.42872 15.0967 9.16121 15.3732 8.86065C15.705 8.50039 15.825 8.26958 15.9507 8.11217C16.166 7.84577 16.501 7.37386 16.9706 6.97326C17.1349 6.83276 17.3147 6.74168 17.4276 6.78589C17.4954 6.61102 17.4633 6.51451 17.3911 6.46809C17.2812 6.39657 17.0615 6.5039 16.876 6.6454C16.3704 7.02831 15.9455 7.62479 15.7304 7.89164C15.6035 8.04861 15.4839 8.2802 15.1525 8.64012C14.6315 9.20565 13.9408 9.53075 13.2744 9.30624C12.9107 9.18398 12.6475 8.89149 12.5474 8.53223C12.5273 8.46292 12.4885 8.44347 12.4507 8.48923C12.3431 8.62376 12.123 8.8213 11.9392 8.94566C11.9191 8.96014 11.8693 8.98954 11.8266 8.96832C11.7882 8.95085 11.6517 8.75807 11.6249 8.70258C11.6215 8.69685 11.6192 8.69056 11.6182 8.684V8.68644C11.6661 8.92366 11.6721 8.95129 11.737 9.06095C11.8105 9.18188 11.8821 9.26766 11.8984 9.27452Z" fill="black"/>
<path d="M7.87959 7.14393C8.04784 6.80467 8.28462 6.64273 8.51742 6.49549C8.61757 6.43204 8.662 6.37057 8.60242 6.20531C8.58551 6.15811 8.576 6.07322 8.55721 5.99805C8.56318 6.07145 8.52692 6.13457 8.46204 6.16839C8.17772 6.31342 7.83549 6.56203 7.66658 6.90118C7.52929 7.17753 7.50143 7.51192 7.71058 7.82962C7.72815 7.85494 7.74717 7.88058 7.76817 7.90413H7.76839C7.70118 7.64037 7.77347 7.35628 7.87959 7.14393Z" fill="black"/>
<path d="M10.7912 3.02444C11.8249 2.68353 12.9772 2.89908 13.9027 3.09717C14.0322 3.01637 14.1455 2.96054 14.259 2.89831C14.3155 2.86868 14.2523 2.83342 14.2347 2.83342C13.0398 2.60913 11.7981 2.31819 10.6119 2.75748C9.78969 3.06434 9.42944 3.71621 9.60332 4.15141C9.63648 4.23443 9.68943 4.29898 9.75852 4.34486C9.70048 3.94348 10.0014 3.28576 10.7912 3.02444Z" fill="black"/>
<path d="M7.42922 9.27286C7.76803 9.51163 8.10165 9.59078 8.49087 9.59764C9.28146 9.61145 10.0036 9.28502 10.7695 8.50792C11.5047 7.76176 12.1411 6.71902 12.7686 5.68567C12.7894 5.64931 12.8116 5.63306 12.9167 5.61935C13.3105 5.57082 13.6632 5.54827 14.011 5.51566C14.1147 5.50593 14.1935 5.49643 14.2315 5.53401C14.3571 5.6597 14.5032 5.77455 14.5999 5.8307C14.6641 5.83148 14.718 5.84563 14.7557 5.87934C14.7963 5.87404 14.8333 5.85149 14.8573 5.82816C14.9024 5.78406 14.9042 5.73243 14.8968 5.68866C14.8812 5.60277 14.858 5.43353 14.8305 5.38445C14.8495 5.42181 14.8372 5.47465 14.7997 5.51699C14.7722 5.54838 14.7292 5.57812 14.6745 5.57745C14.6293 5.57635 14.6025 5.56087 14.5457 5.5297C14.4284 5.46702 14.2836 5.36322 14.1862 5.24063C14.1534 5.19951 14.1365 5.19841 14.0536 5.20305C13.6817 5.22471 13.1015 5.28043 12.708 5.32984C12.6132 5.34167 12.5991 5.35946 12.5793 5.39196C11.9524 6.42597 11.2832 7.54056 10.5483 8.28683C9.76022 9.08715 9.10471 9.29729 8.4094 9.30271C7.60697 9.30835 6.89298 8.85369 6.71191 8.05481V8.05525C6.80974 8.50161 7.09726 9.03863 7.42922 9.27286Z" fill="black"/>
<path d="M10.3929 5.79828C10.3754 5.77154 10.3657 5.74039 10.3651 5.70841C10.3569 5.84239 10.411 6.03937 10.4543 6.10515C10.5019 6.17855 10.636 6.21458 10.7421 6.13543C10.982 5.95879 11.1986 5.85587 11.4409 5.81C11.5031 5.72477 11.5703 5.63037 11.6473 5.52424C11.654 5.51595 11.6558 5.5049 11.6529 5.49937C11.6486 5.48975 11.6409 5.48699 11.6253 5.48633C11.2701 5.49617 10.9597 5.6024 10.659 5.82713C10.5725 5.89036 10.4476 5.88141 10.3929 5.79828Z" fill="black"/>
<path d="M20.0609 3.37724C19.564 3.64994 19.0448 3.7323 18.5018 3.73705C17.1891 3.74777 15.9662 3.2363 14.7011 2.96149C14.7029 3.01665 14.7173 3.08286 14.6708 3.11779C13.9702 3.63447 13.3367 4.15966 12.9122 4.89664C12.8982 4.91389 12.9059 4.9298 12.9306 4.92803C13.0425 4.92295 13.1507 4.91786 13.2573 4.91201C13.6439 4.30646 14.0574 3.95935 14.6889 3.49331C14.7362 3.45749 14.7834 3.43262 14.7679 3.29787C16.0369 3.57964 17.0019 4.04635 18.6407 4.05066C19.1298 4.05232 19.8193 3.88927 20.1903 3.66608C20.6167 3.40963 20.7301 3.22104 20.7453 3.02173C20.7503 2.9595 20.7338 2.86709 20.7238 2.81944C20.7093 2.7519 20.6998 2.66568 20.6806 2.60156C20.6871 2.62765 20.6901 2.65717 20.6876 2.68955C20.6747 2.91882 20.4974 3.13913 20.0609 3.37724Z" fill="black"/>
<path d="M14.5778 4.23197C14.5622 4.24678 14.5447 4.26192 14.5273 4.27784C14.4021 4.40751 14.3639 4.57918 14.3823 4.70906C14.3926 4.7619 14.4129 4.77218 14.437 4.76765C14.4618 4.76215 14.4861 4.75453 14.5096 4.74488C14.5185 4.67336 14.5484 4.60394 14.6207 4.54027C14.673 4.49406 14.7386 4.47261 14.7946 4.4819C14.8429 4.38617 14.8567 4.27099 14.7978 4.21959C14.7412 4.17073 14.6509 4.1799 14.5778 4.23197Z" fill="black"/>
<path d="M15.083 4.68184C14.9626 4.9121 14.7641 5.0348 14.5736 5.09438C14.5736 5.09438 14.5337 5.10345 14.5397 5.13993C14.5443 5.18083 14.6794 5.26639 14.7637 5.32641C14.776 5.3231 14.7944 5.31635 14.7944 5.31635C14.8921 5.27755 15.055 5.17818 15.1492 4.97201C15.2095 4.83903 15.2424 4.73468 15.2162 4.50641C15.1972 4.34723 15.165 4.2033 15.1223 4.12891C15.2047 4.29571 15.1718 4.50984 15.083 4.68184Z" fill="black"/>
<path d="M11.5564 3.85938C11.2093 4.67541 10.5461 5.32263 9.73822 5.34938C9.28644 5.36452 8.94067 5.15151 8.75684 4.82663C8.89114 5.06916 9.11842 5.28184 9.32093 5.40929C9.49592 5.51829 9.7118 5.57898 9.95875 5.57068C10.8005 5.54194 11.4383 4.84818 11.6499 4.26209C11.7064 4.10401 11.6623 3.93466 11.6362 3.82014C11.6256 3.77637 11.6111 3.67655 11.5791 3.60547H11.5787C11.6026 3.66417 11.6026 3.75061 11.5564 3.85938Z" fill="black"/>
<path d="M16.0075 0C7.12608 0 0.00683594 2.66207 0.00683594 5.99967C0.00683594 9.31759 7.18489 12 16.0076 12C24.8308 12 32.0094 9.3083 32.0094 5.99967C32.0092 2.6917 24.8308 0 16.0075 0ZM0.116494 6.06588C0.113288 5.36372 0.422806 4.66609 1.07357 4.00936C3.36422 1.6987 9.36621 0.136962 15.9809 0.109989C24.7436 0.0735104 31.8842 2.68628 31.8994 5.93423C31.9025 6.63661 31.5747 7.32496 30.9238 7.98113C28.6328 10.2922 22.6493 11.8638 16.0351 11.8901C7.27255 11.9267 0.131306 9.31427 0.116494 6.06588ZM31.9115 5.53639C31.9172 5.56568 31.9212 5.59531 31.9263 5.62371C31.9221 5.59542 31.9162 5.56601 31.9115 5.53639Z" fill="black"/>
<path d="M0.0556641 6.00049C0.0556641 6.15724 0.0741246 6.31289 0.106182 6.46621C0.0814504 6.3346 0.0684659 6.20106 0.0673815 6.06715C0.0642863 5.35559 0.382426 4.63729 1.0386 3.97525C3.34208 1.65176 9.35015 0.0883656 15.9813 0.0605089C16.9002 0.0564189 17.8005 0.0820647 18.678 0.134572C17.7892 0.0787736 16.8988 0.0508296 16.0082 0.0507812C7.1623 0.0507812 0.0556641 2.70335 0.0556641 6.00049Z" fill="#010101"/>
<path d="M30.9597 8.01835C28.6641 10.333 22.6576 11.9127 16.0355 11.9403C15.1191 11.945 14.2028 11.92 13.2881 11.8655C14.1718 11.9219 15.0812 11.9504 16.0079 11.9504C24.8035 11.9504 31.9596 9.26504 31.9596 6.00195C31.9596 5.87726 31.9481 5.75378 31.928 5.63086C31.9425 5.73178 31.9488 5.83359 31.9498 5.93584C31.9537 6.64751 31.6159 7.35631 30.9597 8.01835Z" fill="black"/>
<path d="M16.0076 0.744141C7.6684 0.744141 0.908203 3.09636 0.908203 5.99942C0.908203 8.90203 7.6684 11.2547 16.0076 11.2547C24.3461 11.2547 31.1054 8.90203 31.1054 5.99942C31.1054 3.09636 24.346 0.744141 16.0076 0.744141ZM16.0076 10.7995C7.96145 10.7995 1.43936 8.65099 1.43936 5.9993C1.43936 3.34774 7.96134 1.19946 16.0076 1.19946C24.0543 1.19946 30.5756 3.34785 30.5756 5.9993C30.5756 8.6511 24.0543 10.7995 16.0076 10.7995Z" fill="#FFD124"/>
<path d="M25.408 4.27818C25.4289 4.24159 25.4074 4.21484 25.3612 4.21484C25.1193 4.21484 24.8033 4.21562 24.5523 4.21562C24.4923 4.21562 24.4619 4.22225 24.4336 4.27818C24.3408 4.45605 23.2106 6.14944 23.0002 6.47809C22.9646 6.52816 22.9211 6.52175 22.9161 6.46449C22.8953 6.26905 22.7263 6.04388 22.4605 5.93709C22.2578 5.85474 22.0598 5.83993 21.8544 5.86745C21.4827 5.9173 21.1517 6.11385 20.8604 6.3346C20.4215 6.66844 20.0429 7.10055 19.5545 7.41991C19.2879 7.59357 18.9223 7.74534 18.6781 7.51895C18.4566 7.31401 18.4821 6.85824 18.8199 6.50572C18.8553 6.46935 18.8985 6.49942 18.8918 6.53291C18.8596 6.69287 18.8987 6.85117 19.0197 6.96193C19.1677 7.09381 19.3787 7.1095 19.5596 7.02085C19.7732 6.91528 19.8984 6.71078 19.9351 6.47963C19.9917 6.11949 19.7147 5.80245 19.3681 5.77714C19.087 5.75724 18.8172 5.85518 18.5544 6.07217C18.4231 6.18161 18.3477 6.26175 18.234 6.42458C18.2059 6.46449 18.1632 6.46858 18.1649 6.40977C18.1778 5.94958 17.9876 5.69036 17.6067 5.68218C17.3114 5.67455 16.996 5.8355 16.7498 6.03116C16.4803 6.24727 16.2446 6.53479 15.9914 6.8043C15.9602 6.83735 15.9327 6.8358 15.9243 6.77146C15.9166 6.46615 15.8396 6.17067 15.6986 5.96086C15.648 5.88801 15.5435 5.85186 15.4552 5.90117C15.4144 5.92327 15.2726 5.98871 15.1687 6.07206C15.118 6.1144 15.0982 6.17531 15.1203 6.25357C15.2563 6.70989 15.2266 7.22756 15.0417 7.66564C14.8724 8.06569 14.5425 8.42794 14.1545 8.54976C13.8995 8.63056 13.6334 8.59099 13.469 8.36449C13.244 8.05165 13.3343 7.50867 13.6712 7.05722C13.9683 6.65937 14.3976 6.4069 14.8258 6.24429C14.8764 6.2245 14.8869 6.19233 14.8724 6.14955C14.8492 6.07925 14.8121 5.98352 14.7969 5.93997C14.7577 5.83572 14.6473 5.81815 14.5129 5.83296C14.2017 5.86922 13.921 5.97567 13.6437 6.12424C12.9177 6.51313 12.5536 7.26559 12.3938 7.66851C12.3172 7.86229 12.2513 7.98256 12.166 8.0899C12.0513 8.23383 11.9081 8.36471 11.645 8.59552C11.6213 8.61686 11.6041 8.66074 11.6239 8.70197C11.6506 8.75747 11.7873 8.95025 11.8256 8.96772C11.8683 8.98894 11.918 8.95954 11.9383 8.94506C12.1221 8.8207 12.3422 8.62316 12.4497 8.48863C12.4874 8.44286 12.5262 8.46232 12.5465 8.53163C12.6466 8.89089 12.9098 9.18339 13.2735 9.30564C13.9397 9.52971 14.6304 9.20505 15.1516 8.63952C15.4829 8.27959 15.6025 8.04801 15.7295 7.89104C15.9447 7.62419 16.3696 7.02748 16.875 6.64478C17.0607 6.50351 17.2803 6.39584 17.3903 6.46747C17.4788 6.52496 17.5076 6.65772 17.3651 6.9165C16.8498 7.85832 16.091 8.96462 15.9514 9.23213C15.9263 9.27878 15.9487 9.3157 15.9974 9.3157C16.2669 9.31438 16.5347 9.31504 16.7793 9.31504C16.8204 9.31316 16.8383 9.29426 16.8588 9.26552C17.2548 8.64604 17.6272 8.05674 18.0264 7.44732C18.0486 7.41183 18.0691 7.43947 18.0701 7.45462C18.0781 7.59666 18.1132 7.78967 18.1969 7.91679C18.3474 8.15158 18.5613 8.25251 18.7986 8.25428C18.9873 8.25649 19.0823 8.22775 19.2861 8.15158C19.4285 8.0981 19.5632 8.02575 19.6864 7.93647C19.7457 7.89524 19.7563 7.96477 19.7548 7.9756C19.6635 8.46718 19.7759 9.05007 20.2648 9.29105C20.8503 9.57957 21.4924 9.17432 21.8617 8.80854C21.8981 8.77327 21.9367 8.77659 21.9405 8.85253C21.948 8.99303 22.0116 9.15851 22.1271 9.27392C22.4366 9.58487 23.062 9.46173 23.6888 8.97645C24.0918 8.66549 24.5133 8.2262 24.8946 7.76126C24.9079 7.74313 24.919 7.71384 24.8918 7.6851C24.8342 7.62441 24.7502 7.5551 24.6925 7.50137C24.6662 7.47949 24.6279 7.48579 24.6053 7.50259C24.2152 7.87335 23.8643 8.29717 23.3563 8.6467C23.185 8.76675 22.9123 8.86303 22.7895 8.69722C22.7418 8.63288 22.7473 8.54323 22.7943 8.42672C22.9428 8.05674 25.2868 4.48844 25.408 4.27818ZM22.3105 7.27034C22.3155 7.29776 22.3509 7.32406 22.3861 7.33689C22.398 7.34175 22.4052 7.34993 22.3909 7.37889C22.2917 7.59268 22.2 7.71549 22.0751 7.90143C21.9606 8.07277 21.8307 8.20686 21.6744 8.33542C21.4379 8.53096 21.1097 8.74343 20.8383 8.60027C20.7178 8.53815 20.6657 8.36946 20.6684 8.23261C20.6746 7.84848 20.8445 7.4545 21.1598 7.06716C21.5444 6.59349 21.9698 6.34798 22.2489 6.48184C22.5373 6.61958 22.4453 6.95397 22.3162 7.21662C22.3062 7.23652 22.3051 7.25398 22.3105 7.27034Z" fill="#FFD124"/>
<path d="M8.41 9.30193C7.53617 9.30823 6.7668 8.76757 6.67825 7.83327C6.62928 7.31538 6.77564 6.85331 7.0688 6.47293C7.32879 6.13401 7.76941 5.85257 8.14127 5.78359C8.2632 5.76159 8.42592 5.77596 8.49357 5.856C8.59903 5.97903 8.5683 6.11434 8.46328 6.16795C8.17897 6.31298 7.83673 6.56159 7.66782 6.90073C7.53053 7.17709 7.50267 7.51148 7.71182 7.82918C8.06323 8.35867 9.04108 8.3736 9.95051 7.52839C10.1759 7.32135 10.3773 7.1227 10.5827 6.8878C10.9831 6.42938 11.1161 6.26213 11.6487 5.52382C11.6554 5.51553 11.6572 5.50447 11.6543 5.49895C11.65 5.48933 11.6422 5.48657 11.6267 5.4859C11.2715 5.49574 10.9613 5.60197 10.6604 5.8267C10.5736 5.88982 10.4487 5.88087 10.3941 5.79774C10.3334 5.70356 10.3769 5.58097 10.477 5.51199C10.9613 5.17528 11.4908 5.11382 12.0315 5.0224C12.0311 5.0224 12.0693 5.02395 12.0999 4.98305C12.3217 4.69851 12.4892 4.44161 12.7261 4.15332C12.9645 3.86126 13.2722 3.59353 13.5075 3.39135C13.8359 3.1088 14.0465 3.01385 14.2605 2.89745C14.317 2.86782 14.2537 2.83256 14.2361 2.83256C13.0413 2.60827 11.7995 2.31732 10.6132 2.75661C9.79111 3.06348 9.43074 3.71535 9.60463 4.15055C9.72733 4.45941 10.1338 4.50948 10.5141 4.32355C10.8462 4.15959 11.128 3.90902 11.3296 3.59828C11.4454 3.41998 11.6894 3.54854 11.5576 3.8585C11.2105 4.67452 10.5472 5.32175 9.73938 5.3485C9.05147 5.37127 8.60765 4.86554 8.60942 4.24131C8.61174 3.01009 9.98279 2.19915 11.4228 2.07777C13.1573 1.93473 14.8002 2.3968 16.522 2.60561C17.8417 2.76513 19.1069 2.76844 20.433 2.46401C20.5895 2.42996 20.7 2.52978 20.6892 2.68819C20.6763 2.91712 20.4989 3.13743 20.0624 3.37576C19.5654 3.64847 19.0462 3.73082 18.5034 3.73558C17.1907 3.7463 15.9677 3.23482 14.7027 2.96001C14.7045 3.01517 14.7188 3.08139 14.6724 3.11632C13.9718 3.63299 13.3383 4.15818 12.9138 4.89516C12.8998 4.91241 12.9075 4.92833 12.9322 4.92656C13.3005 4.90721 13.6321 4.89793 13.9757 4.8704C14.0356 4.86543 14.0378 4.85062 14.0328 4.80662C14.0026 4.55248 14.0766 4.26253 14.3001 4.063C14.5287 3.85817 14.8152 3.83495 15.0049 3.9822C15.2208 4.15055 15.2018 4.45333 15.084 4.68038C14.9636 4.91064 14.7651 5.03334 14.5746 5.09292C14.5746 5.09292 14.5347 5.10199 14.5407 5.13847C14.5481 5.19617 14.8077 5.34032 14.8299 5.37868C14.8514 5.41482 14.8407 5.47142 14.8006 5.51464C14.7731 5.54604 14.7301 5.57577 14.6754 5.575C14.6302 5.574 14.6034 5.55853 14.5466 5.52736C14.4294 5.46457 14.2845 5.36088 14.1871 5.23829C14.1543 5.19717 14.1374 5.19606 14.0545 5.2007C13.6826 5.22237 13.1024 5.27808 12.709 5.3275C12.6141 5.33932 12.6 5.35712 12.5802 5.38962C11.9533 6.42363 11.2841 7.53823 10.5492 8.2845C9.76082 9.08615 9.10531 9.29618 8.41 9.30193ZM14.3831 4.70912C14.3934 4.76196 14.4138 4.77224 14.4378 4.76771C14.5571 4.74383 14.6876 4.64545 14.7652 4.53203C14.8359 4.42868 14.8687 4.27955 14.7987 4.21964C14.7362 4.16625 14.6346 4.18172 14.5591 4.24816C14.4096 4.3807 14.3641 4.56851 14.3831 4.70912Z" fill="#FFD124"/>
</g>
<defs>
<clipPath id="clip0_477_6239">
<rect width="32.0171" height="12" fill="white"/>
</clipPath>
</defs>
</svg>
