<svg width="29" height="15" viewBox="0 0 29 15" fill="none" xmlns="http://www.w3.org/2000/svg">
<path fill-rule="evenodd" clip-rule="evenodd" d="M28.9389 7.46423C28.9389 11.5318 22.4639 14.8658 14.5168 14.8658C6.53727 14.8658 0.0947266 11.5315 0.0947266 7.46423C0.0947266 3.36331 6.53727 0.0292969 14.5168 0.0292969C22.4639 0.0290713 28.9389 3.36309 28.9389 7.46423ZM13.8301 6.43071C15.0728 6.19726 16.2828 5.76373 17.2313 5.39697C20.3056 4.29668 21.7444 3.16324 22.0389 2.8964C22.4311 2.52964 22.1369 2.39633 21.7769 2.26303C19.6841 1.62943 16.5118 1.16274 14.4843 1.26289C13.0128 1.29605 12.1951 2.92978 11.868 3.62993C10.3308 6.93056 13.0778 6.59718 13.8301 6.43071ZM4.41151 11.0982C4.47678 10.9649 6.89702 5.1969 9.74206 2.06295C10.1018 1.72957 9.70932 1.66303 9.25155 1.76296C4.54249 2.69633 1.27199 4.8969 1.27199 7.43085C1.27199 8.83113 2.25301 10.1315 3.88826 11.165C4.11725 11.2983 4.34602 11.1984 4.41151 11.0982ZM15.1708 8.46437C13.9281 8.69783 12.7181 9.13135 11.7696 9.49812C8.69534 10.5982 7.25655 11.7652 6.96229 12.0318C6.5698 12.3652 6.86406 12.5319 7.22381 12.6321C9.31682 13.2657 12.4891 13.7323 14.5166 13.6656C15.9881 13.599 16.8059 11.9653 17.1654 11.2649C18.6703 7.9643 15.9233 8.33106 15.1708 8.46437ZM27.7289 7.46423C27.7289 6.06395 26.7804 4.79698 25.1129 3.76346C24.8839 3.59677 24.6876 3.69692 24.5896 3.83C24.5239 3.92992 22.1041 9.69796 19.2589 12.8319C18.9316 13.1987 19.2916 13.2654 19.7494 13.1655C24.4587 12.1985 27.7289 9.99796 27.7289 7.46423Z" fill="black"/>
</svg>
