<svg width="33" height="17" viewBox="0 0 33 17" fill="none" xmlns="http://www.w3.org/2000/svg">
<path fill-rule="evenodd" clip-rule="evenodd" d="M16.6476 0.542969C7.9114 0.542969 0.829102 4.18844 0.829102 8.68492C0.829102 12.3256 5.47273 15.4082 11.8779 16.4497L16.6476 4.81839L21.4173 16.4495C27.8229 15.408 32.4658 12.3253 32.4658 8.68468C32.4658 4.18844 25.384 0.542969 16.6476 0.542969ZM23.9115 12.7713L16.6476 4.1591L9.41098 12.747C5.84733 11.7315 3.49842 9.95371 3.49842 7.76826C3.49842 4.30173 9.34077 1.05145 16.6337 1.05145C23.9271 1.05145 29.9091 4.30173 29.9091 7.76826C29.9091 9.97055 27.5228 11.7596 23.9115 12.7713Z" fill="black"/>
</svg>
