<svg width="35" height="17" viewBox="0 0 35 17" fill="none" xmlns="http://www.w3.org/2000/svg">
<path fill-rule="evenodd" clip-rule="evenodd" d="M8.79527 14.698C8.67543 14.5993 8.50638 14.2747 8.44991 14.1547L6.53319 9.55552H5.97647L4.21482 13.9433C4.13728 14.1408 3.81771 14.7122 3.7567 14.8039C3.70041 14.8885 3.6158 15.0295 3.82715 15.0295H4.51787L5.06932 13.6468H7.08282L7.66078 15.0295H8.76713C8.92909 15.0295 8.9507 14.8262 8.79527 14.698ZM5.34985 12.971L6.05455 11.1791L6.80156 12.971H5.34985ZM25.0152 14.698C24.8953 14.5993 24.7261 14.2747 24.6698 14.1547L22.7529 9.55552H22.1962L20.4347 13.9433C20.357 14.1408 20.0374 14.7122 19.9766 14.8039C19.9201 14.8885 19.8359 15.0295 20.0472 15.0295H20.7377L21.2892 13.6468H23.3029L23.8807 15.0295H24.9872C25.1488 15.0295 25.1704 14.8262 25.0152 14.698ZM21.5697 12.971L22.2744 11.1791L23.0213 12.971H21.5697ZM1.78314 10.2848V14.0658C1.78314 15.7022 0.683878 16.2667 0.514648 16.4782H1.755C2.45026 16.0097 2.88241 14.9998 2.88241 14.376V9.5508H1.78314C1.65622 9.5508 1.58595 9.63562 1.64224 9.77661C1.69853 9.91796 1.76916 10.045 1.78314 10.2848ZM12.8314 12.405H13.9308V14.7472C13.6065 14.9588 13.1555 15.1564 12.1831 15.1564C11.2106 15.1564 9.27972 14.6908 9.27972 12.2501C9.27972 9.80923 11.6898 9.4707 12.2254 9.4707C12.7611 9.4707 13.4658 9.59756 13.8462 9.75287V10.5571C13.5502 10.4584 13.1133 10.134 12.2959 10.134C11.3657 10.134 10.4496 10.8957 10.4355 12.3349C10.4213 13.774 11.4361 14.9166 12.8314 14.4228V12.9839C12.8243 12.8287 12.8032 12.7158 12.7328 12.6171C12.6801 12.5433 12.6481 12.405 12.8314 12.405ZM19.4099 13.3643V10.3099C19.417 10.1548 19.5439 9.86559 19.6145 9.76682C19.667 9.69324 19.6989 9.55515 19.5156 9.55515H18.6843C18.5009 9.55515 18.5332 9.69324 18.5857 9.76682C18.656 9.86559 18.7829 10.1548 18.79 10.3099V12.9835C18.79 13.7878 18.2118 14.5072 17.3806 14.5072C16.549 14.5072 16.1965 13.6464 16.1965 13.1952V9.55515H15.0973C14.914 9.55515 14.946 9.69324 14.9985 9.76682C15.0691 9.86559 15.0902 9.97831 15.0973 10.1334V13.3079C15.0973 14.2673 16.1542 15.142 17.3804 15.142C18.6068 15.142 19.4099 14.0697 19.4099 13.3643ZM27.2139 14.1477C27.2139 14.2533 27.2987 14.6696 27.3549 14.8037C27.4114 14.9376 27.3337 15.0293 27.2139 15.0293H26.1148V10.1336C26.1077 9.97849 26.0865 9.86559 26.0158 9.767C25.9637 9.69343 25.9314 9.55533 26.1148 9.55533H27.7214C28.1303 9.55533 29.5255 9.51311 29.5397 11.079C29.5538 11.5022 29.5397 11.8833 28.8915 12.3206C28.7645 12.4052 28.6939 12.5181 28.7929 12.6874C28.8915 12.8567 29.6595 14.218 29.6595 14.218C29.7861 14.4155 30.0003 14.7106 30.0751 14.7682C30.1667 14.8389 30.195 15.0291 30.0401 15.0291H28.9056L27.5594 12.5884C27.475 12.4333 27.475 12.292 27.6722 12.2358C27.9207 12.1646 28.4546 12.1936 28.4546 11.0506C28.4546 9.98537 27.7216 10.1124 27.4822 10.1124C27.2426 10.1124 27.214 10.2887 27.214 10.5426L27.2139 14.1477ZM3.4108 15.8816V16.2482H34.3609V15.8816H3.4108Z" fill="black"/>
<path fill-rule="evenodd" clip-rule="evenodd" d="M33.8442 8.622H32.879C32.3424 8.63541 32.0757 8.3469 31.958 8.25194C28.5876 5.82847 22.3014 3.07736 16.6359 1.1729C15.9029 0.947101 14.8176 0.791976 14.1412 0.791976C13.4648 0.791976 13.1405 0.735616 12.4358 0.763706C11.7598 0.790708 11.0546 0.904696 10.66 1.0176C10.2654 1.1305 9.37754 1.35612 9.33523 1.89235C8.99695 2.14624 8.65177 2.49201 8.51069 2.633C8.3696 2.77399 8.3204 3.04908 8.6022 3.35952C8.88401 3.66977 9.22247 3.9802 9.4478 3.83921C9.67314 3.69822 9.61685 3.52878 9.70147 3.35952C9.78608 3.19026 10.0681 2.93636 10.3499 3.24662C10.6317 3.55687 10.4556 3.69097 10.2934 3.83921C10.1432 3.97639 9.84237 4.23427 10.0397 4.48816C10.2369 4.74205 10.4626 4.82686 10.7726 4.60106C11.0001 4.43543 11.6086 4.08748 11.9612 3.89158C12.048 3.83903 12.1538 3.71217 12.5397 3.86784C12.955 4.02677 13.5966 4.31183 13.8661 4.45989L13.2812 4.72792C12.9711 4.92545 12.7033 5.48288 12.6751 5.68023C12.647 5.99048 12.7598 6.4352 13.1825 6.80181H14.0985L14.6482 6.01187L14.6058 5.92724C15.3105 5.84243 17.2275 6.42107 18.1295 6.06823C18.7494 6.32212 19.8489 6.46329 21.8784 6.26576C22.2448 6.23749 22.745 6.15993 23.055 6.56206C23.3756 6.97742 24.9504 8.63595 25.458 8.80521C25.9655 8.97465 28.0796 8.97465 28.6292 9.07324C29.104 9.15859 29.2916 9.07324 29.6863 9.52466L30.5317 10.2724C30.6303 10.3853 30.9265 10.604 31.2648 10.604H31.8496C32.1879 10.5757 32.3709 10.336 32.4557 10.0538H33.8931C34.3441 10.0538 34.4854 9.65169 34.4854 9.2849C34.4854 8.91811 34.2388 8.622 33.8442 8.622ZM33.8513 9.71567H32.4913C32.4136 9.11582 31.9697 9.03174 31.716 9.01724C31.4692 9.00329 31.2791 8.90452 31.1664 8.83384C31.1664 8.83384 30.2503 8.01545 29.9965 7.74742C29.743 7.4794 29.5737 7.39477 29.3341 7.39477H28.5028C28.3336 7.39477 28.136 7.4089 27.8542 7.02798C27.5726 6.64687 26.8537 6.04032 26.6703 5.91347C26.4873 5.78643 26.4448 5.9276 26.5576 6.02637C26.6562 6.12513 27.1214 6.42143 27.4034 6.88699C27.6854 7.35254 27.9247 7.59248 28.1222 7.69124C28.2911 7.80415 28.8128 7.78983 29.1227 7.78983C29.433 7.78983 29.5458 7.8181 29.7994 8.07199C30.0531 8.32588 30.6311 8.83385 30.7861 9.00329C30.9412 9.17255 31.2088 9.32767 31.5894 9.32767C31.97 9.32767 32.1532 9.56743 32.1391 9.79323C32.126 10.0049 32.0121 10.2447 31.8429 10.2447H31.2368C31.1382 10.2447 30.9127 10.1037 30.8562 10.0471C30.659 9.90613 30.1657 9.4828 29.8839 9.1865C29.6021 8.8902 29.3203 8.80539 28.9399 8.74921C28.5593 8.69267 26.9805 8.62218 26.6284 8.60822C26.276 8.59409 25.7403 8.59409 25.3599 8.35415C24.9857 8.1182 23.4995 6.49192 23.2458 6.19563C22.9497 5.85693 22.5061 5.89933 22.2382 5.89226C19.6025 6.18149 18.6652 5.91347 18.3834 5.74402L18.6583 5.2714C19.4828 5.46186 20.6102 5.27847 20.7655 5.23624C20.9205 5.19384 20.892 5.03871 20.7371 5.0668C20.3851 5.10921 18.8487 4.92581 18.6933 4.89754C18.6795 4.50248 17.7914 3.31729 17.6787 3.09167C17.5659 2.86587 17.6649 2.72488 17.7773 2.62612C17.89 2.52735 17.89 2.40049 17.7914 2.40049C17.3829 2.44272 17.2841 2.76729 17.3687 3.16235C17.4532 3.55741 18.3269 4.70001 18.2706 4.96822C18.2141 5.23624 17.9465 5.6101 17.7914 5.76523C17.0304 5.94862 15.3392 5.4972 14.3667 5.52529C13.9932 5.53616 14.0566 5.85692 14.1906 5.96983L13.8805 6.42125H13.4365C13.1968 6.35057 13.1124 5.98378 13.0699 5.80038C13.0808 5.68132 13.1685 5.33483 13.4645 5.08094C14.0635 4.56699 16.4525 4.79877 16.6638 4.79877C16.8754 4.79877 16.8189 4.70001 16.6922 4.6576C16.4666 4.60124 15.783 4.41785 15.3814 4.40371C15.2898 4.13569 15.1206 3.94522 15.0641 3.68408C15.016 3.46154 15.0783 3.18319 15.1557 3.01393C15.2613 2.68936 15.0358 2.73883 14.9585 2.83053C14.8526 2.98566 14.585 3.33143 14.5708 3.58532C14.5566 3.83921 14.8174 4.29081 14.888 4.40371C14.7611 4.40371 14.5356 4.41785 14.437 4.41785C13.7533 3.83939 12.5272 3.4514 12.2877 3.36677C12.3298 3.25386 12.3933 3.1339 12.4356 2.99291C12.478 2.85192 12.5626 2.88001 12.6612 2.90828C12.8021 2.97877 13.4645 3.21871 13.676 3.30334C13.8874 3.38797 14.0847 3.34556 14.1833 3.26093C14.2819 3.1763 14.606 2.89414 14.7469 2.69661C14.8878 2.49908 14.6623 2.48494 14.5777 2.58371C14.3099 2.83053 13.9153 2.96464 13.704 2.92241C13.4924 2.88001 12.8161 2.54148 12.647 2.42858C12.2664 2.25932 12.1255 2.52735 12.0832 2.68247C11.8364 3.39612 11.435 3.73229 11.1459 3.94522C11.0613 4.01572 10.6798 4.24007 10.568 4.31202C10.4694 4.37544 10.4058 4.26961 10.4481 4.20618C10.5327 4.14257 10.8427 3.82507 10.8639 3.71235C10.9344 3.30334 10.8216 3.16923 10.6526 2.98584C10.4833 2.80244 10.2649 2.73902 10.0112 2.73902C9.75757 2.73902 9.51789 2.97189 9.43328 3.05633C9.34866 3.14096 9.45452 3.31022 9.31344 3.40917C9.17254 3.50776 9.01039 3.2468 8.92595 3.1339C9.10916 2.92241 9.095 2.82347 9.05269 2.62593C9.11334 2.58045 9.20903 2.46881 9.32742 2.36498C9.4262 2.42152 9.62339 2.44979 9.75031 2.42152C10.4339 2.36498 10.5536 2.44272 10.7087 2.51321C10.8637 2.58371 10.9129 2.48494 10.8565 2.38618C10.7809 2.25371 10.7227 2.20278 10.5818 2.06161L10.8565 1.97698C11.1666 1.97698 11.4767 2.08988 11.6318 2.10402C11.7869 2.11815 11.8855 2.11815 11.9419 2.00525C12.0405 1.70895 12.2237 1.65259 12.3507 1.61019C12.4776 1.56778 12.5762 1.45506 12.4634 1.42679H12.1814C11.9419 1.44093 11.9278 1.52556 11.8573 1.61019C11.7867 1.69482 11.7023 1.79359 11.519 1.76531C11.3358 1.73704 10.9482 1.67362 10.7227 1.68775C10.5463 1.69881 10.2929 1.87822 9.79952 1.86408C9.99689 1.37025 11.8292 1.1729 12.1814 1.15859C14.5211 1.05982 15.0144 1.17272 16.0855 1.39852C17.1566 1.62432 18.7676 2.14914 21.854 3.37655C24.7876 4.54325 30.4807 7.40709 31.7964 8.57597C31.8709 8.65009 32.3007 8.95345 32.7869 8.95345H33.8016C34.0554 8.95345 34.1257 9.18632 34.1257 9.29922C34.1257 9.41212 34.0627 9.71567 33.8513 9.71567Z" fill="black"/>
</svg>
