<svg width="34" height="13" viewBox="0 0 34 13" fill="none" xmlns="http://www.w3.org/2000/svg">
<g clip-path="url(#clip0_502_6137)">
<path d="M28.3666 6.94805C28.339 8.39619 28.6685 9.1632 29.9261 9.1632C31.1816 9.1632 31.3618 7.85661 31.3618 6.86231C31.3618 5.8674 31.1235 4.90154 29.8044 4.90154C28.9952 4.90154 28.3977 5.49842 28.3666 6.94805ZM25.8224 12.9995V3.19708H28.3977V3.59469C28.3977 4.12508 28.6231 3.90637 28.8047 3.69967C28.8351 3.66513 29.409 2.99826 30.7016 2.99826C31.9903 2.99826 33.9951 3.85039 33.9951 6.86234C33.9951 9.19209 32.7991 10.8965 30.7334 10.8965C29.5952 10.8965 28.9372 10.4711 28.7867 10.2995C28.636 10.1302 28.4268 10.1006 28.4268 10.2995V12.9995L25.8224 12.9995ZM5.91753 0.015625H8.70136V6.94805C8.70136 8.14052 8.16197 10.6415 4.30138 10.6415C0.440357 10.6415 0.0214844 8.31045 0.0214844 7.00448V5.7261H2.71547V6.97562C2.71547 7.74266 3.25439 8.45262 4.27146 8.45262C5.28897 8.45262 5.91753 7.91304 5.91753 7.00448V0.015625ZM14.5232 5.89648C14.5232 5.18542 14.105 4.50367 13.1472 4.50367C12.2193 4.50367 11.8898 5.12812 11.8898 5.89648H14.5232ZM12.8787 2.91298C15.0649 2.91298 16.9796 3.70823 16.9796 7.37345H11.802C11.802 8.53836 12.3103 9.02148 13.2082 9.02148C14.1064 9.02148 14.4055 8.33909 14.4055 8.33909H16.9504C16.9504 9.39068 15.4237 10.8113 13.1184 10.783C10.4852 10.783 9.19791 8.9362 9.19791 7.0325C9.19791 5.12812 10.3345 2.91298 12.8787 2.91298ZM22.8003 5.89648C22.8003 5.18542 22.3817 4.50367 21.4238 4.50367C20.4964 4.50367 20.1662 5.12812 20.1662 5.89648H22.8003ZM21.1559 2.91298C23.3418 2.91298 25.2561 3.70823 25.2561 7.37345H20.0787C20.0787 8.53836 20.5874 9.02148 21.486 9.02148C22.3833 9.02148 22.6828 8.33909 22.6828 8.33909H25.2277C25.2277 9.39068 23.7008 10.8113 21.3962 10.783C18.7616 10.783 17.4743 8.9362 17.4743 7.0325C17.4743 5.12812 18.6123 2.91298 21.1559 2.91298Z" fill="#231F20"/>
</g>
<defs>
<clipPath id="clip0_502_6137">
<rect width="34" height="13" fill="white"/>
</clipPath>
</defs>
</svg>
