<svg width="31" height="16" viewBox="0 0 31 16" fill="none" xmlns="http://www.w3.org/2000/svg">
<path fill-rule="evenodd" clip-rule="evenodd" d="M10.2837 7.93604L12.4373 4.8471C12.5198 4.72574 12.4207 4.58831 12.2475 4.58831L10.5849 4.57617C10.4611 4.57617 10.2136 4.72984 10.1063 4.86317L9.35558 5.82143L8.31183 7.15967L8.32003 4.84694C8.32003 4.68933 8.15084 4.58815 8.04775 4.58815H6.14149C6.00946 4.58815 5.8898 4.63669 5.88578 4.87515C5.88176 5.10967 6.17864 5.15822 6.17864 5.22283V11.4048C6.17864 11.5221 6.34365 11.6999 6.45928 11.6999L8.09295 11.6918C8.20858 11.6877 8.30749 11.526 8.30749 11.4168L8.31151 8.84134L9.35526 10.1068L10.4609 11.4411C10.5516 11.5462 10.729 11.6918 10.9148 11.6918L12.6888 11.6797C12.858 11.6797 12.8415 11.4775 12.8003 11.425C11.9569 10.2652 11.118 9.10219 10.2837 7.93604ZM16.406 4.58846H14.5206C14.2979 4.58846 14.2484 4.71786 14.2112 4.85529C14.2524 5.10589 14.5206 5.17461 14.5206 5.1787V11.4171C14.5206 11.5829 14.6239 11.6921 14.7683 11.6921L15.4449 11.688L16.4515 11.68C16.6371 11.68 16.6865 11.5709 16.6865 11.4171V4.8471C16.6865 4.68949 16.5504 4.58846 16.406 4.58846Z" fill="black"/>
<path fill-rule="evenodd" clip-rule="evenodd" d="M22.1444 1.40317C20.1394 0.905918 17.8829 0.626953 15.4982 0.626953C15.4816 0.626953 15.4651 0.630894 15.4446 0.630894C13.2828 0.630894 11.2199 0.865413 9.35515 1.28181C4.11965 2.45441 0.456055 5.07431 0.456055 8.10258C0.456055 11.131 4.11965 13.7508 9.35499 14.9232C11.2198 15.3397 13.2825 15.5741 15.4445 15.5741H15.498C17.8827 15.5741 20.1393 15.2992 22.1443 14.802C27.1157 13.581 30.5442 11.0339 30.5442 8.10258C30.5445 5.1714 27.116 2.62415 22.1444 1.40317ZM22.1444 13.1726C20.1684 13.6215 17.9033 13.8762 15.4982 13.8762C15.4816 13.8762 15.4651 13.8723 15.4446 13.8723C13.2663 13.8723 11.1993 13.6579 9.35515 13.2819C4.73851 12.3399 1.55353 10.3709 1.55353 8.10274C1.55353 5.83461 4.73851 3.86562 9.35515 2.92361C11.1993 2.54755 13.2663 2.33321 15.4446 2.32927H15.4982C17.9033 2.32927 20.1684 2.58396 22.1444 3.03267C26.4886 4.0111 29.4469 5.9194 29.4469 8.10258C29.4469 10.2858 26.4886 12.1942 22.1444 13.1726Z" fill="black"/>
<path fill-rule="evenodd" clip-rule="evenodd" d="M23.4435 4.85667C23.3819 4.71908 23.2744 4.58984 23.134 4.58984H20.5845C20.4938 4.58984 20.3699 4.66266 20.3699 4.78386C20.3659 5.13958 20.7456 5.1276 20.7249 5.18008L18.5755 11.3942C18.5385 11.4993 18.6332 11.6933 18.7652 11.6933L20.2628 11.6812C20.3947 11.6812 20.5805 11.5721 20.6342 11.4144L21.3437 9.3283C21.583 8.63278 21.8225 7.93742 22.0575 7.24205C22.07 7.21384 22.1072 7.19761 22.1442 7.19761C22.2019 7.19761 22.2638 7.21778 22.276 7.25829L23.6665 11.4388C23.6955 11.5318 23.8893 11.6814 23.9922 11.6814L25.5517 11.6935C25.6424 11.6935 25.7499 11.5156 25.7211 11.4347L23.4435 4.85667Z" fill="black"/>
</svg>
