<svg width="34" height="18" viewBox="0 0 34 18" fill="none" xmlns="http://www.w3.org/2000/svg">
<g clip-path="url(#clip0_502_6157)">
<path fill-rule="evenodd" clip-rule="evenodd" d="M33.3441 8.89169C33.3441 13.6632 25.9767 17.5314 16.8915 17.5314C7.80379 17.5314 0.4375 13.6632 0.4375 8.89169C0.4375 4.12019 7.80379 0.251953 16.8915 0.251953C25.9767 0.251953 33.3441 4.12019 33.3441 8.89169Z" fill="#FFD124"/>
<path fill-rule="evenodd" clip-rule="evenodd" d="M32.6635 8.88548C32.6635 13.2677 25.599 16.8198 16.8855 16.8198C8.17169 16.8198 1.10742 13.2677 1.10742 8.88548C1.10742 4.50345 8.17169 0.951172 16.8855 0.951172C25.599 0.951172 32.6635 4.50345 32.6635 8.88548ZM16.8855 1.57578C8.5134 1.57578 1.72605 4.84848 1.72605 8.88548C1.72605 12.9223 8.5134 16.195 16.8855 16.195C25.2573 16.195 32.0443 12.9223 32.0443 8.88548C32.0444 4.84848 25.2573 1.57578 16.8855 1.57578Z" fill="black"/>
<path fill-rule="evenodd" clip-rule="evenodd" d="M31.6528 8.88504C31.6528 12.7051 25.0413 15.8017 16.886 15.8017C8.7303 15.8017 2.11914 12.7051 2.11914 8.88504C2.11914 5.06537 8.73049 1.96875 16.886 1.96875C25.0413 1.96856 31.6528 5.06537 31.6528 8.88504ZM26.3499 5.64685H23.8175L23.5089 6.53004H25.1484L23.2786 7.17847L23.1551 7.53662L26.032 6.59174L26.3499 5.64685ZM10.2024 7.19703H9.17087C9.17087 7.19703 10.1269 4.64477 10.2037 4.45182C10.3402 4.10979 10.4214 4.13342 10.4214 4.13342H8.99655C9.17293 4.2178 9.01659 4.5512 9.01659 4.5512C9.01659 4.5512 7.87538 7.73408 7.7958 7.89309C7.71622 8.05229 7.65668 8.07235 7.65668 8.07235H10.1245L10.4695 7.12972C10.4398 7.21935 10.2024 7.19703 10.2024 7.19703ZM14.5309 8.06841H15.6933C15.6933 8.06841 15.6137 7.95028 15.6633 7.82108C15.732 7.64163 16.3486 5.96112 16.3486 5.96112L16.6167 8.06841H17.6696L19.0497 4.31981C19.0497 4.31981 19.1061 4.14392 19.1832 4.14392L18.0645 4.14054C18.0645 4.14054 18.0967 4.26993 18.0564 4.3695C18.0173 4.46888 17.3814 6.16983 17.3814 6.16983L17.1331 4.14054H15.9314C15.9314 4.14054 15.9936 4.23993 15.9539 4.34944L14.68 7.85071C14.68 7.85071 14.6006 8.06841 14.5309 8.06841ZM19.8447 4.14167C19.8447 4.14167 19.9438 4.30087 19.8147 4.66877C19.6854 5.03705 18.6726 7.77214 18.6726 7.77214C18.6726 7.77214 18.5928 8.02941 18.4835 8.07948L20.0728 8.07779C20.0728 8.07779 21.9992 8.14905 22.5954 6.12108C22.5954 6.12108 23.3502 4.12179 21.1651 4.14186H19.8447V4.14167ZM20.0134 7.17191C20.0134 7.17191 20.0185 7.17041 20.1969 7.17041C20.4671 7.17041 20.9678 7.11078 21.3046 6.29021C21.8575 4.9418 21.0859 4.98736 21.0859 4.98736H20.7878L20.0134 7.17191ZM5.88074 11.2442H8.41312L8.72131 10.3608H7.08224L8.95199 9.71254L9.07575 9.35476L6.19848 10.2997L5.88074 11.2442ZM10.319 12.8731C10.2789 12.8731 10.2789 12.7448 10.2789 12.7448L10.7446 11.5069C10.7446 11.5069 11.325 12.6473 11.3647 12.7268C11.4044 12.8067 11.3844 12.8729 11.3844 12.8729H12.7726C12.64 12.8729 12.5035 12.6209 12.5035 12.6209L11.8126 11.3786C12.7793 11.3786 13.0882 10.4195 13.0882 10.4195C13.565 8.89423 11.9607 8.93398 11.9607 8.93398H10.3188C10.4379 9.06656 10.345 9.3452 10.345 9.3452C10.345 9.3452 9.32553 12.2644 9.24614 12.49C9.16656 12.7156 9.02089 12.8727 9.02089 12.8727L10.319 12.8731ZM11.3029 9.84005L11.0339 10.6319H11.2855C11.2855 10.6319 11.7757 10.6754 11.9564 10.285C11.9564 10.285 12.168 9.8378 11.5767 9.8378C11.4471 9.8378 11.3029 9.84005 11.3029 9.84005ZM24.6829 12.8877C24.5839 12.89 24.653 12.6464 24.653 12.6464L25.0688 11.5213C25.0688 11.5213 25.6287 12.6621 25.6682 12.742C25.708 12.8215 25.6882 12.8877 25.6882 12.8877H27.1258C26.993 12.8877 26.8476 12.6353 26.8476 12.6353L26.1565 11.3934C27.1234 11.3934 27.4145 10.4682 27.4145 10.4682C27.9221 8.87135 26.305 8.94861 26.305 8.94861H24.6762C24.7954 9.08118 24.7029 9.35983 24.7029 9.35983C24.7029 9.35983 23.6406 12.2905 23.5612 12.5157C23.5112 12.6542 23.432 12.7802 23.329 12.8853L24.6829 12.8877ZM25.6298 10.6464C25.6298 10.6464 26.1162 10.6829 26.2651 10.3013C26.4409 9.85205 26.0026 9.86368 26.0026 9.86368H25.6431L25.3779 10.6464H25.6298ZM14.8052 12.971C16.2381 12.971 17.091 11.5631 17.091 10.5534C17.091 9.4939 16.6561 8.83272 15.6633 8.83272C14.3965 8.83272 13.57 9.79561 13.3567 10.9925C13.1607 12.093 13.7814 12.971 14.8052 12.971ZM14.8955 12.04C15.2529 12.1064 15.6459 11.8485 15.8511 11.0255C16.1623 9.77986 15.5888 9.76974 15.4841 9.7568C15.167 9.71798 14.7436 10.0838 14.5715 10.8464C14.4927 11.1947 14.4092 11.9496 14.8955 12.04ZM17.4312 8.94898C17.4312 8.94898 17.5295 9.00205 17.5295 9.25369V12.6623C17.5295 12.6623 17.516 12.8487 17.4458 12.8879H18.5105C18.5105 12.8879 18.5105 12.808 18.6161 12.6755C18.722 12.5429 20.9335 9.57228 20.9335 9.57228C20.9335 9.57228 21.4377 8.94898 21.5701 8.94898H20.0462C20.0462 8.94898 20.1658 9.02849 20.0729 9.17419C19.9805 9.32026 18.6256 11.3494 18.6256 11.3494L18.6428 9.30282C18.6428 9.30282 18.6402 8.97467 18.7718 8.9473L17.4312 8.94898ZM23.8682 9.87812L24.2128 8.94786L21.6306 8.94823C21.6306 8.94823 21.7234 9.03036 21.6042 9.3617C21.4849 9.6936 20.4386 12.5176 20.4386 12.5176C20.4386 12.5176 20.2536 12.8887 20.2008 12.8887H22.862L23.1798 11.9473C23.1798 11.9473 23.1403 12 22.8886 12H21.763L22.0013 11.3634H22.875C22.875 11.3634 23.0603 11.3503 23.1002 11.4034L23.4574 10.3973C23.4574 10.3973 23.4314 10.4881 23.1927 10.4881H22.3454L22.5971 9.78567H23.6698C23.67 9.78567 23.8158 9.76561 23.8682 9.87812ZM10.4074 8.07179H11.6813C11.6813 8.07179 11.6774 7.97391 11.7106 7.91034C11.771 7.79539 11.9291 7.51806 11.9291 7.51806H13.2113L13.2137 7.86384C13.2137 7.86384 13.2203 7.9831 13.1259 8.07498H14.3972C14.3972 8.07498 14.3029 8.02191 14.2854 7.86534L14.1257 4.40438C14.1257 4.40438 14.1188 4.18311 14.224 4.13642H12.9628C12.9628 4.13642 13.0512 4.24574 12.8823 4.49457C12.7136 4.74322 10.559 7.94259 10.559 7.94259C10.559 7.94259 10.5164 8.02454 10.4074 8.07179ZM13.1865 5.47621L12.4786 6.62961H13.1965L13.1865 5.47621Z" fill="black"/>
</g>
<defs>
<clipPath id="clip0_502_6157">
<rect width="33.7091" height="18" fill="white"/>
</clipPath>
</defs>
</svg>
