<svg width="28" height="20" viewBox="0 0 28 20" fill="none" xmlns="http://www.w3.org/2000/svg">
<path fill-rule="evenodd" clip-rule="evenodd" d="M14.6586 1.62807C13.245 3.37691 9.21324 9.02301 8.75378 9.75407C7.86918 11.1548 7.79103 11.8336 7.76498 12.2859C7.73932 12.7298 7.73932 13.5302 8.45891 14.1828C9.66442 15.2616 11.3551 15.0873 12.8554 15.0873H25.2125C25.7415 15.0873 25.8978 14.9305 26.184 14.5479C27.1724 13.0339 27.6149 11.3896 27.6149 9.91921C27.6149 6.76964 25.5773 2.80268 20.4173 1.01027L19.8359 1.84549C23.9289 3.79392 25.6203 6.34313 25.6203 9.91011C25.6463 10.8673 25.3945 11.9025 24.77 12.8597H12.7508C12.0312 12.8597 11.927 12.0419 12.1872 11.5805C13.2176 9.7407 14.3676 7.97087 15.6296 6.28253C16.8438 4.65567 18.0402 3.13296 19.2979 1.54094C19.6361 1.0974 19.4104 0.670881 18.7342 0.531877C17.3293 0.236047 15.8641 0.0273438 14.0862 0.0273438C4.22699 0.0273438 0.619141 5.7083 0.619141 9.91921C0.619141 14.4869 4.25265 19.7853 14.1123 19.7853C19.584 19.7853 23.1658 18.0187 25.2382 15.7483H23.1481C21.3355 17.4274 18.2222 18.6198 14.1123 18.6198C5.76131 18.6198 2.68319 13.9127 2.68319 9.85823C2.74359 6.23897 6.0475 1.24512 14.3207 1.07997C14.6329 1.07126 14.8761 1.35838 14.6586 1.62807Z" fill="black"/>
</svg>
