<svg width="10" height="28" viewBox="0 0 10 28" fill="none" xmlns="http://www.w3.org/2000/svg">
<path fill-rule="evenodd" clip-rule="evenodd" d="M8.85056 13.3749C8.81461 8.25394 8.34314 2.49171 7.55056 0.691715L5.02165 0.0839844L2.49274 0.691715C1.69934 2.49171 1.2287 8.25234 1.19274 13.3725L0.09375 13.4548V14.5431L1.19274 14.6263C1.2287 19.7464 1.70016 25.507 2.49274 27.307L5.02165 27.9156L7.55056 27.307C8.34314 25.507 8.81461 19.7448 8.85056 14.6247L9.9234 14.5431V13.4548L8.85056 13.3749ZM3.27143 25.8517C2.55402 22.8474 2.41348 17.8856 2.35547 14.6751L4.14899 14.8102L4.46357 25.8517H3.27143ZM4.14899 13.1885L2.35547 13.3229C2.41348 10.1123 2.55402 5.15132 3.27143 2.14627H4.46276L4.14899 13.1885ZM6.77105 25.8517H5.55358L5.86816 14.8102L7.68783 14.6735C7.62982 17.884 7.48846 22.8466 6.77105 25.8517ZM5.86816 13.1885L5.55358 2.14706H6.77105C7.48846 5.15212 7.62982 10.1147 7.68783 13.3253L5.86816 13.1885Z" fill="black"/>
</svg>
