<svg width="27" height="21" viewBox="0 0 27 21" fill="none" xmlns="http://www.w3.org/2000/svg">
<path fill-rule="evenodd" clip-rule="evenodd" d="M2.4414 3.55407C3.23134 4.50713 4.61658 5.23897 4.6754 5.26975C4.69015 5.27743 4.70634 5.28205 4.72298 5.28331C4.73961 5.28458 4.75633 5.28247 4.7721 5.27712C4.78788 5.27177 4.80238 5.26328 4.8147 5.25219C4.82702 5.2411 4.83691 5.22763 4.84375 5.21262C4.85857 5.18007 6.43305 1.92963 13.4149 1.92963C20.3982 1.92963 22.0147 5.1969 22.0299 5.22989C22.0369 5.24472 22.0469 5.258 22.0592 5.26893C22.0715 5.27985 22.086 5.2882 22.1017 5.29346C22.1174 5.29871 22.134 5.30078 22.1505 5.29952C22.167 5.29826 22.1831 5.29371 22.1978 5.28614C22.2692 5.24894 23.9638 4.36386 24.5595 3.51466C24.5618 3.51156 24.5627 3.50779 24.5643 3.50447C24.5718 3.49137 24.5767 3.47692 24.5786 3.46196L24.5804 3.45089C24.5809 3.43665 24.579 3.42244 24.5748 3.40881C24.5744 3.40793 24.5748 3.40726 24.5744 3.40638C24.5735 3.40394 24.5712 3.40239 24.5703 3.40018C24.5672 3.39287 24.5647 3.38556 24.5602 3.3787C24.4668 3.24163 22.1651 0.0195312 13.4149 0.0195312C4.66193 0.0195312 2.51907 3.27617 2.4322 3.41479C2.43242 3.41479 2.38124 3.48166 2.4414 3.55407Z" fill="black"/>
<path fill-rule="evenodd" clip-rule="evenodd" d="M13.4148 1.68812C6.92717 1.68812 5.02698 4.38919 4.68151 4.99747C4.3953 4.83715 3.59347 4.36394 2.96875 3.76319L3.7304 4.03998C3.75441 4.04873 3.78059 4.0498 3.80525 4.04304C3.82991 4.03629 3.85178 4.02205 3.86778 4.00234C6.56374 0.686126 13.3411 0.962699 13.4094 0.965799C13.4114 0.965799 13.4132 0.964913 13.415 0.964913C13.417 0.964913 13.4188 0.965799 13.4208 0.965799C13.4891 0.962699 20.2676 0.687455 22.9622 4.00234C22.9947 4.0422 23.0491 4.05748 23.0978 4.04065L24.0743 3.70517C23.4872 4.284 22.513 4.83892 22.1916 5.01452C21.8423 4.40956 19.9122 1.68812 13.4148 1.68812Z" fill="black"/>
<path fill-rule="evenodd" clip-rule="evenodd" d="M13.3677 11.9654C13.3677 11.9658 13.3682 11.966 13.3684 11.9665C13.3729 11.9771 13.3803 11.9866 13.3877 11.9957C13.3902 11.9988 13.3917 12.0028 13.3944 12.0055C13.3973 12.0081 13.4014 12.0097 13.4043 12.0121C13.4132 12.02 13.4233 12.0265 13.4342 12.0314L13.435 12.032C13.4404 12.0342 13.4458 12.0336 13.4514 12.0349C13.4611 12.0373 13.4705 12.0402 13.4806 12.0402C13.4907 12.0402 13.5001 12.0373 13.5098 12.0349C13.5152 12.0338 13.5208 12.0342 13.5262 12.032C13.5264 12.0318 13.5266 12.0314 13.5271 12.0314C13.5379 12.0265 13.5479 12.02 13.5567 12.0121C13.5599 12.0097 13.5641 12.0081 13.5666 12.0055C13.5695 12.0028 13.5709 11.9986 13.5733 11.9957C13.5813 11.987 13.5879 11.9772 13.5929 11.9665L13.5935 11.9654C13.968 11.0458 14.4757 10.2995 15.067 9.67729C14.8798 10.3022 14.8766 10.7422 14.8766 10.765C14.877 10.7919 14.8865 10.8179 14.9036 10.8389C14.9206 10.8598 14.9443 10.8746 14.9708 10.8808C14.9974 10.887 15.0253 10.8842 15.05 10.873C15.0748 10.8618 15.0951 10.8427 15.1076 10.8188C15.1453 10.7446 15.3233 10.5701 15.4378 10.4698C15.4611 10.4492 15.4756 10.4206 15.4782 10.3899C15.5348 9.72113 16.1205 8.82521 16.2226 8.67352C16.7328 8.30484 17.2745 7.99084 17.8276 7.71117C17.1459 8.2466 16.2922 9.01764 15.8042 9.83761C15.7895 9.86302 15.7847 9.89282 15.7906 9.92147C15.7966 9.95012 15.8128 9.97567 15.8364 9.99337C15.86 10.0111 15.8893 10.0197 15.9189 10.0177C15.9485 10.0157 15.9763 10.0032 15.9972 9.98243C16.0078 9.9718 17.0864 8.90404 19.7168 8.18504C20.3258 8.01852 21.8819 7.47556 23.7509 6.40005C23.7779 6.38448 23.7978 6.35927 23.8065 6.32963L24.5406 4.09823L24.5848 4.05859C24.5435 4.85266 24.3852 5.62237 24.1965 6.28667C23.9596 6.43836 22.3459 7.45674 20.9656 7.95585C20.6789 8.05949 20.3519 8.15847 20.005 8.26298C17.9715 8.87747 15.2028 9.71604 13.4802 13.335C11.758 9.71582 8.98951 8.87725 6.95575 8.26276C6.60916 8.15802 6.28188 8.05926 5.99544 7.95563C4.61536 7.45652 3.00137 6.43792 2.76433 6.28645C2.45949 5.61307 2.34949 4.86661 2.30078 4.22888C2.95962 6.81679 5.80464 7.73242 7.11985 8.15094C9.10243 8.78181 10.2419 9.41843 10.2531 9.42485C10.2755 9.43771 10.3015 9.44317 10.3273 9.44042C10.3531 9.43768 10.3773 9.42688 10.3964 9.4096C10.4156 9.39231 10.4286 9.36945 10.4336 9.34436C10.4386 9.31926 10.4354 9.29323 10.4244 9.27007C10.1373 8.6567 9.60211 8.10975 9.11702 7.70298C10.8533 8.57809 12.4808 9.78845 13.3677 11.9654Z" fill="black"/>
<path fill-rule="evenodd" clip-rule="evenodd" d="M13.3686 13.669C13.3711 13.6748 13.3755 13.6783 13.3789 13.6834C13.3836 13.6912 13.3879 13.6987 13.3944 13.7051C13.4009 13.7116 13.4088 13.7158 13.4164 13.7204C13.4213 13.7235 13.4254 13.7282 13.431 13.7306C13.4319 13.7308 13.4328 13.7306 13.4339 13.7311C13.4424 13.7346 13.4519 13.7355 13.4611 13.7368C13.4676 13.7379 13.4739 13.7404 13.4804 13.7404C13.4869 13.7404 13.4932 13.7379 13.4997 13.7368C13.5091 13.7355 13.5183 13.7346 13.5268 13.7311C13.5277 13.7306 13.5289 13.7308 13.5298 13.7306C13.5354 13.7282 13.5392 13.7235 13.5441 13.7204C13.5518 13.7158 13.5596 13.7116 13.5661 13.7051C13.5726 13.6987 13.5769 13.6912 13.5816 13.6837C13.5848 13.6786 13.5895 13.6748 13.5919 13.6693C15.2596 9.94739 18.0438 9.10638 20.0766 8.49212C20.4266 8.3865 20.757 8.28663 21.05 8.18078C22.2132 7.76006 23.5349 6.97994 24.0914 6.63672C23.8002 7.55944 23.4797 8.21621 23.4166 8.34265C22.7454 8.8772 21.7667 9.14823 20.6347 9.46112C19.3527 9.81542 17.8992 10.2171 16.5467 11.1135C14.818 12.2592 13.8038 14.2167 13.4802 14.9215C13.1562 14.2164 12.1423 12.2592 10.4136 11.1135C9.06088 10.2169 7.60784 9.81542 6.32586 9.46112C5.19382 9.14823 4.2151 8.8772 3.54414 8.34265C3.48084 8.21644 3.16051 7.55944 2.86914 6.63672C3.42584 6.97972 4.74734 7.76006 5.9108 8.18078C6.20374 8.28685 6.53417 8.3865 6.88391 8.49212C8.91677 9.10594 11.701 9.94717 13.3686 13.669Z" fill="black"/>
<path fill-rule="evenodd" clip-rule="evenodd" d="M2.51606 6.30273C2.83055 7.42674 3.23214 8.26177 3.32081 8.43958C3.24179 8.94445 2.60652 13.4921 4.76666 16.2631C4.27775 16.0707 3.35358 15.5875 2.59619 14.4989C2.57936 14.4701 0.51754 10.8796 2.51606 6.30273ZM23.673 8.40083C23.6716 8.39508 23.6685 8.3902 23.6669 8.38467C23.7659 8.18028 24.0151 7.64042 24.2589 6.90792C25.5036 10.5687 24.3491 13.739 24.337 13.7713L24.3329 13.7839C23.8743 15.1743 22.8839 15.8313 22.3618 16.0906C24.4407 13.206 23.7082 8.61208 23.673 8.40083Z" fill="black"/>
<path fill-rule="evenodd" clip-rule="evenodd" d="M26.7172 10.9883C26.7172 14.1298 25.1786 17.9068 21.8115 19.4161C18.7736 20.7784 14.1548 20.8083 13.5 20.8083C12.8452 20.8083 8.62121 20.8745 5.18829 19.4161C1.9574 18.0439 0.437016 14.4987 0.294922 11.4544C1.02627 13.6094 2.117 14.5324 2.31925 14.6894C3.18012 17.2113 5.38583 18.9679 8.7018 19.7697C10.074 20.1014 12.0068 20.2031 13.097 20.2294C13.0005 20.2339 13.166 20.2394 13.5 20.2363C13.8342 20.2394 13.9997 20.2336 13.9031 20.2294C14.993 20.2031 16.9257 20.1014 18.2979 19.7697C21.6301 18.9639 23.8414 17.1947 24.6933 14.653C24.7077 14.6114 26.1082 10.3758 24.5005 6.19511C24.496 6.18381 24.489 6.17496 24.4821 6.16588C24.6509 5.53479 24.788 4.82132 24.8275 4.08594C25.6031 5.26353 26.7172 7.55339 26.7172 10.9883Z" fill="black"/>
</svg>
