<svg width="23" height="23" viewBox="0 0 23 23" fill="none" xmlns="http://www.w3.org/2000/svg">
<path d="M22.7488 11.5004C22.7488 17.7176 17.7176 22.7488 11.5004 22.7488C5.2832 22.7488 0.251953 17.7176 0.251953 11.5004C0.251953 5.2832 5.2832 0.251953 11.5004 0.251953C17.7176 0.251953 22.7488 5.2832 22.7488 11.5004ZM11.5004 0.934766C5.64258 0.934766 0.934766 5.64258 0.934766 11.5004C0.934766 17.3582 5.67851 22.066 11.5004 22.066C17.3582 22.066 22.066 17.3223 22.066 11.5004C22.066 5.64258 17.3582 0.934766 11.5004 0.934766Z" fill="black"/>
<path d="M11.5002 0.933594C5.64238 0.933594 0.93457 5.64141 0.93457 11.4992C0.93457 17.357 5.67832 22.0648 11.5002 22.0648C17.358 22.0648 22.0658 17.3211 22.0658 11.4992C22.0658 5.64141 17.358 0.933594 11.5002 0.933594ZM11.5002 21.382C6.0377 21.382 1.61738 16.9617 1.61738 11.4992C1.61738 6.03672 6.0377 1.61641 11.5002 1.61641C16.9627 1.61641 21.383 6.03672 21.383 11.4992C21.383 16.9617 16.9627 21.382 11.5002 21.382Z" fill="black"/>
<path opacity="0.4" d="M11.5 22.7484C17.7172 22.7484 22.7484 17.7172 22.7484 11.5C22.7484 5.28281 17.7172 0.251563 11.5 0.251563C5.28281 0.251563 0.251563 5.28281 0.251563 11.5C0.251563 17.7172 5.28281 22.7484 11.5 22.7484ZM11.5 0C17.825 0 23 5.175 23 11.5C23 17.825 17.825 23 11.5 23C5.175 23 0 17.825 0 11.5C0 5.175 5.175 0 11.5 0Z" fill="black"/>
<path d="M0.791016 11.5363C0.791016 5.64258 5.5707 0.791016 11.5004 0.791016C17.4301 0.791016 22.2098 5.60664 22.2098 11.5363C22.2098 17.4301 17.4301 22.2098 11.5004 22.2098C5.5707 22.2098 0.791016 17.4301 0.791016 11.5363ZM4.1332 4.1332C2.22852 6.03789 1.04258 8.66133 1.04258 11.5363C1.04258 14.4113 2.22852 17.0348 4.09727 18.9035C6.00195 20.7723 8.62539 21.9582 11.5004 21.9582C14.3754 21.9582 16.9988 20.8082 18.8676 18.9035C20.7723 17.0348 21.9223 14.4113 21.9223 11.5363C21.9223 8.66133 20.7363 6.03789 18.8676 4.1332C16.9988 2.22852 14.3754 1.04258 11.5004 1.04258C8.62539 1.04258 6.00195 2.22852 4.1332 4.1332Z" fill="black"/>
<path opacity="0.4" d="M11.4998 21.4195C8.84043 21.4195 6.36074 20.3773 4.49199 18.5086C2.62324 16.6398 1.58105 14.1602 1.58105 11.5008C1.58105 8.84141 2.62324 6.36172 4.49199 4.49297C6.36074 2.62422 8.84043 1.58203 11.4998 1.58203C14.1592 1.58203 16.6389 2.62422 18.5076 4.49297C20.3764 6.36172 21.4186 8.84141 21.4186 11.5008C21.4186 14.1602 20.3764 16.6398 18.5076 18.5086C16.6389 20.3773 14.1592 21.4195 11.4998 21.4195ZM11.4998 21.132C14.0514 21.132 16.4951 20.1258 18.292 18.3289C20.1248 16.4961 21.0951 14.0883 21.0951 11.5367C21.0951 8.98516 20.0889 6.54141 18.292 4.74453C16.4592 2.91172 14.0514 1.94141 11.4998 1.94141C8.94824 1.94141 6.50449 2.94766 4.70762 4.74453C2.8748 6.50547 1.86855 8.94922 1.86855 11.5008C1.86855 14.0523 2.8748 16.4961 4.67168 18.293C6.50449 20.1258 8.94824 21.132 11.4998 21.132Z" fill="black"/>
<path d="M20.2325 16.1711C20.0528 16.0273 13.1169 10.5289 13.1169 10.5289L11.4997 1.29297C11.3919 1.32891 11.2481 1.43672 11.1762 1.58047L10.0262 10.5648L2.87461 16.0633C2.87461 16.0633 2.73086 16.243 2.65898 16.3508C2.62305 16.4227 2.62305 16.5305 2.62305 16.6383L11.4637 13.0086L20.3044 16.6383C20.3763 16.4586 20.3044 16.2789 20.2325 16.1711Z" fill="black"/>
<path d="M11.5719 11.7872L11.5 13.4403L19.6218 16.7105C19.9093 16.8543 20.1249 16.7824 20.3406 16.6387L11.6797 11.7512C11.6437 11.7153 11.5719 11.7512 11.5719 11.7872Z" fill="black"/>
<path d="M11.5723 11.7872C11.5723 11.7872 12.0394 12.6137 12.5785 13.1887C13.3332 14.0153 14.3394 14.5902 14.3394 14.5902L19.6222 16.7105C19.9097 16.8543 20.1253 16.7824 20.341 16.6387L11.6801 11.7512C11.6441 11.7153 11.5723 11.7512 11.5723 11.7872Z" fill="black"/>
<path d="M20.3044 16.3163C20.3044 16.2804 20.2685 16.2445 20.2326 16.1726L12.8295 10.7461L11.8232 11.393C11.8232 11.393 11.8951 11.4289 11.9311 11.393C12.0389 11.357 12.2545 11.3211 12.4701 11.393C12.6498 11.4648 20.3044 16.3523 20.3044 16.3163C20.3044 16.3523 20.3044 16.3523 20.3044 16.3163Z" fill="black"/>
<path d="M20.0535 15.9918L13.1535 10.5293L12.8301 10.7449L20.2331 16.2074C20.1972 16.1355 20.1253 16.0637 20.0535 15.9918Z" fill="black"/>
<path d="M11.6795 11.2488L11.6436 11.2848C11.6436 11.2848 11.6435 11.3566 11.7154 11.3207C11.7514 11.2848 12.7935 10.7457 13.1529 10.5301L11.8951 1.90508C11.8592 1.58164 11.7154 1.43789 11.4639 1.33008L11.6076 11.3207L11.6795 11.2488Z" fill="black"/>
<path d="M11.0686 1.90508V2.37227L10.2779 10.3145C10.2779 10.4223 10.3139 10.5301 10.4217 10.602L10.8889 10.9613L11.2123 2.19258L11.2482 1.50977C11.1404 1.58164 11.1045 1.72539 11.0686 1.90508ZM10.6373 11.1051L10.2061 10.7457L2.91074 16.0285C2.91074 16.0285 2.69512 16.1723 2.65918 16.316L2.91074 16.1723L10.5654 11.3566C10.7092 11.2848 10.7451 11.2129 10.6373 11.1051Z" fill="black"/>
<path d="M11.3919 11.7872C11.3919 11.7512 11.3559 11.7153 11.32 11.7512L2.62305 16.6747C2.83867 16.8184 3.0543 16.8543 3.3418 16.7465L11.4637 13.4762L11.3919 11.7872Z" fill="black"/>
<path d="M11.6436 11.2852L11.6795 11.2492L11.6436 11.2852C11.6436 11.2852 11.6436 11.3211 11.6795 11.3211H11.7154C11.7514 11.2852 12.7935 10.7461 13.1528 10.5305L13.0091 9.48828L11.8951 1.90547C11.8951 1.76172 11.8592 1.65391 11.7873 1.58203C11.7873 1.58203 12.3263 8.84141 12.3263 9.63203C12.3263 10.6742 11.6436 11.2852 11.6436 11.2852Z" fill="black"/>
<path d="M11.3919 11.7872C11.3919 11.7512 11.3559 11.7153 11.32 11.7512L2.62305 16.6747C2.83867 16.8184 3.0543 16.8543 3.3418 16.7465L11.4637 13.4762L11.3919 11.7872Z" fill="black" fill-opacity="0.8"/>
<path opacity="0.8" d="M3.34258 16.7109L11.4645 13.4406L11.3926 11.8594C11.2488 12.2906 10.9973 12.7578 10.3145 13.1172C9.81133 13.4047 4.9957 15.7766 3.2707 16.6031C3.16289 16.675 3.01914 16.7109 2.94727 16.7469C3.09102 16.8187 3.19883 16.7828 3.34258 16.7109Z" fill="black"/>
<path d="M11.6795 11.2488L11.6436 11.2848C11.6436 11.2848 11.6435 11.3566 11.7154 11.3207C11.7514 11.2848 12.7935 10.7457 13.1529 10.5301L11.8951 1.90508C11.8592 1.58164 11.7154 1.43789 11.4639 1.33008L11.6076 11.3207L11.6795 11.2488Z" fill="black"/>
<path d="M11.6795 11.2488L11.6436 11.2848C11.6436 11.2848 11.6435 11.3566 11.7154 11.3207C11.7514 11.2848 12.7935 10.7457 13.1529 10.5301L11.8951 1.90508C11.8592 1.58164 11.7154 1.43789 11.4639 1.33008L11.6076 11.3207L11.6795 11.2488Z" fill="black"/>
<path d="M1.8332 15.9563C1.58164 15.3813 0.144141 12.5781 1.72539 7.1875H1.11445C0.791016 8.26563 0.539453 8.9125 0.395703 9.88281C0.395703 9.88281 0.323828 10.2422 0.287891 10.6375C0.251953 11.0328 0.251953 11.2484 0.251953 11.5C0.251953 13.6563 0.791016 14.9141 0.791016 14.9141C1.36602 16.7109 2.37227 18.3281 3.73789 19.55C4.92383 20.5922 6.75664 21.3828 8.26602 21.6703C8.01445 21.6344 3.70195 19.8016 1.8332 15.9563Z" fill="black"/>
<path d="M11.6438 11.7161H11.3203C11.3563 11.7161 11.3922 11.7161 11.3922 11.752L11.4641 13.4051H11.5L11.5719 11.752C11.5719 11.7161 11.6079 11.6801 11.6438 11.7161Z" fill="black"/>
<path d="M15.0938 0.826172C18.8672 2.26367 22.425 6.2168 22.425 11.2121C22.425 17.2496 17.6094 22.173 11.5 22.173V22.748C17.6094 22.748 22.7484 17.7168 22.7484 11.4996C22.7484 6.54023 19.5859 2.37148 15.0938 0.826172Z" fill="black"/>
<path d="M21.1312 7.25859C18.6156 1.47266 12.9375 1.14922 12.6141 1.11328H12.5781C16.9266 1.90391 19.6937 4.74297 20.6641 7.72578V7.76172C21.0953 8.91172 21.3109 10.1336 21.3469 11.4633C21.3828 12.7211 21.0953 14.1227 20.5562 15.4164C20.5203 15.5961 20.4844 15.8117 20.4484 15.8117H21.0234C22.7484 12.5773 21.9937 9.30703 21.1312 7.25859Z" fill="black"/>
<path d="M0.791016 11.5363C0.791016 5.64258 5.5707 0.791016 11.5004 0.791016C17.4301 0.791016 22.2098 5.60664 22.2098 11.5363C22.2098 17.4301 17.4301 22.2098 11.5004 22.2098C5.5707 22.2098 0.791016 17.4301 0.791016 11.5363ZM4.1332 4.1332C2.22852 6.03789 1.04258 8.66133 1.04258 11.5363C1.04258 14.4113 2.22852 17.0348 4.09727 18.9035C6.00195 20.7723 8.62539 21.9582 11.5004 21.9582C14.3754 21.9582 16.9988 20.8082 18.8676 18.9035C20.7723 17.0348 21.9223 14.4113 21.9223 11.5363C21.9223 8.66133 20.7363 6.03789 18.8676 4.1332C16.9988 2.22852 14.3754 1.04258 11.5004 1.04258C8.62539 1.04258 6.00195 2.22852 4.1332 4.1332Z" fill="black"/>
<path d="M2.83887 16.1008L10.1701 10.818C10.5654 11.0336 11.2123 11.3211 11.2842 11.3211C11.3561 11.357 11.3561 11.2852 11.3561 11.2852L10.4576 10.5305C10.3498 10.4586 10.3139 10.3508 10.3139 10.243L11.1764 1.58203C11.1404 1.61797 11.1404 1.68984 11.1045 1.72578C11.0686 1.79766 11.0686 1.83359 11.0686 1.90547L9.81074 10.5664L2.91074 15.993C2.8748 16.0289 2.83887 16.0648 2.83887 16.1008Z" fill="black"/>
</svg>
