<svg width="33" height="33" viewBox="0 0 33 33" fill="none" xmlns="http://www.w3.org/2000/svg">
<path d="M12.4208 18.0988H11.8083V14.9658H12.7194L13.5191 17.4712L14.3137 14.9658H15.2247V18.0988H14.5921V15.7756L13.8582 18.0988H13.1749L12.4208 15.7604V18.0988ZM16.5812 18.0988H15.9333V14.9658H16.5812V18.0988ZM17.9174 18.0988H17.2948V14.9658H18.0591L19.3092 17.2383V14.9658H19.9318V18.0988H19.1675L17.9174 15.8363V18.0988ZM21.2933 18.0988H20.6454V14.9658H21.2933V18.0988ZM25.8941 19.2528H22.9231C23.08 18.8833 23.2065 18.4986 23.3027 18.0988H27.0531L28.0451 17.1067H23.4596C23.4747 16.9144 23.4849 16.7221 23.4849 16.5298C23.4849 16.3374 23.4747 16.1451 23.4596 15.9528H29.1991L30.1911 14.9607H23.3027C23.2115 14.5609 23.085 14.1762 22.9231 13.8067H31.3401L32.3321 12.8147H22.3967C21.1668 10.8813 19.0056 9.5957 16.5458 9.5957C14.091 9.5957 11.9298 10.8813 10.6999 12.8147H0.769531L1.75649 13.8067H10.1786C10.0217 14.1762 9.89514 14.5609 9.79898 14.9607H2.91048L3.89744 15.9528H9.64207C9.62689 16.1451 9.61677 16.3374 9.61677 16.5298C9.61677 16.7221 9.62689 16.9144 9.64207 17.1067H5.05649L6.04346 18.0988H9.79391C9.88502 18.4986 10.0116 18.8833 10.1735 19.2528H7.19744L8.18441 20.2448H10.6948C11.9247 22.1782 14.0859 23.4638 16.5407 23.4638C18.9954 23.4638 21.1566 22.1782 22.3916 20.2448H24.902L25.8941 19.2528ZM16.5508 22.4718C13.2761 22.4718 10.6088 19.8044 10.6088 16.5298C10.6088 13.2551 13.2761 10.5877 16.5508 10.5877C19.8255 10.5877 22.4928 13.2551 22.4928 16.5298C22.4928 19.8044 19.8255 22.4718 16.5508 22.4718Z" fill="black"/>
</svg>
