<svg width="29" height="25" viewBox="0 0 29 25" fill="none" xmlns="http://www.w3.org/2000/svg">
<path d="M28.0023 9.47386C27.7343 9.39854 27.4359 9.36293 26.8073 9.28484C24.2057 9.17741 17.7764 8.92578 14.5001 8.92578C11.224 8.92578 4.79457 9.17727 2.19327 9.28484C1.5644 9.36293 1.2657 9.39854 0.99789 9.47386C0.179945 9.66798 0 9.96355 0 10.5532V14.5947C0 15.1845 0.627705 15.582 1.06038 15.6621C1.49335 15.7428 1.76726 15.7751 2.2227 15.8187C4.54952 15.9638 9.94787 16.2662 14.5 16.271C19.0523 16.2667 24.4503 15.9639 26.7773 15.8187C27.2326 15.7751 27.5066 15.7427 27.9398 15.6621C28.3723 15.5818 29 15.1845 29 14.5947V10.5532C29 9.96355 28.8202 9.66798 28.0023 9.47386Z" fill="url(#paint0_linear_519_6326)"/>
<path d="M4.06763 9.63295C5.34769 5.15053 9.5537 1.86162 14.5465 1.86162C19.5249 1.86162 23.7224 5.13243 25.0149 9.5969C25.0189 9.61267 25.0217 9.62084 25.0262 9.63602C25.7683 9.55209 26.4331 9.42248 26.9029 9.29622C26.8944 9.26747 26.8922 9.26163 26.8848 9.23332C25.4158 3.91528 20.4484 0.00195312 14.5465 0.00195312C8.62468 0.00195312 3.64423 3.94067 2.19336 9.28499C2.846 9.46495 3.32407 9.54041 4.06763 9.63295Z" fill="url(#paint1_radial_519_6326)"/>
<path d="M24.9839 15.5078C24.971 15.5477 24.9566 15.5916 24.9499 15.6133C23.5888 19.9705 19.4462 23.1396 14.5462 23.1396C9.6075 23.1396 5.43875 19.9216 4.1107 15.512C3.29899 15.6567 3.0248 15.7117 2.22266 15.8191C3.7089 21.1112 8.66268 24.9993 14.5462 24.9993C20.4322 24.9993 25.3877 21.1071 26.8712 15.8107C26.1645 15.7228 25.7482 15.6564 24.9839 15.5078Z" fill="url(#paint2_radial_519_6326)"/>
<path d="M4.32892 9.62281C4.63705 9.49465 4.93517 9.29031 5.39989 9.1588C6.78537 5.53534 10.3573 2.95506 14.5463 2.95506C18.7223 2.95506 22.2854 5.51943 23.6796 9.12537C23.6845 9.13763 23.6896 9.15252 23.6935 9.16172C23.9334 9.24535 24.6399 9.53377 24.8598 9.63025C24.8909 9.63098 24.9575 9.63331 25.0262 9.63521C25.0222 9.62225 25.0184 9.60921 25.0149 9.5961C23.7218 5.13308 19.5245 1.86328 14.5463 1.86328C9.55487 1.86328 5.34885 5.15074 4.06836 9.63229C4.14231 9.63244 4.2831 9.62602 4.32892 9.62281Z" fill="url(#paint3_radial_519_6326)"/>
<path d="M14.4663 2.16615C19.1372 2.16615 23.2777 4.96974 24.846 9.59098L24.8588 9.63024C24.8831 9.63024 24.972 9.63345 25.0252 9.63521C25.021 9.61842 25.0167 9.60864 25.0139 9.59609C23.7208 5.13307 19.5235 1.86328 14.5454 1.86328C9.55389 1.86328 5.34788 5.15074 4.06738 9.63229C4.16714 9.63068 4.21514 9.63068 4.32824 9.62265C5.73039 5.23539 9.82982 2.16615 14.4663 2.16615Z" fill="white"/>
<path d="M24.7194 15.5204C24.3839 15.7091 23.9662 15.8907 23.6322 15.9968C23.6277 16.0076 23.6087 16.0555 23.6047 16.0667C22.1602 19.573 18.6487 22.048 14.5464 22.048C10.4183 22.048 6.88883 19.5429 5.46117 16.0019C5.07706 15.8946 4.50287 15.631 4.28551 15.5209C4.20417 15.517 4.16038 15.5147 4.11035 15.512C5.4384 19.9211 9.60787 23.1396 14.5466 23.1396C19.4629 23.1396 23.6163 19.9506 24.9638 15.5726C24.9667 15.5642 24.9816 15.516 24.9848 15.5078C24.9069 15.5109 24.7879 15.5204 24.7194 15.5204Z" fill="url(#paint4_radial_519_6326)"/>
<path d="M27.7698 9.76585C27.0808 9.68148 26.611 9.69053 24.9325 9.63229C24.8562 9.62952 24.7786 9.62719 24.6999 9.62441C21.6563 9.51932 17.0845 9.37891 14.5 9.37891C11.9157 9.37891 7.34396 9.51932 4.29997 9.62441C4.22138 9.62719 4.1441 9.62952 4.06798 9.63229C2.38916 9.69053 1.91951 9.68148 1.23032 9.76585C0.541285 9.85094 0 10.1547 0 10.6712V14.4191C0 14.9359 0.652065 15.3544 1.23018 15.3544C1.23018 15.3544 8.58835 15.8117 14.5 15.8171C20.4118 15.8117 27.7698 15.3544 27.7698 15.3544C28.3479 15.3544 29 14.9359 29 14.4191V10.6712C29 10.1547 28.4589 9.85094 27.7698 9.76585Z" fill="url(#paint5_radial_519_6326)"/>
<path d="M24.7196 15.5209C23.2755 19.833 19.2144 22.8369 14.627 22.8369C9.99296 22.8369 5.88105 20.0774 4.28518 15.5209C4.2266 15.5179 4.1686 15.5155 4.11133 15.5122C5.43909 19.9213 9.60928 23.1399 14.5481 23.1399C19.4886 23.1399 23.6592 19.9193 24.9858 15.5078C24.8985 15.5119 24.8099 15.5167 24.7196 15.5209Z" fill="white"/>
<path d="M24.7279 15.5195L24.7191 15.5198C24.3835 15.7085 23.9661 15.8901 23.6318 15.9962C23.6273 16.007 23.6083 16.0549 23.6044 16.0662C23.1474 17.1757 22.4833 18.182 21.6582 19.0395C22.9496 18.0892 24.0029 16.8885 24.7279 15.5195Z" fill="#8C8C8C"/>
<path d="M7.71265 19.3181C6.74144 18.3869 5.96831 17.2597 5.46081 16.0008C5.07671 15.8933 4.50266 15.6296 4.28516 15.5195C4.51758 16.0045 4.7916 16.4682 5.10411 16.9053C5.74341 17.7434 6.51829 18.4904 7.40032 19.1226C7.50298 19.1903 7.60709 19.2554 7.71265 19.3181Z" fill="#4D4D4D"/>
<path d="M4.11056 15.512V15.5117L4.10723 15.5123C3.29813 15.6567 3.02364 15.712 2.22266 15.8188C2.28718 16.0495 2.35867 16.2767 2.43653 16.5017L4.11056 15.512Z" fill="#252525"/>
<path d="M20.3925 11.4251C20.1507 10.881 20.2365 10.9381 19.71 10.9241C19.6673 10.9095 19.5531 10.9095 19.3968 10.9095C19.2408 10.9095 19.2121 10.9095 19.0839 10.9241C18.5863 10.9241 18.6715 10.8955 18.501 11.2533C18.501 11.2533 17.6468 13.1861 17.2774 13.9879L17.2632 14.0165C17.1921 14.1594 17.2349 14.1594 17.3484 14.1594H18.1168C18.1739 14.1594 18.202 14.1314 18.2163 14.1022C18.2163 14.1022 18.3301 13.8587 18.4723 13.5153H20.3499C20.4923 13.8447 20.5918 14.0879 20.5918 14.1022C20.606 14.1452 20.6488 14.1594 20.6912 14.1594H21.4879C21.6017 14.1594 21.6303 14.1744 21.5876 14.0736C21.4451 13.7301 20.5206 11.7254 20.3925 11.4251ZM18.7565 12.8281C18.9984 12.2555 19.2405 11.6972 19.2405 11.6828C19.2549 11.654 19.2833 11.6397 19.3258 11.6397C19.3401 11.6251 19.3831 11.6251 19.4255 11.6251C19.4541 11.6251 19.4965 11.6251 19.5108 11.6397C19.5391 11.6397 19.5681 11.654 19.5817 11.6971C19.6391 11.8543 19.852 12.3413 20.0511 12.8281H18.7565ZM8.51491 10.8809C8.58596 10.8809 8.60032 10.9093 8.60032 10.9667V14.0311C8.60032 14.1023 8.58596 14.1315 8.50085 14.1315H7.76106C7.67595 14.1315 7.66174 14.1169 7.66174 14.0311V10.9667C7.66174 10.9093 7.67595 10.8809 7.73264 10.8809H8.51491ZM6.93601 10.9093C7.02113 10.9093 7.03577 10.9378 7.03577 11.0097V14.0597C7.03577 14.1458 7.02113 14.1601 6.93601 14.1601H6.06819C5.55634 14.1601 5.51357 14.1601 5.34305 13.874C4.98736 13.3157 3.92031 11.669 3.92031 11.669V14.06C3.92031 14.1463 3.9061 14.1603 3.82099 14.1603H3.18067C3.09541 14.1603 3.08105 14.1463 3.08105 14.06V11.0097C3.08105 10.9381 3.09541 10.9093 3.18067 10.9093H3.92031C4.47508 10.9093 4.54613 10.8952 4.74565 11.1815C4.90196 11.4394 6.19637 13.4439 6.19637 13.4439V11.0097C6.19637 10.9381 6.21058 10.9093 6.29613 10.9093H6.93601ZM25.9257 10.9093C26.0116 10.9093 26.0255 10.9378 26.0255 11.0097V14.0597C26.0255 14.1458 26.0113 14.1601 25.9257 14.1601H25.0588C24.5462 14.1601 24.5034 14.1601 24.3329 13.874C23.9769 13.3153 22.9102 11.6687 22.9102 11.6687V14.0598C22.9102 14.146 22.896 14.16 22.8104 14.16H22.1707C22.0854 14.16 22.0708 14.146 22.0708 14.0598V11.0097C22.0708 10.9381 22.0856 10.9093 22.1707 10.9093H22.9102C23.4649 10.9093 23.5363 10.8952 23.7351 11.1815C23.9059 11.4394 25.1862 13.4439 25.1862 13.4439V11.0097C25.1862 10.9381 25.2006 10.9093 25.286 10.9093H25.9257ZM11.7725 12.1555C12.3416 12.2126 12.7543 12.3127 12.8679 12.857C12.8679 12.8996 12.8823 13.043 12.8823 13.2006C12.8823 13.301 12.8823 13.4295 12.8537 13.5442C12.7544 14.0596 12.37 14.1597 11.7729 14.1597H9.38273C9.29733 14.1597 9.28297 14.1457 9.28297 14.0596V13.5442C9.28297 13.4581 9.29733 13.4438 9.38273 13.4438H11.8006C11.9004 13.4438 11.9288 13.4153 11.9428 13.3433V13.2145V13.1286C11.9285 13.0711 11.9144 12.9853 11.7865 12.9713C11.5161 12.957 10.7198 12.8852 10.1789 12.8281C9.48191 12.7564 9.31139 12.456 9.28283 12.1981C9.26862 12.112 9.26862 11.9976 9.26862 11.8973C9.26862 11.8113 9.26862 11.6826 9.28283 11.5822C9.38259 11.1237 9.72406 10.9093 10.3212 10.9093H12.6397C12.7254 10.9093 12.754 10.9239 12.754 10.9953V11.5253C12.754 11.5964 12.7254 11.6253 12.6397 11.6109H10.3639C10.2643 11.6109 10.2218 11.6539 10.2073 11.754V11.8829C10.2073 11.9545 10.2501 12.0119 10.3496 12.0258C10.6205 12.055 11.4594 12.1265 11.7725 12.1555ZM15.8831 12.1555C16.4526 12.2126 16.8649 12.3127 16.9788 12.857C16.9788 12.8996 16.993 13.043 16.993 13.2006C16.993 13.301 16.993 13.4295 16.9646 13.5442C16.8653 14.0596 16.4813 14.1597 15.8836 14.1597H13.4936C13.4082 14.1597 13.3939 14.1457 13.3939 14.0596V13.5442C13.3939 13.4581 13.4082 13.4438 13.4936 13.4438H15.9119C16.0114 13.4438 16.0394 13.4153 16.054 13.3433V13.2145V13.1286C16.0392 13.0711 16.0111 12.9853 15.8974 12.9713C15.6273 12.957 14.8307 12.8852 14.2902 12.8281C13.5929 12.7564 13.4368 12.456 13.3939 12.1981C13.3796 12.112 13.3796 11.9976 13.3796 11.8973C13.3796 11.8113 13.3796 11.6826 13.3939 11.5822C13.4936 11.1237 13.8349 10.9093 14.4322 10.9093H16.7512C16.8361 10.9093 16.865 10.9239 16.865 10.9953V11.5253C16.865 11.5964 16.8361 11.6253 16.7512 11.6109H14.475C14.3755 11.6109 14.333 11.6539 14.3185 11.754V11.8829C14.3185 11.9545 14.3471 12.0119 14.4611 12.0258C14.7313 12.055 15.5703 12.1265 15.8831 12.1555Z" fill="url(#paint6_radial_519_6326)"/>
<defs>
<linearGradient id="paint0_linear_519_6326" x1="14.5" y1="0.370817" x2="14.5" y2="20.7177" gradientUnits="userSpaceOnUse">
<stop offset="0.194" stop-color="white"/>
<stop offset="0.208" stop-color="#F8F8F8"/>
<stop offset="0.366" stop-color="#AEAEAE"/>
<stop offset="0.513" stop-color="#707070"/>
<stop offset="0.647" stop-color="#404040"/>
<stop offset="0.764" stop-color="#1D1D1D"/>
<stop offset="0.86" stop-color="#080808"/>
<stop offset="0.922"/>
</linearGradient>
<radialGradient id="paint1_radial_519_6326" cx="0" cy="0" r="1" gradientUnits="userSpaceOnUse" gradientTransform="translate(6.35964 -5.02329) scale(20.2221 20.356)">
<stop offset="0.202" stop-color="white"/>
<stop offset="0.382" stop-color="#FDFDFD"/>
<stop offset="0.487" stop-color="#F4F4F4"/>
<stop offset="0.573" stop-color="#E6E6E6"/>
<stop offset="0.648" stop-color="#D2D2D2"/>
<stop offset="0.689" stop-color="#C4C4C4"/>
<stop offset="1" stop-color="#333333"/>
</radialGradient>
<radialGradient id="paint2_radial_519_6326" cx="0" cy="0" r="1" gradientUnits="userSpaceOnUse" gradientTransform="translate(55.298 27.5818) scale(42.1152 42.394)">
<stop offset="0.202" stop-color="white"/>
<stop offset="0.368" stop-color="#E4E4E4"/>
<stop offset="0.594" stop-color="#C4C4C4"/>
<stop offset="1" stop-color="#333333"/>
</radialGradient>
<radialGradient id="paint3_radial_519_6326" cx="0" cy="0" r="1" gradientUnits="userSpaceOnUse" gradientTransform="translate(11.2169 18.226) scale(12.9295 13.0151)">
<stop offset="0.202" stop-color="white"/>
<stop offset="0.368" stop-color="#E4E4E4"/>
<stop offset="0.594" stop-color="#C4C4C4"/>
<stop offset="1" stop-color="#333333"/>
</radialGradient>
<radialGradient id="paint4_radial_519_6326" cx="0" cy="0" r="1" gradientUnits="userSpaceOnUse" gradientTransform="translate(21.6505 31.5347) scale(24.5331 24.6956)">
<stop offset="0.202" stop-color="white"/>
<stop offset="0.368" stop-color="#E4E4E4"/>
<stop offset="0.594" stop-color="#C4C4C4"/>
<stop offset="1" stop-color="#333333"/>
</radialGradient>
<radialGradient id="paint5_radial_519_6326" cx="0" cy="0" r="1" gradientUnits="userSpaceOnUse" gradientTransform="translate(14.3057 2.57627) scale(19.4955 19.6247)">
<stop offset="0.202" stop-color="white"/>
<stop offset="0.397" stop-color="#FDFDFD"/>
<stop offset="0.51" stop-color="#F4F4F4"/>
<stop offset="0.603" stop-color="#E6E6E6"/>
<stop offset="0.684" stop-color="#D2D2D2"/>
<stop offset="0.728" stop-color="#C4C4C4"/>
<stop offset="1" stop-color="#4D4D4D"/>
</radialGradient>
<radialGradient id="paint6_radial_519_6326" cx="0" cy="0" r="1" gradientUnits="userSpaceOnUse" gradientTransform="translate(14.7574 4.54098) scale(13.1313 13.2182)">
<stop offset="0.111" stop-color="#4D4D4D"/>
<stop offset="0.248" stop-color="#494949"/>
<stop offset="0.355" stop-color="#404040"/>
<stop offset="0.451" stop-color="#2F2F2F"/>
<stop offset="0.541" stop-color="#181818"/>
<stop offset="0.611"/>
</radialGradient>
</defs>
</svg>
