<svg width="27" height="27" viewBox="0 0 27 27" fill="none" xmlns="http://www.w3.org/2000/svg">
<path fill-rule="evenodd" clip-rule="evenodd" d="M19.2582 22.5676C17.7317 23.9585 16.4174 24.7081 13.649 26.1605C11.0718 24.9885 9.38977 23.8332 7.93104 22.6948C5.91525 21.1255 4.46717 18.5772 4.34166 17.0144L3.33594 2.1387C10.149 0.367754 17.3957 0.408095 23.6642 2.25777L22.6438 16.9826C22.5139 18.3159 21.3211 20.909 19.2582 22.5676Z" fill="#FFD124" stroke="black" stroke-width="0.5" stroke-miterlimit="2.613"/>
<path fill-rule="evenodd" clip-rule="evenodd" d="M21.4759 16.4945L22.3968 3.34533C17.002 1.62719 10.5399 1.60184 4.58594 3.16477L5.52583 16.486C5.6236 17.8703 6.62092 19.9875 8.53264 21.6099C9.68306 22.5869 11.937 24.2264 13.6017 24.8548C15.5198 23.8844 17.2637 22.6779 18.6458 21.487C20.3598 19.9261 21.372 17.9849 21.4759 16.4945Z" fill="#FFD124" stroke="black" stroke-width="0.5" stroke-miterlimit="2.613"/>
<path fill-rule="evenodd" clip-rule="evenodd" d="M18.4256 21.139C17.1006 22.2815 15.3167 23.5619 13.6026 24.3796C12.0717 23.906 9.80911 22.1603 8.72046 21.2217C6.82162 19.5824 6.04967 17.8665 5.93285 16.2442L5.00977 3.52828C10.6788 2.03958 16.8666 2.03958 22.0083 3.67704L21.0961 16.2231C20.9644 17.8918 20.1883 19.4869 18.4256 21.139Z" fill="#FFD124" stroke="black" stroke-width="0.5" stroke-miterlimit="2.613"/>
<path d="M21.6048 3.94403C16.729 2.44917 10.8092 2.36821 5.43359 3.77609Z" stroke="black" stroke-width="0.2" stroke-miterlimit="2.613"/>
<path fill-rule="evenodd" clip-rule="evenodd" d="M18.8908 4.59042L17.6703 4.38885L17.6232 4.96203L17.2258 4.90278L17.3194 3.38215L17.7256 3.44154L17.6829 4.02565L18.9206 4.22525L18.9608 3.64115L19.3755 3.71987L19.25 5.24456L18.8462 5.17018L18.8908 4.59042ZM13.0001 4.07467C12.8513 4.07467 12.7323 4.03433 12.6536 3.90266C12.5856 3.79439 12.5856 3.44182 12.6536 3.325C12.7279 3.18913 12.8619 3.15089 12.9725 3.15089L14.7033 3.15313L14.7077 3.52671L13.0704 3.5246C12.9896 3.5246 12.9875 3.70516 13.0767 3.70516H14.3674C14.5184 3.70516 14.6524 3.79663 14.6949 3.91527C14.7416 4.04287 14.7331 4.3317 14.6949 4.45049C14.6587 4.56955 14.5226 4.6351 14.3524 4.6351H12.645L12.6428 4.25298H14.1631C14.1856 4.2512 14.2065 4.24103 14.2218 4.22449C14.2371 4.20796 14.2456 4.18627 14.2456 4.16376C14.2456 4.14124 14.2371 4.11956 14.2218 4.10302C14.2065 4.08648 14.1856 4.07631 14.1631 4.07453H13.0001V4.07467ZM11.9989 4.22651C11.9985 4.20748 11.9943 4.18873 11.9866 4.17134C11.9788 4.15394 11.9677 4.13826 11.9539 4.12521C11.94 4.11216 11.9237 4.102 11.9059 4.09531C11.8881 4.08863 11.8691 4.08557 11.8501 4.0863L10.7018 4.16922L10.7252 4.7382L10.3531 4.77644L10.2744 3.27513L11.9842 3.14767C12.2053 3.13086 12.335 3.29629 12.3455 3.4344C12.3583 3.59786 12.3647 3.80811 12.2371 3.89524C12.3434 3.97382 12.3712 4.09064 12.3733 4.2541L12.3776 4.63832L12.0054 4.65331L11.9989 4.22651Z" fill="black"/>
<path fill-rule="evenodd" clip-rule="evenodd" d="M11.7551 3.73913C11.9018 3.73058 11.889 3.5034 11.7551 3.51614L10.6621 3.59892L10.6749 3.80692L11.7551 3.73913Z" fill="#FFD124"/>
<path fill-rule="evenodd" clip-rule="evenodd" d="M8.17398 3.53878C8.52487 3.456 9.24358 3.34142 9.61996 3.31369C9.79211 3.30108 9.92616 3.39017 9.94955 3.52408C10.0049 3.83196 10.0389 4.15034 10.0005 4.57742C9.98989 4.70055 9.88357 4.79818 9.74322 4.82801C9.26053 4.93419 8.71831 4.99148 8.3163 5.02972C8.21419 5.04036 8.05268 4.95968 8.02509 4.83222C7.95491 4.52209 7.92928 4.08885 7.95071 3.79147C7.95925 3.68124 8.06137 3.56442 8.17398 3.53878Z" fill="black"/>
<path fill-rule="evenodd" clip-rule="evenodd" d="M9.53976 4.4527C9.58865 4.44191 9.60994 4.38897 9.61428 4.35073C9.63123 4.2339 9.61638 3.92798 9.58865 3.82615C9.58024 3.7858 9.5462 3.76017 9.46972 3.76661C9.2613 3.7795 8.71053 3.85794 8.43837 3.91733C8.36609 3.93442 8.33836 3.97687 8.33416 4.01511C8.32127 4.11484 8.3511 4.38883 8.3766 4.54165C8.38304 4.57793 8.42983 4.60328 8.46582 4.60118C8.83379 4.57162 9.26774 4.51223 9.53976 4.4527Z" fill="#FFD124"/>
<path fill-rule="evenodd" clip-rule="evenodd" d="M15.5693 3.60265C15.4886 3.60055 15.4333 3.64943 15.427 3.69187C15.4078 3.81724 15.4012 3.97846 15.4012 4.18871C15.4012 4.21631 15.448 4.29279 15.4885 4.29909C15.8542 4.35022 16.5645 4.41395 16.9515 4.4393L16.928 4.83207C16.4199 4.80882 15.8884 4.72799 15.3376 4.68989C15.1568 4.67701 15.025 4.57952 15.0184 4.40541C15.0077 4.11868 15.025 3.68543 15.0761 3.43274C15.11 3.27782 15.2589 3.197 15.4268 3.20134C15.9349 3.22053 16.339 3.26521 17.0046 3.3543L16.9791 3.7451C16.6563 3.71751 16.0437 3.62184 15.5693 3.60265ZM7.24847 3.71667C7.7631 3.59564 7.84168 4.50878 7.41208 4.61495L6.21276 4.91443L6.27019 5.5047L5.89382 5.60443L5.75977 4.06699L7.24847 3.71667Z" fill="black"/>
<path fill-rule="evenodd" clip-rule="evenodd" d="M7.24273 4.31508C7.366 4.28734 7.34905 4.06658 7.2171 4.09418L6.13477 4.35542L6.16026 4.58263L7.24273 4.31508Z" fill="#FFD124"/>
<path fill-rule="evenodd" clip-rule="evenodd" d="M19.9684 4.81736L19.9429 5.06375L21.1315 5.36322L21.0996 5.7071L19.5049 5.33143L19.643 3.7832L21.2484 4.17177L21.2124 4.53273L20.0173 4.24404L19.9937 4.50528L21.1803 4.79411L21.1505 5.09989L19.9684 4.81736Z" fill="black"/>
<path d="M5.62695 6.28708L6.19677 14.1293H10.3156L10.3158 11.5639" stroke="black" stroke-width="0.5" stroke-miterlimit="2.613"/>
<path fill-rule="evenodd" clip-rule="evenodd" d="M10.3107 10.1498C10.3107 10.1222 9.97261 10.0966 9.80452 10.1177C9.35797 10.1708 8.24158 10.5213 7.76953 10.8463C7.75903 10.8739 7.76099 11.0288 7.72919 11.1011C7.7016 11.1668 7.63142 11.2348 7.56335 11.2645C7.44204 11.3175 7.30169 11.1562 7.24006 11.1796C7.17618 11.2029 7.04017 11.2582 6.89337 11.1541C6.82754 11.1075 6.79364 10.9758 6.81689 10.8781C6.83818 10.8079 6.89772 10.7527 6.94464 10.7082C6.98722 10.6657 6.95725 10.5022 7.11035 10.4045C7.21666 10.3367 7.36346 10.392 7.47622 10.4513C7.50171 10.4427 7.5188 10.4322 7.53785 10.4153C7.55256 10.3704 7.57609 10.2346 7.59738 10.1284C7.62302 10.0137 7.63156 9.93929 7.66546 9.83325C7.75048 9.57636 7.95457 9.20685 8.16734 9.01354C8.33529 8.86493 8.59681 8.746 8.79025 8.75875C8.77106 8.78831 8.53083 9.0029 8.46052 9.09857C8.29467 9.31918 8.14171 9.659 8.06943 9.94783C8.0438 10.0455 8.0438 10.0817 8.06089 10.1453C8.21819 10.0752 8.42228 10.0074 8.54148 9.96898C8.58826 9.86505 8.61376 9.74599 8.65424 9.6506C8.71797 9.50184 8.75859 9.43811 8.82429 9.33417C9.01353 9.04114 9.4133 8.75231 9.70885 8.75875C9.61094 8.84363 9.40685 9.05599 9.32617 9.18331C9.26033 9.28949 9.19856 9.40421 9.15178 9.52313C9.11144 9.62931 9.09869 9.70789 9.08804 9.79487C9.24115 9.75047 9.39214 9.71853 9.48992 9.71209C9.55589 9.67595 9.57704 9.60591 9.61332 9.54008C9.72594 9.32983 9.94697 9.09409 10.0875 9.01775C10.2001 8.95611 10.3659 8.89658 10.485 8.93496C10.3574 9.03049 10.2235 9.18317 10.1639 9.27464C10.1023 9.37227 10.0023 9.56137 10.0065 9.6506C10.1109 9.659 10.2466 9.65354 10.3063 9.63869L10.3107 10.1498L10.3121 9.60619L10.3107 10.1498Z" fill="black"/>
<path fill-rule="evenodd" clip-rule="evenodd" d="M8.95637 6.71042C9.11802 6.48546 9.54314 6.14578 9.87077 6.16483C9.69218 6.31975 9.53473 6.49177 9.42422 6.67442C9.27952 6.91003 9.16256 7.20545 9.13721 7.43251C9.24548 7.39217 9.5007 7.32003 9.64749 7.28809C9.7772 7.0057 9.94739 6.69347 10.1579 6.52566C10.3088 6.40464 10.5256 6.30056 10.7277 6.32396C10.681 6.38979 10.6043 6.44078 10.5469 6.49401C10.4425 6.5852 10.3704 6.70846 10.313 6.83369C10.2704 6.92712 10.1981 7.20741 10.196 7.22029C10.3427 7.21819 10.6022 7.235 10.6574 7.25209C10.8297 7.02699 11.2061 6.70006 11.657 6.7743C11.4613 6.88047 11.1041 7.19046 11.1254 7.36037C11.4187 7.54947 11.8567 7.94644 11.8759 8.31372C11.676 8.10571 11.3464 7.89966 11.1806 7.84237C10.7829 7.70215 10.3088 7.6831 9.91321 7.75524C9.08818 7.9103 8.35882 8.26707 7.65929 8.68548C7.64234 8.7981 7.58057 8.96787 7.52958 9.02516C7.4786 9.08245 7.40198 9.13778 7.31919 9.15067C7.21498 9.16748 7.10866 9.12517 7.01929 9.07839C6.96186 9.04645 6.81087 9.08693 6.71534 9.03567C6.64936 9.00177 6.54725 8.90624 6.57498 8.75552C6.59837 8.62174 6.73228 8.54106 6.75133 8.41359C6.77907 8.22687 6.91494 8.14591 6.98526 8.13344C7.06174 8.11846 7.14046 8.14409 7.21063 8.17575C7.24033 8.19059 7.27213 8.21623 7.3 8.22477C7.3276 8.21623 7.36794 8.18219 7.39147 8.17168C7.39777 8.15025 7.46795 7.76182 7.50619 7.59191C7.54443 7.422 7.6104 7.27745 7.66573 7.11846C7.83158 6.64711 8.34411 6.17127 8.75452 6.19677C8.73323 6.2266 8.60128 6.32213 8.41849 6.53435C8.12293 6.88061 8.04841 7.24803 7.9379 7.87865C8.16538 7.77247 8.36316 7.69613 8.56935 7.62161C8.61837 7.42634 8.68421 7.23514 8.76503 7.05038C8.81826 6.93146 8.88199 6.8145 8.95637 6.71042Z" fill="black"/>
<path fill-rule="evenodd" clip-rule="evenodd" d="M21.3498 7.23242L13.75 7.239L13.7563 9.4729L21.1796 9.4687L21.3498 7.23242Z" fill="white"/>
<path fill-rule="evenodd" clip-rule="evenodd" d="M15.4969 17.2251C15.4438 17.4393 15.4182 17.8004 15.4226 17.8092C15.5523 17.7558 15.6734 17.709 15.7799 17.6774C15.7881 17.6645 15.9394 17.3355 16.0075 17.2462C16.1668 17 16.3815 16.7896 16.643 16.6495C16.8069 16.5666 17.0067 16.4903 17.1833 16.5562C16.9513 16.6665 16.7708 16.8662 16.6621 16.9808C16.5622 17.087 16.4451 17.244 16.392 17.4054C16.3835 17.433 16.3751 17.4904 16.3751 17.4904C16.4833 17.4565 16.83 17.4054 16.9747 17.3862C16.9917 17.3839 17.0362 17.2885 17.0703 17.2418C17.113 17.1846 17.1383 17.1485 17.2065 17.0721C17.3811 16.883 17.6765 16.6812 17.9635 16.7257C17.8062 16.8256 17.6338 16.9849 17.4957 17.2355C17.4765 17.2737 17.4511 17.3268 17.4618 17.35C17.5042 17.3587 17.7149 17.3544 17.8423 17.3695C17.989 17.2782 18.1443 17.1972 18.3123 17.1614C18.5014 17.1186 18.7481 17.1528 18.8461 17.2418C18.7313 17.2355 18.6226 17.2567 18.5186 17.2971C18.459 17.3206 18.34 17.3758 18.2951 17.4521C18.4081 17.4839 18.593 17.6051 18.7098 17.7027C18.7905 17.7705 18.8884 17.8683 18.9501 17.9577C19.1054 18.1678 19.1372 18.5456 19.0543 18.6583C19.031 18.5923 19.0052 18.5268 18.9695 18.4649C18.8949 18.3398 18.7778 18.2039 18.6779 18.1294C18.1953 17.7623 17.4999 17.7431 16.9324 17.8575C16.4451 17.9577 15.567 18.1402 14.9929 18.5478C15.0077 18.6203 14.9628 18.741 14.8971 18.788C14.8099 18.8515 14.6865 18.7645 14.6227 18.7987C14.5357 18.8432 14.4272 18.8153 14.3825 18.7964C14.3059 18.7643 14.255 18.6859 14.2484 18.5946C14.2421 18.5223 14.3122 18.4353 14.3272 18.3569C14.3338 18.3248 14.2996 18.1678 14.4336 18.0871C14.4591 18.0724 14.5357 18.0447 14.5887 18.0532C14.6418 18.0638 14.6845 18.0977 14.7374 18.1063C14.8097 18.0806 14.8789 18.0472 14.9438 18.0064C14.9865 17.8428 15.0182 17.6537 15.0396 17.486L15.4969 17.2251Z" fill="black"/>
<path d="M15.0397 17.4862C14.6588 17.6753 14.1613 17.8028 13.7383 17.8198M15.0397 17.4862L13.7383 17.8198M15.0397 17.4862L15.4952 17.2204M13.7383 17.8198L13.7405 23.9291C15.5161 23.029 17.4637 21.5553 18.2932 20.7462C19.6348 19.4399 20.5387 18.1168 20.6767 16.2099L20.802 14.4731L16.7684 14.4688M16.7684 14.4688C16.7684 15.4542 16.441 16.4745 15.4952 17.2204M16.7684 14.4688L15.4952 17.2204" stroke="black" stroke-width="0.5" stroke-miterlimit="2.613"/>
<path fill-rule="evenodd" clip-rule="evenodd" d="M15.5695 19.4844C15.6335 19.3867 15.7101 19.2441 15.7481 19.1826C15.8821 18.9682 16.0756 18.8089 16.2077 18.7474C16.3882 18.6604 16.6796 18.6093 16.8093 18.673C16.6667 18.7072 16.5584 18.7729 16.4583 18.843C16.3561 18.913 16.1563 19.0958 16.1053 19.1721C16.0481 19.2572 16.0095 19.3335 15.9948 19.3737C16.1561 19.3378 16.3498 19.308 16.4497 19.308C16.5223 19.2167 16.7135 18.998 16.8559 18.896C16.9708 18.8154 17.2154 18.7347 17.3683 18.8005C17.2217 18.8473 16.9624 19.0511 16.8666 19.1975C16.8453 19.2317 16.8261 19.2678 16.822 19.2867C16.9006 19.2933 17.0494 19.308 17.1303 19.3188C17.1386 19.3188 17.3599 19.1828 17.4598 19.1552C17.5898 19.119 17.8023 19.0725 17.936 19.2148C17.8384 19.2168 17.7466 19.2252 17.6745 19.2573C17.5706 19.3041 17.5258 19.338 17.479 19.4037C17.6831 19.5119 17.896 19.6247 18.0215 19.8245C18.0657 19.8945 18.1339 20.0601 18.0956 20.1683C18.0318 20.0877 17.9446 20.0091 17.8745 19.9686C17.7747 19.9112 17.7022 19.8561 17.5809 19.8093C17.2004 19.667 16.7027 19.6288 16.305 19.6819C15.7907 19.7478 15.159 20.0028 14.8359 20.2235C14.8572 20.3231 14.8084 20.4399 14.7509 20.4675C14.6298 20.529 14.5129 20.4251 14.4915 20.4314C14.4594 20.442 14.3615 20.4759 14.2915 20.4464C14.2214 20.4188 14.1769 20.2954 14.2045 20.2168C14.2255 20.1574 14.3107 20.0724 14.3107 20.0724C14.2978 19.943 14.383 19.8645 14.5001 19.8494C14.566 19.8431 14.6128 19.8942 14.6659 19.9047C14.7149 19.8815 14.7488 19.8645 14.7745 19.8516C14.8043 19.7455 14.8488 19.6372 14.8784 19.5479C14.9274 19.3972 14.9998 19.2635 15.0913 19.1234C15.2228 18.9215 15.457 18.7305 15.7356 18.7261C15.6506 18.7921 15.6016 18.8282 15.5485 18.8941C15.4572 19.0087 15.3868 19.1127 15.3231 19.2357C15.2657 19.344 15.2126 19.5055 15.2038 19.6477C15.306 19.5991 15.4633 19.5268 15.5695 19.4844ZM15.5285 20.633C15.6007 20.6034 15.6772 20.5821 15.7538 20.5905C15.5752 20.7051 15.4114 20.8729 15.3667 21.0722C15.3626 21.0938 15.3626 21.136 15.3817 21.1489C15.4325 21.136 15.5622 21.1084 15.5964 21.0917C15.6177 21.0472 15.6708 20.9771 15.7069 20.9303C15.8344 20.7604 16.0175 20.5905 16.2701 20.6543C16.1046 20.7284 16.0089 20.8326 15.9364 20.9642C15.9237 20.9878 15.9151 21.032 15.932 21.032C15.9747 21.032 16.1364 21.0257 16.1596 21.0257C16.234 20.9598 16.451 20.8345 16.5999 20.8813C16.5257 20.9163 16.4575 20.9629 16.398 21.0194C16.3833 21.0364 16.3639 21.0577 16.3598 21.0832C16.4916 21.1489 16.6084 21.2232 16.7171 21.3168C16.7745 21.3655 16.8575 21.4569 16.9083 21.6139C16.7808 21.5037 16.3639 21.3062 16.1365 21.2955C15.9878 21.2892 15.8027 21.3168 15.7092 21.338C15.3497 21.4186 14.9795 21.5801 14.663 21.7607C14.6649 21.8222 14.6544 21.8967 14.5842 21.9539C14.5375 21.9921 14.4355 22.0113 14.3971 21.9561C14.3761 21.9263 14.2376 21.9581 14.2077 21.92C14.2077 21.92 14.1716 21.8646 14.1672 21.7988C14.1632 21.7288 14.21 21.6863 14.2482 21.6502C14.2588 21.6376 14.2567 21.5186 14.3458 21.478C14.4012 21.4525 14.4566 21.4614 14.5034 21.4909C14.5226 21.4803 14.5373 21.4696 14.5499 21.4614C14.5606 21.3232 14.5863 21.1958 14.6372 21.0578C14.7075 20.8623 14.9371 20.6244 15.1349 20.633C15.0011 20.7774 14.8925 20.9771 14.8564 21.1427C14.8458 21.1958 14.8417 21.2997 14.8417 21.3487C14.889 21.3197 14.9387 21.2948 14.9903 21.2744C15.0116 21.2235 15.0732 21.096 15.1052 21.0385C15.1863 20.8899 15.3668 20.6988 15.5285 20.633Z" fill="black"/>
<path fill-rule="evenodd" clip-rule="evenodd" d="M6.39941 16.4336C6.42491 17.1725 6.72691 18.0644 7.14153 18.6824H13.3273L13.3146 17.8201C12.5193 17.8201 11.3051 17.2957 10.8245 16.4381L6.39941 16.4336Z" fill="white"/>
<path d="M16.4064 14.5475L16.4086 9.82046L10.6525 9.81836V14.5069M10.6523 14.507C10.6523 18.4357 16.4064 18.4357 16.4064 14.5475L10.6523 14.507Z" stroke="black" stroke-width="0.5" stroke-miterlimit="2.613"/>
<path fill-rule="evenodd" clip-rule="evenodd" d="M12.5055 12.6241C12.5735 12.5497 12.6332 12.452 12.6458 12.3692C12.6563 12.3013 12.4651 12.3056 12.3948 12.348C12.3566 12.3714 12.3203 12.4181 12.2906 12.4607C12.2693 12.4925 12.1928 12.518 12.1546 12.4818C12.1141 12.4436 12.1865 12.3777 12.1844 12.3374C12.1844 12.2696 12.0546 12.3714 11.995 12.3438C11.9547 12.3247 11.9524 12.2633 11.9802 12.2272C11.995 12.2078 12.0376 12.2165 12.0568 12.1952C12.076 12.1739 12.076 12.1423 12.0824 12.1145C12.091 12.0826 12.1249 12.0679 12.1462 12.0445C12.227 11.9659 12.3801 11.8322 12.4098 11.8343C12.4798 11.8407 12.5798 11.8767 12.6415 11.8448C12.6542 11.8386 12.6776 11.8174 12.6563 11.8046L12.4905 11.6963C12.4897 11.6792 12.4927 11.6621 12.4993 11.6464C12.5059 11.6306 12.5159 11.6164 12.5286 11.605C12.6052 11.537 12.7243 11.5837 12.8243 11.5688C12.8943 11.5582 12.9604 11.5306 13.0113 11.4817C13.024 11.5327 12.9921 11.5837 12.9921 11.6368C13.0559 11.6963 13.1219 11.7471 13.1836 11.8046C13.3664 11.9872 13.4451 12.2525 13.4578 12.4862C13.4685 12.5944 13.4685 12.7049 13.4685 12.8855C13.4983 12.8092 13.5174 12.6964 13.5238 12.5988C13.5514 12.3099 13.5067 12.053 13.3431 11.8343C13.2765 11.7421 13.201 11.6568 13.1176 11.5796C13.1261 11.4947 13.1985 11.3502 13.2665 11.4033C13.3112 11.4373 13.2453 11.4881 13.2921 11.518C13.3432 11.5499 13.4176 11.5456 13.4494 11.5391C13.5239 11.5201 13.5962 11.501 13.664 11.4947C13.6961 11.4925 13.749 11.4776 13.7598 11.5096C13.7685 11.5307 13.7451 11.5456 13.7216 11.5541C13.694 11.5627 13.6515 11.5564 13.628 11.5797C13.6088 11.5988 13.5898 11.6199 13.5962 11.6475C13.6045 11.6795 13.6387 11.6964 13.6726 11.6858C13.8009 11.6504 13.933 11.6304 14.066 11.6262C14.1363 11.6262 14.1213 11.6772 14.0873 11.6964C14.0641 11.709 14.0276 11.7198 14.0044 11.7219C13.8789 11.7368 13.7853 11.7453 13.8003 11.8176C13.8109 11.8663 13.8895 11.8195 13.9065 11.8555C13.9257 11.8938 13.8726 11.9151 13.8769 11.9406C13.8895 12.0211 14.0449 12.0043 14.1171 11.9872C14.1702 11.9745 14.2553 11.932 14.281 11.9661C14.3043 11.9956 14.2851 12.0424 14.2553 12.0509C14.1786 12.0722 14.0468 12.1103 14.0107 12.1529C13.9768 12.1933 14.0173 12.276 14.0575 12.2802C14.1488 12.2909 14.249 12.2909 14.3212 12.3122C14.3488 12.3206 14.3724 12.3398 14.3724 12.3695C14.3724 12.4014 14.3403 12.4121 14.3149 12.4205C14.2659 12.4353 14.1831 12.4353 14.1382 12.4544C14.1235 12.4608 14.0936 12.4714 14.098 12.4884C14.1106 12.5203 14.1746 12.5118 14.2277 12.5181C14.2575 12.5203 14.3149 12.5436 14.3149 12.5754C14.3149 12.6094 14.2851 12.6199 14.2317 12.6159C14.1488 12.6094 14.0725 12.6199 14.0363 12.6349C14.0254 12.6391 13.9619 12.6475 13.9638 12.6775C13.9681 12.7134 14.0363 12.6901 14.053 12.7262C14.068 12.7601 14.0212 12.7793 14.0171 12.8218C14.0171 12.8389 14.0254 12.8473 14.0426 12.8537C14.098 12.8771 14.1617 12.8749 14.2169 12.8644C14.2743 12.8537 14.2956 12.9302 14.2809 12.9387C14.2062 12.9791 14.0404 12.9366 14.0021 12.9599C13.9491 12.9939 14.0914 13.0704 14.0872 13.0875C14.0828 13.1065 14.0659 13.1256 14.053 13.1299C13.981 13.1575 13.8874 13.1044 13.8342 13.1341C13.7897 13.1617 13.8087 13.2318 13.7811 13.268C13.7469 13.3126 13.6703 13.2935 13.6364 13.319C13.5919 13.3508 13.5896 13.4272 13.6387 13.4739C13.6769 13.5101 13.713 13.5354 13.7621 13.5587C13.9834 13.6692 14.213 13.7797 14.4277 13.7647C14.5382 13.7584 14.7188 13.7521 14.8189 13.7776C14.9486 13.8094 15.0802 13.9092 15.1487 13.9516C15.2037 13.9855 15.2931 13.9943 15.3634 13.9688C15.4142 13.9516 15.4481 13.8922 15.4378 13.8414C15.4057 13.6715 15.1251 13.6184 15.1206 13.4485C15.1166 13.2532 15.0996 13.147 15.0356 13.0236C15.0124 12.977 15.008 12.8687 15.0635 12.8538C15.108 12.8432 15.1229 12.905 15.159 12.89C15.3229 12.8261 15.3292 12.5671 15.4994 12.5182C15.5993 12.4906 15.9352 12.4863 15.9076 12.4439C15.8375 12.3441 15.8693 12.2294 15.9076 12.1763C15.9331 12.1424 16.0034 12.1082 16.031 12.1424C16.0692 12.1868 15.9735 12.2399 15.9801 12.3059C15.9864 12.3674 16.0757 12.4863 16.0077 12.55C15.9672 12.5881 15.663 12.601 15.5738 12.7369C15.5184 12.8197 15.5123 12.8856 15.5781 12.8792C15.6312 12.8729 15.6757 12.8092 15.7245 12.773C15.8118 12.7094 15.8821 12.6838 15.9311 12.7304C15.9566 12.7538 15.9226 12.7985 15.8758 12.8111C15.8375 12.8239 15.744 12.9239 15.7693 12.9491C15.8076 12.9894 16.0202 12.8048 16.0736 12.8431C16.1012 12.8642 15.9691 13.0002 15.9926 13.0364C16.0202 13.0809 16.1097 13.0109 16.1373 13.0449C16.1775 13.0959 16.067 13.1956 16.0032 13.2402C15.9545 13.2721 15.9734 13.3909 15.9034 13.427C15.8246 13.4653 15.7885 13.5331 15.7969 13.5437C15.8055 13.5607 15.8245 13.5733 15.8543 13.5543C15.9413 13.499 16.0499 13.4333 16.0946 13.4504C16.1201 13.4611 16.0842 13.5819 16.0521 13.6392C16.0201 13.6967 16.1818 13.665 16.1583 13.7136C16.1383 13.7582 16.1323 13.8079 16.1414 13.8559C16.1542 13.9219 15.9671 13.9366 15.9502 13.9813C15.931 14.0324 15.9691 14.045 15.9884 14.0473C16.1012 14.0642 16.086 14.1681 16.0415 14.2128C15.9821 14.2725 15.8798 14.2958 15.7906 14.2809C15.714 14.268 15.5417 14.2361 15.4399 14.1597C15.4078 14.1365 15.3611 14.1534 15.3546 14.1852C15.3483 14.2214 15.3866 14.2874 15.4036 14.3425C15.4271 14.4252 15.4142 14.5294 15.3866 14.6101C15.3272 14.7777 15.1676 14.9178 15.1229 15.1195C15.1122 15.1729 15.1272 15.2386 15.1487 15.2897C15.1952 15.3999 15.2632 15.5042 15.3399 15.5975C15.3505 15.6273 15.3653 15.6612 15.3527 15.6888C15.3358 15.7312 15.2037 15.8225 15.1656 15.8587C15.0444 15.9712 14.9402 16.1178 14.9167 16.2769C14.9081 16.3341 14.7852 16.3915 14.702 16.4151C14.6405 16.4317 14.5766 16.449 14.5255 16.4892C14.5192 16.5359 14.5468 16.5764 14.5531 16.6229C14.5637 16.7036 14.4617 16.7441 14.3829 16.7696C14.3455 16.784 14.306 16.7918 14.266 16.7928C14.2513 16.7928 14.2469 16.7673 14.2491 16.7549C14.2723 16.6444 14.2936 16.5551 14.3361 16.4641C14.3533 16.4299 14.3809 16.4023 14.4086 16.3791L14.7126 16.1241L14.9509 15.7822C14.9719 15.7504 14.9804 15.7228 14.9804 15.6996C14.9804 15.6336 14.9528 15.5721 14.906 15.5297C14.8467 15.4766 14.7594 15.4682 14.6934 15.4338C14.6084 15.3917 14.485 15.2725 14.468 15.2639C14.4212 15.2407 14.3937 15.3254 14.3873 15.3745C14.3767 15.4488 14.4 15.5189 14.398 15.5931C14.398 15.6273 14.3937 15.6465 14.3767 15.6675C14.177 15.7821 13.928 15.8245 13.7814 16.0073C13.7556 16.0391 13.7326 16.0733 13.6985 16.0965C13.6153 16.154 13.4773 16.088 13.4155 16.1772C13.3879 16.2177 13.4199 16.2708 13.4092 16.3153C13.4028 16.3408 13.3539 16.3747 13.3158 16.3939C13.2647 16.4167 13.21 16.4303 13.1541 16.4341C13.0925 16.4046 13.1307 16.3176 13.1519 16.2558C13.1732 16.1921 13.203 16.1286 13.2519 16.0859C13.3243 16.0224 13.4155 15.9418 13.4732 15.9137C13.522 15.8905 13.5965 15.8905 13.6559 15.8672C13.7187 15.848 13.7782 15.8193 13.8324 15.7822C13.9196 15.7272 14.0003 15.6591 14.0494 15.5655C14.1047 15.4596 14.0984 15.3174 14.0281 15.226C13.9643 15.1431 13.8899 15.0624 13.8475 14.9688C13.824 14.918 13.8409 14.8479 13.8773 14.8011C13.8751 14.7992 13.8497 14.7819 13.8346 14.7864C13.5307 14.7993 13.2224 14.7654 12.9395 14.6527C12.865 14.6228 12.7885 14.5273 12.7353 14.5211C12.6864 14.5145 12.6566 14.5762 12.6077 14.5889C12.529 14.6102 12.4269 14.5975 12.3355 14.5889C12.2292 14.5783 12.0081 14.5315 11.8485 14.4807C11.823 14.485 11.7954 14.4892 11.772 14.5042C11.738 14.5274 11.7317 14.5783 11.7294 14.621C11.7252 14.6782 11.7422 14.7312 11.7358 14.7906C11.7338 14.8205 11.7168 14.8524 11.7252 14.8801C11.7338 14.914 11.7677 14.9289 11.7911 14.9502C11.8293 14.9863 11.8358 15.0604 11.8358 15.1198C11.8358 15.1858 11.8124 15.2728 11.8677 15.3176C11.9017 15.3452 11.9485 15.3089 11.9911 15.3176C12.0379 15.3259 12.0526 15.3833 12.0548 15.4278C12.0571 15.4787 12.0145 15.5871 11.9868 15.6147C11.9676 15.6339 11.9356 15.619 11.9124 15.6084C11.8509 15.5808 11.7933 15.5361 11.7594 15.4768C11.7446 15.4511 11.7446 15.4194 11.7296 15.3921C11.7062 15.3453 11.6636 15.3177 11.6212 15.2856C11.5702 15.2474 11.5595 15.1777 11.551 15.1157C11.5447 15.0586 11.5553 15.003 11.5595 14.9458C11.5705 14.8321 11.5633 14.7174 11.5382 14.606C11.5191 14.5213 11.4724 14.4361 11.4936 14.3514C11.5042 14.3109 11.5318 14.2728 11.5702 14.2558C11.7764 14.2452 11.9806 14.211 12.1761 14.1494L12.0487 14.024C12.0166 14.024 11.9912 14.0561 11.9593 14.0561C11.9253 14.0561 11.8785 14.0073 11.8659 13.9901C11.7999 13.8925 11.7575 13.78 11.7276 13.6654C11.6999 13.6209 11.666 13.5759 11.6149 13.5549C11.5794 13.5394 11.5409 13.5321 11.5022 13.5336C11.3958 13.5804 11.298 13.6717 11.2895 13.7886C11.2874 13.8184 11.3043 13.8439 11.3001 13.8733C11.2938 13.9244 11.2554 13.9583 11.2193 13.9945C11.1832 14.0306 11.1491 14.0667 11.1343 14.1176C11.1215 14.16 11.1365 14.2046 11.1554 14.245C11.1683 14.2726 11.1832 14.3001 11.1725 14.3298C11.1469 14.3998 10.9791 14.4721 10.9302 14.4721C10.9132 14.4721 10.8983 14.4489 10.8919 14.4297C10.8728 14.3659 10.8771 14.2981 10.8898 14.2341C10.9345 14.1854 10.9686 14.1282 10.9876 14.0645C11.0131 13.9798 11.0004 13.8883 11.0408 13.8096C11.147 13.6293 11.4192 13.2683 11.4726 13.2151C11.4959 13.1917 11.5532 13.179 11.5768 13.1938C11.6916 13.2682 11.7597 13.3595 11.8701 13.4168C11.9298 13.4465 12.0041 13.4912 12.0574 13.4486C12.1105 13.4062 12.119 13.1217 12.153 13.0494C12.2142 12.9236 12.3865 12.7579 12.5055 12.6241ZM14.6221 10.8553L14.5753 11.0336H14.4051L14.6265 10.1968H14.8199L15.0324 11.0273H14.8625L14.8199 10.8553H14.6221ZM14.1753 10.4373C14.1775 10.3821 14.1606 10.31 14.1159 10.2929C14.0688 10.2759 14.0201 10.2907 13.9991 10.3226C13.9626 10.3821 13.9626 10.4628 13.9649 10.5858C13.9649 10.6602 13.9671 10.7644 13.9818 10.8131C14.018 10.9257 14.1136 10.9322 14.1604 10.862C14.184 10.8281 14.184 10.7623 14.1817 10.7029H14.0838V10.5796H14.3369V11.0298H14.2158V10.9682C14.2135 10.9725 14.1604 11.0127 14.1348 11.0256C14.0924 11.0447 14.0117 11.0447 13.9457 11.0169C13.8904 10.9937 13.8374 10.9194 13.8139 10.8239C13.7906 10.7239 13.801 10.5943 13.801 10.484C13.8032 10.3673 13.8647 10.2376 13.9498 10.1888C14.0094 10.1548 14.1199 10.1548 14.1903 10.1803C14.2753 10.2101 14.341 10.3332 14.3284 10.4372H14.1753V10.4373ZM11.3267 10.2096C11.3948 10.252 11.431 10.3306 11.4183 10.422H11.2842C11.2842 10.3372 11.248 10.2965 11.1759 10.2946C11.1312 10.2923 11.0759 10.3435 11.0759 10.3817C11.0736 10.494 11.1738 10.5176 11.2417 10.5387C11.2927 10.5537 11.3543 10.5855 11.3842 10.6301C11.4395 10.7106 11.4458 10.7958 11.4013 10.9061C11.3801 10.9591 11.2991 11.0228 11.2312 11.0377C11.1546 11.0548 11.061 11.0462 10.9845 10.9888C10.9229 10.942 10.8952 10.8507 10.9079 10.7679H11.0589C11.0589 10.8084 11.0652 10.8379 11.0823 10.8636C11.0951 10.8806 11.1184 10.9081 11.1589 10.9103C11.1749 10.9115 11.191 10.9092 11.206 10.9035C11.2211 10.8978 11.2346 10.8888 11.2458 10.8773C11.2569 10.8657 11.2654 10.8518 11.2706 10.8366C11.2758 10.8214 11.2775 10.8053 11.2757 10.7893C11.2672 10.6597 11.0504 10.6512 10.9759 10.5683C10.8865 10.4664 10.9144 10.3028 10.9866 10.237C11.0865 10.1439 11.2227 10.1439 11.3267 10.2096ZM15.6204 10.7633C15.6224 10.7952 15.6248 10.9077 15.629 10.98C15.6312 11.0011 15.6522 11.0287 15.6522 11.0308H15.4927C15.4717 11.0308 15.4694 10.9926 15.4672 10.9608C15.4631 10.8759 15.4715 10.674 15.3886 10.674H15.2863V11.0287H15.1268V10.2004H15.4141C15.5585 10.2004 15.6311 10.2834 15.6311 10.3958C15.6311 10.4702 15.6288 10.5572 15.5438 10.5934C15.5883 10.6359 15.6138 10.6997 15.6204 10.7633Z" fill="black"/>
<path fill-rule="evenodd" clip-rule="evenodd" d="M15.4026 10.3203H15.2832V10.5434H15.3705C15.5153 10.5434 15.5131 10.3203 15.4026 10.3203Z" fill="#FFD124"/>
<path fill-rule="evenodd" clip-rule="evenodd" d="M11.8122 11.0321H11.6527V10.3334H11.4697V10.1934H11.9971V10.3334H11.8122V11.0321ZM12.8388 11.0321V10.3334H12.6559V10.1934H13.1854V10.3334H12.9984V11.0321H12.8388ZM13.2571 10.1935H13.7866V10.336H13.5994V11.0324H13.4399V10.336H13.2571V10.1935ZM16.0234 10.336V11.0346H15.8639V10.336H15.6808V10.1938H16.2083V10.336H16.0234ZM12.4142 10.7916V10.1949H12.5693V10.7768C12.5693 11.125 12.0632 11.125 12.0632 10.7874V10.1949H12.2183V10.7937C12.2184 10.9234 12.4142 10.9234 12.4142 10.7916Z" fill="black"/>
<path d="M12.7716 11.419C12.8184 11.3788 12.8842 11.3234 12.9608 11.2748C13.0289 11.2301 12.9523 11.3321 12.9481 11.3745C12.9352 11.4891 12.8481 11.5018 12.7524 11.4807C12.7354 11.4765 12.7419 11.4445 12.7716 11.419Z" stroke="black" stroke-width="2" stroke-miterlimit="2.613"/>
<path fill-rule="evenodd" clip-rule="evenodd" d="M16.7707 14.0961L20.8322 14.0938L21.0128 11.8516L16.7707 11.8537V14.0961ZM13.3453 21.08L9.15625 21.0714C10.0195 21.8464 12.0184 23.297 13.3326 23.8852L13.3453 21.08Z" fill="white"/>
<path fill-rule="evenodd" clip-rule="evenodd" d="M10.3152 12.2375V12.5965C10.1493 12.4733 9.37946 12.3841 8.90531 12.5689C8.79059 12.6133 8.41632 12.7748 8.24613 12.9086L7.76778 13.2866C7.72085 13.3246 7.71679 13.4077 7.71679 13.4714C7.71679 13.6115 7.55304 13.7177 7.46158 13.6878C7.3872 13.6623 7.28508 13.6476 7.19151 13.6686C7.0915 13.6899 7.00227 13.5647 6.99373 13.4924C6.98098 13.4033 7.0513 13.2866 7.05536 13.2483C7.05956 13.2121 7.03617 13.0699 7.16798 12.9828C7.22751 12.9446 7.31058 12.9467 7.36997 12.9786C7.38728 12.9888 7.40789 12.9918 7.4274 12.987C7.44869 12.9786 7.50612 12.9276 7.52097 12.9149C7.52741 12.8301 7.51466 12.6962 7.52321 12.622C7.54226 12.4774 7.5508 12.3948 7.59549 12.2544C7.63373 12.1334 7.71679 11.9572 7.77828 11.8574C7.88894 11.6769 8.10801 11.5028 8.27162 11.5176C8.20775 11.6025 8.1866 11.6472 8.13981 11.7343C8.05269 11.8936 7.97186 12.1569 7.93362 12.3351C7.90799 12.4498 7.89524 12.539 7.90155 12.6601C8.02705 12.5666 8.15886 12.4903 8.24599 12.4413C8.28807 12.2306 8.35966 12.0269 8.45862 11.8361C8.56493 11.6344 8.85194 11.4156 9.03908 11.4326C8.86259 11.6238 8.73722 11.8892 8.69044 12.0591C8.67125 12.1269 8.64786 12.2055 8.6585 12.2481C8.72854 12.21 8.87338 12.1718 8.94341 12.1653C8.9902 12.0485 9.05393 11.9083 9.10716 11.8256C9.273 11.5707 9.53452 11.4156 9.68356 11.4221C9.5666 11.5791 9.46645 11.7216 9.39431 11.9317C9.37288 11.9932 9.36237 12.0591 9.36237 12.0909C9.4537 12.0759 9.59615 12.0759 9.65372 12.0759C9.80865 11.9369 9.79338 11.8988 9.96427 11.7682C10.0706 11.6853 10.2682 11.5727 10.315 11.5641V11.8151C10.234 11.8875 10.0704 12.043 10.0384 12.1239C10.1088 12.1496 10.2492 12.1929 10.3152 12.2375Z" fill="black"/>
<path fill-rule="evenodd" clip-rule="evenodd" d="M14.7971 10.7028L14.7207 10.3672L14.6484 10.7028H14.7971Z" fill="#FFD124"/>
<path fill-rule="evenodd" clip-rule="evenodd" d="M21.1567 9.69019L16.7857 9.69201V11.6273L21.0227 11.6325L21.1515 9.76667L21.1567 9.69019ZM21.3578 7.01814L21.3966 6.38725C18.6537 5.54078 16.1175 5.28711 13.7405 5.28711L13.7394 7.00764L21.3578 7.01814ZM10.7197 16.2067C10.4226 15.6582 10.3053 15.0557 10.3053 14.4659L6.27148 14.4702L6.39699 16.2071L10.7197 16.2067ZM13.3299 20.7864L13.3306 18.9761L7.29402 18.9695C7.68595 19.595 8.18923 20.1694 8.77628 20.7409C8.79239 20.7567 8.80906 20.773 8.82615 20.7894L13.3299 20.7864Z" fill="black"/>
</svg>
