<svg width="35" height="23" viewBox="0 0 35 23" fill="none" xmlns="http://www.w3.org/2000/svg">
<path fill-rule="evenodd" clip-rule="evenodd" d="M31.66 9.54826C30.1386 5.56775 24.2462 2.59961 17.2062 2.59961C9.0121 2.59961 2.37109 6.61927 2.37109 11.5777C2.37109 15.0287 5.58999 18.0248 10.3079 19.5266C12.368 20.1838 14.7144 20.5539 17.2052 20.5539C25.3974 20.5539 32.0384 16.5351 32.0384 11.5777C32.0385 10.8836 31.9102 10.1956 31.66 9.54826Z" fill="black"/>
<path d="M31.66 9.54826C30.1386 5.56775 24.2462 2.59961 17.2062 2.59961C9.0121 2.59961 2.37109 6.61927 2.37109 11.5777C2.37109 15.0287 5.59092 18.0248 10.3079 19.5266C12.368 20.1838 14.7144 20.5539 17.2052 20.5539C25.3974 20.5539 32.0384 16.5351 32.0384 11.5777C32.0385 10.8836 31.9102 10.1956 31.66 9.54826Z" stroke="#FFD124" stroke-miterlimit="2.613"/>
<path d="M17.4643 1.9668C9.23014 1.9668 2.55371 5.97713 2.55371 10.928C2.55371 15.8808 9.23014 19.894 17.4643 19.894C25.7003 19.894 32.3767 15.8808 32.3767 10.928C32.3758 5.97713 25.7003 1.9668 17.4643 1.9668V1.9668Z" stroke="#FFD124" stroke-miterlimit="2.613"/>
<path d="M29.1882 5.81733C26.5371 3.68539 22.2741 2.30387 17.463 2.30387C9.42556 2.30387 2.90947 6.16504 2.90947 10.9277C2.90947 12.2747 3.42777 13.5462 4.35345 14.6807C6.71005 17.5668 11.6945 19.5542 17.463 19.5542C25.5023 19.5542 32.0184 15.6931 32.0184 10.9286C32.0184 9.01571 30.9669 7.24639 29.1882 5.81733V5.81733ZM17.4639 1.56836C9.02191 1.56836 2.17676 5.75954 2.17676 10.9267C2.17676 16.0967 9.02285 20.2879 17.4639 20.2879C25.9078 20.2879 32.752 16.0967 32.752 10.9267C32.752 5.75954 25.9069 1.56836 17.4639 1.56836Z" stroke="#FFD124" stroke-width="0.5" stroke-miterlimit="2.613"/>
<path fill-rule="evenodd" clip-rule="evenodd" d="M11.8701 4.21094L13.6627 7.77475L11.541 8.54101L11.8701 4.21094Z" fill="#FFD124"/>
<path fill-rule="evenodd" clip-rule="evenodd" d="M11.8703 4.21094L10.1719 7.79432L11.5413 8.54101L11.8703 4.21094Z" fill="#FFD124"/>
<path fill-rule="evenodd" clip-rule="evenodd" d="M10.1719 7.79297L5 8.81185L11.5413 8.53965L10.1719 7.79297Z" fill="#FFD124"/>
<path fill-rule="evenodd" clip-rule="evenodd" d="M18.8001 8.77406L13.6608 9.66523L11.541 8.54102L18.8001 8.77406Z" fill="#FFD124"/>
<path fill-rule="evenodd" clip-rule="evenodd" d="M11.8701 13.2067L13.6608 9.66525L11.541 8.54102L11.8701 13.2067Z" fill="#FFD124"/>
<path fill-rule="evenodd" clip-rule="evenodd" d="M11.5413 8.54102L10.1719 9.63632L5 8.81321L11.5413 8.54102Z" fill="#FFD124"/>
<path fill-rule="evenodd" clip-rule="evenodd" d="M18.8205 8.7719L13.6626 7.77539L11.5586 8.53792L18.8205 8.7719Z" fill="#FFD124"/>
<path fill-rule="evenodd" clip-rule="evenodd" d="M11.8703 13.2067L10.1719 9.63634L11.5413 8.54102L11.8703 13.2067Z" fill="#FFD124"/>
<path fill-rule="evenodd" clip-rule="evenodd" d="M14.9948 13.9668L15.8999 15.7678L14.8232 16.1556L14.9948 13.9668Z" fill="#FFD124"/>
<path fill-rule="evenodd" clip-rule="evenodd" d="M14.9892 13.9551L14.127 15.7747L14.8233 16.1541L14.9892 13.9551Z" fill="#FFD124"/>
<path fill-rule="evenodd" clip-rule="evenodd" d="M14.127 15.7754L11.501 16.2946L14.8233 16.1548L14.127 15.7754Z" fill="#FFD124"/>
<path fill-rule="evenodd" clip-rule="evenodd" d="M18.5082 16.2718L15.8999 16.7267L14.8232 16.1543L18.5082 16.2718Z" fill="#FFD124"/>
<path fill-rule="evenodd" clip-rule="evenodd" d="M14.9892 18.5258L15.8999 16.7267L14.8232 16.1543L14.9892 18.5258Z" fill="#FFD124"/>
<path fill-rule="evenodd" clip-rule="evenodd" d="M14.8233 16.1543L14.127 16.7108L11.501 16.2941L14.8233 16.1543Z" fill="#FFD124"/>
<path fill-rule="evenodd" clip-rule="evenodd" d="M18.5207 16.2728L15.9002 15.7676L14.8301 16.1526L18.5207 16.2728Z" fill="#FFD124"/>
<path fill-rule="evenodd" clip-rule="evenodd" d="M14.9892 18.5258L14.127 16.7108L14.8233 16.1543L14.9892 18.5258Z" fill="#FFD124"/>
<path fill-rule="evenodd" clip-rule="evenodd" d="M19.4658 11.5059L16.8379 12.0232L20.1593 11.8853L19.4658 11.5059Z" fill="#FFD124"/>
<path fill-rule="evenodd" clip-rule="evenodd" d="M23.8442 11.9994L21.2359 12.4543L20.1592 11.8848L23.8442 11.9994Z" fill="#FFD124"/>
<path fill-rule="evenodd" clip-rule="evenodd" d="M20.326 14.2535L21.2359 12.4543L20.1592 11.8848L20.326 14.2535Z" fill="#FFD124"/>
<path fill-rule="evenodd" clip-rule="evenodd" d="M20.1593 11.8848L19.4658 12.4394L16.8379 12.0227L20.1593 11.8848Z" fill="#FFD124"/>
<path fill-rule="evenodd" clip-rule="evenodd" d="M23.8577 11.9994L21.2363 11.4941L20.1689 11.8801L23.8577 11.9994Z" fill="#FFD124"/>
<path fill-rule="evenodd" clip-rule="evenodd" d="M20.3262 14.2535L19.4658 12.4394L20.1594 11.8848L20.3262 14.2535Z" fill="#FFD124"/>
<path fill-rule="evenodd" clip-rule="evenodd" d="M20.326 9.68359L21.2359 11.4949L20.1592 11.8855L20.326 9.68359Z" fill="#FFD124"/>
<path fill-rule="evenodd" clip-rule="evenodd" d="M20.3262 9.68359L19.4658 11.5061L20.1594 11.8855L20.3262 9.68359Z" fill="#FFD124"/>
<path fill-rule="evenodd" clip-rule="evenodd" d="M27.7603 9.69336L28.6646 11.4944L27.5879 11.8849L27.7603 9.69336Z" fill="#FFD124"/>
<path fill-rule="evenodd" clip-rule="evenodd" d="M27.7558 9.68359L26.8916 11.5061L27.588 11.8855L27.7558 9.68359Z" fill="#FFD124"/>
<path fill-rule="evenodd" clip-rule="evenodd" d="M26.8916 11.5059L24.2656 12.0232L27.588 11.8853L26.8916 11.5059Z" fill="#FFD124"/>
<path fill-rule="evenodd" clip-rule="evenodd" d="M31.2738 11.9994L28.6627 12.4543L27.5879 11.8848L31.2738 11.9994Z" fill="#FFD124"/>
<path fill-rule="evenodd" clip-rule="evenodd" d="M27.7557 14.2535L28.6627 12.4543L27.5879 11.8848L27.7557 14.2535Z" fill="#FFD124"/>
<path fill-rule="evenodd" clip-rule="evenodd" d="M27.588 11.8848L26.8916 12.4394L24.2656 12.0227L27.588 11.8848Z" fill="#FFD124"/>
<path fill-rule="evenodd" clip-rule="evenodd" d="M31.2864 11.9994L28.6651 11.4941L27.5986 11.8801L31.2864 11.9994Z" fill="#FFD124"/>
<path fill-rule="evenodd" clip-rule="evenodd" d="M27.7558 14.2535L26.8916 12.4394L27.588 11.8848L27.7558 14.2535Z" fill="#FFD124"/>
<path fill-rule="evenodd" clip-rule="evenodd" d="M25.3239 4.89258L26.229 6.6945L25.1523 7.08416L25.3239 4.89258Z" fill="#FFD124"/>
<path fill-rule="evenodd" clip-rule="evenodd" d="M25.3174 4.88281L24.4561 6.70525L25.1515 7.08465L25.3174 4.88281Z" fill="#FFD124"/>
<path fill-rule="evenodd" clip-rule="evenodd" d="M24.456 6.70508L21.8291 7.2215L25.1515 7.08447L24.456 6.70508Z" fill="#FFD124"/>
<path fill-rule="evenodd" clip-rule="evenodd" d="M28.8373 7.2034L26.229 7.65739L25.1523 7.08594L28.8373 7.2034Z" fill="#FFD124"/>
<path fill-rule="evenodd" clip-rule="evenodd" d="M25.3183 9.45744L26.229 7.65737L25.1523 7.08594L25.3183 9.45744Z" fill="#FFD124"/>
<path fill-rule="evenodd" clip-rule="evenodd" d="M25.1515 7.08594L24.456 7.6406L21.8291 7.22297L25.1515 7.08594Z" fill="#FFD124"/>
<path fill-rule="evenodd" clip-rule="evenodd" d="M28.8489 7.20243L26.2285 6.69531L25.1611 7.08124L28.8489 7.20243Z" fill="#FFD124"/>
<path fill-rule="evenodd" clip-rule="evenodd" d="M25.3174 9.45744L24.4561 7.64059L25.1515 7.08594L25.3174 9.45744Z" fill="#FFD124"/>
<path fill-rule="evenodd" clip-rule="evenodd" d="M22.7145 13.5508L23.6206 15.3499L22.543 15.7396L22.7145 13.5508Z" fill="#FFD124"/>
<path fill-rule="evenodd" clip-rule="evenodd" d="M22.7108 13.541L21.8467 15.3625L22.543 15.7401L22.7108 13.541Z" fill="#FFD124"/>
<path fill-rule="evenodd" clip-rule="evenodd" d="M21.8468 15.3633L19.2217 15.8806L22.5431 15.7408L21.8468 15.3633Z" fill="#FFD124"/>
<path fill-rule="evenodd" clip-rule="evenodd" d="M26.2289 15.8596L23.6206 16.3154L22.543 15.7402L26.2289 15.8596Z" fill="#FFD124"/>
<path fill-rule="evenodd" clip-rule="evenodd" d="M22.7108 18.1117L23.6206 16.3154L22.543 15.7402L22.7108 18.1117Z" fill="#FFD124"/>
<path fill-rule="evenodd" clip-rule="evenodd" d="M22.5431 15.7402L21.8468 16.2977L19.2217 15.8801L22.5431 15.7402Z" fill="#FFD124"/>
<path fill-rule="evenodd" clip-rule="evenodd" d="M26.2405 15.8587L23.6201 15.3516L22.5527 15.7412L26.2405 15.8587Z" fill="#FFD124"/>
<path fill-rule="evenodd" clip-rule="evenodd" d="M22.7108 18.1117L21.8467 16.2977L22.543 15.7402L22.7108 18.1117Z" fill="#FFD124"/>
</svg>
