<svg width="25" height="25" viewBox="0 0 25 25" fill="none" xmlns="http://www.w3.org/2000/svg">
<g clip-path="url(#clip0_519_6553)">
<path d="M12.5114 25.0287L16.0027 5.39433C19.3302 5.39433 20.3799 5.75923 20.5315 7.24864C20.5315 7.24864 22.7639 6.4163 23.8897 4.72584C19.4962 2.68996 15.0816 2.59815 15.0816 2.59815L12.5057 5.73561L12.5115 5.73521L9.93548 2.59766C9.93548 2.59766 5.52088 2.68957 1.12793 4.72544C2.25284 6.41591 4.48602 7.24824 4.48602 7.24824C4.63845 5.75873 5.6868 5.39383 8.99214 5.39147L12.5114 25.0287Z" fill="black"/>
<path d="M12.5096 1.69124C16.0612 1.66408 20.1262 2.24066 24.2878 4.05442C24.844 3.05331 24.987 2.61087 24.987 2.61087C20.4378 0.811076 16.1776 0.195138 12.5091 0.179688C8.84076 0.195138 4.58076 0.811175 0.0322266 2.61087C0.0322266 2.61087 0.235144 3.15585 0.730926 4.05442C4.89163 2.24066 8.95757 1.66408 12.5092 1.69124H12.5096Z" fill="black"/>
</g>
<defs>
<clipPath id="clip0_519_6553">
<rect width="25" height="25" fill="white"/>
</clipPath>
</defs>
</svg>
