<svg width="33" height="19" viewBox="0 0 33 19" fill="none" xmlns="http://www.w3.org/2000/svg">
<path d="M0.995117 9.4996C0.995117 14.7365 7.80269 18.9974 16.17 18.9974C24.5372 18.9974 31.3449 14.7365 31.3449 9.4996C31.3448 4.26222 24.5372 0.00195312 16.1699 0.00195312C7.80257 0.00195312 0.995117 4.26222 0.995117 9.4996ZM1.46078 9.4996C1.46078 4.52003 8.05915 0.468562 16.17 0.468562C24.2806 0.468562 30.8792 4.52003 30.8792 9.4996C30.8792 14.4802 24.2806 18.5316 16.17 18.5316C8.05915 18.5315 1.46078 14.4803 1.46078 9.4996Z" fill="black"/>
<path d="M14.7356 1.72913C11.184 1.94607 8.60431 2.88767 8.1646 4.12819C8.11982 4.25319 8.09675 4.38493 8.09638 4.51771C8.09638 4.72697 8.15552 4.93623 8.27287 5.13629C8.76578 5.97635 10.2958 6.6691 12.4732 7.04068L12.7037 7.07841L12.7423 6.84808C13.0997 4.66735 13.8843 2.95253 14.8956 2.14287L15.4686 1.68359L14.7356 1.72913ZM8.67486 4.90141C8.59895 4.77227 8.56158 4.64488 8.56158 4.51934C8.56158 4.44016 8.5752 4.36284 8.60338 4.28412C8.93901 3.33646 11.219 2.50875 14.1317 2.24173C13.3008 3.18182 12.6619 4.6967 12.3286 6.53716C10.4359 6.18688 9.07498 5.58368 8.67486 4.90141ZM14.0863 6.98747L14.0407 7.24086L14.2977 7.26042C14.907 7.30595 15.5369 7.33052 16.169 7.33052C16.8016 7.33052 17.4319 7.30595 18.0413 7.26042L18.2978 7.24086L18.2521 6.98747C17.9018 5.01972 17.1225 3.84429 16.1693 3.84429C15.2154 3.84429 14.4364 5.01972 14.0863 6.98747ZM16.1694 4.31009C16.8211 4.31009 17.4228 5.28627 17.7398 6.81012C17.2244 6.84377 16.6995 6.86473 16.169 6.86473C15.6391 6.86473 15.114 6.84377 14.5992 6.81012C14.9153 5.28627 15.5178 4.31009 16.1694 4.31009ZM17.4428 2.1431C18.4538 2.95276 19.2391 4.66782 19.5965 6.84831L19.6347 7.07865L19.8649 7.04092C22.0431 6.66933 23.574 5.97635 24.0652 5.1364C24.2562 4.81361 24.2925 4.46496 24.1744 4.12854C23.7348 2.88814 21.155 1.94653 17.6036 1.72936L16.8715 1.68383L17.4428 2.1431ZM18.2081 2.24173C21.1199 2.50875 23.3999 3.33798 23.7345 4.28412C23.7637 4.36284 23.7773 4.44016 23.7773 4.51934C23.7773 4.64488 23.7391 4.77227 23.6649 4.90141C23.2634 5.58357 21.902 6.18688 20.0103 6.53716C19.677 4.69681 19.039 3.18193 18.2081 2.24173ZM5.91729 5.04243C4.3211 6.37984 3.47754 7.96866 3.47754 9.63795C3.47754 13.5648 8.2646 16.8841 14.612 17.3571L15.321 17.4103L14.7812 16.949C13.3906 15.7591 12.527 12.9356 12.527 9.58019L12.5415 8.78741L12.3469 8.74782C9.00816 8.14927 6.6329 6.74502 6.29471 5.1725L6.2138 4.79498L5.91729 5.04243ZM3.94367 9.63795C3.94367 8.20657 4.64171 6.83282 5.95233 5.63969C6.56294 7.22863 8.84448 8.5523 12.0695 9.1682C12.0654 9.35009 12.0618 9.58019 12.0618 9.58019C12.0618 12.6915 12.7999 15.3784 14.0172 16.8281C8.23364 16.2108 3.94367 13.189 3.94367 9.63795ZM13.8966 9.21827L13.8952 9.30281C13.8952 12.4218 14.8729 14.7748 16.1694 14.7748C17.4655 14.7748 18.4433 12.4218 18.4433 9.30281L18.4401 8.96627L18.1901 8.9877C17.5307 9.04546 16.8517 9.07411 16.1697 9.07411C15.4876 9.07411 14.8077 9.04546 14.1501 8.9877L13.8991 8.96499L13.8966 9.21827ZM17.9748 9.46828C17.9398 12.3703 17.0258 14.3094 16.1694 14.3094C15.3123 14.3094 14.3981 12.3703 14.364 9.46828C14.9561 9.51195 15.5609 9.5392 16.1694 9.5392C16.7789 9.5392 17.3819 9.51195 17.9748 9.46828ZM26.0433 5.1725C25.7055 6.74502 23.3298 8.14916 19.9921 8.74782L19.7965 8.78415L19.812 9.58007C19.812 12.9355 18.948 15.7591 17.5578 16.9489L17.018 17.4102L17.726 17.357C24.074 16.8839 28.8612 13.5647 28.8612 9.63783C28.8612 7.96854 28.0167 6.37972 26.4205 5.04231L26.1249 4.79486L26.0433 5.1725ZM26.3857 5.63969C27.6973 6.83282 28.3958 8.20657 28.3958 9.63795C28.3958 13.189 24.106 16.2108 18.3219 16.8281C19.5392 15.3784 20.2773 12.6915 20.2773 9.58019C20.2773 9.58019 20.2728 9.34997 20.2696 9.1682C23.4936 8.5523 25.775 7.22852 26.3857 5.63969Z" fill="black"/>
<path d="M26.2084 3.97316C26.2298 4.03232 26.2493 4.09264 26.2647 4.15331C26.3525 4.50219 26.3343 4.84478 26.2206 5.17864C27.7349 6.42778 28.6276 7.96839 28.6276 9.63768C28.6276 13.8042 23.0496 17.1826 16.1694 17.1826C9.28873 17.1826 3.71122 13.8042 3.71122 9.63768C3.71122 7.96979 4.60483 6.4279 6.11731 5.17864C6.0045 4.84478 5.98634 4.50219 6.07412 4.15331C6.09229 4.08711 6.11649 4.02272 6.14642 3.96094C4.08002 5.43354 2.82715 7.36344 2.82715 9.4771C2.82715 14.0922 8.80025 17.8331 16.1693 17.8331C23.5374 17.8331 29.5114 14.0922 29.5114 9.4771C29.5117 7.36787 28.2638 5.44239 26.2084 3.97316Z" fill="black"/>
<path d="M18.0234 7.02722C17.4354 7.07136 16.8156 7.09546 16.1694 7.09546C15.5236 7.09546 14.9043 7.07136 14.3163 7.02722H14.3144L13.9301 7.30647C14.6391 7.3683 15.3878 7.40335 16.1697 7.40335C16.9518 7.40335 17.7004 7.3683 18.4098 7.30647L18.0234 7.02722ZM24.8386 4.0996C24.3702 2.55118 20.5094 1.41406 16.1699 1.41406C11.831 1.41406 7.97029 2.55141 7.50195 4.0996C7.09542 5.44283 9.31456 6.68603 12.8157 7.17907L12.5115 6.80865C9.67929 6.32655 7.99591 5.29855 8.38427 4.20556C8.85494 2.87852 12.2736 1.91759 16.1695 1.91759C20.0653 1.91759 23.4848 2.87875 23.955 4.20556C24.3429 5.29866 22.6603 6.32667 19.8274 6.80865L19.5243 7.17907C23.0241 6.68603 25.2448 5.44283 24.8386 4.0996Z" fill="black"/>
<path d="M14.321 7.02847C14.6461 5.22118 15.3515 4.09174 16.1695 4.09174C16.9885 4.09174 17.6933 5.22118 18.0189 7.02847H18.0254L18.4057 7.30457C18.0846 4.91783 17.2052 3.39258 16.1701 3.39258C15.1342 3.39258 14.2552 4.91783 13.9346 7.30457L14.3148 7.02847H14.321Z" fill="black"/>
<path d="M18.5207 8.65625L18.2096 9.21893C18.2096 9.25992 18.2115 9.30207 18.2115 9.34481C18.2115 12.3406 17.2956 14.612 16.1693 14.612C15.0419 14.612 14.128 12.3403 14.128 9.34481C14.128 9.29753 14.1289 9.2506 14.1298 9.20531L13.8183 8.65625C13.8091 8.88461 13.8046 9.11313 13.8047 9.34167C13.8047 12.7381 14.8634 15.3109 16.1698 15.3109C17.4762 15.3109 18.5358 12.7381 18.5358 9.34167C18.5353 9.11312 18.5303 8.8846 18.5207 8.65625Z" fill="black"/>
<path d="M12.8203 7.18071C13.2678 3.86332 14.5979 1.41406 16.1695 1.41406C14.4847 1.41406 13.0486 3.58396 12.5156 6.81541L12.8157 7.18071H12.8203Z" fill="black"/>
<path d="M19.5197 7.18071H19.5229L19.823 6.81541C19.2909 3.58396 17.8539 1.41406 16.1699 1.41406C17.7416 1.4143 19.0727 3.86332 19.5197 7.18071Z" fill="black"/>
<path d="M20.032 8.97382L19.6501 8.51758H19.6469C19.6684 8.88008 19.6806 9.24852 19.6806 9.62279C19.6806 14.1566 18.1085 17.8318 16.1699 17.8318C18.3435 17.8318 20.0444 14.4231 20.0444 9.62279C20.0444 9.40317 20.0398 9.18774 20.032 8.97382Z" fill="black"/>
<path d="M12.6599 9.62278C12.6599 9.24852 12.6721 8.88008 12.6931 8.51758H12.6905L12.3076 8.97242C12.2995 9.18912 12.2953 9.40594 12.2949 9.62278C12.2949 14.4231 13.997 17.8318 16.1698 17.8318C14.2319 17.8318 12.6599 14.1564 12.6599 9.62278Z" fill="black"/>
<path d="M26.2214 5.17863C26.8003 5.6563 27.2887 6.17752 27.6707 6.73112C27.5384 5.85068 27.1883 5.01727 26.652 4.30667C26.5073 4.19165 26.3596 4.08052 26.209 3.9734C26.2305 4.03255 26.25 4.09287 26.2652 4.15354C26.3533 4.5023 26.3351 4.84478 26.2214 5.17863ZM6.11826 5.17863C6.00545 4.84478 5.98729 4.50219 6.07507 4.15331C6.09323 4.08711 6.11743 4.02271 6.14736 3.96094C5.99208 4.07302 5.83911 4.18829 5.68857 4.30667C5.15311 5.01772 4.80304 5.85093 4.66992 6.73112C5.05188 6.17752 5.53932 5.65619 6.11826 5.17863Z" fill="black"/>
<path d="M1.22754 9.49877C1.22754 4.38273 7.91683 0.234375 16.1696 0.234375C24.4212 0.234375 31.1106 4.38273 31.1106 9.49877C31.1106 14.6159 24.4212 18.7627 16.1696 18.7627C7.91683 18.7626 1.22754 14.616 1.22754 9.49877ZM16.1695 17.8319C23.5377 17.8319 29.5116 14.091 29.5116 9.47595C29.5116 4.8604 23.5377 1.11822 16.1695 1.11822C8.80032 1.11822 2.82687 4.86064 2.82687 9.47595C2.82687 14.091 8.80043 17.8319 16.1695 17.8319Z" fill="black"/>
<path d="M12.6602 9.62309C12.6602 5.13692 14.2322 1.41406 16.1698 1.41406C18.1084 1.41406 19.6806 5.13692 19.6806 9.62309C19.6806 14.1569 18.1084 17.8321 16.1698 17.8321C14.2313 17.8321 12.6602 14.1568 12.6602 9.62309ZM16.1698 15.3103C17.4764 15.3103 18.536 12.7375 18.536 9.34245C18.536 5.81907 17.4762 3.39147 16.1698 3.39147C14.8634 3.39147 13.8047 5.81907 13.8047 9.34245C13.8047 12.7375 14.8634 15.3103 16.1698 15.3103Z" fill="black"/>
<path d="M6.07432 4.15307C6.45943 2.62794 11.1168 0.408203 16.1694 0.408203C21.2217 0.408203 25.7191 1.99423 26.2647 4.15307C26.8754 6.57286 22.387 8.76279 16.1694 8.76279C9.95086 8.76279 5.46267 6.57298 6.07432 4.15307ZM16.1694 1.41478C11.8306 1.41478 7.96992 2.55213 7.50158 4.10032C6.97678 5.83481 10.8303 7.40407 16.1694 7.40407C21.5097 7.40407 25.3625 5.83458 24.8381 4.10032C24.3698 2.5519 20.5092 1.41478 16.1694 1.41478Z" fill="black"/>
<path d="M13.8138 8.65133L13.8165 8.65319L14.1371 9.21855C14.7896 9.27433 15.4682 9.30623 16.1698 9.30623C16.8747 9.30623 17.5549 9.27444 18.2118 9.21715L18.5238 8.65296L18.5256 8.6511C17.7753 8.72248 16.9886 8.76207 16.17 8.76207C15.3833 8.76252 14.597 8.72557 13.8138 8.65133ZM26.3178 4.67578C26.2377 6.40597 23.5789 7.9389 19.6487 8.5166L19.6501 8.51799L20.0334 8.97622C23.879 8.28475 26.4089 6.58623 26.3178 4.67578ZM6.0219 4.67578C5.93098 6.5881 8.4606 8.28463 12.3055 8.97622L12.6898 8.51799L12.6907 8.5166C8.75979 7.93901 6.10281 6.40609 6.0219 4.67578Z" fill="black"/>
</svg>
