<svg width="23" height="23" viewBox="0 0 23 23" fill="none" xmlns="http://www.w3.org/2000/svg">
<g clip-path="url(#clip0_519_6598)">
<path d="M22.9931 11.4991C22.9931 17.8466 17.8475 22.9924 11.4999 22.9924C5.15247 22.9924 0.00683594 17.8466 0.00683594 11.4991C0.00683594 5.15154 5.15247 0.00585938 11.4999 0.00585938C17.8474 0.00584783 22.9931 5.15154 22.9931 11.4991Z" fill="#FFD124" stroke="black" stroke-width="0.1" stroke-miterlimit="18.2"/>
<path d="M11.5 22.525C17.586 22.525 22.5196 17.5893 22.5196 11.5008C22.5196 5.41228 17.586 0.476562 11.5 0.476562C5.4141 0.476562 0.480469 5.41228 0.480469 11.5008C0.480469 17.5893 5.4141 22.525 11.5 22.525Z" fill="url(#paint0_linear_519_6598)" stroke="black"/>
<path d="M20.1064 11.4485C20.1069 16.3171 16.2002 20.2642 11.3808 20.2642C6.56144 20.2642 2.65472 16.3171 2.65527 11.4485C2.65472 6.57989 6.56146 2.63281 11.3808 2.63281C16.2002 2.63281 20.1069 6.57985 20.1064 11.4485Z" fill="#FFD124"/>
<path d="M11.4962 19.3704C15.8212 19.3704 19.3273 15.8504 19.3273 11.5084C19.3273 7.16639 15.8212 3.64648 11.4962 3.64648C7.17116 3.64648 3.66504 7.16639 3.66504 11.5084C3.66504 15.8504 7.17116 19.3704 11.4962 19.3704Z" fill="black"/>
<path opacity="0.65" d="M11.8829 2.31641C6.65718 2.31641 2.41504 6.55861 2.41504 11.7844C2.41504 17.0103 6.65718 21.251 11.8829 21.251C17.1088 21.251 21.3494 17.0103 21.3494 11.7844C21.3495 6.55855 17.1087 2.31641 11.8829 2.31641ZM11.8081 3.62788C12.6156 3.62198 13.4228 3.73286 14.1963 3.96186L12.9943 6.61498L11.8009 9.21482L10.6277 6.602L9.42136 3.99783C10.1928 3.75671 11.0006 3.63373 11.8081 3.62788ZM15.9324 4.70608C16.738 5.17494 17.5843 5.80966 18.4199 6.92012C17.2115 9.79502 15.8986 12.8755 14.6743 15.7605L13.0562 12.0565H10.5212L8.86138 15.6972C7.58684 12.8365 6.356 9.98497 5.24089 7.05685C6.02622 5.94711 6.82278 5.34706 7.62193 4.81689C8.57705 7.00475 9.53295 9.19203 10.4881 11.3799H13.0519C14.0136 9.17037 14.9702 6.91019 15.9324 4.70608ZM19.5961 9.14715C19.7178 9.52495 19.9285 10.2192 20.0078 11.2979C20.0468 11.8285 20.0262 12.5405 19.8998 13.2312C19.6861 14.3995 19.1942 15.5967 18.4156 16.6358C18.2538 16.8517 18.0785 17.0605 17.8901 17.2649C17.1778 18.0381 16.2584 18.7411 15.1363 19.2414C15.4794 18.6305 15.7935 18.0094 16.0763 17.3916C16.4745 16.5217 16.8738 15.6529 17.2423 14.773C17.3306 14.5623 17.4288 14.3554 17.523 14.1468C17.8577 13.406 18.1757 12.6419 18.4832 11.8909C18.8147 11.0815 19.2997 9.97667 19.5961 9.14715ZM4.10215 9.34871C4.39852 10.1782 4.70495 11.0268 5.03644 11.8363C5.34393 12.5872 5.66631 13.3413 6.00093 14.082C6.77289 15.7908 7.58088 17.4791 8.44672 19.1651C6.97088 18.4547 5.98447 17.5265 5.24661 16.4976C4.09366 14.89 3.722 13.1219 3.73794 11.7154C3.75052 10.6054 3.9769 9.71551 4.10215 9.34871ZM11.7706 14.2965L14.2251 19.5797C13.5792 19.7965 12.8894 19.8884 12.1867 19.9064C12.0749 19.9093 11.9635 19.9099 11.8513 19.9093C10.9121 19.9041 10.1121 19.7789 9.37957 19.5278L11.7706 14.2965Z" fill="black"/>
<path opacity="0.5" d="M12.1603 2.23438C6.93446 2.23438 2.69238 6.47654 2.69238 11.7024C2.69238 16.9283 6.93447 21.169 12.1603 21.169C17.3861 21.169 21.6268 16.9283 21.6268 11.7024C21.6268 6.47654 17.3861 2.23438 12.1603 2.23438ZM12.0854 3.54585C12.8928 3.53996 13.7001 3.65087 14.4736 3.87983L13.2716 6.53292L12.0782 9.13279L10.905 6.51998L9.69863 3.91581C10.4701 3.6747 11.278 3.5517 12.0854 3.54585ZM16.2097 4.62408C17.0154 5.09299 17.8616 5.72764 18.6973 6.83814C17.4888 9.71305 16.176 12.7935 14.9515 15.6785L13.3335 11.9745H10.7984L9.13865 15.6152C7.86412 12.7545 6.63327 9.90299 5.51818 6.97492C6.30351 5.86517 7.10007 5.26509 7.89921 4.73495C8.85433 6.92282 9.81023 9.11008 10.7653 11.2979H13.3292C14.2909 9.08834 15.2475 6.82816 16.2097 4.62408ZM19.8734 9.06512C19.9952 9.44292 20.2058 10.1372 20.2851 11.2159C20.3241 11.7466 20.3035 12.4585 20.1771 13.1492C19.9634 14.3176 19.4716 15.5147 18.6929 16.5538C18.5311 16.7698 18.3558 16.9785 18.1675 17.1829C17.4551 17.9561 16.5358 18.659 15.4136 19.1594C15.7568 18.5484 16.0708 17.9274 16.3537 17.3095C16.7519 16.4397 17.1512 15.5709 17.5197 14.691C17.608 14.4803 17.7062 14.2733 17.8004 14.0647C18.1351 13.324 18.4531 12.5599 18.7606 11.8089C19.092 10.9995 19.577 9.89463 19.8734 9.06512ZM4.37952 9.26668C4.67592 10.0962 4.98233 10.9448 5.31379 11.7543C5.62127 12.5052 5.94365 13.2593 6.27826 14C7.05023 15.7088 7.85822 17.397 8.72405 19.0831C7.2482 18.3727 6.26185 17.4445 5.52393 16.4156C4.37105 14.808 3.99932 13.0399 4.01528 11.6334C4.02785 10.5234 4.25426 9.63349 4.37952 9.26668ZM12.048 14.2145L14.5024 19.4977C13.8565 19.7145 13.1667 19.8064 12.464 19.8245C12.3522 19.8273 12.2409 19.828 12.1286 19.8274C11.1894 19.8222 10.3894 19.6969 9.65684 19.4459L12.048 14.2145Z" fill="black"/>
<path d="M11.5021 2.04102C6.27628 2.04102 2.03418 6.28319 2.03418 11.5091C2.03418 16.7349 6.27629 20.9756 11.5021 20.9756C16.7279 20.9756 20.9686 16.7349 20.9686 11.5091C20.9686 6.28315 16.7279 2.04102 11.5021 2.04102ZM11.4272 3.35248C12.2347 3.34657 13.0419 3.45746 13.8155 3.68643L12.6134 6.33959L11.42 8.93942L10.2468 6.32659L9.04044 3.72244C9.8119 3.48131 10.6198 3.35837 11.4272 3.35248ZM15.5516 4.43069C16.3572 4.89955 17.2034 5.53424 18.0391 6.64472C16.8306 9.51962 15.5178 12.6001 14.2934 15.4851L12.6753 11.7811H10.1403L8.48051 15.4218C7.20596 12.5611 5.97515 9.70959 4.86002 6.7815C5.64535 5.67177 6.44193 5.07169 7.24102 4.54154C8.19614 6.72939 9.15206 8.91668 10.1072 11.1045H12.671C13.6327 8.89501 14.5893 6.63479 15.5516 4.43069ZM19.2152 8.8718C19.337 9.24959 19.5476 9.94385 19.6269 11.0225C19.6659 11.5532 19.6452 12.2651 19.5189 12.9558C19.3052 14.1242 18.8134 15.3213 18.0347 16.3604C17.8729 16.5764 17.6976 16.7852 17.5093 16.9895C16.797 17.7627 15.8776 18.4657 14.7554 18.966C15.0986 18.3551 15.4126 17.7341 15.6954 17.1162C16.0936 16.2463 16.493 15.3775 16.8614 14.4976C16.9497 14.2869 17.048 14.08 17.1422 13.8714C17.4768 13.1307 17.7949 12.3666 18.1024 11.6156C18.4339 10.8061 18.9188 9.70131 19.2152 8.8718ZM3.72129 9.07333C4.01769 9.90289 4.32412 10.7514 4.65555 11.5609C4.96303 12.3119 5.28544 13.066 5.62007 13.8066C6.39203 15.5154 7.20002 17.2037 8.06588 18.8898C6.59003 18.1793 5.60363 17.2511 4.86575 16.2222C3.71286 14.6146 3.34117 12.8466 3.3571 11.44C3.36968 10.3301 3.5961 9.44012 3.72129 9.07333ZM11.3898 14.0211L13.8443 19.3043C13.1983 19.5211 12.5086 19.613 11.8059 19.6311C11.6941 19.6339 11.5827 19.6346 11.4705 19.6339C10.5313 19.6287 9.73124 19.5035 8.99876 19.2525L11.3898 14.0211Z" fill="#FFD124" stroke="black" stroke-width="0.4" stroke-miterlimit="18.2"/>
</g>
<defs>
<linearGradient id="paint0_linear_519_6598" x1="8.34664" y1="7.17525" x2="21.1384" y2="24.7071" gradientUnits="userSpaceOnUse">
<stop/>
<stop offset="1" stop-color="#042A54"/>
</linearGradient>
<clipPath id="clip0_519_6598">
<rect width="23" height="23" fill="white"/>
</clipPath>
</defs>
</svg>
