<svg width="26" height="25" viewBox="0 0 26 25" fill="none" xmlns="http://www.w3.org/2000/svg">
<g clip-path="url(#clip0_519_6633)">
<path d="M12.7912 4.39062C15.0485 4.39062 17.0551 5.31028 18.5182 6.77338C20.0231 8.23647 20.9009 10.2848 20.9009 12.5421C20.9009 14.7571 20.0231 16.806 18.5182 18.2685C17.0545 19.7322 15.048 20.6513 12.7912 20.6513C10.5338 20.6513 8.52731 19.7316 7.02241 18.2685C5.55873 16.8054 4.63965 14.7571 4.63965 12.5421C4.63965 10.2842 5.55931 8.23647 7.02241 6.77279C8.52731 5.31028 10.5338 4.39062 12.7912 4.39062ZM12.7912 4.51603C10.6743 4.51845 8.64484 5.36031 7.14782 6.85698C5.68414 8.32007 4.76506 10.3266 4.76506 12.5421C4.76506 14.7571 5.68472 16.7636 7.14782 18.1855C8.56911 19.6486 10.5751 20.5264 12.7912 20.5264C15.0067 20.5264 17.0133 19.648 18.4346 18.1855C19.8982 16.7642 20.7755 14.7577 20.7755 12.5421C20.7755 10.3266 19.8977 8.32007 18.4346 6.85698C16.9376 5.3602 14.9081 4.51832 12.7912 4.51603Z" fill="black"/>
<path d="M12.7914 0.0839844C15.634 0.0839844 18.2676 1.04487 20.3578 2.63396L21.7372 1.25446L24.1618 3.67903L22.7823 5.10032C24.329 7.19046 25.2069 9.74043 25.2069 12.4994C25.2069 19.3551 19.6471 24.9567 12.7914 24.9567C5.93576 24.9567 0.375977 19.3551 0.375977 12.4994C0.375977 5.64318 5.93576 0.0839844 12.7914 0.0839844ZM12.7914 3.01018C7.56607 3.01018 3.30218 7.27407 3.30218 12.4994C3.30218 17.7666 7.56607 21.9887 12.7914 21.9887C18.0168 21.9887 22.2807 17.7666 22.2807 12.4994C22.2807 7.27407 18.0168 3.01018 12.7914 3.01018Z" fill="black"/>
<path d="M12.7916 2.96875C15.4252 2.96875 17.8079 4.01382 19.5637 5.76953C20.4541 6.6578 21.16 7.71346 21.6407 8.87572C22.1214 10.038 22.3673 11.2838 22.3644 12.5416C22.3644 15.1746 21.2776 17.5579 19.5637 19.3136C17.8079 21.0269 15.4252 22.1138 12.7916 22.1138C10.253 22.1113 7.81854 21.1047 6.01954 19.3136C4.30562 17.5579 3.21875 15.1746 3.21875 12.5416C3.21875 9.8662 4.30562 7.48286 6.01954 5.76953C7.73346 4.01382 10.158 2.96875 12.7916 2.96875ZM12.7916 3.09416C10.1998 3.09416 7.81706 4.13923 6.10315 5.85314C4.38923 7.56705 3.34416 9.908 3.34416 12.5416C3.34416 15.1333 4.38923 17.5155 6.10315 19.23C7.81648 20.9021 10.1998 21.989 12.7916 21.989C15.3834 21.989 17.7661 20.9021 19.4806 19.23C20.3572 18.351 21.052 17.3078 21.5254 16.1602C21.9988 15.0126 22.2415 13.783 22.2396 12.5416C22.2396 9.908 21.194 7.56705 19.4806 5.85256C17.7049 4.08247 15.2988 3.09025 12.7916 3.09416Z" fill="black"/>
<path d="M12.792 0C15.6346 0 18.31 0.961464 20.4001 2.59177L20.3583 2.63358C18.1829 0.979062 15.5251 0.0833334 12.792 0.0836056C5.93635 0.0836056 0.376574 5.6428 0.376574 12.499C0.376574 19.3547 5.93635 24.9563 12.792 24.9563C19.6477 24.9563 25.2075 19.3547 25.2075 12.499C25.2075 9.74005 24.3296 7.1895 22.7829 5.09994L22.8247 5.05814C24.3714 7.14886 25.2911 9.69825 25.2911 12.499C25.2911 15.9687 23.8698 19.1039 21.6124 21.3612C19.3545 23.6192 16.2617 24.9986 12.792 24.9986C11.1548 25.0022 9.53304 24.6827 8.01949 24.0585C6.50595 23.4344 5.1304 22.5178 3.97162 21.3612C1.71427 19.0621 0.292969 15.9687 0.292969 12.499C0.292969 9.0712 1.71427 5.936 3.97162 3.67865C6.22897 1.42129 9.32239 0 12.792 0Z" fill="black"/>
<path d="M12.7919 3.05273C18.0172 3.05273 22.2811 7.27482 22.2811 12.5425C22.2811 17.7679 18.0172 22.0318 12.7919 22.0318C7.5666 22.0318 3.30273 17.7673 3.30273 12.542C3.30273 7.27482 7.5666 3.05273 12.7919 3.05273ZM12.7919 4.39042C8.31905 4.39042 4.68222 8.02727 4.68222 12.542C4.68222 17.0143 8.31905 20.6517 12.7919 20.6517C17.2648 20.6517 20.9016 17.0143 20.9016 12.542C20.9016 8.02727 17.2648 4.39042 12.7919 4.39042Z" fill="black"/>
<path opacity="0.67" d="M1.44825 15.5126C1.44825 15.5248 1.45115 15.5353 1.45754 15.5457C1.46276 15.5556 1.47147 15.5597 1.48425 15.5597C1.49354 15.5597 1.50167 15.5574 1.51154 15.5527C1.52208 15.547 1.53184 15.54 1.54057 15.5318V15.4395C1.50573 15.4453 1.48192 15.4534 1.46857 15.4656C1.46206 15.4716 1.45689 15.4788 1.45339 15.4869C1.44988 15.4951 1.44813 15.5038 1.44825 15.5126Z" fill="black"/>
<path opacity="0.67" d="M3.21777 15.248H3.27642V15.2974H3.21777V15.248Z" fill="black"/>
<path opacity="0.67" d="M3.21777 15.3066H3.27642V15.3571H3.21777V15.3066Z" fill="black"/>
<path opacity="0.67" d="M2.03614 15.5126C2.03614 15.5248 2.03962 15.5353 2.04543 15.5457C2.05065 15.5556 2.05936 15.5597 2.07213 15.5597C2.08142 15.5597 2.09013 15.5574 2.09942 15.5527C2.10871 15.5481 2.118 15.5411 2.12845 15.5318V15.4395C2.09361 15.4453 2.06981 15.4534 2.05646 15.4656C2.04995 15.4716 2.04478 15.4788 2.04128 15.4869C2.03777 15.4951 2.03602 15.5038 2.03614 15.5126Z" fill="black"/>
<path opacity="0.67" d="M3.47168 15.334H3.63191V15.41H3.47168V15.334Z" fill="black"/>
<path opacity="0.67" d="M5.09152 15.0723H0.646484C0.756217 15.5942 0.908332 16.1005 1.08135 16.5964H5.77836C5.49747 16.1134 5.26729 15.6026 5.09152 15.0723ZM3.19646 15.1692L3.23071 15.1907L3.21852 15.2046V15.2401H3.27426L3.28645 15.2203L3.30967 15.2476L3.29748 15.2615V15.2987H3.30387L3.3207 15.2772L3.34509 15.3086H3.29632L3.29748 15.3753L3.276 15.3881V15.3684H3.21794V15.4259H3.26206L3.27716 15.4021L3.30038 15.4357H3.21794V15.4886H3.28993L3.30677 15.4613L3.3329 15.4973H3.21794C3.21794 15.5193 3.21852 15.5431 3.22084 15.5681L3.19646 15.5797C3.19762 15.5495 3.19878 15.5222 3.19878 15.4973H3.13723C3.12909 15.4969 3.12102 15.4989 3.11401 15.5031L3.10008 15.4874H3.19878V15.4346H3.15407C3.14536 15.4346 3.14014 15.4363 3.13549 15.4404L3.1233 15.4253H3.19878V15.3678H3.15407C3.14536 15.3678 3.14014 15.3695 3.13549 15.3742L3.1233 15.3579H3.19878V15.3074H3.13259C3.12388 15.3074 3.11866 15.3092 3.11459 15.3132L3.1024 15.2975H3.19936V15.2488H3.15697C3.14827 15.2488 3.14246 15.2511 3.1384 15.2552L3.1262 15.2395H3.1982C3.19859 15.2161 3.19801 15.1926 3.19646 15.1692ZM1.36758 15.5716H1.24798V15.5594H1.2834C1.2892 15.5594 1.29269 15.5582 1.29501 15.5553C1.29733 15.5524 1.29791 15.549 1.29791 15.5437V15.2639C1.29817 15.2598 1.29715 15.2557 1.29501 15.2523C1.2935 15.2507 1.29168 15.2495 1.28969 15.2487C1.28769 15.2479 1.28555 15.2475 1.2834 15.2476H1.24856V15.236H1.26598C1.28412 15.2361 1.30181 15.2304 1.31649 15.2197H1.31939V15.5431C1.31939 15.5484 1.32055 15.5524 1.32288 15.5548C1.32578 15.5571 1.32868 15.5588 1.33333 15.5588H1.36932V15.571H1.36758V15.5716ZM1.58589 15.5611C1.58066 15.5687 1.57369 15.5728 1.56615 15.5728C1.55999 15.5731 1.55396 15.571 1.54931 15.567C1.54463 15.5612 1.54144 15.5545 1.54002 15.5472C1.53123 15.5551 1.5217 15.5621 1.51157 15.5681C1.50164 15.573 1.49069 15.5754 1.47964 15.5751C1.47178 15.5755 1.46392 15.5742 1.4566 15.5713C1.44929 15.5684 1.44269 15.5639 1.43725 15.5582C1.43233 15.5534 1.42846 15.5476 1.42586 15.5412C1.42326 15.5348 1.422 15.528 1.42216 15.5211C1.42216 15.4973 1.43029 15.4781 1.44596 15.4624C1.46164 15.4479 1.49299 15.4369 1.54002 15.4299V15.4061C1.54038 15.3949 1.53799 15.3837 1.53305 15.3736C1.52783 15.3643 1.51796 15.3608 1.50112 15.3608C1.48428 15.3608 1.47151 15.3643 1.46512 15.3724C1.45816 15.38 1.45467 15.3864 1.45757 15.3945C1.4593 15.3996 1.4593 15.4051 1.45757 15.4102C1.45656 15.4126 1.45486 15.4146 1.45269 15.4161C1.45053 15.4175 1.44799 15.4183 1.44538 15.4183C1.44349 15.4184 1.44161 15.418 1.4399 15.4172C1.43819 15.4163 1.43668 15.4152 1.43551 15.4137C1.4326 15.4096 1.43098 15.4047 1.43087 15.3997C1.43087 15.3875 1.43783 15.3765 1.45061 15.3655C1.46468 15.3551 1.48188 15.3497 1.49938 15.3504C1.5197 15.3504 1.53537 15.355 1.54524 15.3643C1.55628 15.3748 1.56034 15.3881 1.56034 15.4061V15.5356C1.56034 15.5466 1.56092 15.5524 1.56266 15.5542C1.5644 15.5559 1.56673 15.5571 1.57137 15.5571C1.5766 15.5571 1.58066 15.5542 1.5824 15.5484C1.58414 15.5426 1.58531 15.5344 1.58531 15.524H1.59285C1.59343 15.5414 1.59111 15.5542 1.58589 15.5611ZM1.78503 15.5716H1.72058V15.5594H1.72871C1.73394 15.5594 1.73742 15.5582 1.73974 15.5553C1.74207 15.5524 1.74207 15.5495 1.74207 15.5443V15.4125C1.74282 15.4 1.74021 15.3876 1.73452 15.3765C1.73228 15.3725 1.72898 15.3692 1.72499 15.3669C1.721 15.3647 1.71646 15.3636 1.71188 15.3637C1.70125 15.3643 1.69118 15.3686 1.68343 15.3759C1.67233 15.3852 1.66325 15.3967 1.65672 15.4096V15.5449C1.65672 15.5501 1.65788 15.5542 1.66078 15.5565C1.66311 15.5588 1.66659 15.5606 1.67065 15.5606H1.6782V15.5728H1.61375V15.5606H1.6213C1.62711 15.5606 1.63059 15.5594 1.63291 15.5565C1.63524 15.5536 1.63582 15.5501 1.63582 15.5449V15.3759C1.63582 15.3724 1.63524 15.3684 1.63408 15.3666C1.63291 15.3649 1.63059 15.3637 1.62769 15.3637H1.61375V15.3521H1.62479C1.63059 15.3521 1.63582 15.3515 1.63988 15.3504C1.64395 15.3492 1.64917 15.3463 1.65324 15.3417H1.65614V15.387C1.66389 15.3761 1.67307 15.3663 1.68343 15.3579C1.69171 15.3514 1.70194 15.348 1.71246 15.3481C1.72987 15.3481 1.74265 15.3539 1.75078 15.3649C1.75989 15.3812 1.76412 15.3997 1.76297 15.4183V15.5437C1.76297 15.549 1.76413 15.553 1.76703 15.5553C1.76993 15.5577 1.77342 15.5594 1.77748 15.5594H1.78503V15.5716ZM1.94818 15.5565C1.93889 15.5687 1.92786 15.5739 1.91276 15.5739C1.89767 15.5739 1.88605 15.5681 1.87851 15.5565C1.87096 15.5449 1.86631 15.5263 1.86631 15.5013V15.3643H1.82219V15.3527H1.83438C1.84021 15.3529 1.84598 15.3516 1.85124 15.3491C1.85649 15.3466 1.86106 15.3428 1.86457 15.3382C1.8727 15.3283 1.87676 15.3132 1.87909 15.2923L1.88025 15.2772H1.88954V15.3533H1.9505V15.3649H1.88954V15.5101C1.88954 15.5286 1.89244 15.5414 1.89767 15.5472C1.90289 15.5542 1.90986 15.5571 1.92089 15.5571C1.92564 15.5572 1.93035 15.5562 1.9346 15.554C1.93885 15.5519 1.94252 15.5488 1.94527 15.5449C1.95201 15.534 1.95618 15.5217 1.95747 15.5089L1.96559 15.513C1.96333 15.5286 1.95736 15.5436 1.94818 15.5565ZM2.17403 15.5611C2.1688 15.5687 2.16242 15.5728 2.15429 15.5728C2.14732 15.5728 2.1421 15.571 2.13803 15.567C2.13339 15.5629 2.13048 15.5559 2.12816 15.5472C2.11937 15.5551 2.10984 15.5621 2.09971 15.5681C2.09 15.573 2.07923 15.5754 2.06836 15.5751C2.06097 15.5755 2.05358 15.5744 2.04663 15.5718C2.03968 15.5693 2.0333 15.5654 2.02788 15.5604C2.02247 15.5554 2.01812 15.5493 2.0151 15.5425C2.01208 15.5358 2.01045 15.5285 2.0103 15.5211C2.01015 15.5102 2.01217 15.4994 2.01626 15.4893C2.02035 15.4793 2.02642 15.4701 2.03411 15.4624C2.04978 15.4479 2.08113 15.4369 2.12816 15.4299V15.4061C2.12852 15.3949 2.12613 15.3837 2.12119 15.3736C2.11655 15.3643 2.1061 15.3608 2.08984 15.3608C2.07242 15.3608 2.05965 15.3643 2.05326 15.3724C2.0463 15.38 2.04339 15.3864 2.04572 15.3945C2.04746 15.4003 2.04746 15.4055 2.04572 15.4102C2.04398 15.4148 2.03933 15.4183 2.03352 15.4183C2.03163 15.4184 2.02975 15.418 2.02804 15.4172C2.02633 15.4163 2.02483 15.4152 2.02365 15.4137C2.02095 15.4095 2.01953 15.4047 2.01959 15.3997C2.01959 15.3875 2.02598 15.3765 2.03933 15.3655C2.05334 15.3549 2.07058 15.3496 2.0881 15.3504C2.10784 15.3504 2.1241 15.355 2.13397 15.3643C2.14442 15.3748 2.14848 15.3881 2.14848 15.4061V15.5356C2.14848 15.5466 2.14906 15.5524 2.1508 15.5542C2.15255 15.5559 2.15487 15.5571 2.16009 15.5571C2.16532 15.5571 2.1688 15.5542 2.17054 15.5484C2.17229 15.5426 2.17345 15.5344 2.17345 15.524H2.181C2.1823 15.5368 2.17988 15.5497 2.17403 15.5611ZM2.36446 15.3928C2.36214 15.3974 2.35808 15.3992 2.35285 15.3992C2.34705 15.3992 2.34298 15.3974 2.34066 15.3928C2.33801 15.3882 2.33718 15.3828 2.33834 15.3777L2.33718 15.3672C2.3366 15.3655 2.33369 15.3637 2.32847 15.3637C2.31976 15.3637 2.31047 15.3701 2.29828 15.3835C2.28463 15.3999 2.27401 15.4185 2.26692 15.4386V15.5449C2.26692 15.5501 2.26808 15.5542 2.27041 15.5565C2.27273 15.5588 2.27621 15.5606 2.28086 15.5606H2.31453V15.5728H2.2019V15.5606H2.23325C2.23847 15.5606 2.24196 15.5594 2.24428 15.5565C2.2466 15.5536 2.24718 15.5501 2.24718 15.5449V15.3823C2.24724 15.3779 2.24625 15.3735 2.24428 15.3695C2.24196 15.3666 2.23847 15.3649 2.23325 15.3649H2.2019V15.3533H2.21409C2.23091 15.3534 2.24756 15.3498 2.26286 15.3428H2.2675V15.4137C2.27603 15.396 2.28719 15.3798 2.3006 15.3655C2.3052 15.3605 2.31076 15.3565 2.31694 15.3537C2.32313 15.3509 2.32981 15.3494 2.3366 15.3492C2.34705 15.3492 2.35459 15.3521 2.3604 15.3579C2.36621 15.3637 2.36911 15.3695 2.36911 15.3777C2.36853 15.3846 2.36737 15.3899 2.36446 15.3928ZM2.79701 15.4973V15.5757C2.79701 15.6029 2.78539 15.6221 2.76333 15.6326C2.76275 15.6134 2.74649 15.5989 2.71572 15.5902V15.582L2.75985 15.5867C2.76972 15.5873 2.7732 15.5791 2.7732 15.5623V15.4973H2.65012C2.63956 15.497 2.62906 15.4989 2.61934 15.5031L2.60715 15.488H2.77378L2.77262 15.4311L2.79236 15.4427L2.833 15.398H2.70701L2.69366 15.4038L2.68147 15.3881H2.833L2.84984 15.3684L2.87713 15.4073C2.86319 15.405 2.83707 15.4183 2.79759 15.4485L2.81268 15.4584L2.79759 15.4706V15.4874H2.90035L2.92183 15.4601L2.95261 15.4973H2.79701ZM2.95319 15.38C2.93867 15.38 2.92648 15.3881 2.91951 15.4038C2.88995 15.3888 2.8638 15.3679 2.84272 15.3423C2.82164 15.3167 2.80607 15.287 2.79701 15.2552H2.7883C2.7883 15.3155 2.78888 15.3527 2.78946 15.3643L2.76333 15.373C2.76449 15.344 2.76507 15.3086 2.76507 15.2644C2.73147 15.3348 2.67468 15.3914 2.60425 15.4247L2.60309 15.416C2.66456 15.3769 2.71337 15.3208 2.74359 15.2546H2.64895C2.6384 15.2543 2.6279 15.2562 2.61818 15.2604L2.60599 15.2447H2.76507L2.76333 15.1745L2.80281 15.1959L2.7883 15.2093V15.2447H2.90093L2.92241 15.2174L2.9497 15.2546H2.80455C2.81675 15.2855 2.83693 15.3127 2.86304 15.3333C2.88915 15.3539 2.92026 15.3672 2.95319 15.3719V15.38ZM3.34857 15.5913C3.32825 15.5995 3.31838 15.6082 3.3207 15.6209C3.28859 15.6221 3.25644 15.6221 3.22432 15.6209C3.19255 15.6205 3.16118 15.6138 3.13201 15.6012C3.10787 15.5909 3.08628 15.5754 3.06872 15.5559C3.0508 15.5864 3.02618 15.6124 2.99673 15.632L2.99209 15.6262C3.01987 15.6016 3.04221 15.5716 3.05769 15.5379C3.04085 15.5065 3.02853 15.4729 3.02112 15.4381L3.0275 15.4346C3.03694 15.4632 3.04919 15.4908 3.06408 15.517C3.07453 15.4828 3.0815 15.4381 3.08556 15.3841H3.04086L3.02866 15.4055L3.00776 15.3783L3.02576 15.3678C3.04422 15.33 3.06165 15.2916 3.07801 15.2528H3.02808L3.01067 15.2586L2.99847 15.243H3.08034L3.09369 15.2215L3.11517 15.2534L3.09833 15.2633C3.0815 15.2987 3.06234 15.3359 3.04318 15.3748H3.0844L3.09659 15.3573L3.11982 15.3846L3.10646 15.398C3.10207 15.4443 3.09292 15.49 3.07918 15.5344C3.09358 15.5516 3.11247 15.5645 3.13375 15.5716C3.16009 15.581 3.18768 15.5865 3.21562 15.5879C3.24639 15.5908 3.29109 15.5879 3.35031 15.5832L3.34857 15.5913ZM3.72596 15.5873C3.70796 15.5913 3.69693 15.6012 3.69402 15.6192C3.66737 15.609 3.64187 15.5959 3.61797 15.5803C3.59511 15.5641 3.57544 15.5438 3.55991 15.5205C3.54088 15.4903 3.52768 15.4568 3.52101 15.4218H3.47224V15.5786L3.55468 15.5333L3.55759 15.5391C3.52095 15.5604 3.48881 15.5886 3.46295 15.6221L3.44495 15.589C3.44951 15.5819 3.45212 15.5737 3.4525 15.5652V15.2824C3.4525 15.2615 3.45192 15.2435 3.45076 15.2279L3.47224 15.247H3.55004C3.54691 15.2226 3.53795 15.1993 3.52391 15.1791L3.52681 15.1727C3.55236 15.1872 3.56687 15.2 3.57036 15.2116C3.57384 15.2232 3.57036 15.2354 3.55991 15.247H3.629L3.64119 15.2279L3.66558 15.2552L3.65164 15.2668V15.3783L3.6528 15.4293L3.63132 15.4392V15.4218H3.5303C3.53942 15.4523 3.55334 15.4811 3.57152 15.5071C3.60778 15.4871 3.64006 15.4605 3.66674 15.4288L3.68938 15.4677H3.67138C3.64061 15.481 3.61042 15.4979 3.57791 15.5141C3.59701 15.5368 3.62159 15.5542 3.64932 15.5646C3.67404 15.5738 3.70018 15.5785 3.72654 15.5786L3.72596 15.5873Z" fill="black"/>
<path opacity="0.67" d="M3.47168 15.2559H3.63191V15.3244H3.47168V15.2559Z" fill="black"/>
<path opacity="0.86" d="M20.498 15.0723H24.9426C24.8311 15.5892 24.6858 16.0984 24.5077 16.5964H19.8105C20.0892 16.1162 20.3215 15.6076 20.498 15.0723Z" fill="black"/>
<path d="M25.1655 9.36523C25.4581 10.3691 25.5835 11.4136 25.5835 12.5004C25.5835 13.6291 25.4163 14.7154 25.1655 15.761H0.459961V15.7192H25.1237C25.4163 14.6741 25.5417 13.5873 25.5417 12.4586C25.5417 11.3717 25.4163 10.3267 25.1655 9.36523Z" fill="black"/>
<path d="M0.418028 9.32227H25.1653C25.4161 10.3255 25.5409 11.37 25.5409 12.4569C25.5409 13.5855 25.4155 14.6724 25.1229 15.7175H0.459831C0.157984 14.657 0.0032607 13.56 0 12.4574C0 11.3706 0.167211 10.3255 0.418028 9.32227Z" fill="black"/>
<path d="M22.2389 0.417969L24.9979 3.17755L22.9496 5.22589L23.075 5.3931L21.6119 6.56301L21.1521 6.7308L24.1619 3.67918L21.7373 1.25461L18.7275 4.26442L18.8529 3.84639L22.2389 0.417969Z" fill="black"/>
<path d="M19.4805 0.126953C21.9051 1.42283 23.8698 3.42935 25.2069 5.8121V0.126953H19.4805Z" fill="black"/>
<path d="M19.4805 0.126953C21.9051 1.42283 23.8698 3.42935 25.2069 5.8121" stroke="black" stroke-linecap="round"/>
<path d="M19.4805 0.126953C21.88 1.43962 23.853 3.41259 25.1656 5.8121" stroke="black" stroke-linecap="round"/>
<path d="M19.4385 0.126953C21.863 1.42283 23.8278 3.42935 25.1655 5.8539" stroke="black" stroke-linecap="round"/>
<path d="M19.4385 0.126953C21.8213 1.46522 23.8279 3.42935 25.1238 5.8539" stroke="#FFD124" stroke-width="0.1" stroke-linecap="round"/>
<path d="M25.2074 0C25.2492 0 25.2916 0.0418025 25.2916 0.125407H19.3965C19.3971 0.0418025 19.4389 0 19.4807 0H25.2074Z" fill="black"/>
<path d="M25.2904 5.81059C25.2904 5.89478 25.2486 5.93658 25.2063 5.93658L25.165 5.8524V0H25.2063C25.2481 0 25.2904 0.0418028 25.2904 0.125408V5.81059Z" fill="black"/>
<path d="M21.737 14.0642C20.6211 14.0642 19.7136 13.3808 19.7136 12.5419C19.7136 11.7023 20.6211 11.0195 21.737 11.0195C22.8761 11.0195 23.8028 11.7023 23.8028 12.5419C23.8028 13.3814 22.8761 14.0642 21.737 14.0642ZM21.737 11.4724C21.3358 11.4724 21.0438 11.9224 21.0438 12.5424C21.0438 13.1283 21.3422 13.5701 21.737 13.5701C22.1121 13.5701 22.4302 13.0992 22.4302 12.5424C22.4308 11.952 22.119 11.4724 21.737 11.4724ZM9.02898 14.0642C7.9125 14.0642 7.00503 13.3808 7.00503 12.5419C7.00503 11.7389 7.93166 11.0608 9.02898 11.0608C10.1681 11.0608 11.0947 11.7255 11.0947 12.5419C11.0947 13.3814 10.1681 14.0642 9.02898 14.0642ZM9.02898 11.5142C8.63302 11.5142 8.33575 11.956 8.33575 12.5424C8.33575 13.1283 8.63418 13.5701 9.02898 13.5701C9.40405 13.5701 9.72163 13.0992 9.72163 12.5424C9.72163 11.9856 9.40521 11.5142 9.02898 11.5142ZM16.4699 13.9806L15.1589 11.5473L14.5057 11.5572L14.4883 11.1635L17.3483 11.1461L17.3657 11.5397L16.6377 11.5572L17.656 13.245L18.5031 11.5316L18.0172 11.5566L17.9997 11.1629L19.9819 11.1455L19.9993 11.5392L19.313 11.5566L18.0276 13.9812H16.4699V13.9806ZM11.2445 13.9806L11.2271 13.5033L11.914 13.4865L11.8965 11.5392L11.2451 11.5566L11.2277 11.1629L13.8787 11.1455L13.8961 11.5392L13.2093 11.5566L13.2267 13.5039L13.9199 13.4871C14.1452 13.4871 14.7385 13.3396 14.7798 12.6673L15.2152 12.651L15.2326 13.9817H11.2445V13.9806ZM3.76184 13.9806L2.45086 11.5473L1.79769 11.5572L1.78027 11.1635L4.64028 11.1461L4.65769 11.5397L3.92963 11.5572L4.94799 13.245L5.83746 11.5316L5.30912 11.5572L5.2917 11.1635L7.27385 11.1461L7.29127 11.5397L6.60442 11.5572L5.31899 13.9817L3.76184 13.9806Z" fill="#FFD124"/>
<path d="M21.7374 11.0368C22.8661 11.0368 23.7857 11.7056 23.7857 12.5423C23.7857 13.3778 22.8661 14.0472 21.7374 14.0472C20.6505 14.0472 19.7309 13.3783 19.7309 12.5423C19.7309 11.7056 20.6505 11.0368 21.7374 11.0368ZM21.7374 13.5868C22.1131 13.5868 22.4481 13.1269 22.4481 12.5417C22.4481 11.9147 22.1136 11.4548 21.7374 11.4548C21.3194 11.4548 21.0262 11.9147 21.0262 12.5417C21.0268 13.1269 21.3194 13.5868 21.7374 13.5868ZM9.0294 11.0786C10.1575 11.0786 11.0771 11.7474 11.0771 12.5423C11.0771 13.3778 10.1575 14.0472 9.0294 14.0472C7.94253 14.0472 7.02287 13.3783 7.02287 12.5423C7.02287 11.7474 7.94253 11.0786 9.0294 11.0786ZM9.0294 13.5868C9.40504 13.5868 9.74004 13.1269 9.74004 12.5417C9.74004 11.9559 9.40562 11.496 9.0294 11.496C8.61079 11.496 8.31817 11.9559 8.31817 12.5417C8.31875 13.1269 8.61137 13.5868 9.0294 13.5868ZM19.9817 11.1622V11.5378H19.3134L18.0176 13.9624H16.4709L15.1756 11.5378H14.5067V11.1622H17.3493V11.5378H16.6386L17.6425 13.2518L18.5204 11.5378H18.0187V11.1622H19.9817ZM13.8785 11.1622V11.5378H13.2097V13.5026H13.9209C14.1717 13.5026 14.7564 13.3354 14.7987 12.6671H15.2168V13.9624H11.2449V13.5026H11.9138V11.5378H11.2449V11.1622H13.8785ZM7.27368 11.1622V11.5378H6.60484L5.30954 13.9624H3.76226L2.46637 11.5378H1.79753V11.1622H4.64011V11.5378H3.92947L4.93273 13.2518L5.85239 11.5378H5.30896V11.1622H7.27368ZM21.7374 11.002C20.6122 11.002 19.6955 11.6923 19.6955 12.5417C19.6955 13.3905 20.6111 14.0809 21.7374 14.0809C22.8864 14.0809 23.8206 13.3911 23.8206 12.5417C23.8206 11.6917 22.8858 11.002 21.7374 11.002ZM21.7374 13.5519C21.3519 13.5519 21.0616 13.1177 21.0616 12.5423C21.0616 11.9321 21.3455 11.4902 21.7374 11.4902C22.1102 11.4902 22.4132 11.9623 22.4132 12.5423C22.4132 13.0892 22.1038 13.5519 21.7374 13.5519ZM9.0294 11.0438C7.92279 11.0438 6.98745 11.73 6.98745 12.5417C6.98745 13.3905 7.90305 14.0809 9.0294 14.0809C10.1784 14.0809 11.1126 13.3911 11.1126 12.5417C11.1126 11.7155 10.1784 11.0438 9.0294 11.0438ZM9.0294 13.5519C8.64388 13.5519 8.35359 13.1177 8.35359 12.5423C8.35359 11.9663 8.64388 11.532 9.0294 11.532C9.39575 11.532 9.70463 11.9948 9.70463 12.5423C9.70521 13.0892 9.39575 13.5519 9.0294 13.5519ZM20.0165 11.1274H17.9816V11.5738H18.4611L17.639 13.1804L16.699 11.5733H17.3841V11.1268H14.4713V11.5733H15.1535L16.4395 13.9793L16.4494 13.9978H18.0379L18.0477 13.9793L19.3343 11.5733H20.0171V11.1274H20.0165ZM13.9133 11.1274H11.2101V11.5738H11.8789V13.4689H11.2101V13.999H15.2516V12.6329H14.7657L14.7633 12.666C14.7221 13.3249 14.1409 13.4695 13.9203 13.4695H13.2445V11.5744H13.9133V11.1274ZM7.30852 11.1274H5.27412V11.5738H5.79433L4.93157 13.1821L3.99043 11.5738H4.67611V11.1274H1.7627V11.5738H2.44547L3.73207 13.9798L3.74194 13.9984H5.32986L5.33973 13.9798L6.62574 11.5738H7.30852V11.1274Z" fill="black"/>
<path d="M0.462953 9.37109C0.212134 10.3744 0.0449219 11.4189 0.0449219 12.5058C0.0449219 12.5958 0.0756936 13.1282 0.0785966 13.2182L0.151171 14.0258C0.15001 13.9608 0.117497 12.6445 0.117497 12.5789C0.117497 11.492 0.298643 10.4847 0.549462 9.48083L9.30663 9.44483L13.0863 9.37226L0.462953 9.37109Z" fill="black"/>
</g>
<defs>
<clipPath id="clip0_519_6633">
<rect width="25.5833" height="25" fill="white"/>
</clipPath>
</defs>
</svg>
