<svg width="1915" height="4" viewBox="0 0 1915 4" fill="none" xmlns="http://www.w3.org/2000/svg">
<path d="M1050 0H1066L1070 4H1054L1050 0Z" fill="#FFD124"/>
<path d="M180 0H196L200 4H184L180 0Z" fill="#FFD124"/>
<path d="M120 0H136L140 4H124L120 0Z" fill="#FFD124"/>
<path d="M60 0H76L80 4H64L60 0Z" fill="#FFD124"/>
<path d="M150 0H166L170 4H154L150 0Z" fill="#FFD124"/>
<path d="M90 0H106L110 4H94L90 0Z" fill="#FFD124"/>
<path d="M30 0H46L50 4H34L30 0Z" fill="#FFD124"/>
<path d="M0 0H16L20 4H4L0 0Z" fill="#FFD124"/>
<path d="M1230 0H1246L1250 4H1234L1230 0Z" fill="#FFD124"/>
<path d="M360 0H376L380 4H364L360 0Z" fill="#FFD124"/>
<path d="M1410 0H1426L1430 4H1414L1410 0Z" fill="#FFD124"/>
<path d="M540 0H556L560 4H544L540 0Z" fill="#FFD124"/>
<path d="M1590 0H1606L1610 4H1594L1590 0Z" fill="#FFD124"/>
<path d="M720 0H736L740 4H724L720 0Z" fill="#FFD124"/>
<path d="M1140 0H1156L1160 4H1144L1140 0Z" fill="#FFD124"/>
<path d="M270 0H286L290 4H274L270 0Z" fill="#FFD124"/>
<path d="M1320 0H1336L1340 4H1324L1320 0Z" fill="#FFD124"/>
<path d="M450 0H466L470 4H454L450 0Z" fill="#FFD124"/>
<path d="M1500 0H1516L1520 4H1504L1500 0Z" fill="#FFD124"/>
<path d="M630 0H646L650 4H634L630 0Z" fill="#FFD124"/>
<path d="M1680 0H1696L1700 4H1684L1680 0Z" fill="#FFD124"/>
<path d="M810 0H826L830 4H814L810 0Z" fill="#FFD124"/>
<path d="M1080 0H1096L1100 4H1084L1080 0Z" fill="#FFD124"/>
<path d="M210 0H226L230 4H214L210 0Z" fill="#FFD124"/>
<path d="M1260 0H1276L1280 4H1264L1260 0Z" fill="#FFD124"/>
<path d="M390 0H406L410 4H394L390 0Z" fill="#FFD124"/>
<path d="M1440 0H1456L1460 4H1444L1440 0Z" fill="#FFD124"/>
<path d="M570 0H586L590 4H574L570 0Z" fill="#FFD124"/>
<path d="M1620 0H1636L1640 4H1624L1620 0Z" fill="#FFD124"/>
<path d="M750 0H766L770 4H754L750 0Z" fill="#FFD124"/>
<path d="M1170 0H1186L1190 4H1174L1170 0Z" fill="#FFD124"/>
<path d="M300 0H316L320 4H304L300 0Z" fill="#FFD124"/>
<path d="M1350 0H1366L1370 4H1354L1350 0Z" fill="#FFD124"/>
<path d="M480 0H496L500 4H484L480 0Z" fill="#FFD124"/>
<path d="M1530 0H1546L1550 4H1534L1530 0Z" fill="#FFD124"/>
<path d="M660 0H676L680 4H664L660 0Z" fill="#FFD124"/>
<path d="M1710 0H1726L1730 4H1714L1710 0Z" fill="#FFD124"/>
<path d="M840 0H856L860 4H844L840 0Z" fill="#FFD124"/>
<path d="M1110 0H1126L1130 4H1114L1110 0Z" fill="#FFD124"/>
<path d="M240 0H256L260 4H244L240 0Z" fill="#FFD124"/>
<path d="M1290 0H1306L1310 4H1294L1290 0Z" fill="#FFD124"/>
<path d="M420 0H436L440 4H424L420 0Z" fill="#FFD124"/>
<path d="M1470 0H1486L1490 4H1474L1470 0Z" fill="#FFD124"/>
<path d="M600 0H616L620 4H604L600 0Z" fill="#FFD124"/>
<path d="M1650 0H1666L1670 4H1654L1650 0Z" fill="#FFD124"/>
<path d="M780 0H796L800 4H784L780 0Z" fill="#FFD124"/>
<path d="M1200 0H1216L1220 4H1204L1200 0Z" fill="#FFD124"/>
<path d="M330 0H346L350 4H334L330 0Z" fill="#FFD124"/>
<path d="M1380 0H1396L1400 4H1384L1380 0Z" fill="#FFD124"/>
<path d="M510 0H526L530 4H514L510 0Z" fill="#FFD124"/>
<path d="M1560 0H1576L1580 4H1564L1560 0Z" fill="#FFD124"/>
<path d="M690 0H706L710 4H694L690 0Z" fill="#FFD124"/>
<path d="M1740 0H1756L1760 4H1744L1740 0Z" fill="#FFD124"/>
<path d="M870 0H886L890 4H874L870 0Z" fill="#FFD124"/>
<path d="M1770 0H1786L1790 4H1774L1770 0Z" fill="#FFD124"/>
<path d="M900 0H916L920 4H904L900 0Z" fill="#FFD124"/>
<path d="M1860 0H1876L1880 4H1864L1860 0Z" fill="#FFD124"/>
<path d="M990 0H1006L1010 4H994L990 0Z" fill="#FFD124"/>
<path d="M1800 0H1816L1820 4H1804L1800 0Z" fill="#FFD124"/>
<path d="M930 0H946L950 4H934L930 0Z" fill="#FFD124"/>
<path d="M1890 0H1906L1910 4H1894L1890 0Z" fill="#FFD124"/>
<path d="M1020 0H1036L1040 4H1024L1020 0Z" fill="#FFD124"/>
<path d="M1830 0H1846L1850 4H1834L1830 0Z" fill="#FFD124"/>
<path d="M960 0H976L980 4H964L960 0Z" fill="#FFD124"/>
</svg>
