<svg width="20" height="20" viewBox="0 0 20 20" fill="none" xmlns="http://www.w3.org/2000/svg">
<g clip-path="url(#clip0_646_7668)">
<path d="M19.9997 10.92C19.9997 10.5266 19.9109 10.1509 19.7505 9.80711C19.734 9.71972 19.7151 9.63246 19.6915 9.54395L17.9542 5.23853L17.9424 5.1998C17.3346 3.38992 16.4697 1.71484 14.2766 1.71484H5.89163C3.6445 1.71484 2.85043 3.43143 2.22927 5.18974L0.412068 9.50566C0.149359 9.92658 0 10.4081 0 10.92V12.2597C0 12.4669 0.0244837 12.6695 0.0710385 12.8646C0.0257794 12.9825 0 13.1096 0 13.2435V17.2282C0 17.8125 0.473679 18.2862 1.05798 18.2862H3.25347C3.83746 18.2862 4.31114 17.8125 4.31114 17.2282V15.2356H15.814V17.2282C15.814 17.8125 16.2878 18.2862 16.8721 18.2862H18.9419C19.5264 18.2862 20 17.8125 20 17.2282V13.2431C20 13.1096 19.974 12.982 19.9291 12.8645C19.9754 12.669 20 12.4666 20 12.2595V10.92H19.9997V10.92ZM3.51859 5.622C4.21035 3.67032 4.76664 3.07454 5.89163 3.07454H14.2761C15.3929 3.07454 16.0147 3.73904 16.6466 5.61361L17.9143 8.1827C17.5004 8.0294 17.0449 7.94434 16.5663 7.94434H3.43348C3.00256 7.94434 2.59076 8.01363 2.21082 8.13905L3.51859 5.622ZM4.60763 12.7685H2.29115C1.87407 12.7685 1.53582 12.4299 1.53582 12.0129C1.53582 11.5958 1.87407 11.2574 2.29115 11.2574H4.60763C5.02488 11.2574 5.36314 11.5958 5.36314 12.0129C5.36314 12.4299 5.02465 12.7685 4.60763 12.7685ZM12.7907 12.6172H7.40248C7.13829 12.6172 6.92424 12.403 6.92424 12.139C6.92424 11.8744 7.13829 11.6603 7.40248 11.6603H12.7907C13.0552 11.6603 13.2692 11.8744 13.2692 12.139C13.2692 12.403 13.0552 12.6172 12.7907 12.6172ZM17.6502 12.7685H15.3338C14.9164 12.7685 14.5783 12.4299 14.5783 12.0129C14.5783 11.5958 14.9166 11.2574 15.3338 11.2574H17.6502C18.0676 11.2574 18.406 11.5958 18.406 12.0129C18.406 12.4299 18.0676 12.7685 17.6502 12.7685Z" fill="white"/>
</g>
<defs>
<clipPath id="clip0_646_7668">
<rect width="20" height="20" fill="white"/>
</clipPath>
</defs>
</svg>
