<svg width="20" height="20" viewBox="0 0 20 20" fill="none" xmlns="http://www.w3.org/2000/svg">
<g clip-path="url(#clip0_646_7654)">
<path d="M19.7495 9.76533C20.112 9.3666 20.077 8.75546 19.6713 8.40067L10.733 0.579647C10.3273 0.224857 9.67689 0.232289 9.27972 0.596402L0.311058 8.81766C-0.0861096 9.18177 -0.105603 9.79213 0.267899 10.1804L0.492756 10.4145C0.865801 10.8028 1.46879 10.8491 1.8387 10.5176L2.50897 9.91737V18.7051C2.50897 19.2443 2.94584 19.6807 3.48461 19.6807H6.98062C7.51939 19.6807 7.95627 19.2443 7.95627 18.7051V12.5572H12.4155V18.7051C12.4077 19.2439 12.7932 19.6803 13.332 19.6803H17.0369C17.5756 19.6803 18.0125 19.2439 18.0125 18.7047V10.0411C18.0125 10.0411 18.1977 10.2033 18.426 10.404C18.654 10.6044 19.1329 10.4437 19.4954 10.0446L19.7495 9.76533Z" fill="white"/>
</g>
<defs>
<clipPath id="clip0_646_7654">
<rect width="20" height="20" fill="white"/>
</clipPath>
</defs>
</svg>
