<svg width="20" height="20" viewBox="0 0 20 20" fill="none" xmlns="http://www.w3.org/2000/svg">
<g clip-path="url(#clip0_646_7681)">
<path d="M10 0C8.02219 0 6.08879 0.586489 4.4443 1.6853C2.79981 2.78412 1.51809 4.3459 0.761209 6.17316C0.00433286 8.00042 -0.193701 10.0111 0.192152 11.9509C0.578004 13.8907 1.53041 15.6725 2.92894 17.0711C4.32746 18.4696 6.10929 19.422 8.0491 19.8078C9.98891 20.1937 11.9996 19.9957 13.8268 19.2388C15.6541 18.4819 17.2159 17.2002 18.3147 15.5557C19.4135 13.9112 20 11.9778 20 10C19.9971 7.34871 18.9426 4.80684 17.0679 2.9321C15.1932 1.05736 12.6513 0.00286757 10 0V0ZM10 15.8333C9.83519 15.8333 9.67407 15.7845 9.53703 15.6929C9.39999 15.6013 9.29318 15.4712 9.23011 15.3189C9.16703 15.1666 9.15053 14.9991 9.18268 14.8374C9.21484 14.6758 9.29421 14.5273 9.41075 14.4107C9.52729 14.2942 9.67578 14.2148 9.83743 14.1827C9.99908 14.1505 10.1666 14.167 10.3189 14.2301C10.4712 14.2932 10.6013 14.4 10.6929 14.537C10.7845 14.6741 10.8333 14.8352 10.8333 15C10.8333 15.221 10.7455 15.433 10.5893 15.5893C10.433 15.7455 10.221 15.8333 10 15.8333ZM11.2725 10.5833C11.136 10.6497 11.0218 10.7544 10.9438 10.8846C10.8658 11.0149 10.8274 11.165 10.8333 11.3167V11.6667C10.8333 11.8877 10.7455 12.0996 10.5893 12.2559C10.433 12.4122 10.221 12.5 10 12.5C9.77899 12.5 9.56703 12.4122 9.41075 12.2559C9.25447 12.0996 9.16667 11.8877 9.16667 11.6667V11.3167C9.15807 10.8342 9.29327 10.3602 9.55507 9.95487C9.81686 9.54956 10.1934 9.23137 10.6367 9.04083C10.9905 8.89432 11.2832 8.63039 11.4653 8.29346C11.6474 7.95653 11.7079 7.56715 11.6367 7.19083C11.5725 6.86107 11.4113 6.55799 11.1737 6.32044C10.9362 6.08289 10.6331 5.92169 10.3033 5.8575C10.0626 5.81293 9.8149 5.82197 9.57801 5.88397C9.34111 5.94597 9.12079 6.05941 8.93271 6.21623C8.74463 6.37304 8.59341 6.56937 8.48982 6.79125C8.38623 7.01314 8.3328 7.25512 8.33334 7.5C8.33334 7.72101 8.24554 7.93297 8.08926 8.08925C7.93298 8.24553 7.72102 8.33333 7.50001 8.33333C7.27899 8.33333 7.06703 8.24553 6.91075 8.08925C6.75447 7.93297 6.66667 7.72101 6.66667 7.5C6.66712 6.89633 6.83148 6.30412 7.14223 5.78657C7.45297 5.26903 7.89843 4.84559 8.43104 4.56145C8.96366 4.27731 9.56344 4.14314 10.1664 4.17327C10.7693 4.20339 11.3527 4.39668 11.8543 4.7325C12.356 5.06831 12.757 5.53405 13.0146 6.07999C13.2722 6.62594 13.3767 7.23159 13.317 7.83229C13.2572 8.43299 13.0355 9.0062 12.6754 9.49072C12.3153 9.97524 11.8305 10.3529 11.2725 10.5833Z" fill="white"/>
</g>
<defs>
<clipPath id="clip0_646_7681">
<rect width="20" height="20" fill="white"/>
</clipPath>
</defs>
</svg>
