<svg width="20" height="20" viewBox="0 0 20 20" fill="none" xmlns="http://www.w3.org/2000/svg">
<path d="M14.9997 0.833984H4.99968C3.89501 0.835308 2.83597 1.27472 2.05486 2.05584C1.27374 2.83695 0.834331 3.89599 0.833008 5.00065V11.6673C0.83422 12.6275 1.16642 13.5579 1.77361 14.3017C2.3808 15.0455 3.22585 15.5572 4.16634 15.7507V18.334C4.16632 18.4849 4.20726 18.6329 4.28478 18.7623C4.36231 18.8918 4.47351 18.9977 4.60654 19.0689C4.73956 19.1401 4.88942 19.1738 5.04011 19.1665C5.1908 19.1592 5.33668 19.1111 5.46218 19.0273L10.2497 15.834H14.9997C16.1043 15.8327 17.1634 15.3933 17.9445 14.6121C18.7256 13.831 19.165 12.772 19.1664 11.6673V5.00065C19.165 3.89599 18.7256 2.83695 17.9445 2.05584C17.1634 1.27472 16.1043 0.835308 14.9997 0.833984ZM13.333 10.834H6.66635C6.44533 10.834 6.23337 10.7462 6.07709 10.5899C5.92081 10.4336 5.83301 10.2217 5.83301 10.0007C5.83301 9.77964 5.92081 9.56768 6.07709 9.4114C6.23337 9.25512 6.44533 9.16732 6.66635 9.16732H13.333C13.554 9.16732 13.766 9.25512 13.9223 9.4114C14.0786 9.56768 14.1664 9.77964 14.1664 10.0007C14.1664 10.2217 14.0786 10.4336 13.9223 10.5899C13.766 10.7462 13.554 10.834 13.333 10.834ZM14.9997 7.50066H4.99968C4.77866 7.50066 4.5667 7.41286 4.41042 7.25658C4.25414 7.1003 4.16634 6.88834 4.16634 6.66732C4.16634 6.44631 4.25414 6.23435 4.41042 6.07807C4.5667 5.92179 4.77866 5.83399 4.99968 5.83399H14.9997C15.2207 5.83399 15.4327 5.92179 15.5889 6.07807C15.7452 6.23435 15.833 6.44631 15.833 6.66732C15.833 6.88834 15.7452 7.1003 15.5889 7.25658C15.4327 7.41286 15.2207 7.50066 14.9997 7.50066Z" fill="white"/>
</svg>
