<svg width="22" height="22" viewBox="0 0 22 22" fill="none" xmlns="http://www.w3.org/2000/svg">
<g clip-path="url(#clip0_683_8233)">
<path d="M17.6346 3.16595C17.6488 2.49161 17.6232 2.06553 17.6232 2.06553L11.0334 2.06055H11H10.9666L4.3761 2.06553C4.3761 2.06553 4.3512 2.49161 4.36543 3.16595H0V3.88582C0 4.05013 0.0277419 7.92617 2.41994 10.0495C3.41794 10.9351 4.66276 11.3804 6.13024 11.3811C6.35217 11.3811 6.58051 11.3662 6.81169 11.3462C7.64537 12.4879 8.60851 13.2875 9.69186 13.6858V16.8477H6.51151V18.828H5.46088V19.9384H10.9666H11.0334H16.5391V18.8287H15.4878V16.8484H12.3074V13.6865C13.3901 13.2882 14.3539 12.4886 15.1876 11.3469C15.4202 11.3669 15.6485 11.3811 15.8705 11.3811C17.3372 11.3797 18.5821 10.9351 19.58 10.0488C21.9722 7.92546 22 4.04942 22 3.88511V3.16595H17.6346ZM3.38024 8.97609C2.01377 7.76683 1.60974 5.69686 1.49023 4.60568H4.44794C4.57314 5.96503 4.86763 7.65871 5.54695 9.14752C5.67143 9.42067 5.80231 9.67959 5.93604 9.93283C4.91671 9.8937 4.05884 9.57574 3.38024 8.97609ZM18.6198 8.97609C17.9419 9.57645 17.0833 9.8937 16.0647 9.93283C16.1984 9.68031 16.3293 9.42067 16.4538 9.14752C17.1331 7.65871 17.4276 5.96503 17.552 4.60568H20.5098C20.3903 5.69615 19.9869 7.76612 18.6198 8.97609Z" fill="white"/>
</g>
<defs>
<clipPath id="clip0_683_8233">
<rect width="22" height="22" fill="white"/>
</clipPath>
</defs>
</svg>
