<svg width="1915" height="4" fill="none" xmlns="http://www.w3.org/2000/svg"><path d="M1050 0h16l4 4h-16l-4-4ZM180 0h16l4 4h-16l-4-4Zm-60 0h16l4 4h-16l-4-4ZM60 0h16l4 4H64l-4-4Zm90 0h16l4 4h-16l-4-4ZM90 0h16l4 4H94l-4-4ZM30 0h16l4 4H34l-4-4ZM0 0h16l4 4H4L0 0Zm1230 0h16l4 4h-16l-4-4ZM360 0h16l4 4h-16l-4-4Zm1050 0h16l4 4h-16l-4-4ZM540 0h16l4 4h-16l-4-4Zm1050 0h16l4 4h-16l-4-4ZM720 0h16l4 4h-16l-4-4Zm420 0h16l4 4h-16l-4-4ZM270 0h16l4 4h-16l-4-4Zm1050 0h16l4 4h-16l-4-4ZM450 0h16l4 4h-16l-4-4Zm1050 0h16l4 4h-16l-4-4ZM630 0h16l4 4h-16l-4-4Zm1050 0h16l4 4h-16l-4-4ZM810 0h16l4 4h-16l-4-4Zm270 0h16l4 4h-16l-4-4ZM210 0h16l4 4h-16l-4-4Zm1050 0h16l4 4h-16l-4-4ZM390 0h16l4 4h-16l-4-4Zm1050 0h16l4 4h-16l-4-4ZM570 0h16l4 4h-16l-4-4Zm1050 0h16l4 4h-16l-4-4ZM750 0h16l4 4h-16l-4-4Zm420 0h16l4 4h-16l-4-4ZM300 0h16l4 4h-16l-4-4Zm1050 0h16l4 4h-16l-4-4ZM480 0h16l4 4h-16l-4-4Zm1050 0h16l4 4h-16l-4-4ZM660 0h16l4 4h-16l-4-4Zm1050 0h16l4 4h-16l-4-4ZM840 0h16l4 4h-16l-4-4Zm270 0h16l4 4h-16l-4-4ZM240 0h16l4 4h-16l-4-4Zm1050 0h16l4 4h-16l-4-4ZM420 0h16l4 4h-16l-4-4Zm1050 0h16l4 4h-16l-4-4ZM600 0h16l4 4h-16l-4-4Zm1050 0h16l4 4h-16l-4-4ZM780 0h16l4 4h-16l-4-4Zm420 0h16l4 4h-16l-4-4ZM330 0h16l4 4h-16l-4-4Zm1050 0h16l4 4h-16l-4-4ZM510 0h16l4 4h-16l-4-4Zm1050 0h16l4 4h-16l-4-4ZM690 0h16l4 4h-16l-4-4Zm1050 0h16l4 4h-16l-4-4ZM870 0h16l4 4h-16l-4-4Zm900 0h16l4 4h-16l-4-4ZM900 0h16l4 4h-16l-4-4Zm960 0h16l4 4h-16l-4-4ZM990 0h16l4 4h-16l-4-4Zm810 0h16l4 4h-16l-4-4ZM930 0h16l4 4h-16l-4-4Zm960 0h16l4 4h-16l-4-4Zm-870 0h16l4 4h-16l-4-4Zm810 0h16l4 4h-16l-4-4ZM960 0h16l4 4h-16l-4-4Z" fill="#000"/></svg>