<svg width="162" height="89" fill="none" xmlns="http://www.w3.org/2000/svg"><mask id="b" style="mask-type:alpha" maskUnits="userSpaceOnUse" x="0" y="0" width="162" height="89"><mask id="a" fill="#fff"><rect width="162" height="89" rx="3"/></mask><rect width="162" height="89" rx="3" stroke="#000" stroke-width="12" mask="url(#a)"/></mask><g mask="url(#b)" fill="#FFD124"><path d="m113.029-136 3.522 3.549L-81.477 64.083-85 60.535zm56.354 56.783 3.522 3.549-198.028 196.534-3.522-3.548zm-42.266-42.588 3.522 3.549L-67.389 78.278l-3.522-3.548zm56.356 56.783 3.522 3.549-198.028 196.535-3.522-3.55zm-42.266-42.587 3.522 3.549L-53.299 92.474l-3.522-3.548zm56.353 56.783 3.523 3.549L3.055 149.257l-3.522-3.549zm-42.265-42.586 3.522 3.549L-39.21 106.67l-3.522-3.548zm56.353 56.781 3.522 3.549L17.142 163.452l-3.522-3.548zm14.088 14.195 3.522 3.549L31.23 177.648l-3.522-3.55zm14.09 14.196 3.522 3.549L45.32 191.843l-3.522-3.549zm14.088 14.195 3.522 3.549L59.408 206.038l-3.522-3.548zm14.088 14.197 3.522 3.549L73.496 220.236l-3.522-3.55z"/></g></svg>