<svg width="20" height="20" fill="none" xmlns="http://www.w3.org/2000/svg"><g clip-path="url(#a)"><path d="M20 10.92c0-.393-.09-.77-.25-1.113a3.629 3.629 0 0 0-.058-.263l-1.738-4.305-.012-.04c-.607-1.81-1.472-3.484-3.665-3.484H5.892c-2.248 0-3.042 1.716-3.663 3.475L.412 9.506A2.66 2.66 0 0 0 0 10.92v1.34c0 .207.024.41.071.605a1.053 1.053 0 0 0-.071.378v3.985c0 .584.474 1.058 1.058 1.058h2.195c.584 0 1.058-.474 1.058-1.058v-1.992h11.503v1.992c0 .584.474 1.058 1.058 1.058h2.07c.584 0 1.058-.474 1.058-1.058v-3.985a1.06 1.06 0 0 0-.07-.379c.045-.195.07-.397.07-.605V10.92ZM3.519 5.622C4.21 3.67 4.767 3.075 5.892 3.075h8.384c1.117 0 1.739.664 2.37 2.539l1.268 2.569a3.88 3.88 0 0 0-1.348-.239H3.433c-.43 0-.842.07-1.222.195l1.308-2.517Zm1.089 7.146H2.29a.756.756 0 0 1 0-1.51h2.317a.756.756 0 0 1 0 1.51Zm8.183-.15H7.402a.478.478 0 0 1 0-.958h5.389a.478.478 0 1 1 0 .957Zm4.86.15h-2.317a.756.756 0 0 1 0-1.51h2.316a.756.756 0 1 1 0 1.51Z" fill="#fff"/></g><defs><clipPath id="a"><path fill="#fff" d="M0 0h20v20H0z"/></clipPath></defs></svg>