<svg width="22" height="22" fill="none" xmlns="http://www.w3.org/2000/svg"><g clip-path="url(#a)"><path d="M17.635 3.166c.014-.674-.012-1.1-.012-1.1l-6.59-.005h-.066l-6.59.005s-.026.426-.012 1.1H0v.72c0 .164.028 4.04 2.42 6.163.998.886 2.243 1.331 3.71 1.332.222 0 .45-.015.682-.035.833 1.142 1.797 1.941 2.88 2.34v3.162h-3.18v1.98H5.46v1.11h11.078v-1.11h-1.051v-1.98h-3.18v-3.161c1.082-.399 2.046-1.198 2.88-2.34.232.02.46.034.682.034 1.467-.001 2.712-.446 3.71-1.332 2.392-2.124 2.42-6 2.42-6.164v-.719h-4.365ZM3.38 8.976c-1.366-1.21-1.77-3.28-1.89-4.37h2.958c.125 1.359.42 3.053 1.099 4.542.124.273.255.532.389.785-1.02-.04-1.877-.357-2.556-.957Zm15.24 0c-.678.6-1.537.918-2.555.957.133-.253.264-.512.389-.785.68-1.49.974-3.183 1.098-4.542h2.958c-.12 1.09-.523 3.16-1.89 4.37Z" fill="#fff"/></g><defs><clipPath id="a"><path fill="#fff" d="M0 0h22v22H0z"/></clipPath></defs></svg>