<svg width="20" height="20" fill="none" xmlns="http://www.w3.org/2000/svg"><g clip-path="url(#a)"><path d="M19.75 9.765a.954.954 0 0 0-.079-1.364L10.733.58A1.114 1.114 0 0 0 9.28.596L.31 8.818a.948.948 0 0 0-.043 1.362l.225.235c.373.388.976.434 1.346.103l.67-.6v8.787c0 .54.437.976.976.976H6.98a.975.975 0 0 0 .975-.976v-6.148h4.46v6.148c-.008.539.377.975.916.975h3.705a.975.975 0 0 0 .976-.975V10.04l.413.363c.228.2.707.04 1.07-.36l.254-.279Z" fill="#fff"/></g><defs><clipPath id="a"><path fill="#fff" d="M0 0h20v20H0z"/></clipPath></defs></svg>