<svg width="20" height="20" fill="none" xmlns="http://www.w3.org/2000/svg"><g clip-path="url(#a)"><path d="M10 0a10 10 0 1 0 10 10A10.011 10.011 0 0 0 10 0Zm0 15.833a.833.833 0 1 1 0-1.666.833.833 0 0 1 0 1.666Zm1.273-5.25a.782.782 0 0 0-.44.734v.35a.834.834 0 0 1-1.666 0v-.35a2.43 2.43 0 0 1 1.47-2.276 1.667 1.667 0 0 0 .537-2.72 1.686 1.686 0 0 0-.87-.463A1.667 1.667 0 0 0 8.333 7.5a.833.833 0 0 1-1.667 0 3.333 3.333 0 1 1 4.606 3.083Z" fill="#fff"/></g><defs><clipPath id="a"><path fill="#fff" d="M0 0h20v20H0z"/></clipPath></defs></svg>