<svg width="30" height="30" viewBox="0 0 30 30" fill="none" xmlns="http://www.w3.org/2000/svg">
<g clip-path="url(#clip0_210_2331)">
<path fill-rule="evenodd" clip-rule="evenodd" d="M22.5 30H7.5C5.5109 29.9999 3.6033 29.2097 2.1968 27.8032C0.790291 26.3967 8.70173e-05 24.4891 0 22.5L0 7.5C8.70173e-05 5.5109 0.790291 3.6033 2.1968 2.1968C3.6033 0.790291 5.5109 8.70173e-05 7.5 0L22.5 0C24.4891 0 26.3968 0.790176 27.8033 2.1967C29.2098 3.60322 30 5.51088 30 7.5V22.5C30 24.4891 29.2098 26.3968 27.8033 27.8033C26.3968 29.2098 24.4891 30 22.5 30Z" fill="#199BDF"/>
<path fill-rule="evenodd" clip-rule="evenodd" d="M14.0625 8.4375H22.5C23.5815 8.43743 24.6217 8.02203 25.4058 7.27707C26.1899 6.53211 26.6579 5.51449 26.7132 4.43438C26.7686 3.35426 26.407 2.29414 25.7032 1.47294C24.9994 0.651736 24.0071 0.132179 22.9312 0.0215625C22.7878 0.0135938 22.6458 0 22.5 0H7.5C5.5109 8.70173e-05 3.6033 0.790291 2.1968 2.1968C0.790291 3.6033 8.70173e-05 5.5109 0 7.5L0 22.5C8.70205e-05 18.7704 1.4817 15.1936 4.11891 12.5564C6.75612 9.9192 10.3329 8.43759 14.0625 8.4375Z" fill="#32B4FF"/>
<path fill-rule="evenodd" clip-rule="evenodd" d="M22.5 15C21.0166 15 19.5666 15.4399 18.3332 16.264C17.0999 17.0881 16.1386 18.2594 15.5709 19.6299C15.0032 21.0003 14.8547 22.5083 15.1441 23.9632C15.4335 25.418 16.1478 26.7544 17.1967 27.8033C18.2456 28.8522 19.582 29.5665 21.0368 29.8559C22.4917 30.1453 23.9997 29.9968 25.3701 29.4291C26.7406 28.8614 27.9119 27.9001 28.736 26.6668C29.5601 25.4334 30 23.9834 30 22.5V7.5C30 9.48912 29.2098 11.3968 27.8033 12.8033C26.3968 14.2098 24.4891 15 22.5 15Z" fill="#0082BE"/>
<path fill-rule="evenodd" clip-rule="evenodd" d="M21.1314 7.98338C21.3619 7.88824 21.6135 7.85607 21.8604 7.89017C22.1074 7.92426 22.3408 8.02339 22.5369 8.17741C22.7329 8.33142 22.8845 8.53478 22.976 8.76665C23.0676 8.99852 23.0959 9.25057 23.058 9.49697C22.5117 13.0496 21.5102 19.5596 20.9785 23.0153C20.9418 23.2544 20.8439 23.48 20.6944 23.6702C20.545 23.8604 20.3489 24.0089 20.1253 24.1012C19.9017 24.1936 19.658 24.2266 19.4179 24.1973C19.1777 24.1679 18.9492 24.0771 18.7545 23.9335C16.8737 22.5479 14.054 20.4704 12.6224 19.4153C12.5119 19.3338 12.4207 19.2292 12.3551 19.1086C12.2895 18.9881 12.2512 18.8546 12.2428 18.7176C12.2345 18.5806 12.2563 18.4435 12.3068 18.3159C12.3572 18.1882 12.4351 18.0732 12.5349 17.979C13.8466 16.7401 16.4594 14.2726 18.257 12.5748C18.2993 12.5345 18.3251 12.4799 18.3293 12.4217C18.3335 12.3634 18.3157 12.3057 18.2796 12.2598C18.2434 12.2139 18.1914 12.1832 18.1338 12.1737C18.0762 12.1641 18.0171 12.1765 17.968 12.2082C15.6631 13.7115 12.1332 16.0135 10.4031 17.1418C10.0789 17.3533 9.7145 17.4955 9.33275 17.5597C8.95101 17.6238 8.56014 17.6084 8.18461 17.5145C7.23197 17.2764 5.85788 16.9328 4.63505 16.6271C4.4436 16.5793 4.27213 16.4723 4.14505 16.3213C4.01798 16.1703 3.94179 15.9831 3.92733 15.7863C3.91287 15.5895 3.96088 15.3931 4.06452 15.2252C4.16816 15.0573 4.32215 14.9263 4.50455 14.851C8.76136 13.0928 17.0919 9.65213 21.1314 7.98338Z" fill="white"/>
</g>
<defs>
<clipPath id="clip0_210_2331">
<rect width="30" height="30" fill="white"/>
</clipPath>
</defs>
</svg>
