<svg width="30" height="30" viewBox="0 0 30 30" fill="none" xmlns="http://www.w3.org/2000/svg">
<g clip-path="url(#clip0_210_2318)">
<path fill-rule="evenodd" clip-rule="evenodd" d="M22.5 30H7.5C6.51505 30.0001 5.53973 29.8062 4.62974 29.4293C3.71975 29.0525 2.89291 28.5 2.19645 27.8035C1.49999 27.1071 0.947549 26.2802 0.570678 25.3703C0.193807 24.4603 -0.000110778 23.4849 4.7476e-08 22.5V7.5C-0.000110778 6.51505 0.193807 5.53973 0.570678 4.62974C0.947549 3.71975 1.49999 2.89291 2.19645 2.19645C2.89291 1.49999 3.71975 0.947549 4.62974 0.570678C5.53973 0.193807 6.51505 -0.000110778 7.5 4.7476e-08H22.5C23.4849 -0.000110778 24.4603 0.193807 25.3703 0.570678C26.2802 0.947549 27.1071 1.49999 27.8035 2.19645C28.5 2.89291 29.0525 3.71975 29.4293 4.62974C29.8062 5.53973 30.0001 6.51505 30 7.5V22.5C30.0001 23.4849 29.8062 24.4603 29.4293 25.3703C29.0525 26.2802 28.5 27.1071 27.8035 27.8035C27.1071 28.5 26.2802 29.0525 25.3703 29.4293C24.4603 29.8062 23.4849 30.0001 22.5 30Z" fill="#785AFA"/>
<path fill-rule="evenodd" clip-rule="evenodd" d="M14.0625 8.4375H22.5C23.5815 8.43743 24.6217 8.02203 25.4058 7.27707C26.1899 6.53211 26.6579 5.51449 26.7132 4.43438C26.7686 3.35426 26.407 2.29414 25.7032 1.47294C24.9994 0.651736 24.0071 0.132179 22.9312 0.0215625C22.7859 0.0135938 22.6453 4.7476e-08 22.5 4.7476e-08H7.5C6.51505 -0.000110778 5.53973 0.193807 4.62974 0.570678C3.71975 0.947549 2.89291 1.49999 2.19645 2.19645C1.49999 2.89291 0.947549 3.71975 0.570678 4.62974C0.193807 5.53973 -0.000110778 6.51505 4.7476e-08 7.5V22.5C4.7476e-08 18.7704 1.48158 15.1935 4.11881 12.5563C6.75604 9.91908 10.3329 8.4375 14.0625 8.4375Z" fill="#9678FF"/>
<path fill-rule="evenodd" clip-rule="evenodd" d="M22.5 15C21.0166 15 19.5666 15.4399 18.3332 16.264C17.0999 17.0881 16.1386 18.2594 15.5709 19.6299C15.0032 21.0003 14.8547 22.5083 15.1441 23.9632C15.4335 25.418 16.1478 26.7544 17.1967 27.8033C18.2456 28.8522 19.582 29.5665 21.0368 29.8559C22.4917 30.1453 23.9997 29.9968 25.3701 29.4291C26.7406 28.8614 27.9119 27.9001 28.736 26.6668C29.5601 25.4334 30 23.9834 30 22.5V7.5C30.0001 8.48495 29.8062 9.46026 29.4293 10.3703C29.0524 11.2802 28.5 12.1071 27.8035 12.8035C27.1071 13.5 26.2802 14.0525 25.3703 14.4293C24.4603 14.8062 23.4849 15.0001 22.5 15Z" fill="#5F41E1"/>
<path d="M23.4379 16.5778C22.8988 20.9263 19.716 21.1996 19.1301 21.3881C17.337 21.826 15.487 21.9835 13.6457 21.8549C13.6457 21.8549 11.4707 24.0787 10.7957 24.7603C10.7574 24.8052 10.7089 24.8404 10.6543 24.8627C10.5996 24.8851 10.5404 24.894 10.4816 24.8887C10.3644 24.8601 10.3316 24.7218 10.3316 24.5193C10.3363 24.2306 10.3504 21.3365 10.3504 21.3365C6.1035 20.1576 6.35194 15.7246 6.39881 13.4029C6.44569 11.0812 6.88163 9.17994 8.18006 7.90119C10.5051 5.79322 15.3004 6.10822 15.3004 6.10822C19.3504 6.12556 21.291 7.34478 21.741 7.75353C23.2316 9.03228 23.9957 12.0928 23.4379 16.5768V16.5778ZM22.8566 6.66884C22.3269 6.17853 20.1754 4.61853 15.3894 4.59743C15.3894 4.59743 9.74569 4.25665 6.99413 6.78087C5.46131 8.31275 4.92225 10.5543 4.866 13.3335C4.80975 16.1128 4.35506 21.3215 9.37538 22.7338V24.8887C9.37538 25.4395 9.53944 26.2495 10.3316 26.2495C10.6551 26.2495 11.1144 26.1257 11.7566 25.4732L13.8894 23.4168C15.837 23.5195 17.7894 23.3449 19.6879 22.8984C20.3816 22.6734 24.3051 22.1709 24.9426 16.9631C25.5988 11.5949 24.6238 8.19931 22.8566 6.66884Z" fill="white"/>
<path fill-rule="evenodd" clip-rule="evenodd" d="M15.0002 8.4375C15.6774 8.43733 16.348 8.57058 16.9736 8.82965C17.5993 9.08871 18.1678 9.46851 18.6466 9.94735C19.1255 10.4262 19.5053 10.9947 19.7643 11.6203C20.0234 12.246 20.1566 12.9166 20.1565 13.5938C20.1554 13.7176 20.1067 13.8362 20.0205 13.9252C19.9549 13.9907 19.8713 14.0354 19.7803 14.0535C19.6893 14.0716 19.5949 14.0623 19.5092 14.0268C19.4235 13.9914 19.3501 13.9313 19.2985 13.8543C19.2468 13.7772 19.2192 13.6865 19.219 13.5938C19.2181 12.4751 18.7734 11.4026 17.9824 10.6116C17.1914 9.82057 16.1188 9.37583 15.0002 9.375H14.958C14.8338 9.3748 14.7147 9.32535 14.6268 9.23749C14.5389 9.14962 14.4895 9.03051 14.4893 8.90625C14.4887 8.84475 14.5005 8.78375 14.5238 8.72685C14.5472 8.66994 14.5816 8.61826 14.6252 8.57484C14.6689 8.53116 14.7208 8.49654 14.7779 8.47297C14.835 8.44941 14.8962 8.43735 14.958 8.4375H15.0002Z" fill="white"/>
<path fill-rule="evenodd" clip-rule="evenodd" d="M15.0002 10.3125C15.4311 10.3124 15.8578 10.3973 16.256 10.5622C16.6541 10.727 17.0158 10.9687 17.3205 11.2734C17.6252 11.5781 17.8669 11.9399 18.0318 12.338C18.1967 12.7361 18.2815 13.1628 18.2815 13.5938C18.2813 13.6865 18.2536 13.7772 18.202 13.8543C18.1503 13.9313 18.077 13.9914 17.9912 14.0268C17.9055 14.0623 17.8112 14.0716 17.7202 14.0535C17.6292 14.0354 17.5456 13.9907 17.4799 13.9252C17.3937 13.8362 17.3451 13.7176 17.344 13.5938C17.3438 12.9722 17.0968 12.3761 16.6573 11.9366C16.2178 11.4971 15.6218 11.2501 15.0002 11.25H14.958C14.8962 11.2502 14.835 11.2381 14.7779 11.2145C14.7208 11.191 14.6689 11.1563 14.6252 11.1127C14.5816 11.0692 14.5472 11.0176 14.5238 10.9607C14.5005 10.9037 14.4887 10.8428 14.4893 10.7813C14.4895 10.657 14.5389 10.5379 14.6268 10.45C14.7147 10.3621 14.8338 10.3127 14.958 10.3125H15.0002Z" fill="white"/>
<path d="M19.9555 18.2256C20.0424 18.0877 20.08 17.9244 20.0621 17.7624C20.0442 17.6004 19.972 17.4492 19.8571 17.3336C19.2834 16.8275 18.6617 16.3787 18.0008 15.9934C17.8372 15.8914 17.6429 15.85 17.4518 15.8766C17.2608 15.9031 17.0852 15.9959 16.9555 16.1387L16.5758 16.6117C16.0977 17.2023 14.6352 16.3168 13.9415 15.5917C13.2149 14.8937 12.329 13.4331 12.9196 12.954L13.393 12.5786C13.5359 12.4484 13.6286 12.2724 13.6552 12.081C13.6817 11.8896 13.6404 11.695 13.5383 11.5309C13.1554 10.8685 12.7062 10.2468 12.1977 9.67512C12.0825 9.56002 11.9317 9.48746 11.7699 9.46932C11.6081 9.45118 11.4449 9.48854 11.3071 9.57527C10.9444 9.78889 10.6158 10.0556 10.3321 10.3665C10.1626 10.5259 10.0415 10.7299 9.98266 10.955C9.9238 11.1801 9.92955 11.4172 9.99927 11.6392C10.6513 13.4595 11.6763 15.1236 13.0086 16.525C14.4106 17.8554 16.0739 18.8796 17.893 19.5325C18.1151 19.603 18.3526 19.6095 18.5782 19.551C18.8037 19.4926 19.0082 19.3716 19.168 19.202C19.465 18.9059 19.729 18.5785 19.9555 18.2256Z" fill="white"/>
</g>
<defs>
<clipPath id="clip0_210_2318">
<rect width="30" height="30" fill="white"/>
</clipPath>
</defs>
</svg>
