<svg width="25" height="25" viewBox="0 0 25 25" fill="none" xmlns="http://www.w3.org/2000/svg">
<g clip-path="url(#clip0_399_5359)">
<path fill-rule="evenodd" clip-rule="evenodd" d="M18.75 25H6.25C4.59242 24.9999 3.00275 24.3414 1.83066 23.1693C0.658576 21.9972 7.25144e-05 20.4076 0 18.75L0 6.25C7.25144e-05 4.59242 0.658576 3.00275 1.83066 1.83066C3.00275 0.658576 4.59242 7.25144e-05 6.25 0L18.75 0C20.4076 0 21.9973 0.65848 23.1694 1.83058C24.3415 3.00269 25 4.5924 25 6.25V18.75C25 20.4076 24.3415 21.9973 23.1694 23.1694C21.9973 24.3415 20.4076 25 18.75 25Z" fill="#FF0000"/>
<path fill-rule="evenodd" clip-rule="evenodd" d="M11.7188 7.03125H18.75C19.6513 7.03119 20.5181 6.68502 21.1715 6.06422C21.8249 5.44342 22.2149 4.59541 22.261 3.69531C22.3072 2.79522 22.0059 1.91178 21.4193 1.22745C20.8328 0.543113 20.0059 0.110149 19.1094 0.0179687C18.9898 0.0113281 18.8715 0 18.75 0H6.25C4.59242 7.25144e-05 3.00275 0.658576 1.83066 1.83066C0.658576 3.00275 7.25144e-05 4.59242 0 6.25L0 18.75C7.25171e-05 15.642 1.23475 12.6613 3.43242 10.4637C5.6301 8.266 8.61077 7.03132 11.7188 7.03125Z" fill="#FF5A51"/>
<path fill-rule="evenodd" clip-rule="evenodd" d="M18.75 12.5C17.5139 12.5 16.3055 12.8666 15.2777 13.5533C14.2499 14.2401 13.4488 15.2162 12.9758 16.3582C12.5027 17.5003 12.3789 18.7569 12.6201 19.9693C12.8613 21.1817 13.4565 22.2953 14.3306 23.1694C15.2047 24.0435 16.3183 24.6388 17.5307 24.8799C18.7431 25.1211 19.9997 24.9973 21.1418 24.5242C22.2838 24.0512 23.2599 23.2501 23.9467 22.2223C24.6334 21.1945 25 19.9861 25 18.75V6.25C25 7.9076 24.3415 9.49732 23.1694 10.6694C21.9973 11.8415 20.4076 12.5 18.75 12.5Z" fill="#D5002C"/>
<path fill-rule="evenodd" clip-rule="evenodd" d="M9.78438 6.98322C9.66602 6.91032 9.53036 6.87032 9.39138 6.86736C9.25241 6.86441 9.11517 6.89859 8.99382 6.96639C8.87247 7.03419 8.77142 7.13315 8.70109 7.25305C8.63076 7.37295 8.59371 7.50945 8.59375 7.64845V17.3524C8.59371 17.4914 8.63076 17.6279 8.70109 17.7478C8.77142 17.8677 8.87247 17.9666 8.99382 18.0344C9.11517 18.1022 9.25241 18.1364 9.39138 18.1334C9.53036 18.1305 9.66602 18.0905 9.78438 18.0176C11.7762 16.7922 15.7527 14.3449 17.6687 13.1656C17.7824 13.0958 17.8762 12.9979 17.9413 12.8815C18.0065 12.765 18.0406 12.6338 18.0406 12.5004C18.0406 12.367 18.0065 12.2358 17.9413 12.1193C17.8762 12.0029 17.7824 11.9051 17.6687 11.8352C15.7527 10.6559 11.7762 8.20861 9.78438 6.98322Z" fill="white"/>
</g>
<defs>
<clipPath id="clip0_399_5359">
<rect width="25" height="25" fill="white"/>
</clipPath>
</defs>
</svg>
