<svg width="16" height="16" viewBox="0 0 16 16" fill="none" xmlns="http://www.w3.org/2000/svg">
<g clip-path="url(#clip0_235_2085)">
<path d="M0.183312 8.44241C0.1835 8.4426 0.183657 8.44281 0.183875 8.443L3.44963 11.693C3.69428 11.9365 4.09 11.9356 4.33353 11.6909C4.57703 11.4462 4.57609 11.0505 4.33144 10.807L2.13881 8.625L15.375 8.625C15.7202 8.625 16 8.34519 16 8C16 7.65481 15.7202 7.375 15.375 7.375L2.13884 7.375L4.33141 5.193C4.57606 4.9495 4.577 4.55378 4.3335 4.30913C4.08997 4.06441 3.69422 4.06356 3.44959 4.307L0.183844 7.557C0.183656 7.55719 0.183499 7.55741 0.183281 7.55759C-0.0615005 7.80191 -0.0607185 8.19891 0.183312 8.44241Z" fill="black"/>
</g>
<defs>
<clipPath id="clip0_235_2085">
<rect width="16" height="16" fill="white" transform="translate(16 16) rotate(-180)"/>
</clipPath>
</defs>
</svg>
