<svg width="8" height="6" viewBox="0 0 8 6" fill="none" xmlns="http://www.w3.org/2000/svg">
<path d="M4.31216 5.22271L7.8722 1.66261C7.9546 1.58027 8 1.47035 8 1.35315C8 1.23595 7.9546 1.12603 7.8722 1.04369L7.61008 0.781512C7.43929 0.610911 7.1617 0.610911 6.99116 0.781512L4.00166 3.77102L1.00883 0.778194C0.926425 0.695854 0.816572 0.650391 0.699435 0.650391C0.582168 0.650391 0.472314 0.695854 0.389843 0.778194L0.127797 1.04037C0.0453906 1.12278 -6.67572e-06 1.23263 -6.67572e-06 1.34983C-6.67572e-06 1.46703 0.0453906 1.57695 0.127797 1.65929L3.69109 5.22271C3.77375 5.30525 3.88413 5.35058 4.00146 5.35032C4.11925 5.35058 4.22956 5.30525 4.31216 5.22271Z" fill="white"/>
</svg>
