<svg width="30" height="30" fill="none" xmlns="http://www.w3.org/2000/svg"><g clip-path="url(#a)" fill-rule="evenodd" clip-rule="evenodd"><path d="M22.5 30h-15A7.5 7.5 0 0 1 0 22.5v-15A7.5 7.5 0 0 1 7.5 0h15A7.5 7.5 0 0 1 30 7.5v15a7.5 7.5 0 0 1-7.5 7.5Z" fill="#199BDF"/><path d="M14.063 8.438H22.5a4.22 4.22 0 0 0 .431-8.416C22.788.014 22.646 0 22.5 0h-15A7.5 7.5 0 0 0 0 7.5v15A14.063 14.063 0 0 1 14.063 8.437Z" fill="#32B4FF"/><path d="M22.5 15a7.5 7.5 0 1 0 7.5 7.5v-15a7.5 7.5 0 0 1-7.5 7.5Z" fill="#0082BE"/><path d="M21.131 7.983a1.406 1.406 0 0 1 1.927 1.514l-2.08 13.518a1.405 1.405 0 0 1-2.224.918l-6.132-4.518a.938.938 0 0 1-.087-1.436l5.722-5.404a.235.235 0 0 0-.289-.367l-7.565 4.934a2.813 2.813 0 0 1-2.218.373l-3.55-.888a.937.937 0 0 1-.13-1.776L21.13 7.983Z" fill="#fff"/></g><defs><clipPath id="a"><path fill="#fff" d="M0 0h30v30H0z"/></clipPath></defs></svg>