<svg width="30" height="30" fill="none" xmlns="http://www.w3.org/2000/svg"><g clip-path="url(#a)"><path fill-rule="evenodd" clip-rule="evenodd" d="M22.5 30h-15A7.499 7.499 0 0 1 0 22.5v-15A7.5 7.5 0 0 1 7.5 0h15A7.5 7.5 0 0 1 30 7.5v15a7.5 7.5 0 0 1-7.5 7.5Z" fill="#785AFA"/><path fill-rule="evenodd" clip-rule="evenodd" d="M14.063 8.438H22.5a4.22 4.22 0 0 0 .431-8.416C22.786.014 22.645 0 22.5 0h-15A7.5 7.5 0 0 0 0 7.5v15A14.062 14.062 0 0 1 14.063 8.437Z" fill="#9678FF"/><path fill-rule="evenodd" clip-rule="evenodd" d="M22.5 15a7.5 7.5 0 1 0 7.5 7.5v-15a7.5 7.5 0 0 1-7.5 7.5Z" fill="#5F41E1"/><path d="M23.438 16.578c-.54 4.348-3.722 4.622-4.308 4.81a17.87 17.87 0 0 1-5.484.467s-2.175 2.224-2.85 2.905a.37.37 0 0 1-.314.129c-.118-.029-.15-.167-.15-.37.004-.288.018-3.182.018-3.182-4.246-1.18-3.998-5.612-3.951-7.934.047-2.322.483-4.223 1.781-5.502 2.325-2.108 7.12-1.793 7.12-1.793 4.05.018 5.991 1.237 6.441 1.646 1.49 1.278 2.255 4.339 1.697 8.823Zm-.581-9.91c-.53-.49-2.682-2.05-7.468-2.07 0 0-5.643-.341-8.395 2.183-1.533 1.532-2.072 3.773-2.128 6.553-.056 2.779-.51 7.988 4.51 9.4v2.155c0 .55.163 1.36.956 1.36.323 0 .782-.123 1.425-.776l2.132-2.056c1.948.102 3.9-.072 5.799-.519.694-.225 4.617-.727 5.255-5.935.656-5.368-.32-8.764-2.086-10.294Z" fill="#fff"/><path fill-rule="evenodd" clip-rule="evenodd" d="M15 8.438a5.154 5.154 0 0 1 5.157 5.156.47.47 0 0 1-.938 0A4.222 4.222 0 0 0 15 9.375h-.042a.47.47 0 0 1 0-.938H15Z" fill="#fff"/><path fill-rule="evenodd" clip-rule="evenodd" d="M15 10.313a3.28 3.28 0 0 1 3.282 3.28.47.47 0 0 1-.802.332.482.482 0 0 1-.136-.331A2.345 2.345 0 0 0 15 11.25h-.042a.468.468 0 0 1-.331-.8.47.47 0 0 1 .331-.137H15Z" fill="#fff"/><path d="M19.956 18.226a.72.72 0 0 0-.099-.892 11.756 11.756 0 0 0-1.856-1.34.823.823 0 0 0-1.046.145l-.38.473c-.477.59-1.94-.295-2.633-1.02-.727-.698-1.613-2.159-1.022-2.638l.473-.375a.827.827 0 0 0 .145-1.048 11.305 11.305 0 0 0-1.34-1.856.718.718 0 0 0-.89-.1c-.364.214-.692.48-.976.792A1.237 1.237 0 0 0 10 11.639a13.888 13.888 0 0 0 3.01 4.886 13.934 13.934 0 0 0 4.884 3.008 1.238 1.238 0 0 0 1.275-.331 5.81 5.81 0 0 0 .788-.976Z" fill="#fff"/></g><defs><clipPath id="a"><path fill="#fff" d="M0 0h30v30H0z"/></clipPath></defs></svg>