<svg width="25" height="25" fill="none" xmlns="http://www.w3.org/2000/svg"><g clip-path="url(#a)" fill-rule="evenodd" clip-rule="evenodd"><path d="M18.75 25H6.25A6.25 6.25 0 0 1 0 18.75V6.25A6.25 6.25 0 0 1 6.25 0h12.5A6.25 6.25 0 0 1 25 6.25v12.5A6.25 6.25 0 0 1 18.75 25Z" fill="red"/><path d="M11.719 7.031h7.031a3.516 3.516 0 0 0 .36-7.013C18.99.011 18.871 0 18.75 0H6.25A6.25 6.25 0 0 0 0 6.25v12.5A11.719 11.719 0 0 1 11.719 7.031Z" fill="#FF5A51"/><path d="M18.75 12.5A6.25 6.25 0 1 0 25 18.75V6.25a6.25 6.25 0 0 1-6.25 6.25Z" fill="#D5002C"/><path d="M9.784 6.983a.781.781 0 0 0-1.19.665v9.704a.781.781 0 0 0 1.19.666l7.885-4.852a.78.78 0 0 0 0-1.33L9.784 6.982Z" fill="#fff"/></g><defs><clipPath id="a"><path fill="#fff" d="M0 0h25v25H0z"/></clipPath></defs></svg>