<svg width="24" height="23" fill="none" xmlns="http://www.w3.org/2000/svg"><g filter="url(#a)"><path fill-rule="evenodd" clip-rule="evenodd" d="M15.055 22.193c5.412-.851 8.47-4.102 8.47-10.765 0-6.667-3.058-9.918-8.47-10.77a20.708 20.708 0 0 0-3.23-.234 20.71 20.71 0 0 0-3.23.235C3.187 1.51.125 4.76.125 11.428c0 6.663 3.062 9.914 8.47 10.765.997.158 2.076.23 3.23.23a20.73 20.73 0 0 0 3.23-.23Zm0-20.698c3.824.812 6.956 3.385 6.956 9.933 0 4.976-1.81 7.653-4.36 9.009l-1.439-9.525L15.055 7.7l-2.343-6.498c.794.039 1.584.13 2.343.293Zm-3.672-.312c.148-.004.293-.008.442-.008.144 0 .293.004.442.008l.129 7.938h-1.142l.129-7.938ZM1.638 11.428c0-6.548 3.132-9.12 6.957-9.933a14.679 14.679 0 0 1 2.342-.293L8.595 7.699l-1.158 3.213-1.439 9.524c-2.55-1.355-4.36-4.032-4.36-9.008Zm6.957 9.929a10.302 10.302 0 0 1-2.347-.79l2.347-4.795 2.541-5.196h1.377l2.541 5.196 2.347 4.795c-.735.358-1.525.613-2.347.79-1.04.22-2.135.312-3.23.316-1.094-.004-2.19-.097-3.23-.316Z" fill="#000"/></g><defs><filter id="a" x=".125" y=".424" width="23.399" height="24" filterUnits="userSpaceOnUse" color-interpolation-filters="sRGB"><feFlood flood-opacity="0" result="BackgroundImageFix"/><feBlend in="SourceGraphic" in2="BackgroundImageFix" result="shape"/><feColorMatrix in="SourceAlpha" values="0 0 0 0 0 0 0 0 0 0 0 0 0 0 0 0 0 0 127 0" result="hardAlpha"/><feOffset dy="4"/><feGaussianBlur stdDeviation="1"/><feComposite in2="hardAlpha" operator="arithmetic" k2="-1" k3="1"/><feColorMatrix values="0 0 0 0 0 0 0 0 0 0 0 0 0 0 0 0 0 0 0.15 0"/><feBlend in2="shape" result="effect1_innerShadow_463_9048"/></filter></defs></svg>