<svg width="24" height="23" fill="none" xmlns="http://www.w3.org/2000/svg"><g clip-path="url(#a)" fill-rule="evenodd" clip-rule="evenodd"><path d="m23.239 11.368-.045-.986-.127-.986-.216-.97-.291-.946-.376-.912-.45-.878-.53-.836-.592-.787-.665-.733-.723-.674-.777-.6-.82-.537-.872-.454-.901-.381-.934-.296-.957-.219-.974-.128L12.016 0l-.977.045-.976.128-.954.22-.934.295-.904.38-.867.455-.825.538-.777.6-.72.673-.666.733-.592.787-.53.83-.449.884-.379.912-.291.947-.214.969-.126.986-.042.986.042.99.126.988.214.964.291.95.38.914.448.878.53.836.592.787.665.73.718.674.78.6.823.537.87.455.903.384.934.295.954.216.976.128.974.043.976-.043.974-.128.951-.216.934-.296.907-.383.867-.455.825-.537.777-.6.723-.673.665-.728.592-.79.53-.833.45-.88.376-.916.291-.946.216-.967.127-.989.045-.989Z" fill="#FFD124"/><path d="m19.516 11.53-.031-.688-.095-.682-.152-.668-.21-.657-.275-.63-.329-.606-.376-.574-.432-.532L17.142 6l-.516-.446-.559-.395-.586-.347-.62-.29-.637-.227-.66-.174-.672-.108-.68-.045-.339.003v15.117l.34.01.679-.05.673-.108.66-.17.636-.23.62-.288.586-.347.559-.398.516-.446.474-.491.432-.538.376-.568.329-.605.274-.631.211-.654.152-.674.095-.682.03-.688Z" fill="#000"/><path d="m13.006 10.692-.129.196-.118.253-.07.273-.022.281.022.282.07.273.118.255.157.236.194.2.227.164.247.128.194.054-.082.017-.202.105-.18.142-.148.171-.112.202-.068.219-.022.23.022.227.068.219.112.199.149.179.18.14.201.101.222.057.213.012h.14l-.028.011-.129.12-.098.15-.059.168-.022.173.022.176.06.168.097.15.13.12.156.082.172.046.157.003h.637v.006l-.295.622.542-.415.064-.04.138-.105.14-.128.081-.145.037-.094.01-.096-.002-.097-.03-.085-.046-.083.16-.045.15-.068.128-.105.112-.123.082-.145.067-.187.023-.194-.023-.195-.067-.19-.104-.166-.138-.142-.143-.1.22-.002.23-.043.218-.082.202-.114.18-.148.157-.173.126-.196.09-.219.059-.227.017-.23-.017-.24-.06-.227-.089-.216-.126-.196-.157-.173-.18-.15-.202-.114-.188-.069.126-.022.25-.077.239-.122.17-.145.211-.194.171-.233.138-.25.095-.267.06-.273.036-.247.008-.25-.02-.25-.039-.253-.062-.25-.09-.248-.109-.23-.126-.224-.143-.22-.157-.204-.174-.184-.29-.293-.392.452h-1.636l-.081.122-.076.128-.022.07h-.89l.006-.079-.253-.12-.12-.073-.113-.08-.081-.06-.084-.059-.084-.04-.101-.042-.138-.009-.134.023-.121.054-.112.088-.079.116-.04.137.01.145.053.133.09.108.131.083.12.054-.08-.017-.16.003-.155.042-.143.077-.118.108-.09.136-.056.151-.02.165.023.159.053.154.09.133.124.108.143.077.151.042.163.003.048-.014-.138.102-.112.154-.053.122-.02.145.037.142.081.12.112.085.13.045Z" fill="#000"/><path d="m14.33 9.095-.15-.123-.121-.144-.096-.168-.062-.188-.022-.19.011-.19-.16-.077-.134-.08-.121-.085-.079-.063-.07-.045-.073-.037-.07-.029-.1-.008-.093.017-.087.037-.076.06-.048.076-.028.089.006.09.033.08.065.074.092.062.247.106.146.05.026.109.02.11.01.114.006.108h-.104l-.07-.1-.095-.076-.112-.057-.118-.025-.124.002-.118.035-.106.056-.096.083-.067.105-.04.12-.019.122.02.122.045.12.067.099.09.082.106.057.121.034.12.003.124-.026.112-.06.093-.076.073-.102.098.005-.006.145-.016.142-.028.091-.076.04-.174.09-.157.112-.09.122-.037.082-.008.091.022.086.048.076.067.054.087.029.09-.006.084-.031.11-.085.129-.106.143-.09.154-.074.16-.049-.014-.21.023-.185.059-.179.095-.162.115-.142.149-.12Z" fill="#FFD124"/><path d="m17.156 7.531-.336.378h-1.622l-.031.048-.065.105-.047.168h-1.008l-.002.196.053.182.107.165.146.122.173.077.188.023h.472v.156h-.472l-.188.04-.165.096-.143.131-.101.168-.048.187-.005.196h1.374l.04.018.03.022.012.051-.012.054-.033.049-.05.034-.054.008-.09.003h-1.024l-.252.034-.242.068-.224.114-.208.148-.174.182-.143.21-.104.233-.061.242-.023.256.023.252.061.248.104.23.143.21.174.182.208.15.224.114.242.072.252.028h1.953l.045.006.039.022.028.034.008.046-.008.043-.028.04-.04.022h-1.997l-.196.014-.191.052-.174.085-.152.12-.126.147-.095.173-.06.19-.022.197.023.196.059.188.095.17.127.15.151.123.174.088.19.048.197.012h1.563l.04.003.036.022.022.031.008.043-.008.04-.022.031-.037.023-.04.006h-.97l-.135.005-.134.031-.121.069-.104.094-.075.113-.051.134-.017.136.017.14.05.133.076.114.104.093.12.069.135.034.135.003h.673l.06.028.044.048.017.066v.062l-.03.06.03-.023.067-.04.127-.096.112-.105.065-.114.025-.068.008-.071-.011-.074-.028-.068-.05-.06-.057-.04-.073-.023-.073-.005h-.763l-.017-.009-.017-.008-.013-.023-.006-.023.006-.02.014-.022.016-.009.017-.009h.98l.162-.017.149-.056.135-.086.114-.113.087-.137.048-.153.02-.16-.02-.164-.047-.15-.087-.137-.115-.117-.135-.088-.149-.048-.163-.02h-1.506l-.042-.003-.031-.014-.031-.029-.02-.03-.003-.038.003-.037.02-.034.03-.023.032-.02h1.95l.204-.002.203-.037.193-.074.18-.1.162-.13.138-.157.11-.176.083-.19.05-.205.018-.205-.017-.21-.05-.204-.085-.19-.11-.18-.137-.153-.162-.128-.18-.106-.194-.07-.202-.037-.204-.006h-1.976l-.036-.017-.031-.029-.02-.034-.008-.037.008-.042.02-.034.03-.029.037-.017h2.312l.233-.037.225-.074.21-.108.157-.125.197-.187.157-.208.126-.233.09-.244.053-.256.034-.233.008-.236-.02-.23-.033-.242-.065-.236-.081-.227-.107-.225-.118-.213-.137-.204-.149-.196-.165-.182-.166-.168Zm-3.336-.017h2.674v-.27H13.82v.27Zm0-.316h2.674v-.264H13.82v.264Zm-.014-.32h2.68v-.265h-2.68v.264Zm2.694-.666-.009-.054-.02-.054-.03-.045-.04-.043-.05-.025-.053-.015-.054-.005-.053.008-.056.023-.045.034-.034.046-.022.048-.014.054v.06l.014.054.022.05.034.04.045.037.056.023.053.009.054-.003.053-.014.05-.032.04-.037.03-.05.02-.05.009-.059Zm-.556 0-.006-.054-.016-.054-.034-.045-.04-.043-.05-.025-.053-.015-.053-.005-.06.008-.047.023-.045.034-.036.046-.028.048-.009.054v.06l.009.054.028.05.036.04.045.037.048.023.059.009.053-.003.053-.014.05-.032.04-.037.034-.05.016-.05.006-.059Zm-.553 0-.005-.054-.023-.054-.025-.045-.042-.043-.048-.025-.056-.015-.056-.005-.056.008-.048.023-.045.034-.036.046-.028.048-.011.054v.06l.01.054.029.05.036.04.045.037.048.023.056.009.056-.003.056-.014.048-.032.042-.037.025-.05.023-.05.005-.059Zm-.552 0-.009-.054-.02-.054-.03-.045-.04-.043-.044-.025-.054-.015-.059-.005-.053.008-.05.023-.045.034-.037.046-.025.048-.014.054v.06l.014.054.025.05.037.04.044.037.051.023.053.009.06-.003.053-.014.045-.032.039-.037.03-.05.02-.05.009-.059Zm-.553 0-.008-.054-.017-.054-.034-.045-.04-.043-.05-.025-.053-.015-.053-.005-.054.008-.053.023-.045.034-.036.046-.023.048-.014.054v.06l.014.054.023.05.036.04.045.037.053.023.054.009.053-.003.053-.014.05-.032.04-.037.034-.05.017-.05.008-.059Z" fill="#FFD124"/><path d="m14.462 2.725.04.085.058.077.068.065.075.054.09.037.09.026.095.005.093-.008.09-.023.087-.043.075-.056.068-.069.053-.08.04-.084.027-.091.014-.097v-.091l-.02-.094-.025-.09-.05-.089-.059-.07-.07-.066-.087-.048-.09-.032-.098-.02h-.093l-.095.02-.084.034-.082.052-.072.062-.062.08-.053.09-.037.094-.02.091-.008.097.014.094.028.088Zm-2.407-.816.05-.003.048-.02.045-.03.036-.046.028-.054.017-.069v-.054l-.017-.06-.036-.059-.042-.037-.048-.025-.059-.015h-.036l-.177-.005-.006.474.183.003h.014Z" fill="#000"/><path d="m22.762 10.42-.126-.947-.202-.933-.284-.903-.359-.884-.435-.844-.143-.228-.364-.577-.573-.756-.634-.704-.095-.089-.6-.554-.747-.58-.794-.514-.833-.44-.873-.364-.72-.233-.172-.054-.92-.205-.935-.128-.912-.04h-.025l-.943.04-.931.128-.917.205-.898.287-.87.364-.592.312-.244.128-.794.514-.746.577-.186.174-.415.384-.095.088-.632.704-.575.756-.272.43-.236.375-.434.844-.36.884-.283.904-.202.932-.126.946-.04.95.04.954.126.944.202.93.283.909.36.88.434.848.236.372.272.432.57.756.637.705.095.085.415.384.185.17.747.583.794.514.244.128.592.313.87.364.895.287.92.204.931.128.94.04.028-.003.912-.037.935-.128.914-.204.177-.057.721-.23.873-.364.833-.44.794-.515.746-.577.6-.557.096-.088.634-.705.573-.756.364-.577.143-.227.435-.847.36-.878.283-.91.202-.932.126-.944.04-.955-.04-.949Zm-4.638-7.49.455.412-.427 1.092 1.013-.557.455.409-1.095 1.79-.423-.38.701-1.083-1.159.668-.23-.205.486-1.273-.951.847-.427-.387 1.602-1.333Zm-4.259-.506.014-.122.026-.12.044-.121.054-.117.073-.11.081-.1.09-.083.092-.07.104-.066.118-.046.12-.03.127-.018.135-.006.036.003.101.006.14.028.135.046.129.054.123.074.107.08.095.087.085.1.073.105.056.122.042.128.025.13.006.135-.006.136-.025.13-.042.123-.048.114-.059.11-.073.094-.09.097-.1.082-.113.068-.123.054-.124.037-.134.023-.135.003-.045-.003-.087-.006-.129-.022-.126-.04-.13-.051-.125-.069-.113-.076-.095-.088-.084-.091-.073-.103-.062-.113-.045-.12-.03-.127-.02-.128.005-.123ZM11.318.966l.723.009h.054l.148.008.099.029.1.031.08.046.078.054.062.062.053.074.045.082.03.091.02.091.003.086-.008.09-.017.091-.028.074-.037.071-.048.074-.059.06-.067.048-.076.043-.073.025.637.856-.673-.009-.513-.773-.009.765-.547-.006.023-2.072ZM6.2 2.811l1.849 1.202-.471.344-.331-.219-.618.455.113.384-.466.34-.598-2.122.522-.384ZM4.517 4.257l.336.288-.412.5.25.213.35-.424.351.296-.345.418.631.537-.359.438-1.574-1.328.772-.938Zm-1.782 2.69 1.408.675.27-.568.067.034.368.18L4.34 8.35l-1.85-.892.245-.512Zm1.2 2.821-.38.091-.102.765.345.182-.075.574-1.928-1.035.087-.64 2.135-.522-.081.585Zm16.013 2.43-.09.688-.143.676-.168.552-.034.108-.26.642-.312.614-.362.586-.41.556-.457.512-.5.475-.538.426-.57.384-.6.326-.525.23-.1.043-.646.222-.665.16-.676.104-.685.046-.166-.003-.513-.011-.679-.077-.668-.13-.656-.194-.64-.244-.612-.305-.589-.355-.55-.403-.269-.233-.253-.22-.477-.494-.434-.531-.385-.569-.337-.605-.084-.182-.204-.446-.21-.6-.018-.051-.176-.668-.115-.682-.06-.69v-.691l.06-.685.115-.682.176-.668.017-.051.21-.606.205-.446.085-.182.336-.6.385-.57.434-.535.477-.495.253-.216.27-.233.55-.406.588-.355.615-.299.637-.25.656-.19.668-.134.679-.07.513-.012.166-.003.685.04.676.105.665.165.645.216.101.045.525.233.6.327.575.378.533.426.5.478.457.514.41.552.362.585.311.62.261.636.034.111.168.551.143.674.09.688.025.688-.025.69Zm.149-4.206-.424.213-.555-1.12 1.832-.932.55 1.114-.39.202-.3-.611-.298.156.252.509-.398.205-.258-.51-.317.163.306.611Zm2.166 2.336-.023.137-.034.122-.05.12-.062.113-.081.105-.096.094-.106.082-.112.063-.127.056-.126.035-.129.02-.104.002h-.017l-.123-.002-.12-.023-.116-.043-.123-.057-.112-.068-.099-.088-.09-.1-.075-.113-.062-.12-.056-.122-.034-.128-.022-.13-.011-.143.005-.139.017-.142.037-.122.044-.12.06-.107.072-.108.085-.097.098-.085.11-.068.106-.057.118-.04.115-.028.126-.012h.13l.131.012.12.034.113.04.107.053.1.069.093.082.087.1.07.11.065.117.047.134.037.136.022.14.006.144-.011.142Z" fill="#000"/><path d="m21.743 9.935-.042-.09-.056-.072-.073-.065-.081-.048-.085-.037-.095-.023-.098-.009h-.009l-.098.009-.09.023-.087.037-.08.048-.068.065-.054.077-.044.085-.026.091-.014.091.003.097.02.096.036.086.048.082.064.071.076.06.082.045.09.029.092.014h.095l.093-.014.087-.029.084-.045.076-.054.067-.068.056-.083.04-.085.022-.097.008-.094-.014-.096-.025-.097Zm-19.382.156.696.342.062-.486-.758.145Zm4.504-6.19.022-.017-.022-.017-.607-.437.236.742.37-.27Z" fill="#000"/><path d="M7.436 10.16V5.54l-.263.213-.5.469-.451.514-.404.555-.357.59-.3.62-.241.64-.18.665-.064.355h2.76Zm0 2.197H4.561l.03.182.121.68.185.661.242.648.297.617.353.588.404.555.455.514.497.472.291.21v-5.127Zm2.08 0v6.335l.65.202.665.139.674.077v-6.753h-1.99Zm0-2.197h1.989V3.947l-.674.077-.665.142-.65.2v5.794Z" fill="#FFD124"/><path d="m8.25 4.993-.522.327v5.198H4.586l-.04.378-.016.378-.006.375.017.378h3.187v5.701l.334.25.354.22.373.19.404.182v-6.543h2.312v-1.509H9.193V4.547l-.337.128-.606.318Z" fill="#000"/></g><defs><clipPath id="a"><path fill="#fff" d="M0 0h24v22.956H0z"/></clipPath></defs></svg>