<svg width="32" height="32" fill="none" xmlns="http://www.w3.org/2000/svg"><path d="M6 22c-3.308 0-6-2.692-6-6s2.692-6 6-6c3.31 0 6 2.692 6 6s-2.69 6-6 6Zm0-10c-2.205 0-4 1.795-4 4s1.795 4 4 4 4-1.795 4-4-1.795-4-4-4Z" fill="#000"/><path d="M12.667 22c-3.308 0-6-2.692-6-6s2.692-6 6-6 6 2.692 6 6-2.69 6-6 6Zm0-10c-2.205 0-4 1.795-4 4s1.795 4 4 4 4-1.795 4-4-1.795-4-4-4Z" fill="#000"/><path d="M19.333 22c-3.31 0-6-2.692-6-6s2.69-6 6-6c3.308 0 6 2.692 6 6s-2.69 6-6 6Zm0-10c-2.205 0-4 1.795-4 4s1.795 4 4 4 4-1.795 4-4-1.795-4-4-4Z" fill="#000"/><path d="M26 22c-3.308 0-6-2.692-6-6s2.69-6 6-6 6 2.692 6 6-2.69 6-6 6Zm0-10c-2.205 0-4 1.795-4 4s1.795 4 4 4 4-1.795 4-4-1.795-4-4-4ZM2 16H0c0 3.308 2.692 6 6 6 1.232 0 2.38-.373 3.333-1.013a6.054 6.054 0 0 1-1.498-1.434A3.968 3.968 0 0 1 6 20c-2.205 0-4-1.795-4-4Zm10 0h-2c0 .816-.245 1.576-.667 2.21.376.565.892 1.03 1.499 1.345A5.977 5.977 0 0 0 12 16Z" fill="#000"/><path d="M8.667 16h-2a5.97 5.97 0 0 0 1.168 3.553c.413.56.92 1.046 1.499 1.434A5.967 5.967 0 0 0 12.667 22 5.966 5.966 0 0 0 16 20.987a6.054 6.054 0 0 1-1.498-1.434 3.969 3.969 0 0 1-1.835.447 3.969 3.969 0 0 1-1.835-.447 4.018 4.018 0 0 1-1.498-1.344A3.976 3.976 0 0 1 8.667 16Zm10 0h-2c0 .816-.245 1.576-.667 2.21.376.565.892 1.03 1.499 1.345A5.977 5.977 0 0 0 18.667 16Z" fill="#000"/><path d="M15.333 16h-2a5.97 5.97 0 0 0 1.168 3.553c.413.56.92 1.046 1.499 1.434A5.963 5.963 0 0 0 19.333 22a5.966 5.966 0 0 0 3.333-1.013 6.054 6.054 0 0 1-1.498-1.434 3.969 3.969 0 0 1-1.835.447 3.969 3.969 0 0 1-1.835-.447A4.021 4.021 0 0 1 16 18.208 3.968 3.968 0 0 1 15.333 16Zm10 0h-2c0 .816-.245 1.576-.667 2.21.376.565.892 1.03 1.499 1.345A5.977 5.977 0 0 0 25.333 16Z" fill="#000"/><path d="M32 16h-2c0 2.205-1.795 4-4 4a3.97 3.97 0 0 1-1.835-.447 4.023 4.023 0 0 1-1.498-1.346A3.976 3.976 0 0 1 22 15.998h-2a5.97 5.97 0 0 0 1.168 3.553c.413.56.92 1.046 1.499 1.434A5.963 5.963 0 0 0 26 21.998c3.31.001 6-2.69 6-5.999Z" fill="#000"/></svg>