<svg width="36" height="36" fill="none" xmlns="http://www.w3.org/2000/svg"><path d="M22.216 21.525c-1.104.92-2.63 1.489-4.318 1.489-1.687 0-3.213-.57-4.317-1.489-1.11-.924-1.797-2.203-1.797-3.615 0-1.405.686-2.677 1.797-3.597 1.104-.915 2.63-1.481 4.317-1.481 1.688 0 3.214.566 4.318 1.48 1.11.92 1.797 2.193 1.797 3.598 0 1.412-.686 2.691-1.797 3.615Z" fill="#000"/><path d="M17.899 22.839c1.645 0 3.13-.554 4.205-1.448 1.072-.892 1.734-2.123 1.734-3.48 0-1.351-.662-2.576-1.733-3.463-1.075-.89-2.56-1.44-4.206-1.44-1.646 0-3.132.55-4.206 1.44-1.072.887-1.733 2.112-1.733 3.463 0 1.357.662 2.588 1.733 3.48 1.075.894 2.56 1.448 4.206 1.448Z" fill="#FFD124"/><path d="M17.899 22.511c1.553 0 2.962-.517 3.982-1.354 1.013-.831 1.64-1.979 1.64-3.245 0-1.255-.628-2.397-1.643-3.226-1.02-.832-2.427-1.348-3.98-1.348-1.556 0-2.962.515-3.98 1.346-1.015.828-1.642 1.971-1.642 3.228 0 1.268.626 2.416 1.64 3.248 1.017.835 2.425 1.351 3.983 1.351Zm4.093-1.219c-1.05.862-2.498 1.395-4.093 1.395-1.6 0-3.047-.532-4.095-1.392-1.053-.864-1.703-2.06-1.703-3.383 0-1.311.652-2.502 1.707-3.364 1.048-.855 2.493-1.386 4.09-1.386 1.594 0 3.04.532 4.09 1.388 1.055.862 1.71 2.052 1.71 3.362 0 1.321-.653 2.516-1.706 3.38Z" fill="#000"/><path d="M15.395 22.739a.446.446 0 0 1-.245-.315c-.022-.117.003-.259.095-.424l.002-.002.718-1.21c.037-.07.11-.108.19-.124a.448.448 0 0 1 .255.025.455.455 0 0 1 .17.175.361.361 0 0 1 .079-.04.449.449 0 0 1 .257-.014.461.461 0 0 1 .19.149.55.55 0 0 1 .276-.09h.013a.48.48 0 0 1 .227.134l.004.005.03-.028a.456.456 0 0 1 .243-.099.435.435 0 0 1 .273.126l.004-.004a.481.481 0 0 1 .227-.133l.014-.001a.524.524 0 0 1 .274.093.459.459 0 0 1 .19-.152h.001a.45.45 0 0 1 .257.014c.028.01.056.024.08.04a.454.454 0 0 1 .17-.175.439.439 0 0 1 .252-.024c.08.015.155.053.192.122l.719 1.211.002.004c.087.167.11.309.089.426a.437.437 0 0 1-.239.31l-.006.004c-.143.064-.285.076-.412.013a.43.43 0 0 1-.095-.064.412.412 0 0 1-.256.268.442.442 0 0 1-.425-.007.407.407 0 0 1-.11-.09.438.438 0 0 1-.351.278h-.007a.47.47 0 0 1-.392-.115.43.43 0 0 1-.053-.063.397.397 0 0 1-.39.204l-.043-.001a.45.45 0 0 1-.311-.14.408.408 0 0 1-.05-.066.46.46 0 0 1-.055.066.469.469 0 0 1-.392.116l-.006-.001a.436.436 0 0 1-.353-.283.417.417 0 0 1-.113.096.44.44 0 0 1-.336.033.41.41 0 0 1-.341-.294.423.423 0 0 1-.095.064c-.127.062-.269.05-.412-.014a.047.047 0 0 0-.005-.003Z" fill="#000"/><path d="M15.92 22.358v-.002a.958.958 0 0 1 .027-.08l.001-.002.083-.198.41-1.038.001-.004c.01-.02.002-.05-.013-.08a.264.264 0 0 0-.098-.109.262.262 0 0 0-.143-.01c-.032.007-.06.018-.068.034l-.003.005-.719 1.211c-.07.126-.09.228-.076.307a.276.276 0 0 0 .15.19c.096.043.188.053.264.015.07-.034.133-.11.184-.239Zm.274-.218-.108.275a.379.379 0 0 0 0 .254.24.24 0 0 0 .14.126l.03.01.003.002a.748.748 0 0 0 .033.01c.077.02.148.016.206-.017.06-.034.112-.104.15-.217a.994.994 0 0 0 .017-.055l.328-1.377.002-.007c.006-.018-.005-.045-.023-.071a.271.271 0 0 0-.11-.096.262.262 0 0 0-.144.012c-.03.011-.056.026-.062.045l-.002.007-.46 1.1Zm3.573-.063.083.197v.003c.011.027.02.054.029.081.05.13.113.206.183.24.077.037.168.027.264-.016a.266.266 0 0 0 .145-.185c.014-.08-.005-.184-.072-.313l-.718-1.21-.003-.005c-.008-.015-.037-.026-.07-.032-.057-.011-.114-.008-.135.005l-.006.003a.263.263 0 0 0-.098.11c-.015.029-.022.059-.013.08l.002.003.41 1.039Zm-1.418.293.017.21a.929.929 0 0 1 .002.051c.013.129.05.216.104.268.06.058.147.077.246.068.09-.016.163-.058.203-.133.037-.072.048-.176.017-.319l-.315-1.362-.001-.003c-.005-.024-.026-.044-.053-.06a.333.333 0 0 0-.144-.046.294.294 0 0 0-.121.08c-.024.025-.042.053-.04.076l.001.003.084 1.167Zm-.919.26c0-.017.001-.034.003-.05l.016-.209.084-1.168.001-.003c.003-.023-.015-.051-.039-.076a.294.294 0 0 0-.121-.08.353.353 0 0 0-.151.046c-.024.016-.044.033-.046.052l-.001.01-.316 1.363c-.03.143-.02.247.018.319.039.075.113.117.202.133.1.01.186-.01.246-.068.054-.053.091-.14.104-.268Zm-1.224.343Zm0 0Zm2.989-1.87v-.001Zm0-.001Zm.493 1.238-.543-1.3-.003-.006c-.006-.019-.03-.034-.061-.045a.259.259 0 0 0-.143-.013.272.272 0 0 0-.111.097c-.018.026-.03.052-.024.07l.003.008.328 1.377v.002c.006.024.012.049.02.073.034.1.083.164.14.196a.272.272 0 0 0 .198.02.518.518 0 0 0 .048-.013h.003l.145-.466Zm-.145.465a.207.207 0 0 0 .029-.01.239.239 0 0 0 .141-.126c.028-.065.03-.152-.003-.264a.796.796 0 0 0-.022-.064l-.145.464Zm-1.351-.112a.75.75 0 0 0-.002-.1l-.113-1.403v-.006c0-.023-.02-.047-.045-.068a.261.261 0 0 0-.133-.06.261.261 0 0 0-.132.06c-.026.021-.045.045-.045.068v.006l-.114 1.403a.947.947 0 0 0-.002.058c0 .12.028.203.077.256a.28.28 0 0 0 .194.082.397.397 0 0 0 .035.002h.005l.274-.298Zm-.275.298a.36.36 0 0 0 .041 0 .224.224 0 0 0 .155-.073.363.363 0 0 0 .079-.225l-.275.298Zm-1.313-1.89v.001Z" fill="#FFD124"/><path fill-rule="evenodd" clip-rule="evenodd" d="M14.121 19.275c-.252.14-.972.341-1.175-.127-.29.152-.884.266-1.175-.113-.48.113-1.023.354-1.225-.202-.43.113-1.491.379-1.605-.316-.631.089-1.541.152-1.668-.518-.543 0-1.478-.088-1.478-.707-.543 0-1.49-.367-1.377-.809-.493-.05-1.15-.569-1.15-.91-.48-.151-1.023-.518-.91-1.01-.29-.177-.77-.38-.77-.67 0-.278.227-.518.48-.518.265 0 1.238.152 1.58.152.34 0 4.485-.089 5.457-.038.973.063 2.211.038 2.805-.026.607-.05 3.171-.189 3.525.518.253.518.063.695-.164.898-.24.202-1.01.568-1.01 1.781 0 1.2.151 1.832-.14 2.615Z" fill="#000"/><path fill-rule="evenodd" clip-rule="evenodd" d="M2.498 13.666c.884 0 2.944.063 3.348.063.404 0 3.234.316 3.677.455.202.063.252.265 0 .278-.24.013-3.159.05-3.588.05-.43 0-3.374.051-3.765-.467-.291-.379.075-.367.328-.379Zm11.244 3.184c-.139-.102-.404.19-.505.353-.088.177-.025.278.076.329.1.038.278-.063.316-.152.037-.1.252-.391.113-.53Zm-.076 1.364c-.19.24-.379.417-.492.569-.114.139.025.29.139.328.126.038.34.165.593-.353l-.24-.544ZM12.87 16.8c-.126.14-.43.354-.202.518.203.14.316 0 .417-.1.089-.102.43-.443.303-.595-.126-.139-.404.114-.518.177Zm-.656-.113c-.417.265.05.492.315.265.14-.114.43-.341.304-.506-.114-.139-.493.177-.62.24Zm.05-.506c-.202.089-.834.303-.632.581.114.127.316.013.392-.038.089-.05.53-.353.417-.53-.038-.063-.14-.038-.177-.013Zm-1.1-.101c-.176.114-.088.556.317.354.417-.202.707-.404.644-.556-.063-.139-.53-.026-.96.202Zm.178-.632a2.666 2.666 0 0 0-.506.24c-.139.089-.252.417.291.278.556-.151.581-.341.505-.467-.075-.127-.252-.063-.29-.05Zm-.683-.227c-.138.013-.265.126-.227.253.05.151.38.202.733.025.366-.19.341-.227.303-.329-.038-.1-.417-.025-.809.051Zm-.353-.455c-.215.038-.215.126-.19.202.025.076.14.215.506.152.379-.05.58-.202.58-.329 0-.126-.669-.05-.896-.025Zm-.05-.442c-.38 0-.392.404.037.379.341-.012.746-.101.746-.227-.013-.14-.506-.152-.784-.152Zm1.225.088c.303 0 1.402-.025 1.718.038.316.05.708.14.872.43.151.24-.089.632-.203.796a8.402 8.402 0 0 1-.58.581c-.114.089-.329-.05-.14-.265-.24.139-.543.113-.404-.228-.215.177-.568.19-.354-.252-.139.113-.543.1-.29-.24-.215.063-.455-.064-.303-.278-.266.037-.43-.165-.14-.316-.265.075-.34-.24-.176-.266Zm-3.374-.796c.38 0 1.63.076 2.098.076.454 0 1.516-.025 1.895-.05.391-.026 1.402-.051 1.806 0 .405.037 1.29.1 1.44.518.165.416-.176.644-.39.808-.216.152-.885.543-.91 1.554-.165-.076-.417-.114-.24-.48.1-.202.58-.859.467-1.162-.114-.304-.48-.543-1.327-.582-.846-.025-2.034 0-2.45-.063-.418-.075-2.01-.48-2.338-.518-.152-.025-.152-.088-.05-.1Zm4.978 4.246c-.227.227-.568.606-.808.808-.164.152-.05.442.227.316.265-.126.758-.581.897-1.023a3.129 3.129 0 0 1-.316-.101Zm-.644-.215c-.366.252-1.2.808-1.34.91-.189.126-.29.34.09.315.366-.038 1.06-.303 1.604-1.099a6.11 6.11 0 0 1-.354-.126Zm-.657-.38c-.215.14-1.617.873-2.261 1.062-.215.076-.114.278.1.303.215.038.759.038 1.403-.354.392-.227.96-.644 1.137-.796a3.997 3.997 0 0 1-.379-.214Zm-.594-.492c-.328.164-2.337.998-3.108 1.175-.215.05-.328.215-.076.303.266.076.86.038 1.226-.063.354-.101 1.807-.568 2.362-1.112-.113-.05-.379-.24-.404-.303Zm-4.738.606c.354-.075 3.26-.732 4.094-1.048.24-.076.328 0 .366.088.05.089.063.215-.101.29-.152.064-2.388.986-3.45 1.05-.378 0-.694-.14-.871-.215-.113-.064-.063-.064-.038-.165ZM5.1 16.635c.506-.063 3.841-.594 4.738-.834.367-.088.53-.05.582.05.037.102.037.279-.215.367-.265.089-3.21.77-3.753.809-.543.025-1.187-.101-1.364-.24-.164-.127.012-.152.012-.152Zm-1.073-.897c.366 0 4.586-.316 5.47-.505.303-.026.505-.038.53.088.026.126.013.19-.24.265-.264.063-3.398.657-4.977.683-.53-.013-1.15-.518-.783-.531Zm-.998-.948c.517.013 3.095.026 3.398.013.29-.013 2.628-.139 2.893-.152.278-.025.53.051.53.14 0 .088-.05.163-.366.227-.315.075-3.221.404-5.42.366-.417.013-.973-.202-1.124-.404-.139-.202.013-.19.089-.19Zm11.64-.764c-.132-.066-.038-.254.093-.189.106.053.22.117.31.186.105.079.183.17.201.269l.002.01a.482.482 0 0 1-.057.282.882.882 0 0 1-.264.279c-.118.086-.242-.083-.124-.17a.68.68 0 0 0 .203-.208.284.284 0 0 0 .032-.164c-.012-.038-.058-.083-.12-.13a1.797 1.797 0 0 0-.277-.166Z" fill="#FFD124"/><path fill-rule="evenodd" clip-rule="evenodd" d="M21.879 19.275c.253.14.973.341 1.175-.127.278.152.884.266 1.175-.113.48.113 1.023.354 1.225-.202.43.113 1.491.379 1.604-.316.632.089 1.542.152 1.656-.518.543 0 1.49-.088 1.49-.707.544 0 1.49-.367 1.378-.809.48-.05 1.137-.569 1.137-.91.492-.151 1.036-.518.922-1.01.29-.177.77-.38.77-.67 0-.278-.227-.518-.48-.518-.265 0-1.238.152-1.579.152-.341 0-4.498-.089-5.47-.038-.973.063-2.199.038-2.805-.026-.594-.05-3.159-.189-3.512.518-.266.518-.064.695.164.898.227.202.998.568.998 1.781 0 1.2-.139 1.832.152 2.615Z" fill="#000"/><path fill-rule="evenodd" clip-rule="evenodd" d="M33.502 13.666c-.897 0-2.956.063-3.348.063-.404 0-3.235.316-3.69.455-.189.063-.24.265 0 .278.253.013 3.172.05 3.601.05.43 0 3.361.051 3.765-.467.278-.379-.076-.367-.328-.379ZM22.257 16.85c.127-.102.405.19.493.353.101.177.026.278-.076.329-.088.038-.265-.063-.303-.152-.038-.1-.252-.391-.113-.53Zm.076 1.364c.19.24.38.417.493.569.114.139-.038.29-.152.328-.113.038-.328.165-.58-.353l.24-.544Zm.796-1.415c.127.14.43.354.19.518-.19.14-.316 0-.404-.1-.09-.102-.43-.443-.304-.595.127-.139.404.114.518.177Zm.657-.113c.404.265-.063.492-.316.265-.151-.114-.442-.341-.303-.506.114-.139.493.177.62.24Zm-.05-.506c.202.089.834.303.631.581-.113.127-.315.013-.392-.038-.088-.05-.543-.353-.429-.53.05-.063.152-.038.19-.013Zm1.086-.101c.19.114.101.556-.316.354-.404-.202-.695-.404-.631-.556.063-.139.53-.026.947.202Zm-.164-.632c.177.064.354.152.505.24.14.089.253.417-.303.278-.543-.151-.569-.341-.493-.467.076-.127.24-.063.29-.05Zm.67-.227c.151.013.277.126.24.253-.051.151-.38.202-.733.025-.367-.19-.342-.227-.304-.329.039-.1.405-.025.796.051Zm.366-.455c.214.038.214.126.19.202-.039.076-.152.215-.518.152-.367-.05-.57-.202-.57-.329 0-.126.67-.05.898-.025Zm.05-.442c.38 0 .38.404-.05.379-.329-.012-.733-.101-.733-.227.013-.14.505-.152.783-.152Zm-1.238.088c-.303 0-1.402-.025-1.718.038-.316.05-.707.14-.872.43-.139.24.101.632.215.796.114.151.442.467.581.581.114.089.329-.05.14-.265.24.139.542.113.403-.228.215.177.57.19.354-.252.14.113.543.1.29-.24.215.063.456-.064.291-.278.278.037.43-.165.152-.316.265.075.341-.24.164-.266Zm3.386-.796c-.379 0-1.642.076-2.097.076-.455 0-1.516-.025-1.895-.05-.392-.026-1.402-.051-1.807 0-.404.037-1.288.1-1.453.518-.151.416.19.644.405.808.214.152.871.543.897 1.554.177-.076.416-.114.253-.48-.102-.202-.594-.859-.48-1.162.113-.304.492-.543 1.339-.582.846-.025 2.034 0 2.438-.063.417-.075 2.021-.48 2.35-.518.139-.025.139-.088.05-.1Zm-4.99 4.246c.227.227.581.606.821.808.152.152.038.442-.228.316-.277-.126-.77-.581-.897-1.023.104-.027.205-.06.304-.101Zm.644-.215c.366.252 1.213.808 1.352.91.19.126.278.34-.089.315-.366-.038-1.06-.303-1.604-1.099.076-.025.265-.088.341-.126Zm.657-.38c.215.14 1.617.873 2.262 1.062.214.076.113.278-.102.303-.202.038-.758.038-1.402-.354a11.368 11.368 0 0 1-1.124-.796 2.77 2.77 0 0 0 .366-.214Zm.607-.492c.328.164 2.337.998 3.108 1.175.214.05.328.215.063.303-.253.076-.847.038-1.213-.063-.354-.101-1.807-.568-2.363-1.112.114-.05.38-.24.404-.303Zm4.737.606c-.353-.075-3.26-.732-4.093-1.048-.24-.076-.329 0-.367.088-.05.089-.063.215.09.29.163.064 2.4.986 3.448 1.05.392 0 .708-.14.885-.215.113-.064.063-.064.037-.165Zm1.34-.745c-.493-.063-3.829-.594-4.726-.834-.366-.088-.53-.05-.58.05-.039.102-.039.279.214.367.265.089 3.209.77 3.752.809.544.025 1.188-.101 1.365-.24.164-.127-.025-.152-.025-.152Zm1.073-.897c-.353 0-4.573-.316-5.458-.505-.303-.026-.505-.038-.53.088-.026.126-.013.19.24.265.253.063 3.386.657 4.977.683.532-.013 1.15-.518.771-.531Zm1.011-.948c-.518.013-3.095.026-3.398.013-.303-.013-2.628-.139-2.906-.152-.266-.025-.531.051-.531.14 0 .088.063.163.379.227.316.075 3.222.404 5.42.366.417.013.973-.202 1.112-.404.152-.202-.013-.19-.076-.19Zm-11.746-.953c.131-.065.225.123.094.188a1.744 1.744 0 0 0-.275.165c-.062.048-.106.093-.11.129h.001a.294.294 0 0 0 .027.167.626.626 0 0 0 .206.205c.12.084-.001.257-.12.173a.822.822 0 0 1-.272-.28.492.492 0 0 1-.052-.282l.002-.001c.009-.103.084-.196.19-.277.09-.07.203-.134.31-.187Z" fill="#FFD124"/><path fill-rule="evenodd" clip-rule="evenodd" d="M17.899 21.17c2.413 0 4.371-1.453 4.371-3.26 0-1.781-1.958-3.234-4.371-3.234-2.413 0-4.372 1.453-4.372 3.234 0 1.807 1.959 3.26 4.372 3.26Z" fill="#000"/><path d="M17.9 20.813c1.084 0 2.066-.328 2.776-.858.7-.525 1.135-1.247 1.135-2.043 0-.785-.436-1.502-1.139-2.023-.709-.526-1.69-.852-2.773-.852-1.084 0-2.064.326-2.773.852-.703.521-1.138 1.238-1.138 2.023 0 .796.434 1.518 1.135 2.043.71.53 1.691.858 2.776.858Zm2.887-.708c-.74.553-1.761.895-2.888.895-1.126 0-2.148-.342-2.888-.895-.748-.56-1.21-1.335-1.21-2.193 0-.847.464-1.617 1.214-2.173.74-.548 1.76-.89 2.884-.89 1.124 0 2.144.342 2.884.89.75.556 1.214 1.326 1.214 2.173 0 .858-.462 1.633-1.21 2.193Z" fill="#FFD124"/><path fill-rule="evenodd" clip-rule="evenodd" d="M19.82 16.735c0-.48-.506-1.2-1.959-1.2-.859 0-1.58.215-2.009.62.102.088.215.214.215.365v2.616c-.012.164-.088.29-.202.43.404.328 1.086.618 2.148.593 1.061-.025 2.046-.366 2.046-1.352 0-.417-.391-.834-.82-.972-.114-.038-.089-.152 0-.19.088-.038.58-.417.58-.91ZM18 19.594a.78.78 0 0 0 .773-.8.78.78 0 0 0-.773-.798.78.78 0 0 0-.773.799.78.78 0 0 0 .773.799Zm-.088-2.038c.366 0 .67-.328.67-.732 0-.405-.304-.733-.67-.733-.367 0-.67.328-.67.733 0 .404.303.732.67.732Z" fill="#FFD124"/></svg>