<svg width="24" height="24" fill="none" xmlns="http://www.w3.org/2000/svg"><g clip-path="url(#a)"><path d="M12 0C5.373 0 0 5.372 0 12c0 6.627 5.373 12 12 12 6.628 0 12-5.373 12-12 0-6.628-5.372-12-12-12Zm0 23.4C5.704 23.4.6 18.296.6 12S5.705.6 12 .6 23.4 5.704 23.4 12 18.296 23.4 12 23.4Z" fill="#FFD124"/><path d="M23.486 12c0 6.342-5.143 11.485-11.486 11.485-6.343 0-11.485-5.143-11.485-11.486C.515 5.656 5.657.514 12 .514c6.343 0 11.486 5.142 11.486 11.485Z" fill="#000"/><path d="M23.4 12c0 6.296-5.104 11.4-11.4 11.4S.6 18.295.6 12 5.705.6 12 .6 23.4 5.704 23.4 12Z" fill="#000"/><path d="M19.643 12a7.643 7.643 0 1 1-15.285 0 7.643 7.643 0 0 1 15.285 0Z" fill="#FFD124"/><path d="m12.306 4.15.794-2.104V4.15h.603V1.137h-.906l-.824 2.157h.007l-.824-2.157h-.906V4.15h.603V2.046l.794 2.104h.66Zm8.275 1.352-1.03 1.502 1.618-.796.439.526-2.547 1.279-.514-.623.987-1.489-.006-.007-1.642.703-.52-.619 1.717-2.274.439.527-1.076 1.448 1.664-.742.471.565ZM6.663 4.927c-.243-.235-.617-.306-.97-.088a.67.67 0 0 0 .005-.45c-.152-.276-.205-.311-.329-.416-.405-.34-.83-.05-1.135.313l-1.47 1.753 2.312 1.94 1.55-1.849c.355-.422.41-.84.037-1.203Zm-2.99.846.883-1.053c.102-.122.334-.117.482.008.164.137.164.331.054.463L4.22 6.23l-.547-.458Zm2.436.175-.92 1.097-.577-.485.927-1.106c.105-.125.34-.161.497-.029.178.15.195.377.073.523Z" fill="#000"/><path d="m12.313 4.035.794-2.104v2.104h.603V1.021h-.906l-.825 2.158h.008l-.824-2.158h-.906v3.014h.603V1.931l.794 2.104h.659ZM20.587 5.3l-1.03 1.5 1.619-.796.438.527-2.546 1.279-.515-.624.987-1.488-.005-.007-1.643.703-.52-.62 1.717-2.273.44.526-1.076 1.448 1.663-.742.471.565ZM6.555 4.867c-.243-.236-.618-.307-.97-.089a.671.671 0 0 0 .005-.45c-.152-.276-.205-.31-.33-.415-.405-.34-.83-.05-1.134.313l-1.47 1.752 2.311 1.94 1.55-1.848c.355-.423.41-.841.038-1.203Zm-2.991.845.883-1.052c.102-.122.334-.118.483.007.163.138.164.332.053.463L4.11 6.17l-.546-.458Zm2.437.175-.92 1.097-.578-.484.928-1.106c.105-.125.338-.161.496-.03.179.15.196.377.074.523ZM4.611 12a7.389 7.389 0 1 1 14.778 0A7.389 7.389 0 0 1 4.61 12Z" fill="#FFD124"/><path d="M4.824 12a7.176 7.176 0 1 1 14.353 0 7.176 7.176 0 0 1-14.353 0Z" fill="#FFD124"/><path d="M4.813 12H12V4.812A7.187 7.187 0 0 0 4.812 12ZM12 12v7.187A7.187 7.187 0 0 0 19.187 12H12Z" fill="#000"/><path d="M19.246 11.873h-7.119v-7.12h-.255v7.12h-7.12v.255h7.12v7.12h.255v-7.12h7.12v-.255Z" fill="#FFD124"/><path d="M12.127 4.954a7.047 7.047 0 0 1 6.919 6.917h.127a7.174 7.174 0 0 0-7.046-7.045v.128Z" fill="#FFD124"/><path d="M4.942 11.871a7.056 7.056 0 0 1 6.927-6.927v-.128a7.183 7.183 0 0 0-7.055 7.055h.128Z" fill="#000"/><path d="M11.873 19.045a7.046 7.046 0 0 1-6.918-6.918h-.128a7.174 7.174 0 0 0 7.046 7.046v-.128Z" fill="#FFD124"/><path d="M19.047 12.127a7.047 7.047 0 0 1-6.92 6.918v.128a7.174 7.174 0 0 0 7.047-7.046h-.127Zm-7.311-7.311v6.916H4.82v.137h7.052V4.816h-.136Z" fill="#000"/><path d="M11.725 19.106v-6.833H4.878v-.134h6.982v6.967h-.135Z" fill="#FFD124"/><path d="M12.274 19.106v-6.833h6.833v-.134H12.14v6.967h.134Z" fill="#000"/><path d="M12.274 4.877v6.833h6.833v.134H12.14V4.877h.134Z" fill="#FFD124"/></g><defs><clipPath id="a"><path fill="#fff" d="M0 0h24v24H0z"/></clipPath></defs></svg>