<svg width="24" height="24" fill="none" xmlns="http://www.w3.org/2000/svg"><g clip-path="url(#a)"><path d="m19.928 6.723-.423-.05-7.6-.898v.301l7.57.893.453-.246Z" fill="#000"/><path d="m11.904 6.076 7.572.892-1.145 2.156s-.14 2.901-.232 4.04c-.094 1.14-.118 2.033-.934 2.403a29.714 29.714 0 0 1-5.26 1.78V6.077Z" fill="#000"/><path d="m19.928 6.723-.453.246-1.144 2.155.281.044 1.106-2.054.21-.391Zm-16.045 0 .42-.05 7.602-.898v.301l-7.57.892 1.143 2.156s.14 2.901.235 4.04c.093 1.14.116 2.034.933 2.403a29.712 29.712 0 0 0 5.259 1.78v.308c-1.711-.396-3.797-1.098-5.37-1.815-.925-.42-1-1.364-1.087-2.46l-.015-.19c-.085-1.033-.212-3.573-.234-4.022L4.09 7.115l-.208-.392Z" fill="#000"/><path d="m3.883 6.723.42-.05 7.601-.898v.301l-7.57.893-.451-.246Z" fill="#000"/><path d="m11.905 6.076-7.571.892 1.143 2.156s.14 2.901.235 4.04c.093 1.14.116 2.033.934 2.403a29.756 29.756 0 0 0 5.259 1.78V6.077Z" fill="#000"/><path d="m3.883 6.723.45.246 1.144 2.155-.28.044L4.09 7.114l-.206-.391Zm14.448 2.4s-.14 2.901-.232 4.04c-.094 1.14-.118 2.033-.934 2.403a29.719 29.719 0 0 1-5.26 1.78v.308c1.71-.396 3.795-1.098 5.37-1.815.925-.42 1-1.364 1.088-2.46l.015-.19c.084-1.033.212-3.573.234-4.022l-.28-.044Z" fill="#000"/><path d="M18.59 9.165c-.02.415-.149 2.982-.234 4.024l-.015.195c-.087 1.088-.162 2.022-1.074 2.437-1.578.72-3.658 1.419-5.362 1.812l-.021-.304a29.987 29.987 0 0 0 5.261-1.78c.816-.372.84-1.256.933-2.396.095-1.14.234-4.04.234-4.04l.278.052Z" fill="#000"/><path d="M18.568 9.16c-.019.38-.147 2.976-.235 4.024 0 .014-.014.187-.016.2-.084 1.083-.16 2.005-1.06 2.414-1.582.722-3.657 1.417-5.353 1.808l-.042-.302a29.73 29.73 0 0 0 5.26-1.781c.817-.371.842-1.246.934-2.387.094-1.139.233-4.038.233-4.038l.28.062Z" fill="#000"/><path d="M18.548 9.16c-.017.344-.147 2.966-.234 4.024a7.148 7.148 0 0 0-.016.202c-.085 1.08-.161 1.99-1.048 2.394a30.685 30.685 0 0 1-5.345 1.806l-.064-.301a29.904 29.904 0 0 0 5.261-1.78c.817-.373.841-1.238.934-2.379.095-1.14.233-4.04.233-4.04l.279.074Z" fill="#000"/><path d="M18.525 9.154c-.015.31-.146 2.961-.233 4.026l-.017.207c-.086 1.071-.159 1.972-1.033 2.37a30.466 30.466 0 0 1-5.337 1.803l-.084-.298a29.74 29.74 0 0 0 5.26-1.781c.815-.371.842-1.23.935-2.369.093-1.14.233-4.04.233-4.04l.276.082Z" fill="#000"/><path d="M18.505 9.152c-.014.277-.147 2.954-.234 4.029l-.017.208c-.085 1.067-.159 1.957-1.02 2.348a30.665 30.665 0 0 1-5.329 1.801l-.105-.297a29.913 29.913 0 0 0 5.259-1.78c.817-.372.843-1.221.936-2.361.094-1.14.234-4.04.234-4.04l.276.092Z" fill="#000"/><path d="M18.483 9.148c-.013.242-.146 2.948-.234 4.03l-.018.213c-.083 1.064-.157 1.94-1.007 2.326a30.205 30.205 0 0 1-5.32 1.797l-.127-.293a29.75 29.75 0 0 0 5.262-1.782c.816-.371.842-1.212.934-2.352.095-1.14.235-4.038.235-4.038l.275.099Z" fill="#000"/><path d="M18.462 9.145c-.01.207-.144 2.94-.235 4.031a7.543 7.543 0 0 1-.018.216c-.083 1.057-.156 1.922-.993 2.3-1.606.733-3.654 1.414-5.31 1.797l-.15-.291a29.975 29.975 0 0 0 5.262-1.78c.816-.372.841-1.205.936-2.344.092-1.14.232-4.039.232-4.039l.276.11Z" fill="#000"/><path d="M18.44 9.141c-.008.172-.143 2.934-.233 4.032l-.019.218c-.083 1.054-.157 1.906-.98 2.282a30.22 30.22 0 0 1-5.303 1.792l-.17-.29a29.951 29.951 0 0 0 5.262-1.78c.816-.37.842-1.194.935-2.334.094-1.14.233-4.04.233-4.04l.274.12Z" fill="#000"/><path d="M18.419 9.138c-.008.138-.144 2.926-.234 4.034a7.007 7.007 0 0 0-.018.222c-.083 1.047-.157 1.89-.967 2.258a30.255 30.255 0 0 1-5.295 1.791l-.19-.288a29.902 29.902 0 0 0 5.26-1.78c.816-.372.843-1.187.937-2.326.093-1.141.232-4.04.232-4.04l.275.13Z" fill="#000"/><path d="M18.395 9.135c-.004.104-.141 2.92-.233 4.034-.006.064-.012.168-.018.226-.083 1.043-.157 1.873-.954 2.235a30.121 30.121 0 0 1-5.287 1.788l-.21-.286a29.848 29.848 0 0 0 5.26-1.78c.816-.372.843-1.177.936-2.317.094-1.14.233-4.039.233-4.039l.273.14Z" fill="#000"/><path d="M18.375 9.13c-.004.069-.14 2.914-.233 4.038a15.49 15.49 0 0 0-.018.229c-.082 1.036-.156 1.855-.941 2.212a29.98 29.98 0 0 1-5.277 1.786l-.233-.285a29.743 29.743 0 0 0 5.26-1.78c.816-.371.844-1.167.937-2.309.094-1.138.234-4.039.234-4.039l.271.148Z" fill="#000"/><path d="M18.354 9.13c-.002.033-.14 2.904-.234 4.037l-.019.234c-.082 1.03-.154 1.837-.928 2.188a29.798 29.798 0 0 1-5.268 1.784l-.255-.28a30.078 30.078 0 0 0 5.262-1.781c.817-.374.846-1.16.938-2.302.093-1.139.232-4.04.232-4.04l.272.16Z" fill="#000"/><path d="M11.63 17.068a29.938 29.938 0 0 0 5.259-1.779c.818-.373.845-1.152.94-2.291.093-1.14.232-4.041.232-4.041l.27.167s-.14 2.9-.232 4.04c-.008.08-.013.158-.02.236-.082 1.026-.156 1.822-.915 2.167a29.703 29.703 0 0 1-5.26 1.78l-.274-.279Z" fill="#000"/><path d="M5.473 9.123s.14 2.901.232 4.04c.093 1.14.118 2.033.934 2.403a29.74 29.74 0 0 0 5.261 1.78v.308c-1.712-.396-3.797-1.098-5.37-1.815-.927-.42-1.001-1.364-1.087-2.46l-.016-.19c-.084-1.033-.212-3.573-.235-4.022l.28-.044Z" fill="#000"/><path d="M5.215 9.165c.02.415.148 2.982.233 4.024l.017.195c.084 1.088.16 2.022 1.073 2.437 1.577.72 3.66 1.419 5.362 1.812l.02-.304a29.967 29.967 0 0 1-5.26-1.78c-.817-.372-.84-1.256-.934-2.396-.092-1.14-.233-4.04-.233-4.04l-.278.052Z" fill="#000"/><path d="M5.235 9.16c.02.38.149 2.976.235 4.024 0 .014.014.187.016.2.085 1.083.161 2.005 1.06 2.414 1.583.722 3.657 1.417 5.354 1.808l.042-.302a29.746 29.746 0 0 1-5.26-1.781c-.818-.371-.842-1.246-.936-2.387-.092-1.139-.232-4.038-.232-4.038l-.279.062Z" fill="#000"/><path d="M5.258 9.16c.016.344.147 2.966.233 4.024l.016.202c.087 1.08.161 1.99 1.048 2.394a30.679 30.679 0 0 0 5.346 1.806l.063-.301a29.883 29.883 0 0 1-5.26-1.78c-.818-.373-.842-1.238-.936-2.379-.094-1.14-.232-4.04-.232-4.04l-.278.074Z" fill="#000"/><path d="M5.278 9.154c.016.31.148 2.961.234 4.026l.017.207c.085 1.071.16 1.972 1.034 2.37A30.492 30.492 0 0 0 11.9 17.56l.084-.298a29.73 29.73 0 0 1-5.26-1.781c-.818-.371-.842-1.23-.936-2.369-.093-1.14-.234-4.04-.234-4.04l-.276.082Z" fill="#000"/><path d="M5.3 9.152c.015.277.148 2.954.235 4.029l.017.208c.085 1.067.16 1.957 1.02 2.348a30.69 30.69 0 0 0 5.33 1.801l.105-.297a29.998 29.998 0 0 1-5.26-1.78c-.819-.372-.843-1.221-.936-2.361-.095-1.14-.234-4.04-.234-4.04l-.276.092Z" fill="#000"/><path d="M5.321 9.148c.013.242.147 2.948.235 4.03l.018.213c.083 1.064.157 1.94 1.005 2.326a30.297 30.297 0 0 0 5.321 1.797l.127-.293a29.778 29.778 0 0 1-5.26-1.782c-.818-.371-.843-1.212-.937-2.352-.093-1.14-.233-4.038-.233-4.038l-.276.099Z" fill="#000"/><path d="M5.345 9.145c.009.207.143 2.94.234 4.031l.016.216c.085 1.057.158 1.922.994 2.3 1.607.733 3.655 1.414 5.313 1.797l.147-.291a29.954 29.954 0 0 1-5.26-1.78c-.817-.372-.844-1.205-.937-2.344-.094-1.14-.233-4.039-.233-4.039l-.274.11Z" fill="#000"/><path d="M5.364 9.141c.009.172.145 2.934.236 4.032l.017.218c.084 1.054.158 1.906.98 2.282a30.18 30.18 0 0 0 5.304 1.792l.17-.29a29.927 29.927 0 0 1-5.261-1.78c-.817-.37-.843-1.194-.937-2.334-.092-1.14-.233-4.04-.233-4.04l-.276.12Z" fill="#000"/><path d="M5.387 9.138c.007.138.143 2.926.233 4.034.005.056.015.168.018.222.083 1.047.158 1.89.968 2.258a30.233 30.233 0 0 0 5.294 1.791l.19-.288a29.924 29.924 0 0 1-5.26-1.78c-.818-.372-.844-1.187-.937-2.326-.094-1.141-.234-4.04-.234-4.04l-.272.13Z" fill="#000"/><path d="M5.408 9.135c.005.104.142 2.92.234 4.034l.018.226c.084 1.043.157 1.873.954 2.235a30.128 30.128 0 0 0 5.287 1.788l.21-.286a29.866 29.866 0 0 1-5.26-1.78c-.817-.372-.843-1.177-.937-2.317-.093-1.14-.233-4.039-.233-4.039l-.273.14Z" fill="#000"/><path d="M5.43 9.13c.004.069.14 2.914.233 4.038l.018.229c.083 1.036.156 1.855.94 2.212 1.626.74 3.653 1.41 5.28 1.786l.232-.285a29.74 29.74 0 0 1-5.26-1.78c-.818-.371-.845-1.167-.939-2.309-.094-1.138-.233-4.039-.233-4.039l-.271.148Z" fill="#000"/><path d="M5.451 9.13c.002.033.14 2.904.233 4.037.006.073.014.16.019.234.082 1.03.155 1.837.928 2.188a29.795 29.795 0 0 0 5.27 1.784l.253-.28a30.053 30.053 0 0 1-5.26-1.781c-.818-.374-.845-1.16-.939-2.302-.092-1.139-.232-4.04-.232-4.04l-.272.16Z" fill="#000"/><path d="M12.176 17.068a29.972 29.972 0 0 1-5.26-1.779c-.817-.373-.846-1.152-.939-2.291-.093-1.14-.232-4.041-.232-4.041l-.27.167s.14 2.9.232 4.04l.02.236c.082 1.026.155 1.822.914 2.167 1.634.743 3.65 1.41 5.26 1.78l.275-.279Z" fill="#000"/><path d="m11.904 6.066-7.571.893-.017.002.008.016 1.143 2.156v-.006c0 .03.14 2.913.232 4.04l.016.191c.084 1.046.148 1.871.926 2.224a30.121 30.121 0 0 0 5.262 1.782h.005a30.119 30.119 0 0 0 5.262-1.782c.776-.353.842-1.178.925-2.224l.014-.19c.093-1.128.233-4.01.235-4.041l-.002.006 1.142-2.156.008-.016-.015-.002-7.57-.893h-.003Zm7.562.899L18.323 9.12l-.001.003v.003c-.002.029-.142 2.912-.234 4.04l-.016.19c-.082 1.037-.147 1.855-.91 2.203a29.91 29.91 0 0 1-5.26 1.778h.006a29.865 29.865 0 0 1-5.259-1.778c-.763-.348-.83-1.166-.91-2.203l-.017-.19c-.092-1.128-.231-4.01-.233-4.04V9.12L4.344 6.965l-.008.018 7.57-.892h-.002l7.57.892-.009-.018Z" fill="#000"/><path d="M8.894.58C4.6 1.908.884 5.299.884 11.024c0 5.889 4.774 10.905 11.024 11.248v1.152c-5.497 0-11.829-4.78-11.829-12.09C.08 5.051 3.76 1.88 8.148.382a.405.405 0 0 1 .163.003c.188.04.38.083.583.195Z" fill="#000"/><path d="M11.915 23.784c-7.052 0-12.123-6.353-12.123-12.39 0-2.223 1.442-7.18 4.622-7.18-.66.7-2.49 3.019-2.49 6.339 0 4.558 2.91 9.515 9.984 10.27 1.882.201 3.546 2.96.007 2.96Z" fill="#000"/><path d="M11.844 20.84c1.595.16 2.947 2.109 1.288 2.703-.323.115-.758.182-1.324.178C5.123 23.662.27 17.954-.136 12.18a11.293 11.293 0 0 1-.028-.798c.007-1.8.92-5.196 2.824-6.53a2.776 2.776 0 0 1 1.695-.51c-.53.593-1.792 2.215-2.251 4.523a8.901 8.901 0 0 0-.17 1.78c.026 4.569 2.987 9.468 9.91 10.194Z" fill="#000"/><path d="M11.78 20.857c1.612.155 2.893 2.085 1.234 2.641-.324.107-.756.168-1.313.16C5.068 23.543.295 17.924-.095 12.162a11.45 11.45 0 0 1-.027-.79c.014-1.845.944-5.176 2.807-6.468a2.525 2.525 0 0 1 1.607-.43c-.523.621-1.75 2.24-2.192 4.502a9.197 9.197 0 0 0-.159 1.766c.056 4.575 3.066 9.417 9.84 10.114Z" fill="#000"/><path d="M11.718 20.872c1.626.147 2.837 2.06 1.18 2.578-.328.1-.756.154-1.302.143C5.014 23.42.322 17.896-.054 12.143a10.881 10.881 0 0 1-.024-.785c.02-1.888.966-5.155 2.79-6.403.443-.28.947-.416 1.52-.351-.517.646-1.709 2.262-2.132 4.48a9.064 9.064 0 0 0-.149 1.75c.082 4.584 3.142 9.369 9.767 10.038Z" fill="#000"/><path d="M11.654 20.889c1.644.143 2.783 2.036 1.125 2.517-.328.09-.752.139-1.292.124C4.958 23.3.345 17.868-.014 12.127c-.017-.26-.024-.52-.022-.777.026-1.933.988-5.14 2.776-6.342a2.05 2.05 0 0 1 1.431-.27c-.51.673-1.669 2.286-2.074 4.458a9.172 9.172 0 0 0-.136 1.736c.11 4.59 3.22 9.317 9.694 9.957Z" fill="#000"/><path d="M11.592 20.905c1.66.137 2.728 2.012 1.07 2.454-.33.083-.75.126-1.279.107C4.905 23.178.371 17.839.03 12.107a10.878 10.878 0 0 1-.022-.77C.041 9.36 1.02 6.216 2.767 5.058a1.846 1.846 0 0 1 1.346-.194c-.507.7-1.63 2.312-2.016 4.439a9.159 9.159 0 0 0-.126 1.72c.137 4.602 3.296 9.271 9.621 9.88Z" fill="#000"/><path d="M11.528 20.922c1.678.128 2.674 1.987 1.018 2.391-.331.076-.749.112-1.27.09C4.849 23.056.397 17.811.07 12.09a10.88 10.88 0 0 1-.019-.765c.039-2.02 1.034-5.099 2.742-6.216.366-.19.782-.244 1.256-.113-.498.729-1.588 2.337-1.954 4.418a9.324 9.324 0 0 0-.115 1.706c.165 4.609 3.373 9.219 9.548 9.802Z" fill="#000"/><path d="M11.465 20.938c1.693.123 2.62 1.963.962 2.328a5.171 5.171 0 0 1-1.258.073C4.795 22.936.421 17.782.111 12.072c-.014-.253-.02-.507-.016-.758C.14 9.249 1.15 6.232 2.819 5.16c.342-.162.729-.187 1.171-.035-.495.756-1.547 2.362-1.897 4.398a9.208 9.208 0 0 0-.104 1.691c.193 4.617 3.451 9.171 9.476 9.724Z" fill="#000"/><path d="M11.402 20.952c1.71.117 2.565 1.94.91 2.267-.336.06-.746.085-1.25.054-6.32-.458-10.615-5.52-10.91-11.22a9.656 9.656 0 0 1-.015-.753c.051-2.107 1.079-5.062 2.708-6.088.317-.135.673-.13 1.084.043-.49.783-1.507 2.387-1.838 4.376a9.2 9.2 0 0 0-.093 1.678c.221 4.623 3.53 9.12 9.404 9.643Z" fill="#000"/><path d="M11.339 20.97c1.726.11 2.51 1.915.854 2.203a5.64 5.64 0 0 1-1.238.038C4.687 22.694.471 17.726.193 12.035c-.014-.25-.017-.498-.014-.745.06-2.153 1.101-5.042 2.692-6.027.29-.104.619-.071.997.123-.483.81-1.466 2.412-1.78 4.354a9.27 9.27 0 0 0-.08 1.664c.248 4.632 3.606 9.072 9.331 9.565Z" fill="#000"/><path d="M11.276 20.985c1.744.104 2.457 1.89.802 2.141a5.895 5.895 0 0 1-1.227.02C4.635 22.572.497 17.697.235 12.016a10.675 10.675 0 0 1-.011-.736C.289 9.08 1.349 6.253 2.9 5.315c.265-.076.563-.016.91.202-.479.836-1.426 2.436-1.72 4.334a9.306 9.306 0 0 0-.07 1.65c.273 4.637 3.681 9.02 9.256 9.484Z" fill="#000"/><path d="M11.213 21c1.76.098 2.402 1.869.748 2.08a6.29 6.29 0 0 1-1.217.001C4.58 22.45.522 17.666.277 11.997c-.012-.246-.015-.49-.01-.73.073-2.243 1.148-5.007 2.66-5.904.24-.046.51.043.822.282-.471.863-1.384 2.46-1.66 4.314a9.351 9.351 0 0 0-.062 1.633c.305 4.648 3.762 8.973 9.187 9.408Z" fill="#000"/><path d="M11.149 21.017c1.777.092 2.349 1.845.694 2.018a7.01 7.01 0 0 1-1.206-.016C4.526 22.329.547 17.639.32 11.98c-.01-.245-.014-.485-.009-.724.079-2.287 1.17-4.989 2.643-5.84.215-.018.454.1.735.36-.466.89-1.343 2.486-1.601 4.292a9.416 9.416 0 0 0-.05 1.62c.33 4.654 3.838 8.921 9.112 9.328Z" fill="#000"/><path d="M11.085 21.033c1.795.084 2.295 1.82.642 1.955a7.3 7.3 0 0 1-1.196-.033C4.471 22.207.571 17.61.361 11.963c-.01-.243-.013-.482-.007-.72C.44 8.914 1.546 6.277 2.98 5.47c.19.01.401.155.649.438-.46.919-1.305 2.511-1.543 4.271a9.084 9.084 0 0 0-.038 1.606c.357 4.663 3.913 8.872 9.037 9.249Z" fill="#000"/><path d="M11.023 21.05c1.81.078 2.239 1.795.586 1.894-.343.011-.736 0-1.185-.052C4.417 22.087.596 17.584.4 11.946a10.76 10.76 0 0 1-.003-.711c.09-2.375 1.214-4.95 2.61-5.714.164.04.344.214.56.517-.456.946-1.263 2.536-1.484 4.252a9.441 9.441 0 0 0-.027 1.589c.386 4.67 3.993 8.823 8.966 9.171Z" fill="#000"/><path d="M10.96 21.067c1.826.07 2.185 1.77.532 1.829a8.205 8.205 0 0 1-1.174-.068c-5.955-.863-9.697-5.274-9.877-10.9a9.08 9.08 0 0 1 0-.706c.096-2.42 1.237-4.93 2.592-5.652.14.072.29.272.474.598-.45.973-1.223 2.56-1.424 4.23a9.218 9.218 0 0 0-.015 1.573c.411 4.681 4.067 8.776 8.892 9.096Z" fill="#000"/><path d="M10.896 21.083c1.845.065 2.129 1.746.48 1.767a8.733 8.733 0 0 1-1.164-.086C4.309 21.844.646 17.526.482 11.91a12.436 12.436 0 0 1 0-.698c.106-2.465 1.261-4.913 2.576-5.588.115.099.237.327.388.674-.444 1.002-1.181 2.588-1.366 4.21a9.492 9.492 0 0 0-.004 1.56c.44 4.689 4.146 8.726 8.82 9.016Z" fill="#000"/><path d="M10.832 21.099c1.862.058 2.077 1.722.426 1.705-.348-.011-.73-.043-1.152-.105-5.85-.977-9.434-5.203-9.58-10.81a10.554 10.554 0 0 1 0-.69c.112-2.507 1.285-4.893 2.56-5.525.09.129.182.385.302.754-.44 1.028-1.143 2.61-1.307 4.188a9.256 9.256 0 0 0 .006 1.546c.466 4.696 4.223 8.675 8.745 8.937Z" fill="#000"/><path d="M10.769 21.116c1.877.052 2.021 1.698.372 1.644a10.95 10.95 0 0 1-1.142-.122C4.199 21.603.696 17.469.565 11.873c-.006-.232-.004-.46.004-.685.118-2.551 1.306-4.873 2.543-5.461.064.157.127.44.213.833-.433 1.054-1.101 2.635-1.248 4.167a9.753 9.753 0 0 0 .017 1.531c.495 4.703 4.3 8.626 8.675 8.858Z" fill="#000"/><path d="M10.707 21.13c1.893.045 1.965 1.675.316 1.581-.351-.025-.726-.07-1.13-.138C4.145 21.479.72 17.439.606 11.853c-.006-.23-.004-.455.005-.678.123-2.595 1.33-4.855 2.527-5.4.037.187.072.499.126.913-.426 1.081-1.06 2.659-1.19 4.146a9.5 9.5 0 0 0 .03 1.517c.522 4.712 4.377 8.576 8.602 8.779Z" fill="#000"/><path d="M10.645 21.145c1.908.039 1.91 1.652.263 1.519a12.686 12.686 0 0 1-1.123-.158C4.092 21.358.746 17.41.647 11.834a11.43 11.43 0 0 1 .008-.671c.132-2.641 1.352-4.835 2.51-5.337.014.215.018.557.04.992-.422 1.109-1.019 2.684-1.13 4.124-.027.5-.014 1.002.04 1.503.549 4.721 4.455 8.526 8.53 8.7Z" fill="#000"/><path d="M10.58 21.163c1.928.034 1.858 1.628.21 1.456a13.744 13.744 0 0 1-1.11-.174C4.036 21.237.77 17.383.69 11.815a9.689 9.689 0 0 1 .008-.662c.137-2.684 1.374-4.817 2.494-5.274-.011.245-.038.613-.047 1.07-.417 1.136-.98 2.71-1.072 4.105-.022.496-.006.993.051 1.486.578 4.727 4.532 8.477 8.457 8.623Z" fill="#000"/><path d="M10.517 21.179c1.943.025 1.802 1.603.155 1.394-.356-.05-.721-.113-1.1-.194C3.982 21.117.795 17.354.73 11.8c-.002-.224.001-.444.01-.658.144-2.729 1.398-4.798 2.48-5.211-.038.274-.094.67-.137 1.148-.41 1.162-.938 2.734-1.013 4.083a9.51 9.51 0 0 0 .062 1.472c.606 4.738 4.61 8.43 8.385 8.546Z" fill="#000"/><path d="M10.453 21.196c1.96.02 1.749 1.577.101 1.33-.357-.058-.72-.127-1.089-.21C3.928 20.995.82 17.324.771 11.78c-.002-.22.002-.437.013-.65.15-2.773 1.419-4.778 2.461-5.149-.063.304-.146.728-.222 1.229-.405 1.19-.898 2.758-.954 4.062-.014.49.012.978.074 1.458.63 4.746 4.686 8.379 8.31 8.467Z" fill="#000"/><path d="M10.391 21.212c1.976.013 1.694 1.553.047 1.27-.36-.065-.718-.14-1.077-.229C3.876 20.873.847 17.297.814 11.762c-.001-.22.003-.435.015-.644.156-2.817 1.441-4.76 2.444-5.087-.088.333-.201.785-.31 1.308-.398 1.217-.857 2.783-.893 4.041-.01.487.02.97.083 1.442.66 4.756 4.763 8.332 8.238 8.39Z" fill="#000"/><path d="M10.328 21.227c1.993.006 1.638 1.532-.007 1.207a20.06 20.06 0 0 1-1.069-.245C3.821 20.752.871 17.267.855 11.744c-.003-.218.005-.43.016-.637.164-2.863 1.465-4.743 2.428-5.023-.113.36-.255.842-.397 1.385-.393 1.245-.816 2.809-.835 4.02-.004.485.03.962.095 1.429.686 4.76 4.84 8.28 8.166 8.31Z" fill="#000"/><path d="M10.205 22.388C4.144 21.054.896 17.59.896 11.726c0-3.273 1.44-5.337 2.431-5.591-.45 1.27-1.26 3.779-1.26 5.465 0 5.482 4.716 9.643 8.198 9.643 2.009 0 1.584 1.507-.06 1.145ZM14.473.924c-.005.005-.008.01-.012.016l-.018.051c3.509 1.161 7.448 4.415 7.448 9.557 0 4.468-2.937 9.635-9.984 10.275l.002.298c7.05-.644 10.215-6.023 10.215-10.41 0-5.14-3.476-8.622-7.65-9.787Z" fill="#000"/><path d="M14.918.576c4.294 1.328 8.022 4.722 8.022 10.447 0 5.89-4.78 10.906-11.032 11.248l-.002 1.152c5.496 0 11.828-4.783 11.828-12.094 0-6.282-3.681-9.454-8.07-10.952a.514.514 0 0 0-.176.004c-.082.013-.192.04-.318.08a2.101 2.101 0 0 0-.252.115Z" fill="#000"/><path d="M14.473.924c4.175 1.166 7.65 4.647 7.65 9.788l.818.313c0-5.725-3.729-9.12-8.023-10.447-.2.098-.361.244-.445.346Z" fill="#000"/><path d="M22.942 11.024c0 5.888-4.776 10.907-11.028 11.25V21.12c7.048-.643 10.21-6.022 10.21-10.41l.818.313ZM9.34.927c-4.174 1.166-7.65 4.648-7.65 9.787 0 4.387 3.172 9.763 10.219 10.407v1.151C5.658 21.93.884 16.913.884 11.024.884 5.3 4.6 1.91 8.894.58c.156.077.353.228.447.347Z" fill="#000"/><path d="M1.923 10.554c0-5.143 3.937-8.396 7.446-9.558L9.35.946a.074.074 0 0 0-.01-.018c-4.174 1.166-7.65 4.647-7.65 9.787 0 4.387 3.172 9.763 10.218 10.407v-.298c-7.044-.64-9.985-5.885-9.985-10.27ZM14.468.931c1.05.294 2.04.728 2.944 1.293.934.583 1.754 1.29 2.435 2.105a9.46 9.46 0 0 1 1.658 2.849c.405 1.102.61 2.29.61 3.533 0 1.115-.209 2.285-.604 3.384a10.424 10.424 0 0 1-1.859 3.218 10.322 10.322 0 0 1-3.177 2.519c-1.352.695-2.888 1.126-4.567 1.28l.002.017c1.68-.153 3.22-.583 4.572-1.281a10.345 10.345 0 0 0 3.184-2.522 10.49 10.49 0 0 0 1.861-3.226 10.139 10.139 0 0 0-.006-6.928c-.38-1.04-.939-2-1.657-2.854a10.339 10.339 0 0 0-2.443-2.11A11.314 11.314 0 0 0 14.482.917c-.005-.002-.019.013-.014.015Z" fill="#000"/><path d="M11.81 24.016c7.05 0 12.217-6.585 12.217-12.623 0-2.222-1.44-7.178-4.621-7.178.66.698 2.49 3.018 2.49 6.338 0 4.558-2.911 9.515-9.985 10.27-1.883.201-3.642 3.193-.101 3.193Z" fill="#000"/><path d="M11.865 23.953c7.003-.063 12.084-6.509 12.084-12.537 0-2.274-1.44-7.093-4.518-7.104.65.726 2.434 3.054 2.434 6.295 0 4.604-2.998 9.523-9.901 10.242-1.888.19-3.605 3.134-.1 3.104Z" fill="#000"/><path d="M11.921 23.893c6.956-.125 11.95-6.437 11.95-12.456 0-2.324-1.44-7.005-4.414-7.029.641.753 2.374 3.09 2.374 6.254 0 4.648-3.083 9.529-9.815 10.212-1.895.182-3.568 3.078-.095 3.02Z" fill="#000"/><path d="M11.975 23.835c6.91-.189 11.818-6.364 11.818-12.374 0-2.375-1.442-6.918-4.311-6.955.63.781 2.316 3.127 2.316 6.212 0 4.692-3.17 9.534-9.73 10.183-1.901.173-3.533 3.021-.093 2.934Z" fill="#000"/><path d="M12.03 23.772c6.863-.25 11.682-6.287 11.682-12.292 0-2.423-1.44-6.828-4.206-6.876.622.809 2.257 3.162 2.257 6.172 0 4.733-3.254 9.539-9.644 10.151-1.906.163-3.494 2.963-.09 2.845Z" fill="#000"/><path d="M12.085 23.712c6.816-.313 11.548-6.212 11.548-12.21 0-2.472-1.44-6.74-4.1-6.8.612.834 2.198 3.198 2.198 6.13 0 4.778-3.34 9.545-9.56 10.121-1.912.153-3.458 2.907-.086 2.76Z" fill="#000"/><path d="M12.14 23.652c6.769-.377 11.416-6.139 11.416-12.128 0-2.523-1.441-6.653-3.995-6.725.598.863 2.137 3.236 2.137 6.087 0 4.825-3.427 9.554-9.473 10.093-1.92.145-3.422 2.849-.085 2.673Z" fill="#000"/><path d="M12.196 23.592c6.722-.44 11.28-6.065 11.28-12.045 0-2.573-1.44-6.566-3.891-6.65.59.889 2.081 3.27 2.081 6.046 0 4.866-3.513 9.559-9.39 10.062-1.925.133-3.384 2.793-.08 2.587Z" fill="#000"/><path d="M12.252 23.533c6.675-.505 11.146-5.994 11.146-11.965 0-2.622-1.44-6.477-3.788-6.574.58.916 2.023 3.309 2.023 6.006 0 4.91-3.6 9.564-9.304 10.03-1.932.126-3.347 2.738-.077 2.503Z" fill="#000"/><path d="M12.306 23.472c6.63-.566 11.013-5.919 11.013-11.88 0-2.674-1.44-6.392-3.683-6.5.57.944 1.963 3.345 1.963 5.964 0 4.954-3.685 9.57-9.22 10.003-1.937.114-3.309 2.676-.073 2.413Z" fill="#000"/><path d="M12.362 23.412c6.58-.629 10.877-5.845 10.877-11.8 0-2.724-1.44-6.302-3.577-6.423.56.971 1.905 3.382 1.905 5.92 0 5-3.773 9.58-9.136 9.975-1.943.105-3.271 2.622-.07 2.328Z" fill="#000"/><path d="M12.416 23.35c6.534-.691 10.745-5.769 10.745-11.716 0-2.773-1.44-6.214-3.475-6.347.551 1 1.847 3.417 1.847 5.88 0 5.044-3.858 9.584-9.05 9.944-1.95.095-3.235 2.563-.067 2.24Z" fill="#000"/><path d="M12.473 23.29c6.485-.755 10.61-5.695 10.61-11.634 0-2.823-1.44-6.129-3.371-6.273.54 1.026 1.788 3.453 1.788 5.839 0 5.087-3.944 9.59-8.964 9.914-1.957.087-3.198 2.505-.063 2.154Z" fill="#000"/><path d="M12.527 23.23c6.442-.818 10.477-5.62 10.477-11.551 0-2.873-1.44-6.04-3.266-6.197.532 1.054 1.73 3.49 1.73 5.798 0 5.131-4.03 9.595-8.879 9.883-1.962.077-3.162 2.449-.062 2.067Z" fill="#000"/><path d="M12.583 23.17c6.393-.88 10.341-5.548 10.341-11.469 0-2.923-1.44-5.951-3.161-6.12.521 1.079 1.672 3.524 1.672 5.753 0 5.176-4.117 9.603-8.794 9.855-1.97.068-3.126 2.392-.058 1.98Z" fill="#000"/><path d="M12.637 23.111c6.346-.944 10.208-5.473 10.208-11.388 0-2.972-1.44-5.863-3.058-6.045.511 1.108 1.614 3.562 1.614 5.713 0 5.22-4.203 9.609-8.71 9.824-1.974.059-3.087 2.335-.054 1.896Z" fill="#000"/><path d="M12.693 23.05c6.3-1.006 10.074-5.399 10.074-11.305 0-3.022-1.44-5.775-2.952-5.968.501 1.135 1.553 3.597 1.553 5.672 0 5.262-4.287 9.614-8.623 9.793-1.98.048-3.052 2.279-.052 1.809Z" fill="#000"/><path d="M12.748 22.99c6.252-1.07 9.94-5.327 9.94-11.223 0-3.074-1.44-5.688-2.847-5.894.49 1.16 1.494 3.634 1.494 5.63 0 5.306-4.373 9.62-8.538 9.764-1.986.039-3.016 2.22-.05 1.722Z" fill="#000"/><path d="M12.803 22.93c6.206-1.134 9.806-5.253 9.806-11.142 0-3.122-1.441-5.6-2.744-5.82.48 1.19 1.437 3.673 1.437 5.59 0 5.353-4.46 9.627-8.455 9.735-1.99.029-2.976 2.164-.044 1.636Z" fill="#000"/><path d="M12.858 22.87c6.157-1.196 9.672-5.178 9.672-11.058 0-3.173-1.44-5.513-2.639-5.744.47 1.216 1.377 3.708 1.377 5.548 0 5.395-4.545 9.633-8.368 9.706-1.999.019-2.94 2.105-.042 1.548Z" fill="#000"/><path d="M12.913 22.807c6.11-1.257 9.539-5.102 9.539-10.974 0-3.223-1.44-5.425-2.535-5.667.46 1.243 1.318 3.744 1.318 5.506 0 5.439-4.632 9.639-8.283 9.675-2.005.01-2.904 2.047-.039 1.46Z" fill="#000"/><path d="M12.969 22.75c6.063-1.322 9.404-5.03 9.404-10.895 0-3.272-1.44-5.338-2.431-5.591.449 1.271 1.26 3.78 1.26 5.465 0 5.482-4.718 9.644-8.198 9.644-2.01 0-2.867 1.993-.035 1.377Z" fill="#000"/><path d="M11.907 23.44c1.485 0 3.052-.35 4.535-1.017a12.844 12.844 0 0 0 4.041-2.872 12.036 12.036 0 0 0 2.371-3.633 11.87 11.87 0 0 0 .902-4.584c0-1.513-.216-2.912-.645-4.157a9.863 9.863 0 0 0-1.747-3.125c-1.347-1.618-3.26-2.859-5.69-3.688-.008-.003-.017.003-.02.012a.018.018 0 0 0 .01.022c2.424.827 4.333 2.065 5.674 3.676a9.935 9.935 0 0 1 1.743 3.114c.425 1.242.641 2.638.641 4.146 0 1.746-.361 3.418-1.073 4.965a12.085 12.085 0 0 1-2.777 3.808 12.794 12.794 0 0 1-3.805 2.438c-1.367.563-2.806.86-4.16.86a.018.018 0 0 0-.018.018c.001.012.008.018.018.018ZM9.336.916a11.292 11.292 0 0 0-2.96 1.299A10.244 10.244 0 0 0 3.94 4.323a9.498 9.498 0 0 0-1.653 2.853 10.246 10.246 0 0 0-.61 3.537c0 1.119.21 2.29.607 3.391a10.392 10.392 0 0 0 1.864 3.225c1.861 2.194 4.546 3.51 7.76 3.803l.001-.024c-3.208-.292-5.887-1.605-7.743-3.795a10.38 10.38 0 0 1-1.86-3.217 10.073 10.073 0 0 1-.605-3.383c0-1.24.204-2.429.606-3.53a9.484 9.484 0 0 1 1.65-2.846 10.234 10.234 0 0 1 2.43-2.103A11.262 11.262 0 0 1 9.348.938L9.336.916Z" fill="#000"/><path d="M15.117 1.068c1.091.018 1.762.192 2.847.904-1.103-.043-2.042-.538-2.847-.904Z" fill="#000"/><path d="M17.964 1.972c-1.085-.712-1.757-.886-2.847-.904 1.109.256 1.837.491 2.847.904Zm.077-.552c.383.719 1.09 1.407 1.937 2.057-.35-.898-.515-1.276-1.937-2.057Z" fill="#000"/><path d="M19.977 3.477c-.555-.731-1.14-1.468-1.937-2.057.384.719 1.09 1.407 1.937 2.057Zm-.84.027c.901.26 1.355.446 2.082 1.58-1.067-.465-1.276-.68-2.082-1.58Z" fill="#000"/><path d="M19.137 3.504c.594.325 1.355.88 2.082 1.58-.727-1.134-1.181-1.32-2.082-1.58Zm2.056.446c.096.947.473 1.932 1.068 2.88-.016-.966.07-1.747-1.068-2.88Zm-.055 2.2c.983.78 1.398 1.425 1.572 2.643-.563-.636-1.024-1.15-1.572-2.643Z" fill="#000"/><path d="M21.138 6.15c.754.927 1.153 1.636 1.572 2.643-.174-1.218-.589-1.863-1.572-2.643Zm2.252 2.26c-.149.65-.315.818-.368 1.32-.053.502-.035 1.422-.061 2.053.307-.668 1.059-1.327.429-3.373Z" fill="#000"/><path d="M23.022 9.73c-.053.502-.035 1.422-.061 2.053.364-1.281.477-2.181.429-3.373-.149.65-.315.818-.368 1.32Zm-.804 1.172c.262.9.84 1.718.183 3.353-.034-.771-.552-1.254-.183-3.353Z" fill="#000"/><path d="M22.4 14.255c.659-1.635.08-2.452-.182-3.353.135 1.381.35 2.209.183 3.353Zm1.06-.427c-.402.604-1.041.793-2.005 2.723 1.306-.706 1.716-1.339 2.005-2.723Z" fill="#000"/><path d="M21.455 16.551c1.04-1.026 1.582-1.694 2.005-2.723-.402.604-1.04.794-2.005 2.723Zm-.049-1.983c-.415.824-.595 1.28-.67 1.55-.077.265-.12 1.357-.172 1.587.583-.7.672-1.2.73-1.478.06-.28.142-1.046.112-1.659Z" fill="#000"/><path d="M20.564 17.705c.314-.8.674-2.205.842-3.137-.415.824-.595 1.28-.67 1.55-.074.256-.12 1.357-.172 1.587 0 .001.001 0 0 0Zm-1.194-.019c-.549.544-.875.88-1.138 1.313-.263.433-.339.938-.613 1.366 1.47-.867 1.5-1.85 1.75-2.68Z" fill="#000"/><path d="M18.232 18.998c-.263.433-.339.939-.613 1.366.603-.616 1.277-1.7 1.75-2.678-.548.544-.874.878-1.137 1.312Zm3.354-.935c-.458.218-.902.295-1.373.514-.473.22-1.053.823-1.402 1.069 1.254-.09 2.168-.515 2.775-1.584Zm-7.722 3.877c.437-.427.573-.827.993-1.171.419-.343 1.112-.714 1.557-.855-.516.661-1.168 1.74-2.55 2.026Z" fill="#000"/><path d="M13.864 21.94c1.083-.626 1.562-1.348 2.55-2.026-.445.14-1.138.511-1.557.855-.42.345-.556.744-.993 1.171Zm3.102-.25c-.938.066-1.103-.106-1.558-.111 1.366-.578 1.61-.622 3.239-.51-.534.445-1.051.569-1.68.621Z" fill="#000"/><path d="M15.408 21.579c1.147-.352 2.214-.092 3.239-.51-1.629-.112-1.873-.068-3.239.51Zm-1.558 1.338c-.907-.072-1.489-.463-1.873-.62.91-.09 1.813-.16 2.382-.048.58.114.818.408 1.234.427-.7.26-1.261.279-1.743.24Z" fill="#000"/><path d="M11.977 22.296c1.2.148 2.206.371 3.616.38-.416-.02-.654-.314-1.234-.427-.569-.111-1.472-.042-2.382.047Zm10.42-8.112c-.062-.729-.53-1.244-.186-3.248l.186 3.248Zm1.033-.313c-.343.483-.848.72-1.567 1.924l1.566-1.924Zm-.451-2.125c.239-.498.707-1.004.65-2.096l-.65 2.096Zm-4.169 7.901c.728-.425 1.798-.684 2.776-1.582-.458.217-.902.295-1.373.514-.473.218-1.052.822-1.402 1.068ZM21.193 3.95c.096.947.473 1.932 1.068 2.88-.24-1.195-.555-1.778-1.068-2.88ZM8.706 1.068c-1.09.018-1.761.192-2.847.904 1.103-.043 2.042-.538 2.847-.904Z" fill="#000"/><path d="M5.86 1.972c1.084-.712 1.756-.886 2.846-.904-1.088.267-1.836.491-2.847.904Zm-.075-.552c-.385.719-1.09 1.407-1.937 2.057.35-.898.513-1.276 1.937-2.057Z" fill="#000"/><path d="M3.848 3.477c.664-.765.93-1.215 1.937-2.057-.385.719-1.09 1.407-1.937 2.057Zm.84.027c-.9.26-1.357.446-2.082 1.58 1.067-.465 1.277-.68 2.082-1.58Z" fill="#000"/><path d="M4.688 3.504c-.595.325-1.346.91-2.082 1.58.725-1.134 1.181-1.32 2.082-1.58Zm-2.057.446c-.096.947-.416 1.89-1.068 2.88.018-.966-.003-1.722 1.068-2.88Z" fill="#000"/><path d="M2.631 3.95c-.096.947-.48 1.93-1.068 2.88.308-1.33.648-1.83 1.068-2.88Zm.061 2.2c-.988.773-1.407 1.413-1.592 2.63.569-.631 1.032-1.141 1.592-2.63Z" fill="#000"/><path d="M2.692 6.15c-.545.62-1.466 2.198-1.592 2.63.185-1.216.604-1.857 1.592-2.63ZM.435 8.41c.15.65.315.818.367 1.32.053.502.036 1.422.061 2.053-.304-.668-.958-1.31-.428-3.373Z" fill="#000"/><path d="M.803 9.73c.052.502.035 1.422.06 2.053C.53 10.723.49 9.62.435 8.41c.15.65.315.818.368 1.32Zm.804 1.172c-.262.9-.84 1.718-.183 3.353.035-.771.55-1.254.183-3.353Z" fill="#000"/><path d="M1.424 14.255c-.657-1.635-.079-2.452.183-3.353-.026 1.411-.397 2.209-.183 3.353Zm-1.06-.427c.402.604 1.042.793 2.005 2.723-1.304-.706-1.716-1.339-2.005-2.723Zm2.054.74c.415.824.595 1.28.671 1.55.075.265.12 1.357.17 1.587-.582-.7-.741-1.184-.798-1.465-.06-.279-.071-1.06-.043-1.672Z" fill="#000"/><path d="M3.26 17.705c-.435-.693-.575-2.265-.842-3.137.415.824.595 1.28.671 1.55.073.256.12 1.357.17 1.587Zm1.195-.019c.55.544.875.88 1.137 1.313.262.433.339.938.613 1.366-1.47-.867-1.5-1.85-1.75-2.68Z" fill="#000"/><path d="M5.592 18.998c.262.433.338.939.613 1.366-.342-.238-1.404-1.96-1.75-2.678.548.544.875.878 1.137 1.312Zm-3.354-.935c.461.216.905.289 1.377.508.472.216 1.055.816 1.407 1.058-1.255-.08-2.17-.5-2.784-1.567Z" fill="#000"/><path d="M5.022 19.631c-.73-.421-1.728-.712-2.784-1.567.461.217.905.29 1.377.508.472.216 1.055.817 1.407 1.06ZM9.96 21.94c-.436-.427-.572-.827-.992-1.171-.42-.343-1.112-.714-1.559-.855.518.661 1.169 1.74 2.552 2.026Z" fill="#000"/><path d="M9.96 21.94c-.93-.542-1.477-1.294-2.552-2.026.447.14 1.138.511 1.559.855.42.345.556.744.993 1.171Zm-3.102-.25c.937.066 1.106-.106 1.557-.111-1.364-.578-1.61-.622-3.238-.51.534.445 1.051.569 1.681.621Z" fill="#000"/><path d="M8.415 21.579c-1.196-.255-2.212-.092-3.238-.51 1.629-.112 1.874-.068 3.238.51Zm1.558 1.338c.91-.072 1.49-.463 1.874-.62-.91-.09-1.812-.16-2.38-.048-.581.114-.819.408-1.235.427.7.26 1.261.279 1.741.24Z" fill="#000"/><path d="M11.847 22.296c-1.199.148-2.206.371-3.615.38.416-.02.654-.314 1.234-.427.568-.111 1.472-.042 2.38.047ZM2.37 16.551c-.626-.663-1.612-1.598-2.006-2.723.403.604 1.043.794 2.005 2.723Zm16.278 4.509c-1.615-.111-1.859-.074-3.243.51-.004.003-.01.01-.007.016.003.007.01.009.014.008 1.382-.582 1.623-.621 3.234-.51.006 0 .011-.005.012-.012 0-.006-.005-.013-.01-.013Zm2.93-3.016c-.231.11-.463.187-.687.26a5.81 5.81 0 0 0-.685.256c-.307.142-.654.442-.96.706-.166.142-.32.278-.445.364l-.015.01.02.034.016-.012c.126-.087.281-.222.448-.364.304-.262.648-.56.95-.702.23-.106.46-.18.68-.253.226-.075.459-.15.695-.262l.018-.008-.017-.036-.018.007Zm1.142-9.261-.008-.01c-.57-.64-1.018-1.147-1.564-2.628-.002-.007-.01-.01-.015-.007-.008.002-.01.01-.01.017.55 1.488 1 1.995 1.57 2.638l.009.01c.004.004.012.004.017 0a.024.024 0 0 0 0-.02Zm-.427-1.953-.004-.222c-.006-.873-.015-1.628-1.073-2.682l-.044.048c1.04 1.036 1.047 1.777 1.055 2.635l.004.223.062-.002Zm-1.069-1.76c-1.06-.46-1.268-.67-2.079-1.576-.004-.005-.012-.005-.017 0a.013.013 0 0 0 0 .019c.813.911 1.022 1.12 2.088 1.582.004.004.012 0 .015-.006.002-.008 0-.015-.007-.019ZM5.18 21.08c1.61-.112 1.852-.074 3.233.51.005.003.012 0 .014-.006.002-.007 0-.014-.006-.017-1.384-.585-1.627-.622-3.243-.512-.006.001-.012.007-.01.013 0 .007.006.012.011.012Z" fill="#000"/><path d="M8.233 22.687c.215-.01.38-.09.571-.184.18-.09.382-.187.665-.242.575-.114 1.49-.04 2.378.046.006 0 .011-.005.011-.01 0-.008-.003-.014-.01-.014-.89-.084-1.805-.158-2.383-.047a2.493 2.493 0 0 0-.67.246c-.189.093-.352.172-.562.183-.006 0-.011.005-.011.01 0 .008.005.012.011.012Zm7.377 0c-.213-.01-.378-.09-.57-.184a2.419 2.419 0 0 0-.665-.242c-.575-.114-1.49-.04-2.377.046-.006 0-.011-.005-.011-.01-.002-.008.003-.014.009-.014.888-.084 1.805-.158 2.384-.047.286.056.489.157.67.246.189.093.352.172.561.183.006 0 .012.005.012.01 0 .008-.006.012-.012.012ZM.423 8.412c.068.294.139.49.2.662.075.206.139.383.167.657.032.307.039.779.044 1.23.004.287.008.58.018.823 0 .008.004.013.011.012a.012.012 0 0 0 .012-.012 32.51 32.51 0 0 1-.019-.822 14.846 14.846 0 0 0-.044-1.233C.784 9.45.718 9.273.645 9.066a4.95 4.95 0 0 1-.199-.658c-.003-.007-.008-.01-.014-.01-.007.003-.01.008-.009.014Zm1.81 9.659c.234.112.47.186.695.258.221.071.45.144.682.252.303.139.65.434.956.695.166.142.323.276.448.363.005.003.013 0 .016-.004a.012.012 0 0 0-.003-.017c-.124-.085-.28-.219-.447-.36-.307-.263-.655-.56-.96-.7-.234-.107-.463-.18-.686-.252-.225-.072-.459-.146-.692-.256-.005-.003-.011 0-.015.006-.001.008 0 .015.006.015ZM.356 13.835c.126.189.278.341.453.514.376.372.89.884 1.55 2.207.002.006.01.008.014.005.007-.003.008-.01.006-.015-.662-1.326-1.177-1.84-1.555-2.212a3.419 3.419 0 0 1-.45-.512c-.004-.007-.011-.007-.016-.004a.012.012 0 0 0-.002.017Zm2.265-9.886c-.102.998-.45 1.94-1.066 2.874-.004.007-.003.014.004.018.005.004.01.003.015-.003.617-.939.968-1.883 1.07-2.887 0-.005-.005-.011-.01-.014-.007 0-.013.005-.013.012Z" fill="#000"/><path d="M14.919.586c2.294.708 4.236 1.942 5.616 3.57a9.815 9.815 0 0 1 1.748 3.008c.429 1.183.646 2.481.646 3.86 0 1.442-.283 2.851-.843 4.188a11.239 11.239 0 0 1-2.323 3.508c-2.059 2.118-4.846 3.376-7.85 3.54a.01.01 0 0 0-.01.012c0 .007.004.012.01.01 3.01-.164 5.803-1.424 7.865-3.546 1-1.03 1.783-2.211 2.328-3.515a10.84 10.84 0 0 0 .845-4.198c0-1.382-.217-2.684-.649-3.869a9.86 9.86 0 0 0-1.75-3.015c-1.383-1.63-3.33-2.867-5.628-3.576-.006-.003-.015.008-.016.014-.002.007.005.007.01.009Z" fill="#000"/><path d="M11.91 22.262c-3.005-.165-5.792-1.422-7.85-3.54a11.274 11.274 0 0 1-2.323-3.508 10.809 10.809 0 0 1-.842-4.19c0-1.376.218-2.672.646-3.855a9.811 9.811 0 0 1 1.745-3.006C4.665 2.536 6.606 1.3 8.896.593c.006-.003.017 0 .015-.008C8.91.58 8.884.572 8.88.572c-2.29.711-4.23 1.948-5.61 3.575a9.848 9.848 0 0 0-1.749 3.015c-.43 1.184-.649 2.484-.649 3.864 0 1.446.286 2.857.845 4.198a11.28 11.28 0 0 0 2.326 3.515c2.064 2.123 4.857 3.382 7.865 3.547.007 0 .012-.005.012-.011a.013.013 0 0 0-.01-.013Zm.004-4.894a29.845 29.845 0 0 0 5.26-1.79 1.12 1.12 0 0 0 .474-.412v-1.318l-5.734-1.446v4.966Z" fill="#000"/><path d="M14.914 8.12h3.295l.427-.741h-3.84v2.065h-2.819V7.379h-.121v1.484h-5.76l.043.077v.03h5.717v1.048H6.15v.11h5.706v1.392h-5.69c.002.035.002.073.002.108h2.787v1.99H6.198v.004c.008.29.036.542.093.76h2.668v.678H6.7c.106.082.233.149.383.198.605.196 1.307.4 1.974.58v-2.112l2.798-.004v2.759c.013 0 .025.002.036.005l.085-.01v-2.161h5.628a1.21 1.21 0 0 0 .02-.11h-5.649v-1.04h5.712l.003-.124h-5.714v-1.412h5.732l.003-.115h-2.798V9.548h2.817l.006-.608.099-.171h-2.922v-.65Z" fill="#000"/><path d="m17.346 14.536-5.24 1.771-.16.207v-2.235h5.698l-.298.257Z" fill="#000"/><path d="m12.106 16.308 5.24-1.77.298-.257-.01.043c-.116.518-.38.82-.833.966-1.506.487-3.655 1.034-4.819 1.218l-.036.007.16-.207Zm-5.56-3.056 2.439-1.658v2.056H6.166l.38-.398Z" fill="#000"/><path d="m6.546 13.253-.38.399-.003-.031c-.007-.3-.017-.97-.03-1.991v-.034h2.852l-2.44 1.657Zm5.154.67.188-.233v2.827l-.036-.005c-.643-.1-1.657-.335-2.783-.64l-.023-.008 2.654-1.94Z" fill="#000"/><path d="m11.7 13.923-2.654 1.941V13.69h2.842l-.188.233Zm-4.948.98 2.045-.375.191-.18v.746H6.7l.053-.191Z" fill="#000"/><path d="m8.797 14.528-2.044.375-.053.19h-.012l-.007-.005c-.204-.161-.341-.388-.423-.697l-.01-.043H8.99l-.192.18Zm2.987-4.308L6.44 11.29l-.306.265v-.035l-.017-1.392v-.032h5.771l-.104.124Z" fill="#000"/><path d="m6.44 11.29 5.343-1.07.104-.124v1.459H6.133l.307-.265Zm5.74-2.05 2.408-1.61.239-.286v2.133h-2.881l.235-.236Z" fill="#000"/><path d="m14.588 7.63-2.407 1.61-.235.237V7.344h2.881l-.239.286Zm-2.85 1.454.15-.148v1.114h-5.77l5.62-.966Z" fill="#000"/><path d="m11.738 9.084-5.62.966-.002-.034-.01-1.048v-.032h5.781l-.15.148Zm-5.57-.35L11.753 7.5l.134-.156v1.551H6.078l.09-.16Z" fill="#000"/><path d="M11.754 7.5 6.169 8.734l-.09.161-.01-.016-.857-1.484-.028-.051h6.703l-.133.156Zm5.651 2.41-2.244 1.39-.28.245V9.514h2.881l-.357.396Z" fill="#000"/><path d="m15.16 11.3 2.245-1.39.357-.396v.033l-.022 1.966v.033h-2.859l.28-.247Zm2.752-3.03-2.858.395-.173.137v-.718h3.344l-.313.186Z" fill="#000"/><path d="m15.054 8.665 2.858-.395.313-.186-.03.051-.372.65-.01.017H14.88l.173-.137Zm2.366 4.692-5.311.72-.163.158v-1.104h5.774l-.298.226Z" fill="#000"/><path d="m12.109 14.077 5.312-.72.298-.226v.032l-.009.46a3.752 3.752 0 0 1-.055.586l-.004.026h-5.705l.163-.158Zm5.451-2.302-5.42 1.107-.194.19v-1.478h5.794l-.18.181Z" fill="#000"/><path d="m12.14 12.882 5.421-1.107.18-.181-.002.034c-.006.585-.013 1.06-.018 1.412v.033h-5.774l.192-.19Zm2.534-2.559-2.526.43-.202.188v-.756h2.881l-.153.138Z" fill="#000"/><path d="m12.148 10.753 2.526-.43.153-.138v.756h-2.881l.202-.188ZM9.16 12.888l2.599-.472.128-.158v.754H9.043l.118-.124Z" fill="#000"/><path d="m11.759 12.416-2.598.472-.118.124v-.754h2.844l-.128.158Z" fill="#000"/><path d="M11.977 16.476c1.085-.172 3.236-.707 4.815-1.218.468-.15.705-.463.813-.943h-5.628v2.16Zm-3.024-4.847H6.166c.01.842.02 1.644.03 1.99h2.757v-1.99Zm.124 2.091v2.12c1.093.295 2.114.535 2.779.64v-2.76H9.077Z" fill="#FFD124"/><path d="M8.957 14.38H6.289c.075.29.205.516.411.68h2.258v-.68h-.001Z" fill="#000"/><path d="M11.855 10.129H6.15l.015 1.392h5.691v-1.392Zm2.941-2.75h-2.82v2.065h2.82V7.379Zm-2.94 0H5.24l.856 1.484h5.76V7.379Zm3.058 4.135h2.797a742.9 742.9 0 0 0 .02-1.965h-2.817v1.965Z" fill="#FFD124"/><path d="M14.914 8.12v.649h2.882l.374-.65h-3.256Zm-2.937 6.084h5.648a4.13 4.13 0 0 0 .055-.583l.008-.457h-5.711v1.04Z" fill="#000"/><path d="M11.977 13.04h5.713l.019-1.411h-5.732v1.411Z" fill="#FFD124"/><path d="M11.855 12.291h-2.78v.687h2.78v-.687Zm2.941-2.072h-2.82v.688h2.82v-.688Zm-2.941-1.25H6.139c0 .11.004.517.01 1.048h5.706V8.97Z" fill="#000"/><path d="M17.563 14.348c-.117.475-.358.742-.781.88-1.487.48-3.602 1.018-4.774 1.21v-2.09h5.555Z" fill="#FFD124"/><path d="M18.17 8.12h-3.256v.649h.044v-.603h3.212V8.12Zm-3.374 2.099h-2.82v.688h.047v-.642h2.773v-.046Zm0-2.84h-2.82v2.065h.047V7.427h2.773v-.048Zm-2.94 0H5.24l.856 1.484h.05l-.821-1.436h6.53v-.048Zm0 2.75h-5.71l.016 1.392h.05l-.016-1.343h5.66v-.05Zm-2.903 1.5h-2.79l.03 1.99h.051l-.03-1.944h2.74v-.046Zm8.778-2.08h-2.817v1.965h.044V9.597h2.773v-.048Zm-5.876 2.742h-2.78v.687h.044v-.64h2.736v-.047Zm.003 1.429h-2.78v2.12l.044.013v-2.085h2.736v-.047Zm5.742.595h-5.623v2.166h.046v-2.117h5.576v-.05Zm.109-2.686h-5.732v1.411h.046v-1.365h5.686v-.046ZM6.29 14.38l.009.035.004.014c.07.245.23.476.407.63h.073a1.326 1.326 0 0 1-.433-.63h2.606v-.048H6.29Z" fill="#000"/><path d="M18.674 7.336c-.18.369-.49.929-.877 1.574a648.263 648.263 0 0 1-.062 4.703c-.018.965-.286 1.485-.865 1.681-.563.194-3.848 1.127-4.952 1.232l.027-.04c1.213-.145 4.351-1.044 4.91-1.237.558-.191.816-.697.835-1.636.017-.901.05-3.3.062-4.711v-.004l.005-.007.861-1.497.056-.058Z" fill="#000"/><path d="M18.673 7.336H5.168l.02.036.909 1.561c.01 1.384.05 3.745.07 4.703.018.942.277 1.43.864 1.63.62.214 3.708 1.118 4.887 1.259h.006c1.213-.145 4.359-1.048 4.921-1.242.578-.198.845-.716.866-1.68.018-.9.051-3.292.062-4.704l.88-1.53.02-.033Zm-.946 1.551v.007a536.88 536.88 0 0 1-.062 4.71c-.02.939-.276 1.443-.835 1.635-.56.192-3.699 1.092-4.91 1.238-1.179-.141-4.256-1.042-4.876-1.255-.573-.197-.814-.657-.833-1.586-.018-.96-.06-3.326-.07-4.71v-.005l-.004-.006-.89-1.531h13.345L17.73 8.88l-.003.007Z" fill="#000"/></g><defs><clipPath id="a"><path fill="#fff" d="M0 0h24v24H0z"/></clipPath></defs></svg>