<svg width="32" height="12" fill="none" xmlns="http://www.w3.org/2000/svg"><g clip-path="url(#a)"><path d="M3.037 3.063c.143-.321.265-.582 1.165-.582h5.19c.286 0 .572-.14.572-.542V.515c0-.162.164-.383.593-.383h10.75c.306 0 .551.161.551.542V1.8c0 .3.143.622.593.622h8.624c.306 0 .715.08.531.462-.184.38-2.984 5.959-3.174 6.332-.072.142-.129.333-.696.333h-5.301c-.251 0-.664 0-.664.477v1.328c0 .19-.146.477-.607.477H10.528c-.332 0-.575-.168-.575-.493v-1.169c0-.254-.138-.628-.526-.628H.5c-.283 0-.55-.215-.38-.628.17-.413 2.918-5.849 2.918-5.849" fill="#000"/><path d="m.8 8.292.249.001 2.44-4.767H3.24L.8 8.291Z" fill="#000"/><path d="M9.448 8.964h-8.35c-.292 0-.394-.13-.28-.353a7616.28 7616.28 0 0 0 2.765-5.404c.063-.127.216-.282.499-.282h5.603c.582 0 .68-.25.68-.7V.882c0-.18.123-.3.337-.3h10.262c.276 0 .398.089.398.27v.991c0 .391-.075 1.022.812 1.022h8.48c.38 0 .48.252.278.651-.75 1.487-2.597 5.013-2.655 5.132-.072.152-.298.286-.659.286h-5.566c-.46 0-.918.3-.918.752v1.145c0 .209-.128.357-.355.357h-9.957c-.309 0-.426-.172-.426-.4V9.745c0-.36-.245-.78-.948-.78Z" fill="#000"/><path d="m20.583 8.695 1.17 1.198s.083-.263.4-.328l-1.31-1.2s-.21.117-.26.33Zm-11.108.853s.467.017.467.624l1.086-1.575-.3-.214-1.253 1.165Zm11.54-5.964 1.233-1.181s-.168-.02-.335-.287L20.69 3.338l.324.246ZM20.48 1.17l1.14-.954s.125.072.177.185l-1.19 1.079-.126-.309ZM9.971.563c0-.198.188-.431.494-.431l.864 1.05s-.259 0-.3.093c-.04.094-.081.294-.081.294L9.972.563ZM9.6 2.453s.369-.058.369-.445l.857.99-.546.387-.68-.932Z" fill="#000"/><path d="m15.935.131-.04.452h4.938c.162 0 .253.04.314.16l.547-.478S21.557.13 21.306.13h-5.371Z" fill="#000"/><path d="M10.465.13a.498.498 0 0 0-.364.164l.354.378s.07-.09.354-.09h5.086l.04-.451h-5.47Zm-.493.432v1.376c0 .216-.044.27-.044.27l.39.407s.057-.14.057-.227V1.024c0-.086.007-.211.007-.211l-.367-.447s-.043.078-.043.196ZM21.37.771s-.01.16-.01.246l.01 1.335c0 .086.128.246.128.246l.467-.407s-.11-.036-.11-.252V.563c0-.118-.099-.196-.099-.196L21.37.77ZM9.421 2.482l-5.452.006c-.39 0-.618.169-.618.169l.32.423s.128-.155.41-.155h5.685a.742.742 0 0 0 .346-.088l-.371-.438s-.182.083-.32.083ZM.65 8.648l-.58.4s-.046.165.04.296c.088.13.22.15.22.15l.756-.53s-.428-.02-.25-.331c.178-.312.169-.429.169-.429s-.208.034-.354.444Z" fill="#000"/><path d="M2.245 4.73C1.782 5.668.226 8.676.172 8.783c-.055.107-.11.294-.11.294l.6-.428 2.809-5.496s-.763.642-1.226 1.579ZM1.098 8.977l-.77.544 8.997.021c.222 0 .315.042.315.042l.395-.441s-.378-.166-.587-.166h-8.35Zm8.767.849s.081.16.081.286v1.14c0 .163.065.305.065.305l.385-.447V9.745c0-.218-.122-.401-.122-.401l-.409.482Zm11.268-.221v1.365l.605.52s.015-.138.015-.301v-1.14c0-.127.038-.208.038-.208l-.53-.52s-.128.066-.128.284Zm-.453 1.593h-4.757v.634h5.264c.18 0 .388-.117.428-.147l-.597-.555s-.04.068-.338.068Zm-10.488.555s.123.085.465.085l5.266-.006v-.634h-5.082c-.092 0-.153-.017-.153-.017l-.496.572Z" fill="#000"/><path d="M11.559 1.168c-.276 0-.551.15-.551.451v1.473c0 .3-.184.42-.398.42H4.518c-.248 0-.44.101-.55.306-.09.168-1.611 3.163-2.103 4.131-.106.21-.013.338.26.338h8.516c.367 0 .428.33.428.66v1.145c0 .21.214.451.459.451h4.284V1.168h-4.253Z" fill="#FFD124"/><path d="m21.534 9.102.49.496s.123-.067.696-.067h5.231a.962.962 0 0 0 .259-.054l-2.766-.548s-3.201.002-3.351 0h-.017c-.325 0-.542.173-.542.173Zm.185-6.324s.239.079.434.079h8.237c.25 0 .397.018.397.018l.666-.39s-.214-.06-.427-.06H22.47c-.214 0-.303-.049-.303-.049l-.45.402Zm9.311.307s.037.206-.034.345c-.071.14-2.56 4.949-2.673 5.17-.113.22-.367.302-.367.302l.284.557s.1-.075.16-.15c.059-.076 3.122-6.199 3.217-6.413.094-.215.011-.293.011-.293l-.599.482Z" fill="#000"/><path d="M27.692 8.943c-.327 0-2.167.014-2.167.014l2.616.522s.164-.067.246-.201c.081-.134 0-.174-.096-.094-.095.08-.259-.053-.177-.147.082-.094.163-.388.163-.388s-.258.294-.585.294ZM3.358 8.529c-1.713.112-2.26.43-2.26.43h8.18c.93 0 .824.125.819.13l.666-.691s-1.618 0-2.646-.019c-.13-.002-.277-.003-.437-.003-1.1 0-2.827.055-4.322.153Zm6.739.56Z" fill="#000"/><path d="M22.653 8.379c-.728.018-1.874.018-1.874.018l.764.707s.079-.166.753-.166 5.533-.016 5.533-.016.082-.261-1.35-.361c-1.126-.08-2.827-.184-3.65-.184-.058 0-.117 0-.176.002Zm-1.731-4.793s1.146 0 1.874.018c.728.019 5.14-.178 6.354-.29 1.213-.112 1.6-.43 1.6-.43s-7.714.04-8.388.04c-.674 0-.58-.13-.58-.13l-.86.792ZM10.315 9.364s.081.26.081.461v.903c0 .241.082.362.082.362l.695-.683s-.104-.24-.104-.421V8.968c0-.236-.06-.427-.06-.427l-.694.823Zm10.195-.402c0 .235-.017.865-.017 1.046 0 .18-.042.4-.042.4l.695.682s.082-.12.082-.362v-.903c0-.2.081-.461.081-.461l-.744-.842a1.868 1.868 0 0 0-.056.44Zm-9.807 2.208 5.068.04h.02v-.666l-4.414-.016-.674.643Zm5.108-.626h-.02v.667l5.211-.06-.838-.622-4.353.015ZM10.772.58c-.143 0-.276.076-.276.076l.672.649s.066-.141.54-.141h4.104V.58h-5.04Z" fill="#000"/><path d="M15.812.579v.584h4.104c.474 0 .572.202.572.202l.671-.649S20.995.58 20.852.58h-5.04Zm-5.444.567v1.178c0 .14-.062.306-.062.306l.658.733s.044-.06.044-.366.027-1.501.027-1.501L10.377.77s-.009.192-.009.375Zm10.148.364v1.465c0 .306.145.388.145.388l.804-.795s-.105-.167-.105-.306c0-.14-.007-.992-.007-1.175 0-.184.008-.353.008-.353l-.845.776ZM9.824 2.941h-5.64c-.164 0-.43.06-.511.14l.51.523s.144-.1.491-.1h5.865c.164 0 .327-.061.327-.061l-.654-.662s-.163.16-.388.16ZM27.39 8.309s.316-.117.415.252c0 0 .08.116.296-.194.217-.31 2.27-4.458 2.25-4.517-.02-.058-.434-.136-.434-.136L27.39 8.31Z" fill="#000"/><path d="M29.976 3.754c.1.058.198.136.06.427-.138.29-1.717 3.314-2.053 3.896-.335.581-.04.814-.04.814s.258-.117.335-.243c.078-.126 2.488-4.816 2.654-5.131.166-.316.051-.442.051-.442l-1.007.68Z" fill="#000"/><path d="M15.812 1.168v9.375h4.22c.245 0 .459-.09.459-.361V8.784c0-.27.183-.48.398-.48h6.367a.62.62 0 0 0 .54-.34c.52-.945 1.953-3.685 2.062-3.906.132-.27.05-.426-.256-.426h-8.438c-.367 0-.643-.27-.643-.6V1.498c0-.21-.122-.33-.397-.33h-4.312v-.001Z" fill="#FFD124"/><path d="m1.03 8.697.816-.486s-.093-.04.054-.33c.147-.288 1.526-3.05 1.526-3.05l-.308-.066L1.03 8.697Z" fill="#000"/><path d="M.955 8.34c-.205.362-.164.502-.164.502l.49-.321s2.187-4.155 2.412-4.637c.225-.481-.11-.678-.11-.678S1.159 7.98.955 8.34Z" fill="#000"/><path d="M1.286 8.976c-.033.021-.331.058-.39 0C.838 8.919.74 8.874.818 8.81c.078-.064 1.04-.625 1.04-.625s-.117.064.87.064h7.9c.208 0 .403.14.429.23.026.089-.026.127-.091.115-.065-.013-.234-.064-.273-.128-.039-.064.052-.115-.52-.115-.571 0-4.937.064-5.924.153-.988.09-2.288.026-2.963.472Zm29.18-6.075c.031-.02.33-.057.389 0 .058.058.156.102.078.166-.078.064-1.04.626-1.04.626s.117-.064-.87-.064h-7.9c-.208 0-.403-.14-.429-.23-.026-.09.026-.128.09-.115.066.013.235.064.274.128.039.064-.052.114.52.114.572 0 4.937-.063 5.925-.152.987-.09 2.287-.026 2.962-.473Zm-26.63.739c0-.09.052-.261.01-.311-.04-.05.082-.11.164-.06s.256.09.276.13c.02.04-.01.14-.122.18-.113.04-.215.13-.389.502-.174.372-1.165 2.258-1.165 2.258s.143-.3.082-.311c-.061-.01-.204.24-.204.24L3.837 3.64Zm6.832-.178c-.084.008-.108-.083-.035-.094.072-.012.168-.018.252-.343.085-.326.024-1.313.012-1.49-.012-.177-.096-.39.025-.484.12-.095.204.106.517.106.313 0 1.023-.024 1.023-.024s-.999.07-1.167.095c-.169.023-.313.153-.29.39.025.236-.035 1.454-.083 1.584-.049.13-.133.248-.254.26Zm6.741-2.321c-.132.006 2.538.03 2.707.03.168 0 .36.05.397.216.036.166.01.708.01.708s.084-.696.204-.826c.12-.13.084-.32-.072-.284-.157.036-1.396.074-3.246.156Zm3.567 7.248c-.084-.013-.18-.024-.205.047-.024.07.108.118-.024.188-.132.071-.23.114-.23.055 0-.059.068-.362.32-.362l6.574-.011c.096 0 .216.011.264.106.048.094.108.33.145.401.035.07-.024.07-.133-.07-.108-.142-.384-.201-.6-.19-.216.012-6.111-.164-6.111-.164Zm6.867.2s-.06-.13-.096-.213c-.036-.082-.144-.117-.144-.117s.12-.142.288-.448c.169-.306.96-1.77 1.045-1.97 0 0-.18.543.168.095 0 0-1.129 2.098-1.2 2.24-.073.142-.06.413-.06.413Zm-16.699 1.65s.014.17-.086.24c-.1.071-.143.198-.057.255.086.056.143.028.2-.057.058-.084.26-.155.388-.127 0 0-.445.056-.445-.31Zm6.188.303 2.566.132.244.01s-.257-.04-.18-.12l-2.63-.022Zm2.871-.02s-.071.113.044.169c.115.056.23.112.301.028.072-.085-.057-.31-.043-.465 0 0 .058.24-.302.268" fill="#000"/></g><defs><clipPath id="a"><path fill="#fff" d="M0 0h31.649v12H0z"/></clipPath></defs></svg>