<svg width="42" height="6" fill="none" xmlns="http://www.w3.org/2000/svg"><g clip-path="url(#a)"><path d="m41.866 1.461-16.823.215c-.331-.023-.825-.183-1.332-.432-.84-.414-1.836-.72-2.494-.72l-.312-.008h-.319c-.658 0-1.662.25-2.49.637-.441.205-1.151.522-1.75.545L.397 1.584s-.66-.084-.276.091c.3.136 2.194.177 2.194.177l14.537.116c.18.004-.066.296-.285.284l-12.7-.17s-.32-.01.033.222c.399.262 1.795.198 1.795.198l10.994.15c.235-.01.01.282-.283.306L8.39 2.836s-.316-.018-.063.155c.332.227 1.796.198 1.796.198l5.716.1c.592.075 1.025.197 1.267.361.3.205.446.708 1.381 1.272 0 0 .996.485 2.325.477 1.163-.007 1.81-.233 2.531-.613.645-.34.825-.756 1.059-1.045.276-.34 1.012-.431 1.657-.522l5.685-.113s1.312.022 1.687-.175c.375-.198-.063-.155-.063-.155l-8.062.121c-.293-.023-.518-.315-.375-.26l11.025-.213s1.71 0 2.07-.204c.37-.208.05-.199.05-.199l-12.891.2c-.22.011-.55-.241-.371-.245l14.133-.233s2.42-.03 2.831-.136c.437-.113.088-.146.088-.146Z" fill="#000"/><path d="M17.36 3.015c0 1.289 1.541 2.226 3.475 2.202 1.84-.022 3.475-.913 3.475-2.202S22.906.783 20.92.783c-1.985 0-3.562.943-3.562 2.232Z" fill="#000"/><path d="M24.103 3.038c.023.931-1.357 1.998-3.176 1.998-1.82 0-3.3-.818-3.3-1.954 0-1.136 1.475-2.057 3.294-2.057 1.82 0 3.156.969 3.182 2.013Z" fill="#FFD124"/><path d="m21.48 4.717-.161-.18a.875.875 0 0 1-.53.006l-.066-.018c-.086-.021-.176-.02-.264-.037a.758.758 0 0 1-.403-.214c-.047-.05-.085-.105-.136-.15-.14-.119-.29-.207-.385-.37l-.047-.092a.866.866 0 0 1-.065-.357c.002-.121.02-.24.02-.362-.002-.325.006-.609.266-.834.064-.053.133-.097.203-.141a.854.854 0 0 0 .2-.165.671.671 0 0 1 .55-.23c.103.003.203.024.305.039.062.009.125.009.187.016.165.022.298.105.437.19.056.032.116.054.175.08.301.137.426.367.458.687.006.06.01.126.043.178.016.026.036.05.053.077.14.212.132.52 0 .742l.086.075c.05.043.029.112.029.112l-.127.403c.295-.326.391-.801.391-1.271-.046-.954-.776-1.618-1.806-1.618-1.031 0-1.866.76-1.866 1.778 0 1.016.847 1.77 1.877 1.77.2 0 .394-.056.575-.114Z" fill="#000"/><path d="M21.707 4.86c.013.019.06.07.073.028l.096-.294c.009-.028.036-.049.064-.02l.07.069a.06.06 0 0 0 .025.017c.01.004.011-.012.014-.02l.262-.846a.103.103 0 0 0-.03-.11l-.133-.112a.335.335 0 0 0 .05-.069c.084-.16.107-.39.016-.552-.032-.058-.081-.108-.104-.17-.032-.087-.03-.181-.044-.272a.574.574 0 0 0-.33-.462c-.074-.036-.152-.061-.222-.104-.12-.072-.226-.147-.368-.167-.062-.01-.125-.009-.187-.017-.073-.01-.144-.03-.217-.037-.18-.02-.35.011-.48.137-.045.043-.082.095-.13.135-.146.12-.328.184-.435.347-.127.196-.104.441-.106.666-.001.12-.026.238-.021.359.005.112.032.21.087.306.088.16.238.235.37.352.06.054.104.121.162.176.087.08.195.126.312.147.06.011.122.013.183.021.058.01.115.027.172.041.171.045.355.042.5-.048.112.159.232.334.351.5Z" fill="#000"/><path d="M21.353 2.4a.816.816 0 0 0-1.122.212.794.794 0 0 0-.14.455c-.126.065-.32.162-.455.232.003-.097.02-.191.02-.293.002-.201-.015-.422.08-.601.086-.163.282-.24.428-.354.114-.089.153-.217.35-.255.206-.04.301.012.45.029.106.011.2 0 .314.056.073.035.14.08.208.12.104.063.215.085.317.16l-.45.238Zm.49-.205-2.207 1.16a.606.606 0 0 0 .092.309c.052.087.134.15.217.212l2.094-1.102c-.049-.174-.007-.352-.146-.525a.46.46 0 0 0-.05-.054Z" fill="#000"/><path d="m22.056 2.822-.347.184a.794.794 0 0 1-.125.485.811.811 0 0 1-1.179.204l-.417.214c.03.022.057.045.083.068.114.102.143.207.33.276.131.05.22.037.32.057.125.024.247.079.372.063.325-.04.314-.177.421-.262.07-.055.162-.077.236-.127.093-.062.117-.18.172-.269.096-.16.242-.125.278-.474.026-.248-.089-.293-.144-.419Zm-1.906.215 1.144-.605a.757.757 0 0 0-1.005.202.736.736 0 0 0-.139.403Zm.332-.844c-.036-.027.02-.037.032-.03l.054.039c.05.036-.021.04-.033.03l-.053-.04Zm-.09.048c-.038-.024.017-.04.03-.032l.057.032c.054.03-.017.041-.03.034l-.056-.034Zm-.083.056c-.041-.018.011-.04.024-.034l.061.026c.057.025-.012.043-.025.036l-.06-.028Zm-.078.066c-.043-.015.007-.043.022-.038l.062.02c.06.02-.007.044-.022.039l-.062-.021Zm-.07.073c-.044-.01.002-.043.017-.04l.065.013c.06.013-.003.044-.017.042l-.065-.015Zm-.062.079c-.045-.006-.002-.042.013-.04l.065.006c.062.006.002.044-.013.042l-.065-.008Zm-.054.086c-.045-.002-.006-.043.009-.043h.066c.062 0 .007.044-.008.044l-.067-.001Zm-.043.09c-.045.004-.011-.041.003-.043l.066-.007c.062-.006.012.044-.004.045l-.065.005Zm-.035.095c-.044.008-.014-.04 0-.043l.064-.014c.061-.013.016.042.001.044l-.065.013Zm-.023.097c-.044.013-.02-.038-.006-.042l.063-.02c.059-.02.02.039.005.043l-.062.019Zm-.014.1c-.042.018-.023-.036-.01-.042l.06-.027c.057-.025.025.038.011.043l-.061.026Zm-.003.1c-.04.02-.027-.034-.014-.04l.057-.033c.054-.03.028.035.015.042l-.058.03Zm1.437-.865c.001-.045.043-.007.043.008v.065c0 .06-.045.006-.044-.008l.001-.065Zm-.092-.044c-.003-.044.042-.01.044.004l.007.065c.007.06-.044.01-.045-.004l-.006-.065Zm-.096-.033c-.008-.044.041-.015.044-.001l.014.063c.013.06-.043.016-.045.002l-.013-.064Zm-.099-.025c-.013-.042.04-.018.044-.004l.02.062c.02.058-.04.02-.044.005l-.02-.063Zm-.1-.012c-.018-.041.036-.023.042-.01l.027.06c.025.055-.037.023-.044.01l-.026-.06Zm-.102-.003c-.02-.04.034-.027.041-.014l.034.056c.03.053-.036.028-.043.015l-.032-.057Zm-.101.007c-.026-.036.03-.03.04-.018l.039.053c.036.05-.033.031-.041.02l-.038-.055Zm-.1.019c-.03-.034.027-.033.038-.023l.044.049c.041.045-.029.035-.039.023l-.043-.05Zm-.098.028c-.032-.03.024-.036.036-.026l.049.043c.046.041-.025.038-.036.028l-.049-.045Z" fill="#000"/><path d="m20.336 2.767.094-.139.035.058.297-.237.04.09.105-.062-.133.135-.04-.081-.3.244-.023-.05-.075.042Z" fill="#000"/><path d="M21.532 2.25a1.044 1.044 0 0 0-.633-.214 1.034 1.034 0 0 0-1.036 1.095l-.173.092c.007-.073.015-.143.016-.216.001-.194-.019-.415.08-.592.105-.168.314-.231.453-.364.044-.044.083-.094.13-.135a.487.487 0 0 1 .348-.083c.081.009.161.03.242.04.078.008.156.006.233.027.118.035.215.119.324.173.063.03.128.054.188.086l-.172.09Zm-1.241 1.357.066-.037v-.526l-.066.037v.223l-.075.038v-.223l-.066.038v.526l.066-.037v-.241l.075-.039v.241Zm.184-.626.059-.03s.075-.038.075.043v.162s-.01.066-.043.082l.074.124.041-.02v.046l-.068.037-.093-.15-.045.022v.21l-.066.038v-.526l.066-.038Zm1.189-.097.065-.037v-.211l.046-.023.093.151.067-.037v-.045l-.04.019-.075-.124c.033-.016.042-.082.042-.082v-.162c0-.08-.074-.043-.074-.043l-.059.03-.065.037v.527Zm-.1-.245v.08l-.072.036v.16l.121-.062v.054l-.18.091v-.527l.18-.092v.075l-.121.062v.16l.071-.037Zm-1.532 1.004v-.048l.057-.025v.089s.006.053-.035.075l-.082.037s-.066.039-.066-.042V3.33s-.012-.06.05-.093l.102-.043s.038-.02.038.022v.09l-.059.021c0-.022.005-.059-.03-.042-.035.016-.035.025-.037.052v.328s-.006.033.023.022c.03-.01.039-.005.039-.045Zm.933-.926.092-.046s.058-.036.058.034v.071l-.045.02v-.033s.002-.043-.028-.026l-.026.01s-.017.007-.017.03v.132s.004.034.032.018l.044-.015s.046-.025.046.027v.185s.003.05-.046.079l-.095.033s-.049.027-.049-.028v-.055l.053-.021v.034s0 .015.03.007l.024-.013s.019.002.019-.034v-.114s0-.033-.023-.02l-.059.023s-.045.008-.045-.05v-.184s-.008-.04.035-.064Zm.413.25-.106.052v-.464l-.068.034v.526l.174-.086v-.062Zm-.635.112-.108-.18.066-.028.066.118.049-.189.075-.044-.082.31v.26l-.066.032v-.279Z" fill="#000"/><path d="M21.729 2.38v.178l.042-.023s.034-.011.034-.058v-.09s-.008-.038-.031-.028l-.045.021Zm-1.254.839.041-.023s.035-.012.035-.058v-.09s-.008-.038-.031-.027l-.045.021v.177Zm1.176-.184-1.188.628a.757.757 0 0 0 1.064-.194.735.735 0 0 0 .124-.434Z" fill="#000"/><path d="m20.837 3.631.124-.1.02.076.293-.228.027.046.071-.042-.082.128-.047-.05-.31.247-.007-.08-.09.003Zm-.49.219c-.006.045-.044.003-.042-.012l.007-.065c.006-.06.045-.002.043.013l-.008.064Zm.086.053c0 .045-.043.006-.043-.008V3.83c0-.061.045-.007.045.008l-.002.065Zm.092.044c.004.044-.042.01-.043-.004l-.007-.065c-.007-.06.043-.011.045.004l.005.065Zm.096.033c.009.044-.04.015-.043 0l-.014-.063c-.013-.06.042-.015.045-.001l.012.064Zm.1.024c.012.043-.04.02-.044.005l-.021-.062c-.019-.058.04-.02.045-.006l.02.063Zm.1.013c.017.042-.037.023-.043.01l-.027-.06c-.024-.056.038-.024.044-.01l.026.06Zm.101.003c.021.04-.033.026-.04.014l-.034-.057c-.031-.052.035-.027.043-.014l.031.057Zm.102-.008c.025.037-.031.03-.04.019l-.04-.053c-.036-.05.033-.031.042-.019l.038.053Zm.1-.018c.029.034-.028.033-.037.022l-.045-.048c-.042-.045.029-.034.038-.023l.044.05Zm.097-.028c.034.03-.024.035-.035.026l-.049-.044c-.046-.04.025-.037.036-.027l.048.045Zm.094-.038c.036.027-.02.037-.031.029l-.054-.038c-.05-.037.02-.04.033-.031l.052.04Zm.09-.048c.038.023-.016.04-.029.033l-.057-.033c-.054-.03.017-.042.03-.034l.056.034Zm.084-.057c.04.02-.012.041-.025.035l-.06-.026c-.058-.025.012-.043.025-.037l.06.028Zm.077-.065c.043.015-.007.042-.02.038l-.063-.02c-.06-.02.006-.044.021-.04l.062.022Zm.07-.073c.045.01-.002.043-.016.04l-.065-.014c-.06-.013.002-.044.018-.04l.064.014Zm.063-.08c.044.006.002.043-.013.042l-.066-.007c-.061-.007-.002-.045.014-.043l.065.009Zm.053-.085c.045.001.007.042-.008.043h-.066c-.063 0-.007-.045.008-.045l.066.002Zm.044-.09c.045-.004.01.04-.004.043l-.065.006c-.062.007-.012-.043.003-.044l.066-.005Zm.034-.095c.045-.008.015.04.001.043l-.065.013c-.06.013-.016-.041 0-.044l.064-.012Zm.024-.098c.044-.012.02.039.006.043l-.064.02c-.058.02-.02-.04-.005-.044l.063-.019Zm.014-.1c.041-.016.023.037.01.042l-.06.027c-.057.025-.026-.037-.011-.043l.06-.025Zm.002-.099c.04-.022.028.034.015.04l-.058.033c-.054.03-.028-.034-.015-.041l.058-.032Z" fill="#000"/><path d="m20.229 3.843-.148.078c.023.019.045.04.066.061.061.066.11.138.19.186.146.085.284.066.443.104.088.021.175.053.266.055a.483.483 0 0 0 .305-.103c.034-.035.06-.075.091-.111.079-.087.186-.109.28-.17.059-.04.086-.106.114-.168a.556.556 0 0 1 .11-.168c.039-.038.083-.069.119-.11a.519.519 0 0 0 .06-.47c-.025-.05-.06-.091-.09-.138l-.105.055a1.034 1.034 0 0 1-1.031 1.142c-.246 0-.483-.086-.67-.243Zm1.671-.027s.136.03.085.193c-.05.162-.208.692-.203.688.005-.004-.047.122-.119.014-.07-.108-.278-.408-.278-.408s.094-.098.113-.13c.019-.033.085-.076.152-.099.065-.024.25-.164.25-.258Z" fill="#000"/><path d="m22.095 3.61.103.093s.067.023.034.14a41.36 41.36 0 0 1-.199.632s-.028.094-.071.033l-.029-.033s-.023-.004 0-.088l.123-.455s.011-.063-.028-.089l-.095-.06c-.01-.01.08-.151.162-.174Zm-3.493-.555c0 .839.461 1.39.461 1.39-.743-.33-1.109-.759-1.109-1.364 0-.61.422-1.145 1.178-1.474 0 0-.53.637-.53 1.448Zm4.58-.131c.052.865-.644 1.544-.644 1.544.788-.326 1.22-.873 1.22-1.499 0-.598-.404-1.037-1.133-1.367 0 0 .512.55.558 1.322Z" fill="#000"/><path d="m25.218 2.933-.194.15L32.48 2.9s.558.005.765-.086l-8.027.118Zm-.11-.678-.194.179 12.17-.255s.562.01.792-.115l-12.768.19Zm-8.53.748.194.149-7.456-.182s-.558.006-.765-.085l8.027.118Zm.101-.697.194.179-12.17-.254s-.562.009-.793-.116l12.769.191ZM.398 1.584l15.949.113c.598-.022 1.308-.34 1.75-.545.828-.386 1.832-.636 2.49-.636h.319l.312.008c.658 0 1.654.305 2.494.72.506.25 1 .409 1.332.432l16.49-.17.427-.023c0-.099-.482-.08-.482-.08l-15.816.08c-.923 0-1.124-.099-1.405-.218-.357-.15-1.586-.93-3.432-.95-1.767-.02-3.854 1.089-4.175 1.168-.322.08-.943.04-.943.04L.474 1.503c-.15 0-.342.043-.432.066.1-.018.356.015.356.015Z" fill="#FFD124"/><path d="m8.39 2.837 8.016.122c.294-.024.518-.316.284-.306l-10.994-.15s-.847.039-1.41-.068c.266.183.888.416 2.33.424.935.004 1.4.007 1.62.01.029-.04.154-.032.154-.032Zm-4.523-.755 12.7.171c.22.012.465-.28.286-.284L2.315 1.853S.568 1.815.165 1.692c.223.133.811.406 1.933.442a90.25 90.25 0 0 1 1.671.067c-.117-.125.098-.119.098-.119Zm20.947-.105c-.179.003.152.256.371.244l12.891-.2s.134-.003.128.051L39.825 2s2.336-.308 2.145-.476c0 .01-.071.15-1.616.188-.45.016-.45.021-1.406.033l-14.134.233Zm6.93 1.13-5.684.113c-.645.09-1.381.182-1.658.522-.234.289-.414.704-1.058 1.045-.72.38-1.369.605-2.532.613a5.749 5.749 0 0 1-2.325-.477c-.934-.564-1.081-1.067-1.38-1.272-.242-.165-.675-.286-1.268-.362l-5.716-.099s-1.205.024-1.676-.142c.204.197.778.486 2.389.486 2.44 0 3.881.066 4.493.098.473.025 1.108 0 1.88.712.771.713 2.078 1.327 3.697 1.327 1.618 0 3.033-.722 3.584-1.29.548-.565 1.512-.888 3.043-.888 1.668 0 5.42.114 5.95-.59l-.052.028c-.375.198-1.687.175-1.687.175Zm6.283-.886c-.36.204-2.071.204-2.071.204l-11.025.213c-.143-.056.082.237.375.26l8.062-.122s.133-.012.19.01c.3 0 4.326-.004 4.623-.674a.638.638 0 0 1-.154.109Z" fill="#000"/><path d="M20.906 5.67c-1.618 0-2.925-.614-3.697-1.326-.772-.712-1.406-.688-1.88-.712a59.36 59.36 0 0 0-.85-.038c.67.035 1.748.139 2.155.453.61.47 1.866 1.972 4.228 1.954 2.209-.018 3.152-1.068 3.732-1.503.372-.28.95-.955 3.37-1.002l-1.005.006c-1.205.073-1.992.388-2.469.88-.55.567-1.966 1.288-3.584 1.288Z" fill="#000"/><path d="M24.403 3.74c-.234.29-.415.704-1.06 1.045-.72.38-1.368.606-2.53.613a5.744 5.744 0 0 1-2.325-.477c-.935-.564-1.082-1.067-1.381-1.271-.051-.035-.18-.096-.18-.098a3.578 3.578 0 0 0-1.188-.265c.563.112.824.225 1.104.42.67.465 1.333 1.766 4.095 1.766 2.533 0 3.123-1.195 3.809-1.71.27-.201.548-.364 1.064-.505 0 0-.761.08-1.061.242-.298.162-.267.141-.347.24Z" fill="#000"/></g><defs><clipPath id="a"><path fill="#fff" d="M0 0h42v6H0z"/></clipPath></defs></svg>