<svg width="23" height="24" fill="none" xmlns="http://www.w3.org/2000/svg"><g clip-path="url(#a)"><path d="m4.202 19.532-.004-.003c-1.256-.847-1.881-1.533-2.24-2.244-.364-.727-.48-1.53-.614-2.704v-.007C1.2 13.454 1.09 10.6 1.025 7.89S.939 2.692.963 2.302v-.02c.008-.315.09-.56.298-.75.224-.205.666-.415 1.542-.479h.006C5.492.827 7.251.708 11.559.665c4.285-.01 6.046.096 8.715.273.886.061 1.336.269 1.565.474.214.192.3.439.31.76l.001.01v.01c.03.384.04 2.86.008 5.562-.033 2.7-.106 5.546-.236 6.67v.007c-.12 1.175-.226 1.989-.582 2.73-.349.726-.964 1.429-2.201 2.294-.82.574-2.418 1.434-4.01 2.24a157.68 157.68 0 0 1-3.574 1.752c-1.534-.72-5.722-2.79-7.353-3.915Z" stroke="#FFD124"/><path d="M11.29 7.07c.008-.634-.177-.81-.308-.976-.15-.156-.378-.422-.5-.469-.077-.057-.148.028-.19-.038-.063-.077-.01-.094-.038-.234-.041-.11-.586-.609-.73-.663-.171-.052-.25-.017-.346-.079-.062-.044.008-.063-.115-.234a1.367 1.367 0 0 0-.575-.351c-.16-.048-.213.024-.345 0-.114-.048-.123-.173-.269-.233-.3-.072-.676-.09-.844-.038-.117.032-.122.1-.269.117-.168-.017-.185-.084-.306-.079-.266.032-.61.21-.92.39-.061.05-.09.148-.155.194-.072.065-.202.05-.269.077-.54.415-1 1.133-1.035 1.289-.041.097-.007.114.115.078.09-.034.702-.471 1.305-.468.607.032 1.203.3 1.843.858.775.717 2.673 3.08 2.84 3.238.264.32.851.115.998-.663.096-.57.121-1.582.112-1.717Zm-8.792 3.122c.105-.389.751-.37.883.155.422 2.042 1.422 4.056 2.611 4.994.634.479.263.675 0 .702-1.33.248-2.053-.585-2.149-.664-.09-.096.032-.15 0-.273-.04-.065-.153-.018-.23-.077a6.238 6.238 0 0 1-.384-.585c-.056-.184.085-.255.078-.352-.028-.119-.176-.092-.23-.196-.087-.074-.27-.733-.27-.818 0-.092.122-.075.078-.234-.026-.125-.14-.09-.191-.156-.076-.166-.203-.806-.155-.898.058-.123.126-.15.116-.233.01-.059-.12-.086-.155-.196-.038-.138-.029-1.021-.002-1.17Z" fill="#000"/><path d="M3.036 9.176c.033-.438.314-2.231 1.075-2.81.639-.5 1.338-.622 2.187.118 1.055.87 1.66 2.678 1.958 3.355.297.715.279.821.46.781.11 0 .166.005.193.117-.004.093-.04.12-.115.156-.17.014-.221.248-.115.507.103.24.144.448.23.664.128.254.22.36.5.428.47.128.513.172.498.819.015.211-.053.262-.191.078-.167-.265-.52-.502-.652-.468-.193.043-.096.216-.038.39.065.205.836.359 1.037.781.346.79.51 1.396.537 1.637.043.257-.29.917-.191 1.131.076.213.076.444.69.428.212.016.368.176.346.469-.049.33-.116.502-.422.507-.967.065-1.09-.291-1.15-.74-.022-.26-.048-.521-.078-.781-.097-.355-.72-.952-1.075-1.638-.222-.398-.593-1.737-.768-2.925-.038-.325-.353-.45-.576-.584-.133-.098-.704-.349-.805-.859-.071-.382.086-.921.346-.975.053-.231-.354-.883-.768-.194-.188.322-.124.585-.153.624-.102.067-.094.05-.077.155-.017.065.035.127.038.196.02.1.024.573 0 .703.007.132-.117.092-.116.234 0 .108.122.065.116.196.006.225.068.946.038 1.014-.007.075-.102.128-.038.234.04.108.12.082.153.157.085.466.274 1.59-.652.74-.898-.825-1.51-2.418-1.728-3.55-.074-.335-.24-.515-.421-.583-.206-.079-.32-.025-.273-.512Zm8.52 9.207c-.16-.007-.126.058-.228.078-.23.031-.462.031-.692 0-.07.019-.303.164-.075.312.846.654 1.645.306 1.957.038.17-.166.097-.316-.038-.351-.165.001-.647.05-.729 0-.127-.044-.144-.084-.194-.077Zm.194-11.314c.007-.633.19-.809.345-.975.128-.156.355-.422.461-.469.094-.057.166.028.23-.038.042-.077-.01-.094.039-.234.02-.11.564-.609.73-.663.15-.052.227-.017.307-.079.079-.044.009-.063.115-.234.14-.15.404-.293.576-.351.178-.048.23.024.346 0 .13-.048.14-.173.27-.233.317-.072.695-.09.845-.038.133.032.138.1.308.117.147-.017.163-.084.268-.079.282.032.626.21.96.39.04.05.067.148.153.194.05.065.18.05.23.077.557.415 1.018 1.133 1.076 1.289.02.097-.015.114-.115.078-.111-.034-.725-.471-1.344-.468-.591.032-1.186.3-1.805.858-.794.717-2.694 3.08-2.84 3.238-.285.32-.872.115-.998-.663-.124-.57-.15-1.582-.158-1.717Zm8.79 3.123c-.087-.389-.733-.37-.844.155-.443 2.042-1.442 4.056-2.648 4.994-.617.479-.246.675 0 .702 1.347.248 2.07-.585 2.149-.664.108-.096-.015-.15.038-.273.02-.065.132-.018.192-.077.15-.18.278-.376.384-.585.073-.184-.067-.255-.038-.352.006-.119.156-.092.23-.196.064-.074.25-.733.23-.818.02-.092-.104-.075-.076-.234.042-.125.156-.09.19-.156.093-.166.22-.806.154-.898-.04-.123-.11-.15-.115-.233.004-.059.136-.086.153-.196.054-.138.047-1.021.001-1.17Z" fill="#000"/><path d="M20.041 9.177c-.055-.438-.334-2.231-1.073-2.81-.662-.5-1.36-.622-2.227.118-1.037.87-1.642 2.678-1.957 3.355-.281.715-.263.821-.461.781-.093 0-.15.005-.154.117-.018.093.017.12.116.156.148.014.2.248.077.507-.087.24-.126.448-.23.664-.111.254-.204.36-.461.428-.492.128-.536.171-.537.819.001.21.07.262.19.078.186-.265.54-.502.692-.468.172.043.076.216 0 .39-.048.205-.819.359-.998.781-.367.79-.53 1.396-.574 1.637-.026.257.307.917.23 1.13-.098.213-.097.445-.691.43-.234.015-.389.175-.346.468.027.33.094.502.384.507.984.064 1.107-.291 1.152-.74.035-.237.064-.53.115-.781.076-.355.698-.953 1.074-1.639.199-.397.57-1.736.73-2.924.054-.326.37-.45.614-.584.113-.098.682-.349.767-.859.088-.382-.07-.921-.346-.975-.036-.232.37-.883.768-.195.204.323.14.586.192.625.08.067.071.05.076.155-.005.065-.058.127-.076.196a13.73 13.73 0 0 0 0 .703c.01.132.134.092.115.234.018.108-.104.065-.115.196.01.225-.052.946-.038 1.014.023.075.118.128.078.234-.064.108-.143.082-.155.157-.106.465-.294 1.59.614.74.914-.825 1.529-2.418 1.767-3.55.053-.335.218-.516.421-.583.18-.079.293-.025.267-.512Z" fill="#000"/></g><defs><clipPath id="a"><path fill="#fff" d="M0 0h23v24H0z"/></clipPath></defs></svg>