<svg width="24" height="24" fill="none" xmlns="http://www.w3.org/2000/svg"><g clip-path="url(#a)"><path d="M24 12c0 6.628-5.373 12-12 12S0 18.628 0 12C0 5.373 5.373 0 12 0s12 5.373 12 12Z" fill="#000"/><path d="M23.579 12c0 6.396-5.184 11.58-11.579 11.58C5.605 23.58.42 18.396.42 12 .42 5.607 5.606.423 12 .423 18.395.422 23.58 5.606 23.58 12Z" fill="#000"/><path d="M2.687 6.167c0 .01-1.285.205-1.283.211.006.032-.067 6.609 1.106 6.278.773-.364.357-4.649.357-4.073 0 .804.078 2.121.387 4.191.347 2.331.2 2.622.362 3.124-.376-.366-.963-.53-.963-.53l.832 2.809.612-.006s.009-.189.017-.198c.016 0 .604.044 1.009.783 2.338 4.28 8.495 2.634 6.883 2.727l2.537-.305c-7.43 1.27-8.824-2.155-9.197-2.839-.235-.343-.907-.702-1.33-.498 0 0 1.032.042.986-.232.323.313-.802-.507-.802-.507l.056.178c.175.017.096-.171.28-.202l-.228-.104c-.03-.036.127-.222-.43-3.96-.306-2.055-.245-3.654-.245-4.45 0-.77-.05-.825-.048-.83l-.453-.296-.087-.018a1.285 1.285 0 0 1-.302-.095.321.321 0 0 0 .044-.188c0-.088-.01-.202-.022-.35-.016-.199-.008-.91-.036-.672-1.442 12.52.555-1.402.31-1.134l.14-.16c.68-.783 3.053-2.615 9.179-2.759 6.477-.151 6.507 2.215 6.529 2.25l1.678.83c-.022-.035-2.202-3.653-8.78-3.499-6.199.146-8.04 2.27-8.732 3.069l-.137.155c-.285.31-.612.314-.612.771 0 .245-.274.57-.257.772.8 1.405.524.71.64-.243Zm17.714-.602c-.141.06-.12.29-.09.607.021.236.046.504 0 .691l.161.04c.054-.214.027-.497.004-.747-.014-.158-.037-.399-.003-.441.004.005.05 1.789.419 2.214.584.677.293.287.293 1.467 0 .581.434 1.258.417 1.496-.216-.274-.278-.98-.333-1.613-.065-.737-.12-1.373-.382-1.584.323-.283-.8-1.767-.723-.762.053.351-.119-.79-.368-1.178-.765-1.19-2.349-2.58-7.852-2.77-5.046-.176-7.546 1.895-8.189 2.527l.084-.145-.82-.422-.232 2.454.35-.553s.567-1.028.577-1.052c.089-.104 2.48-2.842 8.224-2.642 6.123.212 7.24 1.952 7.718 2.694.23.358.29.759.344 1.112.07.465.137.904.659.834a.154.154 0 0 1 .124.034c.207.166.264.828.32 1.468.073.846.143 1.645.532 1.841l.108.055.012-.122c.015-.155.35-3.814-.686-5.013-.408-.472-.558-.538-.668-.49Zm2.215 3.032a6.877 6.877 0 0 0-.47-1.412c.118.27.306.754.47 1.412Zm-.47-1.412a5.163 5.163 0 0 0-.073-.164c.027.055.049.11.073.164Zm-.521-1.211c1.368 1.32 1.123 4.725 1.123 4.725l-.666-.773v3.3l-.461.927c-.82 4.383-2.766 8.25-10.398 8.044-7.631-.206-8.81-4.28-9.526-8.146-.717-3.868.307-8.096.307-8.096-2.254 6.703.41 11.756.41 11.756s1.28 4.744 9.168 4.693c7.887-.052 9.117-4.435 9.117-4.435l.143 1.107s1.832-1.677 2.396-5.183c.285-1.775-.818-7.153-1.613-7.92Zm.448 1.047-.043-.086.043.086Z" fill="#000"/><path d="M2.985 4.7s1.043-.962 1.787-1.67c0 0-.993.556-1.787 1.67Zm-.278 12.765c.59 1.19 1.172 1.966 1.172 1.966s-.554-.835-1.172-1.966ZM21.182 5.069l-.012-.02.037.006-.025.014Zm.17.305c-.02-.04-.041-.08-.063-.118l.117-.05-.054.168ZM3.88 5.156c.297-.506 1.837-1.418 1.837-1.418s-.845.507-1.788 1.62c-.943 1.114.348-.1 2.086-1.265 1.737-1.164 4.17-1.063 4.17-1.063s-.794-.608-3.823.354l2.93-1.265s-4.469.961-5.76 2.784c-1.291 1.822.05.76.348.253Zm14.946-.16c.548.569.942 1.07.942 1.07s-.161-.51-.942-1.07Zm-16.982 7.45c.546 5.365 2.83 7.644 2.83 7.644s1.738 1.72 7.15 1.974c5.412.253 7.15-1.873 7.3-2.228.148-.354-.696.203-.945.101-.248-.1.795-1.974.795-1.974-.546 2.025.298-.303.844-.05s-1.092.91-.546 1.417c.546.506 1.688-3.088 2.433-4.708.745-1.62.496-3.29.447-4.353-.05-1.063-.298-1.519-.298-1.519l-.15 2.531s.1.354-.694-1.417l-.646-1.722c-.447 7.898-2.234 10.884-2.234 10.884s-.646 1.974-5.86 2.025c-5.213.05-5.958-1.316-5.958-1.316-1.688-2.227-2.68-6.986-2.432-10.124.248-3.139 0-4 2.234-4.962 2.234-.961 5.61-1.063 5.61-1.063 4.056-.114 6.095.688 7.102 1.41-.13-.135-.263-.268-.398-.397-.745-.709-7.647-2.177-11.271-.76C3.53 5.258 3.283 6.625 3.53 10.776c.248 4.15 1.54 7.593 2.433 8.91.894 1.316 4.072 1.72 4.072 1.72-4.32-.1-4.817-2.379-5.065-2.784-.248-.405-.993-1.215-1.142-.557-.149.658-1.484-3.366-1.236-3.568.248-.203 1.782 2.05 1.782 2.05s-.546-1.114-1.092-4.252c-.546-3.139.297-4.708-.249-4.81-.546-.1.68 4.632-.885 4.842-.445.06-.076-4.185.123-5.046.199-.86.415-1.112.415-1.112s-1.39.912-.844 6.277Z" fill="#000"/><path d="M12.737 20.717c.009 0 1.245-.06 2.322-.303.937-.211 1.766-.615 1.774-.618l.003-.002.004-.002c.004-.002.466-.201.75-.473.288-.275.42-.635.42-.639.006-.015.51-1.36.892-2.795.35-1.32.592-2.781.594-2.796a24.3 24.3 0 0 0 .376-3.064c.069-1.32-.067-2.817-.069-2.832 0-.011-.071-.898-.427-1.478-.32-.521-.937-.777-.944-.78l-.005-.002-.005-.003c-.007-.003-.724-.363-2.085-.659-1.085-.236-2.593-.404-3.841-.428-1.428-.029-2.96.071-4.1.266-1.366.233-2.253.58-2.262.584l-.008.002-.007.002c-.01.003-.894.245-1.36.836-.472.6-.549 1.586-.55 1.596v.006a18.129 18.129 0 0 0-.09 2.478c.053 1.388.296 2.927.298 2.942.003.015.332 1.821.707 3.344.278 1.128.64 2.126.643 2.136l.003.007.001.008c.002.005.125.511.325.865.175.307.432.488.435.49l.004.002.004.004c.002.001.177.142.445.29.31.169.724.35.741.358.03.011.943.36 2.147.52 1.257.166 2.85.139 2.865.138Z" fill="#FFD124" stroke="#FFD124" stroke-width="1.5"/><path d="M7.28 19.751a4.834 4.834 0 0 1-.083-.04.283.283 0 0 1-.044-.019l-.01-.054a44.568 44.568 0 0 1-.651-6.01c-.134-3.114-.128-6.93-.116-8.78v-.133l.113-.037v.134c-.012 1.833-.018 5.679.116 8.812.11 2.695.448 4.894.663 6.062l.013.065Z" fill="#FFD124"/><path d="M7.638 19.902a13.198 13.198 0 0 1-.123-.05l-.01-.084a69.126 69.126 0 0 1-.568-6.321c-.14-3.104-.115-7.005-.093-8.779v-.1a12.3 12.3 0 0 1 .114-.031v.11c-.022 1.761-.048 5.68.093 8.795.135 2.986.422 5.303.577 6.389l.01.071ZM10.3 4.088l.134 16.229.003.242-.113-.012-.003-.23-.134-16.214-.003-.1.114-.01.002.095Zm1.474-.045.053 16.356.001.229-.114.001v-.26L11.66 4.006v-.077l.11-.001.004.115Zm.566.015-.082 16.34v.222l-.115.003.002-.18.081-16.407-.003-.108.118.002-.001.128Zm1.53 16.282c.08-1.345.234-4.195.297-7.42.064-3.288.036-7.03.016-8.787l-.006-.113.136.013.006.144c.02 1.777.048 5.484-.016 8.745a190.3 190.3 0 0 1-.296 7.39l-.011.194-.138.016.011-.182Zm3.866-1.333a1.655 1.655 0 0 1-.179.204l.055-.289c.236-1.225.542-3.12.695-5.347.181-2.646.205-6.265.2-8.32l.003-.198c.044.025.09.05.134.078v.263c.003 2.08-.024 5.597-.201 8.186a45.034 45.034 0 0 1-.683 5.286l-.024.137Zm1.307-4.44c.109-.85.192-1.705.251-2.561.137-2.019.14-4.305.123-5.76l-.003-.243c.055.125.102.253.14.383l.003.226c.012 1.457-.001 3.543-.127 5.403a42.1 42.1 0 0 1-.093 1.144l-.042.409a64.7 64.7 0 0 1-.32 1.512l.068-.512Z" fill="#FFD124"/><path d="M17.253 19.45c-.043.03-.094.063-.152.098l.041-.232a50.06 50.06 0 0 0 .719-6.147c.152-2.893.152-6.331.14-8.091l-.006-.25.136.051.006.233c.012 1.771.01 5.187-.14 8.064a50.28 50.28 0 0 1-.7 6.049l-.044.225Zm-1.67.573c.108-1.163.304-3.571.399-6.476.106-3.261.106-7.126.099-8.993l-.005-.265.14.03v.256c.008 1.876.008 5.725-.098 8.976a112.932 112.932 0 0 1-.396 6.457l-.014.143-.14.041.016-.17Zm-.47.11c.119-.988.311-2.903.391-5.393.116-3.624.102-8.193.087-10.308l-.003-.235c.045.008.09.015.133.024l.005.245c.016 2.13.03 6.672-.086 10.278a64.036 64.036 0 0 1-.386 5.353l-.021.182-.142.034.023-.18Zm-.38.08c.092-1.045.25-3.114.325-5.63.105-3.518.078-7.971.053-10.293l-.003-.166.137.019.003.222c.024 2.343.05 6.74-.054 10.222a100.147 100.147 0 0 1-.32 5.585l-.018.192-.14.028.017-.18Zm-.442.088c.078-1.22.225-3.768.29-6.503.086-3.634.09-7.688.086-9.586l-.004-.143.137.015.003.162c.004 1.912 0 5.941-.086 9.555a169.193 169.193 0 0 1-.287 6.462l-.012.183-.138.022.01-.167Zm-.468-16.153a812.575 812.575 0 0 1-.088 10.107 260.72 260.72 0 0 1-.175 6.056l-.01.24-.116.01.011-.214c.048-1.166.132-3.462.176-6.094.064-3.777.083-8.208.09-10.135v-.133l.114.008-.002.155Zm-.56-.09c.016 1.715.04 5.07.018 8.23a450.25 450.25 0 0 1-.132 8.097l-.004.197-.115.007.005-.167c.035-1.384.11-4.68.133-8.134.021-3.143-.002-6.477-.018-8.2l-.001-.134.113.005.001.1Zm-.444-.007c.023 1.966.055 5.485.04 8.803a378.325 378.325 0 0 1-.121 7.59l-.004.16-.114.005.005-.187c.04-1.55.105-4.495.12-7.568.016-3.302-.016-6.802-.04-8.773l-.002-.144.114.004.002.11Zm-4.004 16.24a2.262 2.262 0 0 1-.118-.03l-.006-.073a99.379 99.379 0 0 1-.366-6.045c-.101-3.457-.068-7.777-.043-9.811v-.09l.114-.019v.09c-.025 2.025-.06 6.361.042 9.827.08 2.745.276 5.077.37 6.08l.007.072Zm-.768-.232-.12-.044-.009-.085c-.173-1.445-.508-4.566-.614-7.877-.09-2.802-.013-5.929.04-7.501l.002-.115.114-.028-.001.1c-.053 1.555-.133 4.713-.042 7.54.107 3.358.45 6.52.621 7.933l.009.077Zm-3.225-5.76a31.52 31.52 0 0 1-.22-1.174l-.02-.295a53.094 53.094 0 0 1-.168-3.1 98.337 98.337 0 0 1 .002-3.128l-.005-.109a3.45 3.45 0 0 1 .126-.396l-.01.605a98.071 98.071 0 0 0 0 3.026c.022 1.218.131 2.704.233 3.871l.062.7Zm.985 3.595c-.078-.23-.168-.501-.261-.798l-.07-.398c-.176-1.044-.333-2.153-.377-3.005-.231-2.83-.243-6.099-.228-7.839l.003-.32c.036-.039.073-.076.11-.11l.001.302c-.016 1.7-.01 5.06.227 7.96.052.993.257 2.337.468 3.519l.127.69Zm.557.596a39.723 39.723 0 0 1-.669-4.776c-.23-3.003-.222-6.537-.2-8.285l.003-.361a2.454 2.454 0 0 0-.116.064v.3c-.023 1.753-.03 5.287.2 8.29a39.85 39.85 0 0 0 .666 4.768l.145.683a1.38 1.38 0 0 0 .144.14l-.173-.823Zm2.05 1.628a68.924 68.924 0 0 1-.369-5.178c-.127-3.807-.136-8.559-.133-10.532L7.91 4.31l-.115.024.003.083c-.003 1.982.006 6.724.133 10.526.076 2.262.255 4.146.362 5.117l.009.084c.038.013.078.025.118.037l-.007-.064Z" fill="#FFD124"/><path d="m6.006 4.846-.116.046-.002.17c-.038 1.777-.088 5.329.054 7.663.2 3.31.615 5.657.82 6.665l.019.099c.043.027.093.056.134.08l-.026-.122c-.197-.956-.629-3.333-.834-6.728-.142-2.35-.09-5.938-.053-7.698l.004-.18v.005Zm2.877-.698-.114.016.001.096c-.02 1.85-.044 5.51.015 8.714.057 3.047.244 5.825.35 7.201l.013.191.116.023-.012-.169a129.944 129.944 0 0 1-.353-7.248 323.06 323.06 0 0 1-.015-8.72v-.104Zm.481-.062-.116.014v.092c-.03 1.51-.073 4.631-.01 7.74.07 3.535.255 6.872.344 8.338l.01.177.116.019-.012-.194c-.09-1.46-.275-4.802-.344-8.343-.063-3.113-.02-6.24.01-7.744l.002-.1Zm.464-.05-.114.01v.095c-.013 1.619-.03 5.023.008 8.327.038 3.203.135 6.37.183 7.82l.007.208.114.015-.007-.224a382.813 382.813 0 0 1-.183-7.82c-.04-3.319-.022-6.74-.009-8.35v-.082Zm.983-.077-.119.007.003.063.109 16.37.002.196.114.01-.003-.199-.109-16.385.003-.062Zm.477-.022-.116.004.003.11.03 16.303-.002.27.063.004h.052v-.282l-.03-16.295v-.114Zm4.68 15.931a96.98 96.98 0 0 0 .587-7.64c.093-2.543.02-5.953-.03-7.658l-.009-.184.14.034.006.189c.05 1.72.122 5.099.029 7.623a97.298 97.298 0 0 1-.587 7.642l-.02.158a6.461 6.461 0 0 1-.142.047l.026-.21Z" fill="#FFD124"/><path d="M16.537 19.671c.132-1.2.364-3.57.504-6.527.135-2.84.128-6.506.112-8.45l-.003-.141-.137-.04.004.168c.016 1.939.023 5.613-.111 8.456a106.852 106.852 0 0 1-.51 6.567l-.025.214.141-.065.025-.182Zm.416-.263c.16-1.073.379-2.829.503-5.071.184-3.335.217-7.59.222-9.492l-.003-.127a9.737 9.737 0 0 0-.134-.045l.001.127c-.005 1.879-.037 6.171-.222 9.53a54.826 54.826 0 0 1-.521 5.192l-.032.207.149-.076.037-.245Zm1.19-1.391s.122-.337.273-.818l.057-.373c.186-1.241.381-2.789.51-4.465.174-2.232.136-4.951.088-6.588l-.01-.309a1.868 1.868 0 0 0-.143-.131l.011.251c.05 1.606.098 4.45-.08 6.767a64.465 64.465 0 0 1-.6 5.037l-.106.629Z" fill="#FFD124"/><path d="M8.538 13.138V11.96h-1.01l.003-2.965h1.32l-.008-1.19H6.102l.247 9.111h1.205l-.026-3.778h1.01Zm.781-5.333.153 9.11h1.244l.025-9.11H9.319Zm7.99 9.11.256-7.962h.974l-.007-1.148h-3.38v1.149h.982l-.029 7.962h1.204Zm-4.692-4.893.014-3.095h.694c.315.689.518 1.6.676 3.095h-1.384Zm-1.11 4.894h1.152l.013-3.768h1.38c.108.665.135 2.718.141 3.768h1.117c.106-4.652-.222-7.281-1.127-9.111h-2.781l.105 9.11Z" fill="#000"/><path d="M8.686 11.798H7.673l.004-2.965h1.322l-.007-1.19H6.243l.249 9.11h1.207l-.026-3.777h1.013v-1.178Zm2.208-4.155H9.469l.153 9.11h1.247l.025-9.11Zm5.378 9.111h1.207l.256-7.964h.977l-.007-1.147h-3.39v1.149h.986l-.029 7.962Zm-3.497-4.894.014-3.095h.696c.316.689.518 1.6.677 3.094h-1.387Zm-1.113 4.894h1.155l.013-3.768h1.383c.109.665.136 2.718.142 3.768h1.12c.106-4.652-.223-7.281-1.13-9.111h-2.788l.105 9.11Z" fill="#000"/></g><defs><clipPath id="a"><path fill="#fff" d="M0 0h24v24H0z"/></clipPath></defs></svg>