<svg width="33" height="12" fill="none" xmlns="http://www.w3.org/2000/svg"><g clip-path="url(#a)"><path d="M16.008 0C7.126 0 .006 2.662.006 6c0 3.318 7.178 6 16 6 8.824 0 16.002-2.692 16.002-6S24.83 0 16.006 0Zm15.904 5.536.014.088-.014-.088Z" fill="#000"/><path d="M16.008.24C7.303.24.252 2.813.252 5.997c0 3.183 7.051 5.757 15.756 5.757 8.706 0 15.755-2.574 15.755-5.757 0-3.184-7.05-5.757-15.755-5.757Z" fill="#000"/><path d="M16.08 1.447c7.401 0 13.512 1.808 14.446 4.149-.624-2.463-6.885-4.397-14.518-4.397C7.962 1.2 1.439 3.348 1.439 6c0 .216.044.428.127.637a1.633 1.633 0 0 1-.054-.417c0-2.635 6.522-4.772 14.569-4.772Z" fill="#000"/><path d="M31.009 5.398c.064.194.096.397.096.601 0 2.903-6.76 5.255-15.098 5.255-7.42 0-13.59-1.864-14.86-4.318.964 2.551 7.273 4.522 14.92 4.53h.093c8.317-.008 15.052-2.337 15.052-5.21 0-.292-.07-.58-.203-.858Z" fill="#000"/><path d="M18.913 6.808a.484.484 0 0 1-.02-.274c.006-.034-.037-.064-.072-.027-.338.352-.364.808-.142 1.013.079.074.17.107.267.113a.752.752 0 0 1-.033-.825Zm3.425.678.053-.106c.014-.03.007-.037-.005-.042-.034-.013-.07-.04-.075-.067-.003-.005-.003-.01-.003-.015v.003c.005.053.018.153.03.227Zm.384-1.381a.61.61 0 0 1 .194.36c.005.058.049.064.084.014.01-.013.02-.03.033-.05l-.03-.04a3.128 3.128 0 0 0-.281-.284Zm-4.684-.222c.09.124.133.3.127.527-.002.059.041.055.069.015l.044-.062V6.36c-.066-.203-.167-.402-.24-.478Zm4.21.599c-.278-.134-.704.111-1.089.585-.315.387-.485.781-.49 1.165-.003.137.049.306.169.368.037.02.078.035.12.041a.619.619 0 0 1-.02-.154c-.005-.396.118-.792.434-1.18.382-.471.784-.706 1.063-.576a.309.309 0 0 0-.186-.25Zm-8.338.785c.294-.398.625-.55 1.002-.712.05-.022.056-.05.047-.094a4.219 4.219 0 0 0-.085-.307c.012.041.001.073-.048.09-.428.164-.857.416-1.154.814-.337.451-.428.994-.203 1.307a.527.527 0 0 0 .189.163c-.122-.374-.033-.875.252-1.261Zm2.155 2.363.886-.001a.1.1 0 0 0 .08-.05c.36-.563.745-1.175 1.112-1.739.08.285.122.417.272.551.153.137.294.172.502.174.188.003.374-.073.596-.165a1.38 1.38 0 0 0 .214-.115c0-.104.01-.21.03-.31 0-.01-.01-.08-.07-.039-.123.09-.257.162-.4.215-.203.077-.298.105-.487.103a.69.69 0 0 1-.602-.337c-.084-.127-.119-.32-.127-.462 0-.016-.021-.044-.043-.008-.4.61-.772 1.2-1.168 1.818-.02.03-.038.048-.08.05H16c-.029 0-.049-.012-.055-.032l.065.306c.006.027.026.041.056.041Z" fill="#000"/><path d="M19.939 9.293a.877.877 0 0 0 .307.317c.52.256 1.26-.034 1.736-.492l.013-.014.052.196a.752.752 0 0 0 .128.254c.325.368 1.017.2 1.736-.356.402-.311.7-.623 1.065-1.048.015-.018.014-.044.006-.084-.021-.092-.054-.26-.072-.343a.068.068 0 0 1-.015.038c-.38.465-.802.905-1.205 1.215-.627.486-1.253.61-1.562.298a.67.67 0 0 1-.186-.421c-.004-.076-.043-.08-.08-.044-.369.366-1.01.771-1.596.482-.302-.149-.46-.428-.516-.736l.002.01c.037.219.084.533.187.728Zm-.258-1.985c.193-.104.362-.325.34-.684a1.222 1.222 0 0 0-.146-.51c.057.107.08.234.06.366a.709.709 0 0 1-.375.541.483.483 0 0 1-.54-.058.427.427 0 0 1-.103-.147c.038.175.071.304.117.373.14.21.38.263.647.12Z" fill="#000"/><path d="M25.408 4.28c-.121.21-2.465 3.778-2.613 4.147-.047.117-.053.206-.005.27.048.066.119.09.2.089a.818.818 0 0 1 .046-.15c.148-.37 2.343-3.706 2.463-3.917.01-.018.007-.038.004-.052-.008-.033-.081-.388-.088-.42a.048.048 0 0 1-.007.033ZM15.68 5.94c.008.007.013.014.019.022.141.21.218.505.226.81.008.065.036.066.067.033l.084-.09a2.56 2.56 0 0 0-.171-.453 1.438 1.438 0 0 0-.224-.323Zm-3.782 3.335c.043.021.087.002.108-.01a2.23 2.23 0 0 0 .542-.437c.036-.034.07-.01.082.025.05.16.124.281.206.412.09.145.27.295.503.359.301.085.627.1 1.055-.064.343-.131.703-.399.98-.7.331-.36.451-.59.577-.748.215-.266.55-.738 1.02-1.139.164-.14.344-.231.457-.187.067-.175.035-.271-.037-.318-.11-.071-.33.036-.515.177-.506.383-.93.98-1.146 1.247-.127.157-.246.388-.578.748-.52.566-1.211.89-1.878.666a1.127 1.127 0 0 1-.727-.774c-.02-.07-.059-.089-.096-.043a2.689 2.689 0 0 1-.512.457c-.02.014-.07.044-.112.022-.039-.017-.175-.21-.202-.265a.052.052 0 0 1-.007-.019v.002c.048.238.054.265.119.375a.91.91 0 0 0 .161.214ZM7.88 7.144c.168-.34.405-.501.637-.649.1-.063.145-.124.085-.29-.016-.047-.026-.132-.045-.207a.172.172 0 0 1-.095.17c-.284.145-.627.394-.795.733-.138.277-.166.61.044.929a.78.78 0 0 0 .057.074c-.067-.264.005-.548.112-.76Zm2.911-4.12c1.034-.34 2.186-.125 3.112.073.13-.08.242-.136.356-.199.056-.03-.007-.065-.024-.065-1.195-.224-2.437-.515-3.623-.076-.822.307-1.183.96-1.009 1.394a.41.41 0 0 0 .156.194c-.059-.402.242-1.06 1.032-1.32Z" fill="#000"/><path d="M7.43 9.273c.338.239.672.318 1.06.325.791.013 1.514-.313 2.28-1.09.735-.746 1.371-1.789 1.999-2.822.02-.037.043-.053.148-.067.393-.048.746-.07 1.094-.103.104-.01.183-.02.22.018.126.126.272.24.369.297.064 0 .118.015.156.048a.187.187 0 0 0 .101-.05.151.151 0 0 0 .04-.14c-.016-.086-.039-.255-.066-.305.019.038.006.09-.031.133a.165.165 0 0 1-.126.06c-.045 0-.072-.016-.128-.047a1.209 1.209 0 0 1-.36-.29c-.033-.04-.05-.042-.132-.037-.372.022-.953.077-1.346.127-.095.012-.109.03-.129.062-.627 1.034-1.296 2.149-2.03 2.895-.789.8-1.444 1.01-2.14 1.016-.802.005-1.516-.45-1.697-1.248.098.447.385.984.717 1.218Zm2.963-3.475a.17.17 0 0 1-.028-.09.849.849 0 0 0 .09.397c.047.074.181.11.287.03.24-.176.457-.28.699-.325l.206-.286c.007-.008.009-.02.006-.025-.004-.01-.012-.012-.028-.013-.355.01-.665.116-.966.341-.087.063-.211.054-.266-.029Zm9.667-2.421c-.496.273-1.015.355-1.558.36-1.313.01-2.536-.5-3.8-.776 0 .056.015.122-.031.157-.7.516-1.334 1.042-1.759 1.779-.014.017-.006.033.019.031l.326-.016c.387-.606.8-.953 1.432-1.419.047-.036.094-.06.079-.195 1.269.282 2.234.748 3.873.753.489.001 1.178-.162 1.55-.385.426-.256.54-.445.554-.644a.84.84 0 0 0-.021-.203c-.015-.067-.024-.153-.043-.217.006.026.01.055.007.088-.013.229-.19.45-.627.687Z" fill="#000"/><path d="m14.578 4.232-.05.046a.53.53 0 0 0-.146.431c.01.053.03.063.055.059a.445.445 0 0 0 .073-.023.313.313 0 0 1 .11-.205.218.218 0 0 1 .175-.058c.048-.096.062-.211.003-.262-.057-.05-.147-.04-.22.012Zm.505.45a.84.84 0 0 1-.51.412s-.04.01-.033.046c.004.04.14.126.224.186l.03-.01a.67.67 0 0 0 .355-.344.75.75 0 0 0 .067-.466 1.144 1.144 0 0 0-.094-.377c.083.167.05.38-.039.553Zm-3.527-.822c-.347.815-1.01 1.463-1.818 1.49-.452.015-.797-.198-.981-.523.134.242.361.455.564.582.175.11.39.17.638.162.841-.03 1.48-.723 1.69-1.309.057-.158.013-.327-.013-.442-.01-.044-.025-.143-.057-.215.024.06.024.146-.023.254Z" fill="#000"/><path d="M16.008 0C7.126 0 .006 2.662.006 6c0 3.318 7.178 6 16 6 8.824 0 16.002-2.692 16.002-6S24.83 0 16.006 0ZM.116 6.066c-.003-.702.307-1.4.958-2.057C3.364 1.7 9.366.137 15.98.11c8.763-.036 15.903 2.576 15.918 5.824.003.703-.324 1.391-.975 2.047-2.291 2.311-8.275 3.883-14.889 3.91C7.273 11.926.131 9.313.116 6.065Zm31.796-.53.014.088-.014-.088Z" fill="#000"/><path d="M.056 6c0 .157.018.313.05.466a2.26 2.26 0 0 1-.039-.399c-.003-.711.315-1.43.972-2.092C3.342 1.652 9.35.088 15.98.061a42.04 42.04 0 0 1 2.697.074 42.648 42.648 0 0 0-2.67-.084C7.162.05.056 2.703.056 6Z" fill="#010101"/><path d="M30.96 8.018c-2.296 2.315-8.302 3.895-14.925 3.922a42.67 42.67 0 0 1-2.747-.074 42.77 42.77 0 0 0 2.72.084c8.796 0 15.952-2.685 15.952-5.948 0-.125-.012-.248-.032-.371.014.1.02.203.022.305.004.712-.334 1.42-.99 2.082Z" fill="#000"/><path d="M16.008.744C7.668.744.908 3.096.908 6s6.76 5.256 15.1 5.256c8.338 0 15.097-2.353 15.097-5.256S24.346.744 16.008.744Zm0 10.055C7.96 10.8 1.439 8.652 1.439 6c0-2.651 6.522-4.8 14.569-4.8 8.046 0 14.568 2.149 14.568 4.8 0 2.652-6.522 4.8-14.568 4.8Z" fill="#FFD124"/><path d="M25.408 4.278c.02-.036 0-.063-.047-.063h-.809c-.06 0-.09.007-.118.063-.093.178-1.223 1.871-1.434 2.2-.035.05-.079.044-.084-.014-.02-.195-.19-.42-.456-.527a1.154 1.154 0 0 0-.606-.07c-.371.05-.702.247-.994.468-.438.333-.817.766-1.305 1.085-.267.174-.633.325-.877.099-.221-.205-.196-.66.142-1.013.035-.037.078-.007.072.027a.445.445 0 0 0 .128.429.483.483 0 0 0 .54.059.707.707 0 0 0 .375-.541.617.617 0 0 0-.567-.703c-.281-.02-.55.078-.814.295a1.6 1.6 0 0 0-.32.353c-.028.04-.07.044-.07-.015.014-.46-.176-.72-.557-.728-.296-.007-.611.153-.857.35-.27.215-.505.503-.759.772-.03.033-.058.032-.067-.033-.007-.305-.084-.6-.225-.81a.188.188 0 0 0-.244-.06c-.04.022-.182.088-.286.171-.051.042-.07.103-.049.182.136.456.107.974-.078 1.412-.17.4-.5.762-.887.884-.255.08-.522.041-.686-.186-.225-.312-.135-.855.202-1.307.297-.398.727-.65 1.155-.813.05-.02.06-.052.046-.094-.023-.07-.06-.166-.075-.21-.04-.104-.15-.122-.284-.107a2.41 2.41 0 0 0-.87.291c-.725.39-1.09 1.142-1.25 1.545a1.558 1.558 0 0 1-.227.42c-.115.145-.258.276-.521.507a.093.093 0 0 0-.021.106c.027.055.163.248.202.266.042.02.092-.008.112-.023.184-.124.404-.322.512-.456.037-.046.076-.027.097.043.1.359.363.651.726.774.667.224 1.357-.1 1.879-.666.33-.36.45-.592.578-.749.215-.267.64-.864 1.145-1.246.186-.141.405-.25.515-.178.089.058.118.19-.025.45-.515.941-1.274 2.048-1.414 2.315-.025.047-.002.084.046.084.27-.002.538-.001.782-.001.041-.002.06-.02.08-.05.396-.619.768-1.208 1.167-1.818.023-.035.043-.008.044.008.008.142.043.335.127.462a.69.69 0 0 0 .602.337c.188.002.283-.026.487-.102a1.7 1.7 0 0 0 .4-.216c.06-.04.07.029.069.04-.091.491.02 1.074.51 1.315.585.289 1.227-.117 1.597-.482.036-.036.075-.032.079.044a.67.67 0 0 0 .186.42c.31.312.935.189 1.562-.297.403-.31.824-.75 1.206-1.215.013-.018.024-.047-.003-.076-.058-.06-.142-.13-.2-.184-.026-.022-.064-.015-.087.002-.39.37-.74.794-1.249 1.144-.171.12-.444.216-.567.05-.047-.064-.042-.154.005-.27.149-.37 2.493-3.939 2.614-4.149ZM22.31 7.27c.006.028.04.054.076.067.012.005.02.013.005.042-.1.214-.191.336-.316.522a1.958 1.958 0 0 1-.4.434c-.237.196-.565.408-.837.265-.12-.062-.172-.23-.17-.367.007-.385.177-.779.492-1.166.384-.474.81-.719 1.089-.585.288.138.196.472.067.735a.068.068 0 0 0-.005.053Z" fill="#FFD124"/><path d="M8.41 9.302c-.874.006-1.643-.534-1.732-1.469-.049-.518.098-.98.39-1.36.26-.339.701-.62 1.073-.69.122-.021.285-.007.353.073.105.123.074.258-.03.312-.285.145-.627.394-.796.733-.137.276-.165.61.044.928.351.53 1.33.545 2.239-.3a8.32 8.32 0 0 0 .632-.641c.4-.459.533-.626 1.066-1.364.006-.008.008-.02.005-.025-.004-.01-.012-.012-.027-.013-.356.01-.666.116-.967.34-.086.064-.211.055-.266-.028-.06-.094-.017-.217.083-.286.484-.337 1.014-.398 1.554-.49 0 0 .038.002.069-.039.222-.284.39-.541.626-.83.238-.292.546-.56.781-.762.329-.282.54-.377.754-.494.056-.03-.007-.064-.025-.064-1.195-.225-2.437-.516-3.623-.076-.822.306-1.182.958-1.008 1.394.122.308.529.358.91.173.331-.164.613-.415.815-.726.115-.178.36-.05.228.26-.348.817-1.01 1.464-1.819 1.49-.688.023-1.131-.482-1.13-1.107.003-1.23 1.374-2.042 2.814-2.163 1.734-.143 3.377.319 5.099.528 1.32.16 2.585.162 3.911-.142.157-.034.267.066.256.224-.013.23-.19.45-.627.688-.497.272-1.016.355-1.559.36-1.312.01-2.535-.501-3.8-.776.002.055.016.121-.03.156-.701.517-1.335 1.042-1.76 1.78-.013.016-.005.032.02.03.367-.019.7-.028 1.043-.056.06-.005.062-.02.057-.063a.857.857 0 0 1 .267-.744c.229-.205.515-.228.705-.08.216.168.197.47.079.697a.84.84 0 0 1-.51.413s-.04.009-.033.045c.007.058.267.202.289.24.021.037.01.093-.03.137a.165.165 0 0 1-.125.06c-.045-.001-.072-.016-.128-.048a1.212 1.212 0 0 1-.36-.289c-.033-.04-.05-.042-.132-.037-.372.021-.953.077-1.346.127-.095.011-.109.03-.129.062-.627 1.034-1.296 2.148-2.03 2.894-.79.802-1.445 1.012-2.14 1.018Zm5.973-4.593c.01.053.03.063.055.059a.577.577 0 0 0 .327-.236c.07-.103.104-.252.034-.312-.063-.054-.164-.038-.24.028a.533.533 0 0 0-.176.461Z" fill="#FFD124"/></g><defs><clipPath id="a"><path fill="#fff" d="M0 0h32.017v12H0z"/></clipPath></defs></svg>