<svg width="29" height="15" fill="none" xmlns="http://www.w3.org/2000/svg"><path fill-rule="evenodd" clip-rule="evenodd" d="M28.939 7.464c0 4.068-6.475 7.402-14.422 7.402-7.98 0-14.422-3.335-14.422-7.402C.095 3.364 6.537.03 14.517.03c7.947 0 14.422 3.334 14.422 7.435ZM13.83 6.431c1.243-.234 2.453-.667 3.401-1.034 3.075-1.1 4.513-2.234 4.808-2.5.392-.367.098-.5-.262-.634-2.093-.634-5.265-1.1-7.293-1-1.471.033-2.289 1.667-2.616 2.367-1.537 3.3 1.21 2.967 1.962 2.8Zm-9.418 4.667c.065-.133 2.485-5.901 5.33-9.035.36-.333-.033-.4-.49-.3-4.71.933-7.98 3.134-7.98 5.668 0 1.4.981 2.7 2.616 3.734.23.133.458.033.524-.067ZM15.17 8.464c-1.243.234-2.453.667-3.401 1.034-3.075 1.1-4.513 2.267-4.808 2.534-.392.333-.098.5.262.6 2.093.634 5.265 1.1 7.293 1.034 1.471-.067 2.289-1.7 2.648-2.401 1.505-3.3-1.242-2.934-1.994-2.8Zm12.558-1c0-1.4-.949-2.667-2.616-3.7-.23-.167-.425-.067-.523.066-.066.1-2.486 5.868-5.331 9.002-.327.367.033.433.49.333 4.71-.966 7.98-3.167 7.98-5.7Z" fill="#000"/></svg>