<svg width="35" height="17" fill="none" xmlns="http://www.w3.org/2000/svg"><path fill-rule="evenodd" clip-rule="evenodd" d="M8.795 14.698c-.12-.099-.289-.423-.345-.543l-1.917-4.6h-.557l-1.761 4.388a8.973 8.973 0 0 1-.458.86c-.057.085-.141.226.07.226h.69l.552-1.382h2.014l.578 1.383h1.106c.162 0 .184-.204.028-.332ZM5.35 12.971l.705-1.792.747 1.792H5.35Zm19.665 1.727c-.12-.099-.289-.423-.345-.543l-1.917-4.6h-.557l-1.761 4.388a9.057 9.057 0 0 1-.458.86c-.057.085-.141.226.07.226h.69l.552-1.382h2.014l.578 1.383h1.106c.162 0 .183-.204.028-.332Zm-3.445-1.727.704-1.792.747 1.792H21.57ZM1.783 10.285v3.78c0 1.637-1.1 2.202-1.268 2.413h1.24C2.45 16.01 2.882 15 2.882 14.376V9.551H1.783c-.127 0-.197.085-.14.226.056.141.126.268.14.508Zm11.048 2.12h1.1v2.342c-.324.212-.775.41-1.748.41-.972 0-2.903-.466-2.903-2.907 0-2.44 2.41-2.78 2.945-2.78.536 0 1.24.128 1.621.283v.804c-.296-.099-.733-.423-1.55-.423-.93 0-1.846.762-1.86 2.2-.015 1.44 1 2.583 2.395 2.089v-1.44c-.007-.154-.028-.267-.098-.366-.053-.074-.085-.212.098-.212Zm6.579.96V10.31c.007-.155.134-.444.204-.543.053-.074.085-.212-.098-.212h-.832c-.183 0-.15.138-.098.212.07.099.197.388.204.543v2.673c0 .805-.578 1.524-1.41 1.524-.831 0-1.183-.86-1.183-1.312v-3.64h-1.1c-.183 0-.151.138-.098.212.07.099.091.211.098.366v3.175c0 .96 1.057 1.834 2.283 1.834 1.227 0 2.03-1.072 2.03-1.778Zm7.804.783c0 .105.085.522.14.656.057.134-.02.225-.14.225h-1.1v-4.895c-.006-.156-.027-.268-.098-.367-.052-.074-.085-.212.099-.212h1.606c.41 0 1.805-.042 1.819 1.524.014.423 0 .804-.648 1.242-.127.084-.198.197-.1.366.1.17.867 1.531.867 1.531.127.197.341.493.416.55.092.07.12.261-.035.261h-1.134l-1.347-2.44c-.084-.156-.084-.297.113-.353.249-.071.783-.042.783-1.185 0-1.066-.733-.939-.973-.939s-.268.177-.268.43v3.606ZM3.41 15.882v.366h30.95v-.366H3.41Z" fill="#000"/><path fill-rule="evenodd" clip-rule="evenodd" d="M33.844 8.622h-.965c-.537.013-.803-.275-.921-.37-3.37-2.424-9.657-5.175-15.322-7.08-.733-.225-1.818-.38-2.495-.38-.676 0-1-.056-1.705-.028-.676.027-1.381.14-1.776.254-.395.113-1.282.338-1.325.874-.338.254-.683.6-.824.741-.141.141-.19.416.091.727.282.31.62.62.846.48.225-.142.169-.311.253-.48.085-.17.367-.424.649-.113.282.31.106.444-.057.592-.15.137-.45.395-.253.65.197.253.423.338.733.112.227-.166.836-.514 1.188-.71.087-.052.193-.179.579-.023.415.159 1.057.444 1.326.592l-.585.268c-.31.197-.578.755-.606.952-.028.31.085.755.507 1.122h.916l.55-.79-.042-.085c.704-.085 2.621.494 3.524.141.62.254 1.719.395 3.748.198.367-.029.867-.106 1.177.296.32.415 1.895 2.074 2.403 2.243.508.17 2.622.17 3.171.268.475.086.663 0 1.057.452l.846.747c.098.113.395.332.733.332h.585c.338-.028.52-.268.606-.55h1.437c.451 0 .592-.402.592-.77 0-.366-.246-.662-.64-.662Zm.007 1.094h-1.36c-.077-.6-.521-.684-.775-.699a1.158 1.158 0 0 1-.55-.183s-.916-.819-1.17-1.087c-.253-.268-.422-.352-.662-.352h-.831c-.17 0-.367.014-.649-.367-.281-.381-1-.988-1.184-1.115-.183-.127-.225.015-.112.113.098.1.563.395.845.861.282.466.522.705.72.804.168.113.69.099 1 .099.31 0 .423.028.676.282.254.254.832.762.987.931.155.17.423.325.803.325.381 0 .564.24.55.465-.013.212-.127.452-.296.452h-.606c-.099 0-.324-.141-.38-.198a9.255 9.255 0 0 1-.973-.86c-.282-.297-.564-.382-.944-.438-.38-.056-1.96-.127-2.312-.14-.352-.015-.888-.015-1.268-.255-.374-.236-1.86-1.862-2.114-2.158-.296-.34-.74-.297-1.008-.304-2.636.29-3.573.021-3.855-.148l.275-.473c.825.19 1.952.007 2.107-.035.155-.042.127-.197-.028-.17-.352.043-1.888-.14-2.044-.168-.014-.396-.902-1.58-1.014-1.806-.113-.226-.014-.367.098-.466.113-.099.113-.226.014-.226-.408.043-.507.367-.422.762.084.395.958 1.538.902 1.806-.057.268-.325.642-.48.797-.76.184-2.452-.268-3.424-.24-.374.011-.31.332-.176.445l-.31.451h-.444c-.24-.07-.325-.437-.367-.62.01-.12.098-.466.394-.72.6-.514 2.989-.282 3.2-.282.211 0 .155-.099.028-.141-.225-.057-.909-.24-1.31-.254-.092-.268-.261-.459-.318-.72-.048-.222.014-.5.092-.67.105-.325-.12-.275-.197-.183-.106.155-.374.5-.388.754-.014.254.246.706.317.819-.127 0-.352.014-.451.014-.684-.579-1.91-.967-2.15-1.051.043-.113.106-.233.149-.374.042-.141.127-.113.225-.085.141.07.803.31 1.015.395.211.085.409.043.507-.042.099-.085.423-.367.564-.564.14-.198-.085-.212-.17-.113-.267.247-.662.38-.873.338-.212-.042-.888-.38-1.057-.493-.38-.17-.521.098-.564.253a2.466 2.466 0 0 1-.937 1.263c-.085.07-.466.295-.578.367-.099.063-.162-.042-.12-.106.085-.063.395-.38.416-.494.07-.409-.042-.543-.211-.726-.17-.184-.388-.247-.642-.247-.253 0-.493.233-.578.317-.084.085.022.254-.12.353-.14.099-.303-.162-.387-.275.183-.212.169-.31.127-.508.06-.046.156-.157.274-.261.1.057.296.085.423.057.684-.057.804.02.959.091.155.07.204-.028.148-.127-.076-.132-.134-.183-.275-.324l.274-.085c.31 0 .62.113.776.127.155.014.254.014.31-.099.098-.296.282-.352.409-.395.127-.042.225-.155.112-.183h-.282c-.24.014-.253.099-.324.183-.07.085-.155.184-.338.155-.183-.028-.57-.091-.796-.077-.177.01-.43.19-.923.176.197-.494 2.03-.691 2.381-.705 2.34-.1 2.833.014 3.905.24 1.07.225 2.682.75 5.768 1.978 2.934 1.166 8.627 4.03 9.942 5.199.075.074.505.377.99.377h1.016c.253 0 .324.233.324.346 0 .113-.063.417-.275.417Z" fill="#000"/></svg>