<svg width="34" height="13" fill="none" xmlns="http://www.w3.org/2000/svg"><g clip-path="url(#a)"><path d="M28.367 6.948c-.028 1.448.302 2.215 1.56 2.215 1.255 0 1.435-1.306 1.435-2.3 0-.996-.238-1.961-1.558-1.961-.809 0-1.406.596-1.437 2.046ZM25.822 13V3.197h2.576v.398c0 .53.225.311.407.105.03-.035.604-.702 1.897-.702 1.288 0 3.293.852 3.293 3.864 0 2.33-1.196 4.034-3.262 4.034-1.138 0-1.796-.425-1.946-.597-.151-.169-.36-.198-.36 0V13h-2.605ZM5.918.016H8.7v6.932c0 1.193-.539 3.694-4.4 3.694C.44 10.642.02 8.31.02 7.004V5.726h2.694v1.25c0 .767.54 1.477 1.556 1.477 1.018 0 1.647-.54 1.647-1.449V.016Zm8.605 5.88c0-.71-.418-1.392-1.376-1.392-.928 0-1.257.624-1.257 1.392h2.633ZM12.88 2.913c2.186 0 4.1.795 4.1 4.46h-5.177c0 1.165.508 1.648 1.406 1.648.898 0 1.197-.682 1.197-.682h2.545c0 1.052-1.526 2.472-3.832 2.444-2.633 0-3.92-1.847-3.92-3.75 0-1.905 1.136-4.12 3.68-4.12Zm9.92 2.983c0-.71-.418-1.392-1.376-1.392-.928 0-1.258.624-1.258 1.392H22.8Zm-1.644-2.983c2.186 0 4.1.795 4.1 4.46H20.08c0 1.165.508 1.648 1.407 1.648.897 0 1.197-.682 1.197-.682h2.545c0 1.052-1.527 2.472-3.832 2.444-2.634 0-3.922-1.847-3.922-3.75 0-1.905 1.138-4.12 3.682-4.12Z" fill="#231F20"/></g><defs><clipPath id="a"><path fill="#fff" d="M0 0h34v13H0z"/></clipPath></defs></svg>