<svg width="31" height="16" fill="none" xmlns="http://www.w3.org/2000/svg"><path fill-rule="evenodd" clip-rule="evenodd" d="m10.284 7.936 2.153-3.089c.083-.121-.016-.259-.19-.259l-1.662-.012c-.124 0-.371.154-.479.287l-.75.958L8.312 7.16l.008-2.313c0-.158-.17-.259-.272-.259H6.14c-.132 0-.251.049-.255.287-.004.235.293.283.293.348v6.182c0 .117.165.295.28.295l1.634-.008c.116-.004.214-.166.214-.275l.005-2.576 1.043 1.266 1.106 1.334c.09.105.268.25.454.25l1.774-.011c.169 0 .152-.203.111-.255a555.984 555.984 0 0 1-2.516-3.489Zm6.122-3.348h-1.885c-.223 0-.273.13-.31.267.041.25.31.32.31.324v6.238c0 .166.103.275.247.275l.677-.004 1.006-.008c.186 0 .235-.11.235-.263v-6.57c0-.158-.136-.259-.28-.259Z" fill="#000"/><path fill-rule="evenodd" clip-rule="evenodd" d="M22.144 1.403C20.14.906 17.883.627 15.498.627c-.016 0-.033.004-.053.004-2.162 0-4.225.234-6.09.65C4.12 2.455.456 5.075.456 8.104c0 3.028 3.664 5.648 8.899 6.82a28.08 28.08 0 0 0 6.09.651h.053c2.385 0 4.641-.275 6.646-.772 4.972-1.221 8.4-3.768 8.4-6.7 0-2.93-3.428-5.478-8.4-6.699Zm0 11.77c-1.976.448-4.24.703-6.646.703-.016 0-.033-.004-.053-.004a30.73 30.73 0 0 1-6.09-.59c-4.616-.942-7.801-2.911-7.801-5.18 0-2.267 3.185-4.236 7.801-5.178 1.844-.376 3.911-.59 6.09-.595h.053c2.405 0 4.67.255 6.646.704 4.345.978 7.303 2.886 7.303 5.07 0 2.183-2.958 4.091-7.303 5.07Z" fill="#000"/><path fill-rule="evenodd" clip-rule="evenodd" d="M23.444 4.857c-.062-.138-.17-.267-.31-.267h-2.55c-.09 0-.214.073-.214.194-.004.356.376.344.355.396l-2.15 6.214c-.037.105.058.3.19.3l1.498-.013a.433.433 0 0 0 .371-.267l.71-2.086c.239-.695.479-1.39.713-2.086.013-.028.05-.044.087-.044.058 0 .12.02.132.06l1.39 4.18c.03.094.223.243.326.243l1.56.013c.09 0 .198-.178.17-.26l-2.279-6.577Z" fill="#000"/></svg>