<svg width="34" height="18" fill="none" xmlns="http://www.w3.org/2000/svg"><g clip-path="url(#a)" fill-rule="evenodd" clip-rule="evenodd"><path d="M33.344 8.892c0 4.771-7.367 8.64-16.453 8.64-9.087 0-16.453-3.869-16.453-8.64 0-4.772 7.366-8.64 16.454-8.64 9.085 0 16.452 3.868 16.452 8.64Z" fill="#FFD124"/><path d="M32.663 8.885c0 4.383-7.064 7.935-15.777 7.935-8.714 0-15.779-3.552-15.779-7.935 0-4.382 7.065-7.934 15.779-7.934 8.713 0 15.777 3.552 15.777 7.934Zm-15.777-7.31c-8.373 0-15.16 3.273-15.16 7.31 0 4.037 6.787 7.31 15.16 7.31 8.371 0 15.158-3.273 15.158-7.31 0-4.037-6.787-7.31-15.158-7.31Z" fill="#000"/><path d="M31.653 8.885c0 3.82-6.612 6.917-14.767 6.917-8.156 0-14.767-3.097-14.767-6.917S8.73 1.969 16.886 1.969c8.155 0 14.767 3.096 14.767 6.916ZM26.35 5.647h-2.533l-.308.883h1.64l-1.87.648-.124.359 2.877-.945.318-.945Zm-16.148 1.55H9.171s.956-2.552 1.033-2.745c.136-.342.217-.319.217-.319H8.997c.176.085.02.418.02.418S7.875 7.734 7.796 7.893c-.08.16-.14.18-.14.18h2.468l.345-.943c-.03.09-.267.067-.267.067Zm4.329.871h1.162s-.08-.118-.03-.247c.069-.18.686-1.86.686-1.86l.268 2.107h1.053l1.38-3.748s.056-.176.133-.176l-1.119-.003s.033.129-.008.229c-.039.099-.675 1.8-.675 1.8l-.248-2.03h-1.202s.063.1.023.21l-1.274 3.5s-.08.218-.15.218Zm5.314-3.926s.099.159-.03.527c-.13.368-1.142 3.103-1.142 3.103s-.08.257-.19.307l1.59-.001s1.926.071 2.522-1.957c0 0 .755-2-1.43-1.98h-1.32Zm.168 3.03s.005-.002.184-.002c.27 0 .77-.06 1.108-.88.553-1.348-.22-1.303-.22-1.303h-.297l-.775 2.185ZM5.881 11.244h2.532l.308-.883H7.082l1.87-.648.124-.358-2.878.945-.317.944Zm4.438 1.63c-.04 0-.04-.13-.04-.13l.466-1.237.62 1.22c.04.08.02.146.02.146h1.388c-.133 0-.27-.252-.27-.252l-.69-1.242c.966 0 1.275-.96 1.275-.96.477-1.525-1.127-1.485-1.127-1.485h-1.642c.119.133.026.411.026.411L9.246 12.49a1.22 1.22 0 0 1-.225.383h1.298Zm.984-3.034-.27.792h.253s.49.043.67-.347c0 0 .212-.447-.38-.447l-.273.002Zm13.38 3.048c-.1.002-.03-.242-.03-.242l.416-1.125.6 1.221c.039.08.02.146.02.146h1.437c-.133 0-.278-.253-.278-.253l-.691-1.242c.966 0 1.258-.925 1.258-.925.507-1.597-1.11-1.52-1.11-1.52h-1.629c.12.133.027.412.027.412s-1.062 2.93-1.142 3.156c-.05.138-.129.264-.232.37l1.354.002Zm.947-2.242s.486.037.635-.345c.176-.449-.262-.437-.262-.437h-.36l-.265.782h.252Zm-10.825 2.325c1.433 0 2.286-1.408 2.286-2.418 0-1.06-.435-1.72-1.428-1.72-1.267 0-2.093.963-2.306 2.16-.196 1.1.424 1.978 1.448 1.978Zm.09-.931c.358.066.75-.191.956-1.014.311-1.246-.262-1.256-.367-1.27-.317-.038-.74.328-.912 1.09-.08.349-.163 1.104.324 1.194Zm2.536-3.091s.098.053.098.305v3.408s-.013.187-.083.226h1.064s0-.08.106-.213c.106-.132 2.317-3.103 2.317-3.103s.505-.623.637-.623h-1.524s.12.08.027.225c-.093.146-1.447 2.175-1.447 2.175l.017-2.046s-.003-.328.129-.356l-1.34.002Zm6.437.93.345-.931H21.63s.092.082-.027.414c-.12.332-1.165 3.156-1.165 3.156s-.185.37-.238.37h2.661l.318-.94s-.04.052-.291.052h-1.126l.238-.637h.874s.185-.013.225.04l.357-1.006s-.026.091-.264.091h-.848l.252-.702h1.073s.146-.02.198.092Zm-13.46-1.807h1.273s-.004-.098.03-.162c.06-.115.218-.392.218-.392h1.282l.003.346s.006.12-.088.211h1.271s-.094-.053-.112-.21l-.16-3.46s-.006-.222.099-.269h-1.261s.088.11-.08.359c-.17.248-2.324 3.448-2.324 3.448s-.043.082-.152.129Zm2.779-2.596-.708 1.154h.718l-.01-1.154Z" fill="#000"/></g><defs><clipPath id="a"><path fill="#fff" d="M0 0h33.709v18H0z"/></clipPath></defs></svg>