<svg width="28" height="20" fill="none" xmlns="http://www.w3.org/2000/svg"><path fill-rule="evenodd" clip-rule="evenodd" d="M14.659 1.628c-1.414 1.749-5.446 7.395-5.905 8.126-.885 1.4-.963 2.08-.989 2.532-.026.444-.026 1.244.694 1.897 1.205 1.079 2.896.904 4.396.904h12.357c.53 0 .686-.156.972-.54.988-1.513 1.43-3.157 1.43-4.628 0-3.15-2.037-7.116-7.197-8.909l-.581.835c4.093 1.949 5.784 4.498 5.784 8.065a5.133 5.133 0 0 1-.85 2.95H12.75c-.719 0-.823-.818-.563-1.28 1.03-1.84 2.18-3.61 3.443-5.297 1.214-1.627 2.41-3.15 3.668-4.742.338-.444.112-.87-.564-1.01-1.405-.295-2.87-.504-4.648-.504C4.227.027.62 5.708.62 9.92c0 4.568 3.634 9.866 13.493 9.866 5.472 0 9.054-1.766 11.126-4.037h-2.09c-1.813 1.68-4.926 2.872-9.036 2.872-8.35 0-11.429-4.707-11.429-8.762.06-3.619 3.365-8.613 11.638-8.778.312-.009.555.278.338.548Z" fill="#000"/></svg>