<svg width="10" height="28" fill="none" xmlns="http://www.w3.org/2000/svg"><path fill-rule="evenodd" clip-rule="evenodd" d="M8.85 13.375C8.816 8.254 8.344 2.492 7.55.692L5.023.084l-2.53.608c-.793 1.8-1.263 7.56-1.3 12.68l-1.098.083v1.088l1.099.083c.036 5.12.507 10.881 1.3 12.681l2.529.609 2.529-.609c.792-1.8 1.264-7.562 1.3-12.682l1.072-.082v-1.088l-1.072-.08ZM3.272 25.852c-.717-3.005-.858-7.966-.916-11.177l1.794.135.315 11.042H3.27Zm.878-12.664-1.794.135c.058-3.21.199-8.172.916-11.177h1.192L4.149 13.19Zm2.622 12.664H5.554l.314-11.042 1.82-.136c-.058 3.21-.2 8.173-.917 11.178Zm-.903-12.664-.314-11.04H6.77c.717 3.004.859 7.967.917 11.177l-1.82-.136Z" fill="#000"/></svg>