<svg width="27" height="21" fill="none" xmlns="http://www.w3.org/2000/svg"><path fill-rule="evenodd" clip-rule="evenodd" d="M2.441 3.554c.79.953 2.176 1.685 2.234 1.716a.123.123 0 0 0 .169-.057c.015-.033 1.589-3.283 8.57-3.283 6.984 0 8.6 3.267 8.616 3.3a.122.122 0 0 0 .12.07.124.124 0 0 0 .048-.014c.071-.037 1.766-.922 2.361-1.771.003-.003.004-.007.005-.01a.115.115 0 0 0 .015-.043l.001-.011a.128.128 0 0 0-.005-.042v-.003L24.57 3.4c-.003-.007-.005-.014-.01-.021-.093-.137-2.395-3.36-11.145-3.36C4.662.02 2.519 3.277 2.432 3.416c0 0-.05.067.01.14Z" fill="#000"/><path fill-rule="evenodd" clip-rule="evenodd" d="M13.415 1.688c-6.488 0-8.388 2.701-8.733 3.31-.287-.16-1.089-.634-1.713-1.235l.761.277a.123.123 0 0 0 .138-.038C6.564.686 13.34.962 13.409.966l.006-.001h.006c.068-.002 6.847-.278 9.541 3.037.033.04.087.055.136.039l.976-.336c-.587.579-1.561 1.134-1.882 1.31-.35-.605-2.28-3.327-8.777-3.327Z" fill="#000"/><path fill-rule="evenodd" clip-rule="evenodd" d="M13.368 11.965v.002c.005.01.012.02.02.029l.006.01.01.006a.118.118 0 0 0 .03.02h.001c.005.002.01.002.016.003.01.002.02.005.03.005.01 0 .02-.003.029-.005.005-.001.01 0 .016-.003h.001a.116.116 0 0 0 .03-.02l.01-.007.006-.01a.115.115 0 0 0 .02-.028v-.002a7.247 7.247 0 0 1 1.474-2.288c-.187.625-.19 1.065-.19 1.088 0 .027.01.053.027.074a.123.123 0 0 0 .204-.02c.037-.074.215-.249.33-.35a.12.12 0 0 0 .04-.08c.057-.668.643-1.564.745-1.715.51-.37 1.052-.683 1.605-.963-.682.536-1.536 1.307-2.024 2.127a.12.12 0 0 0 .032.155.123.123 0 0 0 .161-.01c.01-.011 1.09-1.079 3.72-1.798.609-.166 2.165-.71 4.034-1.785a.12.12 0 0 0 .055-.07l.735-2.232.044-.04a10.2 10.2 0 0 1-.389 2.229c-.236.151-1.85 1.17-3.23 1.669a20.71 20.71 0 0 1-.961.307c-2.034.614-4.802 1.453-6.525 5.072-1.722-3.62-4.49-4.458-6.524-5.072a20.27 20.27 0 0 1-.96-.307c-1.38-.5-2.995-1.518-3.232-1.67-.305-.673-.415-1.42-.463-2.057C2.96 6.817 5.805 7.732 7.12 8.15c1.982.63 3.122 1.267 3.133 1.274a.123.123 0 0 0 .143-.015.12.12 0 0 0 .028-.14c-.287-.613-.822-1.16-1.307-1.567 1.736.875 3.364 2.085 4.25 4.262Z" fill="#000"/><path fill-rule="evenodd" clip-rule="evenodd" d="M13.369 13.669c.002.006.007.01.01.014.005.008.009.016.015.022.007.007.015.01.022.015.005.003.01.008.015.01l.003.001c.008.004.018.005.027.006.007 0 .013.003.02.003l.019-.003c.01-.002.018-.002.027-.006h.003l.014-.01c.008-.005.016-.01.022-.016.007-.006.01-.014.016-.021l.01-.015c1.668-3.722 4.452-4.563 6.485-5.177.35-.106.68-.205.973-.311 1.163-.42 2.485-1.201 3.041-1.544a12.24 12.24 0 0 1-.674 1.706c-.672.534-1.65.805-2.782 1.118-1.282.354-2.736.756-4.088 1.652-1.729 1.146-2.743 3.104-3.067 3.809-.324-.706-1.338-2.663-3.066-3.809-1.353-.896-2.806-1.298-4.088-1.652-1.132-.313-2.11-.584-2.782-1.118a12.299 12.299 0 0 1-.675-1.706c.557.343 1.878 1.123 3.042 1.544.293.106.623.206.973.311 2.033.614 4.817 1.455 6.485 5.177ZM2.516 6.303c.315 1.124.716 1.959.805 2.137-.08.504-.714 5.052 1.446 7.823-.49-.192-1.413-.676-2.17-1.764-.018-.029-2.08-3.62-.08-8.196ZM23.673 8.4c-.001-.006-.004-.01-.006-.016.099-.205.348-.745.592-1.477 1.245 3.66.09 6.831.078 6.863l-.004.013a3.917 3.917 0 0 1-1.971 2.307c2.079-2.885 1.346-7.479 1.311-7.69Z" fill="#000"/><path fill-rule="evenodd" clip-rule="evenodd" d="M26.717 10.988c0 3.142-1.538 6.919-4.905 8.428-3.038 1.362-7.657 1.392-8.312 1.392-.655 0-4.879.067-8.312-1.392C1.958 18.044.437 14.5.295 11.454c.731 2.155 1.822 3.078 2.024 3.235.861 2.522 3.067 4.279 6.383 5.08 1.372.332 3.305.434 4.395.46-.096.005.069.01.403.007.334.003.5-.002.403-.007 1.09-.026 3.023-.128 4.395-.46 3.332-.805 5.543-2.574 6.395-5.116.015-.042 1.415-4.277-.193-8.458-.004-.011-.011-.02-.018-.03.169-.63.306-1.344.346-2.08.775 1.179 1.89 3.468 1.89 6.903Z" fill="#000"/></svg>