<svg width="23" height="23" fill="none" xmlns="http://www.w3.org/2000/svg"><path d="M22.749 11.5A11.242 11.242 0 0 1 11.5 22.75 11.242 11.242 0 0 1 .252 11.5 11.242 11.242 0 0 1 11.5.252 11.242 11.242 0 0 1 22.75 11.5ZM11.5.935A10.537 10.537 0 0 0 .935 11.5c0 5.858 4.744 10.566 10.565 10.566 5.858 0 10.566-4.744 10.566-10.566A10.537 10.537 0 0 0 11.5.935Z" fill="#000"/><path d="M11.5.934A10.537 10.537 0 0 0 .935 11.499c0 5.858 4.743 10.566 10.565 10.566 5.858 0 10.566-4.744 10.566-10.566A10.537 10.537 0 0 0 11.5.934Zm0 20.448a9.877 9.877 0 0 1-9.883-9.883A9.877 9.877 0 0 1 11.5 1.616a9.877 9.877 0 0 1 9.883 9.883 9.877 9.877 0 0 1-9.883 9.883Z" fill="#000"/><path opacity=".4" d="M11.5 22.748A11.242 11.242 0 0 0 22.748 11.5 11.242 11.242 0 0 0 11.5.252 11.242 11.242 0 0 0 .252 11.5 11.242 11.242 0 0 0 11.5 22.748ZM11.5 0C17.825 0 23 5.175 23 11.5S17.825 23 11.5 23 0 17.825 0 11.5 5.175 0 11.5 0Z" fill="#000"/><path d="M.791 11.536C.791 5.643 5.571.791 11.501.791c5.93 0 10.709 4.816 10.709 10.745 0 5.894-4.78 10.674-10.71 10.674C5.57 22.21.791 17.43.791 11.536Zm3.342-7.403c-1.904 1.905-3.09 4.528-3.09 7.403s1.186 5.499 3.054 7.368c1.905 1.868 4.528 3.054 7.403 3.054s5.499-1.15 7.368-3.054c1.904-1.87 3.054-4.493 3.054-7.368s-1.186-5.498-3.054-7.403a10.315 10.315 0 0 0-7.368-3.09 10.315 10.315 0 0 0-7.367 3.09Z" fill="#000"/><path opacity=".4" d="M11.5 21.42a9.84 9.84 0 0 1-7.008-2.911 9.84 9.84 0 0 1-2.91-7.008 9.84 9.84 0 0 1 2.91-7.008A9.84 9.84 0 0 1 11.5 1.582a9.84 9.84 0 0 1 7.008 2.911 9.84 9.84 0 0 1 2.91 7.008 9.84 9.84 0 0 1-2.91 7.008 9.84 9.84 0 0 1-7.008 2.91Zm0-.288a9.6 9.6 0 0 0 6.792-2.803 9.512 9.512 0 0 0 2.803-6.792 9.6 9.6 0 0 0-2.803-6.792A9.512 9.512 0 0 0 11.5 1.94a9.6 9.6 0 0 0-6.792 2.804c-1.833 1.76-2.84 4.204-2.84 6.756a9.6 9.6 0 0 0 2.804 6.792 9.63 9.63 0 0 0 6.828 2.839Z" fill="#000"/><path d="M20.233 16.171c-.18-.144-7.116-5.642-7.116-5.642L11.5 1.293a.614.614 0 0 0-.324.287l-1.15 8.985-7.151 5.498s-.144.18-.216.288c-.036.072-.036.18-.036.287l8.84-3.63 8.841 3.63c.072-.18 0-.36-.071-.467Z" fill="#000"/><path d="M11.572 11.787 11.5 13.44l8.122 3.27c.287.144.503.072.719-.071L11.68 11.75c-.036-.036-.108 0-.108.036Z" fill="#000"/><path d="M11.572 11.787s.467.827 1.007 1.402c.754.826 1.76 1.401 1.76 1.401l5.283 2.12c.288.144.503.072.719-.071l-8.66-4.888c-.037-.036-.109 0-.109.036Zm8.732 4.529c0-.036-.035-.072-.071-.143l-7.404-5.427-1.006.647s.072.036.108 0a.898.898 0 0 1 .54 0c.179.072 7.833 4.96 7.833 4.923 0 .036 0 .036 0 0Z" fill="#000"/><path d="m20.053 15.992-6.9-5.463-.323.216 7.403 5.462c-.036-.072-.108-.143-.18-.215Z" fill="#000"/><path d="m11.68 11.249-.036.036s0 .072.071.036c.036-.036 1.079-.575 1.438-.79l-1.258-8.626c-.036-.323-.18-.467-.431-.575l.144 9.99.072-.071Zm-.611-9.344v.467l-.791 7.943c0 .107.036.215.144.287l.467.36.323-8.77.036-.682c-.108.072-.143.215-.18.395Zm-.432 9.2-.43-.36L2.91 16.03s-.216.143-.252.287l.252-.144 7.654-4.815c.144-.072.18-.144.072-.252Zm.755.682c0-.036-.036-.072-.072-.036l-8.697 4.924c.216.143.431.18.719.072l8.122-3.27-.072-1.69Z" fill="#000"/><path d="m11.644 11.285.036-.036-.036.036s0 .036.036.036h.035c.036-.036 1.079-.575 1.438-.79l-.144-1.043-1.114-7.583c0-.143-.036-.251-.108-.323 0 0 .54 7.26.54 8.05 0 1.042-.683 1.653-.683 1.653Z" fill="#000"/><path d="M11.392 11.787c0-.036-.036-.072-.072-.036l-8.697 4.924c.216.143.431.18.719.072l8.122-3.27-.072-1.69Z" fill="#000" fill-opacity=".8"/><path opacity=".8" d="m3.343 16.71 8.121-3.27-.071-1.58c-.144.43-.396.898-1.079 1.257-.503.288-5.318 2.66-7.043 3.486-.108.072-.252.108-.324.144.144.072.252.036.396-.036Z" fill="#000"/><path d="m11.68 11.249-.036.036s0 .072.071.036c.036-.036 1.079-.575 1.438-.79l-1.258-8.626c-.036-.323-.18-.467-.431-.575l.144 9.99.072-.071Z" fill="#000"/><path d="m11.68 11.249-.036.036s0 .072.071.036c.036-.036 1.079-.575 1.438-.79l-1.258-8.626c-.036-.323-.18-.467-.431-.575l.144 9.99.072-.071Zm-9.847 4.707c-.251-.575-1.689-3.378-.108-8.768h-.61C.79 8.265.538 8.912.394 9.883c0 0-.071.36-.107.755-.036.395-.036.61-.036.862 0 2.156.539 3.414.539 3.414.575 1.797 1.581 3.414 2.947 4.636 1.186 1.042 3.019 1.833 4.528 2.12-.252-.036-4.564-1.868-6.433-5.714Zm9.811-4.24h-.324c.036 0 .072 0 .072.036l.072 1.653h.036l.072-1.653c0-.036.036-.072.072-.036Zm3.45-10.89c3.773 1.438 7.331 5.39 7.331 10.386 0 6.038-4.816 10.961-10.925 10.961v.575c6.11 0 11.248-5.031 11.248-11.248 0-4.96-3.162-9.129-7.654-10.674Z" fill="#000"/><path d="M21.131 7.259c-2.515-5.786-8.194-6.11-8.517-6.146h-.036c4.349.79 7.116 3.63 8.086 6.613v.036c.431 1.15.647 2.372.683 3.701.036 1.258-.252 2.66-.79 3.953-.037.18-.073.396-.109.396h.575c1.725-3.235.97-6.505.108-8.553Z" fill="#000"/><path d="M.791 11.536C.791 5.643 5.571.791 11.501.791c5.93 0 10.709 4.816 10.709 10.745 0 5.894-4.78 10.674-10.71 10.674C5.57 22.21.791 17.43.791 11.536Zm3.342-7.403c-1.904 1.905-3.09 4.528-3.09 7.403s1.186 5.499 3.054 7.368c1.905 1.868 4.528 3.054 7.403 3.054s5.499-1.15 7.368-3.054c1.904-1.87 3.054-4.493 3.054-7.368s-1.186-5.498-3.054-7.403a10.315 10.315 0 0 0-7.368-3.09 10.315 10.315 0 0 0-7.367 3.09Z" fill="#000"/><path d="m2.839 16.1 7.331-5.282c.395.216 1.042.503 1.114.503.072.036.072-.036.072-.036l-.898-.755a.327.327 0 0 1-.144-.287l.862-8.661c-.036.036-.036.108-.072.144-.035.072-.035.108-.035.18l-1.258 8.66-6.9 5.427c-.036.036-.072.072-.072.108Z" fill="#000"/></svg>