<svg width="33" height="33" fill="none" xmlns="http://www.w3.org/2000/svg"><path d="M12.42 18.099h-.612v-3.133h.911l.8 2.505.795-2.505h.91v3.133h-.632v-2.323l-.734 2.323h-.683l-.754-2.339v2.34Zm4.161 0h-.648v-3.133h.648v3.133Zm1.336 0h-.622v-3.133h.764l1.25 2.272v-2.272h.623v3.133h-.764l-1.25-2.263V18.1Zm3.376 0h-.648v-3.133h.648v3.133Zm4.601 1.154h-2.97a7.34 7.34 0 0 0 .379-1.154h3.75l.992-.992H23.46a7.37 7.37 0 0 0 .025-.577 7.4 7.4 0 0 0-.025-.577h5.74l.991-.992h-6.888a6.434 6.434 0 0 0-.38-1.154h8.417l.992-.992h-9.935a6.928 6.928 0 0 0-5.851-3.22 6.925 6.925 0 0 0-5.846 3.22H.77l.986.992h8.423c-.157.37-.284.754-.38 1.154H2.91l.987.992h5.745a7.333 7.333 0 0 0-.025.577c0 .192.01.384.025.577H5.056l.987.992h3.75c.092.4.219.784.38 1.154H7.198l.987.992h2.51a6.925 6.925 0 0 0 5.847 3.219 6.94 6.94 0 0 0 5.85-3.22h2.511l.992-.991Zm-9.343 3.219a5.951 5.951 0 0 1-5.942-5.942 5.951 5.951 0 0 1 5.942-5.942 5.951 5.951 0 0 1 5.942 5.942 5.951 5.951 0 0 1-5.942 5.942Z" fill="#000"/></svg>