<svg width="29" height="25" fill="none" xmlns="http://www.w3.org/2000/svg"><path d="M28.002 9.474c-.268-.075-.566-.111-1.195-.19-2.601-.107-9.03-.358-12.307-.358-3.276 0-9.705.251-12.307.359-.629.078-.927.114-1.195.189-.818.194-.998.49-.998 1.08v4.04c0 .59.628.988 1.06 1.068.433.08.707.113 1.163.157 2.327.145 7.725.447 12.277.452 4.552-.004 9.95-.307 12.277-.452.456-.044.73-.076 1.163-.157.432-.08 1.06-.478 1.06-1.067v-4.042c0-.59-.18-.885-.998-1.08Z" fill="url(#a)"/><path d="M4.068 9.633c1.28-4.482 5.486-7.771 10.479-7.771 4.978 0 9.175 3.27 10.468 7.735l.011.039a13.323 13.323 0 0 0 1.877-.34l-.018-.063C25.415 3.915 20.448.002 14.546.002 8.625.002 3.645 3.941 2.194 9.285c.653.18 1.131.255 1.875.348Z" fill="url(#b)"/><path d="m24.984 15.508-.034.105c-1.361 4.358-5.504 7.527-10.404 7.527-4.938 0-9.107-3.218-10.435-7.628-.812.145-1.086.2-1.888.307C3.709 21.111 8.663 25 14.546 25c5.886 0 10.842-3.892 12.325-9.188a23.965 23.965 0 0 1-1.887-.303Z" fill="url(#c)"/><path d="M4.329 9.623c.308-.128.606-.333 1.07-.464 1.386-3.624 4.958-6.204 9.147-6.204 4.176 0 7.74 2.564 9.134 6.17l.014.037c.24.083.946.372 1.166.468l.166.005a1.058 1.058 0 0 1-.011-.039c-1.293-4.463-5.49-7.733-10.469-7.733-4.991 0-9.197 3.288-10.478 7.77.074 0 .215-.007.26-.01Z" fill="url(#d)"/><path d="M14.466 2.166c4.671 0 8.812 2.804 10.38 7.425l.013.04.166.004-.011-.039c-1.293-4.463-5.49-7.733-10.469-7.733-4.991 0-9.197 3.288-10.478 7.77.1-.002.148-.002.261-.01C5.73 5.235 9.83 2.166 14.466 2.166Z" fill="#fff"/><path d="M24.72 15.52c-.336.19-.754.37-1.088.477l-.027.07c-1.445 3.506-4.956 5.981-9.059 5.981-4.128 0-7.657-2.505-9.085-6.046-.384-.107-.958-.371-1.175-.481a25.794 25.794 0 0 1-.176-.009c1.328 4.41 5.498 7.628 10.437 7.628 4.916 0 9.07-3.19 10.417-7.567l.02-.065c-.077.003-.196.012-.265.012Z" fill="url(#e)"/><path d="M27.77 9.766c-.69-.085-1.159-.075-2.837-.134l-.233-.008c-3.044-.105-7.616-.245-10.2-.245-2.584 0-7.156.14-10.2.245l-.232.008c-1.679.059-2.148.05-2.838.134-.689.085-1.23.389-1.23.905v3.748c0 .517.652.935 1.23.935 0 0 7.358.458 13.27.463 5.912-.005 13.27-.463 13.27-.463.578 0 1.23-.418 1.23-.935v-3.748c0-.516-.541-.82-1.23-.905Z" fill="url(#f)"/><path d="M24.72 15.52c-1.444 4.313-5.506 7.317-10.093 7.317-4.634 0-8.746-2.76-10.342-7.316l-.174-.009c1.328 4.41 5.498 7.628 10.437 7.628 4.94 0 9.111-3.22 10.438-7.632l-.266.013Z" fill="#fff"/><path d="M24.728 15.52h-.009c-.335.189-.753.37-1.087.476l-.028.07a9.522 9.522 0 0 1-1.946 2.974 10.488 10.488 0 0 0 3.07-3.52Z" fill="#8C8C8C"/><path d="M7.713 19.318a9.545 9.545 0 0 1-2.252-3.317c-.384-.108-.958-.371-1.176-.482.233.486.507.95.82 1.386A10.771 10.771 0 0 0 7.4 19.123c.103.067.207.132.313.195Z" fill="#4D4D4D"/><path d="M4.11 15.512h-.003c-.809.145-1.083.2-1.884.307.064.23.136.458.214.683l1.674-.99Z" fill="#252525"/><path d="M20.392 11.425c-.241-.544-.155-.487-.682-.5-.043-.016-.157-.016-.313-.016s-.185 0-.313.015c-.498 0-.412-.028-.583.33 0 0-.854 1.932-1.224 2.734l-.014.029c-.07.142-.028.142.085.142h.769c.057 0 .085-.028.1-.057 0 0 .113-.243.255-.587h1.878c.142.33.242.573.242.587.014.043.057.057.1.057h.796c.114 0 .142.015.1-.085-.143-.344-1.067-2.349-1.196-2.649Zm-1.636 1.403c.242-.572.485-1.13.485-1.145.014-.029.042-.043.085-.043.014-.015.057-.015.1-.015.028 0 .07 0 .085.015.028 0 .057.014.07.057.058.157.271.644.47 1.131h-1.294ZM8.515 10.881c.071 0 .085.028.085.086v3.064c0 .071-.014.1-.1.1h-.739c-.085 0-.1-.014-.1-.1v-3.064c0-.058.015-.086.072-.086h.782Zm-1.579.028c.085 0 .1.029.1.1v3.05c0 .087-.015.101-.1.101h-.868c-.512 0-.554 0-.725-.286a641.586 641.586 0 0 0-1.423-2.205v2.391c0 .086-.014.1-.099.1h-.64c-.086 0-.1-.014-.1-.1v-3.05c0-.072.014-.1.1-.1h.74c.554 0 .625-.015.825.271.156.258 1.45 2.263 1.45 2.263V11.01c0-.072.015-.1.1-.1h.64Zm18.99 0c.086 0 .1.029.1.1v3.05c0 .087-.015.101-.1.101h-.867c-.513 0-.556 0-.726-.286a554.393 554.393 0 0 0-1.423-2.205v2.39c0 .087-.014.101-.1.101h-.64c-.085 0-.1-.014-.1-.1v-3.05c0-.072.016-.1.1-.1h.74c.555 0 .626-.015.825.271.17.258 1.451 2.263 1.451 2.263V11.01c0-.072.015-.1.1-.1h.64Zm-14.153 1.246c.569.058.981.158 1.095.702 0 .043.014.186.014.344 0 .1 0 .229-.028.343-.1.516-.484.616-1.081.616h-2.39c-.086 0-.1-.014-.1-.1v-.516c0-.086.014-.1.1-.1H11.8c.1 0 .128-.029.142-.1v-.216c-.014-.058-.029-.144-.156-.158a45.857 45.857 0 0 1-1.608-.143c-.697-.072-.868-.372-.896-.63-.014-.086-.014-.2-.014-.3 0-.087 0-.215.014-.316.1-.458.441-.673 1.038-.673h2.319c.085 0 .114.015.114.086v.53c0 .071-.029.1-.114.086h-2.276c-.1 0-.142.043-.157.143v.129c0 .072.043.129.143.143.27.029 1.11.1 1.423.13Zm4.11 0c.57.058.982.158 1.096.702 0 .043.014.186.014.344 0 .1 0 .229-.028.343-.1.516-.484.616-1.081.616h-2.39c-.086 0-.1-.014-.1-.1v-.516c0-.086.014-.1.1-.1h2.418c.1 0 .127-.029.142-.1v-.216c-.015-.058-.043-.144-.157-.158a45.828 45.828 0 0 1-1.607-.143c-.697-.072-.853-.372-.896-.63-.014-.086-.014-.2-.014-.3 0-.087 0-.215.014-.316.1-.458.44-.673 1.038-.673h2.32c.084 0 .113.015.113.086v.53c0 .071-.029.1-.114.086h-2.276c-.1 0-.142.043-.156.143v.129c0 .072.028.129.142.143.27.029 1.11.1 1.422.13Z" fill="url(#g)"/><defs><radialGradient id="b" cx="0" cy="0" r="1" gradientUnits="userSpaceOnUse" gradientTransform="matrix(20.2221 0 0 20.356 6.36 -5.023)"><stop offset=".202" stop-color="#fff"/><stop offset=".382" stop-color="#FDFDFD"/><stop offset=".487" stop-color="#F4F4F4"/><stop offset=".573" stop-color="#E6E6E6"/><stop offset=".648" stop-color="#D2D2D2"/><stop offset=".689" stop-color="#C4C4C4"/><stop offset="1" stop-color="#333"/></radialGradient><radialGradient id="c" cx="0" cy="0" r="1" gradientUnits="userSpaceOnUse" gradientTransform="matrix(42.1152 0 0 42.394 55.298 27.582)"><stop offset=".202" stop-color="#fff"/><stop offset=".368" stop-color="#E4E4E4"/><stop offset=".594" stop-color="#C4C4C4"/><stop offset="1" stop-color="#333"/></radialGradient><radialGradient id="d" cx="0" cy="0" r="1" gradientUnits="userSpaceOnUse" gradientTransform="matrix(12.9295 0 0 13.0151 11.217 18.226)"><stop offset=".202" stop-color="#fff"/><stop offset=".368" stop-color="#E4E4E4"/><stop offset=".594" stop-color="#C4C4C4"/><stop offset="1" stop-color="#333"/></radialGradient><radialGradient id="e" cx="0" cy="0" r="1" gradientUnits="userSpaceOnUse" gradientTransform="matrix(24.5331 0 0 24.6956 21.65 31.535)"><stop offset=".202" stop-color="#fff"/><stop offset=".368" stop-color="#E4E4E4"/><stop offset=".594" stop-color="#C4C4C4"/><stop offset="1" stop-color="#333"/></radialGradient><radialGradient id="f" cx="0" cy="0" r="1" gradientUnits="userSpaceOnUse" gradientTransform="matrix(19.4955 0 0 19.6247 14.306 2.576)"><stop offset=".202" stop-color="#fff"/><stop offset=".397" stop-color="#FDFDFD"/><stop offset=".51" stop-color="#F4F4F4"/><stop offset=".603" stop-color="#E6E6E6"/><stop offset=".684" stop-color="#D2D2D2"/><stop offset=".728" stop-color="#C4C4C4"/><stop offset="1" stop-color="#4D4D4D"/></radialGradient><radialGradient id="g" cx="0" cy="0" r="1" gradientUnits="userSpaceOnUse" gradientTransform="matrix(13.1313 0 0 13.2182 14.757 4.541)"><stop offset=".111" stop-color="#4D4D4D"/><stop offset=".248" stop-color="#494949"/><stop offset=".355" stop-color="#404040"/><stop offset=".451" stop-color="#2F2F2F"/><stop offset=".541" stop-color="#181818"/><stop offset=".611"/></radialGradient><linearGradient id="a" x1="14.5" y1=".371" x2="14.5" y2="20.718" gradientUnits="userSpaceOnUse"><stop offset=".194" stop-color="#fff"/><stop offset=".208" stop-color="#F8F8F8"/><stop offset=".366" stop-color="#AEAEAE"/><stop offset=".513" stop-color="#707070"/><stop offset=".647" stop-color="#404040"/><stop offset=".764" stop-color="#1D1D1D"/><stop offset=".86" stop-color="#080808"/><stop offset=".922"/></linearGradient></defs></svg>