<svg width="27" height="27" fill="none" xmlns="http://www.w3.org/2000/svg"><path fill-rule="evenodd" clip-rule="evenodd" d="M19.258 22.568c-1.526 1.39-2.84 2.14-5.609 3.592-2.577-1.172-4.26-2.327-5.718-3.465-2.016-1.57-3.464-4.118-3.59-5.68L3.337 2.138c6.813-1.771 14.06-1.73 20.328.119l-1.02 14.725c-.13 1.333-1.323 3.926-3.386 5.585Z" fill="#FFD124" stroke="#000" stroke-width=".5" stroke-miterlimit="2.613"/><path fill-rule="evenodd" clip-rule="evenodd" d="m21.476 16.494.92-13.149c-5.394-1.718-11.856-1.743-17.81-.18l.94 13.321c.098 1.384 1.095 3.502 3.007 5.124 1.15.977 3.404 2.616 5.069 3.245a25.541 25.541 0 0 0 5.044-3.368c1.714-1.56 2.726-3.502 2.83-4.992Z" fill="#FFD124" stroke="#000" stroke-width=".5" stroke-miterlimit="2.613"/><path fill-rule="evenodd" clip-rule="evenodd" d="M18.426 21.139c-1.325 1.143-3.11 2.423-4.823 3.24-1.531-.473-3.794-2.219-4.883-3.157-1.898-1.64-2.67-3.356-2.787-4.978L5.01 3.528c5.669-1.488 11.857-1.488 16.998.149l-.912 12.546c-.132 1.669-.908 3.264-2.67 4.916Z" fill="#FFD124" stroke="#000" stroke-width=".5" stroke-miterlimit="2.613"/><path d="M21.605 3.944c-4.876-1.495-10.796-1.576-16.171-.168Z" stroke="#000" stroke-width=".2" stroke-miterlimit="2.613"/><path fill-rule="evenodd" clip-rule="evenodd" d="m18.89 4.59-1.22-.201-.047.573-.397-.06.093-1.52.407.06-.043.584 1.238.2.04-.585.415.079-.126 1.525-.404-.075.045-.58ZM13 4.075c-.149 0-.268-.04-.346-.172-.068-.109-.068-.461 0-.578.074-.136.208-.174.319-.174l1.73.002.005.374-1.638-.002c-.08 0-.082.18.007.18h1.29c.151 0 .285.092.328.21.047.128.038.417 0 .535-.036.12-.172.185-.343.185h-1.707l-.002-.382h1.52a.09.09 0 0 0 0-.178H13Zm-1 .152a.144.144 0 0 0-.149-.14l-1.148.082.023.57-.372.037-.079-1.5 1.71-.128a.326.326 0 0 1 .361.286c.013.164.02.374-.108.461.106.079.134.196.136.36l.005.383-.373.015L12 4.227Z" fill="#000"/><path fill-rule="evenodd" clip-rule="evenodd" d="M11.755 3.74c.147-.01.134-.237 0-.224l-1.093.083.013.208 1.08-.068Z" fill="#FFD124"/><path fill-rule="evenodd" clip-rule="evenodd" d="M8.174 3.539c.35-.083 1.07-.198 1.446-.225.172-.013.306.076.33.21.055.308.089.626.05 1.053-.01.124-.116.221-.257.251a12.35 12.35 0 0 1-1.427.202c-.102.01-.263-.07-.29-.198a4.028 4.028 0 0 1-.075-1.04.308.308 0 0 1 .223-.253Z" fill="#000"/><path fill-rule="evenodd" clip-rule="evenodd" d="M9.54 4.453c.049-.011.07-.064.074-.102a2.035 2.035 0 0 0-.025-.525c-.009-.04-.043-.066-.12-.06-.208.014-.758.092-1.03.151-.073.017-.1.06-.105.098-.013.1.017.374.043.527.006.036.053.061.089.06a9.12 9.12 0 0 0 1.074-.15Z" fill="#FFD124"/><path fill-rule="evenodd" clip-rule="evenodd" d="M15.57 3.603c-.081-.002-.137.046-.143.089-.02.125-.026.286-.026.497 0 .027.047.104.088.11.365.051 1.075.115 1.462.14l-.023.393c-.508-.023-1.04-.104-1.59-.142-.181-.013-.313-.11-.32-.285-.01-.286.007-.72.058-.972.034-.155.183-.236.35-.232.509.02.913.064 1.579.153l-.026.391c-.323-.027-.935-.123-1.41-.142Zm-8.322.114c.515-.121.594.792.164.898l-1.2.3.058.59-.376.1-.134-1.538 1.488-.35Z" fill="#000"/><path fill-rule="evenodd" clip-rule="evenodd" d="M7.243 4.315c.123-.028.106-.248-.026-.22l-1.082.26.025.228 1.083-.268Z" fill="#FFD124"/><path fill-rule="evenodd" clip-rule="evenodd" d="m19.968 4.817-.025.247 1.188.3-.031.343-1.595-.376.138-1.548 1.605.389-.036.36-1.195-.288-.023.261 1.186.29-.03.305-1.182-.283Z" fill="#000"/><path d="m5.627 6.287.57 7.842h4.119v-2.565" stroke="#000" stroke-width=".5" stroke-miterlimit="2.613"/><path fill-rule="evenodd" clip-rule="evenodd" d="M10.31 10.15c0-.028-.337-.053-.505-.032-.447.053-1.563.403-2.035.728-.011.028-.009.183-.04.255a.344.344 0 0 1-.167.163c-.121.054-.261-.108-.323-.084-.064.023-.2.078-.347-.026-.065-.046-.1-.178-.076-.276.021-.07.08-.125.128-.17.042-.042.012-.206.165-.303.107-.068.253-.013.366.046a.165.165 0 0 0 .062-.036c.015-.045.038-.18.06-.287.025-.114.034-.189.067-.295.085-.257.29-.626.502-.82.168-.148.43-.267.623-.254-.019.03-.26.244-.33.34-.165.22-.318.56-.39.849-.026.098-.026.134-.01.197a5.23 5.23 0 0 1 .481-.176c.047-.104.073-.223.113-.318.064-.15.105-.213.17-.317.19-.293.59-.582.885-.575a2.648 2.648 0 0 0-.383.424 2.14 2.14 0 0 0-.174.34 1.09 1.09 0 0 0-.064.272 2.13 2.13 0 0 1 .402-.083c.066-.036.087-.106.123-.172.113-.21.334-.446.475-.522.112-.062.278-.121.397-.083a1.56 1.56 0 0 0-.321.34c-.062.097-.162.286-.157.376.104.008.24.003.3-.012l.004.51.001-.543-.001.544Z" fill="#000"/><path fill-rule="evenodd" clip-rule="evenodd" d="M8.956 6.71c.162-.225.587-.564.915-.545a2.214 2.214 0 0 0-.447.51c-.144.235-.261.53-.287.758.108-.04.364-.113.51-.145.13-.282.3-.595.51-.762.152-.121.369-.225.57-.202-.046.066-.123.117-.18.17a.988.988 0 0 0-.234.34 3.431 3.431 0 0 0-.117.386c.147-.002.406.015.461.032.173-.225.55-.552 1-.478-.196.106-.553.416-.532.586.294.19.732.586.75.954a2.236 2.236 0 0 0-.694-.472 2.58 2.58 0 0 0-1.268-.087c-.825.155-1.554.512-2.254.93-.017.113-.078.283-.13.34a.378.378 0 0 1-.21.126.498.498 0 0 1-.3-.073c-.057-.032-.208.009-.304-.042a.262.262 0 0 1-.14-.28c.023-.134.157-.215.176-.342.028-.187.164-.268.234-.28a.382.382 0 0 1 .226.042c.03.015.061.04.089.049.028-.009.068-.043.091-.053.007-.022.077-.41.115-.58.038-.17.104-.315.16-.474.166-.47.678-.947 1.089-.921-.022.03-.154.125-.337.337-.295.347-.37.714-.48 1.345a7.27 7.27 0 0 1 .631-.257c.05-.196.115-.387.196-.572a1.98 1.98 0 0 1 .191-.34Z" fill="#000"/><path fill-rule="evenodd" clip-rule="evenodd" d="m21.35 7.232-7.6.007.006 2.234 7.424-.004.17-2.237Z" fill="#fff"/><path fill-rule="evenodd" clip-rule="evenodd" d="M15.497 17.225a3.452 3.452 0 0 0-.074.584c.13-.053.25-.1.357-.132.008-.012.16-.341.228-.43.159-.247.373-.457.635-.598.164-.082.364-.159.54-.093-.232.11-.412.31-.52.425-.1.106-.218.263-.271.424a.998.998 0 0 0-.017.085c.108-.034.455-.085.6-.104.017-.002.061-.098.095-.144.043-.057.068-.094.136-.17.175-.189.47-.39.758-.346-.158.1-.33.259-.468.51-.02.038-.045.09-.034.114.042.009.253.004.38.02.147-.092.302-.173.47-.209.19-.042.436-.008.534.08a.777.777 0 0 0-.327.056c-.06.024-.179.079-.224.155.113.032.298.153.415.25.08.068.178.166.24.256.155.21.187.588.104.7a1.146 1.146 0 0 0-.084-.193 1.268 1.268 0 0 0-.292-.336c-.483-.367-1.178-.386-1.746-.271-.487.1-1.365.282-1.94.69a.28.28 0 0 1-.095.24c-.087.064-.21-.023-.274.01-.087.045-.196.017-.24-.002a.232.232 0 0 1-.135-.201c-.006-.073.064-.16.08-.238.006-.032-.028-.19.106-.27a.297.297 0 0 1 .155-.034c.053.01.095.045.148.053a.988.988 0 0 0 .207-.1c.042-.163.074-.352.096-.52l.457-.26Z" fill="#000"/><path d="M15.04 17.486a3.43 3.43 0 0 1-1.302.334m1.302-.334-1.302.334m1.302-.334.455-.266m-1.757.6.003 6.11c1.775-.901 3.723-2.375 4.552-3.184 1.342-1.306 2.246-2.63 2.384-4.536l.125-1.737-4.034-.004m0 0c0 .985-.327 2.005-1.273 2.751m1.273-2.751-1.273 2.751" stroke="#000" stroke-width=".5" stroke-miterlimit="2.613"/><path fill-rule="evenodd" clip-rule="evenodd" d="M15.57 19.484c.063-.097.14-.24.178-.301.134-.215.328-.374.46-.436.18-.087.472-.138.601-.074-.142.034-.25.1-.35.17-.103.07-.303.253-.354.33a1.083 1.083 0 0 0-.11.2 2.68 2.68 0 0 1 .455-.065 2.64 2.64 0 0 1 .406-.412c.115-.08.36-.161.512-.096-.146.047-.406.251-.501.398a.38.38 0 0 0-.045.089c.079.006.227.021.308.032.009 0 .23-.136.33-.164.13-.036.342-.082.476.06a.696.696 0 0 0-.262.042.408.408 0 0 0-.195.147c.204.108.417.22.543.42.044.07.112.236.074.344a.874.874 0 0 0-.221-.2c-.1-.057-.173-.112-.294-.159-.38-.142-.878-.18-1.276-.127-.514.066-1.146.32-1.47.542.022.1-.027.216-.084.244-.121.061-.238-.043-.26-.037-.032.011-.13.045-.2.015-.07-.027-.114-.15-.087-.23a.553.553 0 0 1 .107-.144c-.013-.129.072-.207.19-.223.065-.006.112.045.165.056a4.84 4.84 0 0 0 .108-.053c.03-.107.075-.215.104-.304.05-.15.122-.284.213-.425.132-.201.366-.393.645-.397-.085.066-.134.102-.188.168a2.023 2.023 0 0 0-.225.342c-.057.108-.11.27-.12.412.103-.049.26-.121.367-.164Zm-.042 1.149a.466.466 0 0 1 .226-.043c-.179.115-.343.283-.387.482-.004.022-.004.064.015.077.05-.013.18-.04.214-.057.022-.045.075-.115.11-.162.128-.17.311-.34.564-.276a.674.674 0 0 0-.334.31c-.012.024-.02.068-.004.068.043 0 .204-.006.228-.006.074-.066.291-.192.44-.145a.77.77 0 0 0-.202.138c-.015.017-.034.039-.038.064.132.066.248.14.357.234.058.049.14.14.191.297-.127-.11-.544-.308-.771-.319a1.863 1.863 0 0 0-.428.043c-.36.08-.73.242-1.046.423a.224.224 0 0 1-.079.193c-.046.038-.149.057-.187.002-.02-.03-.16.002-.19-.036 0 0-.035-.055-.04-.121-.004-.07.043-.113.081-.149.01-.012.009-.131.098-.172a.16.16 0 0 1 .157.013c.02-.01.034-.021.047-.03a1.42 1.42 0 0 1 .087-.403c.07-.196.3-.434.498-.425a1.189 1.189 0 0 0-.279.51c-.01.053-.014.157-.014.206a.959.959 0 0 1 .148-.075c.022-.05.083-.178.115-.236.081-.148.262-.34.423-.405Z" fill="#000"/><path fill-rule="evenodd" clip-rule="evenodd" d="M6.4 16.434c.025.738.327 1.63.742 2.248h6.185l-.012-.862c-.796 0-2.01-.524-2.49-1.382l-4.426-.004Z" fill="#fff"/><path d="m16.406 14.547.003-4.727-5.756-.002v4.689m0 0c0 3.929 5.753 3.929 5.753.04l-5.754-.04Z" stroke="#000" stroke-width=".5" stroke-miterlimit="2.613"/><path fill-rule="evenodd" clip-rule="evenodd" d="M12.505 12.624a.545.545 0 0 0 .14-.255c.011-.068-.18-.063-.25-.021a.41.41 0 0 0-.104.113c-.022.031-.098.057-.136.02-.04-.037.032-.103.03-.144 0-.067-.13.034-.19.007-.04-.02-.043-.08-.015-.117.015-.02.058-.01.077-.032.019-.021.019-.053.025-.08.009-.032.043-.047.064-.07.081-.08.234-.213.264-.21.07.006.17.042.232.01.012-.006.036-.028.014-.04l-.165-.109a.115.115 0 0 1 .038-.091c.076-.068.195-.021.295-.036a.34.34 0 0 0 .187-.087c.013.05-.019.102-.019.155.064.06.13.11.192.168.182.182.261.447.274.681.01.108.01.219.01.4.03-.077.05-.19.056-.287.027-.29-.017-.546-.18-.765a1.717 1.717 0 0 0-.226-.254c.008-.085.08-.23.149-.177.044.034-.022.085.025.115a.24.24 0 0 0 .157.021c.075-.019.147-.038.215-.044.032-.002.085-.017.096.015.008.02-.015.036-.038.044-.028.009-.07.002-.094.026-.02.019-.038.04-.032.068.008.032.043.048.077.038.128-.036.26-.056.393-.06.07 0 .055.051.021.07a.252.252 0 0 1-.083.026c-.125.015-.219.023-.204.096.01.048.09.002.106.037.02.039-.033.06-.03.086.014.08.169.063.241.046.053-.012.138-.055.164-.02.023.029.004.075-.026.084-.076.021-.208.06-.244.102-.034.04.006.123.046.127.092.01.192.01.264.032.028.009.051.028.051.058 0 .031-.032.042-.057.05-.05.015-.132.015-.177.034-.014.007-.044.017-.04.034.013.032.077.024.13.03.03.002.087.026.087.057 0 .034-.03.045-.083.04a.487.487 0 0 0-.196.02c-.01.004-.074.013-.072.043.004.035.072.012.089.048.015.034-.032.053-.036.096 0 .017.008.025.026.032.055.023.119.02.174.01.057-.01.079.066.064.075-.075.04-.24-.002-.279.02-.053.035.09.111.085.129-.004.019-.021.038-.034.042-.072.027-.166-.026-.219.004-.044.028-.025.098-.053.134-.034.045-.11.025-.145.051-.044.032-.046.108.003.155a.448.448 0 0 0 .123.085c.221.11.451.22.666.206.11-.007.29-.013.39.013.13.031.262.131.33.174a.267.267 0 0 0 .215.017.117.117 0 0 0 .075-.128c-.032-.17-.313-.223-.317-.393-.004-.195-.021-.301-.085-.424-.024-.047-.028-.155.027-.17.045-.01.06.051.096.036.164-.064.17-.323.34-.372.1-.027.436-.032.409-.074a.237.237 0 0 1 0-.268c.025-.034.095-.068.123-.034.038.045-.057.098-.05.164.005.061.095.18.027.244-.04.038-.345.051-.434.187-.056.083-.062.149.004.142.053-.006.098-.07.147-.106.087-.064.157-.09.206-.043.026.024-.008.069-.055.081-.038.013-.132.113-.107.138.039.04.251-.144.305-.106.027.021-.105.157-.081.193.027.045.117-.025.144.009.04.05-.07.15-.134.195-.049.032-.03.15-.1.187-.078.038-.114.106-.106.117.008.017.027.03.057.01.087-.055.196-.12.24-.104.026.011-.01.132-.042.19-.032.057.13.025.106.074a.24.24 0 0 0-.017.142c.013.066-.174.08-.19.125-.02.051.018.064.037.066.113.017.098.121.053.166a.297.297 0 0 1-.25.068c-.077-.013-.25-.045-.351-.121-.032-.024-.079-.007-.085.025-.007.036.032.102.049.157a.478.478 0 0 1-.017.268c-.06.168-.22.308-.264.51a.315.315 0 0 0 .026.17c.046.11.114.214.19.308.011.03.026.063.014.09-.017.043-.15.134-.187.17-.122.113-.226.26-.25.419-.008.057-.13.114-.214.138a.479.479 0 0 0-.177.074c-.006.047.022.087.028.134.01.08-.091.121-.17.147a.35.35 0 0 1-.117.023c-.015 0-.02-.026-.017-.038.023-.11.045-.2.087-.29a.278.278 0 0 1 .073-.086l.304-.255.238-.342a.153.153 0 0 0 .03-.082.229.229 0 0 0-.075-.17c-.06-.053-.147-.062-.213-.096-.085-.042-.208-.161-.225-.17-.047-.023-.074.061-.08.11-.011.075.012.145.01.22 0 .033-.004.053-.021.074-.2.114-.449.157-.596.34-.025.031-.048.065-.083.088-.083.058-.22-.008-.283.081-.027.04.005.094-.006.138-.006.026-.055.06-.093.079a.476.476 0 0 1-.162.04c-.062-.03-.023-.116-.002-.178a.383.383 0 0 1 .1-.17c.072-.064.163-.144.221-.172.049-.024.123-.024.183-.047a.648.648 0 0 0 .176-.085.588.588 0 0 0 .217-.216.33.33 0 0 0-.02-.34c-.065-.083-.14-.164-.181-.257-.024-.051-.007-.121.03-.168-.003-.002-.028-.02-.043-.015a2.168 2.168 0 0 1-.896-.133c-.074-.03-.15-.126-.204-.132-.049-.007-.078.055-.127.068-.079.021-.181.008-.273 0a2.977 2.977 0 0 1-.487-.108c-.025.004-.053.008-.076.023-.034.023-.04.074-.043.117-.004.057.013.11.007.17-.002.03-.02.061-.01.09.008.033.042.048.065.07.038.035.045.11.045.169 0 .066-.024.153.032.198.034.027.08-.01.123 0 .047.008.062.065.064.11a.37.37 0 0 1-.068.187c-.02.019-.051.004-.075-.007a.33.33 0 0 1-.153-.131c-.014-.026-.014-.058-.03-.085-.023-.047-.065-.074-.108-.106-.05-.039-.062-.108-.07-.17-.006-.057.004-.113.008-.17a1.075 1.075 0 0 0-.02-.34c-.02-.085-.067-.17-.045-.255a.144.144 0 0 1 .076-.095c.206-.01.41-.045.606-.107l-.127-.125c-.032 0-.058.032-.09.032-.034 0-.08-.049-.093-.066a1.049 1.049 0 0 1-.138-.325.257.257 0 0 0-.113-.11.257.257 0 0 0-.113-.021c-.106.046-.204.138-.213.255-.002.03.015.055.011.084-.006.051-.045.085-.08.122a.292.292 0 0 0-.086.123c-.013.042.002.087.021.127.013.028.028.055.018.085-.026.07-.194.142-.243.142-.017 0-.032-.023-.038-.042a.407.407 0 0 1-.002-.196.435.435 0 0 0 .098-.17c.025-.084.012-.176.053-.254a5.53 5.53 0 0 1 .432-.595c.023-.023.08-.036.104-.021.115.074.183.165.293.223.06.03.134.074.187.032.053-.043.062-.327.096-.4.061-.125.233-.291.352-.425Zm2.117-1.769-.047.179h-.17l.222-.837h.193l.212.83h-.17l-.042-.172h-.198Zm-.447-.418c.002-.055-.014-.127-.06-.144-.046-.017-.095-.002-.116.03-.036.06-.036.14-.034.263 0 .074.002.178.017.227.036.113.132.12.178.049.024-.034.024-.1.022-.16h-.098v-.122h.253v.45h-.121v-.062a.494.494 0 0 1-.081.058.267.267 0 0 1-.19-.01c-.055-.022-.108-.097-.131-.192-.023-.1-.013-.23-.013-.34.002-.117.064-.246.149-.295a.334.334 0 0 1 .24-.009c.085.03.151.153.138.257h-.153Zm-2.848-.227a.208.208 0 0 1 .091.212h-.134c0-.085-.036-.126-.108-.127-.045-.003-.1.049-.1.087-.002.112.098.136.166.157a.27.27 0 0 1 .142.091c.056.08.062.166.017.276-.02.053-.102.117-.17.132a.302.302 0 0 1-.246-.05c-.062-.046-.09-.137-.077-.22h.15c0 .04.007.07.024.096.013.017.036.044.077.046a.11.11 0 0 0 .117-.12c-.009-.13-.226-.139-.3-.222a.255.255 0 0 1 .01-.331.274.274 0 0 1 .34-.027Zm4.293.553c.002.032.005.145.009.217.002.021.023.049.023.05h-.16c-.02 0-.023-.037-.025-.07-.004-.084.005-.286-.078-.286h-.103v.355h-.16V10.2h.288c.145 0 .217.083.217.196 0 .074-.002.161-.087.197.044.043.07.107.076.17Z" fill="#000"/><path fill-rule="evenodd" clip-rule="evenodd" d="M15.403 10.32h-.12v.223h.088c.144 0 .142-.223.032-.223Z" fill="#FFD124"/><path fill-rule="evenodd" clip-rule="evenodd" d="M11.812 11.032h-.16v-.699h-.182v-.14h.527v.14h-.185v.7Zm1.027 0v-.699h-.183v-.14h.53v.14h-.188v.7h-.16Zm.418-.838h.53v.142h-.188v.696h-.16v-.696h-.182v-.143Zm2.766.142v.699h-.16v-.699h-.182v-.142h.527v.142h-.185Zm-3.609.456v-.597h.155v.582c0 .348-.506.348-.506.01v-.592h.155v.599c0 .13.196.13.196-.002Z" fill="#000"/><path d="M12.772 11.419c.046-.04.112-.096.189-.144.068-.045-.009.057-.013.1-.013.114-.1.127-.196.106-.017-.005-.01-.037.02-.062Z" stroke="#000" stroke-width="2" stroke-miterlimit="2.613"/><path fill-rule="evenodd" clip-rule="evenodd" d="m16.77 14.096 4.062-.002.18-2.242-4.241.002v2.242Zm-3.425 6.984-4.189-.009c.864.775 2.862 2.226 4.177 2.814l.012-2.805Z" fill="#fff"/><path fill-rule="evenodd" clip-rule="evenodd" d="M10.315 12.238v.359c-.166-.124-.936-.213-1.41-.028-.114.044-.489.206-.659.34l-.478.378c-.047.038-.051.12-.051.184 0 .14-.164.247-.255.217a.52.52 0 0 0-.27-.02c-.1.022-.19-.103-.198-.176-.013-.089.057-.205.061-.244.005-.036-.019-.178.113-.265a.207.207 0 0 1 .202-.004c.017.01.038.013.057.008.022-.008.08-.06.094-.072.006-.085-.006-.219.002-.293.02-.145.028-.227.072-.368.039-.12.122-.297.183-.397.11-.18.33-.354.494-.34-.064.085-.085.13-.132.217-.087.16-.168.423-.206.601a1.103 1.103 0 0 0-.032.325c.125-.093.257-.17.344-.219.042-.21.114-.414.213-.605.106-.202.393-.42.58-.403a1.671 1.671 0 0 0-.349.626c-.019.068-.042.147-.031.19a.972.972 0 0 1 .284-.084c.047-.116.11-.257.164-.34.166-.254.428-.41.577-.403-.117.157-.218.3-.29.51a.569.569 0 0 0-.032.159c.092-.015.234-.015.292-.015.155-.14.14-.177.31-.308.107-.083.304-.195.351-.204v.251c-.081.072-.245.228-.277.309.07.026.211.069.277.114Z" fill="#000"/><path fill-rule="evenodd" clip-rule="evenodd" d="m14.797 10.703-.076-.336-.073.336h.15Z" fill="#FFD124"/><path fill-rule="evenodd" clip-rule="evenodd" d="m21.157 9.69-4.371.002v1.935l4.237.005.128-1.865.006-.077Zm.2-2.672.04-.63c-2.743-.847-5.28-1.1-7.656-1.1l-.002 1.72 7.619.01ZM10.72 16.207a3.634 3.634 0 0 1-.415-1.741l-4.034.004.126 1.737h4.323Zm2.61 4.58v-1.81l-6.036-.008c.392.626.895 1.2 1.482 1.772l.05.048 4.504-.003Z" fill="#000"/></svg>