<svg width="35" height="23" fill="none" xmlns="http://www.w3.org/2000/svg"><path fill-rule="evenodd" clip-rule="evenodd" d="M31.66 9.548C30.139 5.568 24.246 2.6 17.206 2.6c-8.194 0-14.835 4.02-14.835 8.978 0 3.45 3.219 6.447 7.937 7.949 2.06.657 4.406 1.027 6.897 1.027 8.192 0 14.833-4.019 14.833-8.976 0-.694-.128-1.382-.378-2.03Z" fill="#000"/><path d="M31.66 9.548C30.139 5.568 24.246 2.6 17.206 2.6c-8.194 0-14.835 4.02-14.835 8.978 0 3.45 3.22 6.447 7.937 7.949 2.06.657 4.406 1.027 6.897 1.027 8.192 0 14.833-4.019 14.833-8.976 0-.694-.128-1.382-.378-2.03Z" stroke="#FFD124" stroke-miterlimit="2.613"/><path d="M17.464 1.967c-8.234 0-14.91 4.01-14.91 8.961 0 4.953 6.676 8.966 14.91 8.966 8.236 0 14.913-4.013 14.913-8.966-.001-4.95-6.677-8.961-14.913-8.961Z" stroke="#FFD124" stroke-miterlimit="2.613"/><path d="M29.188 5.817c-2.65-2.132-6.914-3.513-11.725-3.513-8.037 0-14.554 3.861-14.554 8.624 0 1.347.519 2.618 1.444 3.753 2.357 2.886 7.341 4.873 13.11 4.873 8.04 0 14.555-3.86 14.555-8.625 0-1.913-1.051-3.683-2.83-5.112ZM17.464 1.568c-8.442 0-15.287 4.192-15.287 9.359 0 5.17 6.846 9.36 15.287 9.36 8.444 0 15.288-4.19 15.288-9.36 0-5.167-6.845-9.359-15.288-9.359Z" stroke="#FFD124" stroke-width=".5" stroke-miterlimit="2.613"/><path fill-rule="evenodd" clip-rule="evenodd" d="m11.87 4.21 1.793 3.565-2.122.766.33-4.33Z" fill="#FFD124"/><path fill-rule="evenodd" clip-rule="evenodd" d="m11.87 4.21-1.698 3.584 1.37.747.328-4.33Z" fill="#FFD124"/><path fill-rule="evenodd" clip-rule="evenodd" d="M10.172 7.793 5 8.812l6.541-.272-1.37-.747Zm8.628.981-5.14.891-2.119-1.124 7.26.233Zm-6.93 4.433 1.79-3.542-2.119-1.124.33 4.666Zm-.329-4.666-1.37 1.095L5 8.813l6.541-.272Zm7.279.231-5.157-.997-2.104.763 7.261.234Z" fill="#FFD124"/><path fill-rule="evenodd" clip-rule="evenodd" d="m11.87 13.207-1.698-3.57 1.37-1.096.328 4.666Zm3.125.76.905 1.8-1.077.389.172-2.19Zm-.005-.012-.863 1.82.696.38.166-2.2Z" fill="#FFD124"/><path fill-rule="evenodd" clip-rule="evenodd" d="m14.127 15.775-2.626.52 3.322-.14-.696-.38Zm4.381.497-2.608.455-1.077-.573 3.685.118Z" fill="#FFD124"/><path fill-rule="evenodd" clip-rule="evenodd" d="m14.99 18.526.91-1.8-1.077-.572.166 2.372Zm-.167-2.372-.696.557-2.626-.417 3.322-.14Zm3.697.119-2.62-.505-1.07.385 3.69.12Z" fill="#FFD124"/><path fill-rule="evenodd" clip-rule="evenodd" d="m14.99 18.526-.863-1.815.696-.557.166 2.372Zm4.476-7.02-2.628.517 3.321-.138-.693-.38Zm4.378.494-2.608.454-1.077-.57 3.685.115Z" fill="#FFD124"/><path fill-rule="evenodd" clip-rule="evenodd" d="m20.326 14.254.91-1.8-1.077-.57.167 2.37Z" fill="#FFD124"/><path fill-rule="evenodd" clip-rule="evenodd" d="m20.16 11.885-.694.554-2.628-.416 3.321-.138Zm3.698.115-2.622-.506-1.067.386 3.689.12Z" fill="#FFD124"/><path fill-rule="evenodd" clip-rule="evenodd" d="m20.326 14.254-.86-1.815.693-.554.167 2.369Z" fill="#FFD124"/><path fill-rule="evenodd" clip-rule="evenodd" d="m20.326 9.684.91 1.81-1.077.392.167-2.202Z" fill="#FFD124"/><path fill-rule="evenodd" clip-rule="evenodd" d="m20.326 9.684-.86 1.822.693.38.167-2.202Zm7.434.009.905 1.801-1.077.39.172-2.19Z" fill="#FFD124"/><path fill-rule="evenodd" clip-rule="evenodd" d="m27.756 9.684-.864 1.822.696.38.168-2.202Z" fill="#FFD124"/><path fill-rule="evenodd" clip-rule="evenodd" d="m26.892 11.506-2.626.517 3.322-.138-.696-.38Zm4.382.494-2.611.454-1.075-.57 3.686.115Z" fill="#FFD124"/><path fill-rule="evenodd" clip-rule="evenodd" d="m27.756 14.254.907-1.8-1.075-.57.168 2.37Zm-.168-2.369-.696.554-2.626-.416 3.322-.138Zm3.698.115-2.62-.506-1.067.386 3.687.12Z" fill="#FFD124"/><path fill-rule="evenodd" clip-rule="evenodd" d="m27.756 14.254-.864-1.815.696-.554.168 2.369Zm-2.432-9.361.905 1.801-1.077.39.172-2.191Zm-.007-.01-.86 1.822.694.38.166-2.202Z" fill="#FFD124"/><path fill-rule="evenodd" clip-rule="evenodd" d="m24.456 6.705-2.627.516 3.322-.137-.695-.379Zm4.381.498-2.608.454-1.077-.571 3.685.117Z" fill="#FFD124"/><path fill-rule="evenodd" clip-rule="evenodd" d="m25.318 9.457.911-1.8-1.077-.571.166 2.371Zm-.167-2.371-.695.555-2.627-.418 3.322-.137Zm3.698.116-2.62-.507-1.068.386 3.688.121Zm-3.532 2.255-.86-1.816.694-.555.166 2.371Zm-2.602 4.093.906 1.8-1.078.39.172-2.19Z" fill="#FFD124"/><path fill-rule="evenodd" clip-rule="evenodd" d="m22.71 13.541-.863 1.822.696.377.168-2.199Zm-.863 1.822-2.625.518 3.321-.14-.696-.378Z" fill="#FFD124"/><path fill-rule="evenodd" clip-rule="evenodd" d="m26.229 15.86-2.608.455-1.078-.575 3.686.12Zm-3.519 2.252.91-1.797-1.077-.575.168 2.372Zm-.167-2.372-.696.558-2.625-.418 3.321-.14Z" fill="#FFD124"/><path fill-rule="evenodd" clip-rule="evenodd" d="m26.24 15.859-2.62-.507-1.067.39 3.688.117Zm-3.53 2.253-.863-1.814.696-.558.168 2.372Z" fill="#FFD124"/></svg>