<svg width="25" height="25" fill="none" xmlns="http://www.w3.org/2000/svg"><g clip-path="url(#a)" fill="#000"><path d="m12.511 25.029 3.492-19.635c3.327 0 4.377.365 4.529 1.855 0 0 2.232-.833 3.358-2.523-4.394-2.036-8.808-2.128-8.808-2.128l-2.576 3.138h.005L9.935 2.597s-4.414.092-8.807 2.127c1.125 1.69 3.358 2.523 3.358 2.523.152-1.49 1.2-1.854 4.506-1.857l3.52 19.638Z"/><path d="M12.51 1.691c3.551-.027 7.616.55 11.778 2.363.556-1 .699-1.443.699-1.443C20.437.81 16.177.195 12.509.18 8.841.195 4.581.81.032 2.61c0 0 .203.546.699 1.444 4.16-1.813 8.227-2.39 11.778-2.363Z"/></g><defs><clipPath id="a"><path fill="#fff" d="M0 0h25v25H0z"/></clipPath></defs></svg>