<svg width="33" height="19" fill="none" xmlns="http://www.w3.org/2000/svg"><path d="M.995 9.5c0 5.236 6.808 9.497 15.175 9.497s15.175-4.26 15.175-9.497c0-5.238-6.808-9.498-15.175-9.498S.995 4.262.995 9.5Zm.466 0C1.46 4.52 8.059.469 16.17.469c8.11 0 14.71 4.051 14.71 9.03 0 4.981-6.6 9.033-14.71 9.033-8.11 0-14.71-4.052-14.71-9.032Z" fill="#000"/><path d="M14.736 1.73c-3.552.216-6.132 1.158-6.571 2.398a1.165 1.165 0 0 0-.069.39c0 .209.06.418.177.618.493.84 2.023 1.533 4.2 1.905l.23.037.04-.23c.357-2.18 1.141-3.895 2.153-4.705l.573-.46-.733.046ZM8.675 4.9a.689.689 0 0 1-.071-.617c.335-.948 2.615-1.775 5.528-2.042-.831.94-1.47 2.455-1.803 4.295-1.893-.35-3.254-.953-3.654-1.636Zm5.411 2.086-.045.254.257.02a25.225 25.225 0 0 0 3.743 0l.257-.02-.046-.254c-.35-1.967-1.13-3.143-2.083-3.143-.954 0-1.733 1.176-2.083 3.143ZM16.17 4.31c.652 0 1.254.976 1.57 2.5-.515.034-1.04.055-1.57.055s-1.055-.021-1.57-.055c.316-1.524.919-2.5 1.57-2.5Zm1.274-2.167c1.01.81 1.796 2.525 2.153 4.705l.039.23.23-.037c2.178-.372 3.709-1.065 4.2-1.905a1.17 1.17 0 0 0 .11-1.007c-.44-1.24-3.02-2.182-6.571-2.4l-.732-.045.57.46Zm.765.099c2.912.267 5.192 1.096 5.527 2.042a.67.67 0 0 1 .042.235.765.765 0 0 1-.112.382c-.402.683-1.763 1.286-3.655 1.636-.333-1.84-.971-3.355-1.802-4.295Zm-12.29 2.8C4.32 6.38 3.477 7.97 3.477 9.638c0 3.927 4.787 7.246 11.134 7.72l.709.052-.54-.461c-1.39-1.19-2.254-4.013-2.254-7.369l.014-.793-.194-.04C9.008 8.15 6.633 6.746 6.295 5.174l-.081-.378-.297.247ZM3.943 9.638c0-1.431.698-2.805 2.008-3.998.61 1.589 2.892 2.912 6.117 3.528l-.007.412c0 3.111.738 5.798 1.955 7.248-5.783-.617-10.073-3.639-10.073-7.19Zm9.953-.42-.002.085c0 3.119.978 5.472 2.274 5.472s2.274-2.353 2.274-5.472l-.003-.337-.25.022a23.55 23.55 0 0 1-4.04 0l-.25-.023-.003.253Zm4.078.25c-.035 2.902-.95 4.841-1.806 4.841-.857 0-1.77-1.939-1.805-4.84.592.043 1.197.07 1.805.07.61 0 1.213-.027 1.806-.07Zm8.068-4.295c-.337 1.572-2.713 2.976-6.05 3.575l-.196.036.015.796c0 3.355-.864 6.18-2.254 7.369l-.54.461.708-.053c6.348-.473 11.135-3.792 11.135-7.72 0-1.668-.844-3.257-2.44-4.595l-.296-.247-.082.378Zm.343.467c1.311 1.193 2.01 2.567 2.01 3.998 0 3.551-4.29 6.573-10.074 7.19 1.217-1.45 1.955-4.136 1.955-7.248l-.007-.412c3.224-.616 5.505-1.94 6.116-3.528Z" fill="#000"/><path d="M26.208 3.973a1.776 1.776 0 0 1 .012 1.205c1.515 1.25 2.408 2.79 2.408 4.46 0 4.166-5.578 7.545-12.459 7.545-6.88 0-12.458-3.379-12.458-7.545 0-1.668.894-3.21 2.406-4.46a1.784 1.784 0 0 1-.043-1.025c.018-.066.042-.13.072-.192C4.08 5.434 2.827 7.363 2.827 9.477c0 4.615 5.973 8.356 13.342 8.356 7.368 0 13.342-3.74 13.342-8.356 0-2.11-1.247-4.035-3.303-5.504Z" fill="#000"/><path d="M18.023 7.027a24.802 24.802 0 0 1-3.707 0h-.002l-.384.28a25.799 25.799 0 0 0 4.48 0l-.387-.28ZM24.84 4.1c-.469-1.549-4.33-2.686-8.67-2.686-4.338 0-8.199 1.137-8.667 2.686-.407 1.343 1.813 2.586 5.314 3.08l-.305-.371c-2.832-.482-4.515-1.51-4.127-2.603.47-1.327 3.89-2.288 7.785-2.288 3.896 0 7.316.96 7.786 2.288.388 1.093-1.295 2.12-4.128 2.603l-.303.37c3.5-.493 5.72-1.736 5.315-3.08Z" fill="#000"/><path d="M14.321 7.028c.325-1.807 1.03-2.936 1.848-2.936.82 0 1.524 1.13 1.85 2.936h.006l.38.277c-.32-2.387-1.2-3.912-2.235-3.912-1.036 0-1.915 1.525-2.235 3.912l.38-.277h.006Zm4.199 1.628-.31.563.002.126c0 2.996-.916 5.267-2.043 5.267-1.127 0-2.041-2.272-2.041-5.267 0-.047 0-.094.002-.14l-.312-.549a17.44 17.44 0 0 0-.013.686c0 3.396 1.058 5.969 2.365 5.969 1.306 0 2.366-2.573 2.366-5.97 0-.228-.006-.456-.015-.685Zm-5.7-1.476c.448-3.317 1.778-5.766 3.35-5.766-1.685 0-3.121 2.17-3.654 5.401l.3.366h.004Zm6.7 0h.003l.3-.365c-.532-3.231-1.97-5.4-3.653-5.4 1.572 0 2.903 2.448 3.35 5.766Z" fill="#000"/><path d="m20.032 8.974-.382-.456h-.003c.021.362.034.73.034 1.105 0 4.534-1.573 8.209-3.511 8.209 2.173 0 3.874-3.409 3.874-8.21 0-.219-.004-.434-.012-.648Z" fill="#000"/><path d="M12.66 9.623c0-.374.012-.743.033-1.105h-.002l-.383.454a17.66 17.66 0 0 0-.013.65c0 4.801 1.702 8.21 3.875 8.21-1.938 0-3.51-3.676-3.51-8.21Zm13.561-4.444a7.712 7.712 0 0 1 1.45 1.552 5.342 5.342 0 0 0-1.019-2.424 10.391 10.391 0 0 0-.443-.334 1.773 1.773 0 0 1 .012 1.205Zm-20.103 0a1.784 1.784 0 0 1-.043-1.026c.018-.066.042-.13.072-.192-.155.112-.308.227-.458.346a5.364 5.364 0 0 0-1.02 2.424A7.701 7.701 0 0 1 6.12 5.18Z" fill="#000"/><path d="M1.228 9.499C1.228 4.383 7.917.234 16.17.234c8.251 0 14.94 4.149 14.94 9.265 0 5.117-6.689 9.264-14.94 9.264-8.253 0-14.942-4.147-14.942-9.264Zm14.941 8.333c7.369 0 13.343-3.741 13.343-8.356 0-4.616-5.974-8.358-13.343-8.358S2.827 4.861 2.827 9.476s5.973 8.356 13.342 8.356Z" fill="#000"/><path d="M12.66 9.623c0-4.486 1.572-8.209 3.51-8.209 1.938 0 3.51 3.723 3.51 8.21 0 4.533-1.572 8.208-3.51 8.208-1.939 0-3.51-3.675-3.51-8.209Zm3.51 5.687c1.306 0 2.366-2.572 2.366-5.968 0-3.523-1.06-5.95-2.366-5.95-1.307 0-2.365 2.427-2.365 5.95 0 3.396 1.058 5.968 2.365 5.968Z" fill="#000"/><path d="M6.074 4.153C6.46 2.628 11.117.408 16.17.408s9.55 1.586 10.096 3.745c.61 2.42-3.878 4.61-10.096 4.61S5.463 6.573 6.074 4.153ZM16.17 1.415c-4.338 0-8.2 1.137-8.667 2.685-.525 1.735 3.328 3.304 8.667 3.304 5.34 0 9.194-1.57 8.67-3.304-.47-1.548-4.33-2.685-8.67-2.685Z" fill="#000"/><path d="m13.814 8.651.002.002.321.566a23.858 23.858 0 0 0 4.075-.002l.312-.564.002-.002a24.88 24.88 0 0 1-4.712 0Zm12.504-3.975c-.08 1.73-2.74 3.263-6.67 3.84l.002.002.383.458c3.846-.691 6.376-2.39 6.285-4.3Zm-20.296 0c-.091 1.912 2.439 3.609 6.284 4.3l.384-.458v-.001c-3.93-.578-6.587-2.11-6.668-3.841Z" fill="#000"/></svg>