<svg width="23" height="23" fill="none" xmlns="http://www.w3.org/2000/svg"><g clip-path="url(#a)"><path d="M22.993 11.5c0 6.347-5.145 11.492-11.493 11.492C5.152 22.992.007 17.847.007 11.5.007 5.152 5.152.006 11.5.006c6.347 0 11.493 5.146 11.493 11.493Z" fill="#FFD124" stroke="#000" stroke-width=".1" stroke-miterlimit="18.2"/><path d="M11.5 22.525c6.086 0 11.02-4.936 11.02-11.024C22.52 5.412 17.586.477 11.5.477 5.414.477.48 5.412.48 11.5S5.414 22.524 11.5 22.524Z" fill="url(#b)" stroke="#000"/><path d="M20.106 11.448c0 4.87-3.906 8.816-8.725 8.816-4.82 0-8.726-3.947-8.726-8.816 0-4.868 3.906-8.815 8.726-8.815s8.726 3.947 8.725 8.816Z" fill="#FFD124"/><path d="M11.496 19.37c4.325 0 7.831-3.52 7.831-7.862 0-4.342-3.506-7.862-7.83-7.862-4.326 0-7.832 3.52-7.832 7.862 0 4.342 3.506 7.862 7.831 7.862Z" fill="#000"/><path opacity=".65" d="M11.883 2.316c-5.226 0-9.468 4.243-9.468 9.468 0 5.226 4.242 9.467 9.468 9.467s9.466-4.24 9.466-9.467c0-5.225-4.24-9.468-9.466-9.468Zm-.075 1.312a8.211 8.211 0 0 1 2.388.334l-1.202 2.653-1.193 2.6-1.173-2.613L9.42 3.998a8.214 8.214 0 0 1 2.387-.37Zm4.124 1.078A8.054 8.054 0 0 1 18.42 6.92c-1.209 2.875-2.521 5.956-3.746 8.84l-1.618-3.704h-2.535l-1.66 3.641c-1.274-2.86-2.505-5.712-3.62-8.64.785-1.11 1.582-1.71 2.38-2.24l2.867 6.563h2.564c.962-2.21 1.918-4.47 2.88-6.674Zm3.664 4.441a8.77 8.77 0 0 1 .412 2.15 8.021 8.021 0 0 1-.108 1.934 8.177 8.177 0 0 1-1.484 3.405 8.389 8.389 0 0 1-3.28 2.606c.343-.611.657-1.233.94-1.85.398-.87.798-1.74 1.166-2.619.089-.21.187-.418.281-.626.335-.741.653-1.505.96-2.256.332-.81.817-1.914 1.113-2.744ZM4.102 9.35a60 60 0 0 0 .934 2.487c.308.751.63 1.505.965 2.246.772 1.709 1.58 3.397 2.446 5.083-1.476-.71-2.463-1.639-3.2-2.667a8.098 8.098 0 0 1-1.51-4.783c.014-1.11.24-2 .365-2.366Zm7.669 4.947 2.454 5.284c-.646.217-1.336.308-2.038.326-.112.003-.223.004-.336.003-.939-.005-1.739-.13-2.471-.381l2.39-5.231Z" fill="#000"/><path opacity=".5" d="M12.16 2.234c-5.226 0-9.468 4.243-9.468 9.468 0 5.226 4.242 9.467 9.468 9.467s9.467-4.24 9.467-9.467c0-5.225-4.24-9.468-9.467-9.468Zm-.075 1.312a8.213 8.213 0 0 1 2.389.334l-1.202 2.653-1.194 2.6-1.173-2.613-1.206-2.604a8.215 8.215 0 0 1 2.386-.37Zm4.125 1.078a8.054 8.054 0 0 1 2.487 2.214c-1.208 2.875-2.521 5.955-3.745 8.84l-1.618-3.704h-2.536l-1.66 3.641c-1.274-2.86-2.505-5.712-3.62-8.64.786-1.11 1.582-1.71 2.381-2.24l2.866 6.563h2.564c.962-2.21 1.918-4.47 2.88-6.674Zm3.663 4.441a8.72 8.72 0 0 1 .412 2.15c.04.532.018 1.244-.108 1.934a8.176 8.176 0 0 1-1.484 3.405 8.39 8.39 0 0 1-3.28 2.606c.344-.612.658-1.233.94-1.85.399-.87.798-1.74 1.167-2.619.088-.21.186-.418.28-.626.335-.741.653-1.505.96-2.256.332-.81.817-1.914 1.113-2.744ZM4.38 9.267c.296.83.602 1.678.934 2.487.307.751.63 1.505.964 2.246a112.35 112.35 0 0 0 2.446 5.083c-1.476-.71-2.462-1.638-3.2-2.667a8.099 8.099 0 0 1-1.509-4.783c.013-1.11.24-2 .365-2.366Zm7.668 4.947 2.454 5.284c-.646.216-1.335.308-2.038.326-.112.003-.223.004-.335.003-.94-.005-1.74-.13-2.472-.381l2.391-5.232Z" fill="#000"/><path d="M11.502 2.041c-5.226 0-9.468 4.242-9.468 9.468s4.242 9.467 9.468 9.467 9.467-4.241 9.467-9.467c0-5.226-4.241-9.468-9.467-9.468Zm-.075 1.311a8.213 8.213 0 0 1 2.389.334L12.613 6.34l-1.193 2.6-1.173-2.613L9.04 3.722a8.216 8.216 0 0 1 2.387-.37Zm4.125 1.079a8.054 8.054 0 0 1 2.487 2.214c-1.208 2.875-2.521 5.955-3.746 8.84l-1.618-3.704H10.14l-1.66 3.64c-1.274-2.86-2.505-5.711-3.62-8.64.785-1.11 1.582-1.71 2.381-2.24l2.866 6.563h2.564c.962-2.209 1.918-4.47 2.88-6.673Zm3.663 4.44c.122.379.333 1.073.412 2.152a8 8 0 0 1-.108 1.933 8.176 8.176 0 0 1-1.484 3.404 8.388 8.388 0 0 1-3.28 2.606c.344-.61.658-1.232.94-1.85.399-.87.798-1.739 1.166-2.618.089-.211.187-.418.281-.627.335-.74.653-1.504.96-2.255.332-.81.817-1.915 1.113-2.744Zm-15.494.202c.297.83.603 1.678.935 2.488.307.75.63 1.505.964 2.246.772 1.708 1.58 3.397 2.446 5.083-1.476-.71-2.462-1.639-3.2-2.668a8.099 8.099 0 0 1-1.509-4.782c.013-1.11.24-2 .364-2.367Zm7.669 4.948 2.454 5.283c-.646.217-1.335.309-2.038.327-.112.003-.223.004-.335.003-.94-.005-1.74-.13-2.472-.381l2.39-5.232Z" fill="#FFD124" stroke="#000" stroke-width=".4" stroke-miterlimit="18.2"/></g><defs><linearGradient id="b" x1="8.347" y1="7.175" x2="21.138" y2="24.707" gradientUnits="userSpaceOnUse"><stop/><stop offset="1" stop-color="#042A54"/></linearGradient><clipPath id="a"><path fill="#fff" d="M0 0h23v23H0z"/></clipPath></defs></svg>