<svg width="26" height="25" fill="none" xmlns="http://www.w3.org/2000/svg"><g clip-path="url(#a)"><path d="M12.791 4.39c2.258 0 4.264.92 5.727 2.383 1.505 1.463 2.383 3.512 2.383 5.77 0 2.214-.878 4.263-2.383 5.726a8.052 8.052 0 0 1-5.727 2.382c-2.257 0-4.264-.92-5.769-2.383a8.124 8.124 0 0 1 0-11.495c1.505-1.463 3.512-2.382 5.77-2.382Zm0 .126a7.995 7.995 0 0 0-5.643 2.341c-1.464 1.463-2.383 3.47-2.383 5.685a7.86 7.86 0 0 0 2.383 5.644c1.421 1.463 3.427 2.34 5.643 2.34 2.216 0 4.222-.878 5.644-2.34 1.463-1.422 2.34-3.428 2.34-5.644a7.991 7.991 0 0 0-7.984-8.026Z" fill="#000"/><path d="M12.791.084c2.843 0 5.477.96 7.567 2.55l1.38-1.38 2.424 2.425-1.38 1.421a12.355 12.355 0 0 1 2.425 7.4c0 6.855-5.56 12.457-12.416 12.457-6.855 0-12.415-5.602-12.415-12.458S5.936.084 12.791.084Zm0 2.926c-5.225 0-9.489 4.264-9.489 9.49 0 5.267 4.264 9.489 9.49 9.489 5.225 0 9.489-4.222 9.489-9.49 0-5.225-4.264-9.489-9.49-9.489Z" fill="#000"/><path d="M12.792 2.969a9.509 9.509 0 0 1 6.772 2.8 9.535 9.535 0 0 1 2.8 6.773c0 2.633-1.086 5.016-2.8 6.772-1.756 1.713-4.139 2.8-6.772 2.8a9.612 9.612 0 0 1-6.772-2.8c-1.714-1.756-2.801-4.14-2.801-6.772a9.534 9.534 0 0 1 2.8-6.772c1.714-1.756 4.139-2.801 6.773-2.801Zm0 .125a9.45 9.45 0 0 0-6.689 2.76 9.376 9.376 0 0 0-2.759 6.688 9.45 9.45 0 0 0 2.76 6.688c1.712 1.672 4.096 2.759 6.688 2.759 2.591 0 4.974-1.087 6.689-2.759a9.451 9.451 0 0 0 2.759-6.688 9.381 9.381 0 0 0-2.76-6.69 9.454 9.454 0 0 0-6.688-2.758Z" fill="#000"/><path d="M12.792 0c2.843 0 5.518.961 7.608 2.592l-.042.042a12.497 12.497 0 0 0-7.566-2.55C5.936.084.377 5.643.377 12.499c0 6.856 5.56 12.457 12.415 12.457 6.856 0 12.415-5.601 12.415-12.457 0-2.759-.877-5.31-2.424-7.4l.042-.04a12.423 12.423 0 0 1 2.466 7.44 12.51 12.51 0 0 1-3.679 8.862A12.375 12.375 0 0 1 12.792 25a12.446 12.446 0 0 1-8.82-3.638C1.714 19.062.293 15.97.293 12.5c0-3.428 1.421-6.563 3.679-8.82C6.229 1.42 9.322 0 12.792 0Z" fill="#000"/><path d="M12.792 3.053c5.225 0 9.49 4.222 9.49 9.49 0 5.225-4.265 9.489-9.49 9.489-5.225 0-9.49-4.265-9.49-9.49 0-5.267 4.265-9.49 9.49-9.49Zm0 1.337c-4.473 0-8.11 3.637-8.11 8.152 0 4.472 3.637 8.11 8.11 8.11 4.473 0 8.11-3.638 8.11-8.11 0-4.515-3.637-8.152-8.11-8.152Z" fill="#000"/><path opacity=".67" d="M1.448 15.513a.06.06 0 0 0 .01.033c.005.01.013.014.026.014a.06.06 0 0 0 .028-.007.139.139 0 0 0 .029-.021v-.092c-.035.005-.06.013-.072.026a.063.063 0 0 0-.02.047Zm1.77-.265h.058v.05h-.058v-.05Zm0 .059h.058v.05h-.058v-.05Zm-1.182.206c0 .012.004.022.01.033.005.01.013.014.026.014.01 0 .018-.003.027-.007a.136.136 0 0 0 .03-.021v-.092c-.035.005-.06.013-.073.026a.063.063 0 0 0-.02.047Zm1.436-.179h.16v.076h-.16v-.076Z" fill="#000"/><path opacity=".67" d="M5.092 15.072H.646c.11.522.262 1.029.435 1.524h4.697a8.103 8.103 0 0 1-.686-1.524Zm-1.896.097.035.022-.012.014v.035h.055l.012-.02.024.028-.013.014v.037h.007l.017-.022.024.032h-.049l.001.066-.021.013v-.02h-.058v.058h.044l.015-.024.023.034h-.082v.053h.072l.017-.028.026.036h-.115c0 .022 0 .046.003.071l-.025.012.003-.083h-.062a.041.041 0 0 0-.023.006l-.014-.016h.1v-.052h-.045c-.009 0-.014.001-.019.005l-.012-.015H3.2v-.057h-.045a.027.027 0 0 0-.019.006l-.012-.016H3.2v-.05h-.066c-.01 0-.014.001-.018.005l-.013-.016H3.2v-.048h-.042c-.009 0-.015.002-.019.006l-.012-.016h.072a.85.85 0 0 0-.002-.07Zm-1.828.403h-.12v-.013h.035c.006 0 .01 0 .012-.004a.018.018 0 0 0 .003-.011v-.28a.02.02 0 0 0-.003-.012.015.015 0 0 0-.012-.004H1.25v-.012h.017a.085.085 0 0 0 .05-.016h.003v.323c0 .005.002.01.004.012a.016.016 0 0 0 .01.004h.036v.012h-.001Zm.218-.01a.023.023 0 0 1-.02.01.024.024 0 0 1-.017-.005.045.045 0 0 1-.009-.02.18.18 0 0 1-.028.021.068.068 0 0 1-.032.007.055.055 0 0 1-.058-.054.08.08 0 0 1 .024-.059c.016-.014.047-.025.094-.032v-.024a.07.07 0 0 0-.007-.032c-.005-.01-.015-.013-.032-.013s-.03.003-.036.011c-.007.008-.01.014-.007.023a.024.024 0 0 1 0 .015.014.014 0 0 1-.005.006.013.013 0 0 1-.013.001.013.013 0 0 1-.004-.003.025.025 0 0 1-.005-.014c0-.013.007-.024.02-.034a.077.077 0 0 1 .048-.016c.02 0 .036.005.046.014.011.01.015.024.015.042v.13c0 .01 0 .016.003.018.001.002.004.003.008.003.006 0 .01-.003.011-.009a.087.087 0 0 0 .003-.024h.008c0 .017-.002.03-.007.037Zm.199.01h-.064v-.013h.008c.005 0 .008 0 .01-.004.003-.003.003-.005.003-.01v-.133a.07.07 0 0 0-.007-.036.025.025 0 0 0-.01-.01.026.026 0 0 0-.013-.002.05.05 0 0 0-.029.012.107.107 0 0 0-.026.034v.135c0 .005 0 .01.004.011a.014.014 0 0 0 .01.005h.007v.012h-.064v-.012h.007c.006 0 .01-.002.012-.005.002-.002.003-.006.003-.011v-.17a.02.02 0 0 0-.002-.008c-.001-.002-.003-.003-.006-.003h-.014v-.012h.01a.06.06 0 0 0 .016-.002.03.03 0 0 0 .013-.008h.003v.045a.147.147 0 0 1 .027-.03.046.046 0 0 1 .03-.009c.017 0 .03.006.038.017a.098.098 0 0 1 .012.053v.126c0 .005.001.009.004.011a.016.016 0 0 0 .01.004h.008v.013Zm.163-.015a.041.041 0 0 1-.035.017.038.038 0 0 1-.034-.018.103.103 0 0 1-.013-.055v-.137h-.044v-.011h.012a.036.036 0 0 0 .03-.015c.009-.01.013-.025.015-.046l.001-.015h.01v.076h.06v.012h-.06v.145c0 .019.002.031.008.037.005.007.012.01.023.01.005 0 .01 0 .014-.003a.028.028 0 0 0 .01-.01.085.085 0 0 0 .012-.035l.009.004a.1.1 0 0 1-.018.043Zm.226.004c-.005.008-.012.012-.02.012a.022.022 0 0 1-.016-.006.04.04 0 0 1-.01-.02.18.18 0 0 1-.028.021.066.066 0 0 1-.032.007c-.007 0-.014 0-.021-.003a.055.055 0 0 1-.037-.05.082.082 0 0 1 .024-.06c.016-.014.047-.025.094-.032v-.024a.07.07 0 0 0-.007-.032c-.004-.01-.015-.013-.031-.013-.018 0-.03.003-.037.011-.007.008-.01.014-.007.023a.024.024 0 0 1 0 .015.013.013 0 0 1-.012.008h-.006a.013.013 0 0 1-.004-.004.025.025 0 0 1-.004-.014c0-.013.006-.024.02-.034a.075.075 0 0 1 .048-.016c.02 0 .036.005.046.014.01.01.014.024.014.042v.13c0 .01.001.016.003.018.002.002.004.003.01.003.004 0 .008-.003.01-.009a.087.087 0 0 0 .002-.024h.008a.067.067 0 0 1-.007.037Zm.19-.168c-.002.004-.006.006-.011.006-.006 0-.01-.002-.012-.006a.021.021 0 0 1-.003-.015v-.01c-.001-.002-.004-.004-.01-.004-.008 0-.018.006-.03.02a.18.18 0 0 0-.031.055v.106c0 .005.001.01.003.011a.014.014 0 0 0 .01.005h.035v.012h-.113v-.012h.031c.005 0 .009-.002.011-.005.003-.002.003-.006.003-.011v-.163c0-.004 0-.008-.003-.012a.012.012 0 0 0-.01-.005h-.032v-.012h.012a.116.116 0 0 0 .049-.01h.005v.07a.193.193 0 0 1 .033-.047.05.05 0 0 1 .036-.017c.01 0 .018.003.023.009a.026.026 0 0 1 .01.02c-.001.007-.003.012-.006.015Zm.433.104v.079a.06.06 0 0 1-.034.057c0-.02-.017-.034-.047-.043v-.008l.044.005c.01 0 .013-.008.013-.025v-.065H2.65a.072.072 0 0 0-.03.006l-.013-.015h.167l-.001-.057.02.012.04-.045h-.126l-.013.006-.013-.016h.152l.017-.02.027.04c-.014-.003-.04.01-.08.04l.016.01-.015.013v.016H2.9l.022-.027.03.037h-.155Zm.156-.117a.035.035 0 0 0-.033.024.24.24 0 0 1-.123-.149h-.009l.001.11-.026.008.002-.109a.339.339 0 0 1-.16.16l-.002-.008a.377.377 0 0 0 .14-.161H2.65a.072.072 0 0 0-.03.005l-.013-.015h.16l-.003-.07.04.02-.015.014v.036h.113l.021-.028.028.038h-.145a.188.188 0 0 0 .148.117v.008Zm.396.211c-.02.009-.03.017-.028.03a1.29 1.29 0 0 1-.097 0 .24.24 0 0 1-.092-.02.18.18 0 0 1-.063-.045.234.234 0 0 1-.072.076l-.005-.006a.266.266 0 0 0 .066-.088.378.378 0 0 1-.037-.1l.006-.003c.01.028.022.056.037.082a.633.633 0 0 0 .022-.133H3.04l-.012.021-.021-.027.018-.01c.018-.038.036-.076.052-.115h-.05l-.017.006-.013-.016h.082l.014-.021.021.031-.017.01c-.016.036-.036.073-.055.112h.041l.013-.018.023.028-.014.013a.678.678 0 0 1-.027.136c.015.018.033.03.055.038a.322.322 0 0 0 .082.016c.03.003.075 0 .134-.005l-.001.008Zm.377-.004c-.018.004-.03.014-.032.032a.403.403 0 0 1-.076-.039.229.229 0 0 1-.058-.06.285.285 0 0 1-.039-.098h-.049v.157l.083-.046.003.006a.327.327 0 0 0-.095.083l-.018-.033a.048.048 0 0 0 .008-.024v-.283l-.002-.054.021.019h.078a.153.153 0 0 0-.026-.068l.003-.006c.025.014.04.027.043.039.004.011 0 .023-.01.035h.069l.012-.02.025.028-.014.012v.162l-.02.01v-.017H3.53c.01.03.023.06.042.085a.338.338 0 0 0 .095-.078l.022.039h-.018c-.03.013-.06.03-.093.046.019.023.044.04.071.05a.23.23 0 0 0 .078.015l-.001.008Z" fill="#000"/><path opacity=".67" d="M3.472 15.256h.16v.068h-.16v-.068Z" fill="#000"/><path opacity=".86" d="M20.498 15.072h4.445a12.108 12.108 0 0 1-.435 1.524H19.81c.278-.48.51-.988.687-1.524Z" fill="#000"/><path d="M25.166 9.365c.292 1.004.418 2.049.418 3.135 0 1.13-.168 2.215-.418 3.261H.46v-.042h24.664c.292-1.045.418-2.132.418-3.26 0-1.087-.126-2.132-.377-3.094Z" fill="#000"/><path d="M.418 9.322h24.747c.251 1.004.376 2.048.376 3.135 0 1.128-.125 2.215-.418 3.26H.46a12.04 12.04 0 0 1-.46-3.26c0-1.086.167-2.132.418-3.135ZM22.239.418l2.759 2.76-2.048 2.048.125.167-1.463 1.17-.46.168 3.01-3.052-2.425-2.424-3.01 3.01.126-.419L22.239.418Z" fill="#000"/><path d="M19.48.127c2.425 1.296 4.39 3.302 5.727 5.685V.127H19.48Z" fill="#000"/><path d="M19.48.127c2.425 1.296 4.39 3.302 5.727 5.685" stroke="#000" stroke-linecap="round"/><path d="M19.48.127a14.307 14.307 0 0 1 5.686 5.685" stroke="#000" stroke-linecap="round"/><path d="M19.439.127c2.424 1.296 4.389 3.302 5.727 5.727" stroke="#000" stroke-linecap="round"/><path d="M19.439.127c2.382 1.338 4.389 3.302 5.685 5.727" stroke="#FFD124" stroke-width=".1" stroke-linecap="round"/><path d="M25.207 0c.042 0 .085.042.085.125h-5.896c.001-.083.043-.125.085-.125h5.726Z" fill="#000"/><path d="M25.29 5.81c0 .085-.041.127-.084.127l-.041-.085V0h.041c.042 0 .084.042.084.125v5.686Z" fill="#000"/><path d="M21.737 14.064c-1.116 0-2.023-.683-2.023-1.522 0-.84.907-1.522 2.023-1.522 1.14 0 2.066.682 2.066 1.522s-.927 1.522-2.066 1.522Zm0-2.592c-.401 0-.693.45-.693 1.07 0 .586.298 1.028.693 1.028.375 0 .693-.47.693-1.028 0-.59-.311-1.07-.693-1.07ZM9.029 14.064c-1.117 0-2.024-.683-2.024-1.522 0-.803.927-1.481 2.024-1.481 1.14 0 2.066.665 2.066 1.48 0 .84-.927 1.523-2.066 1.523Zm0-2.55c-.396 0-.693.442-.693 1.028 0 .586.298 1.028.693 1.028.375 0 .693-.47.693-1.028 0-.556-.317-1.028-.693-1.028Zm7.44 2.467-1.31-2.434-.653.01-.018-.393 2.86-.018.018.394-.728.017 1.018 1.688.847-1.713-.486.025-.017-.394 1.982-.018.017.394-.686.018-1.285 2.424H16.47Zm-5.225 0-.017-.478.687-.017-.018-1.947-.65.018-.018-.394 2.65-.018.018.394-.687.018.018 1.947.693-.017c.225 0 .819-.147.86-.82l.435-.016.018 1.33h-3.989Zm-7.482 0L2.45 11.547l-.653.01-.018-.393 2.86-.018.018.394-.728.017 1.018 1.688.89-1.713-.529.025-.017-.393 1.982-.018.017.394-.687.017-1.285 2.425-1.557-.001Z" fill="#FFD124"/><path d="M21.737 11.037c1.13 0 2.049.669 2.049 1.505 0 .836-.92 1.505-2.049 1.505-1.086 0-2.006-.669-2.006-1.505 0-.836.92-1.505 2.006-1.505Zm0 2.55c.376 0 .711-.46.711-1.045 0-.627-.334-1.087-.71-1.087-.419 0-.712.46-.712 1.087 0 .585.293 1.045.711 1.045ZM9.03 11.079c1.129 0 2.048.668 2.048 1.463 0 .836-.92 1.505-2.048 1.505-1.086 0-2.006-.669-2.006-1.505 0-.795.92-1.463 2.006-1.463Zm0 2.508c.376 0 .711-.46.711-1.045 0-.586-.334-1.046-.71-1.046-.42 0-.712.46-.712 1.046 0 .585.293 1.045.711 1.045Zm10.953-2.425v.376h-.669l-1.295 2.424H16.47l-1.295-2.424h-.67v-.376h2.843v.376h-.71l1.003 1.714.878-1.714h-.501v-.376h1.963Zm-6.103 0v.376h-.67v1.965h.712c.25 0 .835-.168.878-.836h.418v1.295h-3.972v-.46h.669v-1.964h-.67v-.376h2.635Zm-6.605 0v.376h-.67L5.31 13.962H3.762l-1.296-2.424h-.668v-.376H4.64v.376h-.71l1.003 1.714.92-1.714h-.544v-.376h1.965Zm14.463-.16c-1.125 0-2.041.69-2.041 1.54 0 .848.915 1.539 2.041 1.539 1.15 0 2.084-.69 2.084-1.54 0-.85-.935-1.539-2.084-1.539Zm0 2.55c-.385 0-.675-.434-.675-1.01 0-.61.284-1.052.675-1.052.373 0 .676.472.676 1.052 0 .547-.31 1.01-.676 1.01ZM9.03 11.044c-1.106 0-2.042.686-2.042 1.498 0 .848.916 1.539 2.042 1.539 1.15 0 2.084-.69 2.084-1.54 0-.825-.935-1.497-2.084-1.497Zm0 2.508c-.385 0-.675-.434-.675-1.01 0-.576.29-1.01.675-1.01.367 0 .676.463.676 1.01 0 .547-.31 1.01-.676 1.01Zm10.988-2.425h-2.035v.447h.48l-.823 1.606-.94-1.607h.685v-.446h-2.913v.446h.682l1.286 2.406.01.019h1.589l.01-.019 1.286-2.406h.683v-.446Zm-6.104 0H11.21v.447h.669v1.895h-.669v.53h4.042v-1.366h-.486l-.003.033c-.04.659-.622.803-.843.803h-.675v-1.895h.668v-.447Zm-6.604 0H5.274v.447h.52l-.862 1.608-.942-1.608h.686v-.447H1.763v.447h.682l1.287 2.406.01.018H5.33l.01-.018 1.286-2.406h.683v-.447Z" fill="#000"/><path d="M.463 9.371c-.25 1.003-.418 2.048-.418 3.135 0 .09.03.622.034.712l.072.808C.15 13.96.117 12.645.117 12.579c0-1.087.182-2.094.432-3.098l8.758-.036 3.78-.073H.462Z" fill="#000"/></g><defs><clipPath id="a"><path fill="#fff" d="M0 0h25.583v25H0z"/></clipPath></defs></svg>