<svg width="10" height="10" fill="none" xmlns="http://www.w3.org/2000/svg"><g clip-path="url(#a)"><path d="m2.222 5.39 4.45 4.45c.103.103.24.16.387.16a.543.543 0 0 0 .387-.16l.328-.327a.548.548 0 0 0 0-.774L4.037 5.002l3.74-3.741a.543.543 0 0 0 .16-.387.544.544 0 0 0-.16-.387L7.45.16A.543.543 0 0 0 7.063 0a.543.543 0 0 0-.387.16L2.222 4.614a.544.544 0 0 0-.16.388c0 .147.057.285.16.388Z" fill="#000"/></g><defs><clipPath id="a"><path fill="#fff" transform="rotate(-180 5 5)" d="M0 0h10v10H0z"/></clipPath></defs></svg>