<svg width="36" height="36" viewBox="0 0 36 36" fill="none" xmlns="http://www.w3.org/2000/svg">
<path d="M4.0642 30.1934C3.10393 30.1934 2.32227 30.975 2.32227 31.9353C2.32227 32.8956 3.10393 33.6772 4.0642 33.6772C5.02448 33.6772 5.80614 32.8956 5.80614 31.9353C5.80614 30.975 5.02448 30.1934 4.0642 30.1934ZM4.0642 32.5159C3.74439 32.5159 3.48356 32.2557 3.48356 31.9353C3.48356 31.6149 3.74439 31.3547 4.0642 31.3547C4.38401 31.3547 4.64485 31.6149 4.64485 31.9353C4.64485 32.2557 4.38401 32.5159 4.0642 32.5159Z" fill="white"/>
<path d="M36 4.27574C36 1.91857 34.082 0 31.7243 0C30.582 0 29.5083 0.44484 28.7008 1.25258L26.6326 3.32C26.1801 3.05547 25.6686 2.90323 25.1302 2.90323C24.1019 2.90323 23.1583 3.42178 22.6058 4.28935L19.0017 9.95234L20.0816 11.0323L18.5806 12.5338L18.1905 12.1436C17.8483 11.8012 17.3933 11.6129 16.909 11.6129C15.9096 11.6129 15.0968 12.4257 15.0968 13.4252C15.0968 13.9023 15.2901 14.3693 15.6275 14.7067L16.0176 15.0968L14.5161 16.5983L14.126 16.2082C13.7838 15.8657 13.3288 15.6774 12.8445 15.6774C11.8451 15.6774 11.0323 16.4903 11.0323 17.4897C11.0323 17.9668 11.2256 18.4338 11.563 18.7712L11.9531 19.1613L10.4516 20.6628L10.0615 20.2727C9.71929 19.9302 9.26424 19.7419 8.77999 19.7419C7.78059 19.7419 6.96774 20.5548 6.96774 21.5542C6.96774 22.0313 7.1611 22.4983 7.49849 22.8357L7.88861 23.2258L6.3871 24.7273L5.99698 24.3372C5.65477 23.9947 5.19972 23.8065 4.71547 23.8065C3.71607 23.8065 2.90323 24.6193 2.90323 25.6187C2.90323 26.0959 3.09659 26.5628 3.43397 26.9002L3.82409 27.2903L1.01159 30.1023C0.359501 30.7549 0 31.6225 0 32.545C0 34.4503 1.54971 36 3.45495 36C4.37752 36 5.24509 35.6405 5.89774 34.9878L8.70968 32.1759L9.0998 32.566C9.442 32.9085 9.89705 33.0968 10.3813 33.0968C11.3807 33.0968 12.1935 32.2839 12.1935 31.2845C12.1935 30.8074 12.0002 30.3404 11.6628 30.003L11.2727 29.6129L12.7742 28.1114L13.1643 28.5015C13.5065 28.844 13.9616 29.0323 14.4458 29.0323C15.4452 29.0323 16.2581 28.2194 16.2581 27.22C16.2581 26.7428 16.0647 26.2759 15.7273 25.9385L15.3372 25.5484L16.8387 24.0469L17.2288 24.437C17.571 24.7795 18.0261 24.9677 18.5103 24.9677C19.5097 24.9677 20.3226 24.1549 20.3226 23.1555C20.3226 22.6783 20.1292 22.2114 19.7918 21.874L19.4017 21.4839L20.9032 19.9824L21.2933 20.3725C21.6356 20.715 22.0906 20.9032 22.5748 20.9032C23.5742 20.9032 24.3871 20.0904 24.3871 19.091C24.3871 18.6138 24.1937 18.1469 23.8563 17.8095L23.4662 17.4194L24.9677 15.9178L26.0477 16.9978L31.7107 13.3937C32.5788 12.8422 33.0968 11.8987 33.0968 10.8704C33.0968 10.332 32.9445 9.8205 32.6791 9.36744L34.7474 7.29974C35.5552 6.49228 36 5.41803 36 4.27574ZM5.07611 34.1668C4.64346 34.6 4.06735 34.8387 3.45495 34.8387C2.19018 34.8387 1.16129 33.8098 1.16129 32.545C1.16129 31.9326 1.40001 31.3565 1.83323 30.9233L4.64516 28.1114L7.88861 31.3548L5.07611 34.1668ZM10.3813 31.9355C10.2072 31.9355 10.0439 31.868 9.92087 31.745L4.25504 26.0791C4.13426 25.9578 4.06452 25.7899 4.06452 25.6187C4.06452 25.2598 4.35654 24.9677 4.71547 24.9677C4.88955 24.9677 5.05286 25.0352 5.17591 25.1583L10.8417 30.8241C10.9625 30.9454 11.0323 31.1133 11.0323 31.2845C11.0323 31.6435 10.7402 31.9355 10.3813 31.9355ZM10.4516 28.7918L7.20817 25.5484L8.70968 24.0469L11.9531 27.2903L10.4516 28.7918ZM14.4458 27.871C14.2717 27.871 14.1084 27.8035 13.9854 27.6804L8.31956 22.0146C8.19878 21.8933 8.12903 21.7254 8.12903 21.5542C8.12903 21.1952 8.42106 20.9032 8.77999 20.9032C8.95407 20.9032 9.11738 20.9707 9.24042 21.0938L14.9062 26.7596C15.027 26.8809 15.0968 27.0488 15.0968 27.22C15.0968 27.5789 14.8048 27.871 14.4458 27.871ZM14.5161 24.7273L11.2727 21.4839L12.7742 19.9824L16.0176 23.2258L14.5161 24.7273ZM18.5103 23.8065C18.3363 23.8065 18.1729 23.739 18.0499 23.6159L12.3841 17.9501C12.2633 17.8288 12.1935 17.6609 12.1935 17.4897C12.1935 17.1307 12.4856 16.8387 12.8445 16.8387C13.0186 16.8387 13.1819 16.9062 13.3049 17.0292L18.9708 22.6951C19.0915 22.8164 19.1613 22.9842 19.1613 23.1555C19.1613 23.5144 18.8693 23.8065 18.5103 23.8065ZM18.5806 20.6628L15.3372 17.4194L16.8387 15.9178L20.0822 19.1613L18.5806 20.6628ZM22.5748 19.7419C22.4008 19.7419 22.2375 19.6745 22.1144 19.5514L16.4486 13.8856C16.3278 13.7642 16.2581 13.5964 16.2581 13.4252C16.2581 13.0662 16.5501 12.7742 16.909 12.7742C17.0831 12.7742 17.2464 12.8417 17.3695 12.9647L23.0353 18.6305C23.1561 18.7519 23.2258 18.9197 23.2258 19.091C23.2258 19.4499 22.9338 19.7419 22.5748 19.7419ZM22.6452 16.5983L19.4017 13.3548L20.9032 11.8533L24.1467 15.0968L22.6452 16.5983ZM20.4816 9.7896L23.0047 5.82573L30.1743 12.9953L26.2104 15.5184L20.4816 9.7896ZM31.1686 12.3475L23.6525 4.83143C23.997 4.3537 24.5368 4.06452 25.1302 4.06452C25.6193 4.06452 26.0791 4.25504 26.4245 4.60093L31.3991 9.57497C31.745 9.92087 31.9355 10.3807 31.9355 10.8704C31.9355 11.4638 31.6463 12.0036 31.1686 12.3475ZM31.9355 8.46925L27.5307 4.06452L29.5216 2.07337C30.1099 1.48535 30.8927 1.16129 31.7243 1.16129C33.4418 1.16129 34.8387 2.55818 34.8387 4.27574C34.8387 5.10786 34.5146 5.89009 33.9266 6.47839L31.9355 8.46925Z" fill="white"/>
<path d="M31.9353 2.32227C30.975 2.32227 30.1934 3.10393 30.1934 4.0642C30.1934 5.02448 30.975 5.80614 31.9353 5.80614C32.8956 5.80614 33.6772 5.02448 33.6772 4.0642C33.6772 3.10393 32.8956 2.32227 31.9353 2.32227ZM31.9353 4.64485C31.6155 4.64485 31.3547 4.38458 31.3547 4.0642C31.3547 3.74383 31.6155 3.48356 31.9353 3.48356C32.2551 3.48356 32.5159 3.74383 32.5159 4.0642C32.5159 4.38458 32.2551 4.64485 31.9353 4.64485Z" fill="white"/>
</svg>
