<svg width="20" height="20" viewBox="0 0 20 20" fill="none" xmlns="http://www.w3.org/2000/svg">
<path d="M6.04199 1.4375V3.5625L5.48887 3.47027C5.01461 3.39117 4.66699 2.98082 4.66699 2.5C4.66699 2.0216 5.01223 1.60922 5.48887 1.52973L6.04199 1.4375Z" fill="black"/>
<path d="M13.3334 1.3332V3.6668C13.3334 4.4023 12.7369 5 12.0002 5C11.8053 5 11.6369 5.13516 11.5947 5.32539L11.042 7.8125H8.9584L8.40566 5.32539C8.36418 5.13867 8.19902 5 8.0002 5C7.26387 5 6.66699 4.40313 6.66699 3.6668V1.3332C6.66699 0.596875 7.26387 0 8.0002 0H12.0002C12.7365 0 13.3334 0.596875 13.3334 1.3332Z" fill="black"/>
<path d="M11 9.0625V11C11 11.5523 10.5523 12 10 12C9.44766 12 9 11.5524 9 11V9.0625H11Z" fill="black"/>
<path d="M12.7078 15.4984C12.7078 15.9843 12.3135 16.375 11.8312 16.375H8.16797C7.68437 16.375 7.2914 15.9816 7.2914 15.4984C7.2914 15.3596 7.24984 15.5883 8.02812 12.0863C8.87714 13.6325 11.1106 13.6413 11.9707 12.084C12.75 15.5914 12.7078 15.3598 12.7078 15.4984Z" fill="black"/>
<path d="M16.6666 12.6668V17.3332C16.6666 18.8063 15.4728 20 13.9998 20H5.9998C4.52676 20 3.33301 18.8063 3.33301 17.3332V12.6668C3.33301 11.1937 4.52676 10 5.9998 10H7.47206C7.22441 10.3418 7.04902 10.7316 6.95605 11.1504C6.03136 15.3113 6.0416 15.1668 6.0416 15.4984C6.0416 16.6711 6.9955 17.625 8.16816 17.625H11.8314C13.0066 17.625 13.958 16.6734 13.958 15.4984C13.958 15.1766 13.9866 15.3921 13.0435 11.1504C12.9506 10.7313 12.7752 10.3418 12.5271 10H13.9998C15.4728 10 16.6666 11.1937 16.6666 12.6668Z" fill="black"/>
</svg>
