<svg width="56" height="56" viewBox="0 0 56 56" fill="none" xmlns="http://www.w3.org/2000/svg">
<path d="M11.2856 10.9239C10.9654 10.6034 10.4459 10.6036 10.1256 10.9238L8.05499 12.9942L7.17179 12.111C6.85143 11.7907 6.332 11.7906 6.01175 12.1111C5.69139 12.4314 5.69139 12.9509 6.01175 13.2711L7.47497 14.7343C7.6351 14.8944 7.8451 14.9746 8.05499 14.9746C8.26488 14.9746 8.47488 14.8946 8.63501 14.7344L11.2856 12.0839C11.606 11.7636 11.606 11.2442 11.2856 10.9239Z" fill="#FFD124"/>
<path d="M10.7325 19.4395H6.56547C5.67319 19.4395 4.94727 20.1655 4.94727 21.0578V25.2247C4.94727 26.117 5.67319 26.843 6.56547 26.843H10.7324C11.6248 26.843 12.3508 26.117 12.3508 25.2247V21.0578C12.3508 20.1655 11.6248 19.4395 10.7325 19.4395ZM10.7101 25.2024H6.58789V21.0802H10.7101C10.7102 21.0802 10.7102 25.2024 10.7101 25.2024Z" fill="#FFD124"/>
<path d="M10.7325 30.9531H6.56547C5.67319 30.9531 4.94727 31.6792 4.94727 32.5714V36.7384C4.94727 37.6307 5.67319 38.3567 6.56547 38.3567H10.7324C11.6248 38.3567 12.3508 37.6307 12.3508 36.7384V32.5714C12.3508 31.6792 11.6248 30.9531 10.7325 30.9531ZM10.7101 36.716H6.58789V32.5938H10.7101C10.7102 32.5938 10.7102 36.716 10.7101 36.716Z" fill="#FFD124"/>
<path d="M10.7325 42.7129H6.56547C5.67319 42.7129 4.94727 43.4389 4.94727 44.3312V48.4982C4.94727 49.3905 5.67319 50.1165 6.56547 50.1165H10.7324C11.6248 50.1165 12.3508 49.3905 12.3508 48.4982V44.3312C12.3508 43.4388 11.6248 42.7129 10.7325 42.7129ZM10.7101 48.4758H6.58789V44.3535H10.7101C10.7102 44.3535 10.7102 48.4758 10.7101 48.4758Z" fill="#FFD124"/>
<path d="M54.654 21.9426C54.201 21.9426 53.8337 22.3097 53.8337 22.7629V53.2517C53.8337 53.8625 53.3369 54.3593 52.7262 54.3593H23.3551C22.7444 54.3593 22.2476 53.8625 22.2476 53.2517V12.2225C22.2476 11.6118 22.7443 11.115 23.3551 11.115H52.7259C53.3366 11.115 53.8335 11.6118 53.8335 12.2225V19.3996C53.8336 19.8527 54.2007 20.2199 54.6539 20.2199C55.1069 20.2199 55.4742 19.8527 55.4742 19.3996V12.2225C55.4742 10.7072 54.2414 9.47437 52.726 9.47437H48.3298V4.84454C48.3298 2.1735 46.157 0.000328124 43.4853 0C43.4852 0 43.4851 0 43.485 0H6.05604C3.00656 0 0.525391 2.48106 0.525391 5.53054V51.0977C0.525391 53.769 2.69867 55.9421 5.36982 55.9421H18.5026C18.9556 55.9421 19.3229 55.575 19.3229 55.1218C19.3229 54.6687 18.9556 54.3015 18.5026 54.3015H5.37004C3.60342 54.3015 2.16623 52.8642 2.16623 51.0977V5.53054C2.16601 3.38559 3.91109 1.64062 6.05604 1.64062H39.8554C39.1 2.49528 38.6402 3.61691 38.6402 4.84454V7.10859C38.6402 7.56173 39.0075 7.92891 39.4605 7.92891C39.9136 7.92891 40.2808 7.56173 40.2808 7.10859V4.84454C40.2808 3.07792 41.7181 1.64062 43.4854 1.64062C45.252 1.64062 46.6892 3.07792 46.6892 4.84454V9.47437H23.3552C21.8399 9.47437 20.607 10.7071 20.607 12.2225V12.7904H16.3451C15.8921 12.7904 15.5248 13.1576 15.5248 13.6107C15.5248 14.0638 15.8921 14.431 16.3451 14.431H20.607V22.3212H16.3451C15.8921 22.3212 15.5248 22.6884 15.5248 23.1415C15.5248 23.5947 15.8921 23.9618 16.3451 23.9618H20.607V33.8349H16.3451C15.8921 33.8349 15.5248 34.202 15.5248 34.6552C15.5248 35.1083 15.8921 35.4755 16.3451 35.4755H20.607V45.5934H16.3451C15.8921 45.5934 15.5248 45.9606 15.5248 46.4137C15.5248 46.8669 15.8921 47.234 16.3451 47.234H20.607V53.2518C20.607 54.7671 21.8398 56 23.3552 56H52.7262C54.2414 56 55.4743 54.7672 55.4743 53.2518V22.7629C55.4743 22.3097 55.107 21.9426 54.654 21.9426Z" fill="#FFD124"/>
<path d="M50.2093 12.4121H25.5906C24.5137 12.4121 23.6377 13.2882 23.6377 14.365V20.4948C23.6377 21.5717 24.5138 22.4477 25.5906 22.4477H50.209C51.2859 22.4477 52.1619 21.5716 52.1619 20.4948V14.365H52.162C52.162 13.2881 51.2859 12.4121 50.2093 12.4121ZM50.2093 20.8071H25.5906C25.4183 20.8071 25.2783 20.667 25.2783 20.4948V14.365C25.2783 14.1928 25.4184 14.0527 25.5906 14.0527H50.209C50.3813 14.0527 50.5213 14.1928 50.5213 14.365V20.4948H50.5214C50.5214 20.667 50.3813 20.8071 50.2093 20.8071Z" fill="#FFD124"/>
<path d="M27.9978 24.0859H25.2981C24.3825 24.0859 23.6377 24.8308 23.6377 25.7464V28.3827C23.6377 29.2983 24.3825 30.0432 25.2981 30.0432H27.9978C28.9134 30.0432 29.6582 29.2983 29.6582 28.3827V25.7464C29.6581 24.8308 28.9134 24.0859 27.9978 24.0859ZM28.0175 28.3826C28.0175 28.3936 28.0086 28.4024 27.9977 28.4024H25.298C25.2871 28.4024 25.2782 28.3936 25.2782 28.3826V25.7464C25.2782 25.7354 25.2871 25.7266 25.298 25.7266H27.9977C28.0086 25.7266 28.0175 25.7354 28.0175 25.7464V28.3826Z" fill="#FFD124"/>
<path d="M35.4988 24.0859H32.7991C31.8835 24.0859 31.1387 24.8308 31.1387 25.7464V28.3827C31.1387 29.2983 31.8835 30.0432 32.7991 30.0432H35.4988C36.4144 30.0432 37.1592 29.2983 37.1592 28.3827V25.7464C37.1593 24.8308 36.4145 24.0859 35.4988 24.0859ZM35.5187 28.3826C35.5187 28.3936 35.5098 28.4024 35.4989 28.4024H32.7991C32.7882 28.4024 32.7793 28.3936 32.7793 28.3826V25.7464C32.7793 25.7354 32.7882 25.7266 32.7991 25.7266H35.4988C35.5097 25.7266 35.5186 25.7354 35.5186 25.7464V28.3826H35.5187Z" fill="#FFD124"/>
<path d="M42.9998 24.0859H40.3001C39.3845 24.0859 38.6396 24.8308 38.6396 25.7464V28.3827C38.6396 29.2983 39.3845 30.0432 40.3001 30.0432H42.9998C43.9153 30.0432 44.6602 29.2983 44.6602 28.3827V25.7464C44.6603 24.8308 43.9155 24.0859 42.9998 24.0859ZM43.0197 28.3826C43.0197 28.3936 43.0108 28.4024 42.9999 28.4024H40.3002C40.2892 28.4024 40.2804 28.3936 40.2804 28.3826V25.7464C40.2804 25.7354 40.2892 25.7266 40.3002 25.7266H42.9999C43.0108 25.7266 43.0197 25.7354 43.0197 25.7464V28.3826Z" fill="#FFD124"/>
<path d="M50.5017 24.0859H47.802C46.8864 24.0859 46.1416 24.8308 46.1416 25.7464V28.3827C46.1416 29.2983 46.8864 30.0432 47.802 30.0432H50.5017C51.4173 30.0432 52.1622 29.2983 52.1622 28.3827V25.7464C52.162 24.8308 51.4173 24.0859 50.5017 24.0859ZM50.5214 28.3826C50.5214 28.3936 50.5126 28.4024 50.5016 28.4024H47.8019C47.791 28.4024 47.7821 28.3936 47.7821 28.3826V25.7464C47.7821 25.7354 47.791 25.7266 47.8019 25.7266H50.5016C50.5126 25.7266 50.5214 25.7354 50.5214 25.7464V28.3826Z" fill="#FFD124"/>
<path d="M27.9978 31.6758H25.2981C24.3825 31.6758 23.6377 32.4206 23.6377 33.3362V35.9726C23.6377 36.8882 24.3825 37.633 25.2981 37.633H27.9978C28.9134 37.633 29.6582 36.8882 29.6582 35.9726V33.3362C29.6581 32.4206 28.9134 31.6758 27.9978 31.6758ZM28.0175 35.9725C28.0175 35.9834 28.0086 35.9923 27.9977 35.9923H25.298C25.2871 35.9923 25.2782 35.9834 25.2782 35.9725V33.3361C25.2782 33.3252 25.2871 33.3163 25.298 33.3163H27.9977C28.0086 33.3163 28.0175 33.3252 28.0175 33.3361V35.9725Z" fill="#FFD124"/>
<path d="M35.4988 31.6758H32.7991C31.8835 31.6758 31.1387 32.4206 31.1387 33.3362V35.9726C31.1387 36.8882 31.8835 37.633 32.7991 37.633H35.4988C36.4144 37.633 37.1592 36.8882 37.1592 35.9726V33.3362C37.1593 32.4206 36.4145 31.6758 35.4988 31.6758ZM35.5187 35.9725C35.5187 35.9834 35.5098 35.9923 35.4989 35.9923H32.7991C32.7882 35.9923 32.7793 35.9834 32.7793 35.9725V33.3361C32.7793 33.3252 32.7882 33.3163 32.7991 33.3163H35.4988C35.5097 33.3163 35.5186 33.3252 35.5186 33.3361V35.9725H35.5187Z" fill="#FFD124"/>
<path d="M42.9998 31.6758H40.3001C39.3845 31.6758 38.6396 32.4206 38.6396 33.3362V35.9726C38.6396 36.8882 39.3845 37.633 40.3001 37.633H42.9998C43.9153 37.633 44.6602 36.8882 44.6602 35.9726V33.3362C44.6603 32.4206 43.9155 31.6758 42.9998 31.6758ZM43.0197 35.9725C43.0197 35.9834 43.0108 35.9923 42.9999 35.9923H40.3002C40.2892 35.9923 40.2804 35.9834 40.2804 35.9725V33.3361C40.2804 33.3252 40.2892 33.3163 40.3002 33.3163H42.9999C43.0108 33.3163 43.0197 33.3252 43.0197 33.3361V35.9725Z" fill="#FFD124"/>
<path d="M50.5017 31.6758H47.802C46.8864 31.6758 46.1416 32.4206 46.1416 33.3362V35.9726C46.1416 36.8882 46.8864 37.633 47.802 37.633H50.5017C51.4173 37.633 52.1622 36.8882 52.1622 35.9726V33.3362C52.162 32.4206 51.4173 31.6758 50.5017 31.6758ZM50.5214 35.9725C50.5214 35.9834 50.5126 35.9923 50.5016 35.9923H47.8019C47.791 35.9923 47.7821 35.9834 47.7821 35.9725V33.3361C47.7821 33.3252 47.791 33.3163 47.8019 33.3163H50.5016C50.5126 33.3163 50.5214 33.3252 50.5214 33.3361V35.9725Z" fill="#FFD124"/>
<path d="M27.9978 39.2676H25.2981C24.3825 39.2676 23.6377 40.0124 23.6377 40.928V43.5644C23.6377 44.4799 24.3825 45.2248 25.2981 45.2248H27.9978C28.9134 45.2248 29.6582 44.4799 29.6582 43.5644V40.928C29.6581 40.0124 28.9134 39.2676 27.9978 39.2676ZM28.0175 43.5644C28.0175 43.5753 28.0086 43.5842 27.9977 43.5842H25.298C25.2871 43.5842 25.2782 43.5753 25.2782 43.5644V40.928C25.2782 40.9171 25.2871 40.9082 25.298 40.9082H27.9977C28.0086 40.9082 28.0175 40.9171 28.0175 40.928V43.5644Z" fill="#FFD124"/>
<path d="M35.4988 39.2676H32.7991C31.8835 39.2676 31.1387 40.0124 31.1387 40.928V43.5644C31.1387 44.4799 31.8835 45.2248 32.7991 45.2248H35.4988C36.4144 45.2248 37.1592 44.4799 37.1592 43.5644V40.928C37.1593 40.0124 36.4145 39.2676 35.4988 39.2676ZM35.5187 43.5644C35.5187 43.5753 35.5098 43.5842 35.4989 43.5842H32.7991C32.7882 43.5842 32.7793 43.5753 32.7793 43.5644V40.928C32.7793 40.9171 32.7882 40.9082 32.7991 40.9082H35.4988C35.5097 40.9082 35.5186 40.9171 35.5186 40.928V43.5644H35.5187Z" fill="#FFD124"/>
<path d="M42.9998 39.2676H40.3001C39.3845 39.2676 38.6396 40.0124 38.6396 40.928V43.5644C38.6396 44.4799 39.3845 45.2248 40.3001 45.2248H42.9998C43.9153 45.2248 44.6602 44.4799 44.6602 43.5644V40.928C44.6603 40.0124 43.9155 39.2676 42.9998 39.2676ZM43.0197 43.5644C43.0197 43.5753 43.0108 43.5842 42.9999 43.5842H40.3002C40.2892 43.5842 40.2804 43.5753 40.2804 43.5644V40.928C40.2804 40.9171 40.2892 40.9082 40.3002 40.9082H42.9999C43.0108 40.9082 43.0197 40.9171 43.0197 40.928V43.5644Z" fill="#FFD124"/>
<path d="M50.5017 39.2676H47.802C46.8864 39.2676 46.1416 40.0124 46.1416 40.928V50.6985C46.1416 51.614 46.8864 52.3589 47.802 52.3589H50.5017C51.4173 52.3589 52.1622 51.614 52.1622 50.6985V40.928C52.162 40.0124 51.4173 39.2676 50.5017 39.2676ZM50.5214 50.6985C50.5214 50.7094 50.5126 50.7183 50.5016 50.7183H47.8019C47.791 50.7183 47.7821 50.7094 47.7821 50.6985V40.928C47.7821 40.9171 47.791 40.9082 47.8019 40.9082H50.5016C50.5126 40.9082 50.5214 40.9171 50.5214 40.928V50.6985Z" fill="#FFD124"/>
<path d="M27.9978 46.4023H25.2981C24.3825 46.4023 23.6377 47.1472 23.6377 48.0628V50.6991C23.6377 51.6147 24.3825 52.3596 25.2981 52.3596H27.9978C28.9134 52.3596 29.6582 51.6147 29.6582 50.6991V48.0628C29.658 47.1472 28.9133 46.4023 27.9978 46.4023ZM28.0174 50.699C28.0174 50.71 28.0085 50.7188 27.9976 50.7188H25.2979C25.287 50.7188 25.2781 50.71 25.2781 50.699V48.0627C25.2781 48.0517 25.287 48.0429 25.2979 48.0429H27.9976C28.0085 48.0429 28.0174 48.0517 28.0174 48.0627V50.699Z" fill="#FFD124"/>
<path d="M35.4988 46.4023H32.7991C31.8835 46.4023 31.1387 47.1472 31.1387 48.0628V50.6991C31.1387 51.6147 31.8835 52.3596 32.7991 52.3596H35.4988C36.4144 52.3596 37.1592 51.6147 37.1592 50.6991V48.0628C37.1591 47.1472 36.4143 46.4023 35.4988 46.4023ZM35.5185 50.699C35.5185 50.71 35.5096 50.7188 35.4987 50.7188H32.7989C32.7879 50.7188 32.7791 50.71 32.7791 50.699V48.0627C32.7791 48.0517 32.7879 48.0429 32.7989 48.0429H35.4986C35.5095 48.0429 35.5184 48.0517 35.5184 48.0627V50.699H35.5185Z" fill="#FFD124"/>
<path d="M43.0008 46.4023H40.301C39.3855 46.4023 38.6406 47.1472 38.6406 48.0628V50.6991C38.6406 51.6147 39.3855 52.3596 40.301 52.3596H43.0008C43.9163 52.3596 44.6612 51.6147 44.6612 50.6991V48.0628C44.6611 47.1472 43.9162 46.4023 43.0008 46.4023ZM43.0204 50.699C43.0204 50.71 43.0116 50.7188 43.0006 50.7188H40.3009C40.29 50.7188 40.2811 50.71 40.2811 50.699V48.0627C40.2811 48.0517 40.29 48.0429 40.3009 48.0429H43.0006C43.0116 48.0429 43.0204 48.0517 43.0204 48.0627V50.699Z" fill="#FFD124"/>
</svg>
