<svg width="56" height="56" viewBox="0 0 56 56" fill="none" xmlns="http://www.w3.org/2000/svg">
<path d="M49.875 7H45.5V5.25C45.5 4.32174 45.1312 3.4315 44.4749 2.77513C43.8185 2.11875 42.9283 1.75 42 1.75C41.0717 1.75 40.1815 2.11875 39.5251 2.77513C38.8688 3.4315 38.5 4.32174 38.5 5.25V7H31.5V5.25C31.5 4.32174 31.1313 3.4315 30.4749 2.77513C29.8185 2.11875 28.9283 1.75 28 1.75C27.0717 1.75 26.1815 2.11875 25.5251 2.77513C24.8687 3.4315 24.5 4.32174 24.5 5.25V7H17.5V5.25C17.5 4.32174 17.1313 3.4315 16.4749 2.77513C15.8185 2.11875 14.9283 1.75 14 1.75C13.0717 1.75 12.1815 2.11875 11.5251 2.77513C10.8687 3.4315 10.5 4.32174 10.5 5.25V7H6.125C4.96468 7 3.85188 7.46094 3.03141 8.28141C2.21094 9.10188 1.75 10.2147 1.75 11.375V46.375C1.75 47.5353 2.21094 48.6481 3.03141 49.4686C3.85188 50.2891 4.96468 50.75 6.125 50.75H30.625C30.8571 50.75 31.0796 50.6578 31.2437 50.4937C31.4078 50.3296 31.5 50.1071 31.5 49.875C31.5 49.6429 31.4078 49.4204 31.2437 49.2563C31.0796 49.0922 30.8571 49 30.625 49H6.125C5.42945 48.9979 4.76297 48.7207 4.27114 48.2289C3.77931 47.737 3.50208 47.0706 3.5 46.375V19.25H52.5V34.125C52.5 34.3571 52.5922 34.5796 52.7563 34.7437C52.9204 34.9078 53.1429 35 53.375 35C53.6071 35 53.8296 34.9078 53.9937 34.7437C54.1578 34.5796 54.25 34.3571 54.25 34.125V11.375C54.25 10.2147 53.7891 9.10188 52.9686 8.28141C52.1481 7.46094 51.0353 7 49.875 7ZM40.25 5.25C40.25 4.78587 40.4344 4.34075 40.7626 4.01256C41.0908 3.68437 41.5359 3.5 42 3.5C42.4641 3.5 42.9092 3.68437 43.2374 4.01256C43.5656 4.34075 43.75 4.78587 43.75 5.25V10.5C43.75 10.9641 43.5656 11.4092 43.2374 11.7374C42.9092 12.0656 42.4641 12.25 42 12.25C41.5359 12.25 41.0908 12.0656 40.7626 11.7374C40.4344 11.4092 40.25 10.9641 40.25 10.5V5.25ZM26.25 5.25C26.25 4.78587 26.4344 4.34075 26.7626 4.01256C27.0908 3.68437 27.5359 3.5 28 3.5C28.4641 3.5 28.9093 3.68437 29.2374 4.01256C29.5656 4.34075 29.75 4.78587 29.75 5.25V10.5C29.75 10.9641 29.5656 11.4092 29.2374 11.7374C28.9093 12.0656 28.4641 12.25 28 12.25C27.5359 12.25 27.0908 12.0656 26.7626 11.7374C26.4344 11.4092 26.25 10.9641 26.25 10.5V5.25ZM12.25 5.25C12.25 4.78587 12.4344 4.34075 12.7626 4.01256C13.0908 3.68437 13.5359 3.5 14 3.5C14.4641 3.5 14.9092 3.68437 15.2374 4.01256C15.5656 4.34075 15.75 4.78587 15.75 5.25V10.5C15.75 10.9641 15.5656 11.4092 15.2374 11.7374C14.9092 12.0656 14.4641 12.25 14 12.25C13.5359 12.25 13.0908 12.0656 12.7626 11.7374C12.4344 11.4092 12.25 10.9641 12.25 10.5V5.25ZM52.5 17.5H3.5V11.375C3.50208 10.6794 3.77931 10.013 4.27114 9.52114C4.76297 9.02931 5.42945 8.75208 6.125 8.75H10.5V10.5C10.5 11.4283 10.8687 12.3185 11.5251 12.9749C12.1815 13.6313 13.0717 14 14 14C14.9283 14 15.8185 13.6313 16.4749 12.9749C17.1313 12.3185 17.5 11.4283 17.5 10.5V8.75H24.5V10.5C24.5 11.4283 24.8687 12.3185 25.5251 12.9749C26.1815 13.6313 27.0717 14 28 14C28.9283 14 29.8185 13.6313 30.4749 12.9749C31.1313 12.3185 31.5 11.4283 31.5 10.5V8.75H38.5V10.5C38.5 11.4283 38.8688 12.3185 39.5251 12.9749C40.1815 13.6313 41.0717 14 42 14C42.9283 14 43.8185 13.6313 44.4749 12.9749C45.1312 12.3185 45.5 11.4283 45.5 10.5V8.75H49.875C50.5706 8.75208 51.237 9.02931 51.7289 9.52114C52.2207 10.013 52.4979 10.6794 52.5 11.375V17.5Z" fill="#FFD124"/>
<path d="M26.25 25.375C26.25 24.9109 26.0656 24.4658 25.7374 24.1376C25.4092 23.8094 24.9641 23.625 24.5 23.625H21C20.5359 23.625 20.0908 23.8094 19.7626 24.1376C19.4344 24.4658 19.25 24.9109 19.25 25.375V28C19.25 28.4641 19.4344 28.9092 19.7626 29.2374C20.0908 29.5656 20.5359 29.75 21 29.75H24.5C24.9641 29.75 25.4092 29.5656 25.7374 29.2374C26.0656 28.9092 26.25 28.4641 26.25 28V25.375ZM21 28V25.375H24.5V28H21Z" fill="#FFD124"/>
<path d="M15.75 25.375C15.75 24.9109 15.5656 24.4658 15.2374 24.1376C14.9092 23.8094 14.4641 23.625 14 23.625H10.5C10.0359 23.625 9.59075 23.8094 9.26256 24.1376C8.93437 24.4658 8.75 24.9109 8.75 25.375V28C8.75 28.4641 8.93437 28.9092 9.26256 29.2374C9.59075 29.5656 10.0359 29.75 10.5 29.75H14C14.4641 29.75 14.9092 29.5656 15.2374 29.2374C15.5656 28.9092 15.75 28.4641 15.75 28V25.375ZM10.5 28V25.375H14V28H10.5Z" fill="#FFD124"/>
<path d="M45.5 29.75C45.9641 29.75 46.4092 29.5656 46.7374 29.2374C47.0656 28.9092 47.25 28.4641 47.25 28V25.375C47.25 24.9109 47.0656 24.4658 46.7374 24.1376C46.4092 23.8094 45.9641 23.625 45.5 23.625H42C41.5359 23.625 41.0908 23.8094 40.7626 24.1376C40.4344 24.4658 40.25 24.9109 40.25 25.375V28C40.25 28.4641 40.4344 28.9092 40.7626 29.2374C41.0908 29.5656 41.5359 29.75 42 29.75H45.5ZM42 25.375H45.5V28H42V25.375Z" fill="#FFD124"/>
<path d="M26.25 33.25C26.25 32.7859 26.0656 32.3408 25.7374 32.0126C25.4092 31.6844 24.9641 31.5 24.5 31.5H21C20.5359 31.5 20.0908 31.6844 19.7626 32.0126C19.4344 32.3408 19.25 32.7859 19.25 33.25V35.875C19.25 36.3391 19.4344 36.7842 19.7626 37.1124C20.0908 37.4406 20.5359 37.625 21 37.625H24.5C24.9641 37.625 25.4092 37.4406 25.7374 37.1124C26.0656 36.7842 26.25 36.3391 26.25 35.875V33.25ZM21 35.875V33.25H24.5V35.875H21Z" fill="#FFD124"/>
<path d="M15.75 33.25C15.75 32.7859 15.5656 32.3408 15.2374 32.0126C14.9092 31.6844 14.4641 31.5 14 31.5H10.5C10.0359 31.5 9.59075 31.6844 9.26256 32.0126C8.93437 32.3408 8.75 32.7859 8.75 33.25V35.875C8.75 36.3391 8.93437 36.7842 9.26256 37.1124C9.59075 37.4406 10.0359 37.625 10.5 37.625H14C14.4641 37.625 14.9092 37.4406 15.2374 37.1124C15.5656 36.7842 15.75 36.3391 15.75 35.875V33.25ZM10.5 35.875V33.25H14V35.875H10.5Z" fill="#FFD124"/>
<path d="M24.5 39.375H21C20.5359 39.375 20.0908 39.5594 19.7626 39.8876C19.4344 40.2158 19.25 40.6609 19.25 41.125V43.75C19.25 44.2141 19.4344 44.6592 19.7626 44.9874C20.0908 45.3156 20.5359 45.5 21 45.5H24.5C24.9641 45.5 25.4092 45.3156 25.7374 44.9874C26.0656 44.6592 26.25 44.2141 26.25 43.75V41.125C26.25 40.6609 26.0656 40.2158 25.7374 39.8876C25.4092 39.5594 24.9641 39.375 24.5 39.375ZM21 43.75V41.125H24.5V43.75H21Z" fill="#FFD124"/>
<path d="M31.5 29.75H35C35.4641 29.75 35.9092 29.5656 36.2374 29.2374C36.5656 28.9092 36.75 28.4641 36.75 28V25.375C36.75 24.9109 36.5656 24.4658 36.2374 24.1376C35.9092 23.8094 35.4641 23.625 35 23.625H31.5C31.0359 23.625 30.5908 23.8094 30.2626 24.1376C29.9344 24.4658 29.75 24.9109 29.75 25.375V28C29.75 28.4641 29.9344 28.9092 30.2626 29.2374C30.5908 29.5656 31.0359 29.75 31.5 29.75ZM31.5 25.375H35V28H31.5V25.375Z" fill="#FFD124"/>
<path d="M29.75 35.875C29.75 36.3391 29.9344 36.7842 30.2626 37.1124C30.5908 37.4406 31.0359 37.625 31.5 37.625C31.7321 37.625 31.9546 37.5328 32.1187 37.3687C32.2828 37.2046 32.375 36.9821 32.375 36.75C32.375 36.5179 32.2828 36.2954 32.1187 36.1313C31.9546 35.9672 31.7321 35.875 31.5 35.875V33.25H35C35.2321 33.25 35.4546 33.1578 35.6187 32.9937C35.7828 32.8296 35.875 32.6071 35.875 32.375C35.875 32.1429 35.7828 31.9204 35.6187 31.7563C35.4546 31.5922 35.2321 31.5 35 31.5H31.5C31.0359 31.5 30.5908 31.6844 30.2626 32.0126C29.9344 32.3408 29.75 32.7859 29.75 33.25V35.875Z" fill="#FFD124"/>
<path d="M14 39.375H10.5C10.0359 39.375 9.59075 39.5594 9.26256 39.8876C8.93437 40.2158 8.75 40.6609 8.75 41.125V43.75C8.75 44.2141 8.93437 44.6592 9.26256 44.9874C9.59075 45.3156 10.0359 45.5 10.5 45.5H14C14.4641 45.5 14.9092 45.3156 15.2374 44.9874C15.5656 44.6592 15.75 44.2141 15.75 43.75V41.125C15.75 40.6609 15.5656 40.2158 15.2374 39.8876C14.9092 39.5594 14.4641 39.375 14 39.375ZM10.5 43.75V41.125H14V43.75H10.5Z" fill="#FFD124"/>
<path d="M42.875 31.5C40.6252 31.5 38.426 32.1671 36.5554 33.417C34.6848 34.6669 33.2268 36.4435 32.3659 38.522C31.5049 40.6005 31.2797 42.8876 31.7186 45.0941C32.1575 47.3007 33.2408 49.3275 34.8317 50.9183C36.4225 52.5091 38.4493 53.5925 40.6558 54.0314C42.8624 54.4703 45.1495 54.2451 47.228 53.3841C49.3065 52.5232 51.0831 51.0652 52.333 49.1946C53.5829 47.324 54.25 45.1248 54.25 42.875C54.2465 39.8592 53.047 36.968 50.9145 34.8355C48.782 32.703 45.8908 31.5035 42.875 31.5ZM42.875 52.5C40.9714 52.5 39.1105 51.9355 37.5276 50.8779C35.9448 49.8203 34.7112 48.3171 33.9827 46.5583C33.2542 44.7996 33.0636 42.8643 33.4349 40.9972C33.8063 39.1302 34.723 37.4152 36.0691 36.0691C37.4152 34.723 39.1302 33.8063 40.9973 33.4349C42.8643 33.0636 44.7996 33.2542 46.5583 33.9827C48.3171 34.7112 49.8203 35.9448 50.8779 37.5276C51.9355 39.1105 52.5 40.9713 52.5 42.875C52.497 45.4268 51.482 47.8732 49.6776 49.6776C47.8732 51.4819 45.4268 52.497 42.875 52.5Z" fill="#FFD124"/>
<path d="M47.9306 39.2066L41.1248 46.0123L38.0317 42.9183C37.8667 42.7589 37.6456 42.6707 37.4162 42.6727C37.1868 42.6747 36.9673 42.7667 36.8051 42.929C36.6429 43.0912 36.5509 43.3107 36.5489 43.5401C36.5469 43.7695 36.6351 43.9905 36.7945 44.1556L40.5062 47.8682C40.6703 48.0322 40.8928 48.1244 41.1248 48.1244C41.3568 48.1244 41.5794 48.0322 41.7434 47.8682L49.1678 40.4438C49.3272 40.2788 49.4154 40.0578 49.4134 39.8283C49.4114 39.5989 49.3194 39.3795 49.1572 39.2172C48.9949 39.055 48.7755 38.963 48.546 38.961C48.3166 38.959 48.0956 39.0472 47.9306 39.2066Z" fill="#FFD124"/>
</svg>
