<svg width="40" height="40" viewBox="0 0 40 40" fill="none" xmlns="http://www.w3.org/2000/svg">
<g clip-path="url(#clip0_427_5261)">
<path d="M37.8507 3.42773H35.8359V2.55469C35.8359 1.36148 34.8651 0.390625 33.6718 0.390625C32.4786 0.390625 31.5078 1.36141 31.5078 2.55469V3.42773H29.6096V2.55469C29.6096 1.36148 28.6388 0.390625 27.4455 0.390625C26.2523 0.390625 25.2815 1.36141 25.2815 2.55469V3.42773H14.7185V2.55469C14.7185 1.36148 13.7477 0.390625 12.5545 0.390625C11.3613 0.390625 10.3904 1.36141 10.3904 2.55469V3.42773H8.49219V2.55469C8.49219 1.36148 7.52141 0.390625 6.32812 0.390625C5.13484 0.390625 4.16406 1.36141 4.16406 2.55469V3.42773H2.14922C0.964141 3.42773 0 4.39188 0 5.57703V37.4602C0 38.6452 0.964141 39.6094 2.1493 39.6094H30C30.7576 39.6094 30.7576 38.4375 30 38.4375H2.1493C1.61031 38.4375 1.17188 37.9991 1.17188 37.4601V11.9214H4.5543C5.31187 11.9214 5.31187 10.7495 4.5543 10.7495H1.17188V5.57703C1.17188 5.03813 1.61031 4.59961 2.1493 4.59961H4.16414V5.51898C4.16414 6.71219 5.13492 7.68305 6.3282 7.68305C7.52141 7.68305 8.49227 6.71227 8.49227 5.51898V4.59961H10.3905V5.51898C10.3905 6.71219 11.3612 7.68305 12.5545 7.68305C13.7478 7.68305 14.7186 6.71227 14.7186 5.51898V4.59961H25.2815V5.51898C25.2815 6.71219 26.2523 7.68305 27.4455 7.68305C28.6388 7.68305 29.6096 6.71227 29.6096 5.51898V4.59961H31.5078V5.51898C31.5078 6.71219 32.4786 7.68305 33.6718 7.68305C34.8651 7.68305 35.8359 6.71227 35.8359 5.51898V4.59961H37.8507C38.3896 4.59961 38.8281 5.03805 38.8281 5.57703V10.7495H8.09313C7.33555 10.7495 7.33555 11.9214 8.09313 11.9214H38.8281V37.4601C38.8281 37.999 38.3897 38.4375 37.8507 38.4375H33.5156C32.758 38.4375 32.758 39.6094 33.5156 39.6094H37.8507C39.0359 39.6094 40 38.6452 40 37.4601V5.57703C40 4.39188 39.0359 3.42773 37.8507 3.42773ZM7.32039 5.51898C7.32039 6.06602 6.87531 6.51117 6.3282 6.51117C5.78109 6.51117 5.33602 6.06609 5.33602 5.51898V2.55469C5.33602 2.00766 5.78109 1.5625 6.3282 1.5625C6.87523 1.5625 7.32039 2.00758 7.32039 2.55469V5.51898ZM13.5466 5.51898C13.5466 6.06602 13.1016 6.51117 12.5545 6.51117C12.0074 6.51117 11.5623 6.06609 11.5623 5.51898V2.55469C11.5623 2.00766 12.0073 1.5625 12.5545 1.5625C13.1016 1.5625 13.5466 2.00758 13.5466 2.55469V5.51898ZM28.4377 5.51898C28.4377 6.06602 27.9927 6.51117 27.4455 6.51117C26.8984 6.51117 26.4534 6.06609 26.4534 5.51898V2.55469C26.4534 2.00766 26.8984 1.5625 27.4455 1.5625C27.9927 1.5625 28.4377 2.00758 28.4377 2.55469V5.51898ZM34.664 5.51898C34.664 6.06602 34.2189 6.51117 33.6718 6.51117C33.1248 6.51117 32.6797 6.06609 32.6797 5.51898V2.55469C32.6797 2.00766 33.1248 1.5625 33.6718 1.5625C34.2189 1.5625 34.664 2.00758 34.664 2.55469V5.51898Z" fill="black"/>
<path d="M11.2104 14.5957C10.0282 14.5957 9.06641 15.5575 9.06641 16.7397C9.06641 17.9219 10.0282 18.8837 11.2104 18.8837C12.3926 18.8837 13.3544 17.9219 13.3544 16.7397C13.3544 15.5575 12.3926 14.5957 11.2104 14.5957ZM11.2104 17.7118C10.6744 17.7118 10.2383 17.2757 10.2383 16.7397C10.2383 16.2037 10.6744 15.7676 11.2104 15.7676C11.7464 15.7676 12.1825 16.2037 12.1825 16.7397C12.1825 17.2757 11.7464 17.7118 11.2104 17.7118Z" fill="black"/>
<path d="M17.0004 14.5957C15.8182 14.5957 14.8564 15.5575 14.8564 16.7397C14.8564 17.9219 15.8182 18.8837 17.0004 18.8837C18.1826 18.8837 19.1443 17.9219 19.1443 16.7397C19.1443 15.5575 18.1825 14.5957 17.0004 14.5957ZM17.0004 17.7118C16.4644 17.7118 16.0283 17.2757 16.0283 16.7397C16.0283 16.2037 16.4644 15.7676 17.0004 15.7676C17.5364 15.7676 17.9725 16.2037 17.9725 16.7397C17.9725 17.2757 17.5364 17.7118 17.0004 17.7118Z" fill="black"/>
<path d="M28.5825 14.5957C27.4003 14.5957 26.4385 15.5575 26.4385 16.7397C26.4385 17.9219 27.4004 18.8837 28.5825 18.8837C29.7646 18.8837 30.7264 17.9219 30.7264 16.7397C30.7264 15.5575 29.7646 14.5957 28.5825 14.5957ZM28.5825 17.7118C28.0464 17.7118 27.6104 17.2757 27.6104 16.7397C27.6104 16.2037 28.0464 15.7676 28.5825 15.7676C29.1184 15.7676 29.5545 16.2037 29.5545 16.7397C29.5545 17.2757 29.1185 17.7118 28.5825 17.7118Z" fill="black"/>
<path d="M34.3734 18.8837C35.5556 18.8837 36.5174 17.9219 36.5174 16.7397C36.5174 15.5575 35.5555 14.5957 34.3734 14.5957C33.1913 14.5957 32.2295 15.5575 32.2295 16.7397C32.2295 17.9219 33.1912 18.8837 34.3734 18.8837ZM34.3734 15.7676C34.9094 15.7676 35.3455 16.2037 35.3455 16.7397C35.3455 17.2757 34.9094 17.7118 34.3734 17.7118C33.8375 17.7118 33.4014 17.2757 33.4014 16.7397C33.4014 16.2037 33.8374 15.7676 34.3734 15.7676Z" fill="black"/>
<path d="M5.41938 20.1309C4.23719 20.1309 3.27539 21.0927 3.27539 22.2748C3.27539 23.457 4.23719 24.4188 5.41938 24.4188C6.60156 24.4188 7.56336 23.457 7.56336 22.2748C7.56336 21.0927 6.60156 20.1309 5.41938 20.1309ZM5.41938 23.2469C4.88336 23.2469 4.44727 22.8108 4.44727 22.2748C4.44727 21.7388 4.88336 21.3027 5.41938 21.3027C5.95539 21.3027 6.39148 21.7388 6.39148 22.2748C6.39148 22.8108 5.95539 23.2469 5.41938 23.2469Z" fill="black"/>
<path d="M11.2104 20.1309C10.0282 20.1309 9.06641 21.0927 9.06641 22.2748C9.06641 23.457 10.0282 24.4188 11.2104 24.4188C12.3926 24.4188 13.3544 23.457 13.3544 22.2748C13.3544 21.0927 12.3926 20.1309 11.2104 20.1309ZM11.2104 23.2469C10.6744 23.2469 10.2383 22.8108 10.2383 22.2748C10.2383 21.7388 10.6744 21.3027 11.2104 21.3027C11.7464 21.3027 12.1825 21.7388 12.1825 22.2748C12.1825 22.8108 11.7464 23.2469 11.2104 23.2469Z" fill="black"/>
<path d="M17.0004 20.1309C15.8182 20.1309 14.8564 21.0927 14.8564 22.2748C14.8564 23.457 15.8182 24.4188 17.0004 24.4188C18.1826 24.4188 19.1443 23.457 19.1443 22.2748C19.1443 21.0927 18.1825 20.1309 17.0004 20.1309ZM17.0004 23.2469C16.4644 23.2469 16.0283 22.8108 16.0283 22.2748C16.0283 21.7388 16.4644 21.3027 17.0004 21.3027C17.5364 21.3027 17.9725 21.7388 17.9725 22.2748C17.9725 22.8108 17.5364 23.2469 17.0004 23.2469Z" fill="black"/>
<path d="M28.5825 20.1309C27.4003 20.1309 26.4385 21.0927 26.4385 22.2748C26.4385 23.457 27.4004 24.4188 28.5825 24.4188C29.7646 24.4188 30.7264 23.457 30.7264 22.2748C30.7264 21.0927 29.7646 20.1309 28.5825 20.1309ZM28.5825 23.2469C28.0464 23.2469 27.6104 22.8108 27.6104 22.2748C27.6104 21.7388 28.0464 21.3027 28.5825 21.3027C29.1184 21.3027 29.5545 21.7388 29.5545 22.2748C29.5545 22.8108 29.1185 23.2469 28.5825 23.2469Z" fill="black"/>
<path d="M34.3734 24.4188C35.5556 24.4188 36.5174 23.457 36.5174 22.2748C36.5174 21.0927 35.5555 20.1309 34.3734 20.1309C33.1913 20.1309 32.2295 21.0927 32.2295 22.2748C32.2295 23.457 33.1912 24.4188 34.3734 24.4188ZM34.3734 21.3028C34.9094 21.3028 35.3455 21.7389 35.3455 22.2749C35.3455 22.8109 34.9094 23.247 34.3734 23.247C33.8375 23.247 33.4014 22.8109 33.4014 22.2749C33.4014 21.7389 33.8374 21.3028 34.3734 21.3028Z" fill="black"/>
<path d="M5.41938 25.666C4.23719 25.666 3.27539 26.6278 3.27539 27.81C3.27539 28.9922 4.23719 29.954 5.41938 29.954C6.60156 29.954 7.56336 28.9922 7.56336 27.81C7.56336 26.6278 6.60156 25.666 5.41938 25.666ZM5.41938 28.7821C4.88336 28.7821 4.44727 28.346 4.44727 27.81C4.44727 27.274 4.88336 26.8379 5.41938 26.8379C5.95539 26.8379 6.39148 27.274 6.39148 27.81C6.39148 28.346 5.95539 28.7821 5.41938 28.7821Z" fill="black"/>
<path d="M11.2104 25.666C10.0282 25.666 9.06641 26.6278 9.06641 27.81C9.06641 28.9922 10.0282 29.954 11.2104 29.954C12.3926 29.954 13.3544 28.9922 13.3544 27.81C13.3544 26.6278 12.3926 25.666 11.2104 25.666ZM11.2104 28.7821C10.6744 28.7821 10.2383 28.346 10.2383 27.81C10.2383 27.274 10.6744 26.8379 11.2104 26.8379C11.7464 26.8379 12.1825 27.274 12.1825 27.81C12.1825 28.346 11.7464 28.7821 11.2104 28.7821Z" fill="black"/>
<path d="M17.0004 25.666C15.8182 25.666 14.8564 26.6278 14.8564 27.81C14.8564 28.9922 15.8182 29.954 17.0004 29.954C18.1826 29.954 19.1443 28.9922 19.1443 27.81C19.1443 26.6278 18.1825 25.666 17.0004 25.666ZM17.0004 28.7821C16.4644 28.7821 16.0283 28.346 16.0283 27.81C16.0283 27.274 16.4644 26.8379 17.0004 26.8379C17.5364 26.8379 17.9725 27.274 17.9725 27.81C17.9725 28.346 17.5364 28.7821 17.0004 28.7821Z" fill="black"/>
<path d="M28.5825 25.666C27.4003 25.666 26.4385 26.6278 26.4385 27.81C26.4385 28.9922 27.4004 29.954 28.5825 29.954C29.7646 29.954 30.7264 28.9922 30.7264 27.81C30.7264 26.6278 29.7646 25.666 28.5825 25.666ZM28.5825 28.7821C28.0464 28.7821 27.6104 28.346 27.6104 27.81C27.6104 27.274 28.0464 26.8379 28.5825 26.8379C29.1184 26.8379 29.5545 27.274 29.5545 27.81C29.5545 28.346 29.1185 28.7821 28.5825 28.7821Z" fill="black"/>
<path d="M22.7914 14.5957C21.6092 14.5957 20.6475 15.5575 20.6475 16.7397C20.6475 17.9219 21.6093 18.8837 22.7914 18.8837C23.9735 18.8837 24.9353 17.9219 24.9353 16.7397C24.9353 15.5575 23.9736 14.5957 22.7914 14.5957ZM22.7914 17.7118C22.2554 17.7118 21.8193 17.2757 21.8193 16.7397C21.8193 16.2037 22.2554 15.7676 22.7914 15.7676C23.3273 15.7676 23.7634 16.2037 23.7634 16.7397C23.7634 17.2757 23.3274 17.7118 22.7914 17.7118Z" fill="black"/>
<path d="M22.7914 20.1309C21.6092 20.1309 20.6475 21.0927 20.6475 22.2748C20.6475 23.457 21.6093 24.4188 22.7914 24.4188C23.9735 24.4188 24.9353 23.457 24.9353 22.2748C24.9353 21.0927 23.9736 20.1309 22.7914 20.1309ZM22.7914 23.2469C22.2554 23.2469 21.8193 22.8108 21.8193 22.2748C21.8193 21.7388 22.2554 21.3027 22.7914 21.3027C23.3273 21.3027 23.7634 21.7388 23.7634 22.2748C23.7634 22.8108 23.3274 23.2469 22.7914 23.2469Z" fill="black"/>
<path d="M22.7914 25.666C21.6092 25.666 20.6475 26.6278 20.6475 27.81C20.6475 28.9922 21.6093 29.954 22.7914 29.954C23.9735 29.954 24.9353 28.9922 24.9353 27.81C24.9353 26.6278 23.9736 25.666 22.7914 25.666ZM22.7914 28.7821C22.2554 28.7821 21.8193 28.346 21.8193 27.81C21.8193 27.274 22.2554 26.8379 22.7914 26.8379C23.3273 26.8379 23.7634 27.274 23.7634 27.81C23.7634 28.346 23.3274 28.7821 22.7914 28.7821Z" fill="black"/>
<path d="M36.5174 27.81C36.5174 26.6278 35.5555 25.666 34.3734 25.666C33.1913 25.666 32.2295 26.6278 32.2295 27.81C32.2295 28.9922 33.1913 29.954 34.3734 29.954C35.5555 29.954 36.5174 28.9922 36.5174 27.81ZM33.4013 27.81C33.4013 27.274 33.8374 26.8379 34.3733 26.8379C34.9093 26.8379 35.3454 27.274 35.3454 27.81C35.3454 28.346 34.9093 28.7821 34.3733 28.7821C33.8374 28.7821 33.4013 28.346 33.4013 27.81Z" fill="black"/>
<path d="M5.41938 31.2031C4.23719 31.2031 3.27539 32.1649 3.27539 33.3471C3.27539 34.5293 4.23719 35.4911 5.41938 35.4911C6.60156 35.4911 7.56336 34.5293 7.56336 33.3471C7.56336 32.1649 6.60156 31.2031 5.41938 31.2031ZM5.41938 34.3192C4.88336 34.3192 4.44727 33.8831 4.44727 33.3471C4.44727 32.8111 4.88336 32.375 5.41938 32.375C5.95539 32.375 6.39148 32.8111 6.39148 33.3471C6.39148 33.8831 5.95539 34.3192 5.41938 34.3192Z" fill="black"/>
<path d="M11.2104 31.2031C10.0282 31.2031 9.06641 32.1649 9.06641 33.3471C9.06641 34.5293 10.0282 35.4911 11.2104 35.4911C12.3926 35.4911 13.3544 34.5293 13.3544 33.3471C13.3544 32.1649 12.3926 31.2031 11.2104 31.2031ZM11.2104 34.3192C10.6744 34.3192 10.2383 33.8831 10.2383 33.3471C10.2383 32.8111 10.6744 32.375 11.2104 32.375C11.7464 32.375 12.1825 32.8111 12.1825 33.3471C12.1825 33.8831 11.7464 34.3192 11.2104 34.3192Z" fill="black"/>
<path d="M17.0004 31.2031C15.8182 31.2031 14.8564 32.1649 14.8564 33.3471C14.8564 34.5293 15.8182 35.4911 17.0004 35.4911C18.1826 35.4911 19.1443 34.5293 19.1443 33.3471C19.1443 32.1649 18.1825 31.2031 17.0004 31.2031ZM17.0004 34.3192C16.4644 34.3192 16.0283 33.8831 16.0283 33.3471C16.0283 32.8111 16.4644 32.375 17.0004 32.375C17.5364 32.375 17.9725 32.8111 17.9725 33.3471C17.9725 33.8831 17.5364 34.3192 17.0004 34.3192Z" fill="black"/>
</g>
<defs>
<clipPath id="clip0_427_5261">
<rect width="40" height="40" fill="white"/>
</clipPath>
</defs>
</svg>
