<svg width="24" height="24" viewBox="0 0 24 24" fill="none" xmlns="http://www.w3.org/2000/svg">
<path d="M12 24C18.6274 24 24 18.6274 24 12C24 5.37258 18.6274 0 12 0C5.37258 0 0 5.37258 0 12C0 18.6274 5.37258 24 12 24Z" fill="#F15249"/>
<path d="M16.6729 14.1894C17.109 14.6242 17.109 15.3696 16.6729 15.8043L15.8006 16.6739C15.3645 17.1087 14.6168 17.1087 14.1807 16.6739L7.3271 9.84161C6.89097 9.40683 6.89097 8.66149 7.3271 8.22671L8.23053 7.32609C8.66667 6.8913 9.41433 6.8913 9.85047 7.32609L16.6729 14.1894Z" fill="white"/>
<path d="M13.3309 11L11 13.3422L14.3669 16.6964C14.7698 17.1012 15.4604 17.1012 15.8633 16.6964L16.6978 15.8578C17.1007 15.453 17.1007 14.759 16.6978 14.3542L13.3309 11Z" fill="white"/>
<path d="M14.1584 7.3271C14.5932 6.89097 15.3385 6.89097 15.7733 7.3271L16.6739 8.23053C17.1087 8.66667 17.1087 9.41433 16.6739 9.85047L9.81056 16.6729C9.37578 17.109 8.63043 17.109 8.19565 16.6729L7.32609 15.8006C6.8913 15.3645 6.8913 14.6168 7.32609 14.1807L14.1584 7.3271Z" fill="white"/>
</svg>
