<svg width="36" height="36" viewBox="0 0 36 36" fill="none" xmlns="http://www.w3.org/2000/svg">
<path d="M7.87315 21.9121C6.42675 21.9121 5.25 23.0889 5.25 24.5353C5.25 25.9816 6.42675 27.1583 7.87315 27.1583C9.31955 27.1583 10.4962 25.9816 10.4962 24.5353C10.4963 23.0889 9.31955 21.9121 7.87315 21.9121ZM7.87315 26.1018C7.00936 26.1018 6.30659 25.399 6.30659 24.5353C6.30659 23.6715 7.00936 22.9688 7.87315 22.9688C8.73694 22.9688 9.43964 23.6715 9.43964 24.5353C9.43971 25.399 8.73694 26.1018 7.87315 26.1018Z" fill="white"/>
<path d="M28.0312 21.9121C26.5849 21.9121 25.4082 23.0889 25.4082 24.5353C25.4082 25.9816 26.5849 27.1583 28.0312 27.1583C29.4776 27.1583 30.6544 25.9816 30.6544 24.5353C30.6544 23.0889 29.4776 21.9121 28.0312 21.9121ZM28.0312 26.1018C27.1674 26.1018 26.4648 25.399 26.4648 24.5353C26.4648 23.6715 27.1675 22.9688 28.0312 22.9688C28.8951 22.9688 29.5978 23.6715 29.5978 24.5353C29.5978 25.399 28.8951 26.1018 28.0312 26.1018Z" fill="white"/>
<path d="M22.7069 26.6641H13.2881C12.9964 26.6641 12.7598 26.9005 12.7598 27.1924C12.7598 27.4841 12.9963 27.7207 13.2881 27.7207H22.7069C22.9988 27.7207 23.2353 27.4842 23.2353 27.1924C23.2353 26.9006 22.9988 26.6641 22.7069 26.6641Z" fill="white"/>
<path d="M22.7069 24.6953H13.2881C12.9964 24.6953 12.7598 24.9318 12.7598 25.2236C12.7598 25.5154 12.9963 25.752 13.2881 25.752H22.7069C22.9988 25.752 23.2353 25.5155 23.2353 25.2236C23.2353 24.9318 22.9988 24.6953 22.7069 24.6953Z" fill="white"/>
<path d="M36 17.6113C36 16.2067 34.8573 15.064 33.4526 15.064C31.7382 15.064 30.4988 16.7389 31.026 18.386L29.8872 19.1022C29.8487 17.9588 29.6452 16.839 29.2792 15.7628C34.3364 13.2776 35.4717 6.56039 31.4769 2.56545C31.2706 2.35915 30.9361 2.35908 30.7299 2.56538C30.5235 2.77167 30.5235 3.10622 30.7298 3.31245C32.0851 4.66786 32.8315 6.46667 32.8315 8.37769C32.8315 14.2408 26.1347 17.6136 21.4309 14.1538C19.6483 12.8468 18.4979 10.7313 18.4979 8.37769C18.4979 2.78609 24.6505 -0.652054 29.4024 2.26486C29.6511 2.41758 29.9764 2.3396 30.129 2.09105C30.2816 1.84242 30.2039 1.51702 29.9552 1.36437C24.667 -1.88175 17.8246 1.72528 17.4568 7.88199C11.288 7.98675 6.27497 12.9211 6.04392 19.0589L4.97412 18.386C5.50097 16.7396 4.2627 15.064 2.54756 15.064C1.14272 15.064 0 16.2067 0 17.6113C0 19.9473 2.89723 21.0451 4.44888 19.3039L5.3988 19.9013C4.0867 20.4484 3.13545 21.6912 3.00727 23.1665H2.68348C1.77152 23.1665 1.02959 23.9085 1.02959 24.8204V26.6964C1.02959 27.6082 1.77152 28.3502 2.68348 28.3502H2.99152V28.8391C2.28403 29.0089 1.75648 29.6465 1.75648 30.4053C1.75648 31.2935 2.47922 32.0162 3.36748 32.0162H4.74237V34.2002C4.74237 35.1121 5.4843 35.854 6.39619 35.854H9.77295C10.6849 35.854 11.4268 35.1121 11.4268 34.2002V33.9179L14.0247 32.0164H21.9045L24.5024 33.9179V34.2002C24.5024 35.1121 25.2443 35.854 26.1562 35.854H29.5331C30.445 35.854 31.1869 35.1121 31.1869 34.2002V32.0165H32.5618C33.4501 32.0165 34.1728 31.2938 34.1728 30.4056C34.1728 29.6468 33.6452 29.0092 32.9378 28.8394V28.3505H33.2606C34.1725 28.3505 34.9144 27.6085 34.9144 26.6966V24.8207C34.9144 23.9088 34.1725 23.1668 33.2606 23.1668H32.9219C32.7951 21.7074 31.8628 20.4754 30.5726 19.9195L31.5509 19.3041C33.1055 21.0484 36 19.9436 36 17.6113ZM33.4526 16.1206C34.2747 16.1206 34.9434 16.7893 34.9434 17.6113C34.9434 18.4334 34.2747 19.1021 33.4526 19.1021C32.6306 19.1021 31.9617 18.4334 31.9617 17.6113C31.9617 16.7894 32.6306 16.1206 33.4526 16.1206ZM2.54735 19.1022C1.72533 19.1022 1.05659 18.4335 1.05659 17.6114C1.05659 16.7895 1.72533 16.1207 2.54735 16.1207C3.36937 16.1207 4.03812 16.7895 4.03812 17.6114C4.03819 18.4334 3.36937 19.1022 2.54735 19.1022ZM28.3011 16.1677C28.6936 17.3477 28.838 18.4463 28.838 19.6024H27.4369C27.4325 18.5353 27.2499 17.4981 26.8926 16.5094C27.3545 16.4402 27.8391 16.3245 28.3011 16.1677ZM25.7965 16.6C26.1796 17.5536 26.3759 18.5617 26.3806 19.6024C25.567 19.6024 10.0801 19.6024 9.54851 19.6024C9.56812 15.4174 12.8104 11.4668 18.0439 11.4668C19.2895 14.541 22.3424 16.6587 25.7965 16.6ZM23.0676 20.6633L22.3858 22.7291H13.5433L12.8616 20.6633H23.0676ZM17.4605 8.93794C17.4941 9.43245 17.574 9.93364 17.6958 10.4106C12.6311 10.4253 8.51351 14.5393 8.49227 19.6024H7.09116C7.09116 13.5604 11.8669 9.04017 17.4605 8.93794ZM2.68348 27.2938C2.35413 27.2938 2.08617 27.0258 2.08617 26.6966V24.8206C2.08617 24.4912 2.35413 24.2232 2.68348 24.2232H2.99152V27.2938H2.68348ZM10.3703 33.8556C10.3703 34.0018 10.3703 34.0502 10.3703 34.0494C10.3703 34.0913 10.3703 34.1411 10.3703 34.2003C10.3703 34.5296 10.1023 34.7975 9.77302 34.7975H6.39626C6.06691 34.7975 5.79902 34.5295 5.79902 34.2003V32.0165H10.3703C10.3703 33.0754 10.3703 33.6071 10.3703 33.8556ZM11.4268 32.6087V32.0166H12.2359L11.4268 32.6087ZM24.5024 32.6086L23.6934 32.0165H24.5024V32.6086ZM30.1303 34.2004C30.1303 34.5297 29.8624 34.7975 29.5331 34.7975H26.1562C25.8269 34.7975 25.559 34.5296 25.559 34.2004C25.559 33.8632 25.559 33.6614 25.559 33.5454C25.559 33.4381 25.559 33.4042 25.559 33.4068C25.559 33.2233 25.559 32.8241 25.559 32.0166H30.1303V34.2004ZM32.9378 24.2232H33.2607C33.5899 24.2233 33.8579 24.4912 33.8579 24.8206V26.6965C33.8579 27.0258 33.5899 27.2937 33.2607 27.2937H32.9378V24.2232ZM31.8812 23.5075C31.8812 25.2734 31.8812 27.0282 31.8812 28.7947H7.31672C7.02499 28.7947 6.78846 29.0311 6.78846 29.323C6.78846 29.6149 7.02499 29.8513 7.31672 29.8513H32.5619C32.8676 29.8513 33.1163 30.1 33.1163 30.4058C33.1163 30.7115 32.8676 30.9601 32.5619 30.9601C31.6939 30.9601 5.17641 30.9601 3.36755 30.9601C3.06183 30.9601 2.81313 30.7115 2.81313 30.4058C2.81313 30.1 3.06183 29.8513 3.36755 29.8513H5.50884C5.80057 29.8513 6.03717 29.6149 6.03717 29.323C6.03717 29.0312 5.80064 28.7947 5.50884 28.7947H4.0481C4.0481 27.8109 4.06301 27.8222 4.06301 27.8222C4.06301 23.399 4.0481 23.5075 4.0481 23.5075C4.0481 21.9369 5.32589 20.659 6.89653 20.659C7.24662 20.659 11.399 20.6633 11.7491 20.6633L12.6597 23.423C12.7311 23.6395 12.9334 23.7857 13.1614 23.7857H22.7679C22.9958 23.7857 23.1981 23.6394 23.2696 23.423L24.1803 20.6633C27.2294 20.6633 26.9348 20.6921 27.0522 20.659C31.2133 20.659 27.4864 20.6574 29.3606 20.6784C30.7773 20.8416 31.8812 22.0477 31.8812 23.5075Z" fill="white"/>
<path d="M25.6655 1.91406C22.1022 1.91406 19.2031 4.81305 19.2031 8.37648C19.2031 12.9514 23.8686 16.1063 28.1205 14.3545C28.3902 14.2434 28.5188 13.9345 28.4077 13.6648C28.2965 13.395 27.9878 13.2664 27.7179 13.3776C24.1665 14.841 20.2597 12.2075 20.2597 8.37648C20.2597 5.3958 22.6848 2.97065 25.6655 2.97065C28.6463 2.97065 31.0714 5.39572 31.0714 8.37648C31.0714 9.99922 30.3489 11.5228 29.0891 12.5566C28.8636 12.7418 28.8307 13.0746 29.0159 13.3002C29.2011 13.5257 29.534 13.5584 29.7594 13.3734C31.2647 12.1381 32.128 10.3168 32.128 8.37648C32.128 4.81305 29.2289 1.91406 25.6655 1.91406Z" fill="white"/>
<path d="M28.1816 5.35938C27.7992 5.35938 27.4284 5.51772 27.1642 5.79377L24.8442 8.21575L23.8076 7.24495C23.2387 6.71219 22.347 6.74376 21.8164 7.31034C21.2842 7.87846 21.3132 8.76925 21.8817 9.30152L23.935 11.2245C24.5063 11.7596 25.3901 11.7195 25.9155 11.1708L29.199 7.74276C30.0566 6.84726 29.4146 5.35938 28.1816 5.35938ZM28.4358 7.01193C24.8801 10.724 25.1103 10.5486 24.8977 10.5486C24.7064 10.5486 24.8187 10.6048 22.6037 8.53033C22.535 8.46606 22.4956 8.37888 22.4925 8.28494C22.4823 7.97001 22.8583 7.80344 23.0852 8.01634L24.5031 9.34427C24.7143 9.54198 25.0455 9.5332 25.2457 9.32402L27.9272 6.52459C28.0629 6.38277 28.2857 6.38045 28.425 6.51405C28.5653 6.64813 28.5702 6.87159 28.4358 7.01193Z" fill="white"/>
</svg>
