<svg width="66" height="66" viewBox="0 0 66 66" fill="none" xmlns="http://www.w3.org/2000/svg">
<g clip-path="url(#clip0_261_2983)">
<path d="M58.245 29.8031L54.6944 29.2122C54.2415 29.1374 53.811 28.9623 53.4344 28.6999C53.0578 28.4374 52.7445 28.0942 52.5174 27.6953L47.6138 19.1152C46.8007 17.6958 45.6275 16.5158 44.2127 15.6945C42.7979 14.8733 41.1916 14.4397 39.5557 14.4375H22.3193C20.6835 14.4396 19.0772 14.873 17.6624 15.6941C16.2476 16.5152 15.0744 17.6949 14.2612 19.1142L9.25959 27.8664C9.05156 28.2284 8.77278 28.5448 8.43988 28.7967C8.10697 29.0487 7.72675 29.231 7.32188 29.3329L3.90431 30.1867C3.0534 30.3997 2.27115 30.8269 1.63197 31.4277C0.9928 32.0284 0.517969 32.7827 0.252656 33.6187C0.241313 33.6456 0.240281 33.6775 0.231 33.7054C0.0816977 34.186 0.00386563 34.686 0 35.1893L0 42.2812C0.00163748 43.6483 0.54541 44.9588 1.51204 45.9255C2.47867 46.8921 3.78923 47.4359 5.15625 47.4375H8.95641C9.53965 48.6714 10.4614 49.7141 11.6144 50.4444C12.7673 51.1747 14.104 51.5624 15.4688 51.5624C16.8335 51.5624 18.1702 51.1747 19.3231 50.4444C20.4761 49.7141 21.3978 48.6714 21.9811 47.4375H44.0189C44.6022 48.6714 45.5239 49.7141 46.6769 50.4444C47.8298 51.1747 49.1665 51.5624 50.5312 51.5624C51.896 51.5624 53.2327 51.1747 54.3856 50.4444C55.5386 49.7141 56.4603 48.6714 57.0436 47.4375H60.8438C62.2108 47.4359 63.5213 46.8921 64.488 45.9255C65.4546 44.9588 65.9984 43.6483 66 42.2812V38.9575C66.0055 36.7592 65.2281 34.6306 63.8071 32.9532C62.3861 31.2758 60.4144 30.1591 58.245 29.8031ZM62.7969 35.0625C63.2048 35.6983 63.51 36.3943 63.7013 37.125H62.9062C62.0881 37.1248 61.3032 36.8016 60.7221 36.2257C60.3954 35.8966 60.1454 35.4994 59.9899 35.0625H62.7969ZM2.07281 35.0625H3.83522L3.31959 37.125H2.0625V35.1893C2.0625 35.146 2.07178 35.1048 2.07281 35.0625ZM15.4688 49.5C14.4489 49.5 13.452 49.1976 12.6041 48.631C11.7562 48.0644 11.0953 47.2591 10.705 46.317C10.3147 45.3748 10.2126 44.338 10.4116 43.3378C10.6105 42.3376 11.1016 41.4188 11.8227 40.6977C12.5438 39.9766 13.4626 39.4855 14.4628 39.2866C15.463 39.0876 16.4998 39.1897 17.442 39.58C18.3841 39.9703 19.1894 40.6311 19.756 41.4791C20.3226 42.327 20.625 43.3239 20.625 44.3438C20.6234 45.7108 20.0796 47.0213 19.113 47.988C18.1463 48.9546 16.8358 49.4984 15.4688 49.5ZM50.5312 49.5C49.5114 49.5 48.5145 49.1976 47.6666 48.631C46.8186 48.0644 46.1578 47.2591 45.7675 46.317C45.3772 45.3748 45.2751 44.338 45.4741 43.3378C45.673 42.3376 46.1641 41.4188 46.8852 40.6977C47.6063 39.9766 48.5251 39.4855 49.5253 39.2866C50.5255 39.0876 51.5623 39.1897 52.5045 39.58C53.4466 39.9703 54.2519 40.6311 54.8185 41.4791C55.3851 42.327 55.6875 43.3239 55.6875 44.3438C55.6859 45.7108 55.1421 47.0213 54.1755 47.988C53.2088 48.9546 51.8983 49.4984 50.5312 49.5ZM60.8438 45.375H57.6675C57.8243 44.3469 57.7571 43.2971 57.4705 42.2973C57.1839 41.2976 56.6846 40.3717 56.0069 39.5828C55.3292 38.7939 54.4891 38.1608 53.544 37.7268C52.5989 37.2927 51.5712 37.068 50.5312 37.068C49.4913 37.068 48.4636 37.2927 47.5185 37.7268C46.5734 38.1608 45.7333 38.7939 45.0556 39.5828C44.3779 40.3717 43.8786 41.2976 43.592 42.2973C43.3054 43.2971 43.2382 44.3469 43.395 45.375H22.605C22.7618 44.3469 22.6946 43.2971 22.408 42.2973C22.1214 41.2976 21.6221 40.3717 20.9444 39.5828C20.2667 38.7939 19.4266 38.1608 18.4815 37.7268C17.5364 37.2927 16.5087 37.068 15.4688 37.068C14.4288 37.068 13.4011 37.2927 12.456 37.7268C11.5109 38.1608 10.6708 38.7939 9.99307 39.5828C9.31538 40.3717 8.81615 41.2976 8.52954 42.2973C8.24293 43.2971 8.17572 44.3469 8.3325 45.375H5.15625C4.33574 45.375 3.54883 45.0491 2.96864 44.4689C2.38845 43.8887 2.0625 43.1018 2.0625 42.2812V39.1875H4.125C4.3549 39.1875 4.5782 39.1107 4.75943 38.9692C4.94067 38.8278 5.06945 38.6298 5.12531 38.4068L6.15656 34.2818C6.19465 34.1298 6.19758 33.971 6.16512 33.8177C6.13266 33.6643 6.06566 33.5204 5.96922 33.3968C5.87278 33.2732 5.74944 33.1733 5.60857 33.1045C5.4677 33.0357 5.31301 33 5.15625 33H2.97928C3.37243 32.6053 3.86538 32.3248 4.4055 32.1884L7.82409 31.3335C8.49821 31.1633 9.1312 30.8592 9.68538 30.4393C10.2395 30.0194 10.7036 29.4924 11.0498 28.8894L16.0514 20.1372C16.6841 19.0334 17.5967 18.1159 18.6972 17.4773C19.7976 16.8387 21.047 16.5016 22.3193 16.5H39.5557C40.828 16.5016 42.0774 16.8387 43.1778 17.4773C44.2783 18.1159 45.1909 19.0334 45.8236 20.1372L50.7262 28.7172C51.1043 29.3826 51.6264 29.9551 52.2543 30.3928C52.8822 30.8305 53.6 31.1223 54.3551 31.2469L57.9057 31.8388C58.944 32.0106 59.9322 32.4069 60.8015 33H58.7812C58.5077 33 58.2454 33.1086 58.052 33.302C57.8587 33.4954 57.75 33.7577 57.75 34.0312C57.7493 34.7086 57.8822 35.3794 58.1411 36.0053C58.4 36.6312 58.7798 37.1998 59.2587 37.6788C59.7377 38.1577 60.3063 38.5375 60.9322 38.7964C61.5581 39.0553 62.2289 39.1882 62.9062 39.1875H63.9375V42.2812C63.9375 43.1018 63.6115 43.8887 63.0314 44.4689C62.4512 45.0491 61.6643 45.375 60.8438 45.375Z" fill="black"/>
<path d="M46.8786 24.2189C46.7377 23.9844 46.5095 23.8154 46.244 23.7492C45.9786 23.6829 45.6977 23.7248 45.4632 23.8657C45.2287 24.0066 45.0597 24.2348 44.9934 24.5002C44.9272 24.7657 44.9691 25.0466 45.11 25.2811L46.6476 27.8438H34.0313V19.5938H39.9455C40.4796 19.5952 41.0043 19.7342 41.469 19.9974C41.9338 20.2606 42.3229 20.639 42.5989 21.0963L43.2527 22.1873C43.3936 22.4219 43.6218 22.5908 43.8872 22.6571C44.1527 22.7233 44.4336 22.6814 44.6681 22.5405C44.9026 22.3997 45.0716 22.1714 45.1378 21.906C45.2041 21.6406 45.1621 21.3597 45.0213 21.1252L44.3664 20.0341C43.9066 19.2723 43.2582 18.6419 42.4839 18.2035C41.7095 17.7651 40.8353 17.5336 39.9455 17.5312H33C32.7265 17.5312 32.4642 17.6399 32.2708 17.8333C32.0774 18.0267 31.9688 18.289 31.9688 18.5625V28.875C31.9688 29.1485 32.0774 29.4108 32.2708 29.6042C32.4642 29.7976 32.7265 29.9062 33 29.9062H48.4688C48.6513 29.9062 48.8305 29.8577 48.9882 29.7658C49.1459 29.6738 49.2763 29.5416 49.3662 29.3827C49.456 29.2239 49.5021 29.044 49.4997 28.8615C49.4973 28.679 49.4465 28.5004 49.3525 28.3439L46.8786 24.2189Z" fill="black"/>
<path d="M28.8748 17.5312H21.9293C21.0395 17.5336 20.1653 17.7651 19.391 18.2035C18.6166 18.6419 17.9682 19.2723 17.5084 20.0341L12.5223 28.3439C12.4283 28.5004 12.3775 28.679 12.3751 28.8615C12.3727 29.044 12.4188 29.2239 12.5087 29.3827C12.5985 29.5416 12.729 29.6738 12.8866 29.7658C13.0443 29.8577 13.2235 29.9062 13.4061 29.9062H28.8748C29.1483 29.9062 29.4106 29.7976 29.604 29.6042C29.7974 29.4108 29.9061 29.1485 29.9061 28.875V18.5625C29.9061 18.289 29.7974 18.0267 29.604 17.8333C29.4106 17.6399 29.1483 17.5312 28.8748 17.5312ZM27.8436 27.8438H15.2272L19.2759 21.0963C19.5519 20.639 19.941 20.2606 20.4058 19.9974C20.8705 19.7342 21.3953 19.5952 21.9293 19.5938H27.8436V27.8438Z" fill="black"/>
<path d="M35.0625 30.9375H33C32.7265 30.9375 32.4642 31.0461 32.2708 31.2395C32.0774 31.4329 31.9688 31.6952 31.9688 31.9688C31.9688 32.2423 32.0774 32.5046 32.2708 32.698C32.4642 32.8914 32.7265 33 33 33H35.0625C35.336 33 35.5983 32.8914 35.7917 32.698C35.9851 32.5046 36.0938 32.2423 36.0938 31.9688C36.0938 31.6952 35.9851 31.4329 35.7917 31.2395C35.5983 31.0461 35.336 30.9375 35.0625 30.9375Z" fill="black"/>
<path d="M15.4688 30.9375H13.4062C13.1327 30.9375 12.8704 31.0461 12.677 31.2395C12.4836 31.4329 12.375 31.6952 12.375 31.9688C12.375 32.2423 12.4836 32.5046 12.677 32.698C12.8704 32.8914 13.1327 33 13.4062 33H15.4688C15.7423 33 16.0046 32.8914 16.198 32.698C16.3914 32.5046 16.5 32.2423 16.5 31.9688C16.5 31.6952 16.3914 31.4329 16.198 31.2395C16.0046 31.0461 15.7423 30.9375 15.4688 30.9375Z" fill="black"/>
<path d="M50.5313 41.25C49.9194 41.25 49.3212 41.4314 48.8125 41.7714C48.3037 42.1113 47.9072 42.5945 47.673 43.1598C47.4388 43.7251 47.3776 44.3472 47.4969 44.9473C47.6163 45.5474 47.911 46.0987 48.3436 46.5314C48.7763 46.964 49.3276 47.2587 49.9277 47.3781C50.5278 47.4974 51.1499 47.4362 51.7152 47.202C52.2805 46.9678 52.7637 46.5713 53.1036 46.0625C53.4436 45.5538 53.625 44.9556 53.625 44.3438C53.625 43.5232 53.2991 42.7363 52.7189 42.1561C52.1387 41.5759 51.3518 41.25 50.5313 41.25ZM50.5313 45.375C50.3273 45.375 50.1279 45.3145 49.9583 45.2012C49.7887 45.0879 49.6566 44.9268 49.5785 44.7384C49.5005 44.55 49.48 44.3426 49.5198 44.1426C49.5596 43.9425 49.6578 43.7588 49.802 43.6145C49.9463 43.4703 50.13 43.3721 50.3301 43.3323C50.5301 43.2925 50.7375 43.313 50.9259 43.391C51.1143 43.4691 51.2754 43.6012 51.3887 43.7708C51.502 43.9404 51.5625 44.1398 51.5625 44.3438C51.5625 44.6173 51.4539 44.8796 51.2605 45.073C51.0671 45.2664 50.8048 45.375 50.5313 45.375Z" fill="black"/>
<path d="M15.4688 41.25C14.8569 41.25 14.2587 41.4314 13.75 41.7714C13.2412 42.1113 12.8447 42.5945 12.6105 43.1598C12.3763 43.7251 12.3151 44.3472 12.4344 44.9473C12.5538 45.5474 12.8485 46.0987 13.2811 46.5314C13.7138 46.964 14.2651 47.2587 14.8652 47.3781C15.4653 47.4974 16.0874 47.4362 16.6527 47.202C17.218 46.9678 17.7012 46.5713 18.0411 46.0625C18.3811 45.5538 18.5625 44.9556 18.5625 44.3438C18.5625 43.5232 18.2366 42.7363 17.6564 42.1561C17.0762 41.5759 16.2893 41.25 15.4688 41.25ZM15.4688 45.375C15.2648 45.375 15.0654 45.3145 14.8958 45.2012C14.7262 45.0879 14.5941 44.9268 14.516 44.7384C14.4379 44.55 14.4175 44.3426 14.4573 44.1426C14.4971 43.9425 14.5953 43.7588 14.7395 43.6145C14.8838 43.4703 15.0675 43.3721 15.2676 43.3323C15.4676 43.2925 15.675 43.313 15.8634 43.391C16.0518 43.4691 16.2129 43.6012 16.3262 43.7708C16.4395 43.9404 16.5 44.1398 16.5 44.3438C16.5 44.6173 16.3913 44.8796 16.198 45.073C16.0046 45.2664 15.7423 45.375 15.4688 45.375Z" fill="black"/>
</g>
<defs>
<clipPath id="clip0_261_2983">
<rect width="66" height="66" fill="white"/>
</clipPath>
</defs>
</svg>
