<svg width="44" height="44" viewBox="0 0 44 44" fill="none" xmlns="http://www.w3.org/2000/svg">
<g clip-path="url(#clip0_291_5558)">
<path d="M35.7781 24.4551C34.663 24.4551 33.7559 25.3623 33.7559 26.4774C33.7559 27.5924 34.6631 28.4996 35.7781 28.4996C36.8932 28.4996 37.8004 27.5924 37.8004 26.4774C37.8004 25.3623 36.8932 24.4551 35.7781 24.4551ZM35.7781 27.2106C35.3738 27.2106 35.0449 26.8816 35.0449 26.4774C35.0449 26.0731 35.3739 25.7441 35.7781 25.7441C36.1824 25.7441 36.5114 26.0731 36.5114 26.4774C36.5114 26.8816 36.1824 27.2106 35.7781 27.2106Z" fill="white"/>
<path d="M9.60041 24.4551C8.48528 24.4551 7.57812 25.3623 7.57812 26.4774C7.57812 27.5924 8.48537 28.4996 9.60041 28.4996C10.7154 28.4996 11.6227 27.5924 11.6227 26.4774C11.6227 25.3623 10.7155 24.4551 9.60041 24.4551ZM9.60041 27.2106C9.19607 27.2106 8.86719 26.8816 8.86719 26.4774C8.86719 26.0731 9.19616 25.7441 9.60041 25.7441C10.0047 25.7441 10.3336 26.0731 10.3336 26.4774C10.3336 26.8816 10.0047 27.2106 9.60041 27.2106Z" fill="white"/>
<path d="M43.1207 20.7602C42.3387 19.9324 40.79 18.9456 37.8516 18.9441L32.4809 18.8247L28.2032 14.5471C27.0406 13.3845 25.4947 12.7441 23.8506 12.7441H17.1779C15.2639 12.7441 13.3976 13.1174 11.6309 13.8536L7.12035 15.733C6.36599 16.0473 5.5733 16.2653 4.7642 16.3808L1.83382 16.7995C1.18113 16.8928 0.688961 17.4602 0.688961 18.1195V21.2093C0.588672 21.2646 0.494484 21.3314 0.410867 21.4115C0.149703 21.6617 0 22.0126 0 22.3741V24.7494C0 25.6475 0.603109 26.447 1.4667 26.6939L4.98077 27.6979C5.52148 29.743 7.38719 31.2553 9.59999 31.2553C12.2345 31.2553 14.3779 29.1121 14.3779 26.4775C14.3779 25.0063 13.7091 23.6888 12.6601 22.8116L29.5501 23.5303C29.9059 23.5453 30.2063 23.2694 30.2215 22.9138C30.2366 22.5582 29.9606 22.2576 29.605 22.2425L4.73352 21.1842V20.9665C4.73352 19.4715 3.51734 18.2553 2.02237 18.2553H1.97802V18.1195C1.97802 18.0976 1.99435 18.0787 2.01609 18.0756L4.94648 17.6569C5.86317 17.526 6.76148 17.279 7.61621 16.9229L9.5541 16.1154L10.4018 17.8108C10.9672 18.9415 12.1034 19.6613 13.3673 19.6894L37.8302 20.2331C37.8349 20.2332 37.8397 20.2332 37.8446 20.2332C39.1587 20.2332 40.1264 20.4483 40.8367 20.7462C40.0605 21.0471 39.5495 21.7852 39.5495 22.6301V22.8603L38.8464 22.8191C38.0157 22.1212 36.9453 21.6998 35.7779 21.6998C33.1434 21.6998 31.0001 23.8431 31.0001 26.4776C31.0001 26.7269 31.0194 26.9718 31.0564 27.2109H16.4892C16.1332 27.2109 15.8446 27.4994 15.8446 27.8554C15.8446 28.2113 16.1332 28.4999 16.4892 28.4999H31.4505C32.2136 30.1261 33.866 31.2554 35.7779 31.2554C37.6899 31.2554 39.3423 30.1261 40.1053 28.4999H41.9779C43.093 28.4999 44.0002 27.5927 44.0002 26.4776V23.0438C44 22.1715 43.6877 21.3606 43.1207 20.7602ZM13.0889 26.4776C13.0889 28.4013 11.5238 29.9664 9.60008 29.9664C7.67637 29.9664 6.11127 28.4014 6.11127 26.4776C6.11127 24.5538 7.67628 22.9887 9.60008 22.9887C11.5239 22.9887 13.0889 24.5538 13.0889 26.4776ZM4.82634 26.3132L1.82084 25.4545C1.50769 25.365 1.28906 25.0751 1.28906 24.7494V22.3742C1.28906 22.3695 1.28906 22.3553 1.30273 22.3422C1.3163 22.3291 1.3304 22.3294 1.3353 22.3299L6.86271 22.5651C5.67222 23.4005 4.8791 24.7641 4.82634 26.3132ZM2.02228 19.5443C2.80646 19.5443 3.44438 20.1822 3.44438 20.9664V21.1293L1.97794 21.0669V19.5443H2.02228ZM27.2918 15.4586L30.6165 18.7834L21.2668 18.5756V14.0332H23.8506C25.1505 14.0332 26.3725 14.5395 27.2918 15.4586ZM19.9777 14.0332V18.5469L14.3779 18.4225V14.3346C15.2934 14.1347 16.2291 14.0331 17.1779 14.0331H19.9777V14.0332ZM11.5546 17.2343L10.7467 15.6185L12.1266 15.0436C12.4439 14.9113 12.7649 14.7925 13.0889 14.6861V18.3712C12.4305 18.2598 11.8591 17.8432 11.5546 17.2343ZM40.8383 22.63C40.8383 22.3042 41.0479 22.022 41.3599 21.928L42.2068 21.6728C42.5314 22.0305 42.7108 22.5151 42.7108 23.0436V23.0453L40.8382 22.9356V22.63H40.8383ZM35.7778 29.9664C33.854 29.9664 32.289 28.4014 32.289 26.4776C32.289 24.5538 33.854 22.9887 35.7778 22.9887C37.7015 22.9887 39.2666 24.5538 39.2666 26.4776C39.2666 28.4014 37.7015 29.9664 35.7778 29.9664ZM41.9777 27.2108H40.4993C40.5362 26.9717 40.5556 26.7269 40.5556 26.4776C40.5556 25.6434 40.3403 24.8589 39.963 24.1757L42.7109 24.3367V26.4776C42.7109 26.8819 42.382 27.2108 41.9777 27.2108Z" fill="white"/>
</g>
<defs>
<clipPath id="clip0_291_5558">
<rect width="44" height="44" fill="white"/>
</clipPath>
</defs>
</svg>
