<svg width="60" height="60" viewBox="0 0 60 60" fill="none" xmlns="http://www.w3.org/2000/svg">
<path d="M58.4073 20.5893L39.4082 1.59035C38.3825 0.564844 37.0148 0 35.5568 0C34.0989 0 32.7311 0.56461 31.7054 1.59012L1.59035 31.7053C0.564844 32.7309 0 34.0985 0 35.5566C0 37.0146 0.564844 38.3824 1.59035 39.4078L3.93316 41.7506C3.9334 41.7508 3.93352 41.751 3.93375 41.7512C3.93398 41.7515 3.93422 41.7517 3.93445 41.7519L19.6798 57.4972H17.4996C16.8094 57.4972 16.2497 58.0568 16.2497 58.7472C16.2497 59.4374 16.8094 59.9971 17.4996 59.9971H24.4358C24.4375 59.9971 24.439 59.9972 24.4406 59.9972C24.4423 59.9972 24.4438 59.9971 24.4454 59.9971L42.4985 59.9973C43.1887 59.9973 43.7484 59.4376 43.7484 58.7474C43.7484 58.057 43.1887 57.4975 42.4985 57.4975L29.202 57.4972L58.4074 28.2918C60.5309 26.1681 60.5309 22.7127 58.4073 20.5893ZM56.6396 26.5241L26.5243 56.6394C25.972 57.1916 25.2337 57.4961 24.4452 57.4972H24.4357C23.6474 57.496 22.9093 57.1916 22.3573 56.6394L6.58535 40.8674L35.5066 11.9459C35.9947 11.4578 35.9947 10.6663 35.5066 10.1782C35.0184 9.69012 34.2272 9.69012 33.7389 10.1783L4.81758 39.0999L3.35789 37.6402C2.80465 37.0869 2.49996 36.347 2.49996 35.5567C2.49996 34.7664 2.80465 34.0263 3.35801 33.473L33.4731 3.35789C34.0264 2.80465 34.7665 2.49996 35.5568 2.49996C36.3471 2.49996 37.0872 2.80465 37.6405 3.35801L44.4026 10.12L15.4809 39.0418C14.9929 39.5298 14.9929 40.3213 15.4809 40.8096C15.725 41.0536 16.045 41.1756 16.3648 41.1756C16.6846 41.1756 17.0045 41.0535 17.2486 40.8095L46.1702 11.8877L56.6396 22.3568C57.7884 23.5057 57.7883 25.3752 56.6396 26.5241Z" fill="black"/>
<path d="M30.797 36.1004C30.3089 35.6123 29.5177 35.6124 29.0292 36.1004L19.1932 45.9363C18.7051 46.4244 18.7051 47.2157 19.1932 47.7041C19.4373 47.9482 19.7572 48.0702 20.077 48.0702C20.3968 48.0702 20.7168 47.948 20.9609 47.7041L30.7969 37.8682C31.2851 37.3798 31.2851 36.5885 30.797 36.1004Z" fill="black"/>
<path d="M26.7626 45.4365L22.7284 49.4706C22.2403 49.9587 22.2403 50.7502 22.7284 51.2384C22.9725 51.4824 23.2924 51.6045 23.6122 51.6045C23.9322 51.6045 24.2519 51.4824 24.496 51.2384L28.5302 47.2042C29.0183 46.7161 29.0183 45.9247 28.5302 45.4365C28.0421 44.9483 27.251 44.9483 26.7626 45.4365Z" fill="black"/>
<path d="M30.4755 41.7254L29.9453 42.2555C29.4571 42.7436 29.4571 43.535 29.9451 44.0233C30.1891 44.2674 30.5092 44.3895 30.829 44.3895C31.1488 44.3895 31.4687 44.2674 31.7127 44.0233L32.243 43.4931C32.7312 43.0051 32.7312 42.2137 32.2431 41.7255C31.7552 41.2374 30.9636 41.2373 30.4755 41.7254Z" fill="black"/>
<path d="M47.7037 19.1942C47.4693 18.9598 47.1514 18.8281 46.8198 18.8281C46.4883 18.8281 46.1705 18.9598 45.936 19.1942L40.6327 24.4974C40.3983 24.7319 40.2666 25.0497 40.2666 25.3813C40.2666 25.7128 40.3983 26.0307 40.6327 26.2651L44.1682 29.8003C44.4123 30.0444 44.7323 30.1664 45.0521 30.1664C45.3721 30.1664 45.6918 30.0443 45.9359 29.8003L51.239 24.4973C51.7271 24.0092 51.7271 23.2177 51.239 22.7296L47.7037 19.1942ZM45.052 27.1489L43.2842 25.3813L46.8197 21.8458L48.5874 23.6136L45.052 27.1489Z" fill="black"/>
<path d="M37.54 9.39562C37.86 9.39562 38.1799 9.27351 38.4239 9.02929L38.9542 8.49878C39.4422 8.01058 39.442 7.21909 38.9538 6.73112C38.4658 6.24315 37.6742 6.24327 37.1862 6.73147L36.6559 7.26198C36.168 7.75019 36.1681 8.54167 36.6563 9.02964C36.9004 9.27374 37.2201 9.39562 37.54 9.39562Z" fill="black"/>
<path d="M12.5643 41.9599L12.034 42.4902C11.5459 42.9781 11.5459 43.7696 12.034 44.2579C12.2781 44.5019 12.5981 44.6239 12.9179 44.6239C13.2377 44.6239 13.5576 44.5019 13.8017 44.2579L14.332 43.7277C14.8201 43.2395 14.8201 42.448 14.332 41.9599C13.8438 41.4717 13.0525 41.4717 12.5643 41.9599Z" fill="black"/>
</svg>
