<svg width="16" height="16" viewBox="0 0 16 16" fill="none" xmlns="http://www.w3.org/2000/svg">
<path d="M12.6673 1.33398H3.33398C2.23372 1.33398 1.33398 2.23405 1.33398 3.33398V12.6673C1.33398 13.7673 2.23372 14.6673 3.33398 14.6673H12.6673C13.7676 14.6673 14.6673 13.7673 14.6673 12.6673V3.33398C14.6673 2.23405 13.7676 1.33398 12.6673 1.33398ZM10.974 6.80729L7.64063 10.1406C7.50716 10.2673 7.3405 10.334 7.16732 10.334C6.99414 10.334 6.82748 10.2673 6.69401 10.1406L5.02734 8.47396C4.76758 8.21387 4.76758 7.78744 5.02734 7.52735C5.28711 7.26725 5.71419 7.26725 5.97396 7.52735L7.16732 8.72722L10.0273 5.86068C10.2871 5.60059 10.7142 5.60059 10.974 5.86068C11.2337 6.12077 11.2337 6.5472 10.974 6.80729Z" fill="#3CC839"/>
</svg>
