<svg width="15" height="15" viewBox="0 0 15 15" fill="none" xmlns="http://www.w3.org/2000/svg">
<path d="M8.4936 7.49927L11.2768 4.71606C11.4089 4.58421 11.4832 4.40528 11.4834 4.21864C11.4835 4.032 11.4095 3.85294 11.2777 3.72085C11.1458 3.58876 10.9669 3.51446 10.7803 3.51429C10.5936 3.51413 10.4146 3.58811 10.2825 3.71997L7.49927 6.50317L4.71606 3.71997C4.58397 3.58788 4.40482 3.51367 4.21802 3.51367C4.03121 3.51367 3.85206 3.58788 3.71997 3.71997C3.58788 3.85206 3.51367 4.03121 3.51367 4.21802C3.51367 4.40482 3.58788 4.58397 3.71997 4.71606L6.50317 7.49927L3.71997 10.2825C3.58788 10.4146 3.51367 10.5937 3.51367 10.7805C3.51367 10.9673 3.58788 11.1465 3.71997 11.2786C3.85206 11.4107 4.03121 11.4849 4.21802 11.4849C4.40482 11.4849 4.58397 11.4107 4.71606 11.2786L7.49927 8.49536L10.2825 11.2786C10.4146 11.4107 10.5937 11.4849 10.7805 11.4849C10.9673 11.4849 11.1465 11.4107 11.2786 11.2786C11.4107 11.1465 11.4849 10.9673 11.4849 10.7805C11.4849 10.5937 11.4107 10.4146 11.2786 10.2825L8.4936 7.49927Z" fill="#333333"/>
</svg>
