<svg width="16" height="16" viewBox="0 0 16 16" fill="none" xmlns="http://www.w3.org/2000/svg">
<path d="M1.51672 15.8995C1.12445 15.9223 0.738661 15.7919 0.440711 15.5358C-0.146904 14.9447 -0.146904 13.99 0.440711 13.3989L13.3076 0.532C13.9187 -0.0398937 14.8778 -0.00810248 15.4496 0.603069C15.9668 1.15575 15.9969 2.00523 15.5202 2.59314L2.57757 15.5358C2.28346 15.7882 1.90386 15.9184 1.51672 15.8995Z" fill="white"/>
<path d="M14.3381 15.8995C13.9405 15.8978 13.5595 15.74 13.2772 15.4601L0.410315 2.59313C-0.134079 1.9574 -0.060066 1.00067 0.57566 0.456224C1.14306 -0.0296787 1.97987 -0.0296787 2.54722 0.456224L15.4899 13.3231C16.1009 13.8951 16.1325 14.8542 15.5604 15.4652C15.5377 15.4895 15.5142 15.5131 15.4899 15.5358C15.173 15.8114 14.7559 15.9431 14.3381 15.8995Z" fill="white"/>
</svg>
