<svg width="54" height="54" viewBox="0 0 54 54" fill="none" xmlns="http://www.w3.org/2000/svg">
<g clip-path="url(#clip0_399_5366)">
<path d="M53.0968 28.1421V25.9822C53.0914 24.5642 51.9919 23.3909 50.5772 23.2933L39.0398 22.5209L30.7601 15.8965C30.2806 15.5109 29.6837 15.3008 29.0682 15.3008H12.5183C11.7393 15.3012 10.9978 15.6357 10.4816 16.2195L4.99094 22.5003H2.70001C1.70594 22.5003 0.900141 23.3061 0.900141 24.3001V28.1421C0.343166 28.4634 0.000411964 29.0571 0 29.6997V31.5C0 32.4941 0.805802 33.2999 1.79987 33.2999H5.48077C5.91745 35.8969 8.16595 37.7985 10.7992 37.7985C13.4329 37.7985 15.6814 35.8969 16.1181 33.2999H17.9991V35.0998C17.9991 36.0938 18.8049 36.8996 19.799 36.8996H22.4986V48.599H13.4992C12.5052 48.599 11.6994 49.4048 11.6994 50.3989V52.1987C11.6994 53.1928 12.5052 53.9986 13.4992 53.9986H40.4977C41.4918 53.9986 42.2976 53.1928 42.2976 52.1987V50.3989C42.2976 49.4048 41.4918 48.599 40.4977 48.599H31.4984V36.8996H34.198C35.192 36.8996 35.9978 36.0938 35.9978 35.0998V33.2999H37.8788C38.3155 35.8969 40.564 37.7985 43.1977 37.7985C45.831 37.7985 48.0795 35.8969 48.5162 33.2999H52.1971C53.1911 33.2999 53.9969 32.4941 53.9969 31.5V29.6997C53.9965 29.0571 53.6538 28.4634 53.0968 28.1421ZM29.6309 17.3005L36.1313 22.5003H19.799V17.1007H29.0682C29.2733 17.0998 29.4723 17.1703 29.6309 17.3005ZM11.8333 17.4084C12.0075 17.2127 12.2563 17.1007 12.5183 17.1007H17.9991V22.5003H7.37951L11.8333 17.4084ZM10.7992 35.9995C8.81109 35.9995 7.19948 34.3879 7.19948 32.3997C7.19948 30.4116 8.81109 28.8 10.7992 28.8C12.7874 28.8 14.3994 30.4116 14.3994 32.3997C14.3994 34.3879 12.7874 35.9995 10.7992 35.9995ZM40.4977 52.1987H13.4992V50.3989H40.4977V52.1987ZM29.6985 48.599H24.2985V36.8996H26.0983V45.899C26.0983 46.3962 26.5016 46.7991 26.9985 46.7991C27.4953 46.7991 27.8986 46.3962 27.8986 45.899V36.8996H29.6985V48.599ZM34.198 35.0998H19.799V33.2999H34.198V35.0998ZM43.1977 35.9995C41.2096 35.9995 39.5976 34.3879 39.5976 32.3997C39.5976 30.4116 41.2096 28.8 43.1977 28.8C45.1859 28.8 46.7975 30.4116 46.7975 32.3997C46.7975 34.3879 45.1859 35.9995 43.1977 35.9995ZM52.1971 31.5H48.5162C48.0795 28.903 45.831 27.001 43.1977 27.001C40.564 27.001 38.3155 28.903 37.8788 31.5H16.1181C15.6814 28.903 13.4329 27.001 10.7992 27.001C8.16595 27.001 5.91745 28.903 5.48077 31.5H1.79987V29.6997H3.59974C4.09698 29.6997 4.49988 29.2968 4.49988 28.8C4.49988 28.3028 4.09698 27.8999 3.59974 27.8999H2.70001V24.3001H38.6645L50.4536 25.0903C50.9258 25.1203 51.294 25.5101 51.2969 25.983V27.8999H50.3972C49.9 27.8999 49.4971 28.3028 49.4971 28.8C49.4971 29.2968 49.9 29.6997 50.3972 29.6997H52.1971V31.5Z" fill="#FFD124"/>
<path d="M52.647 6.30177C53.122 6.30424 53.5628 6.05418 53.8046 5.64551C54.0531 5.23602 54.0654 4.72518 53.8376 4.30374C52.4143 1.62021 49.6088 -0.0412416 46.5714 0.000778685C43.534 0.0423871 40.775 1.78005 39.4259 4.5019H11.9054C11.6352 4.50025 11.3798 4.37625 11.2117 4.16409C9.45095 1.97203 6.45062 1.21195 3.85854 2.3016C1.26688 3.39124 -0.289521 6.06654 0.044994 8.85842C0.401343 11.6342 2.52914 13.8518 5.28806 14.3219C7.52049 14.6922 9.77929 13.8275 11.1936 12.0614C11.3649 11.8398 11.6274 11.7071 11.9075 11.7014L39.4341 11.7327C40.8669 14.4751 43.7033 16.1963 46.7975 16.2008C49.7653 16.2029 52.4843 14.5419 53.8368 11.9004C54.0625 11.4806 54.0514 10.9734 53.8079 10.5639C53.5641 10.1545 53.1237 9.90316 52.647 9.90151H46.7975V6.30177H52.647ZM33.2983 6.30177V9.90151H17.0991V6.30177H33.2983ZM9.7933 10.9318C8.78069 12.1949 7.16456 12.8112 5.56819 12.5438C3.60189 12.2077 2.08545 10.6266 1.83251 8.6479C1.58903 6.65194 2.69969 4.73672 4.5527 3.95646C6.40572 3.17579 8.55164 3.71958 9.80936 5.28834C10.3173 5.9277 11.0889 6.30094 11.9054 6.30177H15.2992V9.90151H11.9075C11.0827 9.90563 10.305 10.285 9.7933 10.9318ZM46.7975 11.7014H51.8552C50.7269 13.3904 48.8289 14.4039 46.7975 14.401C44.3797 14.4014 42.1609 13.0604 41.0379 10.9191C40.7367 10.3019 40.1126 9.90769 39.4259 9.90151H35.0982V6.30177H39.4259C40.1151 6.29682 40.7413 5.89887 41.0379 5.27639C42.0357 3.2899 44.0061 1.97491 46.2237 1.8163C48.4413 1.65729 50.5785 2.67772 51.8499 4.5019H46.7975C45.8035 4.5019 44.9977 5.3077 44.9977 6.30177V9.90151C44.9977 10.8956 45.8035 11.7014 46.7975 11.7014Z" fill="#FFD124"/>
<path d="M6.29962 5.39844C4.80831 5.39844 3.59961 6.60714 3.59961 8.09845C3.59961 9.58934 4.80831 10.798 6.29962 10.798C7.79052 10.798 8.99922 9.58934 8.99922 8.09845C8.99922 7.38245 8.71497 6.69571 8.20866 6.18941C7.70236 5.6831 7.01561 5.39844 6.29962 5.39844ZM6.29962 8.99818C5.80238 8.99818 5.39948 8.59527 5.39948 8.09845C5.39948 7.60121 5.80238 7.19831 6.29962 7.19831C6.79645 7.19831 7.19935 7.60121 7.19935 8.09845C7.19935 8.59527 6.79645 8.99818 6.29962 8.99818Z" fill="#FFD124"/>
<path d="M24.2992 26.1016H22.4993C22.0025 26.1016 21.5996 26.5045 21.5996 27.0017C21.5996 27.4985 22.0025 27.9014 22.4993 27.9014H24.2992C24.7964 27.9014 25.1993 27.4985 25.1993 27.0017C25.1993 26.5045 24.7964 26.1016 24.2992 26.1016Z" fill="#FFD124"/>
</g>
<defs>
<clipPath id="clip0_399_5366">
<rect width="54" height="54" fill="white"/>
</clipPath>
</defs>
</svg>
