<svg width="40" height="40" viewBox="0 0 40 40" fill="none" xmlns="http://www.w3.org/2000/svg">
<g clip-path="url(#clip0_427_5305)">
<path d="M39.331 20.848V19.2481C39.327 18.1977 38.5125 17.3286 37.4646 17.2563L28.9183 16.6841L22.7853 11.7772C22.4301 11.4916 21.9879 11.3359 21.532 11.3359H9.27285C8.6958 11.3362 8.14651 11.584 7.76415 12.0164L3.697 16.6689H2.00001C1.26366 16.6689 0.666771 17.2658 0.666771 18.0021V20.848C0.254197 21.0861 0.000305158 21.5258 0 22.0018V23.3354C0 24.0717 0.59689 24.6686 1.33324 24.6686H4.05983C4.3833 26.5923 6.04885 28.0009 7.99942 28.0009C9.9503 28.0009 11.6159 26.5923 11.9393 24.6686H13.3327V26.0018C13.3327 26.7382 13.9296 27.3351 14.6659 27.3351H16.6656V36.0013H9.99943C9.26309 36.0013 8.6662 36.5982 8.6662 37.3345V38.6677C8.6662 39.4041 9.26309 40.001 9.99943 40.001H29.9983C30.7346 40.001 31.3315 39.4041 31.3315 38.6677V37.3345C31.3315 36.5982 30.7346 36.0013 29.9983 36.0013H23.3321V27.3351H25.3318C26.0682 27.3351 26.6651 26.7382 26.6651 26.0018V24.6686H28.0584C28.3819 26.5923 30.0474 28.0009 31.9983 28.0009C33.9489 28.0009 35.6144 26.5923 35.9379 24.6686H38.6645C39.4008 24.6686 39.9977 24.0717 39.9977 23.3354V22.0018C39.9974 21.5258 39.7435 21.0861 39.331 20.848ZM21.9488 12.8172L26.7639 16.6689H14.6659V12.6692H21.532C21.684 12.6686 21.8313 12.7207 21.9488 12.8172ZM8.76537 12.8971C8.89445 12.7522 9.07877 12.6692 9.27285 12.6692H13.3327V16.6689H5.4663L8.76537 12.8971ZM7.99942 26.6683C6.52673 26.6683 5.33295 25.4745 5.33295 24.0018C5.33295 22.5291 6.52673 21.3354 7.99942 21.3354C9.47212 21.3354 10.6662 22.5291 10.6662 24.0018C10.6662 25.4745 9.47212 26.6683 7.99942 26.6683ZM29.9983 38.6677H9.99943V37.3345H29.9983V38.6677ZM21.9989 36.0013H17.9989V27.3351H19.3321V34.0013C19.3321 34.3696 19.6308 34.668 19.9989 34.668C20.3669 34.668 20.6656 34.3696 20.6656 34.0013V27.3351H21.9989V36.0013ZM25.3318 26.0018H14.6659V24.6686H25.3318V26.0018ZM31.9983 26.6683C30.5256 26.6683 29.3315 25.4745 29.3315 24.0018C29.3315 22.5291 30.5256 21.3354 31.9983 21.3354C33.471 21.3354 34.6648 22.5291 34.6648 24.0018C34.6648 25.4745 33.471 26.6683 31.9983 26.6683ZM38.6645 23.3354H35.9379C35.6144 21.4117 33.9489 20.0027 31.9983 20.0027C30.0474 20.0027 28.3819 21.4117 28.0584 23.3354H11.9393C11.6159 21.4117 9.9503 20.0027 7.99942 20.0027C6.04885 20.0027 4.3833 21.4117 4.05983 23.3354H1.33324V22.0018H2.66647C3.0348 22.0018 3.33325 21.7034 3.33325 21.3354C3.33325 20.967 3.0348 20.6686 2.66647 20.6686H2.00001V18.0021H28.6403L37.3731 18.5874C37.7228 18.6097 37.9956 18.8984 37.9977 19.2487V20.6686H37.3313C36.9629 20.6686 36.6645 20.967 36.6645 21.3354C36.6645 21.7034 36.9629 22.0018 37.3313 22.0018H38.6645V23.3354Z" fill="black"/>
<path d="M38.9978 4.66993C39.3496 4.67176 39.6762 4.48653 39.8553 4.18381C40.0393 3.88048 40.0485 3.50209 39.8797 3.18991C38.8254 1.20211 36.7472 -0.0285962 34.4973 0.00252993C32.2474 0.033351 30.2037 1.32051 29.2043 3.33669H8.81884C8.61866 3.33547 8.42946 3.24362 8.30495 3.08646C7.00071 1.46271 4.77824 0.899696 2.85818 1.70684C0.938429 2.51398 -0.21446 4.49568 0.0333289 6.56374C0.297291 8.6199 1.87343 10.2626 3.91708 10.6108C5.57073 10.8851 7.24392 10.2446 8.29153 8.93635C8.41847 8.77217 8.61286 8.67391 8.82037 8.66964L29.2104 8.69283C30.2718 10.7243 32.3728 11.9992 34.6648 12.0026C36.8632 12.0041 38.8773 10.7737 39.8791 8.81703C40.0463 8.50608 40.0381 8.13043 39.8577 7.8271C39.6771 7.52377 39.3509 7.33762 38.9978 7.3364H34.6648V4.66993H38.9978ZM24.6654 4.66993V7.3364H12.666V4.66993H24.6654ZM7.25429 8.09961C6.50421 9.03522 5.30708 9.49174 4.12459 9.29369C2.66807 9.04468 1.54478 7.87348 1.35741 6.40781C1.17706 4.92931 1.99977 3.51063 3.37237 2.93266C4.74498 2.35439 6.33455 2.7572 7.26619 3.91924C7.64246 4.39285 8.21402 4.66932 8.81884 4.66993H11.3327V7.3364H8.82037C8.20944 7.33946 7.6333 7.62051 7.25429 8.09961ZM34.6648 8.66964H38.4113C37.5755 9.92079 36.1696 10.6715 34.6648 10.6693C32.8739 10.6697 31.2303 9.67636 30.3984 8.09015C30.1754 7.63302 29.713 7.34098 29.2043 7.3364H25.9987V4.66993H29.2043C29.7149 4.66627 30.1787 4.37148 30.3984 3.91039C31.1375 2.43892 32.5971 1.46485 34.2398 1.34736C35.8824 1.22957 37.4656 1.98545 38.4073 3.33669H34.6648C33.9285 3.33669 33.3316 3.93358 33.3316 4.66993V7.3364C33.3316 8.07275 33.9285 8.66964 34.6648 8.66964Z" fill="black"/>
<path d="M4.667 4.00391C3.56233 4.00391 2.66699 4.89924 2.66699 6.00391C2.66699 7.10828 3.56233 8.00361 4.667 8.00361C5.77137 8.00361 6.6667 7.10828 6.6667 6.00391C6.6667 5.47355 6.45614 4.96485 6.0811 4.58981C5.70606 4.21477 5.19737 4.00391 4.667 4.00391ZM4.667 6.67038C4.29867 6.67038 4.00023 6.37193 4.00023 6.00391C4.00023 5.63559 4.29867 5.33714 4.667 5.33714C5.03502 5.33714 5.33347 5.63559 5.33347 6.00391C5.33347 6.37193 5.03502 6.67038 4.667 6.67038Z" fill="black"/>
<path d="M17.9987 19.3359H16.6655C16.2975 19.3359 15.999 19.6344 15.999 20.0027C15.999 20.3707 16.2975 20.6692 16.6655 20.6692H17.9987C18.3671 20.6692 18.6655 20.3707 18.6655 20.0027C18.6655 19.6344 18.3671 19.3359 17.9987 19.3359Z" fill="black"/>
</g>
<defs>
<clipPath id="clip0_427_5305">
<rect width="40" height="40" fill="white"/>
</clipPath>
</defs>
</svg>
