<svg width="56" height="56" viewBox="0 0 56 56" fill="none" xmlns="http://www.w3.org/2000/svg">
<g clip-path="url(#clip0_261_3018)">
<path d="M38.1255 35.4668H17.8722C17.0272 35.466 16.2725 35.995 15.985 36.7895C15.6975 37.584 15.939 38.4735 16.5888 39.0135L19.6137 41.5335C19.9743 41.8348 20.4291 42 20.8989 42.0002H35.0987C35.5683 42.0001 36.0228 41.8348 36.383 41.5335L39.4088 39.0135C40.0587 38.4735 40.3002 37.584 40.0126 36.7895C39.7251 35.995 38.9704 35.466 38.1255 35.4668ZM38.2188 37.5799L35.1929 40.0999C35.1667 40.1213 35.1335 40.1326 35.0996 40.1316H20.9008C20.8667 40.1326 20.8334 40.121 20.8074 40.0989L17.7816 37.5789C17.7316 37.5445 17.7138 37.479 17.7396 37.424C17.7541 37.3648 17.8096 37.3252 17.8702 37.3306H38.1235C38.1842 37.3252 38.2396 37.3648 38.2542 37.424C38.2808 37.4787 38.2638 37.5448 38.214 37.5799H38.2188V37.5799Z" fill="black"/>
<path d="M44.8266 35.9335L41.7914 38.4535C41.1392 38.9926 40.8962 39.8832 41.1841 40.6787C41.472 41.4743 42.2286 42.0032 43.0746 42.0002H50.3995C51.4304 42.0002 52.2662 41.1644 52.2662 40.1335V37.3335C52.2662 36.3025 51.4304 35.4668 50.3995 35.4668H46.1108C45.6415 35.4682 45.1873 35.6332 44.8266 35.9335ZM50.3996 37.3335V40.1335H43.0747C43.0137 40.1394 42.9577 40.0997 42.9431 40.0401C42.9175 39.9866 42.9355 39.9224 42.9851 39.8899L46.0212 37.3643C46.0471 37.342 46.0805 37.3305 46.1146 37.3316L50.3996 37.3335Z" fill="black"/>
<path d="M11.173 35.9334C10.8138 35.6338 10.3613 35.4688 9.89344 35.4668H5.60009C4.56914 35.4668 3.7334 36.3025 3.7334 37.3335V40.1335C3.7334 41.1644 4.56914 42.0002 5.60009 42.0002H12.923C13.7686 42.0025 14.5247 41.4737 14.8126 40.6786C15.1005 39.8834 14.8583 38.9931 14.2073 38.4535L11.173 35.9334ZM13.0565 40.0401C13.0419 40.0996 12.9859 40.1394 12.9249 40.1334H5.60009V37.3334H9.89344C9.92752 37.3322 9.96087 37.3439 9.98677 37.3661L13.0238 39.8917C13.0689 39.927 13.0825 39.9892 13.0565 40.0401Z" fill="black"/>
<path fill-rule="evenodd" clip-rule="evenodd" d="M12.1337 44.8008H5.60029C5.08486 44.8008 4.66699 45.2187 4.66699 45.7341C4.66699 46.2495 5.08486 46.6674 5.60029 46.6674H12.1337C12.6491 46.6674 13.0669 46.2495 13.0669 45.7341C13.0669 45.2187 12.6491 44.8008 12.1337 44.8008Z" fill="black"/>
<path fill-rule="evenodd" clip-rule="evenodd" d="M50.4003 44.8008H43.8669C43.3515 44.8008 42.9336 45.2187 42.9336 45.7341C42.9336 46.2495 43.3515 46.6674 43.8669 46.6674H50.4003C50.9157 46.6674 51.3335 46.2495 51.3335 45.7341C51.3335 45.2187 50.9157 44.8008 50.4003 44.8008Z" fill="black"/>
<path fill-rule="evenodd" clip-rule="evenodd" d="M36.4003 44.8008H19.6003C19.0849 44.8008 18.667 45.2187 18.667 45.7341C18.667 46.2495 19.0849 46.6674 19.6003 46.6674H36.4003C36.9157 46.6674 37.3336 46.2495 37.3336 45.7341C37.3336 45.2187 36.9157 44.8008 36.4003 44.8008Z" fill="black"/>
<path d="M56 27.0667C56 25.5203 54.7464 24.2667 53.2 24.2667H51.3333C50.5196 24.2697 49.748 24.6284 49.2212 25.2486L47.4693 19.9995C47.0372 18.6991 46.0543 17.655 44.7822 17.1454C44.7822 17.0287 44.8 16.9168 44.8 16.8001C44.8 7.52159 37.2784 0 28 0C18.7215 0 11.2 7.52159 11.2 16.8C11.2 16.9167 11.215 17.0286 11.2178 17.1453C9.9467 17.654 8.96408 18.6967 8.5316 19.9957L6.77882 25.2486C6.252 24.6284 5.48038 24.2697 4.66668 24.2667H2.79999C1.25362 24.2667 6.84863e-06 25.5203 6.84863e-06 27.0667C6.84863e-06 28.613 1.25362 29.8666 2.79999 29.8666H4.28022L0.826931 33.32C0.296164 33.8452 -0.00164663 34.5613 6.84863e-06 35.308V47.5999C0.00487543 48.7823 0.751973 49.8341 1.86669 50.2282V53.2C1.86669 54.7464 3.12031 56 4.66668 56H11.2C12.7464 56 14 54.7464 14 53.2V50.4H42V53.2C42 54.7464 43.2536 56 44.8 56H51.3333C52.8797 56 54.1333 54.7464 54.1333 53.2V50.2282C55.248 49.8342 55.995 48.7823 56 47.5999V35.308C56.0016 34.5627 55.7048 33.8478 55.1758 33.3228L51.7225 29.8695H53.2C53.9431 29.8695 54.6557 29.5741 55.1809 29.0484C55.706 28.5226 56.0007 27.8097 56 27.0667ZM45.6969 20.5866L48.1711 28H40.486C42.7074 25.5335 44.1442 22.4614 44.6132 19.1754C45.1197 19.5139 45.5006 20.0099 45.6969 20.5866ZM28 1.86669C36.2474 1.86669 42.9333 8.55254 42.9333 16.8C42.9333 25.0475 36.2474 31.7333 28 31.7333C19.7525 31.7333 13.0666 25.0475 13.0666 16.8C13.0765 8.55658 19.7566 1.87643 28 1.86669ZM10.304 20.5819C10.5008 20.0069 10.8812 19.5126 11.3867 19.1753C11.8558 22.4614 13.2925 25.5334 15.5139 28H7.82878L10.304 20.5819ZM2.79999 28C2.28457 28 1.86669 27.5821 1.86669 27.0667C1.86669 26.5512 2.28457 26.1334 2.79999 26.1334H4.66668C5.18211 26.1334 5.59998 26.5512 5.59998 27.0667V28H2.79999ZM12.1333 53.2C12.1333 53.7154 11.7155 54.1333 11.2 54.1333H4.66668C4.15125 54.1333 3.73338 53.7154 3.73338 53.2V50.4H12.1333V53.2ZM52.2666 53.2C52.2666 53.7154 51.8487 54.1333 51.3333 54.1333H44.8C44.2845 54.1333 43.8667 53.7154 43.8667 53.2V50.4H52.2666V53.2ZM53.8533 34.6425C54.0322 34.8178 54.133 35.0576 54.1333 35.308V47.5999C54.1333 48.1154 53.7154 48.5332 53.2 48.5332H2.79999C2.28457 48.5332 1.86669 48.1154 1.86669 47.5999V35.308C1.86697 35.0576 1.96783 34.8178 2.14668 34.6425L6.91973 29.8666H17.4664C23.6087 34.8444 32.3968 34.8444 38.5391 29.8666H49.0858L53.8533 34.6425ZM50.4 28V27.0667C50.4 26.5512 50.8179 26.1334 51.3333 26.1334H53.2C53.7154 26.1334 54.1333 26.5512 54.1333 27.0667C54.1333 27.5821 53.7154 28 53.2 28H50.4Z" fill="black"/>
<path d="M19.693 16.3192C20.1881 16.32 20.6631 16.1235 21.0128 15.7732L21.5028 15.2832L23.5337 17.3141L23.0671 17.7808C20.415 17.4927 18.0296 19.4043 17.733 22.0555C17.7055 22.6489 17.9978 23.2117 18.499 23.5304C19.0004 23.8491 19.634 23.875 20.1597 23.5983C20.7692 23.2734 20.9997 23.5049 21.1472 23.6627C21.2946 23.8204 21.5279 24.036 21.2088 24.6296C20.931 25.1398 20.9422 25.7584 21.2379 26.2583C21.5338 26.7582 22.0708 27.0655 22.6517 27.0674H22.7077C23.4982 27.0203 24.2589 26.7494 24.901 26.2863C26.3771 25.27 27.1827 23.5306 27.0029 21.7475L27.4864 21.2631L32.7438 26.5205C33.4748 27.2511 34.6596 27.2511 35.3907 26.5205L36.7058 25.2008C37.432 24.4722 37.432 23.2936 36.7058 22.565L31.4484 17.3085L32.924 15.832C34.3404 16.0106 35.7596 15.5225 36.7665 14.5104C37.6036 13.7413 38.1249 12.6884 38.229 11.5563V11.5498C38.2576 10.956 37.9655 10.3925 37.4639 10.0733C36.9623 9.75422 36.3282 9.72859 35.8024 10.006C35.1919 10.3317 34.9559 10.0928 34.8103 9.9463C34.6647 9.79978 34.4267 9.56177 34.7608 8.96165C35.0351 8.43786 35.0106 7.8077 34.6964 7.30688C34.397 6.80193 33.8425 6.50439 33.2563 6.53406C32.4654 6.58137 31.7044 6.85264 31.062 7.31616C29.5785 8.33774 28.7741 10.0902 28.9667 11.8811L27.4957 13.3529L25.4648 11.322L26.2936 10.4932C26.7688 10.0177 26.9516 9.3233 26.7722 8.67541C26.5927 8.02743 26.0787 7.52615 25.4265 7.36292L22.2579 6.57053C21.6216 6.41318 20.9493 6.59929 20.4845 7.06143L16.3937 11.1532C16.0434 11.5032 15.8467 11.9781 15.8467 12.4734C15.8467 12.9686 16.0434 13.4435 16.3937 13.7936L18.3742 15.7741C18.7237 16.1242 19.1984 16.3204 19.693 16.3192ZM35.3824 23.8792L34.0664 25.2008L28.807 19.9461L30.1277 18.6254L35.3824 23.8792ZM30.6298 12.8594C30.8601 12.6293 30.9539 12.2957 30.8772 11.9793C30.6242 10.7805 31.1163 9.54707 32.125 8.85169C32.3701 8.67652 32.6435 8.54479 32.9333 8.46248C32.5385 9.42481 32.761 10.5301 33.4972 11.2648C34.2335 11.9995 35.3393 12.2195 36.3007 11.8225C36.1342 12.3443 35.8378 12.8152 35.4392 13.1908C34.7652 13.8799 33.774 14.1559 32.8409 13.9141C32.522 13.8332 32.1841 13.926 31.9514 14.1586L25.3434 20.7667C25.1154 20.9947 25.0211 21.3243 25.0942 21.6384C25.335 22.8325 24.8412 24.0553 23.8389 24.7473C23.5928 24.9225 23.3184 25.0542 23.0278 25.1366C23.4524 24.1808 23.228 23.0612 22.4679 22.3431C22.01 21.8492 21.3679 21.5674 20.6945 21.5647C20.3385 21.5677 19.9864 21.6381 19.6567 21.7719C19.8235 21.25 20.1202 20.7792 20.5191 20.4036C21.2023 19.7098 22.2068 19.4387 23.1463 19.6943C23.4665 19.7773 23.8066 19.6846 24.0405 19.4507L30.6298 12.8594ZM26.176 14.6728L24.8544 15.9944L22.8235 13.9634L24.145 12.6418L26.176 14.6728ZM21.8052 8.38119L24.9785 9.1699L19.693 14.4535L17.7125 12.4739L21.8052 8.38119Z" fill="black"/>
</g>
<defs>
<clipPath id="clip0_261_3018">
<rect width="56" height="56" fill="white"/>
</clipPath>
</defs>
</svg>
