<svg width="20" height="18" viewBox="0 0 20 18" fill="none" xmlns="http://www.w3.org/2000/svg">
<g clip-path="url(#clip0_417_8684)">
<path d="M16.1881 12.8735H17.8756V11.186C17.8756 10.4323 19.0006 10.4469 19.0006 11.186V13.436C19.0006 13.7308 18.7328 13.9985 18.4381 13.9985H16.1881C15.4287 13.9985 15.4489 12.8735 16.1881 12.8735ZM9.05557 11.5865C8.87557 11.4065 5.32057 7.80654 3.46432 5.96717C2.86807 5.37767 3.64432 4.62841 4.22932 5.21004C5.96182 6.92229 9.43807 10.448 9.43807 10.448L12.4306 7.39366C12.6331 7.20241 12.9931 7.20241 13.1956 7.39366L16.5897 10.844C17.1151 11.3784 16.2376 12.0253 15.8247 11.6034L12.8131 8.53216L9.82282 11.5854C9.60682 11.8059 9.2547 11.7823 9.05782 11.5854L9.05557 11.5865Z" fill="black"/>
</g>
<rect width="1" height="18" rx="0.5" fill="black"/>
<rect x="20" y="17" width="1" height="20" rx="0.5" transform="rotate(90 20 17)" fill="black"/>
<defs>
<clipPath id="clip0_417_8684">
<rect width="18" height="18" fill="white" transform="translate(1)"/>
</clipPath>
</defs>
</svg>
