<svg width="56" height="56" viewBox="0 0 56 56" fill="none" xmlns="http://www.w3.org/2000/svg">
<path d="M55.3451 12.0745C55.3401 11.993 55.3242 11.9118 55.2973 11.8348C55.2872 11.8048 55.2795 11.776 55.2667 11.7469C55.2212 11.6452 55.1578 11.5527 55.0799 11.4734L43.8799 0.273438C43.8006 0.195052 43.7076 0.131706 43.6055 0.0865886C43.5777 0.0738281 43.5495 0.0660807 43.5208 0.0560547C43.4415 0.028711 43.3594 0.0123047 43.276 0.00729167C43.2601 0.0104818 43.2432 0 43.2236 0H15.2236C12.6479 0.00319011 10.5602 2.09043 10.557 4.66667V11.5359C4.14076 14.3655 0 20.7165 0 27.7293C0 34.7421 4.14076 41.0931 10.557 43.9227V51.3333C10.5602 53.9096 12.6479 55.9968 15.2236 56H50.6903C53.2665 55.9968 55.3542 53.9096 55.357 51.3333V12.1333C55.357 12.1128 55.3469 12.0951 55.3451 12.0745ZM52.1705 11.2H45.0903C44.5749 11.2 44.157 10.7821 44.157 10.2667V3.18646L52.1705 11.2ZM1.88626 27.7293C1.88079 23.5193 3.55059 19.4806 6.52741 16.5038C9.50423 13.527 13.5434 11.8572 17.7529 11.8626C18.2834 11.8626 18.8098 11.8886 19.3293 11.9392C26.5462 12.6524 32.3545 18.1804 33.4236 25.3531C33.5476 26.1393 33.6128 26.9336 33.6187 27.7293C33.6255 30.7184 32.7806 33.6474 31.1837 36.174C29.9173 38.1928 28.2105 39.8991 26.1912 41.1646C21.3017 44.2354 15.1302 44.4076 10.0771 41.614C5.02396 38.8208 1.88717 33.5029 1.88626 27.7293ZM28.5929 41.7498C28.7205 41.6509 28.8467 41.5529 28.9716 41.4513C29.4324 41.0803 29.8735 40.6861 30.2941 40.2705C30.7098 39.8499 31.104 39.4092 31.4749 38.9489C31.5766 38.824 31.6745 38.6969 31.7734 38.5693C31.8865 38.4216 32.009 38.2817 32.1171 38.1313L40.0736 46.0975C40.6005 46.6193 40.8971 47.3302 40.8971 48.0717C40.8971 48.8136 40.6005 49.5241 40.0736 50.0464C38.9717 51.1114 37.224 51.1114 36.122 50.0464L28.1549 42.0934C28.3053 41.9841 28.4462 41.8628 28.5929 41.7498ZM50.6903 54.1333H15.2236C13.6773 54.1333 12.4236 52.8796 12.4236 51.3333V44.6514C12.4815 44.6701 12.5421 44.6824 12.6009 44.7002C12.7504 44.7458 12.9017 44.7822 13.053 44.8242C13.4021 44.9176 13.7539 45.011 14.1094 45.0807C14.2839 45.1172 14.4585 45.1509 14.6348 45.1819C14.9903 45.2443 15.349 45.2936 15.709 45.335C15.8699 45.3533 16.0285 45.376 16.1898 45.3897C16.707 45.4339 17.2275 45.4626 17.7529 45.4626C20.8382 45.4649 23.8697 44.6574 26.5444 43.1202L34.7967 51.3643C35.9548 52.6317 37.7157 53.1613 39.3805 52.742C41.0457 52.3232 42.3464 51.0239 42.7665 49.3591C43.1872 47.6943 42.6594 45.9329 41.3925 44.774L33.1438 36.5203C34.681 33.8456 35.489 30.8141 35.4863 27.7293C35.4863 27.1382 35.458 26.5517 35.4006 25.9702C35.0023 21.8923 33.1971 18.0806 30.295 15.189C26.976 11.8521 22.4597 9.98229 17.7529 9.99596C17.2275 9.99596 16.707 10.0251 16.1898 10.0689C16.0285 10.083 15.8685 10.1053 15.7081 10.124C15.349 10.1641 14.9921 10.2152 14.6367 10.2771C14.4594 10.3081 14.2826 10.3419 14.1066 10.3788C13.7557 10.4517 13.4076 10.5374 13.0621 10.6326C12.9072 10.6745 12.7522 10.7119 12.5954 10.7584C12.5376 10.7762 12.4788 10.7885 12.4209 10.8072V4.66667C12.4209 3.12038 13.6746 1.86667 15.2209 1.86667H42.2903V10.2667C42.2903 11.813 43.544 13.0667 45.0903 13.0667H53.4903V51.3333C53.4903 52.8796 52.237 54.1333 50.6903 54.1333Z" fill="black"/>
<path d="M38.5572 6.53294C38.5572 6.01751 38.1393 5.59961 37.6239 5.59961H17.0906C16.5751 5.59961 16.1572 6.01751 16.1572 6.53294C16.1572 7.04837 16.5751 7.46628 17.0906 7.46628H37.6239C38.1393 7.46628 38.5572 7.04837 38.5572 6.53294Z" fill="black"/>
<path d="M48.8238 22.4004H37.6238C37.1083 22.4004 36.6904 22.8183 36.6904 23.3337C36.6904 23.8492 37.1083 24.2671 37.6238 24.2671H48.8238C49.3392 24.2671 49.7571 23.8492 49.7571 23.3337C49.7571 22.8183 49.3392 22.4004 48.8238 22.4004Z" fill="black"/>
<path d="M48.8238 28H37.6238C37.1083 28 36.6904 28.4179 36.6904 28.9333C36.6904 29.4488 37.1083 29.8667 37.6238 29.8667H48.8238C49.3392 29.8667 49.7571 29.4488 49.7571 28.9333C49.7571 28.4179 49.3392 28 48.8238 28Z" fill="black"/>
<path d="M49.7568 34.5329C49.7568 34.0175 49.3389 33.5996 48.8235 33.5996H36.6902C36.1747 33.5996 35.7568 34.0175 35.7568 34.5329C35.7568 35.0484 36.1747 35.4663 36.6902 35.4663H48.8235C49.3389 35.4663 49.7568 35.0484 49.7568 34.5329Z" fill="black"/>
<path d="M49.7569 40.1325C49.7569 39.6171 49.339 39.1992 48.8236 39.1992H40.4236C39.9081 39.1992 39.4902 39.6171 39.4902 40.1325C39.4902 40.648 39.9081 41.0659 40.4236 41.0659H48.8236C49.339 41.0659 49.7569 40.648 49.7569 40.1325Z" fill="black"/>
<path d="M38.557 12.1326C38.557 11.6171 38.1391 11.1992 37.6236 11.1992H30.157C29.6415 11.1992 29.2236 11.6171 29.2236 12.1326C29.2236 12.648 29.6415 13.0659 30.157 13.0659H37.6236C38.1391 13.0659 38.557 12.648 38.557 12.1326Z" fill="black"/>
<path d="M49.7573 17.7341C49.7573 17.2187 49.3394 16.8008 48.824 16.8008H34.824C34.3085 16.8008 33.8906 17.2187 33.8906 17.7341C33.8906 18.2495 34.3085 18.6674 34.824 18.6674H48.824C49.3394 18.6674 49.7573 18.2495 49.7573 17.7341Z" fill="black"/>
<path d="M14.2908 23.3335H20.8241C21.3395 23.3335 21.7574 22.9156 21.7574 22.4001C21.7574 21.8847 21.3395 21.4668 20.8241 21.4668H14.2908C13.7753 21.4668 13.3574 21.8847 13.3574 22.4001C13.3574 22.9156 13.7753 23.3335 14.2908 23.3335Z" fill="black"/>
<path d="M25.4907 27.9997C25.4907 27.4843 25.0728 27.0664 24.5574 27.0664H10.5574C10.0419 27.0664 9.62402 27.4843 9.62402 27.9997C9.62402 28.5152 10.0419 28.9331 10.5574 28.9331H24.5574C25.0728 28.9331 25.4907 28.5152 25.4907 27.9997Z" fill="black"/>
<path d="M20.8241 32.668H14.2908C13.7753 32.668 13.3574 33.0859 13.3574 33.6013C13.3574 34.1167 13.7753 34.5346 14.2908 34.5346H20.8241C21.3395 34.5346 21.7574 34.1167 21.7574 33.6013C21.7574 33.0859 21.3395 32.668 20.8241 32.668Z" fill="black"/>
<path d="M24.3965 40.0407C26.6728 38.8285 28.5605 36.9973 29.8415 34.7593C29.9153 34.6303 29.9956 34.5054 30.0648 34.3746C30.1008 34.3072 30.1291 34.2374 30.1637 34.17C30.3055 33.8975 30.4435 33.6249 30.5657 33.346C30.6883 33.0671 30.7844 32.8019 30.8842 32.5275C30.9129 32.4483 30.9494 32.3708 30.9776 32.2906C33.3511 25.3886 30.0243 17.8207 23.3342 14.9036C16.6436 11.9865 8.83468 14.699 5.39301 21.1352C4.30974 23.1628 3.74555 25.4273 3.75102 27.7264C3.74236 32.6593 6.33318 37.2316 10.5692 39.7591C14.8052 42.287 20.0593 42.3959 24.3965 40.0462V40.0407ZM11.9364 38.3777C10.9205 37.824 9.98995 37.1268 9.17283 36.3074C8.6059 35.7409 8.09594 35.1206 7.64978 34.4548C7.42921 34.1249 7.22641 33.7863 7.04001 33.4386C4.2309 28.1343 5.71931 21.5732 10.5423 18.0007C15.3653 14.4283 22.0754 14.9168 26.3306 19.1501C30.099 22.9541 30.9467 28.771 28.421 33.4923V33.5001C27.3081 35.5823 25.6019 37.2872 23.5192 38.3992C19.9062 40.362 15.5435 40.3552 11.9364 38.3814V38.3777Z" fill="black"/>
<path d="M50.6906 44.8008C50.1751 44.8008 49.7572 45.2187 49.7572 45.7341V49.4675C49.7572 49.9829 49.3393 50.4008 48.8239 50.4008H45.0906C44.5751 50.4008 44.1572 50.8187 44.1572 51.3341C44.1572 51.8496 44.5751 52.2675 45.0906 52.2675H48.8239C50.3706 52.2675 51.6239 51.0137 51.6239 49.4675V45.7341C51.6239 45.2187 51.206 44.8008 50.6906 44.8008Z" fill="black"/>
</svg>
