<svg width="36" height="36" viewBox="0 0 36 36" fill="none" xmlns="http://www.w3.org/2000/svg">
<g clip-path="url(#clip0_452_6170)">
<path d="M35.9651 10.1181C35.9093 9.6603 35.6782 9.25177 35.3145 8.9679L24.2939 0.364606C23.5448 -0.220142 22.4577 -0.0873149 21.8706 0.660987L11.1945 14.272L4.11051 19.0147C4.11037 19.0148 4.11023 19.0149 4.11002 19.015L2.1546 20.3242L0.788999 21.2385C0.764951 21.2546 0.741395 21.2712 0.718402 21.2884C0.37294 21.5449 0.138436 21.9152 0.0546194 22.3399C-0.0345412 22.7918 0.057643 23.2512 0.314156 23.6334L0.31507 23.6348C0.31507 23.6348 0.31514 23.6349 0.31521 23.635L1.96911 26.0995L2.54205 26.9532L5.87903 31.9258C5.87903 31.9258 5.8791 31.9258 5.8791 31.9259L6.4327 32.7509L8.10094 35.2367C8.43347 35.7323 8.98052 36.0002 9.53728 36.0002C9.86763 36.0002 10.2015 35.9058 10.496 35.7086L10.4971 35.7079C10.4972 35.7078 10.4974 35.7077 10.4976 35.7076L13.7401 33.5368L15.1724 34.6549C15.4871 34.9005 15.8614 35.0195 16.2331 35.0195C16.7466 35.0195 17.2553 34.7925 17.5958 34.3585L23.2172 27.1918L31.4127 21.7049C31.4235 21.6987 31.4346 21.6935 31.4451 21.6866L34.7661 19.463C35.1503 19.2058 35.4111 18.8147 35.5005 18.3617C35.5896 17.9098 35.4974 17.4504 35.2409 17.0682L35.2391 17.0655C35.2388 17.0651 35.2386 17.0647 35.2384 17.0644L33.3584 14.263L35.6098 11.3927C35.8948 11.029 36.0211 10.5764 35.9651 10.1181ZM4.66861 23.2481C4.46153 24.2973 3.91398 25.2234 3.10802 25.9037L1.43281 23.4075L1.19092 23.047C1.09115 22.8983 1.05522 22.7194 1.08995 22.5436C1.1204 22.3893 1.20189 22.2535 1.32192 22.1549C1.33908 22.1408 1.35708 22.1275 1.37579 22.1149L2.32231 21.4813L4.2349 20.2008C4.72135 21.1356 4.87555 22.1995 4.66861 23.2481ZM9.90975 34.8316C9.60092 35.0376 9.18261 34.9557 8.97666 34.6488L8.95359 34.6144L7.06554 31.8009C8.99508 30.8005 11.377 31.2637 12.7775 32.9117L9.90975 34.8316ZM16.7658 33.7074C16.5369 33.9991 16.1132 34.0512 15.8214 33.8233L14.6628 32.9188L20.3941 29.0817L16.7658 33.7074ZM30.8863 17.4533C31.0934 16.4041 31.641 15.4779 32.4469 14.7976L34.3632 17.6531C34.4624 17.8017 34.498 17.98 34.4634 18.1555C34.4286 18.3318 34.3271 18.484 34.1775 18.5842L31.3188 20.4981C30.8334 19.5639 30.6796 18.501 30.8863 17.4533ZM34.7797 10.7416L32.7401 13.3418L27.4525 5.46251C26.9226 4.67286 25.8481 4.46121 25.0573 4.99062L20.3849 8.11884C19.8182 8.49826 20.405 9.3744 20.9717 8.99532L21.8948 8.37725C23.0069 9.74524 24.6577 10.4793 26.3376 10.4793C27.2721 10.4793 28.2152 10.2512 29.0797 9.78005L31.8566 13.918C30.8186 14.7584 30.1132 15.9232 29.8515 17.2489C29.59 18.5731 29.7992 19.9169 30.4384 21.0873L22.5559 26.3647C22.5552 26.3653 22.5543 26.3657 22.5535 26.3663L13.6575 32.3223C11.9266 30.1953 8.89298 29.6035 6.47517 30.9214L3.69811 26.7832C4.73611 25.9428 5.44152 24.778 5.70324 23.4523C5.96481 22.1272 5.75527 20.7825 5.11491 19.6114L18.5218 10.6354C19.0883 10.256 18.5015 9.37967 17.9349 9.75896L14.0174 12.3817L22.7006 1.31197C22.9294 1.0203 23.353 0.968127 23.645 1.19609L34.6655 9.79932C34.8068 9.90957 34.8964 10.0681 34.9182 10.246C34.9399 10.4241 34.8907 10.6001 34.7797 10.7416ZM25.6442 5.87041C25.9533 5.66361 26.3722 5.74546 26.5784 6.05267L27.5444 7.49218L28.4895 8.90054C26.5599 9.90092 24.178 9.43768 22.7776 7.78976L25.6442 5.87041Z" fill="white"/>
<path d="M13.9194 14.5992C12.3818 15.6287 11.3378 17.1948 10.9797 19.0091C10.6217 20.8225 10.992 22.6668 12.0225 24.2022C13.0565 25.743 14.6297 26.7871 16.4524 27.142C17.1008 27.2682 17.312 26.235 16.6539 26.1067C15.1086 25.8057 13.7749 24.9207 12.8982 23.6144C12.0249 22.3131 11.711 20.7501 12.0144 19.2132C12.3179 17.6756 13.2028 16.3482 14.5063 15.4755C17.1966 13.6743 20.8526 14.3954 22.656 17.0828C23.5294 18.3842 23.8432 19.9472 23.5398 21.4841C23.2363 23.0217 22.3514 24.3491 21.048 25.2216C20.535 25.5651 19.977 25.8242 19.3892 25.9917C18.7335 26.1786 19.0227 27.1929 19.6784 27.006C20.372 26.8082 21.0303 26.5028 21.6348 26.098C23.1724 25.0686 24.2164 23.5025 24.5745 21.6883C24.9325 19.8748 24.5622 18.0305 23.5318 16.4951C21.4046 13.3254 17.0927 12.4748 13.9194 14.5992Z" fill="white"/>
<path d="M25.8081 15.5002C25.909 15.5002 26.011 15.4713 26.1011 15.411L28.5837 13.7488C28.8257 13.5868 28.8905 13.2592 28.7286 13.0172C28.5665 12.7752 28.2389 12.7104 27.9969 12.8724L25.5143 14.5345C25.2723 14.6966 25.2075 15.0241 25.3694 15.2661C25.4711 15.4181 25.638 15.5002 25.8081 15.5002Z" fill="white"/>
<path d="M9.45191 25.2884L6.96934 26.9506C6.72738 27.1126 6.66255 27.4401 6.82449 27.6821C6.92623 27.8341 7.09309 27.9162 7.26319 27.9162C7.36409 27.9162 7.46605 27.8873 7.55612 27.827L10.0387 26.1648C10.2807 26.0028 10.3455 25.6753 10.1835 25.4333C10.0214 25.1913 9.69394 25.1264 9.45191 25.2884Z" fill="white"/>
<path d="M19.6499 24.1634C20.0475 24.7559 20.894 24.1244 20.5257 23.5757L20.2415 23.1523C21.0019 22.3686 21.0267 21.2844 20.6807 20.5176C20.1096 19.2517 18.935 19.1472 17.7425 19.4284L16.5461 17.6455C16.8466 17.5479 17.0809 17.5734 17.104 17.5762C17.7754 17.673 17.9305 16.6367 17.2597 16.533C17.2232 16.5275 16.6252 16.4425 15.9449 16.7497L15.7129 16.4039C15.3328 15.8378 14.457 16.4255 14.8371 16.9916L15.0901 17.3688C14.5422 17.9566 14.3836 18.8201 14.7016 19.5633C15.1674 20.6524 16.2113 20.7819 17.2609 20.6035L18.8004 22.8977C18.4953 23.0634 18.2499 23.115 17.7891 23.1206C17.1228 23.1287 17.1507 24.1855 17.8019 24.1753C18.5206 24.1665 18.9356 24.0384 19.3899 23.776L19.6499 24.1634ZM16.2247 19.6276C16.0061 19.6115 15.7889 19.4234 15.6714 19.1485C15.5705 18.9127 15.5353 18.5759 15.7063 18.2867L16.6037 19.624C16.4685 19.6338 16.3407 19.6361 16.2247 19.6276ZM18.4053 20.351C19.2732 20.1285 19.6304 20.7542 19.7193 20.9513C19.8862 21.3211 19.8986 21.8228 19.6266 22.2358L18.3681 20.3604C18.3806 20.3572 18.3925 20.3543 18.4053 20.351Z" fill="white"/>
</g>
<defs>
<clipPath id="clip0_452_6170">
<rect width="36" height="36" fill="white"/>
</clipPath>
</defs>
</svg>
