<svg width="24" height="24" viewBox="0 0 24 24" fill="none" xmlns="http://www.w3.org/2000/svg">
<path d="M12 24C18.6274 24 24 18.6274 24 12C24 5.37258 18.6274 0 12 0C5.37258 0 0 5.37258 0 12C0 18.6274 5.37258 24 12 24Z" fill="#25BB3D"/>
<path d="M12.7249 13.613C13.0917 13.9783 13.0917 14.6043 12.7249 14.9696L11.9651 15.7261C11.5983 16.0913 10.9694 16.0913 10.6026 15.7261L7.27511 12.387C6.9083 12.0217 6.9083 11.3957 7.27511 11.0304L8.03493 10.2739C8.40175 9.9087 9.03057 9.9087 9.39738 10.2739L12.7249 13.613Z" fill="white"/>
<path d="M15.0109 8.26168C15.3152 7.91277 15.837 7.91277 16.1413 8.26168L16.7717 8.98442C17.0761 9.33333 17.0761 9.93146 16.7717 10.2804L11.9891 15.7383C11.6848 16.0872 11.163 16.0872 10.8587 15.7383L10.2283 15.0156C9.92391 14.6667 9.92391 14.0685 10.2283 13.7196L15.0109 8.26168Z" fill="white"/>
</svg>
