<svg width="16" height="16" viewBox="0 0 16 16" fill="none" xmlns="http://www.w3.org/2000/svg">
<path d="M2.00033 0C1.27319 0 0.666992 0.606196 0.666992 1.33333V15.3333C0.667031 15.7015 0.965485 16 1.33366 16H9.33366C9.70184 16 10.0003 15.7015 10.0003 15.3333V12.3333C10.0003 12.1492 10.1496 12 10.3337 12H10.667C11.0431 12 11.3337 12.2906 11.3337 12.6667V13.3333C11.3337 14.43 12.237 15.3333 13.3337 15.3333C14.4303 15.3333 15.3337 14.43 15.3337 13.3333V4.66666C15.3337 4.03773 15.0373 3.44376 14.5342 3.06641L12.4001 1.46615C12.0744 1.22191 11.658 1.34005 11.4665 1.60026C11.2481 1.89693 11.3056 2.31316 11.6006 2.53385L12.4001 3.13281C12.5682 3.25875 12.6671 3.45659 12.667 3.66667V5.33333C12.667 5.94825 13.0984 6.47568 13.6709 6.625C13.8486 6.67135 14.0003 6.8159 14.0003 7V13.3333C14.0003 13.7094 13.7098 14 13.3337 14C12.9576 14 12.667 13.7094 12.667 13.3333V12.6667C12.667 11.57 11.7637 10.6667 10.667 10.6667H10.3337C10.1496 10.6667 10.0003 10.5174 10.0003 10.3333V1.33333C10.0003 0.606196 9.39414 2e-08 8.667 2e-08L2.00033 0ZM2.33366 1.33333H8.33366C8.51833 1.33333 8.667 1.482 8.667 1.66667V6.33333C8.667 6.518 8.51833 6.66666 8.33366 6.66666H2.33366C2.14899 6.66666 2.00033 6.518 2.00033 6.33333V1.66667C2.00033 1.482 2.14899 1.33333 2.33366 1.33333Z" fill="black"/>
</svg>
