<svg width="60" height="60" viewBox="0 0 60 60" fill="none" xmlns="http://www.w3.org/2000/svg">
<g clip-path="url(#clip0_261_3092)">
<path d="M59.7556 25.2384L49.7132 12.193C49.3415 11.7105 48.6636 11.5915 48.1495 11.9184L41.6657 16.0419H33.2095C33.1 16.0419 32.9911 16.0653 32.8858 16.0959L26.3293 17.9833L19.526 16.1225L12.9154 11.9184C12.41 11.597 11.7445 11.706 11.3686 12.172L0.260993 25.9305C-0.138177 26.4249 -0.0722589 27.1468 0.409309 27.5611L6.23115 32.5713L11.4542 39.6099C9.92667 41.2372 9.95643 43.8039 11.5458 45.3937C12.2503 46.0977 13.1461 46.4955 14.0676 46.588C14.0356 46.7968 14.0191 47.0087 14.0191 47.2238C14.0191 48.3344 14.4517 49.3785 15.2367 50.1636C16.0223 50.9491 17.0664 51.3817 18.177 51.3817C18.1921 51.3817 18.2067 51.3808 18.2214 51.3803C18.2209 51.4087 18.2195 51.4366 18.2195 51.465C18.2195 52.5756 18.6521 53.6197 19.4372 54.4052C20.2227 55.1903 21.2669 55.6229 22.3774 55.6229C22.5967 55.6229 22.8136 55.605 23.0265 55.5721C23.1167 56.4968 23.5154 57.3967 24.2222 58.1035C25.0324 58.9142 26.0972 59.3193 27.1619 59.3193C28.2267 59.3193 29.2915 58.9142 30.1022 58.1035L30.738 57.4677L31.0049 57.6828C31.8087 58.4615 32.8524 58.8506 33.8961 58.8506C34.9609 58.8506 36.0256 58.4455 36.8359 57.6348C37.663 56.8076 38.0682 55.7158 38.0512 54.6295C39.137 54.646 40.2293 54.2414 41.0564 53.4146C41.8827 52.5879 42.2878 51.4971 42.2718 50.4113C43.4029 50.4291 44.4759 49.9947 45.2766 49.1941C46.1037 48.3669 46.5089 47.2751 46.4919 46.1888C47.5787 46.2053 48.67 45.8007 49.4971 44.9735C50.9089 43.5617 51.0906 41.3796 50.0437 39.7687L53.8573 31.7816L59.5908 26.8479C60.0646 26.44 60.137 25.7332 59.7556 25.2384ZM12.5391 14.4677L17.2926 17.4903L6.95213 30.0879L2.80845 26.5215L12.5391 14.4677ZM13.2098 41.1772L14.6444 39.7426C14.6879 39.6991 14.7337 39.6579 14.7803 39.6195C15.061 39.3906 15.4006 39.2542 15.7604 39.2217C15.7705 39.2208 15.781 39.2208 15.7911 39.2203C15.8424 39.2162 15.8936 39.2134 15.9454 39.2139C16.437 39.2208 16.8938 39.4217 17.2326 39.7792C17.8973 40.4819 17.8616 41.63 17.1529 42.3386L15.7618 43.7297C15.0582 44.4333 13.9133 44.4333 13.2098 43.7297C12.5062 43.0257 12.5062 41.8808 13.2098 41.1772ZM16.9007 48.4996C16.5597 48.1591 16.372 47.7059 16.372 47.2238C16.372 46.7418 16.5597 46.2886 16.9007 45.9476L19.6825 43.1658C20.2154 42.6329 21.0531 42.4869 21.7342 42.8115C22.4364 43.1461 22.8315 43.9083 22.7285 44.675C22.6736 45.0843 22.4831 45.4697 22.1911 45.7622L19.4532 48.4996C19.1122 48.8407 18.659 49.0284 18.177 49.0284C17.6949 49.0284 17.2417 48.8407 16.9007 48.4996ZM21.1011 52.7408C20.7601 52.4002 20.5724 51.9471 20.5724 51.465C20.5724 50.983 20.7601 50.5298 21.1011 50.1888L23.8825 47.407C24.4524 46.8375 25.3666 46.7148 26.0642 47.1208C26.7014 47.4916 27.0351 48.2195 26.9257 48.9446C26.8658 49.3433 26.6763 49.7182 26.3911 50.0034L23.6536 52.7408C23.3126 53.0818 22.8594 53.2695 22.3774 53.2695C21.8954 53.2695 21.4422 53.0818 21.1011 52.7408ZM25.8857 56.4395C25.1821 55.736 25.1821 54.5911 25.8857 53.8875L27.3203 52.4529C27.3638 52.4094 27.4091 52.3687 27.4558 52.3302C27.4572 52.3293 27.4581 52.3284 27.459 52.3275C27.6925 52.1379 27.9667 52.0111 28.2592 51.9557C28.2661 51.9548 28.2729 51.9539 28.2798 51.953C28.3302 51.9438 28.3814 51.9365 28.4327 51.9319C28.4533 51.9301 28.4739 51.9301 28.4949 51.9287C28.5371 51.9265 28.5787 51.9237 28.6213 51.9242C29.1125 51.931 29.5698 52.1315 29.9085 52.4895C29.9502 52.5334 29.9891 52.5792 30.0248 52.6264C30.5659 53.3336 30.4931 54.3842 29.8215 55.0562L28.4377 56.44C27.7341 57.1436 26.5893 57.1431 25.8857 56.4395ZM47.8332 43.3095C47.1296 44.0135 45.9847 44.0131 45.2811 43.3095C45.2555 43.2839 45.2285 43.2601 45.201 43.2376L37.636 35.593C37.1787 35.1311 36.4339 35.1274 35.9721 35.5847C35.5102 36.0416 35.5065 36.7864 35.9634 37.2483L43.6103 44.9749C43.6112 44.9758 43.6121 44.9767 43.6131 44.9776C44.3166 45.6812 44.3166 46.8265 43.6131 47.5301C43.272 47.8711 42.8188 48.0588 42.3368 48.0588C41.8543 48.0588 41.4011 47.8711 41.0606 47.5301L35.9451 42.3615C35.4882 41.8996 34.7434 41.8959 34.2815 42.3528C33.8197 42.8101 33.816 43.5549 34.2728 44.0168L39.3101 49.1062C39.3357 49.1382 39.3632 49.1689 39.3925 49.1982C40.0961 49.9018 40.0961 51.0471 39.3925 51.7507C38.6884 52.4543 37.5431 52.4538 36.8395 51.7502L34.0476 48.929C33.5903 48.4671 32.8455 48.463 32.3836 48.9203C31.9218 49.3772 31.9181 50.1219 32.375 50.5838L35.089 53.3258C35.1147 53.3579 35.1421 53.389 35.1719 53.4183C35.8755 54.1219 35.8755 55.2672 35.1719 55.9708C34.4683 56.6748 33.3234 56.6744 32.6199 55.9708C32.5388 55.8898 32.4436 55.8275 32.353 55.7579C32.2761 55.6993 32.2559 55.6586 32.2944 55.5652C32.3333 55.4705 32.3914 55.3849 32.4303 55.2896C32.4734 55.1834 32.5082 55.074 32.542 54.9642C32.7224 54.3828 32.7755 53.7575 32.6945 53.1542C32.5388 51.9965 31.9021 50.9519 30.9371 50.2909C30.4157 49.9343 29.8124 49.7003 29.1871 49.6125C29.4901 48.2758 29.1262 46.8265 28.1795 45.8263C27.4004 45.0032 26.348 44.5414 25.216 44.5258C25.1748 44.5253 25.1336 44.5253 25.0919 44.5258C25.1171 43.4455 24.7243 42.372 23.9796 41.5851C23.2 40.7621 22.1476 40.3002 21.016 40.2846C20.6795 40.28 20.3399 40.3157 20.0121 40.3913C19.8721 39.4167 19.3809 38.5149 18.637 37.8699C17.8977 37.2299 16.968 36.8747 15.9779 36.861C14.9355 36.8459 13.9115 37.2304 13.1374 37.9294L8.58955 31.8013L19.4697 18.5463L22.9372 19.4948L18.4086 27.486C17.8611 28.4523 17.7228 29.5739 18.019 30.6441C18.3152 31.7148 19.0101 32.6056 19.9764 33.1531C20.0368 33.1874 20.0977 33.2199 20.1595 33.2511C20.1641 33.2534 20.1687 33.2556 20.1737 33.2579C20.3362 33.339 20.5033 33.4085 20.6727 33.4671C21.4614 33.7404 22.3133 33.7702 23.135 33.5431C24.2052 33.247 25.0961 32.5516 25.6435 31.5857L28.5865 26.3924L33.8412 26.765L47.8336 40.757C48.5368 41.4611 48.5368 42.6059 47.8332 43.3095ZM48.3207 37.9166L35.1943 24.7907C35.1696 24.7655 35.1435 24.7417 35.1165 24.7193C34.9274 24.5618 34.6931 24.4666 34.4459 24.4492L28.012 23.9928C27.5671 23.9621 27.1249 24.1988 26.9051 24.5865L23.5964 30.4258C23.3588 30.8451 22.972 31.1467 22.5074 31.2754C22.0432 31.404 21.5562 31.3436 21.1364 31.106C20.7171 30.8684 20.4154 30.4816 20.2868 30.017C20.1582 29.5523 20.2181 29.0653 20.4562 28.646L24.8731 20.8507L26.663 20.3357C26.6749 20.3321 26.6863 20.3275 26.6982 20.3238L33.3784 18.3948H41.4497L51.526 31.204L48.3207 37.9166ZM53.0672 29.3573L43.749 17.5054L48.5047 14.4809L57.2118 25.7909L53.0672 29.3573Z" fill="black"/>
<path d="M36.3493 13.8313C36.6505 13.8313 36.9517 13.7164 37.1815 13.4866L45.218 5.45007C45.6776 4.99048 45.6776 4.2457 45.218 3.7861C44.7584 3.32651 44.0136 3.32651 43.554 3.7861L35.5175 11.8226C35.058 12.2822 35.058 13.027 35.5175 13.4866C35.7473 13.7164 36.0486 13.8313 36.3493 13.8313Z" fill="black"/>
<path d="M22.8187 13.4866C23.0485 13.7164 23.3497 13.8313 23.6509 13.8313C23.9517 13.8313 24.2529 13.7164 24.4827 13.4866C24.9423 13.027 24.9423 12.2822 24.4827 11.8226L16.4462 3.7861C15.9866 3.32651 15.2418 3.32651 14.7822 3.7861C14.3226 4.2457 14.3226 4.99048 14.7822 5.45007L22.8187 13.4866Z" fill="black"/>
<path d="M29.9997 13.8319C30.6493 13.8319 31.1762 13.305 31.1762 12.6554V6.00458C31.1762 5.35501 30.6493 4.82812 29.9997 4.82812C29.3501 4.82812 28.8232 5.35501 28.8232 6.00458V12.6554C28.8232 13.305 29.3501 13.8319 29.9997 13.8319Z" fill="black"/>
<path d="M28.9138 1.74041C29.1006 2.19314 29.5661 2.49022 30.0573 2.46459C30.5426 2.43941 30.9687 2.11165 31.1189 1.64977C31.2695 1.18422 31.1056 0.653676 30.7156 0.357045C30.3178 0.0540059 29.763 0.0370686 29.3469 0.312184C28.8827 0.618886 28.7028 1.22954 28.9138 1.74041Z" fill="black"/>
</g>
<defs>
<clipPath id="clip0_261_3092">
<rect width="60" height="60" fill="white"/>
</clipPath>
</defs>
</svg>
