<svg width="36" height="36" viewBox="0 0 36 36" fill="none" xmlns="http://www.w3.org/2000/svg">
<g clip-path="url(#clip0_452_6166)">
<path d="M35.5319 25.9152L32.1808 24.6954C31.872 24.5837 31.5313 24.7433 31.4196 25.0521L31.2161 25.6102L27.3339 24.1945C27.2364 24.1579 27.1308 24.1489 27.0283 24.1678L18.951 25.5942C18.2188 25.7245 17.5899 26.1894 17.2498 26.8506L13.5446 25.499C12.9528 25.2814 12.2981 25.3104 11.7278 25.5794C11.0031 25.9175 10.4967 26.596 10.3786 27.3869C10.2306 28.5315 10.9085 29.6224 12.0006 29.9965L24.2057 34.4389C24.2707 34.4629 24.3397 34.4754 24.4091 34.4751C24.4738 34.4751 24.538 34.4644 24.5992 34.4438L28.0078 33.2931L28.3706 33.4248L28.1671 33.9835C28.0554 34.2923 28.215 34.6333 28.5238 34.745L31.8755 35.9645C31.9402 35.9886 32.009 36.0011 32.0781 36.0008C32.328 36.0011 32.5514 35.8447 32.6367 35.6099L35.8892 26.6729C35.9986 26.365 35.839 26.0266 35.5319 25.9152ZM27.8247 32.1017L24.4161 33.2525L12.4069 28.8809C11.8514 28.696 11.4971 28.1516 11.5534 27.5686C11.6036 27.2133 11.8114 26.8999 12.119 26.715C12.4267 26.5304 12.801 26.4948 13.138 26.6178L16.9944 28.021C16.9964 28.1307 17.0051 28.2401 17.0211 28.3484C17.2541 29.6375 18.4823 30.4983 19.7735 30.2771L26.465 29.0974L26.2581 27.9264L19.5698 29.1064C18.9258 29.2158 18.3128 28.7886 18.1927 28.1464C18.168 28.0108 18.1689 27.8715 18.1956 27.7363C18.1999 27.7166 18.2034 27.6968 18.2057 27.6768C18.2136 27.626 18.2272 27.5764 18.2467 27.5288C18.3926 27.1297 18.7397 26.8387 19.1579 26.7638L27.0771 25.3673L30.8098 26.7252L28.7769 32.3122L28.2182 32.1096C28.0917 32.0626 27.9529 32.0597 27.8247 32.1017ZM31.7202 34.6464L29.4862 33.8332L32.3317 26.0139L34.5661 26.8268L31.7202 34.6464Z" fill="white"/>
<path d="M13.8855 9.5876C14.0773 10.2899 14.4311 10.9377 14.9184 11.4784C14.9094 11.526 14.903 11.5738 14.9001 11.6223V14.8591C14.9001 15.8438 15.6982 16.6422 16.6832 16.6422V22.5858C16.6817 22.8122 16.8094 23.0197 17.0117 23.1207L18.2004 23.715C18.3679 23.7986 18.5647 23.7986 18.7318 23.715L19.9206 23.1207C20.1231 23.0197 20.2505 22.8122 20.2494 22.5858V16.6422C21.2341 16.6422 22.0325 15.8438 22.0325 14.8591V11.6223C22.0293 11.5704 22.0226 11.5187 22.0127 11.4676C22.4097 11.0308 22.7191 10.5218 22.924 9.96808C23.8016 10.1155 24.6801 9.7124 25.141 8.95116C25.706 8.01637 25.5513 6.81517 24.7677 6.05422L19.9307 1.21834C19.1524 0.435919 18.0931 -0.00288786 16.9891 1.43045e-05H10.7396C10.6589 -0.000275912 10.5794 0.0162664 10.5054 0.0481903L6.46002 1.7831H5.98465V0.594377C5.98465 0.266143 5.71852 1.43045e-05 5.39029 1.43045e-05H0.635379C0.307144 1.43045e-05 0.0410156 0.266143 0.0410156 0.594377V10.1042C0.0410156 10.4324 0.307144 10.6986 0.635379 10.6986H5.39029C5.71852 10.6986 5.98465 10.4324 5.98465 10.1042V8.91546H6.07142C6.49688 10.3419 8.40825 11.2929 10.1452 11.2929C11.5861 11.3225 12.9626 10.6951 13.8855 9.5876ZM4.79592 9.50982H1.22974V1.18874H4.79592V9.50982ZM19.0606 22.2184L18.4663 22.5156L17.8719 22.2184V16.6422H19.0606V22.2184ZM20.8437 14.8591C20.8437 15.1873 20.5776 15.4535 20.2494 15.4535H16.6832C16.355 15.4535 16.0888 15.1873 16.0888 14.8591V12.4329C16.4885 12.6656 16.9206 12.838 17.3707 12.944C17.5762 13.444 18.0913 13.7441 18.6273 13.6762C19.1637 13.6086 19.588 13.1898 19.6626 12.6543C19.7371 12.1192 19.4434 11.6003 18.9463 11.3884C18.4489 11.1768 17.8713 11.3245 17.5373 11.7494C17.2021 11.6615 16.8814 11.5248 16.5863 11.3434C17.1591 10.996 17.8005 10.776 18.4663 10.6986C19.3195 10.8184 20.1333 11.1347 20.8437 11.6223V14.8591ZM21.2863 10.5041C20.4366 9.95763 19.471 9.61721 18.4663 9.50982C17.4633 9.61662 16.4992 9.95647 15.6506 10.5018C15.2881 10.0403 15.0481 9.49473 14.9529 8.91546H17.8719C18.7426 8.92417 19.5447 8.44415 19.9484 7.67275L21.6128 9.33686C21.6793 9.39896 21.7495 9.45672 21.8232 9.50982C21.7007 9.86882 21.5194 10.2049 21.2863 10.5041ZM20.2212 6.26404C20.1658 5.77764 19.9597 5.32055 19.6324 4.95633C20.9767 5.42329 21.9149 6.64452 22.0194 8.06368L20.2212 6.26404ZM13.117 8.3211C13.117 9.22106 11.6447 10.1042 10.1452 10.1042C8.64564 10.1042 7.17338 9.22106 7.17338 8.3211C7.17338 7.99286 6.90725 7.72674 6.57901 7.72674H5.98465V2.97183H6.57901C6.6594 2.97212 6.73921 2.95558 6.81322 2.92365L10.8583 1.18874H16.9862C17.7756 1.18584 18.5336 1.49927 19.0902 2.05881L23.9261 6.89468C24.317 7.25978 24.405 7.84601 24.1383 8.30978C23.9398 8.62408 23.5927 8.81273 23.2212 8.80837C23.2116 8.80837 23.2026 8.80837 23.193 8.80837C23.211 8.64672 23.2203 8.48391 23.2212 8.3211C23.2183 5.69638 21.091 3.5691 18.4663 3.56619C17.6676 3.56735 16.8823 3.77196 16.1843 4.16056H11.3339V5.34928H17.8719C18.5284 5.34928 19.0606 5.88154 19.0606 6.53801C19.0606 7.19448 18.5284 7.72674 17.8719 7.72674H13.7114C13.3831 7.72674 13.117 7.99286 13.117 8.3211Z" fill="white"/>
</g>
<defs>
<clipPath id="clip0_452_6166">
<rect width="36" height="36" fill="white"/>
</clipPath>
</defs>
</svg>
