<svg width="22" height="20" viewBox="0 0 22 20" fill="none" xmlns="http://www.w3.org/2000/svg">
<path d="M18.3671 3.84124C17.9415 3.41541 17.4361 3.07761 16.8799 2.84714C16.3237 2.61667 15.7275 2.49805 15.1254 2.49805C14.5234 2.49805 13.9272 2.61667 13.371 2.84714C12.8147 3.07761 12.3094 3.41541 11.8838 3.84124L11.0004 4.72457L10.1171 3.84124C9.25735 2.98149 8.09129 2.49849 6.87542 2.49849C5.65956 2.49849 4.4935 2.98149 3.63376 3.84124C2.77401 4.70098 2.29102 5.86704 2.29102 7.0829C2.29102 8.29876 2.77401 9.46483 3.63376 10.3246L4.51709 11.2079L11.0004 17.6912L17.4838 11.2079L18.3671 10.3246C18.7929 9.89894 19.1307 9.39358 19.3612 8.83736C19.5917 8.28115 19.7103 7.68497 19.7103 7.0829C19.7103 6.48083 19.5917 5.88465 19.3612 5.32844C19.1307 4.77222 18.7929 4.26686 18.3671 3.84124V3.84124Z" stroke="black" stroke-linecap="round" stroke-linejoin="round"/>
</svg>
