<svg width="8" height="27" viewBox="0 0 8 27" fill="none" xmlns="http://www.w3.org/2000/svg">
<path d="M3.11182 0.668854C3.11304 0.434301 2.98956 0.216633 2.78776 0.0972214C2.58555 -0.0254459 2.3333 -0.0315495 2.12519 0.080946C0.800061 0.783791 -0.0203652 2.16914 0.000384515 3.66901C0.0209308 5.16889 0.878991 6.53125 2.22304 7.19748L2.22304 20.7871C2.22223 20.9205 2.161 21.0467 2.05623 21.1297C0.973789 21.9991 0.598464 23.4807 1.13653 24.7607C1.6746 26.0404 2.99566 26.809 4.3743 26.6438C5.745 26.4678 6.84005 25.4171 7.07216 24.0548C7.25504 22.9524 6.82805 21.837 5.95595 21.1386C5.84651 21.054 5.781 20.9244 5.77816 20.7861L5.79362 7.19341C7.14784 6.48589 7.99776 5.08528 8 3.55733C8.00102 2.09184 7.18079 0.749208 5.87641 0.0813522C5.66912 -0.0301247 5.4187 -0.0246334 5.21649 0.0955925C5.01428 0.216022 4.89019 0.433487 4.88938 0.668854V3.55733H3.11182L3.11182 0.668854ZM3.11182 10.2233H4.88938V18.2225H3.11182L3.11182 10.2233ZM5.39815 21.8301C6.02186 22.3301 6.32619 23.1281 6.19417 23.9164C6.02817 24.8874 5.24741 25.6362 4.27034 25.7611C3.28473 25.8813 2.339 25.3329 1.9537 24.4179C1.56821 23.5029 1.83673 22.4432 2.61139 21.8221C2.92711 21.5713 3.11141 21.1903 3.11182 20.7871V19.1113H4.88938L4.88938 20.7861C4.89141 21.1933 5.07877 21.5774 5.39815 21.8301ZM5.77816 3.55733V1.05984C6.61221 1.61703 7.11265 2.55423 7.11122 3.55733C7.11142 4.75125 6.44927 5.84692 5.39185 6.40146C5.08711 6.55017 4.89243 6.85836 4.88938 7.19748V9.33449H3.11182V7.19748C3.10938 6.85714 2.91287 6.54793 2.60549 6.40146C1.62456 5.90876 0.975213 4.93576 0.896893 3.84071C0.81837 2.74565 1.32226 1.69027 2.22304 1.06249L2.22304 3.55733C2.22304 4.0482 2.62095 4.44611 3.11182 4.44611H4.88938C5.38025 4.44611 5.77816 4.0482 5.77816 3.55733Z" fill="black"/>
<path d="M2.66797 23.5534C2.66797 24.2899 3.26483 24.8867 4.00124 24.8867C4.73744 24.8867 5.3343 24.2899 5.3343 23.5534C5.3343 22.8172 4.73744 22.2204 4.00124 22.2204C3.64768 22.2204 3.30856 22.3607 3.05855 22.6108C2.80854 22.8608 2.66797 23.1999 2.66797 23.5534ZM4.44552 23.5534C4.44552 23.799 4.24657 23.9979 4.00124 23.9979C3.7557 23.9979 3.55675 23.799 3.55675 23.5534C3.55675 23.3081 3.7557 23.1092 4.00124 23.1092C4.24657 23.1092 4.44552 23.3081 4.44552 23.5534Z" fill="black"/>
</svg>
