<svg width="38" height="38" viewBox="0 0 38 38" fill="none" xmlns="http://www.w3.org/2000/svg">
<path d="M15.2622 13.2945C15.2229 13.8842 15.1995 14.5149 15.1995 15.1995C15.1995 18.3718 16.1463 20.2661 17.7327 20.2661C19.7322 20.2661 20.266 17.8772 20.266 16.4662C20.266 16.116 19.9829 15.8329 19.6327 15.8329C19.2831 15.8329 18.9994 16.116 18.9994 16.4662C18.9994 16.4915 18.9449 18.9994 17.7327 18.9994C16.9987 18.9994 16.4661 17.401 16.4661 15.1995C16.4661 7.81566 19.0576 6.97463 19.1387 6.95051C19.4731 6.87518 19.6878 6.54647 19.62 6.20827C19.5516 5.86561 19.2198 5.64273 18.8746 5.71175C18.7479 5.73706 18.2894 5.85804 17.7371 6.3305C17.7377 6.22222 17.7466 6.11327 17.7758 6.00499C17.8632 5.67821 18.0728 5.40524 18.366 5.2355C18.6593 5.06703 19 5.02146 19.3268 5.10948C19.6536 5.19691 19.9272 5.4065 20.0956 5.69973C20.4452 6.30393 20.2368 7.08039 19.632 7.42995C19.3293 7.60474 19.2261 7.99237 19.4009 8.2951C19.518 8.49839 19.7308 8.61179 19.9499 8.61179C20.0576 8.61179 20.1665 8.58455 20.2659 8.52696C21.4749 7.82776 21.8904 6.27551 21.1931 5.06651C20.8543 4.48005 20.3084 4.06146 19.6548 3.88601C18.9993 3.71056 18.3179 3.80118 17.7327 4.13872C17.1462 4.47752 16.727 5.02346 16.5522 5.67769C16.3882 6.28946 16.4654 6.92409 16.7637 7.50291C16.2203 8.38706 15.7124 9.70367 15.4299 11.6613C14.4812 10.5258 13.9328 9.07988 13.9328 7.59984C13.9328 4.1077 16.7739 1.26666 20.2659 1.26666C23.7574 1.26666 26.5991 4.10777 26.5991 7.59984C26.5991 11.0919 23.7574 13.933 20.2659 13.933C19.5775 13.933 18.9017 13.8235 18.2558 13.6081C17.9245 13.4979 17.5661 13.6758 17.4546 14.0077C17.3438 14.3396 17.523 14.698 17.8548 14.8089C18.63 15.0679 19.4413 15.1997 20.2659 15.1997C24.4565 15.1997 27.8657 11.7899 27.8657 7.59984C27.8657 3.40917 24.4565 0 20.2659 0C16.0752 0 12.666 3.40917 12.666 7.59984C12.6662 9.75933 13.6358 11.8575 15.2622 13.2945Z" fill="white"/>
<path d="M8.2329 24.0655H13.2995C14.0379 24.0655 15.2944 25.0079 16.4027 25.8388C17.7922 26.8812 19.1044 27.8654 20.2659 27.8654H24.0659C25.0273 27.8654 25.5054 28.3017 25.5181 28.3132C25.6416 28.4367 25.8037 28.4987 25.9658 28.4987C26.128 28.4987 26.2895 28.4367 26.4136 28.3132C26.6606 28.0655 26.6606 27.6647 26.4136 27.4177C26.33 27.3334 25.5516 26.5987 24.0659 26.5987H20.2659C19.5269 26.5987 18.271 25.6563 17.1627 24.8255C15.7732 23.783 14.4603 22.7988 13.2995 22.7988H8.2329C7.88334 22.7988 7.59961 23.0819 7.59961 23.4321C7.59961 23.7818 7.88334 24.0655 8.2329 24.0655Z" fill="white"/>
<path d="M27.8079 12.8702L34.2 19.2623V21.5334H31.9289L31.6667 21.2712V19.6334C31.6667 19.2832 31.3836 19.0001 31.0334 19.0001H30.4001V18.3668C30.4001 18.0166 30.117 17.7336 29.7668 17.7336H28.1297L27.8668 17.4708V15.8336C27.8668 15.4834 27.5838 15.2003 27.2336 15.2003H25.5958L25.5343 15.1388C25.2874 14.8912 24.8864 14.8912 24.6388 15.1388C24.3913 15.3865 24.3912 15.7868 24.6388 16.0344L24.8858 16.2813C25.0043 16.3998 25.1651 16.4669 25.3336 16.4669H26.6002V17.7323C26.6002 17.9001 26.6667 18.061 26.7851 18.18L27.4184 18.814C27.5369 18.933 27.6984 19.0002 27.8668 19.0002H29.1335V19.6335C29.1335 19.9831 29.4166 20.2668 29.7668 20.2668H30.4001V21.5335C30.4001 21.7013 30.4666 21.8622 30.5856 21.9812L31.2189 22.6145C31.3374 22.733 31.4982 22.8001 31.6667 22.8001H34.8333C35.1836 22.8001 35.4666 22.5163 35.4666 22.1668V19.0001C35.4666 18.8323 35.3994 18.6708 35.2811 18.5524L28.7034 11.9748C28.4558 11.7272 28.0555 11.7272 27.8079 11.9748C27.5603 12.2223 27.5603 12.6225 27.8079 12.8702Z" fill="white"/>
<path d="M3.16758 33.8836C3.16758 33.3598 2.74134 32.9336 2.21758 32.9336C1.69382 32.9336 1.26758 33.3598 1.26758 33.8836C1.26758 34.4074 1.69382 34.8336 2.21758 34.8336C2.74134 34.8336 3.16758 34.4074 3.16758 33.8836Z" fill="white"/>
<path d="M4.43321 20.2656H0.633295C0.283732 20.2656 0 20.5487 0 20.8989C0 21.2485 0.283732 21.5322 0.633295 21.5322H4.43321C4.78218 21.5322 5.06651 21.8159 5.06651 22.1655V36.0985C5.06651 36.4475 4.78218 36.7318 4.43321 36.7318H0.633295C0.283732 36.7318 0 37.0149 0 37.3651C0 37.7147 0.283732 37.9984 0.633295 37.9984H4.43321C5.48072 37.9984 6.33317 37.1459 6.33317 36.0984V22.1656C6.33317 21.1175 5.48072 20.2656 4.43321 20.2656Z" fill="white"/>
<path d="M37.6595 26.6002C36.961 25.3899 35.4061 24.9757 34.2383 25.6522L26.9494 29.2C25.8158 29.7668 24.6727 29.7668 22.166 29.7668C19.7157 29.7668 15.9741 29.1481 15.9366 29.1418C15.5889 29.0841 15.2654 29.3178 15.2077 29.6623C15.1507 30.0075 15.3837 30.3336 15.7282 30.3913C15.886 30.4179 19.6099 31.0335 22.1659 31.0335C24.7954 31.0335 26.1153 31.0335 27.5093 30.3362L34.8323 26.77C35.1249 26.6009 35.4663 26.556 35.7931 26.6433C36.1199 26.7307 36.3935 26.9403 36.5619 27.2336C36.7316 27.5268 36.7766 27.8681 36.6886 28.195C36.6018 28.5212 36.3922 28.7947 36.0806 28.9746L27.5181 34.304C27.5004 34.3155 25.6732 35.4668 21.5326 35.4668C17.9424 35.4668 12.3957 32.4104 12.3159 32.3667C12.2589 32.3382 10.8852 31.6669 8.2329 31.6669C7.88334 31.6669 7.59961 31.9499 7.59961 32.3002C7.59961 32.6497 7.88334 32.9335 8.2329 32.9335C10.5363 32.9335 11.7231 33.487 11.725 33.487C11.9645 33.62 17.6137 36.7334 21.5326 36.7334C26.1045 36.7334 28.1331 35.4161 28.2002 35.3711L36.7323 30.0607C37.3181 29.7225 37.7373 29.176 37.9122 28.5224C38.0877 27.8687 37.9977 27.186 37.6595 26.6002Z" fill="white"/>
</svg>
