<svg width="64" height="64" viewBox="0 0 64 64" fill="none" xmlns="http://www.w3.org/2000/svg">
<g clip-path="url(#clip0_399_5796)">
<path d="M28.3446 16.8533L21.4897 9.99825C20.2212 8.72975 18.1571 8.72975 16.8886 9.99825L14.176 12.7109C12.9075 13.9794 12.9075 16.0435 14.176 17.312L21.0309 24.1669C21.6652 24.8013 22.4982 25.1183 23.3315 25.1183C24.1645 25.1183 24.9979 24.801 25.632 24.1669L28.3446 21.4544C29.6131 20.1859 29.6131 18.1218 28.3446 16.8533ZM27.0565 20.1663L24.3439 22.8788C24.0734 23.1491 23.7139 23.2981 23.3315 23.2981C22.949 23.2981 22.5895 23.1491 22.319 22.8788L15.4641 16.0239C14.9059 15.4656 14.9059 14.5573 15.4641 13.999L18.1767 11.2865C18.4559 11.0074 18.8225 10.8678 19.1892 10.8678C19.5559 10.8678 19.9225 11.0074 20.2016 11.2864L27.0565 18.1414C27.3269 18.4119 27.4759 18.7714 27.4759 19.1538C27.4759 19.5363 27.3269 19.8958 27.0565 20.1663Z" fill="white"/>
<path d="M20.037 25.1579L13.182 18.3029C11.9135 17.0344 9.84949 17.0344 8.58099 18.3029L5.86837 21.0156C4.59987 22.2841 4.59987 24.3482 5.86837 25.6167L12.7232 32.4717C13.3575 33.1059 14.1906 33.423 15.0237 33.423C15.8569 33.423 16.6901 33.1059 17.3244 32.4717L20.037 29.7591C21.3055 28.4906 21.3055 26.4264 20.037 25.1579ZM18.7489 28.4709L16.0362 31.1834C15.478 31.7417 14.5696 31.7415 14.0114 31.1834L7.15649 24.3284C6.88612 24.0579 6.73712 23.6984 6.73712 23.3161C6.73712 22.9337 6.88599 22.5741 7.15649 22.3037L9.86912 19.5911C10.1482 19.3119 10.5149 19.1724 10.8815 19.1724C11.2481 19.1724 11.6147 19.3119 11.8939 19.5911L18.7489 26.4461C19.3071 27.0043 19.3071 27.9127 18.7489 28.4709Z" fill="white"/>
<path d="M62.131 21.1453L53.5042 12.5185C52.2082 11.2225 50.4154 10.5463 48.5868 10.6622C48.1626 10.6892 47.7462 10.7599 47.3421 10.8682C45.8642 9.74066 44.077 8.71028 42.1204 7.8714C39.2113 6.62402 36.2528 5.93702 33.7894 5.93702C33.789 5.93702 33.7886 5.93702 33.7884 5.93702C33.4481 5.93702 33.1221 5.95127 32.8094 5.97764C32.0846 5.14252 31.0527 4.58126 29.8881 4.47076L21.5663 3.68089C19.4318 3.47826 17.3387 4.23151 15.8229 5.74739L7.1155 14.4548C6.75975 14.8104 6.75975 15.3872 7.1155 15.7429C7.47113 16.0986 8.04788 16.0986 8.40363 15.7429L17.111 7.03552C18.2414 5.90514 19.8026 5.34314 21.3942 5.49439L29.716 6.28427C30.9557 6.40202 31.941 7.38727 32.0587 8.62703L32.5047 13.3263C32.4964 13.3188 32.4879 13.3113 32.4794 13.3037C32.4037 13.236 32.329 13.1683 32.256 13.1002C32.1917 13.0404 32.1285 12.9804 32.0665 12.9203C32.0374 12.8919 32.0084 12.8637 31.9796 12.8352C31.8921 12.7487 31.8061 12.662 31.7232 12.575C31.6507 12.4988 31.5814 12.4229 31.5135 12.3472C31.4972 12.329 31.4811 12.311 31.4651 12.293C31.4009 12.2203 31.3382 12.1478 31.2782 12.0757C31.2647 12.0595 31.2521 12.0435 31.2389 12.0274C31.1916 11.9698 31.1459 11.9125 31.1015 11.8554C31.083 11.8317 31.0642 11.8078 31.0462 11.7842C30.998 11.7207 30.9514 11.6574 30.9066 11.5947C30.8845 11.5635 30.8634 11.5328 30.8421 11.5019C30.8257 11.478 30.81 11.4544 30.7941 11.4308C31.3142 10.3474 31.129 9.00753 30.2322 8.11078C29.0972 6.97577 27.2503 6.97565 26.1151 8.11078C24.98 9.24591 24.98 11.0928 26.1151 12.2279C26.6826 12.7954 27.4282 13.0792 28.1736 13.0792C28.6295 13.0792 29.085 12.9718 29.5001 12.7595C29.761 13.1142 30.0619 13.4719 30.4034 13.8308C31.0649 14.526 31.8551 15.2033 32.7437 15.8456L32.8485 16.9488C32.9996 18.5402 32.4379 20.1014 31.3074 21.2319L16.5998 35.9395C16.2234 36.3159 15.723 36.5231 15.1908 36.5231C14.6585 36.5231 14.1582 36.3159 13.7818 35.9395L2.40335 24.5611C2.02698 24.1847 1.81973 23.6843 1.81973 23.1521C1.81973 22.6198 2.02698 22.1195 2.40335 21.7431L4.19599 19.9504C4.55174 19.5948 4.55174 19.0181 4.19599 18.6623C3.84036 18.3067 3.26361 18.3067 2.90786 18.6623L1.11535 20.4547C-0.371783 21.9418 -0.371783 24.3617 1.11535 25.849L12.4938 37.2274C13.2142 37.9478 14.172 38.3446 15.1909 38.3446C16.2098 38.3446 17.1677 37.9479 17.8881 37.2274L32.5956 22.5198C34.0351 21.0802 34.7853 19.1197 34.6838 17.0983C35.5819 17.6182 36.5423 18.1013 37.5488 18.5328C38.1148 18.7756 38.6825 18.9963 39.2483 19.1957L34.1287 25.8131C32.3782 28.0756 32.3719 31.2007 33.9966 33.4612L29.7927 37.6651C29.3197 38.1383 29.1221 38.8364 29.277 39.4873C29.2865 39.5273 29.2744 39.5703 29.2452 39.5995L26.2116 42.6332C26.0906 42.7542 25.9888 42.8924 25.909 43.0443L24.201 46.2977L21.1356 47.8823C20.8112 48.05 20.5452 48.3235 20.3864 48.6525L19.1843 51.1453L15.5347 53.4314C15.1515 53.6713 14.899 54.0661 14.8418 54.5143L14.3117 58.6566C14.2522 59.1216 14.4082 59.5785 14.7397 59.9098C15.0248 60.195 15.4027 60.3502 15.7987 60.3502C15.863 60.3502 15.9279 60.3461 15.993 60.3378L20.1354 59.8077C20.5834 59.7503 20.9781 59.498 21.2182 59.115L23.5043 55.4653L25.997 54.2631C26.326 54.1044 26.5996 53.8382 26.7673 53.5138L28.3518 50.4487L31.6055 48.7405C31.7574 48.6608 31.8957 48.5589 32.0165 48.438L35.05 45.4045C35.0796 45.3749 35.1218 45.3629 35.1623 45.3728C35.8134 45.5275 36.5115 45.3299 36.9844 44.8569L41.1879 40.6534C42.2945 41.4489 43.6078 41.8541 44.9264 41.854C46.3013 41.854 47.6814 41.4145 48.8363 40.521L53.7085 36.7516C54.1063 36.4438 54.1793 35.8718 53.8716 35.4739C53.5638 35.0761 52.9917 35.0029 52.5938 35.3107L47.7217 39.0801C45.9332 40.4638 43.3913 40.3241 41.7634 38.769C41.762 38.7678 41.7609 38.7663 41.7597 38.765L41.723 38.7304C41.7112 38.7193 41.6992 38.7083 41.6877 38.6966L35.9531 32.9621C35.9418 32.9507 35.9309 32.939 35.9199 32.9274L35.884 32.8895C35.883 32.8885 35.882 32.8876 35.881 32.8866C34.3257 31.2589 34.1859 28.7166 35.5696 26.928L41.1058 19.7721C42.7949 20.2258 44.424 20.4674 45.8798 20.4674C45.8801 20.4674 45.8806 20.4674 45.8808 20.4674C46.3137 20.4674 46.7247 20.4457 47.1129 20.4032L54.3837 27.674C54.9107 28.2008 55.6028 28.4643 56.295 28.4643C56.9871 28.4643 57.6792 28.2008 58.2062 27.674C59.2601 26.6201 59.2601 24.9055 58.2062 23.8516L50.7982 16.4436C50.2877 15.9331 49.6089 15.6519 48.8869 15.6519C48.1649 15.6519 47.4862 15.9331 46.9757 16.4436C46.4652 16.9541 46.1839 17.6328 46.1839 18.3548C46.1839 18.4509 46.1897 18.5462 46.1996 18.6406C46.0949 18.6437 45.9889 18.6458 45.8806 18.6458C45.8802 18.6458 45.8801 18.6458 45.8797 18.6458C44.7901 18.6458 43.584 18.4923 42.3213 18.2008L45.3847 14.241C46.1861 13.2052 47.3952 12.5634 48.7022 12.4804C50.0094 12.3969 51.29 12.8808 52.216 13.8068L60.8427 22.4336C61.7687 23.3597 62.2523 24.6403 62.1691 25.9473C62.0861 27.2543 61.4444 28.4636 60.4085 29.2649L57.4651 31.542C57.0672 31.8499 56.9942 32.4219 57.302 32.8197C57.6097 33.2175 58.1817 33.2905 58.5797 32.9829L61.5231 30.7057C62.9728 29.5842 63.8708 27.892 63.9871 26.063C64.1036 24.2336 63.427 22.4413 62.131 21.1453ZM28.1737 11.2587C27.8827 11.2587 27.6091 11.1453 27.4032 10.9395C27.1975 10.7337 27.0841 10.46 27.0841 10.169C27.0841 9.87803 27.1975 9.60441 27.4032 9.39866C27.6091 9.19291 27.8827 9.07953 28.1737 9.07953C28.219 9.07953 28.2636 9.08328 28.3078 9.08865C28.2053 9.73966 28.3042 10.4418 28.5962 11.1738C28.4642 11.2293 28.3212 11.2587 28.1737 11.2587ZM35.2245 34.8096L39.8398 39.4249L35.6961 43.5685C35.667 43.5977 35.6238 43.6098 35.5839 43.6003C34.9331 43.4455 34.2349 43.643 33.7617 44.1162L30.7414 47.1365L27.4703 48.8539C27.1607 49.0163 26.9122 49.2664 26.7513 49.5773L25.168 52.6404L22.6804 53.8402C22.3919 53.9793 22.1496 54.1963 21.9794 54.4679L19.7543 58.0202L16.1709 58.4787L16.6295 54.8954L20.1816 52.6704C20.4531 52.5004 20.6702 52.2581 20.8094 51.9694L22.0092 49.4818L25.0723 47.8983C25.3828 47.7378 25.633 47.4893 25.7956 47.1797L27.5131 43.9082L30.5332 40.888C31.0064 40.415 31.2041 39.7168 31.0492 39.0659C31.0395 39.0251 31.0515 38.9831 31.081 38.9536L35.2245 34.8096ZM50.6413 18.8628L56.918 25.1395C57.2616 25.4831 57.2616 26.0421 56.918 26.3856C56.7515 26.5521 56.5302 26.6437 56.2948 26.6437C56.0595 26.6437 55.8382 26.5521 55.6717 26.3856L49.1781 19.8919C49.7816 19.6322 50.2739 19.2876 50.6413 18.8628ZM48.2638 17.7316C48.4303 17.5651 48.6516 17.4734 48.8869 17.4734C49.0428 17.4734 49.1921 17.5144 49.3238 17.5899C49.0673 17.9308 48.6158 18.1997 48.0069 18.3804C48.0067 18.3718 48.0057 18.3633 48.0057 18.3546C48.0057 18.1192 48.0973 17.8979 48.2638 17.7316ZM43.9439 13.126L40.427 17.6719C39.712 17.4393 38.9889 17.1683 38.2665 16.8586C36.8879 16.2674 35.6063 15.5789 34.4774 14.8314L33.8721 8.45465C33.8495 8.21665 33.8071 7.98453 33.7485 7.7589C33.7619 7.7589 33.7749 7.7584 33.7884 7.7584C33.7887 7.7584 33.7889 7.7584 33.7892 7.7584C36.0113 7.7584 38.7151 8.39303 41.4024 9.54541C42.8798 10.1789 44.2465 10.9242 45.4327 11.734C44.8709 12.1115 44.3668 12.5794 43.9439 13.126Z" fill="white"/>
</g>
<defs>
<clipPath id="clip0_399_5796">
<rect width="64" height="64" fill="white"/>
</clipPath>
</defs>
</svg>
