<svg width="60" height="60" viewBox="0 0 60 60" fill="none" xmlns="http://www.w3.org/2000/svg">
<path d="M24.0992 20.9914C24.0373 21.9224 24.0002 22.9183 24.0002 23.9993C24.0002 29.0081 25.4952 31.9991 28.0001 31.9991C31.1571 31.9991 32 28.2272 32 25.9993C32 25.4463 31.553 24.9993 31 24.9993C30.4481 24.9993 30.0001 25.4463 30.0001 25.9993C30.0001 26.0392 29.9141 29.9991 28.0001 29.9991C26.8411 29.9991 26.0001 27.4752 26.0001 23.9993C26.0001 12.3405 30.092 11.0126 30.2201 10.9745C30.7481 10.8555 31.087 10.3365 30.98 9.80253C30.872 9.26148 30.348 8.90958 29.803 9.01856C29.603 9.05852 28.879 9.24953 28.007 9.99553C28.008 9.82456 28.022 9.65253 28.0681 9.48156C28.2061 8.96559 28.537 8.53458 29 8.26658C29.463 8.00057 30.001 7.92862 30.517 8.0676C31.033 8.20565 31.465 8.53658 31.7309 8.99957C32.2829 9.95358 31.9539 11.1796 30.999 11.7315C30.521 12.0075 30.358 12.6195 30.634 13.0975C30.819 13.4185 31.155 13.5976 31.5009 13.5976C31.6709 13.5976 31.8428 13.5546 31.9999 13.4636C33.9088 12.3596 34.5648 9.9087 33.4639 7.99975C32.9289 7.07376 32.0669 6.41283 31.035 6.13581C30 5.85878 28.924 6.00186 28 6.53482C27.074 7.06977 26.412 7.93178 26.136 8.96477C25.8771 9.93073 25.9991 10.9328 26.47 11.8467C25.612 13.2427 24.8101 15.3216 24.3641 18.4126C22.8661 16.6196 22.0001 14.3366 22.0001 11.9997C22.0001 6.48584 26.4861 2 31.9999 2C37.5127 2 41.9996 6.48596 41.9996 11.9997C41.9996 17.5135 37.5127 21.9995 31.9999 21.9995C30.9129 21.9995 29.8459 21.8265 28.8259 21.4865C28.3029 21.3124 27.7369 21.5934 27.5609 22.1175C27.3859 22.6414 27.6689 23.2074 28.1929 23.3825C29.4169 23.7915 30.6978 23.9995 31.9997 23.9995C38.6166 23.9995 43.9995 18.6157 43.9995 11.9997C43.9995 5.38289 38.6166 0 31.9997 0C25.3829 0 20 5.38289 20 11.9997C20.0004 15.4095 21.5313 18.7224 24.0992 20.9914Z" fill="#FFC400"/>
<path d="M12.999 38H20.9988C22.1648 38 24.1488 39.488 25.8987 40.7999C28.0926 42.4459 30.1646 43.9999 31.9985 43.9999H37.9984C39.5164 43.9999 40.2713 44.6888 40.2913 44.7069C40.4863 44.9018 40.7424 44.9998 40.9983 44.9998C41.2544 44.9998 41.5093 44.9018 41.7053 44.7069C42.0953 44.3158 42.0953 43.6829 41.7053 43.2929C41.5733 43.1599 40.3443 41.9999 37.9984 41.9999H31.9985C30.8316 41.9999 28.8486 40.5119 27.0986 39.2C24.9047 37.554 22.8317 36 20.9988 36H12.999C12.447 36 11.999 36.4469 11.999 36.9999C11.999 37.552 12.447 38 12.999 38Z" fill="#FFC400"/>
<path d="M43.9054 20.3203L53.9982 30.4131V33.9991H50.4123L49.9982 33.5851V30.9991C49.9982 30.4461 49.5513 29.9992 48.9983 29.9992H47.9984V28.9993C47.9984 28.4463 47.5514 27.9993 46.9984 27.9993H44.4134L43.9985 27.5844V24.9994C43.9985 24.4464 43.5515 23.9994 42.9985 23.9994H40.4126L40.3156 23.9024C39.9256 23.5114 39.2926 23.5114 38.9016 23.9024C38.5107 24.2935 38.5106 24.9254 38.9016 25.3164L39.2916 25.7064C39.4787 25.8934 39.7326 25.9993 39.9986 25.9993H41.9985V27.9973C41.9985 28.2623 42.1035 28.5163 42.2905 28.7043L43.2905 29.7053C43.4775 29.8933 43.7325 29.9993 43.9985 29.9993H45.9985V30.9993C45.9985 31.5512 46.4454 31.9992 46.9984 31.9992H47.9984V33.9992C47.9984 34.2641 48.1034 34.5182 48.2913 34.7062L49.2913 35.7061C49.4783 35.8931 49.7322 35.9991 49.9982 35.9991H54.9982C55.5512 35.9991 55.9981 35.5511 55.9981 34.9991V29.9992C55.9981 29.7342 55.8921 29.4792 55.7052 29.2922L45.3194 18.9065C44.9284 18.5155 44.2964 18.5155 43.9054 18.9065C43.5145 19.2973 43.5145 19.9293 43.9054 20.3203Z" fill="#FFC400"/>
<path d="M5 53.5C5 52.673 4.32699 52 3.5 52C2.67301 52 2 52.673 2 53.5C2 54.327 2.67301 55 3.5 55C4.32699 55 5 54.327 5 53.5Z" fill="#FFC400"/>
<path d="M6.99981 31.998H0.99994C0.447998 31.998 0 32.445 0 32.998C0 33.5499 0.447998 33.9979 0.99994 33.9979H6.99981C7.55082 33.9979 7.99975 34.4459 7.99975 34.9979V56.9973C7.99975 57.5483 7.55082 57.9973 6.99981 57.9973H0.99994C0.447998 57.9973 0 58.4442 0 58.9972C0 59.5492 0.447998 59.9972 0.99994 59.9972H6.99981C8.65376 59.9972 9.99975 58.6512 9.99975 56.9972V34.998C9.99975 33.3431 8.65376 31.998 6.99981 31.998Z" fill="#FFC400"/>
<path d="M59.462 41.9988C58.359 40.0878 55.904 39.4338 54.0601 40.5019L42.5514 46.1038C40.7614 46.9987 38.9565 46.9987 34.9986 46.9987C31.1297 46.9987 25.2218 46.0217 25.1628 46.0118C24.6138 45.9207 24.1028 46.2897 24.0118 46.8337C23.9218 47.3787 24.2897 47.8937 24.8337 47.9847C25.0827 48.0267 30.9626 48.9987 34.9985 48.9987C39.1503 48.9987 41.2343 48.9987 43.4353 47.8978L54.9981 42.2669C55.46 42 55.9991 41.9289 56.515 42.0669C57.031 42.2048 57.4631 42.5358 57.7289 42.9988C57.9969 43.4618 58.068 44.0008 57.929 44.5169C57.792 45.0319 57.4609 45.4638 56.969 45.7479L43.4492 54.1627C43.4212 54.1807 40.5363 55.9986 33.9985 55.9986C28.3297 55.9986 19.5719 51.1727 19.4458 51.1037C19.3558 51.0587 17.1868 49.9988 12.999 49.9988C12.447 49.9988 11.999 50.4457 11.999 50.9987C11.999 51.5506 12.447 51.9986 12.999 51.9986C16.6359 51.9986 18.5098 52.8726 18.5129 52.8726C18.8909 53.0826 27.8107 57.9985 33.9985 57.9985C41.2173 57.9985 44.4202 55.9186 44.5263 55.8476L57.998 47.4628C58.9229 46.9288 59.5849 46.0658 59.861 45.0339C60.138 44.0017 59.996 42.9237 59.462 41.9988Z" fill="#FFC400"/>
</svg>
