<svg width="44" height="44" viewBox="0 0 44 44" fill="none" xmlns="http://www.w3.org/2000/svg">
<path d="M42.1413 20.6561L38.0008 19.3705C37.7139 18.7908 37.3763 18.2375 36.992 17.7171C41.9878 14.2773 39.8488 8.74039 39.8256 8.68264C39.7627 8.52615 39.6446 8.39818 39.4936 8.32301C39.3426 8.24784 39.1693 8.23069 39.0065 8.27481C33.8822 9.67394 32.0009 11.9969 31.3148 13.6098C30.9032 13.4798 30.4842 13.3743 30.0601 13.294C30.3027 12.2833 30.3129 11.2308 30.0901 10.2157C29.8673 9.20048 29.4173 8.24902 28.7738 7.43285C28.1303 6.61667 27.3101 5.95702 26.3749 5.5035C25.4397 5.04998 24.4139 4.81439 23.3745 4.81445C22.3352 4.81452 21.3094 5.05023 20.3743 5.50387C19.4392 5.95751 18.6191 6.61726 17.9757 7.43351C17.3323 8.24977 16.8823 9.20128 16.6596 10.2165C16.4369 11.2317 16.4473 12.2842 16.69 13.2948C14.272 13.777 12.0771 15.0341 10.4376 16.8757C8.79821 18.7174 7.80366 21.0431 7.60464 23.5007C7.36223 23.5493 7.13109 23.59 6.9223 23.6143C7.01301 23.2997 7.03996 22.9701 7.00158 22.6449C6.9632 22.3198 6.86026 22.0055 6.69879 21.7207C6.51066 21.3864 6.23654 21.1086 5.90487 20.916C5.57319 20.7234 5.19604 20.623 4.8125 20.6253C4.44391 20.6163 4.08066 20.7147 3.76703 20.9085C3.45339 21.1024 3.20291 21.3833 3.04611 21.717C2.88042 22.0773 2.82151 22.4777 2.87634 22.8705C2.93117 23.2634 3.09745 23.6323 3.35548 23.9335C3.54349 24.16 3.76856 24.353 4.02112 24.5041C3.3832 24.6785 2.72373 24.7614 2.0625 24.7503C1.88016 24.7503 1.7053 24.8227 1.57636 24.9516C1.44743 25.0806 1.375 25.2554 1.375 25.4378C1.375 25.6201 1.44743 25.795 1.57636 25.9239C1.7053 26.0528 1.88016 26.1253 2.0625 26.1253C4.09276 26.1253 5.28 25.5939 5.9675 25.0275C6.50757 25.0421 7.04769 25.0006 7.57921 24.9038C7.65941 26.7911 8.21005 28.6285 9.18108 30.2488C10.1172 31.7954 11.4058 33.0985 12.9417 34.0519L11.7144 38.3101C11.685 38.4125 11.6797 38.5203 11.699 38.625C11.7184 38.7298 11.7618 38.8286 11.8258 38.9137C11.8899 38.9988 11.9728 39.0679 12.0681 39.1154C12.1634 39.163 12.2685 39.1878 12.375 39.1878H17.875C18.0124 39.1877 18.1466 39.1465 18.2604 39.0695C18.3742 38.9925 18.4623 38.8833 18.5135 38.7558L19.7156 35.7503H26.3469L27.549 38.7558C27.6002 38.8833 27.6883 38.9925 27.8021 39.0695C27.9159 39.1465 28.0501 39.1877 28.1875 39.1878H33.6875C33.7952 39.1878 33.9014 39.1625 33.9976 39.1139C34.0937 39.0653 34.1771 38.9948 34.241 38.9081C34.3049 38.8213 34.3475 38.7208 34.3655 38.6146C34.3834 38.5083 34.3761 38.3994 34.3441 38.2965L33.1423 34.4266C35.4702 33.1821 37.2984 31.1736 38.3192 28.7393L42.1541 27.4653C42.2912 27.4198 42.4104 27.3322 42.4949 27.2151C42.5794 27.098 42.6249 26.9572 42.625 26.8128V21.3128C42.625 21.166 42.5781 21.0231 42.491 20.905C42.404 20.7868 42.2814 20.6996 42.1413 20.6561ZM5.47937 23.5254C5.46762 23.546 5.45524 23.5659 5.44246 23.5858C5.05123 23.5335 4.68981 23.3485 4.41863 23.0617C4.32686 22.9612 4.26587 22.8364 4.2429 22.7022C4.21993 22.5681 4.23594 22.4301 4.28904 22.3048C4.33851 22.2048 4.41719 22.1221 4.51465 22.0678C4.61211 22.0135 4.72377 21.9901 4.83484 22.0006H4.83553C4.97371 22.0029 5.10881 22.0418 5.22701 22.1134C5.34521 22.185 5.44227 22.2867 5.50825 22.4082C5.60287 22.5802 5.65006 22.7744 5.64499 22.9707C5.63991 23.167 5.58276 23.3584 5.47937 23.5254ZM23.375 6.18777C24.5949 6.18714 25.7803 6.5923 26.7446 7.33945C27.709 8.08659 28.3974 9.13327 28.7014 10.3147C29.0055 11.496 28.908 12.745 28.4242 13.8649C27.9404 14.9847 27.0979 15.9119 26.0293 16.5003H20.7207C19.6521 15.9119 18.8096 14.9847 18.3258 13.8649C17.842 12.745 17.7445 11.496 18.0486 10.3147C18.3526 9.13327 19.041 8.08659 20.0054 7.33945C20.9697 6.5923 22.1551 6.18714 23.375 6.18777ZM41.25 26.3166L37.5819 27.5352C37.4851 27.5674 37.3966 27.6208 37.323 27.6915C37.2494 27.7621 37.1924 27.8483 37.1562 27.9437C36.2197 30.3729 34.38 32.3459 32.0221 33.4498C31.8713 33.5199 31.7511 33.6424 31.6838 33.7944C31.6164 33.9464 31.6065 34.1178 31.6559 34.2765L32.7539 37.8128H28.6531L27.451 34.8073C27.3998 34.6798 27.3117 34.5705 27.1979 34.4935C27.0841 34.4165 26.9499 34.3753 26.8125 34.3753H19.25C19.1126 34.3753 18.9784 34.4165 18.8646 34.4935C18.7508 34.5705 18.6627 34.6798 18.6115 34.8073L17.4094 37.8128H13.2888L14.4106 33.9194C14.4537 33.7699 14.4448 33.6102 14.3853 33.4664C14.3259 33.3226 14.2194 33.2033 14.0834 33.1278C12.5506 32.276 11.2668 31.0388 10.3588 29.5386C9.52733 28.1542 9.04502 26.5884 8.95351 24.976C8.862 23.3637 9.16402 21.7534 9.83354 20.2838C10.5031 18.8142 11.52 17.5296 12.7966 16.5406C14.0732 15.5516 15.5713 14.8879 17.1615 14.6069C17.1926 14.6724 17.2161 14.7417 17.2492 14.8063C17.5709 15.43 17.9854 16.0011 18.4786 16.5003H17.1875C17.0052 16.5003 16.8303 16.5727 16.7014 16.7016C16.5724 16.8306 16.5 17.0054 16.5 17.1878C16.5 17.3701 16.5724 17.545 16.7014 17.6739C16.8303 17.8028 17.0052 17.8753 17.1875 17.8753H29.5625C29.7448 17.8753 29.9197 17.8028 30.0486 17.6739C30.1776 17.545 30.25 17.3701 30.25 17.1878C30.25 17.0054 30.1776 16.8306 30.0486 16.7016C29.9197 16.5727 29.7448 16.5003 29.5625 16.5003H28.2714C28.7643 16.0017 29.1784 15.4311 29.4997 14.8081C29.532 14.7454 29.5547 14.678 29.5852 14.6143C30.2326 14.72 30.8672 14.8931 31.4786 15.1306C31.5689 15.167 31.6659 15.1837 31.7632 15.1797C31.8604 15.1758 31.9557 15.1512 32.0428 15.1077C32.1298 15.0641 32.2066 15.0026 32.2681 14.9271C32.3296 14.8517 32.3744 14.7641 32.3995 14.67C32.6623 13.6841 33.8036 11.2944 38.7346 9.78429C39.1313 11.1531 39.0386 12.6174 38.4725 13.9253C37.9063 15.2332 36.9021 16.3028 35.6325 16.9504C35.5452 17.0009 35.47 17.0701 35.4124 17.153C35.3548 17.2359 35.3162 17.3304 35.2992 17.4299C35.2823 17.5294 35.2875 17.6314 35.3144 17.7286C35.3413 17.8259 35.3893 17.9161 35.4549 17.9927C36.0328 18.6672 36.5143 19.4186 36.8857 20.2254C36.926 20.313 36.9843 20.391 37.0568 20.4546C37.1292 20.5182 37.2142 20.5658 37.3063 20.5943L41.25 21.819V26.3166Z" fill="white"/>
<path d="M32.3125 19.9375C31.7657 19.9381 31.2414 20.1556 30.8548 20.5423C30.4681 20.9289 30.2506 21.4532 30.25 22C30.25 22.1823 30.3224 22.3572 30.4514 22.4861C30.5803 22.6151 30.7552 22.6875 30.9375 22.6875C31.1198 22.6875 31.2947 22.6151 31.4236 22.4861C31.5526 22.3572 31.625 22.1823 31.625 22C31.625 21.8177 31.6974 21.6428 31.8264 21.5139C31.9553 21.3849 32.1302 21.3125 32.3125 21.3125C32.4948 21.3125 32.6697 21.3849 32.7986 21.5139C32.9276 21.6428 33 21.8177 33 22C33 22.1823 33.0724 22.3572 33.2014 22.4861C33.3303 22.6151 33.5052 22.6875 33.6875 22.6875C33.8698 22.6875 34.0447 22.6151 34.1736 22.4861C34.3026 22.3572 34.375 22.1823 34.375 22C34.3744 21.4532 34.1569 20.9289 33.7702 20.5423C33.3836 20.1556 32.8593 19.9381 32.3125 19.9375Z" fill="white"/>
<path d="M22.6875 15.0253V15.125C22.6875 15.3073 22.7599 15.4822 22.8889 15.6111C23.0178 15.7401 23.1927 15.8125 23.375 15.8125C23.5573 15.8125 23.7322 15.7401 23.8611 15.6111C23.9901 15.4822 24.0625 15.3073 24.0625 15.125V15.0253C24.4354 14.9094 24.765 14.6846 25.009 14.3797C25.2529 14.0748 25.4 13.7039 25.4312 13.3146C25.4625 12.9254 25.3764 12.5358 25.1843 12.1959C24.9921 11.856 24.7025 11.5814 24.3529 11.4076L23.0123 10.7379C22.8938 10.6788 22.7989 10.5814 22.7427 10.4615C22.6865 10.3417 22.6725 10.2064 22.7029 10.0776C22.7332 9.94874 22.8062 9.83395 22.91 9.75181C23.0138 9.66966 23.1423 9.62498 23.2746 9.625H23.4754C23.631 9.62522 23.7802 9.68715 23.8903 9.79721C24.0004 9.90727 24.0623 10.0565 24.0625 10.2121V10.3125C24.0625 10.4948 24.1349 10.6697 24.2639 10.7986C24.3928 10.9276 24.5677 11 24.75 11C24.9323 11 25.1072 10.9276 25.2361 10.7986C25.3651 10.6697 25.4375 10.4948 25.4375 10.3125V10.2121C25.436 9.79584 25.302 9.39085 25.0547 9.05595C24.8074 8.72105 24.4599 8.47366 24.0625 8.34969V8.25C24.0625 8.06766 23.9901 7.8928 23.8611 7.76386C23.7322 7.63493 23.5573 7.5625 23.375 7.5625C23.1927 7.5625 23.0178 7.63493 22.8889 7.76386C22.7599 7.8928 22.6875 8.06766 22.6875 8.25V8.34969C22.3146 8.46556 21.985 8.69042 21.741 8.99531C21.4971 9.3002 21.35 9.67114 21.3188 10.0604C21.2875 10.4496 21.3736 10.8392 21.5657 11.1791C21.7579 11.519 22.0475 11.7936 22.3971 11.9675L23.7377 12.6371C23.8562 12.6962 23.9511 12.7936 24.0073 12.9135C24.0635 13.0333 24.0775 13.1686 24.0471 13.2974C24.0168 13.4263 23.9438 13.541 23.84 13.6232C23.7362 13.7053 23.6077 13.75 23.4754 13.75H23.2746C23.119 13.7498 22.9698 13.6879 22.8597 13.5778C22.7496 13.4677 22.6877 13.3185 22.6875 13.1629V13.0625C22.6875 12.8802 22.6151 12.7053 22.4861 12.5764C22.3572 12.4474 22.1823 12.375 22 12.375C21.8177 12.375 21.6428 12.4474 21.5139 12.5764C21.3849 12.7053 21.3125 12.8802 21.3125 13.0625V13.1629C21.314 13.5792 21.448 13.9841 21.6953 14.319C21.9426 14.654 22.2901 14.9013 22.6875 15.0253Z" fill="white"/>
</svg>
