<svg width="64" height="64" viewBox="0 0 64 64" fill="none" xmlns="http://www.w3.org/2000/svg">
<path d="M61.2964 30.0464L55.2739 28.1764C54.8566 27.3331 54.3656 26.5283 53.8066 25.7715C61.0732 20.7681 57.9619 12.7144 57.9282 12.6304C57.8367 12.4027 57.6649 12.2166 57.4453 12.1073C57.2257 11.9979 56.9736 11.973 56.7368 12.0372C49.2832 14.0723 46.5468 17.4512 45.5488 19.7972C44.9501 19.608 44.3407 19.4546 43.7238 19.3378C44.0766 17.8677 44.0916 16.3368 43.7675 14.8602C43.4434 13.3836 42.7887 11.9996 41.8527 10.8125C40.9167 9.62532 39.7237 8.66582 38.3635 8.00615C37.0032 7.34648 35.5111 7.00381 33.9993 7.00391C32.4876 7.004 30.9955 7.34686 29.6353 8.00669C28.2751 8.66653 27.0823 9.62617 26.1464 10.8135C25.2105 12.0007 24.5561 13.3847 24.2322 14.8614C23.9083 16.3381 23.9234 17.869 24.2764 19.339C20.7593 20.0403 17.5666 21.8689 15.182 24.5476C12.7974 27.2263 11.3508 30.6092 11.0613 34.1839C10.7087 34.2547 10.3725 34.3139 10.0688 34.3492C10.2007 33.8915 10.2399 33.4122 10.1841 32.9392C10.1283 32.4662 9.97856 32.0091 9.7437 31.5948C9.47005 31.1086 9.07134 30.7045 8.5889 30.4243C8.10647 30.1442 7.55787 29.9982 7 30.0015C6.46387 29.9884 5.93551 30.1315 5.47932 30.4135C5.02312 30.6954 4.65878 31.104 4.4307 31.5894C4.18971 32.1136 4.10401 32.6959 4.18377 33.2673C4.26352 33.8387 4.50538 34.3753 4.8807 34.8135C5.15416 35.1429 5.48154 35.4235 5.8489 35.6435C4.92101 35.8971 3.9618 36.0176 3 36.0015C2.73478 36.0015 2.48043 36.1068 2.29289 36.2944C2.10536 36.4819 2 36.7362 2 37.0015C2 37.2667 2.10536 37.521 2.29289 37.7086C2.48043 37.8961 2.73478 38.0015 3 38.0015C5.9531 38.0015 7.68 37.2286 8.68 36.4048C9.46555 36.4259 10.2512 36.3656 11.0243 36.2248C11.141 38.97 11.9419 41.6425 13.3543 43.9994C14.7159 46.2488 16.5902 48.1444 18.8243 49.5311L17.0392 55.7249C16.9963 55.8737 16.9887 56.0306 17.0168 56.1829C17.0449 56.3353 17.108 56.479 17.2012 56.6028C17.2944 56.7266 17.415 56.827 17.5536 56.8962C17.6923 56.9654 17.8451 57.0014 18 57.0015H26C26.1998 57.0014 26.3951 56.9415 26.5606 56.8295C26.7261 56.7175 26.8543 56.5585 26.9287 56.3731L28.6772 52.0015H38.3228L40.0713 56.3731C40.1457 56.5585 40.2739 56.7175 40.4394 56.8295C40.6049 56.9415 40.8002 57.0014 41 57.0015H49C49.1567 57.0015 49.3112 56.9647 49.451 56.894C49.5909 56.8233 49.7122 56.7208 49.8051 56.5946C49.8981 56.4685 49.9601 56.3222 49.9861 56.1677C50.0122 56.0132 50.0015 55.8547 49.9551 55.7051L48.207 50.0762C51.593 48.2659 54.2522 45.3445 55.737 41.8037L61.3151 39.9507C61.5144 39.8843 61.6879 39.757 61.8108 39.5866C61.9337 39.4163 61.9999 39.2115 62 39.0015V31.0015C62 30.788 61.9317 30.5802 61.8051 30.4083C61.6785 30.2365 61.5003 30.1096 61.2964 30.0464ZM7.97 34.2198C7.9529 34.2498 7.9349 34.2788 7.9163 34.3077C7.34725 34.2316 6.82155 33.9625 6.4271 33.5454C6.29362 33.3991 6.20491 33.2176 6.1715 33.0225C6.13808 32.8273 6.16137 32.6267 6.2386 32.4444C6.31056 32.2989 6.425 32.1787 6.56676 32.0997C6.70853 32.0207 6.87094 31.9866 7.0325 32.002H7.0335C7.23449 32.0052 7.431 32.0619 7.60293 32.166C7.77486 32.2702 7.91603 32.4181 8.012 32.5948C8.14963 32.845 8.21827 33.1274 8.21089 33.4129C8.20351 33.6985 8.12037 33.9769 7.97 34.2198ZM34 9.00146C35.7744 9.00054 37.4987 9.58987 38.9013 10.6766C40.3039 11.7634 41.3053 13.2858 41.7475 15.0042C42.1898 16.7226 42.048 18.5393 41.3443 20.1682C40.6406 21.797 39.4151 23.1456 37.8608 24.0015H30.1392C28.5849 23.1456 27.3594 21.797 26.6557 20.1682C25.952 18.5393 25.8102 16.7226 26.2525 15.0042C26.6947 13.2858 27.6961 11.7634 29.0987 10.6766C30.5013 9.58987 32.2256 9.00054 34 9.00146ZM60 38.2798L54.6646 40.0523C54.5238 40.0991 54.3951 40.1768 54.288 40.2796C54.1809 40.3823 54.098 40.5077 54.0454 40.6465C52.6831 44.1799 50.0073 47.0496 46.5776 48.6553C46.3583 48.7573 46.1835 48.9354 46.0855 49.1566C45.9875 49.3777 45.9731 49.6269 46.0449 49.8579L47.6421 55.0015H41.6772L39.9287 50.6299C39.8543 50.4444 39.7261 50.2854 39.5606 50.1734C39.3951 50.0614 39.1998 50.0015 39 50.0015H28C27.8002 50.0015 27.6049 50.0614 27.4394 50.1734C27.2739 50.2854 27.1457 50.4444 27.0713 50.6299L25.3228 55.0015H19.3291L20.9609 49.3384C21.0236 49.1209 21.0106 48.8886 20.9241 48.6795C20.8377 48.4703 20.6828 48.2967 20.4849 48.187C18.2554 46.9479 16.388 45.1484 15.0674 42.9663C13.8579 40.9526 13.1564 38.675 13.0233 36.3299C12.8902 33.9847 13.3295 31.6423 14.3033 29.5048C15.2772 27.3672 16.7563 25.4986 18.6132 24.0601C20.4702 22.6215 22.6491 21.6563 24.9622 21.2475C25.0074 21.3428 25.0416 21.4436 25.0898 21.5375C25.5576 22.4446 26.1606 23.2755 26.878 24.0015H25C24.7348 24.0015 24.4804 24.1068 24.2929 24.2944C24.1054 24.4819 24 24.7362 24 25.0015C24 25.2667 24.1054 25.521 24.2929 25.7086C24.4804 25.8961 24.7348 26.0015 25 26.0015H43C43.2652 26.0015 43.5196 25.8961 43.7071 25.7086C43.8946 25.521 44 25.2667 44 25.0015C44 24.7362 43.8946 24.4819 43.7071 24.2944C43.5196 24.1068 43.2652 24.0015 43 24.0015H41.1221C41.8389 23.2763 42.4414 22.4463 42.9087 21.5401C42.9557 21.449 42.9887 21.3509 43.033 21.2583C43.9747 21.412 44.8977 21.6637 45.7871 22.0093C45.9184 22.0621 46.0595 22.0864 46.201 22.0807C46.3424 22.0749 46.481 22.0392 46.6077 21.9759C46.7343 21.9125 46.846 21.823 46.9354 21.7133C47.0249 21.6035 47.09 21.476 47.1265 21.3393C47.5088 19.9052 49.1689 16.4293 56.3413 14.2328C56.9183 16.2238 56.7835 18.3537 55.9599 20.256C55.1364 22.1584 53.6757 23.7143 51.8291 24.6562C51.7021 24.7297 51.5928 24.8303 51.509 24.9509C51.4252 25.0714 51.369 25.2089 51.3444 25.3536C51.3197 25.4983 51.3272 25.6467 51.3663 25.7882C51.4055 25.9297 51.4753 26.0608 51.5708 26.1723C52.4113 27.1533 53.1117 28.2463 53.6519 29.4199C53.7106 29.5472 53.7953 29.6608 53.9007 29.7532C54.0061 29.8457 54.1298 29.9149 54.2637 29.9565L60 31.7378V38.2798Z" fill="#FFD124"/>
<path d="M47 29C46.2046 29.0009 45.4421 29.3172 44.8796 29.8796C44.3172 30.4421 44.0009 31.2046 44 32C44 32.2652 44.1054 32.5196 44.2929 32.7071C44.4804 32.8946 44.7348 33 45 33C45.2652 33 45.5196 32.8946 45.7071 32.7071C45.8946 32.5196 46 32.2652 46 32C46 31.7348 46.1054 31.4804 46.2929 31.2929C46.4804 31.1054 46.7348 31 47 31C47.2652 31 47.5196 31.1054 47.7071 31.2929C47.8946 31.4804 48 31.7348 48 32C48 32.2652 48.1054 32.5196 48.2929 32.7071C48.4804 32.8946 48.7348 33 49 33C49.2652 33 49.5196 32.8946 49.7071 32.7071C49.8946 32.5196 50 32.2652 50 32C49.9991 31.2046 49.6828 30.4421 49.1204 29.8796C48.5579 29.3172 47.7954 29.0009 47 29Z" fill="#FFD124"/>
<path d="M33 21.855V22C33 22.2652 33.1054 22.5196 33.2929 22.7071C33.4804 22.8946 33.7348 23 34 23C34.2652 23 34.5196 22.8946 34.7071 22.7071C34.8946 22.5196 35 22.2652 35 22V21.855C35.5424 21.6865 36.0218 21.3594 36.3767 20.9159C36.7315 20.4724 36.9454 19.9329 36.9909 19.3668C37.0363 18.8006 36.9112 18.2339 36.6316 17.7395C36.3521 17.2451 35.9309 16.8457 35.4224 16.5928L33.4724 15.6187C33.3001 15.5327 33.162 15.3911 33.0803 15.2168C32.9986 15.0425 32.9782 14.8457 33.0224 14.6583C33.0665 14.4709 33.1727 14.3039 33.3237 14.1845C33.4746 14.065 33.6615 14 33.854 14H34.146C34.3724 14.0003 34.5894 14.0904 34.7495 14.2505C34.9096 14.4106 34.9997 14.6276 35 14.854V15C35 15.2652 35.1054 15.5196 35.2929 15.7071C35.4804 15.8946 35.7348 16 36 16C36.2652 16 36.5196 15.8946 36.7071 15.7071C36.8946 15.5196 37 15.2652 37 15V14.854C36.9979 14.2485 36.8028 13.6594 36.4432 13.1723C36.0836 12.6852 35.578 12.3253 35 12.145V12C35 11.7348 34.8946 11.4804 34.7071 11.2929C34.5196 11.1054 34.2652 11 34 11C33.7348 11 33.4804 11.1054 33.2929 11.2929C33.1054 11.4804 33 11.7348 33 12V12.145C32.4576 12.3135 31.9782 12.6406 31.6233 13.0841C31.2685 13.5276 31.0546 14.0671 31.0091 14.6332C30.9637 15.1994 31.0888 15.7661 31.3684 16.2605C31.6479 16.7549 32.0691 17.1543 32.5776 17.4072L34.5276 18.3813C34.6999 18.4673 34.838 18.6089 34.9197 18.7832C35.0014 18.9575 35.0218 19.1543 34.9776 19.3417C34.9335 19.5291 34.8273 19.6961 34.6763 19.8155C34.5254 19.935 34.3385 20 34.146 20H33.854C33.6276 19.9997 33.4106 19.9096 33.2505 19.7495C33.0904 19.5894 33.0003 19.3724 33 19.146V19C33 18.7348 32.8946 18.4804 32.7071 18.2929C32.5196 18.1054 32.2652 18 32 18C31.7348 18 31.4804 18.1054 31.2929 18.2929C31.1054 18.4804 31 18.7348 31 19V19.146C31.0021 19.7515 31.1972 20.3406 31.5568 20.8277C31.9164 21.3148 32.422 21.6747 33 21.855Z" fill="#FFD124"/>
</svg>
