<svg width="20" height="20" viewBox="0 0 20 20" fill="none" xmlns="http://www.w3.org/2000/svg">
<path d="M0.585938 11.7188C0.909729 11.7188 1.17188 11.4566 1.17188 11.1328V10.5469H2.34375V11.7188H17.6562V10.5469H7.65625C6.6835 10.5469 5.89844 9.76166 5.89844 8.78906V7.61719C5.89844 7.28897 6.15616 7.03125 6.48438 7.03125C6.81259 7.03125 7.07031 7.28897 7.07031 7.61719V8.78906C7.07031 9.11713 7.32803 9.375 7.65625 9.375H8.34763C8.27744 9.18747 8.24219 8.99994 8.24219 8.78906V7.61719C8.24219 7.28897 8.49991 7.03125 8.82812 7.03125C9.15634 7.03125 9.41406 7.28897 9.41406 7.61719V8.78906C9.41406 9.11713 9.67178 9.375 10 9.375H10.6914C10.6212 9.18747 10.5859 8.99994 10.5859 8.78906V7.61719C10.5859 7.28897 10.8437 7.03125 11.1719 7.03125C11.5001 7.03125 11.7578 7.28897 11.7578 7.61719V8.78906C11.7578 9.11713 12.0155 9.375 12.3438 9.375H13.0351C12.9649 9.18747 12.9297 8.99994 12.9297 8.78906V7.61719C12.9297 7.28897 13.1874 7.03125 13.5156 7.03125C13.8438 7.03125 14.1016 7.28897 14.1016 7.61719V8.78906C14.1016 9.11713 14.3593 9.375 14.6875 9.375H17.6562V5.85938H2.34375V7.03125H1.17188V6.44531C1.17188 6.12152 0.909729 5.85938 0.585938 5.85938C0.262146 5.85938 0 6.12152 0 6.44531V11.1328C0 11.4566 0.262146 11.7188 0.585938 11.7188Z" fill="black"/>
<path d="M19.4141 10.5469C19.7423 10.5469 20 10.289 20 9.96094C20 9.63272 19.7423 9.375 19.4141 9.375H17.6562V10.5469H19.4141Z" fill="black"/>
<path d="M2.34375 4.10156V4.6875H17.6562V4.10156C17.6562 3.13232 16.8677 2.34375 15.8984 2.34375H4.10156C3.13232 2.34375 2.34375 3.13232 2.34375 4.10156Z" fill="black"/>
<path d="M19.4141 12.8906H18.8281V15.2344H19.4141C19.7377 15.2344 20 14.9721 20 14.6484V13.4766C20 13.1529 19.7377 12.8906 19.4141 12.8906Z" fill="black"/>
<path d="M11.1719 17.5781H15.8984C16.8692 17.5781 17.6562 16.7911 17.6562 15.8203V12.8906H2.34375V13.4766C2.34375 14.4473 3.1308 15.2344 4.10156 15.2344H9.41406V15.8203C9.41406 16.7911 10.2011 17.5781 11.1719 17.5781Z" fill="black"/>
<path d="M5.31204 0C4.5491 0 3.90488 0.491333 3.66211 1.17188H6.96198C6.71921 0.491333 6.07498 0 5.31204 0Z" fill="black"/>
<path d="M9.99954 0C9.2366 0 8.59238 0.491333 8.34961 1.17188H11.6495C11.4067 0.491333 10.7625 0 9.99954 0Z" fill="black"/>
<path d="M14.687 0C13.9241 0 13.2799 0.491333 13.0371 1.17188H16.337C16.0942 0.491333 15.45 0 14.687 0Z" fill="black"/>
</svg>
