<svg width="26" height="26" viewBox="0 0 26 26" fill="none" xmlns="http://www.w3.org/2000/svg">
<path d="M13.0002 0C7.95233 0 3.8457 4.17117 3.8457 9.298V16.7023C3.8457 21.8291 7.95233 26 13.0002 26C18.0478 26 22.1548 21.8417 22.1548 16.7307V9.298C22.1548 4.17117 18.0478 0 13.0002 0ZM20.4329 16.7307C20.4329 20.8924 17.0988 24.2782 13.0002 24.2782C8.90194 24.2782 5.56759 20.8795 5.56759 16.702V9.298C5.56759 5.12048 8.90194 1.72184 13.0002 1.72184C17.0988 1.72184 20.4329 5.12048 20.4329 9.298V16.7307Z" fill="#FFC400"/>
<path d="M13.0006 7.11719C12.5251 7.11719 12.1396 7.50262 12.1396 7.97813V10.9914C12.1396 11.4669 12.5251 11.8523 13.0006 11.8523C13.4761 11.8523 13.8615 11.4669 13.8615 10.9914V7.97813C13.8615 7.50262 13.4761 7.11719 13.0006 7.11719Z" fill="#FFC400"/>
</svg>
