<svg width="30" height="40" viewBox="0 0 30 40" fill="none" xmlns="http://www.w3.org/2000/svg">
<path d="M3.20312 14.8438C3.20312 21.3055 8.46008 26.5625 14.9219 26.5625C21.3837 26.5625 26.6406 21.3055 26.6406 14.8438C26.6406 8.38196 21.3837 3.125 14.9219 3.125C8.46008 3.125 3.20312 8.38196 3.20312 14.8438ZM14.9219 4.6875C20.5222 4.6875 25.0781 9.24347 25.0781 14.8438C25.0781 20.444 20.5222 25 14.9219 25C9.32159 25 4.76562 20.444 4.76562 14.8438C4.76562 9.24347 9.32159 4.6875 14.9219 4.6875Z" fill="white"/>
<path d="M7.68611 13.4502L10.7144 16.4339L10.0177 20.6273C9.96913 20.9194 10.0897 21.2135 10.3292 21.3875C10.5685 21.5615 10.8856 21.5849 11.1483 21.4488L14.9212 19.4896L18.6938 21.4488C18.9544 21.584 19.2715 21.563 19.5129 21.3875C19.7524 21.2135 19.873 20.9194 19.8245 20.6273L19.1278 16.4339L22.156 13.4502C22.3669 13.2427 22.4423 12.9338 22.3507 12.6522C22.2592 12.3708 22.0165 12.1654 21.7239 12.1212L17.5213 11.4885L15.6198 7.68573C15.4876 7.42114 15.2169 7.25391 14.9212 7.25391C14.6252 7.25391 14.3548 7.42114 14.2224 7.68573L12.3208 11.4885L8.11824 12.1212C7.82557 12.1651 7.58296 12.3708 7.49141 12.6522C7.39985 12.9338 7.47554 13.2427 7.68611 13.4502ZM12.9547 12.9732C13.2061 12.9354 13.4234 12.7776 13.5372 12.5502L14.9212 9.78198L16.3052 12.5502C16.419 12.7776 16.6363 12.9354 16.8878 12.9732L19.9465 13.4337L17.7423 15.605C17.5613 15.7836 17.4783 16.039 17.5198 16.2898L18.027 19.3419L15.281 17.9161C15.1684 17.8575 15.0448 17.8282 14.9212 17.8282C14.7976 17.8282 14.674 17.8575 14.5611 17.9161L11.8151 19.3419L12.3223 16.2898C12.3641 16.039 12.2811 15.7836 12.0999 15.605L9.89589 13.4337L12.9547 12.9732Z" fill="white"/>
<path d="M15.7031 0.78125C15.7031 1.21277 15.3534 1.5625 14.9219 1.5625C14.4904 1.5625 14.1406 1.21277 14.1406 0.78125C14.1406 0.349731 14.4904 0 14.9219 0C15.3534 0 15.7031 0.349731 15.7031 0.78125Z" fill="white"/>
<path d="M11.2399 0.460046C4.66797 2.1376 0.078125 8.05221 0.078125 14.8433C0.078125 19.0611 1.8515 23.0354 4.9646 25.8501L0.257874 34.145C0.106506 34.4121 0.125427 34.7429 0.306091 34.9907C0.486755 35.2388 0.795593 35.3581 1.09619 35.2955L6.44135 34.1856L8.32001 39.4795C8.42194 39.7676 8.68286 39.9693 8.98743 39.9965C9.29199 40.0236 9.58405 39.8701 9.73511 39.6043L14.9219 30.4857L20.1083 39.6043C20.2481 39.85 20.5081 39.9992 20.787 39.9992C20.8099 39.9992 20.8331 39.9983 20.856 39.9965C21.1606 39.9693 21.4215 39.7673 21.5237 39.4795L23.4021 34.1856L28.7473 35.2955C29.0475 35.3578 29.3567 35.2385 29.5374 34.9907C29.7183 34.7429 29.7369 34.4121 29.5856 34.145L24.8788 25.8501C27.9919 23.0354 29.7653 19.0611 29.7653 14.8433C29.7653 8.05221 25.1755 2.1376 18.6038 0.460046C18.1854 0.353235 17.7603 0.605615 17.6535 1.02371C17.5467 1.4418 17.7991 1.86721 18.2172 1.97402C24.0967 3.47488 28.2031 8.76693 28.2031 14.8433C28.2031 22.2386 22.197 28.1245 14.9219 28.1245C7.6416 28.1245 1.64062 22.2337 1.64062 14.8433C1.64062 8.76693 5.74677 3.47488 11.6263 1.97402C12.0444 1.86721 12.2968 1.4418 12.1902 1.02371C12.0834 0.605615 11.6583 0.353235 11.2399 0.460046ZM9.2215 37.3475L7.68616 33.0211C7.55554 32.653 7.17346 32.4379 6.79108 32.5172L2.46887 33.4147L6.19385 26.8498C8.36578 28.4288 10.9375 29.3907 13.6118 29.6287L9.2215 37.3475ZM23.0524 32.5172C22.6703 32.4379 22.2879 32.653 22.1573 33.0211L20.6223 37.3475L16.2317 29.6287C18.9062 29.3907 21.4777 28.4288 23.6499 26.8498L27.3749 33.4147L23.0524 32.5172Z" fill="white"/>
</svg>
