<svg width="36" height="36" viewBox="0 0 36 36" fill="none" xmlns="http://www.w3.org/2000/svg">
<path d="M35.579 7.76221C35.5758 7.70977 35.5655 7.65762 35.5482 7.60811C35.5418 7.58877 35.5368 7.57031 35.5286 7.55156C35.4993 7.48623 35.4586 7.42676 35.4085 7.37578L28.2085 0.175781C28.1575 0.125391 28.0978 0.084668 28.0321 0.0556641C28.0143 0.0474609 27.9961 0.0424805 27.9776 0.0360352C27.9267 0.018457 27.8739 0.00791018 27.8203 0.0046875C27.8101 0.00673829 27.7992 0 27.7866 0H9.78662C8.13076 0.00205079 6.78867 1.34385 6.78662 3V7.41592C2.66191 9.23496 0 13.3178 0 17.826C0 22.3342 2.66191 26.417 6.78662 28.236V33C6.78867 34.6562 8.13076 35.998 9.78662 36H32.5866C34.2428 35.998 35.5849 34.6562 35.5866 33V7.8C35.5866 7.78682 35.5802 7.77539 35.579 7.76221ZM33.5382 7.2H28.9866C28.6553 7.2 28.3866 6.93135 28.3866 6.6V2.04844L33.5382 7.2ZM1.2126 17.826C1.20908 15.1195 2.28252 12.5232 4.19619 10.6096C6.10986 8.6959 8.70645 7.62246 11.4126 7.62598C11.7536 7.62598 12.092 7.64268 12.426 7.6752C17.0654 8.13369 20.7993 11.6874 21.4866 16.2984C21.5663 16.8038 21.6082 17.3145 21.612 17.826C21.6164 19.7476 21.0732 21.6305 20.0467 23.2547C19.2325 24.5525 18.1354 25.6494 16.8372 26.463C13.6939 28.437 9.72656 28.5478 6.47813 26.7519C3.22969 24.9563 1.21318 21.5376 1.2126 17.826ZM18.3812 26.8392C18.4632 26.7756 18.5443 26.7126 18.6246 26.6473C18.9208 26.4088 19.2044 26.1554 19.4748 25.8882C19.742 25.6178 19.9954 25.3345 20.2339 25.0386C20.2992 24.9583 20.3622 24.8766 20.4258 24.7945C20.4984 24.6996 20.5772 24.6097 20.6467 24.513L25.7616 29.6341C26.1003 29.9695 26.291 30.4266 26.291 30.9032C26.291 31.3802 26.1003 31.8369 25.7616 32.1727C25.0532 32.8573 23.9297 32.8573 23.2213 32.1727L18.0996 27.0601C18.1963 26.9897 18.2868 26.9118 18.3812 26.8392ZM32.5866 34.8H9.78662C8.79258 34.8 7.98662 33.994 7.98662 33V28.7045C8.02383 28.7165 8.06279 28.7244 8.10059 28.7358C8.19668 28.7651 8.29395 28.7886 8.39121 28.8155C8.61563 28.8756 8.8418 28.9356 9.07031 28.9805C9.18252 29.0039 9.29473 29.0256 9.40811 29.0455C9.63662 29.0856 9.86719 29.1173 10.0986 29.1439C10.2021 29.1557 10.304 29.1703 10.4077 29.1791C10.7402 29.2075 11.0748 29.226 11.4126 29.226C13.396 29.2274 15.3448 28.7083 17.0643 27.7201L22.3693 33.0199C23.1138 33.8347 24.2458 34.1751 25.316 33.9056C26.3865 33.6363 27.2227 32.8011 27.4928 31.7309C27.7632 30.6606 27.4239 29.5283 26.6095 28.7833L21.3067 23.4773C22.2949 21.7579 22.8144 19.8091 22.8126 17.826C22.8126 17.446 22.7944 17.0689 22.7575 16.6951C22.5015 14.0736 21.341 11.6232 19.4754 9.76436C17.3417 7.61924 14.4384 6.41719 11.4126 6.42598C11.0748 6.42598 10.7402 6.44473 10.4077 6.47285C10.304 6.48193 10.2012 6.49629 10.098 6.5083C9.86719 6.53408 9.63779 6.5669 9.40928 6.60674C9.29531 6.62666 9.18164 6.64834 9.06855 6.67207C8.84297 6.71895 8.61914 6.77402 8.39707 6.83525C8.29746 6.86221 8.19785 6.88623 8.09707 6.91611C8.05986 6.92754 8.02207 6.93545 7.98486 6.94746V3C7.98486 2.00596 8.79082 1.2 9.78486 1.2H27.1866V6.6C27.1866 7.59404 27.9926 8.4 28.9866 8.4H34.3866V33C34.3866 33.994 33.581 34.8 32.5866 34.8Z" fill="white"/>
<path d="M24.7867 4.19961C24.7867 3.86826 24.5181 3.59961 24.1867 3.59961H10.9867C10.6554 3.59961 10.3867 3.86826 10.3867 4.19961C10.3867 4.53096 10.6554 4.79961 10.9867 4.79961H24.1867C24.5181 4.79961 24.7867 4.53096 24.7867 4.19961Z" fill="white"/>
<path d="M31.3859 14.4004H24.1859C23.8546 14.4004 23.5859 14.669 23.5859 15.0004C23.5859 15.3317 23.8546 15.6004 24.1859 15.6004H31.3859C31.7173 15.6004 31.9859 15.3317 31.9859 15.0004C31.9859 14.669 31.7173 14.4004 31.3859 14.4004Z" fill="white"/>
<path d="M31.3859 18H24.1859C23.8546 18 23.5859 18.2686 23.5859 18.6C23.5859 18.9313 23.8546 19.2 24.1859 19.2H31.3859C31.7173 19.2 31.9859 18.9313 31.9859 18.6C31.9859 18.2686 31.7173 18 31.3859 18Z" fill="white"/>
<path d="M31.9863 22.1996C31.9863 21.8683 31.7177 21.5996 31.3863 21.5996H23.5863C23.255 21.5996 22.9863 21.8683 22.9863 22.1996C22.9863 22.5309 23.255 22.7996 23.5863 22.7996H31.3863C31.7177 22.7996 31.9863 22.5309 31.9863 22.1996Z" fill="white"/>
<path d="M31.9867 25.7992C31.9867 25.4679 31.7181 25.1992 31.3867 25.1992H25.9867C25.6554 25.1992 25.3867 25.4679 25.3867 25.7992C25.3867 26.1306 25.6554 26.3992 25.9867 26.3992H31.3867C31.7181 26.3992 31.9867 26.1306 31.9867 25.7992Z" fill="white"/>
<path d="M24.7871 7.79922C24.7871 7.46787 24.5185 7.19922 24.1871 7.19922H19.3871C19.0558 7.19922 18.7871 7.46787 18.7871 7.79922C18.7871 8.13057 19.0558 8.39922 19.3871 8.39922H24.1871C24.5185 8.39922 24.7871 8.13057 24.7871 7.79922Z" fill="white"/>
<path d="M31.9871 11.4008C31.9871 11.0694 31.7185 10.8008 31.3871 10.8008H22.3871C22.0558 10.8008 21.7871 11.0694 21.7871 11.4008C21.7871 11.7321 22.0558 12.0008 22.3871 12.0008H31.3871C31.7185 12.0008 31.9871 11.7321 31.9871 11.4008Z" fill="white"/>
<path d="M9.18594 15.0008H13.3859C13.7173 15.0008 13.9859 14.7321 13.9859 14.4008C13.9859 14.0694 13.7173 13.8008 13.3859 13.8008H9.18594C8.85459 13.8008 8.58594 14.0694 8.58594 14.4008C8.58594 14.7321 8.85459 15.0008 9.18594 15.0008Z" fill="white"/>
<path d="M16.3875 18.0004C16.3875 17.669 16.1188 17.4004 15.7875 17.4004H6.7875C6.45615 17.4004 6.1875 17.669 6.1875 18.0004C6.1875 18.3317 6.45615 18.6004 6.7875 18.6004H15.7875C16.1188 18.6004 16.3875 18.3317 16.3875 18.0004Z" fill="white"/>
<path d="M13.3859 21H9.18594C8.85459 21 8.58594 21.2686 8.58594 21.6C8.58594 21.9313 8.85459 22.2 9.18594 22.2H13.3859C13.7173 22.2 13.9859 21.9313 13.9859 21.6C13.9859 21.2686 13.7173 21 13.3859 21Z" fill="white"/>
<path d="M15.6842 25.7393C17.1476 24.96 18.3611 23.7829 19.1846 22.3441C19.2321 22.2612 19.2836 22.1809 19.3282 22.0969C19.3513 22.0535 19.3695 22.0087 19.3917 21.9653C19.4828 21.7901 19.5716 21.6149 19.6501 21.4356C19.7289 21.2563 19.7908 21.0858 19.8549 20.9095C19.8734 20.8585 19.8968 20.8087 19.915 20.7571C21.4408 16.3201 19.3021 11.4551 15.0013 9.57977C10.7002 7.70447 5.6802 9.44822 3.4677 13.5858C2.77131 14.8892 2.40862 16.345 2.41213 17.823C2.40657 20.9941 4.0721 23.9335 6.79524 25.5583C9.51839 27.1834 12.896 27.2534 15.6842 25.7428V25.7393ZM7.67415 24.6703C7.02112 24.3143 6.42288 23.8661 5.89759 23.3393C5.53313 22.9752 5.2053 22.5764 4.91848 22.1484C4.77669 21.9363 4.64632 21.7186 4.52649 21.4951C2.72063 18.0852 3.67747 13.8674 6.77796 11.5708C9.87845 9.2742 14.1921 9.58826 16.9276 12.3096C19.3501 14.7551 19.8951 18.4945 18.2714 21.5297V21.5346C17.556 22.8732 16.4591 23.9692 15.1202 24.6841C12.7976 25.9459 9.993 25.9415 7.67415 24.6726V24.6703Z" fill="white"/>
<path d="M32.5867 28.8008C32.2554 28.8008 31.9867 29.0694 31.9867 29.4008V31.8008C31.9867 32.1321 31.7181 32.4008 31.3867 32.4008H28.9867C28.6554 32.4008 28.3867 32.6694 28.3867 33.0008C28.3867 33.3321 28.6554 33.6008 28.9867 33.6008H31.3867C32.3811 33.6008 33.1867 32.7948 33.1867 31.8008V29.4008C33.1867 29.0694 32.9181 28.8008 32.5867 28.8008Z" fill="white"/>
</svg>
