<svg width="60" height="60" viewBox="0 0 60 60" fill="none" xmlns="http://www.w3.org/2000/svg">
<path d="M25.5737 4.91797C14.1659 4.91797 4.91797 14.1659 4.91797 25.5737C4.91797 36.9816 14.1659 46.2294 25.5737 46.2294C36.9816 46.2294 46.2294 36.9816 46.2294 25.5737C46.2164 14.1713 36.9762 4.93098 25.5737 4.91797ZM25.5737 44.2622C15.2523 44.2622 6.88518 35.8951 6.88518 25.5737C6.88518 15.2523 15.2523 6.88518 25.5737 6.88518C35.8951 6.88518 44.2622 15.2523 44.2622 25.5737C44.2508 35.8904 35.8904 44.2508 25.5737 44.2622Z" fill="black"/>
<path d="M38.0544 20.7418L37.1416 18.688H38.3603C38.9035 18.688 39.3439 18.2476 39.3439 17.7044C39.3439 17.1611 38.9035 16.7208 38.3603 16.7208H36.2672L34.8597 13.5545C34.3859 12.4893 33.3294 11.8028 32.1636 11.8027H18.9833C17.8171 11.8024 16.7601 12.489 16.2862 13.5545L14.8787 16.7208H12.7865C12.2433 16.7208 11.8029 17.1611 11.8029 17.7044C11.8029 18.2476 12.2433 18.688 12.7865 18.688H14.0052L13.0924 20.7418C11.7632 21.0554 10.8229 22.2403 10.8193 23.606V31.4749C10.8245 32.7209 11.6118 33.8294 12.7865 34.2447V35.4093C12.7865 37.039 14.1077 38.3601 15.7374 38.3601H17.7046C19.3343 38.3601 20.6554 37.039 20.6554 35.4093V34.4257H30.4915V35.4093C30.4915 37.039 31.8126 38.3601 33.4423 38.3601H35.4095C37.0392 38.3601 38.3603 37.039 38.3603 35.4093V34.2447C39.5351 33.8294 40.3223 32.7209 40.3275 31.4749V23.606C40.324 22.2403 39.3836 21.0554 38.0544 20.7418ZM21.639 28.524V27.5404C21.639 26.9972 22.0794 26.5568 22.6226 26.5568H28.5242C29.0675 26.5568 29.5078 26.9972 29.5078 27.5404V28.524H21.639ZM28.5242 24.5896H22.6226C20.9929 24.5896 19.6718 25.9107 19.6718 27.5404V28.524H12.7865V23.606C12.7865 23.0628 13.2269 22.6224 13.7702 22.6224H37.3767C37.9199 22.6224 38.3603 23.0628 38.3603 23.606V28.524H31.4751V27.5404C31.4751 25.9107 30.1539 24.5896 28.5242 24.5896ZM18.0833 14.3542C18.2413 13.9986 18.5941 13.7695 18.9833 13.7699H32.1636C32.5524 13.7699 32.9047 13.9989 33.0626 14.3542C33.1256 14.4939 35.801 20.5145 35.8629 20.6552H15.2839C15.4993 20.1693 17.7547 15.0909 18.0833 14.3542ZM18.6882 35.4093C18.6882 35.9525 18.2478 36.3929 17.7046 36.3929H15.7374C15.1941 36.3929 14.7538 35.9525 14.7538 35.4093V34.4257H18.6882V35.4093ZM36.3931 35.4093C36.3931 35.9525 35.9527 36.3929 35.4095 36.3929H33.4423C32.899 36.3929 32.4587 35.9525 32.4587 35.4093V34.4257H36.3931V35.4093ZM37.3767 32.4585H13.7702C13.2269 32.4585 12.7865 32.0181 12.7865 31.4749V30.4913H38.3603V31.4749C38.3603 32.0181 37.9199 32.4585 37.3767 32.4585Z" fill="black"/>
<path d="M16.7211 24.5898H15.7375C15.1943 24.5898 14.7539 25.0302 14.7539 25.5735C14.7539 26.1167 15.1943 26.5571 15.7375 26.5571H16.7211C17.2644 26.5571 17.7047 26.1167 17.7047 25.5735C17.7047 25.0302 17.2644 24.5898 16.7211 24.5898Z" fill="black"/>
<path d="M34.426 26.5571H35.4096C35.9529 26.5571 36.3932 26.1167 36.3932 25.5735C36.3932 25.0302 35.9529 24.5898 35.4096 24.5898H34.426C33.8828 24.5898 33.4424 25.0302 33.4424 25.5735C33.4424 26.1167 33.8828 26.5571 34.426 26.5571Z" fill="black"/>
<path d="M20.6551 18.6881H20.7535L30.5896 17.7045C30.9392 17.6694 31.2436 17.4504 31.388 17.13C31.5323 16.8096 31.4949 16.4365 31.2896 16.1513C31.0843 15.8661 30.7425 15.712 30.3928 15.7471L20.5568 16.7307C20.0135 16.7579 19.5952 17.2203 19.6223 17.7635C19.6495 18.3068 20.1119 18.7251 20.6551 18.698V18.6881Z" fill="black"/>
<path d="M51.049 45.7559C53.4736 42.8415 49.2913 39.2071 46.7074 41.791L46.3306 42.1677L44.9054 40.7425C52.9559 30.4912 51.6291 15.7432 41.878 7.09346C32.127 -1.55627 17.3261 -1.11462 8.10817 8.10113C-1.10975 17.3169 -1.5549 32.1177 7.09253 41.8708C15.74 51.6238 30.4876 52.9542 40.7408 44.9061L42.167 46.3323L41.7903 46.709C40.6849 47.8231 40.6482 49.6086 41.707 50.7672C42.7657 51.9257 44.5473 52.0496 45.7562 51.0487L53.5975 58.891C55.0599 60.3534 57.4309 60.3534 58.8933 58.891C60.3556 57.4286 60.3556 55.0576 58.8933 53.5952L51.049 45.7559ZM2.95066 25.5733C2.95066 13.079 13.0793 2.95034 25.5736 2.95034C38.0679 2.95034 48.1965 13.079 48.1965 25.5733C48.1965 38.0676 38.0679 48.1962 25.5736 48.1962C13.0849 48.1827 2.96421 38.062 2.95066 25.5733ZM42.2457 43.6284C42.7244 43.1857 43.1834 42.7248 43.6228 42.2454L44.9369 43.5585L43.5539 44.9415L42.2457 43.6284ZM43.1802 48.0979C44.7362 46.5497 43.4379 47.85 47.03 44.2569L48.0982 43.1798C48.4856 42.8166 49.0914 42.8264 49.4668 43.2021C49.8422 43.5777 49.8516 44.1835 49.488 44.5707L44.57 49.4887C44.1826 49.852 43.5768 49.8421 43.2014 49.4665C42.826 49.0908 42.8166 48.485 43.1802 48.0979ZM57.5005 57.5021C56.8011 58.1838 55.6858 58.1838 54.9864 57.5021L47.1628 49.6775L49.6769 47.1634L57.5034 54.991C57.8414 55.3213 58.0319 55.774 58.0319 56.2466C58.0319 56.7192 57.8414 57.1718 57.5034 57.5021H57.5005Z" fill="black"/>
</svg>
