<svg width="36" height="36" viewBox="0 0 36 36" fill="none" xmlns="http://www.w3.org/2000/svg">
<g clip-path="url(#clip0_452_6186)">
<path d="M8.94414 17.0998L6.07539 16.4811C5.28789 16.3123 4.55664 16.9311 4.55664 17.7186V18.8998C4.55664 19.8561 5.28789 20.0811 6.18789 20.0811H9.33789C9.95664 20.0811 10.5754 19.9686 10.5754 19.2936V19.1248C10.5754 18.1123 9.90039 17.2686 8.94414 17.0998ZM5.62539 18.8998C5.62539 18.8436 5.62539 18.8436 5.62539 17.6623C5.62539 17.5498 5.73789 17.4373 5.85039 17.4936L8.71914 18.1123C9.11289 18.2248 9.39414 18.5623 9.45039 18.9561C7.48164 18.9561 5.79414 18.9561 5.62539 18.8998Z" fill="white"/>
<path d="M34.4813 11.082L30.4312 9.16953C29.0812 8.55078 27.6187 8.32578 26.2125 8.60703L25.5938 7.36953C25.1437 6.24453 24.075 5.45703 22.8375 5.45703H9.675C8.4375 5.45703 7.36875 6.18828 6.91875 7.31328L4.725 11.8695C4.21875 11.1383 3.375 10.6883 2.475 10.6883H1.51875C0.675 10.6883 0 11.3633 0 12.207V12.8258C0 13.6695 0.675 14.3445 1.51875 14.3445H2.98125C2.3625 15.132 2.08125 16.1445 2.08125 17.157V20.532C2.08125 21.8258 2.53125 23.0633 3.43125 24.132V26.6633C3.43125 27.7883 4.33125 28.6883 5.45625 28.6883H7.5375C8.6625 28.6883 9.5625 27.7883 9.5625 26.6633V25.6508H20.8125C23.2875 29.0258 27.1688 30.4883 27.225 30.4883C27.3375 30.5445 27.45 30.5445 27.6187 30.4883C27.675 30.432 36 27.3945 36 19.8008V13.5008C36 12.4883 35.3812 11.532 34.4813 11.082ZM7.93125 7.76328C8.2125 7.03203 8.8875 6.58203 9.675 6.58203H22.8375C23.625 6.58203 24.3 7.03203 24.6375 7.81953L25.1438 8.88828C24.9188 8.94453 24.6938 9.05703 24.4688 9.16953L20.4187 11.082C19.5187 11.532 18.9 12.432 18.9 13.4445H5.11875C5.34375 13.107 5.11875 13.6695 7.93125 7.76328ZM1.125 12.8258V12.207C1.125 11.982 1.29375 11.8133 1.51875 11.8133H2.475C3.6 11.8133 3.99375 12.8258 4.10625 12.9945C4.05 13.107 3.99375 13.1633 3.88125 13.2758H1.51875C1.29375 13.2195 1.125 13.0508 1.125 12.8258ZM8.4375 26.607C8.4375 27.1133 8.04375 27.507 7.5375 27.507H5.4C4.89375 27.5633 4.5 27.1133 4.5 26.607V24.9758C5.175 25.3695 5.9625 25.5945 6.75 25.5945H8.4375V26.607ZM6.69375 24.5258C4.66875 24.5258 3.09375 22.557 3.09375 20.4758V17.1008C3.09375 16.1445 3.4875 15.2445 4.1625 14.5133H18.9V19.4633H12.7125C12.4313 19.4633 12.15 19.6883 12.15 20.0258C12.15 20.3633 12.375 20.5883 12.7125 20.5883H18.9563C19.0125 20.982 19.0125 21.3195 19.125 21.657H12.7125C12.4313 21.657 12.15 21.882 12.15 22.2195C12.15 22.557 12.375 22.782 12.7125 22.782H19.35C19.575 23.4008 19.8 24.0195 20.1375 24.5258H6.69375ZM34.875 19.8008C34.875 26.0445 28.575 28.9133 27.45 29.3633C23.4 27.732 20.025 24.2445 20.025 19.8008C20.025 17.7195 20.025 16.5945 20.025 13.5008C20.025 12.882 20.3625 12.3758 20.925 12.0945L24.975 10.182C26.6063 9.39453 28.4062 9.39453 30.0375 10.182L34.0875 12.0945C34.5938 12.3758 34.9875 12.882 34.9875 13.5008V19.8008H34.875Z" fill="white"/>
<path d="M32.9621 13.3883L29.2496 11.6445C28.1246 11.082 26.7184 11.082 25.5934 11.6445L21.9371 13.3883C21.7684 13.5008 21.5996 13.6695 21.5996 13.8945V19.8008C21.5996 24.2445 25.4809 26.6633 27.1684 27.507C27.3371 27.5633 27.5059 27.5633 27.6746 27.507C29.3621 26.6633 33.2434 24.2445 33.2434 19.8008V13.8945C33.2434 13.6695 33.1309 13.5008 32.9621 13.3883ZM32.1746 19.8008C32.1746 23.4008 29.0246 25.5383 27.4496 26.382C25.5934 25.3695 22.7246 23.3445 22.7246 19.8008V14.232L26.0996 12.6008C26.9434 12.207 27.9559 12.207 28.7996 12.6008L32.1746 14.232V19.8008Z" fill="white"/>
<path d="M25.2558 19.6317C25.0308 19.463 24.6933 19.5192 24.4683 19.7442C24.2433 19.9692 24.3558 20.3067 24.5808 20.5317L26.7183 22.163C26.9433 22.3317 27.2808 22.2755 27.5058 22.0505L30.6558 17.9442C30.8246 17.7192 30.7683 17.3817 30.5433 17.1567C30.3183 16.988 29.9808 17.0442 29.7558 17.2692L26.9433 20.9255L25.2558 19.6317Z" fill="white"/>
</g>
<defs>
<clipPath id="clip0_452_6186">
<rect width="36" height="36" fill="white"/>
</clipPath>
</defs>
</svg>
