<svg width="60" height="60" viewBox="0 0 60 60" fill="none" xmlns="http://www.w3.org/2000/svg">
<path d="M58.9995 45.9997C57.8872 46.0285 56.792 45.7234 55.8545 45.1237C53.3199 43.6252 50.1705 43.6252 47.6359 45.1237C45.7033 46.2912 43.2829 46.2912 41.3507 45.1237C38.8166 43.6247 35.6667 43.6247 33.1325 45.1237C31.2009 46.2912 28.7815 46.2912 26.8499 45.1237C25.618 44.3596 24.1902 43.969 22.741 43.9997C21.2923 43.9695 19.8661 44.3601 18.6346 45.1237C17.6991 45.7238 16.6048 46.029 15.494 45.9997C14.3832 46.0285 13.2894 45.7238 12.3539 45.1247C11.1225 44.3601 9.69572 43.9695 8.247 43.9997C6.79829 43.9695 5.37203 44.3601 4.14108 45.1237C3.20554 45.7238 2.11131 46.029 0.999992 45.9997C0.44775 45.9997 0 46.4475 0 46.9997C0 47.5524 0.44775 47.9997 0.999992 47.9997C2.4492 48.0305 3.87595 47.6398 5.10689 46.8747C6.04243 46.2761 7.13617 45.9714 8.247 45.9997C9.35784 45.9709 10.4521 46.2761 11.3881 46.8762C12.619 47.6398 14.0453 48.0305 15.494 47.9997C16.9427 48.03 18.369 47.6389 19.5999 46.8747C20.5355 46.2756 21.6297 45.9704 22.741 45.9997C23.8524 45.9714 24.9466 46.2766 25.8826 46.8762C28.4168 48.3747 31.5657 48.3747 34.0998 46.8762C36.0315 45.7082 38.4518 45.7082 40.3835 46.8762C42.9176 48.3747 46.0665 48.3747 48.6007 46.8762C50.5348 45.7082 52.9566 45.7082 54.8907 46.8762C56.1226 47.6398 57.5498 48.0305 58.9995 47.9997C59.5518 47.9997 59.9995 47.5524 59.9995 46.9997C59.9995 46.4475 59.5518 45.9997 58.9995 45.9997Z" fill="black"/>
<path d="M0 42.9998C0 43.5525 0.44775 43.9998 0.999992 43.9998C2.44676 44.0325 3.87204 43.6419 5.10006 42.8762C6.0395 42.2771 7.13617 41.9719 8.24993 41.9998C9.36614 41.9739 10.4643 42.282 11.4037 42.885C12.6298 43.6428 14.0487 44.03 15.4901 43.9998C16.9418 44.0295 18.3709 43.6384 19.6058 42.8738C20.5384 42.2732 21.6307 41.9685 22.7401 41.9998C23.8592 41.9724 24.9612 42.281 25.9036 42.885C28.4353 44.3748 31.5764 44.3704 34.1037 42.8738C35.0368 42.2727 36.1301 41.968 37.2399 41.9998C38.3591 41.9724 39.4611 42.281 40.4035 42.885C42.9347 44.3757 46.0758 44.3723 48.6036 42.8762C49.5421 42.2781 50.6373 41.9729 51.7496 41.9998C51.9664 41.9998 52.1666 42.0081 52.3687 42.0271C53.2647 42.1023 54.129 42.3938 54.8877 42.8772C56.1211 43.6409 57.5493 44.031 58.9995 43.9998C59.5518 43.9998 59.9995 43.5525 59.9995 42.9998C59.9995 42.4475 59.5518 41.9998 58.9995 41.9998C57.8867 42.0296 56.7911 41.7249 55.8536 41.1248C55.2525 40.7703 54.6114 40.4886 53.9434 40.2859L59.8936 28.4491C60.0493 28.139 60.0332 27.7704 59.8511 27.475C59.669 27.1796 59.3467 26.9999 58.9995 26.9999H53.9996V13C53.9996 12.4478 53.5518 12 52.9996 12H16.9999C16.4476 12 15.9999 12.4478 15.9999 13V29.9999H13.9999V15C13.9999 14.4477 13.5521 14 12.9999 14H4.99996C4.50631 14.0005 4.08688 14.3603 4.01218 14.8481L2.14207 26.9999H0.999992C0.44775 26.9999 0 27.4476 0 27.9999V36.9998C0 37.1815 0.049316 37.3597 0.143065 37.5149L2.70017 41.7771C2.14744 41.9353 1.57469 42.0105 0.999992 41.9998C0.44775 41.9998 0 42.4475 0 42.9998H0ZM46.9996 26.9999C46.7833 26.9999 46.5729 27.0702 46.3995 27.2001L42.6667 29.9999H41.9997V25.9999H51.9996V26.9999H46.9996ZM29.9998 29.9999V25.9999H39.9997V29.9999H29.9998ZM17.9999 19.9999H27.9998V23.9999H17.9999V19.9999ZM51.9996 23.9999H41.9997V19.9999H51.9996V23.9999ZM39.9997 23.9999H29.9998V19.9999H39.9997V23.9999ZM51.9996 18H41.9997V14H51.9996V18ZM39.9997 18H29.9998V14H39.9997V18ZM17.9999 14H27.9998V18H17.9999V14ZM17.9999 25.9999H27.9998V29.9999H17.9999V25.9999ZM5.85786 16H11.9999V28.5863L10.7069 27.2933C10.5194 27.1054 10.2651 27.0004 9.99992 26.9999H4.16598L5.85786 16ZM1.99998 28.9999H9.58586L12.2929 31.7069C12.4804 31.8949 12.7348 31.9998 12.9999 31.9998H42.9997C43.216 31.9998 43.4264 31.93 43.5998 31.8001L47.3326 28.9999H57.3775L51.8468 39.9998C51.8126 39.9998 51.7838 39.9998 51.7467 39.9998C50.2965 39.9705 48.8688 40.3606 47.6359 41.1238C45.6979 42.2947 43.2702 42.2913 41.3356 41.115C38.8049 39.6243 35.6633 39.6277 33.136 41.1238C31.198 42.2947 28.7703 42.2913 26.8357 41.115C25.6067 40.3562 24.1839 39.969 22.7401 39.9998C21.2928 39.9671 19.8675 40.3577 18.64 41.1238C17.7001 41.7224 16.6034 42.0276 15.4901 41.9998C14.3739 42.0261 13.2763 41.718 12.3368 41.115C11.1103 40.3572 9.69133 39.97 8.24993 39.9998C8.0058 39.9998 7.77875 40.01 7.56098 40.0252C7.48773 40.0301 7.42084 40.0389 7.35004 40.0462C7.21088 40.0598 7.07319 40.074 6.94282 40.0931C6.86616 40.1053 6.79389 40.118 6.72016 40.1321C6.6059 40.1521 6.49507 40.1731 6.38813 40.198C6.31684 40.2141 6.24702 40.2322 6.17915 40.2498C6.07905 40.2762 5.97896 40.305 5.87886 40.3352C5.81782 40.3538 5.75581 40.3728 5.69673 40.3929C5.59712 40.427 5.50386 40.4632 5.41207 40.4998C5.36373 40.5188 5.31197 40.5369 5.26705 40.5569C5.15572 40.6038 5.04879 40.6521 4.94479 40.7019L4.87691 40.7332C4.75192 40.7942 4.62985 40.8562 4.51315 40.9182L1.99998 36.723V28.9999Z" fill="black"/>
<path d="M8.99998 17H7.99999C7.44775 17 7 17.4478 7 18C7 18.5527 7.44775 19 7.99999 19H8.99998C9.55223 19 9.99998 18.5527 9.99998 18C9.99998 17.4478 9.55223 17 8.99998 17Z" fill="black"/>
<path d="M8.99999 36H9.99998C10.5522 36 11 35.5527 11 35C11 34.4477 10.5522 34 9.99998 34H8.99999C8.44775 34 8 34.4477 8 35C8 35.5527 8.44775 36 8.99999 36Z" fill="black"/>
<path d="M14 36H15C15.5522 36 16 35.5527 16 35C16 34.4477 15.5522 34 15 34H14C13.4478 34 13 34.4477 13 35C13 35.5527 13.4478 36 14 36Z" fill="black"/>
<path d="M19 36H20C20.5522 36 21 35.5527 21 35C21 34.4477 20.5522 34 20 34H19C18.4477 34 18 34.4477 18 35C18 35.5527 18.4477 36 19 36Z" fill="black"/>
<path d="M24 36H25C25.5522 36 26 35.5527 26 35C26 34.4477 25.5522 34 25 34H24C23.4477 34 23 34.4477 23 35C23 35.5527 23.4477 36 24 36Z" fill="black"/>
<path d="M29 36H30C30.5522 36 31 35.5527 31 35C31 34.4477 30.5522 34 30 34H29C28.4478 34 28 34.4477 28 35C28 35.5527 28.4478 36 29 36Z" fill="black"/>
<path d="M34 36H35C35.5522 36 36 35.5527 36 35C36 34.4477 35.5522 34 35 34H34C33.4478 34 33 34.4477 33 35C33 35.5527 33.4478 36 34 36Z" fill="black"/>
<path d="M39 36H40C40.5522 36 41 35.5527 41 35C41 34.4477 40.5522 34 40 34H39C38.4478 34 38 34.4477 38 35C38 35.5527 38.4478 36 39 36Z" fill="black"/>
<path d="M44 36H45C45.5522 36 46 35.5527 46 35C46 34.4477 45.5522 34 45 34H44C43.4478 34 43 34.4477 43 35C43 35.5527 43.4478 36 44 36Z" fill="black"/>
<path d="M49 36H50C50.5522 36 51 35.5527 51 35C51 34.4477 50.5522 34 50 34H49C48.4478 34 48 34.4477 48 35C48 35.5527 48.4478 36 49 36Z" fill="black"/>
</svg>
