<svg width="42" height="42" viewBox="0 0 42 42" fill="none" xmlns="http://www.w3.org/2000/svg">
<g clip-path="url(#clip0_429_7946)">
<path d="M3.62351 28.5946C2.91813 28.5474 2.54555 28.3191 2.08839 28.0378C1.73631 27.8212 1.33731 27.5756 0.778764 27.4275C0.450067 27.3404 0.113494 27.5361 0.026377 27.8645C-0.0607398 28.1929 0.134986 28.5298 0.463355 28.6169C0.846768 28.7185 1.12329 28.8886 1.44346 29.0858C2.01382 29.4368 2.66031 29.8345 3.90882 29.8345C5.1515 29.8345 5.79799 29.4367 6.36835 29.0857C6.88252 28.7693 7.28857 28.5194 8.18304 28.5194C9.0775 28.5194 9.48355 28.7693 9.99772 29.0858C10.5681 29.4368 11.2146 29.8345 12.4573 29.8345C13.6999 29.8345 14.3464 29.4367 14.9168 29.0857C15.431 28.7693 15.837 28.5194 16.7315 28.5194C17.6259 28.5194 18.032 28.7693 18.5462 29.0857C19.1152 29.4359 19.7601 29.8327 20.9972 29.8345H21.0028H21.0085C22.2455 29.8327 22.8904 29.4359 23.4594 29.0857C23.9736 28.7693 24.3796 28.5194 25.2741 28.5194C26.1686 28.5194 26.5746 28.7693 27.0888 29.0857C27.6591 29.4367 28.3056 29.8345 29.5483 29.8345C30.791 29.8345 31.4375 29.4367 32.0078 29.0857C32.522 28.7693 32.9281 28.5194 33.8225 28.5194C34.717 28.5194 35.123 28.7693 35.6372 29.0858C36.2076 29.4368 36.8541 29.8345 38.1027 29.8345C39.3453 29.8345 39.9918 29.4367 40.5622 29.0858C40.8824 28.8887 41.1589 28.7185 41.5423 28.6169C41.8707 28.5298 42.0664 28.1929 41.9793 27.8645C41.8922 27.536 41.5554 27.3402 41.2269 27.4275C40.6683 27.5756 40.2693 27.8212 39.9173 28.0378C39.4031 28.3542 38.997 28.6041 38.0967 28.6041C37.5553 28.6041 37.1932 28.5121 36.8774 28.3697C37.9144 27.6305 38.7523 26.6537 39.3311 25.496L41.9348 20.2884C42.0302 20.0977 42.02 19.8712 41.9079 19.6899C41.7958 19.5085 41.5977 19.3981 41.3845 19.3981H40.0271V17.3831C40.0271 17.0433 39.7516 16.7678 39.4119 16.7678H37.3969V14.7528C37.3969 14.4131 37.1214 14.1376 36.7816 14.1376H26.2604C25.9207 14.1376 25.6452 14.4131 25.6452 14.7528V16.7678H23.6302C23.2904 16.7678 23.015 17.0433 23.015 17.3831V22.0284H17.0122V15.368H17.7121C18.0518 15.368 18.3273 15.0925 18.3273 14.7527C18.3273 14.413 18.0518 14.1375 17.7121 14.1375H13.0667V10.1074H13.7666C14.1063 10.1074 14.3818 9.83196 14.3818 9.49219C14.3818 9.15241 14.1063 8.87695 13.7666 8.87695H4.56063C4.22086 8.87695 3.9454 9.15241 3.9454 9.49219V17.383C3.9454 17.7228 4.22086 17.9982 4.56063 17.9982C4.90041 17.9982 5.17587 17.7228 5.17587 17.383V15.368H15.7817V16.7678H15.0818C14.7421 16.7678 14.4666 17.0432 14.4666 17.383C14.4666 17.7228 14.7421 17.9982 15.0818 17.9982H15.7817V22.0283H9.16363C8.77768 22.0283 8.46375 21.7143 8.46375 21.3284V20.0132C8.46375 19.6735 8.18829 19.398 7.84851 19.398H0.615195C0.408395 19.398 0.215376 19.5019 0.101599 19.6745C-0.0122596 19.8472 -0.0317009 20.0655 0.0497558 20.2555L3.62351 28.5946ZM11.8362 10.1075V11.5073H11.1363C10.7965 11.5073 10.5211 11.7827 10.5211 12.1225C10.5211 12.4623 10.7965 12.7377 11.1363 12.7377H11.8362V14.1375H5.17587V10.1074H11.8362V10.1075ZM38.7966 19.3981H34.7665V17.9983H38.7966V19.3981ZM29.5059 19.3981V17.9983H33.536V19.3981H29.5059ZM36.1663 16.7678H32.1362V15.3681H36.1663V16.7678ZM26.8757 15.368H30.9058V16.7678H26.8757V15.368ZM24.2453 17.9983H28.2754V19.3981H24.2453V17.9983ZM24.2453 20.6285H27.8952L27.3888 21.6415C27.2695 21.8802 27.0296 22.0284 26.7628 22.0284H24.2454V20.6285H24.2453ZM7.2332 20.6285V21.3285C7.2332 22.3929 8.0992 23.2589 9.16355 23.2589H26.7627C27.4986 23.2589 28.1602 22.8499 28.4892 22.1917L29.2708 20.6285H40.3889L39.689 22.0284H30.8634C30.5237 22.0284 30.2482 22.3039 30.2482 22.6436C30.2482 22.9834 30.5237 23.2589 30.8634 23.2589H39.074L38.2305 24.9457C37.6537 26.0995 36.7718 27.0403 35.6677 27.6885C35.2149 27.4664 34.6518 27.289 33.8225 27.289C32.5798 27.289 31.9334 27.6868 31.363 28.0378C30.8488 28.3542 30.4428 28.6041 29.5483 28.6041C28.6538 28.6041 28.2478 28.3542 27.7336 28.0377C27.1633 27.6867 26.5168 27.289 25.2741 27.289C24.0314 27.289 23.3849 27.6868 22.8146 28.0378C22.301 28.3539 21.8952 28.6035 21.0028 28.6041C20.1105 28.6035 19.7046 28.3538 19.1911 28.0377C18.6207 27.6867 17.9742 27.289 16.7316 27.289C15.4889 27.289 14.8424 27.6868 14.272 28.0378C13.7579 28.3542 13.3518 28.6041 12.4573 28.6041C11.5629 28.6041 11.1568 28.3542 10.6426 28.0377C10.0723 27.6867 9.4258 27.289 8.18312 27.289C6.94043 27.289 6.29395 27.6868 5.72359 28.0378C5.45018 28.2061 5.20663 28.355 4.90369 28.4581L1.54821 20.6285H7.2332Z" fill="white"/>
<path d="M41.9793 31.1537C41.8922 30.8252 41.5555 30.6294 41.2269 30.7167C40.6684 30.8648 40.2694 31.1103 39.9174 31.327C39.4032 31.6434 38.9971 31.8932 38.0969 31.8932C37.2025 31.8932 36.7963 31.6434 36.2822 31.3269C35.7118 30.9759 35.0653 30.5781 33.8226 30.5781C32.58 30.5781 31.9335 30.976 31.3631 31.327C30.8489 31.6434 30.4429 31.8932 29.5484 31.8932C28.654 31.8932 28.2479 31.6434 27.7337 31.3269C27.1634 30.9759 26.5169 30.5781 25.2742 30.5781C24.0315 30.5781 23.385 30.976 22.8147 31.327C22.3011 31.6431 21.8953 31.8927 21.0029 31.8932C20.1106 31.8927 19.7047 31.643 19.1912 31.3269C18.6208 30.9759 17.9744 30.5781 16.7317 30.5781C15.489 30.5781 14.8425 30.976 14.2721 31.327C13.758 31.6434 13.3519 31.8932 12.4575 31.8932C11.563 31.8932 11.1569 31.6434 10.6428 31.3269C10.0724 30.9759 9.42592 30.5781 8.18323 30.5781C6.94055 30.5781 6.29406 30.976 5.7237 31.327C5.20953 31.6434 4.80348 31.8932 3.90319 31.8932C3.00881 31.8932 2.60267 31.6434 2.0885 31.327C1.73643 31.1103 1.33743 30.8648 0.778962 30.7167C0.45051 30.6294 0.113691 30.8252 0.0265743 31.1537C-0.0605425 31.4821 0.135101 31.8189 0.463553 31.906C0.846883 32.0077 1.12341 32.1778 1.44366 32.3749C2.01402 32.7259 2.6605 33.1237 3.9091 33.1237C5.15178 33.1237 5.79827 32.7259 6.36863 32.3748C6.8828 32.0585 7.28885 31.8086 8.18332 31.8086C9.07778 31.8086 9.48383 32.0585 9.998 32.3749C10.5684 32.7259 11.2148 33.1237 12.4575 33.1237C13.7002 33.1237 14.3467 32.7259 14.9171 32.3748C15.4312 32.0585 15.8373 31.8086 16.7318 31.8086C17.6262 31.8086 18.0323 32.0585 18.5464 32.3748C19.1155 32.725 19.7603 33.1218 20.9974 33.1237H21.0031H21.0088C22.2458 33.1219 22.8906 32.725 23.4597 32.3748C23.9739 32.0585 24.3799 31.8086 25.2744 31.8086C26.1688 31.8086 26.5749 32.0585 27.0891 32.3748C27.6594 32.7259 28.3059 33.1237 29.5486 33.1237C30.7913 33.1237 31.4378 32.7259 32.0081 32.3748C32.5223 32.0585 32.9283 31.8086 33.8228 31.8086C34.7173 31.8086 35.1233 32.0585 35.6375 32.3749C36.2079 32.7259 36.8543 33.1237 38.1029 33.1237C39.3456 33.1237 39.9921 32.7259 40.5625 32.3749C40.8826 32.1779 41.1592 32.0077 41.5426 31.906C41.8708 31.8189 42.0664 31.4821 41.9793 31.1537Z" fill="white"/>
<path d="M7.18945 12.7383H8.50458C8.84435 12.7383 9.11981 12.4628 9.11981 12.123C9.11981 11.7833 8.84435 11.5078 8.50458 11.5078H7.18945C6.84968 11.5078 6.57422 11.7833 6.57422 12.123C6.57422 12.4628 6.84968 12.7383 7.18945 12.7383Z" fill="white"/>
<path d="M8.50458 17.998C8.84435 17.998 9.11981 17.7226 9.11981 17.3828C9.11981 17.043 8.84435 16.7676 8.50458 16.7676H7.18945C6.84968 16.7676 6.57422 17.043 6.57422 17.3828C6.57422 17.7226 6.84968 17.998 7.18945 17.998H8.50458Z" fill="white"/>
<path d="M12.4518 17.998C12.7916 17.998 13.0671 17.7226 13.0671 17.3828C13.0671 17.043 12.7916 16.7676 12.4518 16.7676H11.1367C10.7969 16.7676 10.5215 17.043 10.5215 17.3828C10.5215 17.7226 10.7969 17.998 11.1367 17.998H12.4518Z" fill="white"/>
<path d="M11.8002 25.8906C12.1399 25.8906 12.4154 25.6152 12.4154 25.2754C12.4154 24.9356 12.1399 24.6602 11.8002 24.6602H11.7936C11.4538 24.6602 11.1816 24.9356 11.1816 25.2754C11.1816 25.6152 11.4604 25.8906 11.8002 25.8906Z" fill="white"/>
<path d="M17.0541 25.8906C17.3938 25.8906 17.6693 25.6152 17.6693 25.2754C17.6693 24.9356 17.3938 24.6602 17.0541 24.6602H17.0475C16.7077 24.6602 16.4355 24.9356 16.4355 25.2754C16.4355 25.6152 16.7143 25.8906 17.0541 25.8906Z" fill="white"/>
<path d="M22.3216 25.8906C22.6614 25.8906 22.9369 25.6152 22.9369 25.2754C22.9369 24.9356 22.6614 24.6602 22.3216 24.6602H22.3151C21.9753 24.6602 21.7031 24.9356 21.7031 25.2754C21.7031 25.6152 21.9819 25.8906 22.3216 25.8906Z" fill="white"/>
<path d="M14.431 25.8906C14.7708 25.8906 15.0463 25.6152 15.0463 25.2754C15.0463 24.9356 14.7708 24.6602 14.431 24.6602H14.4245C14.0847 24.6602 13.8125 24.9356 13.8125 25.2754C13.8125 25.6152 14.0912 25.8906 14.431 25.8906Z" fill="white"/>
<path d="M19.6849 25.8906C20.0247 25.8906 20.3002 25.6152 20.3002 25.2754C20.3002 24.9356 20.0247 24.6602 19.6849 24.6602H19.6784C19.3386 24.6602 19.0664 24.9356 19.0664 25.2754C19.0664 25.6152 19.3451 25.8906 19.6849 25.8906Z" fill="white"/>
<path d="M24.9505 25.8906C25.2903 25.8906 25.5658 25.6152 25.5658 25.2754C25.5658 24.9356 25.2903 24.6602 24.9505 24.6602H24.944C24.6042 24.6602 24.332 24.9356 24.332 25.2754C24.332 25.6152 24.6108 25.8906 24.9505 25.8906Z" fill="white"/>
</g>
<defs>
<clipPath id="clip0_429_7946">
<rect width="42" height="42" fill="white"/>
</clipPath>
</defs>
</svg>
