<svg width="20" height="20" viewBox="0 0 20 20" fill="none" xmlns="http://www.w3.org/2000/svg">
<path d="M10 12.3438C10.3236 12.3438 10.5859 12.0814 10.5859 11.7578C10.5859 11.4342 10.3236 11.1719 10 11.1719C9.6764 11.1719 9.41406 11.4342 9.41406 11.7578C9.41406 12.0814 9.6764 12.3438 10 12.3438Z" fill="black"/>
<path d="M10 1.79688C4.50742 1.79688 0 6.26523 0 11.7578C0 15.693 2.32801 18.0745 2.40055 18.2031H17.6006C17.6844 18.0544 20 15.72 20 11.7578C20 6.26523 15.4926 1.79688 10 1.79688ZM12.9297 15.8594H7.07031V14.6875H12.9297V15.8594ZM11.7578 11.7578C11.7578 12.7271 10.9693 13.5156 10 13.5156C9.0307 13.5156 8.24219 12.7271 8.24219 11.7578C8.24219 10.9949 8.73352 10.3506 9.41406 10.1079V7.65625H10.5859V10.1079C11.2665 10.3506 11.7578 10.9949 11.7578 11.7578ZM16.5952 15.567L16.3017 16.0728L14.2738 14.9021L14.8597 13.887L15.8514 14.4598C16.1593 13.7937 16.3464 13.0768 16.4134 12.3438H15.2734V11.1719H16.4156C16.3477 10.4229 16.1484 9.71313 15.8455 9.05965L14.8597 9.62863L14.2738 8.61355L15.2593 8.04473C14.835 7.44563 14.3122 6.92285 13.7131 6.49856L13.1443 7.48402L12.1292 6.89809L12.6982 5.9123C12.0447 5.60937 11.3349 5.41004 10.5859 5.34219V6.48438H9.41406V5.34219C8.66512 5.41008 7.95531 5.60941 7.30184 5.9123L7.87082 6.89809L6.85574 7.48402L6.28691 6.49856C5.68781 6.92285 5.16504 7.44563 4.74074 8.04473L5.72621 8.61355L5.14027 9.62863L4.15449 9.05965C3.85156 9.71313 3.65223 10.4229 3.58438 11.1719H4.72656V12.3438H3.5866C3.65363 13.0768 3.84074 13.7937 4.14863 14.4598L5.14027 13.887L5.72621 14.9021L3.69832 16.0728L3.40477 15.567C2.73645 14.4134 2.38281 13.0962 2.38281 11.7578C2.38281 7.55781 5.8 4.14062 10 4.14062C14.2 4.14062 17.6172 7.55781 17.6172 11.7578C17.6172 13.0962 17.2636 14.4134 16.5952 15.567Z" fill="black"/>
</svg>
