<svg width="36" height="36" viewBox="0 0 36 36" fill="none" xmlns="http://www.w3.org/2000/svg">
<path d="M25.7549 15.1864L16.9746 22.9061C16.9629 22.9163 16.9512 22.9266 16.9409 22.9376C16.6567 23.2203 16.5 23.5974 16.5 23.9996C16.5 24.8264 17.1724 25.4995 18 25.4995C18.3984 25.4995 18.7749 25.3443 19.0942 25.0249L26.814 16.2446C27.0747 15.948 27.0601 15.499 26.7803 15.2193C26.5005 14.9403 26.0537 14.9256 25.7549 15.1864Z" fill="white"/>
<path d="M18 6C8.07419 6 0 14.075 0 24C0 25.8618 0.288563 27.7046 0.855492 29.4785C0.955125 29.7891 1.24369 30 1.57036 30H34.4297C34.7564 30 35.0449 29.7891 35.1446 29.4785C35.7114 27.7046 36 25.8619 36 24C36 14.075 27.9258 6 18 6ZM32.25 24.75H34.448C34.3901 26.0185 34.2204 27.2775 33.873 28.5H2.12695C1.77961 27.2775 1.60995 26.0185 1.55201 24.75H3.74998C4.16454 24.75 4.5 24.4146 4.5 24C4.5 23.5854 4.16454 23.25 3.74998 23.25H1.53795C1.64911 20.7947 2.28888 18.4782 3.36241 16.415L5.28363 17.5246C5.40232 17.5928 5.5312 17.625 5.65861 17.625C5.91645 17.625 6.16985 17.491 6.30752 17.25C6.51551 16.8911 6.39246 16.4326 6.03359 16.2253L4.11666 15.1182C5.40499 13.1115 7.11211 11.4046 9.11883 10.1163L10.226 12.0344C10.3636 12.2747 10.6171 12.4094 10.8749 12.4094C11.0024 12.4094 11.1312 12.3772 11.2499 12.3091C11.6087 12.1018 11.7318 11.6433 11.5238 11.2844L10.4145 9.36262C12.4778 8.28895 14.7945 7.64911 17.2499 7.53795V9.74998C17.2499 10.1645 17.5854 10.5 17.9999 10.5C18.4145 10.5 18.75 10.1645 18.75 9.74998V7.53795C21.2054 7.64911 23.5221 8.28895 25.5854 9.36262L24.4761 11.2844C24.2681 11.6433 24.3911 12.1018 24.75 12.3091C24.8687 12.3772 24.9976 12.4094 25.125 12.4094C25.3828 12.4094 25.6362 12.2746 25.7739 12.0344L26.881 10.1163C28.8878 11.4046 30.5949 13.1115 31.8832 15.1182L29.9663 16.2253C29.6074 16.4326 29.4844 16.8911 29.6923 17.25C29.83 17.491 30.0835 17.625 30.3412 17.625C30.4687 17.625 30.5976 17.5928 30.7162 17.5246L32.6374 16.415C33.711 18.4783 34.3507 20.7947 34.4619 23.25H32.2499C31.8353 23.25 31.4999 23.5854 31.4999 24C31.5 24.4146 31.8355 24.75 32.25 24.75Z" fill="white"/>
</svg>
