<svg width="40" height="40" viewBox="0 0 40 40" fill="none" xmlns="http://www.w3.org/2000/svg">
<path d="M40 30.098V19.9605C40 19.0253 39.7457 18.1072 39.2645 17.3051L36.6371 12.9261C36.3814 12.4998 36.0096 12.1541 35.572 11.9241C33.7173 5.0632 27.4394 0 20 0C12.5606 0 6.28266 5.0632 4.42805 11.9242C3.99047 12.1541 3.61859 12.4998 3.36289 12.9261L0.735469 17.3051C0.254297 18.1071 0 19.0253 0 19.9605V30.098C0 30.7576 0.124219 31.4024 0.369141 32.015L0.9825 33.5484H0V40H11.6129V33.5484H10.3226L10.5806 33.2042C11.2463 32.3167 11.613 31.2169 11.613 30.1074V29.9088C14.1346 31.4491 17.0098 32.258 20 32.258C22.9902 32.258 25.8654 31.4491 28.3871 29.9087V30.1075C28.3871 31.217 28.7537 32.3169 29.4194 33.2043L29.6774 33.5484H28.3871V40H40V33.5484H39.0174L39.6308 32.0148C39.8758 31.4024 40 30.7576 40 30.098ZM20 1.29031C28.1821 1.29031 34.8387 7.94695 34.8387 16.129C34.8387 17.1035 34.7448 18.063 34.5608 19.0019C34.3047 18.578 33.8906 18.2601 33.4009 18.1297C33.4985 17.4695 33.5484 16.7994 33.5484 16.129C33.5484 8.65836 27.4706 2.58063 20 2.58063C12.5294 2.58063 6.45164 8.65836 6.45164 16.1291C6.45164 16.7995 6.50148 17.4696 6.59906 18.1297C6.1093 18.2602 5.69523 18.578 5.43914 19.002C5.25508 18.063 5.16133 17.1037 5.16133 16.1291C5.16133 7.94695 11.8179 1.29031 20 1.29031ZM28.3871 22.5806V25.0674C27.1521 26.2255 25.6696 27.1303 24.0828 27.6907C23.8845 27.7607 23.672 27.7309 23.4995 27.6089C23.3256 27.4859 23.2258 27.2933 23.2258 27.0805V23.2258H24.2691L24.4602 22.8446C25.1622 21.4406 26.5127 20.4989 28.0729 20.3256L29.0574 20.2162C28.6328 20.9045 28.3871 21.7143 28.3871 22.5806ZM30.5041 18.7573L27.9305 19.0432C26.0589 19.2511 24.423 20.3229 23.4855 21.9355H16.5125C15.5634 20.3202 13.9173 19.2565 12.0348 19.0627L9.57766 18.8096C9.08031 18.4813 8.51469 18.2493 7.90695 18.1388C7.79797 17.4776 7.74195 16.8037 7.74195 16.1291C7.74195 14.535 8.04805 13.0112 8.60414 11.613H31.3959C31.952 13.0112 32.2581 14.5351 32.2581 16.1291C32.2581 16.8037 32.2021 17.4775 32.0932 18.1388C31.5183 18.2433 30.9813 18.4566 30.5041 18.7573ZM10.9632 20.2495L11.9025 20.3463C13.479 20.5086 14.8432 21.4517 15.552 22.8692L15.7302 23.2259H16.7742V27.0806C16.7742 27.2934 16.6745 27.4859 16.5005 27.609C16.328 27.731 16.1155 27.7609 15.9173 27.6907C14.3304 27.1304 12.8479 26.2256 11.613 25.0675V22.5807C11.6129 21.7283 11.3753 20.9304 10.9632 20.2495ZM7.0968 19.3548C7.31766 19.3548 7.53344 19.3773 7.74195 19.4198V21.2903C7.74195 22.1313 7.2025 22.8484 6.45164 23.1148V20C6.45164 19.6443 6.74102 19.3548 7.0968 19.3548ZM9.20687 10.3226C11.2799 6.48453 15.3403 3.87094 20 3.87094C24.6597 3.87094 28.7201 6.48445 30.7931 10.3226H9.20687ZM32.258 19.4198C32.4666 19.3773 32.6823 19.3548 32.9032 19.3548C33.2589 19.3548 33.5484 19.6443 33.5484 20V23.1148C32.7975 22.8485 32.258 22.1314 32.258 21.2903V19.4198ZM10.3226 38.7097H1.29031V34.8387H10.3226V38.7097ZM10.3226 30.1075C10.3226 30.9396 10.0477 31.7645 9.54828 32.4302L8.70969 33.5484H2.37227L1.56711 31.5357C1.38352 31.0763 1.29031 30.5927 1.29031 30.098V19.9605C1.29031 19.2591 1.48102 18.5705 1.84203 17.969L3.95922 14.4403C3.90125 14.9954 3.87102 15.5587 3.87102 16.129C3.87102 18.3264 4.30586 20.4545 5.16133 22.4573V25.272C5.16133 26.2763 4.77023 27.2205 4.05992 27.9309L4.97234 28.8433C5.92625 27.8893 6.45164 26.6211 6.45164 25.272V24.4512C7.92219 24.1514 9.03227 22.8481 9.03227 21.2903V20.0018C9.81523 20.5909 10.3226 21.5276 10.3226 22.5807V30.1075ZM20 30.9677C16.9797 30.9677 14.0872 30.0709 11.6129 28.3716V26.7681C12.7793 27.6867 14.0972 28.4164 15.4875 28.9074C15.6959 28.981 15.9127 29.0172 16.1287 29.0172C16.5235 29.0172 16.9151 28.8963 17.2456 28.6625C17.7584 28.2998 18.0645 27.7084 18.0645 27.0807V23.2258H21.9355V27.0805C21.9355 27.7083 22.2416 28.2997 22.7544 28.6623C23.0849 28.8961 23.4764 29.017 23.8713 29.017C24.0872 29.017 24.3041 28.9809 24.5125 28.9073C25.9028 28.4164 27.2207 27.6866 28.3871 26.768V28.3715C25.9128 30.071 23.0203 30.9677 20 30.9677ZM38.7097 38.7097H29.6774V34.8387H38.7097V38.7097ZM31.2903 33.5484L30.4516 32.4302C29.9524 31.7645 29.6774 30.9397 29.6774 30.1075V22.5806C29.6774 21.5276 30.1848 20.5909 30.9677 20.0017V21.2902C30.9677 22.848 32.0778 24.1513 33.5484 24.4511V25.2719C33.5484 26.621 34.0737 27.8892 35.0277 28.8432L35.9401 27.9308C35.2298 27.2205 34.8387 26.2763 34.8387 25.2719V22.4573C35.6942 20.4544 36.129 18.3263 36.129 16.1289C36.129 15.5587 36.0988 14.9954 36.0408 14.4402L38.158 17.9688C38.5189 18.5703 38.7097 19.259 38.7097 19.9604V30.0979C38.7097 30.5925 38.6166 31.0762 38.4328 31.5355L37.6277 33.5483H31.2903V33.5484Z" fill="white"/>
<path d="M19.9998 12.9023C17.8653 12.9023 16.1289 14.6388 16.1289 16.7733C16.1289 18.9077 17.8654 20.6442 19.9998 20.6442C22.1343 20.6442 23.8708 18.9077 23.8708 16.7733C23.8708 14.6388 22.1344 12.9023 19.9998 12.9023ZM19.9998 19.354C18.5769 19.354 17.4192 18.1963 17.4192 16.7734C17.4192 15.3504 18.5769 14.1927 19.9998 14.1927C21.4228 14.1927 22.5805 15.3504 22.5805 16.7734C22.5805 18.1963 21.4228 19.354 19.9998 19.354Z" fill="white"/>
<path d="M29.6776 12.9023H27.097C26.3855 12.9023 25.8066 13.4813 25.8066 14.1927V15.483C25.8066 16.1945 26.3855 16.7733 27.097 16.7733H29.6776C30.3891 16.7733 30.9679 16.1944 30.9679 15.483V14.1927C30.9679 13.4813 30.3891 12.9023 29.6776 12.9023ZM29.6776 15.483H27.097V14.1927H29.6776L29.6784 15.483C29.6784 15.483 29.6781 15.483 29.6776 15.483Z" fill="white"/>
<path d="M13.5487 12.9023H10.968C10.2566 12.9023 9.67773 13.4813 9.67773 14.1927V15.483C9.67773 16.1945 10.2566 16.7733 10.968 16.7733H13.5487C14.2602 16.7733 14.839 16.1944 14.839 15.483V14.1927C14.839 13.4813 14.2602 12.9023 13.5487 12.9023ZM13.5487 15.483H10.968V14.1927H13.5487L13.5495 15.483C13.5495 15.483 13.5493 15.483 13.5487 15.483Z" fill="white"/>
</svg>
