<svg width="18" height="18" viewBox="0 0 18 18" fill="none" xmlns="http://www.w3.org/2000/svg">
<path d="M9 0C4.04445 0 0 4.04469 0 9C0 13.9557 4.04469 18 9 18C13.9556 18 18 13.9553 18 9C18 4.04445 13.9553 0 9 0ZM9 2.14453C12.4215 2.14453 15.2655 4.66411 15.7743 7.94531H13.9455C12.786 7.94531 11.6844 7.48002 10.923 6.66875C9.88242 5.55971 8.11768 5.55936 7.07695 6.66872C6.31564 7.48002 5.21399 7.94531 4.05443 7.94531H2.22567C2.73449 4.66411 5.57849 2.14453 9 2.14453ZM9 11.1094C8.1277 11.1094 7.41797 10.3997 7.41797 9.52734C7.41797 8.65498 8.1277 7.94531 9 7.94531C9.87237 7.94531 10.582 8.65498 10.582 9.52734C10.582 10.3997 9.87237 11.1094 9 11.1094ZM2.61633 11.4995C3.21996 11.2627 3.65583 11.1094 4.25391 11.1094C6.17653 11.1094 7.67176 12.8227 7.38214 14.7477H7.38091C7.33788 15.0423 7.25323 15.3278 7.13113 15.5965C5.06538 15.0105 3.39367 13.478 2.61633 11.4995ZM10.8693 15.5964C10.7439 15.3206 10.661 15.0351 10.6191 14.7477H10.6179C10.2804 12.5045 12.3511 10.6537 14.4975 11.1992C14.7238 11.2567 15.0069 11.3517 15.3836 11.4995C14.6064 13.4778 12.9348 15.0103 10.8693 15.5964Z" fill="black"/>
</svg>
