<svg width="62" height="62" viewBox="0 0 62 62" fill="none" xmlns="http://www.w3.org/2000/svg">
<path d="M57.0251 4.51172H49.1006C48.599 4.51172 48.1924 4.91835 48.1924 5.41992C48.1924 5.92149 48.599 6.32812 49.1006 6.32812H57.0251C57.5267 6.32812 57.9333 5.92149 57.9333 5.41992C57.9333 4.91835 57.5268 4.51172 57.0251 4.51172Z" fill="black"/>
<path d="M44.6006 6.32812H45.5666C46.0681 6.32812 46.4748 5.92149 46.4748 5.41992C46.4748 4.91835 46.0681 4.51172 45.5666 4.51172H44.6006C44.099 4.51172 43.6924 4.91835 43.6924 5.41992C43.6924 5.92149 44.099 6.32812 44.6006 6.32812Z" fill="black"/>
<path d="M44.6006 10.5938H57.0253C57.5269 10.5938 57.9335 10.1871 57.9335 9.68555C57.9335 9.18398 57.5269 8.77734 57.0253 8.77734H44.6006C44.099 8.77734 43.6924 9.18398 43.6924 9.68555C43.6924 10.1871 44.099 10.5938 44.6006 10.5938Z" fill="black"/>
<path d="M47.8857 53.779C47.8857 50.1512 46.6745 46.5921 44.4684 43.7165L44.6367 40.6159C44.7513 38.5052 43.0763 36.7196 40.946 36.7196H31.0045C30.5471 36.3964 30.2697 35.8714 30.2697 35.3045V32.7686C31.8111 31.7718 32.8933 30.635 33.6883 29.2821H35.4458C37.4791 29.2821 39.1333 27.628 39.1333 25.5947V18.812C39.1333 17.668 38.4715 16.6568 37.4818 16.1783V11.4181C37.4818 9.25103 35.7188 7.48791 33.5517 7.48791H33.4498C33.3878 7.48791 33.3375 7.43741 33.3375 7.37553C33.3375 5.20844 31.5743 3.44531 29.4073 3.44531H19.7889C15.0145 3.44531 11.1302 7.32964 11.1302 12.104V16.1782C10.1406 16.6566 9.47873 17.6679 9.47873 18.8119V22.2613C9.47873 23.8753 10.7918 25.1883 12.4057 25.1883H13.5781C13.8816 27.755 15.0856 30.0991 16.9715 31.7288C17.414 32.1112 17.8716 32.4528 18.3423 32.758V35.3043C18.3423 35.8696 18.0638 36.3947 17.6044 36.7195H7.66632C5.55251 36.7195 3.86023 38.4886 3.97575 40.6158L4.14407 43.7164C1.93786 46.5921 0.726684 50.1512 0.726684 53.779V57.1998C0.275125 57.7058 0 58.3725 0 59.1024C0 60.68 1.28347 61.9634 2.86108 61.9634H45.7513C47.3289 61.9634 48.6124 60.6799 48.6124 59.1024C48.6124 58.3725 48.3372 57.7058 47.8857 57.1999V53.779ZM46.0693 53.779V56.2594C45.9648 56.2478 45.8588 56.2413 45.7513 56.2413H43.7886L44.3012 46.7972C45.4507 48.9322 46.0693 51.3375 46.0693 53.779ZM37.2237 18.3685C37.2834 18.5051 37.3171 18.6551 37.3171 18.8121V22.2616C37.3171 22.874 36.8189 23.3721 36.2065 23.3721H35.1265V19.9485L35.6862 19.7535C36.3786 19.5123 36.9232 19.0037 37.2237 18.3685ZM31.1602 28.8913H28.881C28.5136 28.8913 28.2146 28.5925 28.2146 28.2251C28.2146 27.8577 28.5136 27.5588 28.881 27.5588H31.1602C31.5276 27.5588 31.8265 27.8577 31.8265 28.2251C31.8265 28.5925 31.5276 28.8913 31.1602 28.8913ZM35.4461 27.4658H34.5281C34.7838 26.7366 34.9604 25.9727 35.0535 25.1885H36.2065C36.5995 25.1885 36.9744 25.1102 37.3171 24.9691V25.5949C37.3171 26.6265 36.4777 27.4658 35.4461 27.4658ZM12.9469 12.1042C12.9469 8.33144 16.0163 5.26196 19.7891 5.26196H29.4075C30.573 5.26196 31.5213 6.21025 31.5213 7.37577C31.5213 8.43934 32.3866 9.30455 33.4501 9.30455H33.5519C34.7175 9.30455 35.6656 10.2528 35.6656 11.4184V17.2264C35.6656 17.5918 35.4337 17.9181 35.0886 18.0383L33.18 18.703C33.1032 18.7296 33.0238 18.6742 33.0238 18.5915L33.0274 14.9824C33.0384 12.3485 30.5721 10.0513 27.1165 11.1613C25.3786 11.7198 23.2278 11.7178 21.4957 11.1613C18.076 10.0622 15.5739 12.3186 15.5849 14.9796L15.5891 18.5917C15.5891 18.675 15.508 18.7299 15.4329 18.703L13.5238 18.0382C13.1786 17.9181 12.9467 17.5917 12.9467 17.2263V12.1042H12.9469ZM11.2954 22.2616V18.812C11.2954 18.655 11.329 18.505 11.3887 18.3684C11.6894 19.0037 12.234 19.5123 12.9266 19.7535L13.4862 19.9483V23.372H12.4061C11.7936 23.3721 11.2954 22.8738 11.2954 22.2616ZM15.3192 24.1395C15.2891 22.9455 15.3076 21.6782 15.3025 20.5178C15.3584 20.5227 15.4145 20.5255 15.4706 20.5255C16.5504 20.5255 17.4073 19.6478 17.4055 18.5891L17.4013 14.9746C17.3951 13.5 18.7179 12.1763 20.94 12.8905C23.0461 13.5672 25.5731 13.5651 27.6722 12.8905C29.7893 12.2103 31.2175 13.4078 31.2109 14.9777L31.2074 18.5893C31.206 19.715 32.1682 20.6169 33.3099 20.5178V24.213C33.2835 24.9979 33.1543 25.764 32.9351 26.4925C32.484 26.0304 31.8554 25.7423 31.1602 25.7423H28.881C27.512 25.7423 26.3982 26.856 26.3982 28.225C26.3982 29.5939 27.512 30.7076 28.881 30.7076H30.0349C28.3574 32.017 26.4498 32.6997 24.3538 32.7345C19.7687 32.6978 15.4504 29.3105 15.3192 24.1395ZM20.1591 35.3046V33.7155C21.4719 34.2591 22.8723 34.5407 24.3513 34.5511H24.3578C24.3625 34.5511 24.3672 34.5511 24.3719 34.551C25.8119 34.5286 27.1751 34.2496 28.4536 33.7229V35.3045C28.4536 35.8004 28.5574 36.2804 28.7485 36.7196H19.8631C20.0548 36.2802 20.1591 35.8001 20.1591 35.3046ZM4.31118 46.7972L4.45455 49.4396C4.4818 49.9406 4.91084 50.3258 5.41059 50.2973C5.91143 50.2702 6.29542 49.8421 6.2683 49.3413L5.78937 40.5176C5.73112 39.4442 6.5829 38.5361 7.66632 38.5361H40.9462C42.0216 38.5361 42.8817 39.4361 42.8231 40.5176L41.9696 56.2415H27.728C27.9016 55.204 28.3688 54.2283 29.0884 53.4288L29.1144 53.3997C31.8635 50.3242 31.0407 45.5149 27.4873 43.4957C26.5755 42.9777 25.4175 43.6237 25.4175 44.6977V48.8185C25.4175 49.0074 25.2638 49.161 25.0749 49.161H23.5375C23.3486 49.161 23.1949 49.0073 23.1949 48.8185V44.6977C23.1949 43.6258 22.0387 42.9766 21.125 43.4957C17.5615 45.5204 16.7554 50.3316 19.5007 53.4028L19.5239 53.4288C20.2436 54.2282 20.7108 55.2039 20.8843 56.2413H6.64284L6.49716 53.5563C6.47004 53.0555 6.04197 52.671 5.54113 52.6986C5.04029 52.7257 4.6563 53.1538 4.68342 53.6547L4.82377 56.2413H2.86108C2.75355 56.2413 2.64759 56.2479 2.54309 56.2594V53.779C2.54309 51.3376 3.16176 48.9322 4.31118 46.7972ZM22.7195 56.2413C22.5336 54.7532 21.8957 53.3484 20.8741 52.2136L20.8522 52.1891C19.0975 50.2261 19.3325 47.1907 21.3786 45.5165V48.8184C21.3786 50.0089 22.3471 50.9773 23.5376 50.9773H25.075C26.2655 50.9773 27.234 50.0088 27.234 48.8184V45.5165C29.2665 47.1795 29.5269 50.2128 27.7581 52.1916L27.7385 52.2135C26.7168 53.3484 26.0789 54.7532 25.893 56.2413H22.7195ZM45.7513 60.1471H2.86108C2.28504 60.1471 1.81641 59.6785 1.81641 59.1025C1.81641 58.5266 2.28504 58.0579 2.86108 58.0579H45.7513C46.3273 58.0579 46.796 58.5265 46.796 59.1025C46.796 59.6786 46.3273 60.1471 45.7513 60.1471Z" fill="black"/>
<path d="M61.0917 6.25444C61.5932 6.25444 61.9999 5.84781 61.9999 5.34624V3.58844C61.9999 1.63132 60.4076 0.0390625 58.4504 0.0390625H43.1755C41.2182 0.0390625 39.626 1.63132 39.626 3.58844V11.228C39.626 13.1852 41.2182 14.7775 43.1755 14.7775C43.5252 14.7775 43.8098 15.0621 43.8098 15.4118V20.1363C43.8098 20.8186 44.2515 21.3994 44.9092 21.5814C45.5707 21.7645 46.2464 21.4891 46.5953 20.9074L50.0864 15.0856C50.2004 14.8956 50.4089 14.7775 50.6305 14.7775H58.4505C60.4077 14.7775 62 13.1852 62 11.228V9.59227C62 9.0907 61.5934 8.68406 61.0918 8.68406C60.5902 8.68406 60.1836 9.0907 60.1836 9.59227V11.228C60.1836 12.1837 59.4062 12.9611 58.4505 12.9611H50.6304C49.7742 12.9611 48.9688 13.4173 48.5285 14.1514L45.6261 18.9916V15.4118C45.6261 14.0605 44.5266 12.9611 43.1754 12.9611C42.2197 12.9611 41.4423 12.1837 41.4423 11.228V3.58844C41.4423 2.63289 42.2197 1.85547 43.1754 1.85547H58.4504C59.406 1.85547 60.1835 2.63289 60.1835 3.58844V5.34624C60.1835 5.84781 60.5901 6.25444 61.0917 6.25444Z" fill="black"/>
</svg>
