<svg width="33" height="36" viewBox="0 0 33 36" fill="none" xmlns="http://www.w3.org/2000/svg">
<g clip-path="url(#clip0_451_6143)">
<path d="M10.6011 20.9996C11.2641 20.9996 11.8011 21.5368 11.8011 22.1995C11.8011 22.5309 12.0697 22.7995 12.4011 22.7995C12.7324 22.7995 13.0011 22.5309 13.0011 22.1995C12.997 21.1085 12.2575 20.1576 11.2011 19.8848V19.1996C11.2011 18.8683 10.9325 18.5996 10.6011 18.5996C10.2698 18.5996 10.0011 18.8683 10.0011 19.1996V19.8848C8.83221 20.1857 8.06992 21.3092 8.22227 22.5066C8.37461 23.7039 9.39411 24.6009 10.6011 24.5995C11.2641 24.5995 11.8011 25.1368 11.8011 25.7994C11.8011 26.4621 11.2641 26.9994 10.6011 26.9994C9.93844 26.9994 9.40114 26.4621 9.40114 25.7994C9.40114 25.4681 9.1325 25.1995 8.80116 25.1995C8.46982 25.1995 8.20117 25.4681 8.20117 25.7994C8.20527 26.8904 8.945 27.8414 10.0011 28.1141V28.7994C10.0011 29.1307 10.2698 29.3994 10.6011 29.3994C10.9325 29.3994 11.2011 29.1307 11.2011 28.7994V28.1159C12.3738 27.818 13.1399 26.6924 12.9873 25.4924C12.8347 24.2922 11.811 23.3942 10.6011 23.3995C9.93844 23.3995 9.40114 22.8622 9.40114 22.1995C9.40114 21.5368 9.93844 20.9996 10.6011 20.9996Z" fill="white"/>
<path d="M12.4011 15H8.80116C8.46982 15 8.20117 15.2686 8.20117 15.6C8.20117 15.9313 8.46982 16.2 8.80116 16.2H12.4011C12.7324 16.2 13.0011 15.9313 13.0011 15.6C13.0011 15.2686 12.7324 15 12.4011 15Z" fill="white"/>
<path d="M12.4011 31.8008H8.80116C8.46982 31.8008 8.20117 32.0694 8.20117 32.4008C8.20117 32.7321 8.46982 33.0008 8.80116 33.0008H12.4011C12.7324 33.0008 13.0011 32.7321 13.0011 32.4008C13.0011 32.0694 12.7324 31.8008 12.4011 31.8008Z" fill="white"/>
<path d="M31.4761 23.1003L22.6679 7.84549C23.2098 7.30791 23.6894 6.71056 24.0969 6.06487C25.0971 4.44479 25.2758 2.90703 24.5997 1.73606C23.2541 -0.595041 19.0044 -0.576292 14.9249 1.77854C14.3832 2.09582 13.8623 2.44708 13.3651 2.83027L12.8809 2.28068C12.3035 1.62678 11.4732 1.25179 10.6008 1.25121C9.72861 1.25179 8.89836 1.62678 8.32093 2.28068L1.7618 9.71342C1.27138 10.2689 1.00068 10.9846 1.00098 11.7258V30.6002C1.00449 33.5811 3.41996 35.9968 6.40085 36H14.8007C17.7816 35.9968 20.1973 33.5811 20.2005 30.6002V11.7258C20.1994 11.1478 20.0327 10.5821 19.7207 10.0954H19.7254C20.4428 9.68061 21.1237 9.20572 21.7606 8.67604L30.4369 23.7003C31.5976 25.7092 30.9098 28.2784 28.9003 29.4386L21.6261 33.6385C21.3062 33.8213 20.9631 33.961 20.6063 34.0536C20.2861 34.1389 20.0954 34.4676 20.1806 34.7878C20.2656 35.108 20.5943 35.2987 20.9148 35.2134C21.3724 35.093 21.8124 34.9129 22.2231 34.6776L29.4974 30.4777C32.0816 28.9874 32.9678 25.684 31.4761 23.1003ZM19.0006 30.6002C18.9979 32.9187 17.1192 34.7974 14.8007 34.8001H6.40085C4.08264 34.7974 2.20359 32.9187 2.20095 30.6002V11.7258C2.20095 11.277 2.36472 10.8437 2.66178 10.5071L9.22091 3.07519C9.57012 2.67881 10.0725 2.45147 10.6008 2.45118C11.129 2.45147 11.6317 2.67881 11.9809 3.07519L17.8325 9.70668C16.4949 10.3377 15.033 10.662 13.5541 10.6559C13.5814 10.5056 13.5969 10.3533 13.6007 10.2006C13.5989 8.5445 12.2569 7.20273 10.6008 7.20068C10.5348 7.20273 10.4698 7.21592 10.4083 7.23965C10.1059 7.20244 9.8247 7.40048 9.75732 7.69755C9.54375 8.51755 9.64863 9.38794 10.0506 10.1338C10.4493 10.7942 11.0695 11.2913 11.8007 11.5362C11.2749 12.0161 10.5146 12.1389 9.86425 11.8494C9.21358 11.5597 8.7964 10.9125 8.8008 10.2006C8.8008 9.86928 8.53215 9.60063 8.20081 9.60063C7.86947 9.60063 7.60083 9.86928 7.60083 10.2006C7.59936 11.5307 8.47473 12.7025 9.75087 13.0781C11.0267 13.4537 12.3975 12.943 13.1167 11.8242C13.3528 11.8491 13.5901 11.8623 13.8277 11.8632C15.5026 11.8125 17.1467 11.3985 18.6461 10.65C18.8749 10.9623 18.9988 11.3388 19.0006 11.7258V30.6002ZM12.4007 10.2006C12.3984 10.2885 12.3896 10.3761 12.3743 10.4628C11.845 10.3251 11.3865 9.99378 11.09 9.53383C10.9049 9.19605 10.8255 8.81051 10.8618 8.42702C11.743 8.55622 12.3972 9.31001 12.4007 10.2006ZM19.1248 9.05103C19.065 9.0859 19.005 9.11578 18.9449 9.14947L14.1629 3.72967C14.5982 3.3995 15.0532 3.09599 15.5249 2.82061C18.9048 0.868305 22.585 0.647705 23.5599 2.34073C24.0058 3.11181 23.8336 4.21276 23.0757 5.43969C22.776 5.91575 22.4306 6.36135 22.0439 6.76974L22.0377 6.7589C21.6677 6.11702 21.0753 5.63246 20.3728 5.39633L18.0232 4.60211C17.7127 4.50748 17.3831 4.67711 17.2797 4.98472C17.176 5.29262 17.3362 5.62689 17.6412 5.73909L19.9908 6.52921C20.4159 6.67247 20.7742 6.96573 20.9986 7.3542L21.1515 7.61874C20.5219 8.15867 19.8434 8.63854 19.1248 9.05279V9.05103Z" fill="white"/>
<path d="M21.4809 24.1849C21.6465 24.4717 22.0135 24.5701 22.3004 24.4043L26.4572 22.0044C26.6444 21.898 26.7601 21.6994 26.7607 21.4841C26.761 21.2687 26.6461 21.0698 26.4595 20.9626C26.2726 20.8554 26.0429 20.8562 25.8572 20.9652L21.7004 23.3652C21.4136 23.531 21.3151 23.8978 21.4809 24.1849Z" fill="white"/>
<path d="M22.2407 27.9C22.4059 28.1871 22.773 28.2858 23.0601 28.12L28.2561 25.1201C28.5432 24.9545 28.6416 24.5875 28.4758 24.3004C28.3103 24.0133 27.9432 23.9148 27.6561 24.0803L22.4601 27.0803C22.1733 27.2461 22.0749 27.6129 22.2407 27.9Z" fill="white"/>
<path d="M22.5795 20.6873C22.6847 20.6873 22.7881 20.6594 22.8795 20.6067L24.9578 19.4067C25.145 19.3004 25.2607 19.1017 25.2613 18.8864C25.2616 18.6714 25.1467 18.4721 24.9601 18.3649C24.7735 18.2577 24.5435 18.2586 24.3578 18.3676L22.2795 19.5675C22.0443 19.7035 21.9297 19.98 22 20.2425C22.0703 20.5047 22.3079 20.6873 22.5795 20.6873Z" fill="white"/>
</g>
<defs>
<clipPath id="clip0_451_6143">
<rect width="33" height="36" fill="white"/>
</clipPath>
</defs>
</svg>
