<svg width="60" height="60" viewBox="0 0 60 60" fill="none" xmlns="http://www.w3.org/2000/svg">
<g clip-path="url(#clip0_399_5783)">
<path d="M59.8843 32.772C59.3456 27.3534 56.9248 22.245 53.0677 18.3878C49.7714 15.0916 45.7368 12.9734 41.4915 12.0315V9.05399C43.2254 8.62261 44.5143 7.0531 44.5143 5.18756C44.5143 2.9905 42.7269 1.20312 40.5298 1.20312H32.0922C29.8951 1.20312 28.1077 2.9905 28.1077 5.18756C28.1077 7.05298 29.3966 8.6225 31.1304 9.05399V12.0399C26.8981 12.9857 22.8769 15.101 19.59 18.3879C18.8706 19.1072 18.2074 19.8618 17.6002 20.646C17.5708 20.6438 17.5414 20.6415 17.5114 20.6415H9.16034C8.51322 20.6415 7.98845 21.1662 7.98845 21.8134C7.98845 22.4607 8.51322 22.9853 9.16034 22.9853H16.0056C15.1464 24.4238 14.4535 25.9345 13.9262 27.4896H1.17189C0.524774 27.4896 0 28.0143 0 28.6615C0 29.3088 0.524774 29.8334 1.17189 29.8334H13.264C12.9262 31.316 12.7324 32.8248 12.6823 34.3378H7.50012C6.853 34.3378 6.32822 34.8625 6.32822 35.5097C6.32822 36.1569 6.853 36.6816 7.50012 36.6816H12.7197C12.8186 38.1985 13.0625 39.7074 13.4515 41.186H5.85947C5.21235 41.186 4.68757 41.7107 4.68757 42.3579C4.68757 43.0051 5.21235 43.5298 5.85947 43.5298H14.1994C15.349 46.571 17.1456 49.4214 19.59 51.8657C23.4509 55.7266 28.5645 58.148 33.9888 58.6839C34.7629 58.7603 35.5377 58.7981 36.3113 58.7981C40.8843 58.7981 45.3991 57.4747 49.2301 54.98C49.7724 54.6268 49.9258 53.9008 49.5726 53.3585C49.2194 52.8161 48.4934 52.6627 47.9511 53.0159C39.5653 58.4766 28.3347 57.2959 21.2472 50.2084C12.9313 41.8924 12.9313 28.3614 21.2472 20.0453C29.5631 11.7294 43.0942 11.7294 51.4103 20.0453C58.4884 27.1235 59.6755 38.3445 54.2329 46.7261C53.8804 47.2689 54.0347 47.9948 54.5774 48.3472C55.1205 48.6997 55.8461 48.5454 56.1985 48.0026C59.1064 43.5242 60.4154 38.1153 59.8843 32.772ZM30.4515 5.18768C30.4515 4.28298 31.1875 3.54703 32.0922 3.54703H40.5298C41.4345 3.54703 42.1705 4.28298 42.1705 5.18768C42.1705 6.09238 41.4345 6.82833 40.5298 6.82833H40.3196H32.3023H32.0922C31.1875 6.82833 30.4515 6.09226 30.4515 5.18768ZM33.4742 11.637V9.17211H39.1477V11.6327C37.2637 11.4087 35.3578 11.4101 33.4742 11.637Z" fill="white"/>
<path d="M52.2393 49.8672C51.9299 49.8672 51.6287 49.9926 51.4109 50.2105C51.1917 50.4285 51.0674 50.7309 51.0674 51.0391C51.0674 51.3473 51.1917 51.6496 51.4109 51.8676C51.6287 52.0867 51.93 52.2109 52.2393 52.2109C52.5475 52.2109 52.8486 52.0867 53.0678 51.8676C53.2857 51.6496 53.4111 51.3473 53.4111 51.0391C53.4111 50.7309 53.2859 50.4285 53.0678 50.2105C52.8486 49.9926 52.5473 49.8672 52.2393 49.8672Z" fill="white"/>
<path d="M36.3289 16.9453C26.3047 16.9453 18.1494 25.1005 18.1494 35.1248C18.1494 45.149 26.3047 53.3042 36.3289 53.3042C46.353 53.3042 54.5083 45.149 54.5083 35.1248C54.5083 25.1005 46.353 16.9453 36.3289 16.9453ZM36.3289 50.9604C27.597 50.9604 20.4932 43.8565 20.4932 35.1248C20.4932 26.393 27.597 19.2891 36.3289 19.2891C45.0608 19.2891 52.1646 26.393 52.1646 35.1248C52.1646 43.8565 45.0608 50.9604 36.3289 50.9604Z" fill="white"/>
<path d="M43.7419 26.0542L37.9375 31.8584C37.4521 31.6184 36.9061 31.4828 36.329 31.4828C35.7517 31.4828 35.2058 31.6184 34.7204 31.8584L32.1227 29.2607C31.665 28.8031 30.9231 28.8031 30.4653 29.2607C30.0077 29.7183 30.0077 30.4604 30.4653 30.918L33.063 33.5157C32.8229 34.0011 32.6874 34.5471 32.6874 35.1243C32.6874 37.1322 34.3209 38.7658 36.329 38.7658C38.337 38.7658 39.9705 37.1322 39.9705 35.1243C39.9705 34.5471 39.8349 34.0011 39.5949 33.5157L45.2289 27.8817L45.3992 27.7114C45.8568 27.2538 45.8568 26.5118 45.3992 26.0542C44.9416 25.5965 44.1997 25.5965 43.7419 26.0542ZM36.329 36.4221C35.6134 36.4221 35.0312 35.8399 35.0312 35.1244C35.0312 34.4088 35.6134 33.8266 36.329 33.8266C37.0445 33.8266 37.6267 34.4088 37.6267 35.1244C37.6267 35.8399 37.0445 36.4221 36.329 36.4221Z" fill="white"/>
<path d="M48.8582 33.9688H47.7725C47.1254 33.9688 46.6006 34.4934 46.6006 35.1406C46.6006 35.7879 47.1254 36.3125 47.7725 36.3125H48.8582C49.5053 36.3125 50.0301 35.7879 50.0301 35.1406C50.0301 34.4934 49.5053 33.9688 48.8582 33.9688Z" fill="white"/>
<path d="M24.8845 33.9375H23.7988C23.1517 33.9375 22.627 34.4621 22.627 35.1094C22.627 35.7566 23.1517 36.2812 23.7988 36.2812H24.8845C25.5316 36.2812 26.0563 35.7566 26.0563 35.1094C26.0563 34.4621 25.5316 33.9375 24.8845 33.9375Z" fill="white"/>
<path d="M36.3428 24.8552C36.9899 24.8552 37.5146 24.3305 37.5146 23.6833V22.5977C37.5146 21.9504 36.9899 21.4258 36.3428 21.4258C35.6957 21.4258 35.1709 21.9504 35.1709 22.5977V23.6833C35.1709 24.3305 35.6957 24.8552 36.3428 24.8552Z" fill="white"/>
<path d="M36.3145 45.3984C35.6673 45.3984 35.1426 45.9231 35.1426 46.5703V47.6559C35.1426 48.3032 35.6673 48.8278 36.3145 48.8278C36.9616 48.8278 37.4863 48.3032 37.4863 47.6559V46.5703C37.4863 45.9231 36.9616 45.3984 36.3145 45.3984Z" fill="white"/>
<path d="M1.17188 41.1836C0.863672 41.1836 0.561328 41.309 0.343359 41.527C0.125391 41.7449 0 42.0473 0 42.3555C0 42.6648 0.125273 42.966 0.343359 43.184C0.561445 43.402 0.863672 43.5273 1.17188 43.5273C1.48008 43.5273 1.78242 43.402 2.00027 43.184C2.21824 42.966 2.34375 42.6637 2.34375 42.3555C2.34375 42.0473 2.21836 41.7449 2.00027 41.527C1.78242 41.309 1.48008 41.1836 1.17188 41.1836Z" fill="white"/>
</g>
<defs>
<clipPath id="clip0_399_5783">
<rect width="60" height="60" fill="white"/>
</clipPath>
</defs>
</svg>
