<svg width="16" height="16" viewBox="0 0 16 16" fill="none" xmlns="http://www.w3.org/2000/svg">
<path d="M13.8233 10.579C13.3797 10.1313 12.7886 9.88489 12.1584 9.88489C12.1578 9.88489 12.1571 9.88489 12.1565 9.88489C11.5257 9.88539 10.9342 10.1328 10.4909 10.5817L9.54167 11.5427C7.26217 10.5873 5.4408 8.7642 4.48674 6.48599L5.45555 5.50505C6.36224 4.58705 6.35421 3.10137 5.43765 2.19321L3.22415 0H3.03124C1.35981 0 0 1.35981 0 3.03124C0 4.7818 0.342968 6.48024 1.01931 8.07939C1.67253 9.62376 2.60756 11.0106 3.79843 12.2015C4.9893 13.3924 6.37621 14.3274 7.92055 14.9806C9.5197 15.657 11.2182 16 12.9687 16C14.6402 16 16 14.6402 16 12.9687V12.7758L13.8233 10.579ZM12.9687 15.0625C6.33467 15.0625 0.937498 9.66529 0.937498 3.03124C0.937498 1.93896 1.77815 1.03937 2.84649 0.945592L4.77777 2.85912C5.32771 3.40402 5.33255 4.29543 4.78852 4.84624L3.39199 6.26027L3.49959 6.54214C4.53962 9.26695 6.69399 11.4388 9.41029 12.5008L9.77295 12.6426L11.1579 11.2404C11.4239 10.9711 11.7788 10.8227 12.1573 10.8224C12.1577 10.8224 12.158 10.8224 12.1584 10.8224C12.5365 10.8224 12.8912 10.9702 13.1573 11.2388L15.0544 13.1535C14.9606 14.2218 14.061 15.0625 12.9687 15.0625Z" fill="black"/>
<path d="M13.6569 2.34319C12.1458 0.832188 10.1369 0 8 0V0.9375C11.8943 0.9375 15.0625 4.10572 15.0625 8H16C16 5.86313 15.1678 3.85416 13.6569 2.34319Z" fill="black"/>
<path d="M8 2.8125V3.75C10.3435 3.75 12.25 5.65653 12.25 8.00001H13.1875C13.1875 5.1396 10.8604 2.8125 8 2.8125Z" fill="black"/>
</svg>
