<svg width="36" height="36" viewBox="0 0 36 36" fill="none" xmlns="http://www.w3.org/2000/svg">
<g clip-path="url(#clip0_452_6152)">
<path d="M35.3339 13.1409C34.7479 11.0453 33.7968 9.09436 32.5016 7.33648L33.0453 6.79283C33.266 6.57212 33.3418 6.25114 33.2431 5.95513C33.1443 5.65912 32.8911 5.44776 32.5823 5.40367L30.5669 5.11574C27.2518 1.88075 22.8861 0.0654261 18.2519 0.00179354C13.9073 -0.0598 9.68094 1.46689 6.357 4.29562C6.13523 4.48441 6.10837 4.8172 6.29709 5.03896C6.48581 5.26087 6.81867 5.28773 7.04043 5.09887C10.1698 2.43586 14.1472 1.00149 18.2374 1.05634C22.0842 1.10921 25.7346 2.44402 28.6838 4.84673L28.162 4.7722C27.8129 4.72235 27.4698 4.83674 27.2203 5.086C26.9709 5.3354 26.8565 5.67866 26.9063 6.02783L26.9898 6.61213C24.3521 4.52111 21.0983 3.42087 17.6855 3.49561C14.6951 3.55889 11.8389 4.53257 9.42542 6.31119C7.16833 7.97471 5.45686 10.2172 4.45723 12.8134H1.87164C2.59086 10.5953 3.77914 8.51724 5.34078 6.76182C5.53435 6.54414 5.51487 6.21086 5.29732 6.01729C5.07964 5.82372 4.74636 5.84326 4.55279 6.06074C2.74337 8.0948 1.40589 10.5373 0.672396 13.1364C0.264866 13.4376 0 13.9213 0 14.4657V21.5344C0 22.0763 0.262124 22.5579 0.666208 22.8595C1.25289 24.9575 2.20337 26.9072 3.49817 28.6637L2.95452 29.2072C2.73388 29.428 2.65808 29.7489 2.75687 30.0449C2.85552 30.341 3.10878 30.5523 3.4176 30.5964L5.43281 30.8843C8.74811 34.1194 13.1138 35.9347 17.7478 35.9983C17.8329 35.9995 17.9179 36 18.0029 36C21.9868 36 25.7627 34.7147 28.9378 32.2748C32.0202 29.906 34.2826 26.5705 35.3287 22.8629C35.7355 22.5616 35.9999 22.0784 35.9999 21.5344V14.4656C35.9999 13.924 35.7379 13.4424 35.3339 13.1409ZM27.9052 22.132C27.6139 22.132 27.3779 22.3681 27.3779 22.6593C27.3779 22.9507 27.6139 23.1867 27.9052 23.1867H30.4057C28.358 28.0486 23.5818 31.3378 18.2922 31.45C14.7365 31.525 11.3653 30.2288 8.7827 27.7969L8.46194 25.5519C8.41785 25.243 8.20649 24.9898 7.91048 24.8911C7.61446 24.7924 7.29349 24.8682 7.07278 25.0888L6.76319 25.3985C6.3018 24.6992 5.90784 23.9582 5.58504 23.1867H25.4442C25.7355 23.1867 25.9716 22.9507 25.9716 22.6593C25.9716 22.3681 25.7355 22.132 25.4442 22.132H1.65234C1.32278 22.132 1.05468 21.8639 1.05468 21.5344V14.4656C1.05468 14.1361 1.32278 13.8679 1.65234 13.8679H4.82032C4.82145 13.8679 4.82257 13.8681 4.8237 13.8681C4.82433 13.8681 4.82489 13.8679 4.82553 13.8679H34.3475C34.6771 13.8679 34.9452 14.1361 34.9452 14.4656V21.5343C34.9452 21.8638 34.6771 22.1319 34.3475 22.1319H27.9052V22.132ZM27.9661 5.83187C27.9855 5.81254 28.0059 5.81535 28.0128 5.81626L31.9656 6.38094L31.6112 6.73539C31.3246 7.02219 31.293 7.48344 31.5378 7.80828C32.6865 9.33167 33.5581 11.012 34.1357 12.8133H31.5502C31.1387 11.7392 30.6008 10.7159 29.946 9.76753C29.8076 9.567 29.5891 9.43938 29.3463 9.4173C29.1038 9.39537 28.8654 9.48129 28.6929 9.65376L28.5152 9.83144L27.9505 5.8787C27.9495 5.87188 27.9466 5.85135 27.9661 5.83187ZM17.708 4.54994C21.266 4.47597 24.6348 5.77133 27.2172 8.20308L27.5378 10.448C27.5819 10.757 27.7932 11.0101 28.0892 11.1088C28.385 11.2075 28.7062 11.1318 28.9271 10.9111L29.2366 10.6016C29.698 11.3009 30.0919 12.0418 30.4147 12.8133H5.59411C7.64188 7.95115 12.4183 4.66202 17.708 4.54994ZM4.61227 28.388C3.38926 26.8141 2.46697 25.0678 1.86405 23.1866H4.44964C4.86118 24.2608 5.39906 25.2842 6.05388 26.2325C6.1924 26.4331 6.411 26.5607 6.65372 26.5827C6.89629 26.6051 7.13458 26.5185 7.30699 26.3462L7.48466 26.1685L8.04934 30.1212C8.05033 30.1281 8.05328 30.1486 8.03373 30.1681C8.01433 30.1875 7.9938 30.1845 7.98698 30.1837L4.03416 29.619L4.56875 29.0845C4.75669 28.8965 4.77539 28.598 4.61227 28.388ZM17.9982 34.9452C17.9198 34.9452 17.841 34.9447 17.7623 34.9437C13.9157 34.8909 10.2652 33.5561 7.31592 31.1533L7.83798 31.2279C7.8917 31.2355 7.94514 31.2393 7.9983 31.2393C8.2903 31.2393 8.56853 31.1249 8.77953 30.9139C9.02886 30.6646 9.14333 30.3214 9.09348 29.9722L9.00995 29.3874C11.5659 31.4134 14.7 32.5078 17.9979 32.5078C18.1033 32.5078 18.2089 32.5067 18.3146 32.5045C21.305 32.4411 24.1612 31.4674 26.5745 29.6888C28.8316 28.0253 30.543 25.7829 31.5426 23.1867H34.1298C31.8786 30.1774 25.3816 34.9452 17.9982 34.9452Z" fill="white"/>
<path d="M21.9619 15.5491C21.9602 15.5443 21.9582 15.5394 21.9562 15.5347C21.8582 15.2964 21.6285 15.1426 21.3709 15.1426C21.3707 15.1426 21.3705 15.1426 21.3703 15.1426C21.1125 15.1429 20.8828 15.2972 20.7851 15.5358C20.7834 15.5398 20.7819 15.5439 20.7804 15.5479L19.0308 20.1417C18.9271 20.4138 19.0638 20.7185 19.3359 20.8222C19.3977 20.8458 19.4611 20.8569 19.5235 20.8569C19.736 20.8569 19.9363 20.7275 20.0164 20.5171L20.3228 19.7127H22.4059L22.709 20.5156C22.8118 20.7881 23.1161 20.9258 23.3886 20.8228C23.661 20.72 23.7985 20.4157 23.6957 20.1432L21.9619 15.5491ZM20.7243 18.6579L21.369 16.9652L22.0078 18.6579H20.7243Z" fill="white"/>
<path d="M32.4473 16.2187C32.7386 16.2187 32.9746 15.9827 32.9746 15.6914C32.9746 15.4001 32.7386 15.1641 32.4473 15.1641H30.502C30.2106 15.1641 29.9746 15.4001 29.9746 15.6914V20.3083C29.9746 20.5996 30.2106 20.8356 30.502 20.8356H32.4473C32.7386 20.8356 32.9746 20.5996 32.9746 20.3083C32.9746 20.0169 32.7386 19.7809 32.4473 19.7809H31.0293V18.5272H32.3039C32.5951 18.5272 32.8312 18.2911 32.8312 17.9998C32.8312 17.7085 32.5951 17.4725 32.3039 17.4725H31.0293V16.2187H32.4473Z" fill="white"/>
<path d="M15.3685 15.2109H14.0879C13.9479 15.2109 13.8136 15.2666 13.7146 15.3657C13.6157 15.4648 13.5603 15.5992 13.5605 15.7392V15.7428V15.743V20.1863C13.5605 20.2229 13.5643 20.2584 13.5713 20.2929C13.5794 20.4214 13.6337 20.5429 13.7255 20.6341C13.8242 20.7321 13.9578 20.7871 14.097 20.7871H14.0989C14.1376 20.787 15.0505 20.7835 15.415 20.7771C16.7516 20.7538 17.7216 19.5855 17.7216 17.999C17.7218 16.3314 16.7761 15.2109 15.3685 15.2109ZM15.3968 19.7226C15.2196 19.7257 14.9005 19.7282 14.6226 19.7298C14.6209 19.1951 14.6185 18.3919 14.6185 17.9941C14.6185 17.6618 14.6171 16.8218 14.6162 16.2656H15.3685C16.3259 16.2656 16.6671 17.161 16.6671 17.999C16.6671 18.8459 16.2743 19.7073 15.3968 19.7226Z" fill="white"/>
<path d="M6.79034 15.1426C6.49911 15.1426 6.263 15.3786 6.263 15.6699V18.8727C6.263 19.1117 6.1962 19.4197 5.67497 19.6822C5.51726 19.7617 5.33895 19.802 5.14517 19.802C5.14454 19.802 5.1439 19.802 5.14327 19.802C4.92685 19.8017 4.73855 19.7485 4.56762 19.6393C4.16298 19.3808 4.08008 19.1473 4.08008 18.8761V15.6699C4.08008 15.3786 3.84404 15.1426 3.55273 15.1426C3.2615 15.1426 3.02539 15.3786 3.02539 15.6699V18.8761C3.02539 19.5688 3.34412 20.1092 3.99971 20.5279C4.34009 20.7455 4.72435 20.8561 5.14187 20.8567H5.14524C5.50531 20.8567 5.84323 20.7785 6.14944 20.6241C7.11497 20.1378 7.31768 19.4033 7.31768 18.8727V15.6699C7.31768 15.3787 7.08165 15.1426 6.79034 15.1426Z" fill="white"/>
<path d="M28.1054 15.1426H25.5322C25.2409 15.1426 25.0049 15.3786 25.0049 15.6699C25.0049 15.9612 25.2409 16.1973 25.5322 16.1973H26.2863V20.3293C26.2863 20.6206 26.5223 20.8567 26.8136 20.8567C27.1049 20.8567 27.3409 20.6206 27.3409 20.3293V16.1973H28.1054C28.3967 16.1973 28.6327 15.9612 28.6327 15.6699C28.6327 15.3786 28.3966 15.1426 28.1054 15.1426Z" fill="white"/>
<path d="M10.4175 15.1426H9.12012C8.82888 15.1426 8.59277 15.3786 8.59277 15.6699V20.3293C8.59277 20.6206 8.82881 20.8567 9.12012 20.8567C9.41142 20.8567 9.64746 20.6206 9.64746 20.3293V18.8299C9.92224 18.8285 10.2395 18.827 10.4175 18.827C11.4475 18.827 12.2854 18.0006 12.2854 16.9848C12.2854 15.969 11.4475 15.1426 10.4175 15.1426ZM10.4175 17.7723C10.2407 17.7723 9.92737 17.7737 9.65358 17.7751C9.6521 17.4926 9.6507 17.1662 9.6507 16.9848C9.6507 16.8315 9.64985 16.4928 9.64908 16.1973H10.4176C10.8585 16.1973 11.2308 16.558 11.2308 16.9848C11.2308 17.4117 10.8584 17.7723 10.4175 17.7723Z" fill="white"/>
</g>
<defs>
<clipPath id="clip0_452_6152">
<rect width="36" height="36" fill="white"/>
</clipPath>
</defs>
</svg>
