<svg width="25" height="25" viewBox="0 0 25 25" fill="none" xmlns="http://www.w3.org/2000/svg">
<path d="M14.1563 12.4981L18.795 7.85945C19.0152 7.63969 19.139 7.34148 19.1393 7.03041C19.1395 6.71935 19.0162 6.42091 18.7965 6.20076C18.5767 5.98061 18.2785 5.85678 17.9674 5.8565C17.6564 5.85623 17.3579 5.97954 17.1378 6.1993L12.4991 10.838L7.86043 6.1993C7.64028 5.97915 7.34169 5.85547 7.03035 5.85547C6.71901 5.85547 6.42043 5.97915 6.20028 6.1993C5.98012 6.41945 5.85645 6.71804 5.85645 7.02938C5.85645 7.34072 5.98012 7.6393 6.20028 7.85945L10.8389 12.4981L6.20028 17.1368C5.98012 17.3569 5.85645 17.6555 5.85645 17.9669C5.85645 18.2782 5.98012 18.5768 6.20028 18.797C6.42043 19.0171 6.71901 19.1408 7.03035 19.1408C7.34169 19.1408 7.64028 19.0171 7.86043 18.797L12.4991 14.1583L17.1378 18.797C17.3579 19.0171 17.6565 19.1408 17.9679 19.1408C18.2792 19.1408 18.5778 19.0171 18.7979 18.797C19.0181 18.5768 19.1418 18.2782 19.1418 17.9669C19.1418 17.6555 19.0181 17.3569 18.7979 17.1368L14.1563 12.4981Z" fill="#333333"/>
</svg>
