<svg width="40" height="40" viewBox="0 0 40 40" fill="none" xmlns="http://www.w3.org/2000/svg">
<path d="M17.0498 3.2793C9.44455 3.2793 3.2793 9.44456 3.2793 17.0498C3.2793 24.655 9.44455 30.8203 17.0498 30.8203C24.655 30.8203 30.8203 24.655 30.8203 17.0498C30.8116 9.44815 24.6514 3.28797 17.0498 3.2793ZM17.0498 29.5088C10.1689 29.5088 4.59077 23.9307 4.59077 17.0498C4.59077 10.1689 10.1689 4.59077 17.0498 4.59077C23.9307 4.59077 29.5088 10.1689 29.5088 17.0498C29.5012 23.9276 23.9276 29.5012 17.0498 29.5088Z" fill="white"/>
<path d="M25.3696 13.8285L24.7611 12.4593H25.5735C25.9357 12.4593 26.2293 12.1657 26.2293 11.8036C26.2293 11.4414 25.9357 11.1478 25.5735 11.1478H24.1781L23.2398 9.03701C22.924 8.32684 22.2196 7.86919 21.4424 7.86914H12.6555C11.878 7.86893 11.1734 8.32662 10.8575 9.03701L9.91912 11.1478H8.52437C8.16221 11.1478 7.86863 11.4414 7.86863 11.8036C7.86863 12.1657 8.16221 12.4593 8.52437 12.4593H9.33682L8.7283 13.8285C7.84213 14.0376 7.21526 14.8275 7.21289 15.738V20.9839C7.21633 21.8146 7.74118 22.5536 8.52437 22.8305V23.6068C8.52437 24.6933 9.40512 25.5741 10.4916 25.5741H11.8031C12.8895 25.5741 13.7703 24.6933 13.7703 23.6068V22.9511H20.3276V23.6068C20.3276 24.6933 21.2084 25.5741 22.2948 25.5741H23.6063C24.6928 25.5741 25.5735 24.6933 25.5735 23.6068V22.8305C26.3567 22.5536 26.8816 21.8146 26.885 20.9839V15.738C26.8826 14.8275 26.2558 14.0376 25.3696 13.8285ZM14.426 19.0167V18.3609C14.426 17.9988 14.7196 17.7052 15.0817 17.7052H19.0162C19.3783 17.7052 19.6719 17.9988 19.6719 18.3609V19.0167H14.426ZM19.0162 16.3937H15.0817C13.9953 16.3937 13.1145 17.2745 13.1145 18.3609V19.0167H8.52437V15.738C8.52437 15.3758 8.81795 15.0823 9.1801 15.0823H24.9178C25.28 15.0823 25.5735 15.3758 25.5735 15.738V19.0167H20.9834V18.3609C20.9834 17.2745 20.1026 16.3937 19.0162 16.3937ZM12.0555 9.57012C12.1608 9.33302 12.3961 9.18032 12.6555 9.18062H21.4424C21.7016 9.18058 21.9365 9.33324 22.0417 9.57012C22.0837 9.66324 23.8673 13.677 23.9086 13.7708H10.1893C10.3329 13.4468 11.8365 10.0613 12.0555 9.57012ZM12.4588 23.6068C12.4588 23.969 12.1652 24.2626 11.8031 24.2626H10.4916C10.1294 24.2626 9.83584 23.969 9.83584 23.6068V22.9511H12.4588V23.6068ZM24.2621 23.6068C24.2621 23.969 23.9685 24.2626 23.6063 24.2626H22.2948C21.9327 24.2626 21.6391 23.969 21.6391 23.6068V22.9511H24.2621V23.6068ZM24.9178 21.6396H9.1801C8.81795 21.6396 8.52437 21.346 8.52437 20.9839V20.3282H25.5735V20.9839C25.5735 21.346 25.28 21.6396 24.9178 21.6396Z" fill="white"/>
<path d="M11.1474 16.3945H10.4917C10.1295 16.3945 9.83594 16.6881 9.83594 17.0503C9.83594 17.4124 10.1295 17.706 10.4917 17.706H11.1474C11.5096 17.706 11.8032 17.4124 11.8032 17.0503C11.8032 16.6881 11.5096 16.3945 11.1474 16.3945Z" fill="white"/>
<path d="M22.9507 17.706H23.6064C23.9686 17.706 24.2622 17.4124 24.2622 17.0503C24.2622 16.6881 23.9686 16.3945 23.6064 16.3945H22.9507C22.5885 16.3945 22.2949 16.6881 22.2949 17.0503C22.2949 17.4124 22.5885 17.706 22.9507 17.706Z" fill="white"/>
<path d="M13.7714 12.46H13.837L20.3943 11.8043C20.6274 11.7809 20.8303 11.6349 20.9266 11.4213C21.0229 11.2077 20.9979 10.959 20.861 10.7688C20.7242 10.5787 20.4963 10.476 20.2632 10.4994L13.7058 11.1551C13.3437 11.1732 13.0648 11.4815 13.0829 11.8437C13.101 12.2058 13.4092 12.4847 13.7714 12.4666V12.46Z" fill="white"/>
<path d="M34.0333 30.5046C35.6497 28.5616 32.8615 26.1387 31.1389 27.8613L30.8878 28.1125L29.9376 27.1623C35.3046 20.3281 34.42 10.4961 27.9194 4.72963C21.4187 -1.03686 11.5514 -0.742431 5.4061 5.4014C-0.739186 11.5452 -1.03595 21.4125 4.72901 27.9145C10.494 34.4165 20.3257 35.3034 27.1612 29.938L28.112 30.8888L27.8609 31.14C27.1239 31.8827 27.0995 33.0731 27.8053 33.8454C28.5111 34.6178 29.6989 34.7004 30.5048 34.0331L35.7323 39.2613C36.7073 40.2362 38.2879 40.2362 39.2628 39.2613C40.2377 38.2864 40.2377 36.7057 39.2628 35.7308L34.0333 30.5046ZM1.96776 17.0495C1.96776 8.71997 8.72018 1.96754 17.0497 1.96754C25.3793 1.96754 32.1317 8.71997 32.1317 17.0495C32.1317 25.379 25.3793 32.1315 17.0497 32.1315C8.72393 32.1224 1.97679 25.3753 1.96776 17.0495ZM28.1645 29.0862C28.4836 28.7911 28.7896 28.4838 29.0825 28.1643L29.9586 29.0397L29.0366 29.9616L28.1645 29.0862ZM28.7874 32.0659C29.8248 31.0338 28.9592 31.9007 31.354 29.5052L32.0661 28.7872C32.3244 28.545 32.7282 28.5516 32.9785 28.802C33.2288 29.0525 33.235 29.4563 32.9927 29.7144L29.714 32.9931C29.4557 33.2353 29.0519 33.2287 28.8016 32.9783C28.5513 32.7279 28.5451 32.324 28.7874 32.0659ZM38.3343 38.3354C37.868 38.7899 37.1245 38.7899 36.6582 38.3354L31.4425 33.119L33.1186 31.4429L38.3363 36.6613C38.5616 36.8815 38.6886 37.1833 38.6886 37.4984C38.6886 37.8134 38.5616 38.1152 38.3363 38.3354H38.3343Z" fill="white"/>
</svg>
